<?xml version="1.0" encoding="UTF-8" standalone="no"?>
<!DOCTYPE svg PUBLIC "-//W3C//DTD SVG 1.1//EN"
 "http://www.w3.org/Graphics/SVG/1.1/DTD/svg11.dtd">
<!-- Generated by graphviz version 2.43.0 (0)
 -->
<!-- Title: BST Pages: 1 -->
<svg width="693pt" height="385pt"
 viewBox="0.00 0.00 692.55 384.86" xmlns="http://www.w3.org/2000/svg" xmlns:xlink="http://www.w3.org/1999/xlink">
<g id="graph0" class="graph" transform="scale(1 1) rotate(0) translate(4 380.86)">
<title>BST</title>
<polygon fill="white" stroke="transparent" points="-4,4 -4,-380.86 688.55,-380.86 688.55,4 -4,4"/>
<!-- No_982632579 -->
<g id="node1" class="node">
<title>No_982632579</title>
<ellipse fill="none" stroke="black" cx="362.56" cy="-339.38" rx="69.09" ry="37.45"/>
<text text-anchor="middle" x="362.56" y="-350.68" font-family="Times,serif" font-size="14.00">Abel Costa</text>
<text text-anchor="middle" x="362.56" y="-335.68" font-family="Times,serif" font-size="14.00">982632579</text>
<text text-anchor="middle" x="362.56" y="-320.68" font-family="Times,serif" font-size="14.00">fb=0</text>
</g>
<!-- No_965115082 -->
<g id="node2" class="node">
<title>No_965115082</title>
<ellipse fill="none" stroke="black" cx="262.56" cy="-228.43" rx="75.82" ry="37.45"/>
<text text-anchor="middle" x="262.56" y="-239.73" font-family="Times,serif" font-size="14.00">Ana Barbosa</text>
<text text-anchor="middle" x="262.56" y="-224.73" font-family="Times,serif" font-size="14.00">965115082</text>
<text text-anchor="middle" x="262.56" y="-209.73" font-family="Times,serif" font-size="14.00">fb=0</text>
</g>
<!-- No_982632579&#45;&gt;No_965115082 -->
<g id="edge1" class="edge">
<title>No_982632579&#45;&gt;No_965115082</title>
<path fill="none" stroke="black" d="M332.29,-305.4C322.19,-294.4 310.83,-282.02 300.24,-270.49"/>
<polygon fill="black" stroke="black" points="302.76,-268.06 293.42,-263.06 297.61,-272.79 302.76,-268.06"/>
</g>
<!-- No_986979432 -->
<g id="node9" class="node">
<title>No_986979432</title>
<ellipse fill="none" stroke="black" cx="463.56" cy="-228.43" rx="107.46" ry="37.45"/>
<text text-anchor="middle" x="463.56" y="-239.73" font-family="Times,serif" font-size="14.00">Américo Rodrigues</text>
<text text-anchor="middle" x="463.56" y="-224.73" font-family="Times,serif" font-size="14.00">986979432</text>
<text text-anchor="middle" x="463.56" y="-209.73" font-family="Times,serif" font-size="14.00">fb=1</text>
</g>
<!-- No_982632579&#45;&gt;No_986979432 -->
<g id="edge8" class="edge">
<title>No_982632579&#45;&gt;No_986979432</title>
<path fill="none" stroke="black" d="M393.14,-305.4C402.95,-294.81 413.96,-282.94 424.3,-271.78"/>
<polygon fill="black" stroke="black" points="427.1,-273.91 431.33,-264.19 421.97,-269.15 427.1,-273.91"/>
</g>
<!-- No_960933790 -->
<g id="node3" class="node">
<title>No_960933790</title>
<ellipse fill="none" stroke="black" cx="85.56" cy="-117.48" rx="85.62" ry="37.45"/>
<text text-anchor="middle" x="85.56" y="-128.78" font-family="Times,serif" font-size="14.00">Andrea Santos</text>
<text text-anchor="middle" x="85.56" y="-113.78" font-family="Times,serif" font-size="14.00">960933790</text>
<text text-anchor="middle" x="85.56" y="-98.78" font-family="Times,serif" font-size="14.00">fb=0</text>
</g>
<!-- No_965115082&#45;&gt;No_960933790 -->
<g id="edge2" class="edge">
<title>No_965115082&#45;&gt;No_960933790</title>
<path fill="none" stroke="black" d="M216.06,-198.8C193.61,-184.99 166.48,-168.29 142.79,-153.7"/>
<polygon fill="black" stroke="black" points="144.58,-150.69 134.23,-148.43 140.91,-156.66 144.58,-150.69"/>
</g>
<!-- No_967387182 -->
<g id="node6" class="node">
<title>No_967387182</title>
<ellipse fill="none" stroke="black" cx="280.56" cy="-117.48" rx="91.43" ry="37.45"/>
<text text-anchor="middle" x="280.56" y="-128.78" font-family="Times,serif" font-size="14.00">Alfredo Martins</text>
<text text-anchor="middle" x="280.56" y="-113.78" font-family="Times,serif" font-size="14.00">967387182</text>
<text text-anchor="middle" x="280.56" y="-98.78" font-family="Times,serif" font-size="14.00">fb=0</text>
</g>
<!-- No_965115082&#45;&gt;No_967387182 -->
<g id="edge5" class="edge">
<title>No_965115082&#45;&gt;No_967387182</title>
<path fill="none" stroke="black" d="M268.6,-190.85C269.97,-182.58 271.44,-173.7 272.86,-165.09"/>
<polygon fill="black" stroke="black" points="276.32,-165.59 274.5,-155.15 269.42,-164.44 276.32,-165.59"/>
</g>
<!-- NUL_0 -->
<g id="node4" class="node">
<title>NUL_0</title>
<polygon fill="none" stroke="black" points="76.56,-44 32.56,-44 32.56,0 76.56,0 76.56,-44"/>
<text text-anchor="middle" x="54.56" y="-18.3" font-family="Times,serif" font-size="14.00">null</text>
</g>
<!-- No_960933790&#45;&gt;NUL_0 -->
<g id="edge3" class="edge">
<title>No_960933790&#45;&gt;NUL_0</title>
<path fill="none" stroke="black" d="M73.57,-80.34C70.66,-71.55 67.57,-62.23 64.75,-53.72"/>
<polygon fill="black" stroke="black" points="68.05,-52.57 61.58,-44.18 61.41,-54.77 68.05,-52.57"/>
</g>
<!-- NUL_1 -->
<g id="node5" class="node">
<title>NUL_1</title>
<polygon fill="none" stroke="black" points="138.56,-44 94.56,-44 94.56,0 138.56,0 138.56,-44"/>
<text text-anchor="middle" x="116.56" y="-18.3" font-family="Times,serif" font-size="14.00">null</text>
</g>
<!-- No_960933790&#45;&gt;NUL_1 -->
<g id="edge4" class="edge">
<title>No_960933790&#45;&gt;NUL_1</title>
<path fill="none" stroke="black" d="M97.55,-80.34C100.46,-71.55 103.55,-62.23 106.37,-53.72"/>
<polygon fill="black" stroke="black" points="109.71,-54.77 109.54,-44.18 103.07,-52.57 109.71,-54.77"/>
</g>
<!-- NUL_2 -->
<g id="node7" class="node">
<title>NUL_2</title>
<polygon fill="none" stroke="black" points="271.56,-44 227.56,-44 227.56,0 271.56,0 271.56,-44"/>
<text text-anchor="middle" x="249.56" y="-18.3" font-family="Times,serif" font-size="14.00">null</text>
</g>
<!-- No_967387182&#45;&gt;NUL_2 -->
<g id="edge6" class="edge">
<title>No_967387182&#45;&gt;NUL_2</title>
<path fill="none" stroke="black" d="M268.49,-80.07C265.58,-71.3 262.5,-62.02 259.69,-53.55"/>
<polygon fill="black" stroke="black" points="263.01,-52.45 256.54,-44.06 256.37,-54.65 263.01,-52.45"/>
</g>
<!-- NUL_3 -->
<g id="node8" class="node">
<title>NUL_3</title>
<polygon fill="none" stroke="black" points="333.56,-44 289.56,-44 289.56,0 333.56,0 333.56,-44"/>
<text text-anchor="middle" x="311.56" y="-18.3" font-family="Times,serif" font-size="14.00">null</text>
</g>
<!-- No_967387182&#45;&gt;NUL_3 -->
<g id="edge7" class="edge">
<title>No_967387182&#45;&gt;NUL_3</title>
<path fill="none" stroke="black" d="M292.63,-80.07C295.54,-71.3 298.62,-62.02 301.43,-53.55"/>
<polygon fill="black" stroke="black" points="304.75,-54.65 304.58,-44.06 298.11,-52.45 304.75,-54.65"/>
</g>
<!-- NUL_4 -->
<g id="node10" class="node">
<title>NUL_4</title>
<polygon fill="none" stroke="black" points="468.56,-139.48 424.56,-139.48 424.56,-95.48 468.56,-95.48 468.56,-139.48"/>
<text text-anchor="middle" x="446.56" y="-113.78" font-family="Times,serif" font-size="14.00">null</text>
</g>
<!-- No_986979432&#45;&gt;NUL_4 -->
<g id="edge9" class="edge">
<title>No_986979432&#45;&gt;NUL_4</title>
<path fill="none" stroke="black" d="M457.85,-190.85C455.77,-177.52 453.44,-162.58 451.44,-149.75"/>
<polygon fill="black" stroke="black" points="454.85,-148.9 449.85,-139.55 447.93,-149.97 454.85,-148.9"/>
</g>
<!-- No_994116870 -->
<g id="node11" class="node">
<title>No_994116870</title>
<ellipse fill="none" stroke="black" cx="585.56" cy="-117.48" rx="98.99" ry="37.45"/>
<text text-anchor="middle" x="585.56" y="-128.78" font-family="Times,serif" font-size="14.00">Alexandra Moura</text>
<text text-anchor="middle" x="585.56" y="-113.78" font-family="Times,serif" font-size="14.00">994116870</text>
<text text-anchor="middle" x="585.56" y="-98.78" font-family="Times,serif" font-size="14.00">fb=0</text>
</g>
<!-- No_986979432&#45;&gt;No_994116870 -->
<g id="edge10" class="edge">
<title>No_986979432&#45;&gt;No_994116870</title>
<path fill="none" stroke="black" d="M501.83,-193.26C513.98,-182.4 527.54,-170.29 540.14,-159.04"/>
<polygon fill="black" stroke="black" points="542.72,-161.43 547.85,-152.16 538.06,-156.21 542.72,-161.43"/>
</g>
<!-- NUL_5 -->
<g id="node12" class="node">
<title>NUL_5</title>
<polygon fill="none" stroke="black" points="576.56,-44 532.56,-44 532.56,0 576.56,0 576.56,-44"/>
<text text-anchor="middle" x="554.56" y="-18.3" font-family="Times,serif" font-size="14.00">null</text>
</g>
<!-- No_994116870&#45;&gt;NUL_5 -->
<g id="edge11" class="edge">
<title>No_994116870&#45;&gt;NUL_5</title>
<path fill="none" stroke="black" d="M573.49,-80.07C570.58,-71.3 567.5,-62.02 564.69,-53.55"/>
<polygon fill="black" stroke="black" points="568.01,-52.45 561.54,-44.06 561.37,-54.65 568.01,-52.45"/>
</g>
<!-- NUL_6 -->
<g id="node13" class="node">
<title>NUL_6</title>
<polygon fill="none" stroke="black" points="638.56,-44 594.56,-44 594.56,0 638.56,0 638.56,-44"/>
<text text-anchor="middle" x="616.56" y="-18.3" font-family="Times,serif" font-size="14.00">null</text>
</g>
<!-- No_994116870&#45;&gt;NUL_6 -->
<g id="edge12" class="edge">
<title>No_994116870&#45;&gt;NUL_6</title>
<path fill="none" stroke="black" d="M597.63,-80.07C600.54,-71.3 603.62,-62.02 606.43,-53.55"/>
<polygon fill="black" stroke="black" points="609.75,-54.65 609.58,-44.06 603.11,-52.45 609.75,-54.65"/>
</g>
</g>
</svg>
