<?xml version="1.0" encoding="UTF-8" standalone="no"?>
<!DOCTYPE svg PUBLIC "-//W3C//DTD SVG 1.1//EN"
 "http://www.w3.org/Graphics/SVG/1.1/DTD/svg11.dtd">
<!-- Generated by graphviz version 2.43.0 (0)
 -->
<!-- Title: BST Pages: 1 -->
<svg width="466pt" height="385pt"
 viewBox="0.00 0.00 465.95 384.86" xmlns="http://www.w3.org/2000/svg" xmlns:xlink="http://www.w3.org/1999/xlink">
<g id="graph0" class="graph" transform="scale(1 1) rotate(0) translate(4 380.86)">
<title>BST</title>
<polygon fill="white" stroke="transparent" points="-4,4 -4,-380.86 461.95,-380.86 461.95,4 -4,4"/>
<!-- No_957757463 -->
<g id="node1" class="node">
<title>No_957757463</title>
<ellipse fill="none" stroke="black" cx="285.63" cy="-339.38" rx="106.55" ry="37.45"/>
<text text-anchor="middle" x="285.63" y="-350.68" font-family="Times,serif" font-size="14.00">Cristina Rodrigues</text>
<text text-anchor="middle" x="285.63" y="-335.68" font-family="Times,serif" font-size="14.00">957757463</text>
<text text-anchor="middle" x="285.63" y="-320.68" font-family="Times,serif" font-size="14.00">fb=&#45;1</text>
</g>
<!-- No_951878546 -->
<g id="node2" class="node">
<title>No_951878546</title>
<ellipse fill="none" stroke="black" cx="195.63" cy="-228.43" rx="82.05" ry="37.45"/>
<text text-anchor="middle" x="195.63" y="-239.73" font-family="Times,serif" font-size="14.00">Carla Martins</text>
<text text-anchor="middle" x="195.63" y="-224.73" font-family="Times,serif" font-size="14.00">951878546</text>
<text text-anchor="middle" x="195.63" y="-209.73" font-family="Times,serif" font-size="14.00">fb=&#45;1</text>
</g>
<!-- No_957757463&#45;&gt;No_951878546 -->
<g id="edge1" class="edge">
<title>No_957757463&#45;&gt;No_951878546</title>
<path fill="none" stroke="black" d="M256.66,-303.31C248.31,-293.2 239.1,-282.06 230.44,-271.56"/>
<polygon fill="black" stroke="black" points="233,-269.17 223.93,-263.69 227.6,-273.63 233,-269.17"/>
</g>
<!-- No_962434215 -->
<g id="node7" class="node">
<title>No_962434215</title>
<ellipse fill="none" stroke="black" cx="376.63" cy="-228.43" rx="81.13" ry="37.45"/>
<text text-anchor="middle" x="376.63" y="-239.73" font-family="Times,serif" font-size="14.00">Carlos Barros</text>
<text text-anchor="middle" x="376.63" y="-224.73" font-family="Times,serif" font-size="14.00">962434215</text>
<text text-anchor="middle" x="376.63" y="-209.73" font-family="Times,serif" font-size="14.00">fb=0</text>
</g>
<!-- No_957757463&#45;&gt;No_962434215 -->
<g id="edge6" class="edge">
<title>No_957757463&#45;&gt;No_962434215</title>
<path fill="none" stroke="black" d="M314.92,-303.31C323.37,-293.2 332.67,-282.06 341.44,-271.56"/>
<polygon fill="black" stroke="black" points="344.29,-273.61 348.01,-263.69 338.92,-269.12 344.29,-273.61"/>
</g>
<!-- No_912927254 -->
<g id="node3" class="node">
<title>No_912927254</title>
<ellipse fill="none" stroke="black" cx="92.63" cy="-117.48" rx="92.76" ry="37.45"/>
<text text-anchor="middle" x="92.63" y="-128.78" font-family="Times,serif" font-size="14.00">Carlos Machado</text>
<text text-anchor="middle" x="92.63" y="-113.78" font-family="Times,serif" font-size="14.00">912927254</text>
<text text-anchor="middle" x="92.63" y="-98.78" font-family="Times,serif" font-size="14.00">fb=0</text>
</g>
<!-- No_951878546&#45;&gt;No_912927254 -->
<g id="edge2" class="edge">
<title>No_951878546&#45;&gt;No_912927254</title>
<path fill="none" stroke="black" d="M163.89,-193.85C153.9,-183.28 142.74,-171.48 132.27,-160.41"/>
<polygon fill="black" stroke="black" points="134.57,-157.75 125.16,-152.88 129.49,-162.56 134.57,-157.75"/>
</g>
<!-- NUL_2 -->
<g id="node6" class="node">
<title>NUL_2</title>
<polygon fill="none" stroke="black" points="247.63,-139.48 203.63,-139.48 203.63,-95.48 247.63,-95.48 247.63,-139.48"/>
<text text-anchor="middle" x="225.63" y="-113.78" font-family="Times,serif" font-size="14.00">null</text>
</g>
<!-- No_951878546&#45;&gt;NUL_2 -->
<g id="edge5" class="edge">
<title>No_951878546&#45;&gt;NUL_2</title>
<path fill="none" stroke="black" d="M205.62,-191.15C209.33,-177.67 213.51,-162.51 217.08,-149.53"/>
<polygon fill="black" stroke="black" points="220.51,-150.24 219.79,-139.67 213.77,-148.39 220.51,-150.24"/>
</g>
<!-- NUL_0 -->
<g id="node4" class="node">
<title>NUL_0</title>
<polygon fill="none" stroke="black" points="83.63,-44 39.63,-44 39.63,0 83.63,0 83.63,-44"/>
<text text-anchor="middle" x="61.63" y="-18.3" font-family="Times,serif" font-size="14.00">null</text>
</g>
<!-- No_912927254&#45;&gt;NUL_0 -->
<g id="edge3" class="edge">
<title>No_912927254&#45;&gt;NUL_0</title>
<path fill="none" stroke="black" d="M80.56,-80.07C77.65,-71.3 74.57,-62.02 71.76,-53.55"/>
<polygon fill="black" stroke="black" points="75.08,-52.45 68.61,-44.06 68.44,-54.65 75.08,-52.45"/>
</g>
<!-- NUL_1 -->
<g id="node5" class="node">
<title>NUL_1</title>
<polygon fill="none" stroke="black" points="145.63,-44 101.63,-44 101.63,0 145.63,0 145.63,-44"/>
<text text-anchor="middle" x="123.63" y="-18.3" font-family="Times,serif" font-size="14.00">null</text>
</g>
<!-- No_912927254&#45;&gt;NUL_1 -->
<g id="edge4" class="edge">
<title>No_912927254&#45;&gt;NUL_1</title>
<path fill="none" stroke="black" d="M104.71,-80.07C107.61,-71.3 110.69,-62.02 113.5,-53.55"/>
<polygon fill="black" stroke="black" points="116.82,-54.65 116.65,-44.06 110.18,-52.45 116.82,-54.65"/>
</g>
<!-- NUL_3 -->
<g id="node8" class="node">
<title>NUL_3</title>
<polygon fill="none" stroke="black" points="368.63,-139.48 324.63,-139.48 324.63,-95.48 368.63,-95.48 368.63,-139.48"/>
<text text-anchor="middle" x="346.63" y="-113.78" font-family="Times,serif" font-size="14.00">null</text>
</g>
<!-- No_962434215&#45;&gt;NUL_3 -->
<g id="edge7" class="edge">
<title>No_962434215&#45;&gt;NUL_3</title>
<path fill="none" stroke="black" d="M366.64,-191.15C362.93,-177.67 358.75,-162.51 355.18,-149.53"/>
<polygon fill="black" stroke="black" points="358.5,-148.39 352.47,-139.67 351.75,-150.24 358.5,-148.39"/>
</g>
<!-- NUL_4 -->
<g id="node9" class="node">
<title>NUL_4</title>
<polygon fill="none" stroke="black" points="430.63,-139.48 386.63,-139.48 386.63,-95.48 430.63,-95.48 430.63,-139.48"/>
<text text-anchor="middle" x="408.63" y="-113.78" font-family="Times,serif" font-size="14.00">null</text>
</g>
<!-- No_962434215&#45;&gt;NUL_4 -->
<g id="edge8" class="edge">
<title>No_962434215&#45;&gt;NUL_4</title>
<path fill="none" stroke="black" d="M387.29,-191.15C391.25,-177.67 395.7,-162.51 399.51,-149.53"/>
<polygon fill="black" stroke="black" points="402.95,-150.25 402.41,-139.67 396.23,-148.28 402.95,-150.25"/>
</g>
</g>
</svg>
