<?xml version="1.0" encoding="UTF-8" standalone="no"?>
<!DOCTYPE svg PUBLIC "-//W3C//DTD SVG 1.1//EN"
 "http://www.w3.org/Graphics/SVG/1.1/DTD/svg11.dtd">
<!-- Generated by graphviz version 2.43.0 (0)
 -->
<!-- Title: BST Pages: 1 -->
<svg width="386pt" height="385pt"
 viewBox="0.00 0.00 385.71 384.86" xmlns="http://www.w3.org/2000/svg" xmlns:xlink="http://www.w3.org/1999/xlink">
<g id="graph0" class="graph" transform="scale(1 1) rotate(0) translate(4 380.86)">
<title>BST</title>
<polygon fill="white" stroke="transparent" points="-4,4 -4,-380.86 381.71,-380.86 381.71,4 -4,4"/>
<!-- No_980733597 -->
<g id="node1" class="node">
<title>No_980733597</title>
<ellipse fill="none" stroke="black" cx="149.3" cy="-339.38" rx="69.09" ry="37.45"/>
<text text-anchor="middle" x="149.3" y="-350.68" font-family="Times,serif" font-size="14.00">Yago Costa</text>
<text text-anchor="middle" x="149.3" y="-335.68" font-family="Times,serif" font-size="14.00">980733597</text>
<text text-anchor="middle" x="149.3" y="-320.68" font-family="Times,serif" font-size="14.00">fb=1</text>
</g>
<!-- No_980460411 -->
<g id="node2" class="node">
<title>No_980460411</title>
<ellipse fill="none" stroke="black" cx="69.3" cy="-228.43" rx="69.09" ry="37.45"/>
<text text-anchor="middle" x="69.3" y="-239.73" font-family="Times,serif" font-size="14.00">Yago Souza</text>
<text text-anchor="middle" x="69.3" y="-224.73" font-family="Times,serif" font-size="14.00">980460411</text>
<text text-anchor="middle" x="69.3" y="-209.73" font-family="Times,serif" font-size="14.00">fb=0</text>
</g>
<!-- No_980733597&#45;&gt;No_980460411 -->
<g id="edge1" class="edge">
<title>No_980733597&#45;&gt;No_980460411</title>
<path fill="none" stroke="black" d="M124.2,-304.21C116.61,-293.86 108.18,-282.38 100.25,-271.58"/>
<polygon fill="black" stroke="black" points="103.04,-269.47 94.3,-263.48 97.4,-273.62 103.04,-269.47"/>
</g>
<!-- No_988932196 -->
<g id="node5" class="node">
<title>No_988932196</title>
<ellipse fill="none" stroke="black" cx="229.3" cy="-228.43" rx="72.66" ry="37.45"/>
<text text-anchor="middle" x="229.3" y="-239.73" font-family="Times,serif" font-size="14.00">Yago Barros</text>
<text text-anchor="middle" x="229.3" y="-224.73" font-family="Times,serif" font-size="14.00">988932196</text>
<text text-anchor="middle" x="229.3" y="-209.73" font-family="Times,serif" font-size="14.00">fb=1</text>
</g>
<!-- No_980733597&#45;&gt;No_988932196 -->
<g id="edge4" class="edge">
<title>No_980733597&#45;&gt;No_988932196</title>
<path fill="none" stroke="black" d="M174.39,-304.21C181.84,-294.06 190.09,-282.82 197.89,-272.21"/>
<polygon fill="black" stroke="black" points="200.92,-273.99 204.02,-263.86 195.28,-269.85 200.92,-273.99"/>
</g>
<!-- NUL_0 -->
<g id="node3" class="node">
<title>NUL_0</title>
<polygon fill="none" stroke="black" points="60.3,-139.48 16.3,-139.48 16.3,-95.48 60.3,-95.48 60.3,-139.48"/>
<text text-anchor="middle" x="38.3" y="-113.78" font-family="Times,serif" font-size="14.00">null</text>
</g>
<!-- No_980460411&#45;&gt;NUL_0 -->
<g id="edge2" class="edge">
<title>No_980460411&#45;&gt;NUL_0</title>
<path fill="none" stroke="black" d="M58.97,-191.15C55.14,-177.67 50.82,-162.51 47.13,-149.53"/>
<polygon fill="black" stroke="black" points="50.43,-148.33 44.33,-139.67 43.7,-150.25 50.43,-148.33"/>
</g>
<!-- NUL_1 -->
<g id="node4" class="node">
<title>NUL_1</title>
<polygon fill="none" stroke="black" points="122.3,-139.48 78.3,-139.48 78.3,-95.48 122.3,-95.48 122.3,-139.48"/>
<text text-anchor="middle" x="100.3" y="-113.78" font-family="Times,serif" font-size="14.00">null</text>
</g>
<!-- No_980460411&#45;&gt;NUL_1 -->
<g id="edge3" class="edge">
<title>No_980460411&#45;&gt;NUL_1</title>
<path fill="none" stroke="black" d="M79.62,-191.15C83.45,-177.67 87.77,-162.51 91.46,-149.53"/>
<polygon fill="black" stroke="black" points="94.9,-150.25 94.27,-139.67 88.16,-148.33 94.9,-150.25"/>
</g>
<!-- NUL_2 -->
<g id="node6" class="node">
<title>NUL_2</title>
<polygon fill="none" stroke="black" points="217.3,-139.48 173.3,-139.48 173.3,-95.48 217.3,-95.48 217.3,-139.48"/>
<text text-anchor="middle" x="195.3" y="-113.78" font-family="Times,serif" font-size="14.00">null</text>
</g>
<!-- No_988932196&#45;&gt;NUL_2 -->
<g id="edge5" class="edge">
<title>No_988932196&#45;&gt;NUL_2</title>
<path fill="none" stroke="black" d="M217.97,-191.15C213.77,-177.67 209.04,-162.51 204.99,-149.53"/>
<polygon fill="black" stroke="black" points="208.23,-148.18 201.91,-139.67 201.55,-150.26 208.23,-148.18"/>
</g>
<!-- No_995110918 -->
<g id="node7" class="node">
<title>No_995110918</title>
<ellipse fill="none" stroke="black" cx="306.3" cy="-117.48" rx="71.34" ry="37.45"/>
<text text-anchor="middle" x="306.3" y="-128.78" font-family="Times,serif" font-size="14.00">Yago Moura</text>
<text text-anchor="middle" x="306.3" y="-113.78" font-family="Times,serif" font-size="14.00">995110918</text>
<text text-anchor="middle" x="306.3" y="-98.78" font-family="Times,serif" font-size="14.00">fb=0</text>
</g>
<!-- No_988932196&#45;&gt;No_995110918 -->
<g id="edge6" class="edge">
<title>No_988932196&#45;&gt;No_995110918</title>
<path fill="none" stroke="black" d="M253.66,-192.96C260.75,-182.92 268.59,-171.83 276,-161.35"/>
<polygon fill="black" stroke="black" points="278.91,-163.29 281.83,-153.1 273.2,-159.25 278.91,-163.29"/>
</g>
<!-- NUL_3 -->
<g id="node8" class="node">
<title>NUL_3</title>
<polygon fill="none" stroke="black" points="297.3,-44 253.3,-44 253.3,0 297.3,0 297.3,-44"/>
<text text-anchor="middle" x="275.3" y="-18.3" font-family="Times,serif" font-size="14.00">null</text>
</g>
<!-- No_995110918&#45;&gt;NUL_3 -->
<g id="edge7" class="edge">
<title>No_995110918&#45;&gt;NUL_3</title>
<path fill="none" stroke="black" d="M294.31,-80.34C291.4,-71.55 288.31,-62.23 285.48,-53.72"/>
<polygon fill="black" stroke="black" points="288.79,-52.57 282.32,-44.18 282.15,-54.77 288.79,-52.57"/>
</g>
<!-- NUL_4 -->
<g id="node9" class="node">
<title>NUL_4</title>
<polygon fill="none" stroke="black" points="359.3,-44 315.3,-44 315.3,0 359.3,0 359.3,-44"/>
<text text-anchor="middle" x="337.3" y="-18.3" font-family="Times,serif" font-size="14.00">null</text>
</g>
<!-- No_995110918&#45;&gt;NUL_4 -->
<g id="edge8" class="edge">
<title>No_995110918&#45;&gt;NUL_4</title>
<path fill="none" stroke="black" d="M318.28,-80.34C321.2,-71.55 324.29,-62.23 327.11,-53.72"/>
<polygon fill="black" stroke="black" points="330.45,-54.77 330.27,-44.18 323.8,-52.57 330.45,-54.77"/>
</g>
</g>
</svg>
