<?xml version="1.0" encoding="UTF-8" standalone="no"?>
<!DOCTYPE svg PUBLIC "-//W3C//DTD SVG 1.1//EN"
 "http://www.w3.org/Graphics/SVG/1.1/DTD/svg11.dtd">
<!-- Generated by graphviz version 2.43.0 (0)
 -->
<!-- Title: BST Pages: 1 -->
<svg width="922pt" height="496pt"
 viewBox="0.00 0.00 921.58 495.81" xmlns="http://www.w3.org/2000/svg" xmlns:xlink="http://www.w3.org/1999/xlink">
<g id="graph0" class="graph" transform="scale(1 1) rotate(0) translate(4 491.81)">
<title>BST</title>
<polygon fill="white" stroke="transparent" points="-4,4 -4,-491.81 917.58,-491.81 917.58,4 -4,4"/>
<!-- No_957299922 -->
<g id="node1" class="node">
<title>No_957299922</title>
<ellipse fill="none" stroke="black" cx="420.8" cy="-450.34" rx="84.29" ry="37.45"/>
<text text-anchor="middle" x="420.8" y="-461.64" font-family="Times,serif" font-size="14.00">Roberto Costa</text>
<text text-anchor="middle" x="420.8" y="-446.64" font-family="Times,serif" font-size="14.00">957299922</text>
<text text-anchor="middle" x="420.8" y="-431.64" font-family="Times,serif" font-size="14.00">fb=0</text>
</g>
<!-- No_955584774 -->
<g id="node2" class="node">
<title>No_955584774</title>
<ellipse fill="none" stroke="black" cx="318.8" cy="-339.38" rx="91.85" ry="37.45"/>
<text text-anchor="middle" x="318.8" y="-350.68" font-family="Times,serif" font-size="14.00">Roberto Pereira</text>
<text text-anchor="middle" x="318.8" y="-335.68" font-family="Times,serif" font-size="14.00">955584774</text>
<text text-anchor="middle" x="318.8" y="-320.68" font-family="Times,serif" font-size="14.00">fb=&#45;1</text>
</g>
<!-- No_957299922&#45;&gt;No_955584774 -->
<g id="edge1" class="edge">
<title>No_957299922&#45;&gt;No_955584774</title>
<path fill="none" stroke="black" d="M389.09,-415.46C379.2,-404.9 368.19,-393.14 357.86,-382.11"/>
<polygon fill="black" stroke="black" points="360.24,-379.52 350.85,-374.61 355.13,-384.31 360.24,-379.52"/>
</g>
<!-- No_977798643 -->
<g id="node11" class="node">
<title>No_977798643</title>
<ellipse fill="none" stroke="black" cx="523.8" cy="-339.38" rx="94.51" ry="37.45"/>
<text text-anchor="middle" x="523.8" y="-350.68" font-family="Times,serif" font-size="14.00">Roberto Martins</text>
<text text-anchor="middle" x="523.8" y="-335.68" font-family="Times,serif" font-size="14.00">977798643</text>
<text text-anchor="middle" x="523.8" y="-320.68" font-family="Times,serif" font-size="14.00">fb=1</text>
</g>
<!-- No_957299922&#45;&gt;No_977798643 -->
<g id="edge10" class="edge">
<title>No_957299922&#45;&gt;No_977798643</title>
<path fill="none" stroke="black" d="M452.83,-415.46C462.81,-404.9 473.93,-393.14 484.36,-382.11"/>
<polygon fill="black" stroke="black" points="487.12,-384.29 491.44,-374.61 482.03,-379.48 487.12,-384.29"/>
</g>
<!-- No_950807568 -->
<g id="node3" class="node">
<title>No_950807568</title>
<ellipse fill="none" stroke="black" cx="112.8" cy="-228.43" rx="101.23" ry="37.45"/>
<text text-anchor="middle" x="112.8" y="-239.73" font-family="Times,serif" font-size="14.00">Roberto Machado</text>
<text text-anchor="middle" x="112.8" y="-224.73" font-family="Times,serif" font-size="14.00">950807568</text>
<text text-anchor="middle" x="112.8" y="-209.73" font-family="Times,serif" font-size="14.00">fb=&#45;1</text>
</g>
<!-- No_955584774&#45;&gt;No_950807568 -->
<g id="edge2" class="edge">
<title>No_955584774&#45;&gt;No_950807568</title>
<path fill="none" stroke="black" d="M263.87,-309.33C237.74,-295.51 206.29,-278.88 178.87,-264.37"/>
<polygon fill="black" stroke="black" points="180.21,-261.12 169.74,-259.54 176.94,-267.31 180.21,-261.12"/>
</g>
<!-- No_956528835 -->
<g id="node8" class="node">
<title>No_956528835</title>
<ellipse fill="none" stroke="black" cx="319.8" cy="-228.43" rx="87.86" ry="37.45"/>
<text text-anchor="middle" x="319.8" y="-239.73" font-family="Times,serif" font-size="14.00">Roberto Torres</text>
<text text-anchor="middle" x="319.8" y="-224.73" font-family="Times,serif" font-size="14.00">956528835</text>
<text text-anchor="middle" x="319.8" y="-209.73" font-family="Times,serif" font-size="14.00">fb=0</text>
</g>
<!-- No_955584774&#45;&gt;No_956528835 -->
<g id="edge7" class="edge">
<title>No_955584774&#45;&gt;No_956528835</title>
<path fill="none" stroke="black" d="M319.14,-301.8C319.21,-293.63 319.29,-284.85 319.37,-276.32"/>
<polygon fill="black" stroke="black" points="322.87,-276.13 319.47,-266.1 315.87,-276.07 322.87,-276.13"/>
</g>
<!-- No_950232276 -->
<g id="node4" class="node">
<title>No_950232276</title>
<ellipse fill="none" stroke="black" cx="89.8" cy="-117.48" rx="89.61" ry="37.45"/>
<text text-anchor="middle" x="89.8" y="-128.78" font-family="Times,serif" font-size="14.00">Roberto Santos</text>
<text text-anchor="middle" x="89.8" y="-113.78" font-family="Times,serif" font-size="14.00">950232276</text>
<text text-anchor="middle" x="89.8" y="-98.78" font-family="Times,serif" font-size="14.00">fb=0</text>
</g>
<!-- No_950807568&#45;&gt;No_950232276 -->
<g id="edge3" class="edge">
<title>No_950807568&#45;&gt;No_950232276</title>
<path fill="none" stroke="black" d="M105.08,-190.85C103.34,-182.58 101.46,-173.7 99.64,-165.09"/>
<polygon fill="black" stroke="black" points="103.03,-164.21 97.54,-155.15 96.19,-165.66 103.03,-164.21"/>
</g>
<!-- NUL_2 -->
<g id="node7" class="node">
<title>NUL_2</title>
<polygon fill="none" stroke="black" points="241.8,-139.48 197.8,-139.48 197.8,-95.48 241.8,-95.48 241.8,-139.48"/>
<text text-anchor="middle" x="219.8" y="-113.78" font-family="Times,serif" font-size="14.00">null</text>
</g>
<!-- No_950807568&#45;&gt;NUL_2 -->
<g id="edge6" class="edge">
<title>No_950807568&#45;&gt;NUL_2</title>
<path fill="none" stroke="black" d="M149.9,-193.53C162.52,-181.61 176.54,-167.94 188.8,-154.95 191.08,-152.54 193.41,-149.98 195.71,-147.4"/>
<polygon fill="black" stroke="black" points="198.54,-149.48 202.47,-139.64 193.26,-144.88 198.54,-149.48"/>
</g>
<!-- NUL_0 -->
<g id="node5" class="node">
<title>NUL_0</title>
<polygon fill="none" stroke="black" points="80.8,-44 36.8,-44 36.8,0 80.8,0 80.8,-44"/>
<text text-anchor="middle" x="58.8" y="-18.3" font-family="Times,serif" font-size="14.00">null</text>
</g>
<!-- No_950232276&#45;&gt;NUL_0 -->
<g id="edge4" class="edge">
<title>No_950232276&#45;&gt;NUL_0</title>
<path fill="none" stroke="black" d="M77.73,-80.07C74.82,-71.3 71.74,-62.02 68.93,-53.55"/>
<polygon fill="black" stroke="black" points="72.26,-52.45 65.79,-44.06 65.61,-54.65 72.26,-52.45"/>
</g>
<!-- NUL_1 -->
<g id="node6" class="node">
<title>NUL_1</title>
<polygon fill="none" stroke="black" points="142.8,-44 98.8,-44 98.8,0 142.8,0 142.8,-44"/>
<text text-anchor="middle" x="120.8" y="-18.3" font-family="Times,serif" font-size="14.00">null</text>
</g>
<!-- No_950232276&#45;&gt;NUL_1 -->
<g id="edge5" class="edge">
<title>No_950232276&#45;&gt;NUL_1</title>
<path fill="none" stroke="black" d="M101.88,-80.07C104.78,-71.3 107.86,-62.02 110.67,-53.55"/>
<polygon fill="black" stroke="black" points="113.99,-54.65 113.82,-44.06 107.35,-52.45 113.99,-54.65"/>
</g>
<!-- NUL_3 -->
<g id="node9" class="node">
<title>NUL_3</title>
<polygon fill="none" stroke="black" points="322.8,-139.48 278.8,-139.48 278.8,-95.48 322.8,-95.48 322.8,-139.48"/>
<text text-anchor="middle" x="300.8" y="-113.78" font-family="Times,serif" font-size="14.00">null</text>
</g>
<!-- No_956528835&#45;&gt;NUL_3 -->
<g id="edge8" class="edge">
<title>No_956528835&#45;&gt;NUL_3</title>
<path fill="none" stroke="black" d="M313.42,-190.85C311.1,-177.52 308.49,-162.58 306.26,-149.75"/>
<polygon fill="black" stroke="black" points="309.64,-148.8 304.48,-139.55 302.75,-150.01 309.64,-148.8"/>
</g>
<!-- NUL_4 -->
<g id="node10" class="node">
<title>NUL_4</title>
<polygon fill="none" stroke="black" points="384.8,-139.48 340.8,-139.48 340.8,-95.48 384.8,-95.48 384.8,-139.48"/>
<text text-anchor="middle" x="362.8" y="-113.78" font-family="Times,serif" font-size="14.00">null</text>
</g>
<!-- No_956528835&#45;&gt;NUL_4 -->
<g id="edge9" class="edge">
<title>No_956528835&#45;&gt;NUL_4</title>
<path fill="none" stroke="black" d="M334.12,-191.15C339.49,-177.54 345.54,-162.21 350.7,-149.15"/>
<polygon fill="black" stroke="black" points="354.02,-150.26 354.44,-139.67 347.51,-147.69 354.02,-150.26"/>
</g>
<!-- No_967445584 -->
<g id="node12" class="node">
<title>No_967445584</title>
<ellipse fill="none" stroke="black" cx="523.8" cy="-228.43" rx="96.75" ry="37.45"/>
<text text-anchor="middle" x="523.8" y="-239.73" font-family="Times,serif" font-size="14.00">Roberto Barbosa</text>
<text text-anchor="middle" x="523.8" y="-224.73" font-family="Times,serif" font-size="14.00">967445584</text>
<text text-anchor="middle" x="523.8" y="-209.73" font-family="Times,serif" font-size="14.00">fb=0</text>
</g>
<!-- No_977798643&#45;&gt;No_967445584 -->
<g id="edge11" class="edge">
<title>No_977798643&#45;&gt;No_967445584</title>
<path fill="none" stroke="black" d="M523.8,-301.8C523.8,-293.63 523.8,-284.85 523.8,-276.32"/>
<polygon fill="black" stroke="black" points="527.3,-276.1 523.8,-266.1 520.3,-276.1 527.3,-276.1"/>
</g>
<!-- No_987356784 -->
<g id="node15" class="node">
<title>No_987356784</title>
<ellipse fill="none" stroke="black" cx="733.8" cy="-228.43" rx="95.42" ry="37.45"/>
<text text-anchor="middle" x="733.8" y="-239.73" font-family="Times,serif" font-size="14.00">Roberto Campos</text>
<text text-anchor="middle" x="733.8" y="-224.73" font-family="Times,serif" font-size="14.00">987356784</text>
<text text-anchor="middle" x="733.8" y="-209.73" font-family="Times,serif" font-size="14.00">fb=1</text>
</g>
<!-- No_977798643&#45;&gt;No_987356784 -->
<g id="edge14" class="edge">
<title>No_977798643&#45;&gt;No_987356784</title>
<path fill="none" stroke="black" d="M580.08,-309.19C607.27,-295.08 640.05,-278.07 668.35,-263.39"/>
<polygon fill="black" stroke="black" points="670.11,-266.42 677.37,-258.71 666.88,-260.21 670.11,-266.42"/>
</g>
<!-- NUL_5 -->
<g id="node13" class="node">
<title>NUL_5</title>
<polygon fill="none" stroke="black" points="483.8,-139.48 439.8,-139.48 439.8,-95.48 483.8,-95.48 483.8,-139.48"/>
<text text-anchor="middle" x="461.8" y="-113.78" font-family="Times,serif" font-size="14.00">null</text>
</g>
<!-- No_967445584&#45;&gt;NUL_5 -->
<g id="edge12" class="edge">
<title>No_967445584&#45;&gt;NUL_5</title>
<path fill="none" stroke="black" d="M503.5,-191.75C495.52,-177.74 486.47,-161.83 478.84,-148.42"/>
<polygon fill="black" stroke="black" points="481.81,-146.55 473.82,-139.59 475.72,-150.02 481.81,-146.55"/>
</g>
<!-- NUL_6 -->
<g id="node14" class="node">
<title>NUL_6</title>
<polygon fill="none" stroke="black" points="545.8,-139.48 501.8,-139.48 501.8,-95.48 545.8,-95.48 545.8,-139.48"/>
<text text-anchor="middle" x="523.8" y="-113.78" font-family="Times,serif" font-size="14.00">null</text>
</g>
<!-- No_967445584&#45;&gt;NUL_6 -->
<g id="edge13" class="edge">
<title>No_967445584&#45;&gt;NUL_6</title>
<path fill="none" stroke="black" d="M523.8,-190.85C523.8,-177.52 523.8,-162.58 523.8,-149.75"/>
<polygon fill="black" stroke="black" points="527.3,-149.55 523.8,-139.55 520.3,-149.55 527.3,-149.55"/>
</g>
<!-- NUL_7 -->
<g id="node16" class="node">
<title>NUL_7</title>
<polygon fill="none" stroke="black" points="681.8,-139.48 637.8,-139.48 637.8,-95.48 681.8,-95.48 681.8,-139.48"/>
<text text-anchor="middle" x="659.8" y="-113.78" font-family="Times,serif" font-size="14.00">null</text>
</g>
<!-- No_987356784&#45;&gt;NUL_7 -->
<g id="edge15" class="edge">
<title>No_987356784&#45;&gt;NUL_7</title>
<path fill="none" stroke="black" d="M709.78,-192.06C700.15,-177.89 689.19,-161.74 679.99,-148.19"/>
<polygon fill="black" stroke="black" points="682.74,-146.02 674.22,-139.71 676.95,-149.95 682.74,-146.02"/>
</g>
<!-- No_996323512 -->
<g id="node17" class="node">
<title>No_996323512</title>
<ellipse fill="none" stroke="black" cx="806.8" cy="-117.48" rx="106.55" ry="37.45"/>
<text text-anchor="middle" x="806.8" y="-128.78" font-family="Times,serif" font-size="14.00">Roberto Rodrigues</text>
<text text-anchor="middle" x="806.8" y="-113.78" font-family="Times,serif" font-size="14.00">996323512</text>
<text text-anchor="middle" x="806.8" y="-98.78" font-family="Times,serif" font-size="14.00">fb=0</text>
</g>
<!-- No_987356784&#45;&gt;No_996323512 -->
<g id="edge16" class="edge">
<title>No_987356784&#45;&gt;No_996323512</title>
<path fill="none" stroke="black" d="M757.5,-192.06C763.81,-182.64 770.71,-172.34 777.29,-162.52"/>
<polygon fill="black" stroke="black" points="780.31,-164.3 782.97,-154.05 774.5,-160.41 780.31,-164.3"/>
</g>
<!-- NUL_8 -->
<g id="node18" class="node">
<title>NUL_8</title>
<polygon fill="none" stroke="black" points="797.8,-44 753.8,-44 753.8,0 797.8,0 797.8,-44"/>
<text text-anchor="middle" x="775.8" y="-18.3" font-family="Times,serif" font-size="14.00">null</text>
</g>
<!-- No_996323512&#45;&gt;NUL_8 -->
<g id="edge17" class="edge">
<title>No_996323512&#45;&gt;NUL_8</title>
<path fill="none" stroke="black" d="M794.73,-80.07C791.82,-71.3 788.74,-62.02 785.93,-53.55"/>
<polygon fill="black" stroke="black" points="789.26,-52.45 782.79,-44.06 782.61,-54.65 789.26,-52.45"/>
</g>
<!-- NUL_9 -->
<g id="node19" class="node">
<title>NUL_9</title>
<polygon fill="none" stroke="black" points="859.8,-44 815.8,-44 815.8,0 859.8,0 859.8,-44"/>
<text text-anchor="middle" x="837.8" y="-18.3" font-family="Times,serif" font-size="14.00">null</text>
</g>
<!-- No_996323512&#45;&gt;NUL_9 -->
<g id="edge18" class="edge">
<title>No_996323512&#45;&gt;NUL_9</title>
<path fill="none" stroke="black" d="M818.88,-80.07C821.78,-71.3 824.86,-62.02 827.67,-53.55"/>
<polygon fill="black" stroke="black" points="830.99,-54.65 830.82,-44.06 824.35,-52.45 830.99,-54.65"/>
</g>
</g>
</svg>
