<?xml version="1.0" encoding="UTF-8" standalone="no"?>
<!DOCTYPE svg PUBLIC "-//W3C//DTD SVG 1.1//EN"
 "http://www.w3.org/Graphics/SVG/1.1/DTD/svg11.dtd">
<!-- Generated by graphviz version 2.43.0 (0)
 -->
<!-- Title: BST Pages: 1 -->
<svg width="392pt" height="385pt"
 viewBox="0.00 0.00 391.71 384.86" xmlns="http://www.w3.org/2000/svg" xmlns:xlink="http://www.w3.org/1999/xlink">
<g id="graph0" class="graph" transform="scale(1 1) rotate(0) translate(4 380.86)">
<title>BST</title>
<polygon fill="white" stroke="transparent" points="-4,4 -4,-380.86 387.71,-380.86 387.71,4 -4,4"/>
<!-- No_992966482 -->
<g id="node1" class="node">
<title>No_992966482</title>
<ellipse fill="none" stroke="black" cx="232.3" cy="-339.38" rx="69.09" ry="37.45"/>
<text text-anchor="middle" x="232.3" y="-350.68" font-family="Times,serif" font-size="14.00">João Torres</text>
<text text-anchor="middle" x="232.3" y="-335.68" font-family="Times,serif" font-size="14.00">992966482</text>
<text text-anchor="middle" x="232.3" y="-320.68" font-family="Times,serif" font-size="14.00">fb=&#45;1</text>
</g>
<!-- No_977969862 -->
<g id="node2" class="node">
<title>No_977969862</title>
<ellipse fill="none" stroke="black" cx="153.3" cy="-228.43" rx="69.09" ry="37.45"/>
<text text-anchor="middle" x="153.3" y="-239.73" font-family="Times,serif" font-size="14.00">Joana Alves</text>
<text text-anchor="middle" x="153.3" y="-224.73" font-family="Times,serif" font-size="14.00">977969862</text>
<text text-anchor="middle" x="153.3" y="-209.73" font-family="Times,serif" font-size="14.00">fb=&#45;1</text>
</g>
<!-- No_992966482&#45;&gt;No_977969862 -->
<g id="edge1" class="edge">
<title>No_992966482&#45;&gt;No_977969862</title>
<path fill="none" stroke="black" d="M207.52,-304.21C200.02,-293.86 191.69,-282.38 183.86,-271.58"/>
<polygon fill="black" stroke="black" points="186.69,-269.52 177.99,-263.48 181.02,-273.63 186.69,-269.52"/>
</g>
<!-- No_998921521 -->
<g id="node7" class="node">
<title>No_998921521</title>
<ellipse fill="none" stroke="black" cx="312.3" cy="-228.43" rx="71.34" ry="37.45"/>
<text text-anchor="middle" x="312.3" y="-239.73" font-family="Times,serif" font-size="14.00">Joana Costa</text>
<text text-anchor="middle" x="312.3" y="-224.73" font-family="Times,serif" font-size="14.00">998921521</text>
<text text-anchor="middle" x="312.3" y="-209.73" font-family="Times,serif" font-size="14.00">fb=0</text>
</g>
<!-- No_992966482&#45;&gt;No_998921521 -->
<g id="edge6" class="edge">
<title>No_992966482&#45;&gt;No_998921521</title>
<path fill="none" stroke="black" d="M257.39,-304.21C264.84,-294.06 273.09,-282.82 280.89,-272.21"/>
<polygon fill="black" stroke="black" points="283.92,-273.99 287.02,-263.86 278.28,-269.85 283.92,-273.99"/>
</g>
<!-- No_958501205 -->
<g id="node3" class="node">
<title>No_958501205</title>
<ellipse fill="none" stroke="black" cx="69.3" cy="-117.48" rx="69.09" ry="37.45"/>
<text text-anchor="middle" x="69.3" y="-128.78" font-family="Times,serif" font-size="14.00">Joana Porto</text>
<text text-anchor="middle" x="69.3" y="-113.78" font-family="Times,serif" font-size="14.00">958501205</text>
<text text-anchor="middle" x="69.3" y="-98.78" font-family="Times,serif" font-size="14.00">fb=0</text>
</g>
<!-- No_977969862&#45;&gt;No_958501205 -->
<g id="edge2" class="edge">
<title>No_977969862&#45;&gt;No_958501205</title>
<path fill="none" stroke="black" d="M127.18,-193.55C119.12,-183.1 110.14,-171.46 101.71,-160.52"/>
<polygon fill="black" stroke="black" points="104.28,-158.11 95.4,-152.33 98.73,-162.39 104.28,-158.11"/>
</g>
<!-- NUL_2 -->
<g id="node6" class="node">
<title>NUL_2</title>
<polygon fill="none" stroke="black" points="200.3,-139.48 156.3,-139.48 156.3,-95.48 200.3,-95.48 200.3,-139.48"/>
<text text-anchor="middle" x="178.3" y="-113.78" font-family="Times,serif" font-size="14.00">null</text>
</g>
<!-- No_977969862&#45;&gt;NUL_2 -->
<g id="edge5" class="edge">
<title>No_977969862&#45;&gt;NUL_2</title>
<path fill="none" stroke="black" d="M161.62,-191.15C164.71,-177.67 168.19,-162.51 171.17,-149.53"/>
<polygon fill="black" stroke="black" points="174.61,-150.2 173.43,-139.67 167.78,-148.64 174.61,-150.2"/>
</g>
<!-- NUL_0 -->
<g id="node4" class="node">
<title>NUL_0</title>
<polygon fill="none" stroke="black" points="60.3,-44 16.3,-44 16.3,0 60.3,0 60.3,-44"/>
<text text-anchor="middle" x="38.3" y="-18.3" font-family="Times,serif" font-size="14.00">null</text>
</g>
<!-- No_958501205&#45;&gt;NUL_0 -->
<g id="edge3" class="edge">
<title>No_958501205&#45;&gt;NUL_0</title>
<path fill="none" stroke="black" d="M57.31,-80.34C54.4,-71.55 51.31,-62.23 48.48,-53.72"/>
<polygon fill="black" stroke="black" points="51.79,-52.57 45.32,-44.18 45.15,-54.77 51.79,-52.57"/>
</g>
<!-- NUL_1 -->
<g id="node5" class="node">
<title>NUL_1</title>
<polygon fill="none" stroke="black" points="122.3,-44 78.3,-44 78.3,0 122.3,0 122.3,-44"/>
<text text-anchor="middle" x="100.3" y="-18.3" font-family="Times,serif" font-size="14.00">null</text>
</g>
<!-- No_958501205&#45;&gt;NUL_1 -->
<g id="edge4" class="edge">
<title>No_958501205&#45;&gt;NUL_1</title>
<path fill="none" stroke="black" d="M81.28,-80.34C84.2,-71.55 87.29,-62.23 90.11,-53.72"/>
<polygon fill="black" stroke="black" points="93.45,-54.77 93.27,-44.18 86.8,-52.57 93.45,-54.77"/>
</g>
<!-- NUL_3 -->
<g id="node8" class="node">
<title>NUL_3</title>
<polygon fill="none" stroke="black" points="310.3,-139.48 266.3,-139.48 266.3,-95.48 310.3,-95.48 310.3,-139.48"/>
<text text-anchor="middle" x="288.3" y="-113.78" font-family="Times,serif" font-size="14.00">null</text>
</g>
<!-- No_998921521&#45;&gt;NUL_3 -->
<g id="edge7" class="edge">
<title>No_998921521&#45;&gt;NUL_3</title>
<path fill="none" stroke="black" d="M304.3,-191.15C301.34,-177.67 298,-162.51 295.14,-149.53"/>
<polygon fill="black" stroke="black" points="298.54,-148.69 292.97,-139.67 291.7,-150.19 298.54,-148.69"/>
</g>
<!-- NUL_4 -->
<g id="node9" class="node">
<title>NUL_4</title>
<polygon fill="none" stroke="black" points="372.3,-139.48 328.3,-139.48 328.3,-95.48 372.3,-95.48 372.3,-139.48"/>
<text text-anchor="middle" x="350.3" y="-113.78" font-family="Times,serif" font-size="14.00">null</text>
</g>
<!-- No_998921521&#45;&gt;NUL_4 -->
<g id="edge8" class="edge">
<title>No_998921521&#45;&gt;NUL_4</title>
<path fill="none" stroke="black" d="M324.84,-191.45C329.6,-177.82 334.97,-162.43 339.54,-149.32"/>
<polygon fill="black" stroke="black" points="342.87,-150.39 342.86,-139.79 336.26,-148.08 342.87,-150.39"/>
</g>
</g>
</svg>
