<?xml version="1.0" encoding="UTF-8" standalone="no"?>
<!DOCTYPE svg PUBLIC "-//W3C//DTD SVG 1.1//EN"
 "http://www.w3.org/Graphics/SVG/1.1/DTD/svg11.dtd">
<!-- Generated by graphviz version 2.43.0 (0)
 -->
<!-- Title: BST Pages: 1 -->
<svg width="704pt" height="496pt"
 viewBox="0.00 0.00 704.15 495.81" xmlns="http://www.w3.org/2000/svg" xmlns:xlink="http://www.w3.org/1999/xlink">
<g id="graph0" class="graph" transform="scale(1 1) rotate(0) translate(4 491.81)">
<title>BST</title>
<polygon fill="white" stroke="transparent" points="-4,4 -4,-491.81 700.15,-491.81 700.15,4 -4,4"/>
<!-- No_966690692 -->
<g id="node1" class="node">
<title>No_966690692</title>
<ellipse fill="none" stroke="black" cx="404" cy="-450.34" rx="84.29" ry="37.45"/>
<text text-anchor="middle" x="404" y="-461.64" font-family="Times,serif" font-size="14.00">Marcela Costa</text>
<text text-anchor="middle" x="404" y="-446.64" font-family="Times,serif" font-size="14.00">966690692</text>
<text text-anchor="middle" x="404" y="-431.64" font-family="Times,serif" font-size="14.00">fb=&#45;1</text>
</g>
<!-- No_958585943 -->
<g id="node2" class="node">
<title>No_958585943</title>
<ellipse fill="none" stroke="black" cx="307" cy="-339.38" rx="86.03" ry="37.45"/>
<text text-anchor="middle" x="307" y="-350.68" font-family="Times,serif" font-size="14.00">Marcela Souza</text>
<text text-anchor="middle" x="307" y="-335.68" font-family="Times,serif" font-size="14.00">958585943</text>
<text text-anchor="middle" x="307" y="-320.68" font-family="Times,serif" font-size="14.00">fb=0</text>
</g>
<!-- No_966690692&#45;&gt;No_958585943 -->
<g id="edge1" class="edge">
<title>No_966690692&#45;&gt;No_958585943</title>
<path fill="none" stroke="black" d="M373.57,-415.16C364.36,-404.82 354.14,-393.33 344.52,-382.53"/>
<polygon fill="black" stroke="black" points="346.91,-379.95 337.65,-374.81 341.69,-384.61 346.91,-379.95"/>
</g>
<!-- No_976800736 -->
<g id="node13" class="node">
<title>No_976800736</title>
<ellipse fill="none" stroke="black" cx="502" cy="-339.38" rx="90.52" ry="37.45"/>
<text text-anchor="middle" x="502" y="-350.68" font-family="Times,serif" font-size="14.00">Marcel Campos</text>
<text text-anchor="middle" x="502" y="-335.68" font-family="Times,serif" font-size="14.00">976800736</text>
<text text-anchor="middle" x="502" y="-320.68" font-family="Times,serif" font-size="14.00">fb=1</text>
</g>
<!-- No_966690692&#45;&gt;No_976800736 -->
<g id="edge12" class="edge">
<title>No_966690692&#45;&gt;No_976800736</title>
<path fill="none" stroke="black" d="M434.74,-415.16C444.04,-404.82 454.37,-393.33 464.09,-382.53"/>
<polygon fill="black" stroke="black" points="466.95,-384.59 471.03,-374.81 461.74,-379.91 466.95,-384.59"/>
</g>
<!-- No_954558732 -->
<g id="node3" class="node">
<title>No_954558732</title>
<ellipse fill="none" stroke="black" cx="126" cy="-228.43" rx="95.42" ry="37.45"/>
<text text-anchor="middle" x="126" y="-239.73" font-family="Times,serif" font-size="14.00">Marcela Martins</text>
<text text-anchor="middle" x="126" y="-224.73" font-family="Times,serif" font-size="14.00">954558732</text>
<text text-anchor="middle" x="126" y="-209.73" font-family="Times,serif" font-size="14.00">fb=1</text>
</g>
<!-- No_958585943&#45;&gt;No_954558732 -->
<g id="edge2" class="edge">
<title>No_958585943&#45;&gt;No_954558732</title>
<path fill="none" stroke="black" d="M257.54,-308.61C235.45,-295.31 209.22,-279.53 186.02,-265.56"/>
<polygon fill="black" stroke="black" points="187.67,-262.46 177.29,-260.31 184.06,-268.46 187.67,-262.46"/>
</g>
<!-- No_962784260 -->
<g id="node8" class="node">
<title>No_962784260</title>
<ellipse fill="none" stroke="black" cx="324" cy="-228.43" rx="84.29" ry="37.45"/>
<text text-anchor="middle" x="324" y="-239.73" font-family="Times,serif" font-size="14.00">Márcio Coelho</text>
<text text-anchor="middle" x="324" y="-224.73" font-family="Times,serif" font-size="14.00">962784260</text>
<text text-anchor="middle" x="324" y="-209.73" font-family="Times,serif" font-size="14.00">fb=1</text>
</g>
<!-- No_958585943&#45;&gt;No_962784260 -->
<g id="edge7" class="edge">
<title>No_958585943&#45;&gt;No_962784260</title>
<path fill="none" stroke="black" d="M312.71,-301.8C314,-293.54 315.38,-284.65 316.73,-276.04"/>
<polygon fill="black" stroke="black" points="320.19,-276.52 318.28,-266.1 313.28,-275.44 320.19,-276.52"/>
</g>
<!-- NUL_0 -->
<g id="node4" class="node">
<title>NUL_0</title>
<polygon fill="none" stroke="black" points="44,-139.48 0,-139.48 0,-95.48 44,-95.48 44,-139.48"/>
<text text-anchor="middle" x="22" y="-113.78" font-family="Times,serif" font-size="14.00">null</text>
</g>
<!-- No_954558732&#45;&gt;NUL_0 -->
<g id="edge3" class="edge">
<title>No_954558732&#45;&gt;NUL_0</title>
<path fill="none" stroke="black" d="M90.49,-193.36C78.37,-181.43 64.89,-167.8 53,-154.95 50.74,-152.51 48.43,-149.95 46.14,-147.35"/>
<polygon fill="black" stroke="black" points="48.6,-144.84 39.41,-139.57 43.31,-149.42 48.6,-144.84"/>
</g>
<!-- No_956811157 -->
<g id="node5" class="node">
<title>No_956811157</title>
<ellipse fill="none" stroke="black" cx="145" cy="-117.48" rx="82.96" ry="37.45"/>
<text text-anchor="middle" x="145" y="-128.78" font-family="Times,serif" font-size="14.00">Márcio Moura</text>
<text text-anchor="middle" x="145" y="-113.78" font-family="Times,serif" font-size="14.00">956811157</text>
<text text-anchor="middle" x="145" y="-98.78" font-family="Times,serif" font-size="14.00">fb=0</text>
</g>
<!-- No_954558732&#45;&gt;No_956811157 -->
<g id="edge4" class="edge">
<title>No_954558732&#45;&gt;No_956811157</title>
<path fill="none" stroke="black" d="M132.38,-190.85C133.82,-182.58 135.37,-173.7 136.87,-165.09"/>
<polygon fill="black" stroke="black" points="140.33,-165.6 138.6,-155.15 133.44,-164.4 140.33,-165.6"/>
</g>
<!-- NUL_1 -->
<g id="node6" class="node">
<title>NUL_1</title>
<polygon fill="none" stroke="black" points="136,-44 92,-44 92,0 136,0 136,-44"/>
<text text-anchor="middle" x="114" y="-18.3" font-family="Times,serif" font-size="14.00">null</text>
</g>
<!-- No_956811157&#45;&gt;NUL_1 -->
<g id="edge5" class="edge">
<title>No_956811157&#45;&gt;NUL_1</title>
<path fill="none" stroke="black" d="M133.01,-80.34C130.1,-71.55 127.01,-62.23 124.19,-53.72"/>
<polygon fill="black" stroke="black" points="127.49,-52.57 121.02,-44.18 120.85,-54.77 127.49,-52.57"/>
</g>
<!-- NUL_2 -->
<g id="node7" class="node">
<title>NUL_2</title>
<polygon fill="none" stroke="black" points="198,-44 154,-44 154,0 198,0 198,-44"/>
<text text-anchor="middle" x="176" y="-18.3" font-family="Times,serif" font-size="14.00">null</text>
</g>
<!-- No_956811157&#45;&gt;NUL_2 -->
<g id="edge6" class="edge">
<title>No_956811157&#45;&gt;NUL_2</title>
<path fill="none" stroke="black" d="M156.99,-80.34C159.9,-71.55 162.99,-62.23 165.81,-53.72"/>
<polygon fill="black" stroke="black" points="169.15,-54.77 168.98,-44.18 162.51,-52.57 169.15,-54.77"/>
</g>
<!-- NUL_3 -->
<g id="node9" class="node">
<title>NUL_3</title>
<polygon fill="none" stroke="black" points="327,-139.48 283,-139.48 283,-95.48 327,-95.48 327,-139.48"/>
<text text-anchor="middle" x="305" y="-113.78" font-family="Times,serif" font-size="14.00">null</text>
</g>
<!-- No_962784260&#45;&gt;NUL_3 -->
<g id="edge8" class="edge">
<title>No_962784260&#45;&gt;NUL_3</title>
<path fill="none" stroke="black" d="M317.62,-190.85C315.3,-177.52 312.69,-162.58 310.45,-149.75"/>
<polygon fill="black" stroke="black" points="313.84,-148.8 308.68,-139.55 306.95,-150.01 313.84,-148.8"/>
</g>
<!-- No_964103284 -->
<g id="node10" class="node">
<title>No_964103284</title>
<ellipse fill="none" stroke="black" cx="436" cy="-117.48" rx="91.43" ry="37.45"/>
<text text-anchor="middle" x="436" y="-128.78" font-family="Times,serif" font-size="14.00">Mariana Santos</text>
<text text-anchor="middle" x="436" y="-113.78" font-family="Times,serif" font-size="14.00">964103284</text>
<text text-anchor="middle" x="436" y="-98.78" font-family="Times,serif" font-size="14.00">fb=0</text>
</g>
<!-- No_962784260&#45;&gt;No_964103284 -->
<g id="edge9" class="edge">
<title>No_962784260&#45;&gt;No_964103284</title>
<path fill="none" stroke="black" d="M358.21,-194.15C369.51,-183.16 382.2,-170.81 394.01,-159.33"/>
<polygon fill="black" stroke="black" points="396.5,-161.79 401.22,-152.31 391.62,-156.77 396.5,-161.79"/>
</g>
<!-- NUL_4 -->
<g id="node11" class="node">
<title>NUL_4</title>
<polygon fill="none" stroke="black" points="427,-44 383,-44 383,0 427,0 427,-44"/>
<text text-anchor="middle" x="405" y="-18.3" font-family="Times,serif" font-size="14.00">null</text>
</g>
<!-- No_964103284&#45;&gt;NUL_4 -->
<g id="edge10" class="edge">
<title>No_964103284&#45;&gt;NUL_4</title>
<path fill="none" stroke="black" d="M423.93,-80.07C421.02,-71.3 417.94,-62.02 415.13,-53.55"/>
<polygon fill="black" stroke="black" points="418.45,-52.45 411.98,-44.06 411.81,-54.65 418.45,-52.45"/>
</g>
<!-- NUL_5 -->
<g id="node12" class="node">
<title>NUL_5</title>
<polygon fill="none" stroke="black" points="489,-44 445,-44 445,0 489,0 489,-44"/>
<text text-anchor="middle" x="467" y="-18.3" font-family="Times,serif" font-size="14.00">null</text>
</g>
<!-- No_964103284&#45;&gt;NUL_5 -->
<g id="edge11" class="edge">
<title>No_964103284&#45;&gt;NUL_5</title>
<path fill="none" stroke="black" d="M448.07,-80.07C450.98,-71.3 454.06,-62.02 456.87,-53.55"/>
<polygon fill="black" stroke="black" points="460.19,-54.65 460.02,-44.06 453.55,-52.45 460.19,-54.65"/>
</g>
<!-- NUL_6 -->
<g id="node14" class="node">
<title>NUL_6</title>
<polygon fill="none" stroke="black" points="510,-250.43 466,-250.43 466,-206.43 510,-206.43 510,-250.43"/>
<text text-anchor="middle" x="488" y="-224.73" font-family="Times,serif" font-size="14.00">null</text>
</g>
<!-- No_976800736&#45;&gt;NUL_6 -->
<g id="edge13" class="edge">
<title>No_976800736&#45;&gt;NUL_6</title>
<path fill="none" stroke="black" d="M497.3,-301.8C495.59,-288.47 493.67,-273.53 492.02,-260.7"/>
<polygon fill="black" stroke="black" points="495.45,-259.98 490.71,-250.51 488.51,-260.87 495.45,-259.98"/>
</g>
<!-- No_977118225 -->
<g id="node15" class="node">
<title>No_977118225</title>
<ellipse fill="none" stroke="black" cx="612" cy="-228.43" rx="84.29" ry="37.45"/>
<text text-anchor="middle" x="612" y="-239.73" font-family="Times,serif" font-size="14.00">Marcel Barros</text>
<text text-anchor="middle" x="612" y="-224.73" font-family="Times,serif" font-size="14.00">977118225</text>
<text text-anchor="middle" x="612" y="-209.73" font-family="Times,serif" font-size="14.00">fb=0</text>
</g>
<!-- No_976800736&#45;&gt;No_977118225 -->
<g id="edge14" class="edge">
<title>No_976800736&#45;&gt;No_977118225</title>
<path fill="none" stroke="black" d="M536.2,-304.51C547.17,-293.64 559.43,-281.5 570.84,-270.2"/>
<polygon fill="black" stroke="black" points="573.56,-272.43 578.2,-262.91 568.63,-267.46 573.56,-272.43"/>
</g>
<!-- NUL_7 -->
<g id="node16" class="node">
<title>NUL_7</title>
<polygon fill="none" stroke="black" points="617,-139.48 573,-139.48 573,-95.48 617,-95.48 617,-139.48"/>
<text text-anchor="middle" x="595" y="-113.78" font-family="Times,serif" font-size="14.00">null</text>
</g>
<!-- No_977118225&#45;&gt;NUL_7 -->
<g id="edge15" class="edge">
<title>No_977118225&#45;&gt;NUL_7</title>
<path fill="none" stroke="black" d="M606.29,-190.85C604.21,-177.52 601.88,-162.58 599.88,-149.75"/>
<polygon fill="black" stroke="black" points="603.29,-148.9 598.29,-139.55 596.37,-149.97 603.29,-148.9"/>
</g>
<!-- NUL_8 -->
<g id="node17" class="node">
<title>NUL_8</title>
<polygon fill="none" stroke="black" points="679,-139.48 635,-139.48 635,-95.48 679,-95.48 679,-139.48"/>
<text text-anchor="middle" x="657" y="-113.78" font-family="Times,serif" font-size="14.00">null</text>
</g>
<!-- No_977118225&#45;&gt;NUL_8 -->
<g id="edge16" class="edge">
<title>No_977118225&#45;&gt;NUL_8</title>
<path fill="none" stroke="black" d="M626.86,-191.45C632.49,-177.82 638.84,-162.43 644.26,-149.32"/>
<polygon fill="black" stroke="black" points="647.61,-150.37 648.2,-139.79 641.14,-147.7 647.61,-150.37"/>
</g>
</g>
</svg>
