<?xml version="1.0" encoding="UTF-8" standalone="no"?>
<!DOCTYPE svg PUBLIC "-//W3C//DTD SVG 1.1//EN"
 "http://www.w3.org/Graphics/SVG/1.1/DTD/svg11.dtd">
<!-- Generated by graphviz version 2.43.0 (0)
 -->
<!-- Title: BST Pages: 1 -->
<svg width="532pt" height="496pt"
 viewBox="0.00 0.00 532.00 495.81" xmlns="http://www.w3.org/2000/svg" xmlns:xlink="http://www.w3.org/1999/xlink">
<g id="graph0" class="graph" transform="scale(1 1) rotate(0) translate(4 491.81)">
<title>BST</title>
<polygon fill="white" stroke="transparent" points="-4,4 -4,-491.81 528,-491.81 528,4 -4,4"/>
<!-- No_978691066 -->
<g id="node1" class="node">
<title>No_978691066</title>
<ellipse fill="none" stroke="black" cx="209" cy="-450.34" rx="69.09" ry="37.45"/>
<text text-anchor="middle" x="209" y="-461.64" font-family="Times,serif" font-size="14.00">Igor Torres</text>
<text text-anchor="middle" x="209" y="-446.64" font-family="Times,serif" font-size="14.00">978691066</text>
<text text-anchor="middle" x="209" y="-431.64" font-family="Times,serif" font-size="14.00">fb=1</text>
</g>
<!-- No_925540313 -->
<g id="node2" class="node">
<title>No_925540313</title>
<ellipse fill="none" stroke="black" cx="131" cy="-339.38" rx="69.09" ry="37.45"/>
<text text-anchor="middle" x="131" y="-350.68" font-family="Times,serif" font-size="14.00">Igor Costa</text>
<text text-anchor="middle" x="131" y="-335.68" font-family="Times,serif" font-size="14.00">925540313</text>
<text text-anchor="middle" x="131" y="-320.68" font-family="Times,serif" font-size="14.00">fb=1</text>
</g>
<!-- No_978691066&#45;&gt;No_925540313 -->
<g id="edge1" class="edge">
<title>No_978691066&#45;&gt;No_925540313</title>
<path fill="none" stroke="black" d="M184.53,-415.16C177.27,-405.02 169.23,-393.78 161.62,-383.16"/>
<polygon fill="black" stroke="black" points="164.31,-380.9 155.65,-374.81 158.62,-384.98 164.31,-380.9"/>
</g>
<!-- No_994709372 -->
<g id="node7" class="node">
<title>No_994709372</title>
<ellipse fill="none" stroke="black" cx="288" cy="-339.38" rx="69.09" ry="37.45"/>
<text text-anchor="middle" x="288" y="-350.68" font-family="Times,serif" font-size="14.00">Igor Moura</text>
<text text-anchor="middle" x="288" y="-335.68" font-family="Times,serif" font-size="14.00">994709372</text>
<text text-anchor="middle" x="288" y="-320.68" font-family="Times,serif" font-size="14.00">fb=&#45;1</text>
</g>
<!-- No_978691066&#45;&gt;No_994709372 -->
<g id="edge6" class="edge">
<title>No_978691066&#45;&gt;No_994709372</title>
<path fill="none" stroke="black" d="M233.78,-415.16C241.28,-404.82 249.61,-393.33 257.44,-382.53"/>
<polygon fill="black" stroke="black" points="260.27,-384.59 263.31,-374.44 254.6,-380.48 260.27,-384.59"/>
</g>
<!-- NUL_0 -->
<g id="node3" class="node">
<title>NUL_0</title>
<polygon fill="none" stroke="black" points="44,-250.43 0,-250.43 0,-206.43 44,-206.43 44,-250.43"/>
<text text-anchor="middle" x="22" y="-224.73" font-family="Times,serif" font-size="14.00">null</text>
</g>
<!-- No_925540313&#45;&gt;NUL_0 -->
<g id="edge2" class="edge">
<title>No_925540313&#45;&gt;NUL_0</title>
<path fill="none" stroke="black" d="M95.61,-307.12C81.95,-294.64 66.42,-279.93 53,-265.91 50.7,-263.5 48.37,-260.96 46.06,-258.38"/>
<polygon fill="black" stroke="black" points="48.51,-255.87 39.29,-250.63 43.23,-260.47 48.51,-255.87"/>
</g>
<!-- No_951709707 -->
<g id="node4" class="node">
<title>No_951709707</title>
<ellipse fill="none" stroke="black" cx="131" cy="-228.43" rx="69.09" ry="37.45"/>
<text text-anchor="middle" x="131" y="-239.73" font-family="Times,serif" font-size="14.00">Igor Barros</text>
<text text-anchor="middle" x="131" y="-224.73" font-family="Times,serif" font-size="14.00">951709707</text>
<text text-anchor="middle" x="131" y="-209.73" font-family="Times,serif" font-size="14.00">fb=0</text>
</g>
<!-- No_925540313&#45;&gt;No_951709707 -->
<g id="edge3" class="edge">
<title>No_925540313&#45;&gt;No_951709707</title>
<path fill="none" stroke="black" d="M131,-301.8C131,-293.63 131,-284.85 131,-276.32"/>
<polygon fill="black" stroke="black" points="134.5,-276.1 131,-266.1 127.5,-276.1 134.5,-276.1"/>
</g>
<!-- NUL_1 -->
<g id="node5" class="node">
<title>NUL_1</title>
<polygon fill="none" stroke="black" points="95,-139.48 51,-139.48 51,-95.48 95,-95.48 95,-139.48"/>
<text text-anchor="middle" x="73" y="-113.78" font-family="Times,serif" font-size="14.00">null</text>
</g>
<!-- No_951709707&#45;&gt;NUL_1 -->
<g id="edge4" class="edge">
<title>No_951709707&#45;&gt;NUL_1</title>
<path fill="none" stroke="black" d="M112.17,-192.06C104.7,-178.02 96.2,-162.05 89.03,-148.58"/>
<polygon fill="black" stroke="black" points="92.09,-146.89 84.3,-139.71 85.91,-150.18 92.09,-146.89"/>
</g>
<!-- NUL_2 -->
<g id="node6" class="node">
<title>NUL_2</title>
<polygon fill="none" stroke="black" points="157,-139.48 113,-139.48 113,-95.48 157,-95.48 157,-139.48"/>
<text text-anchor="middle" x="135" y="-113.78" font-family="Times,serif" font-size="14.00">null</text>
</g>
<!-- No_951709707&#45;&gt;NUL_2 -->
<g id="edge5" class="edge">
<title>No_951709707&#45;&gt;NUL_2</title>
<path fill="none" stroke="black" d="M132.34,-190.85C132.83,-177.52 133.38,-162.58 133.85,-149.75"/>
<polygon fill="black" stroke="black" points="137.36,-149.68 134.23,-139.55 130.36,-149.42 137.36,-149.68"/>
</g>
<!-- No_991915980 -->
<g id="node8" class="node">
<title>No_991915980</title>
<ellipse fill="none" stroke="black" cx="288" cy="-228.43" rx="69.09" ry="37.45"/>
<text text-anchor="middle" x="288" y="-239.73" font-family="Times,serif" font-size="14.00">Igor Farias</text>
<text text-anchor="middle" x="288" y="-224.73" font-family="Times,serif" font-size="14.00">991915980</text>
<text text-anchor="middle" x="288" y="-209.73" font-family="Times,serif" font-size="14.00">fb=&#45;1</text>
</g>
<!-- No_994709372&#45;&gt;No_991915980 -->
<g id="edge7" class="edge">
<title>No_994709372&#45;&gt;No_991915980</title>
<path fill="none" stroke="black" d="M288,-301.8C288,-293.63 288,-284.85 288,-276.32"/>
<polygon fill="black" stroke="black" points="291.5,-276.1 288,-266.1 284.5,-276.1 291.5,-276.1"/>
</g>
<!-- No_997164286 -->
<g id="node13" class="node">
<title>No_997164286</title>
<ellipse fill="none" stroke="black" cx="445" cy="-228.43" rx="69.09" ry="37.45"/>
<text text-anchor="middle" x="445" y="-239.73" font-family="Times,serif" font-size="14.00">Igor Porto</text>
<text text-anchor="middle" x="445" y="-224.73" font-family="Times,serif" font-size="14.00">997164286</text>
<text text-anchor="middle" x="445" y="-209.73" font-family="Times,serif" font-size="14.00">fb=0</text>
</g>
<!-- No_994709372&#45;&gt;No_997164286 -->
<g id="edge12" class="edge">
<title>No_994709372&#45;&gt;No_997164286</title>
<path fill="none" stroke="black" d="M330.07,-309.19C349.95,-295.39 373.83,-278.82 394.66,-264.36"/>
<polygon fill="black" stroke="black" points="396.86,-267.1 403.08,-258.52 392.87,-261.34 396.86,-267.1"/>
</g>
<!-- No_982820241 -->
<g id="node9" class="node">
<title>No_982820241</title>
<ellipse fill="none" stroke="black" cx="261" cy="-117.48" rx="69.09" ry="37.45"/>
<text text-anchor="middle" x="261" y="-128.78" font-family="Times,serif" font-size="14.00">Igor Silva</text>
<text text-anchor="middle" x="261" y="-113.78" font-family="Times,serif" font-size="14.00">982820241</text>
<text text-anchor="middle" x="261" y="-98.78" font-family="Times,serif" font-size="14.00">fb=0</text>
</g>
<!-- No_991915980&#45;&gt;No_982820241 -->
<g id="edge8" class="edge">
<title>No_991915980&#45;&gt;No_982820241</title>
<path fill="none" stroke="black" d="M279.01,-191.15C276.91,-182.69 274.65,-173.58 272.47,-164.76"/>
<polygon fill="black" stroke="black" points="275.85,-163.83 270.04,-154.97 269.05,-165.52 275.85,-163.83"/>
</g>
<!-- NUL_5 -->
<g id="node12" class="node">
<title>NUL_5</title>
<polygon fill="none" stroke="black" points="392,-139.48 348,-139.48 348,-95.48 392,-95.48 392,-139.48"/>
<text text-anchor="middle" x="370" y="-113.78" font-family="Times,serif" font-size="14.00">null</text>
</g>
<!-- No_991915980&#45;&gt;NUL_5 -->
<g id="edge11" class="edge">
<title>No_991915980&#45;&gt;NUL_5</title>
<path fill="none" stroke="black" d="M313.5,-193.55C324.48,-178.97 337.19,-162.07 347.78,-148"/>
<polygon fill="black" stroke="black" points="350.85,-149.75 354.06,-139.65 345.25,-145.54 350.85,-149.75"/>
</g>
<!-- NUL_3 -->
<g id="node10" class="node">
<title>NUL_3</title>
<polygon fill="none" stroke="black" points="252,-44 208,-44 208,0 252,0 252,-44"/>
<text text-anchor="middle" x="230" y="-18.3" font-family="Times,serif" font-size="14.00">null</text>
</g>
<!-- No_982820241&#45;&gt;NUL_3 -->
<g id="edge9" class="edge">
<title>No_982820241&#45;&gt;NUL_3</title>
<path fill="none" stroke="black" d="M249.01,-80.34C246.1,-71.55 243.01,-62.23 240.19,-53.72"/>
<polygon fill="black" stroke="black" points="243.49,-52.57 237.02,-44.18 236.85,-54.77 243.49,-52.57"/>
</g>
<!-- NUL_4 -->
<g id="node11" class="node">
<title>NUL_4</title>
<polygon fill="none" stroke="black" points="314,-44 270,-44 270,0 314,0 314,-44"/>
<text text-anchor="middle" x="292" y="-18.3" font-family="Times,serif" font-size="14.00">null</text>
</g>
<!-- No_982820241&#45;&gt;NUL_4 -->
<g id="edge10" class="edge">
<title>No_982820241&#45;&gt;NUL_4</title>
<path fill="none" stroke="black" d="M272.99,-80.34C275.9,-71.55 278.99,-62.23 281.81,-53.72"/>
<polygon fill="black" stroke="black" points="285.15,-54.77 284.98,-44.18 278.51,-52.57 285.15,-54.77"/>
</g>
<!-- NUL_6 -->
<g id="node14" class="node">
<title>NUL_6</title>
<polygon fill="none" stroke="black" points="462,-139.48 418,-139.48 418,-95.48 462,-95.48 462,-139.48"/>
<text text-anchor="middle" x="440" y="-113.78" font-family="Times,serif" font-size="14.00">null</text>
</g>
<!-- No_997164286&#45;&gt;NUL_6 -->
<g id="edge13" class="edge">
<title>No_997164286&#45;&gt;NUL_6</title>
<path fill="none" stroke="black" d="M443.32,-190.85C442.71,-177.52 442.02,-162.58 441.44,-149.75"/>
<polygon fill="black" stroke="black" points="444.92,-149.38 440.97,-139.55 437.93,-149.7 444.92,-149.38"/>
</g>
<!-- NUL_7 -->
<g id="node15" class="node">
<title>NUL_7</title>
<polygon fill="none" stroke="black" points="524,-139.48 480,-139.48 480,-95.48 524,-95.48 524,-139.48"/>
<text text-anchor="middle" x="502" y="-113.78" font-family="Times,serif" font-size="14.00">null</text>
</g>
<!-- No_997164286&#45;&gt;NUL_7 -->
<g id="edge14" class="edge">
<title>No_997164286&#45;&gt;NUL_7</title>
<path fill="none" stroke="black" d="M463.51,-192.06C470.85,-178.02 479.2,-162.05 486.25,-148.58"/>
<polygon fill="black" stroke="black" points="489.36,-150.19 490.89,-139.71 483.15,-146.95 489.36,-150.19"/>
</g>
</g>
</svg>
