<?xml version="1.0" encoding="UTF-8" standalone="no"?>
<!DOCTYPE svg PUBLIC "-//W3C//DTD SVG 1.1//EN"
 "http://www.w3.org/Graphics/SVG/1.1/DTD/svg11.dtd">
<!-- Generated by graphviz version 2.43.0 (0)
 -->
<!-- Title: BST Pages: 1 -->
<svg width="1976pt" height="718pt"
 viewBox="0.00 0.00 1975.61 717.72" xmlns="http://www.w3.org/2000/svg" xmlns:xlink="http://www.w3.org/1999/xlink">
<g id="graph0" class="graph" transform="scale(1 1) rotate(0) translate(4 713.72)">
<title>BST</title>
<polygon fill="white" stroke="transparent" points="-4,4 -4,-713.72 1971.61,-713.72 1971.61,4 -4,4"/>
<!-- No_952443115 -->
<g id="node1" class="node">
<title>No_952443115</title>
<ellipse fill="none" stroke="black" cx="878.61" cy="-672.24" rx="86.03" ry="37.45"/>
<text text-anchor="middle" x="878.61" y="-683.54" font-family="Times,serif" font-size="14.00">Luana Campos</text>
<text text-anchor="middle" x="878.61" y="-668.54" font-family="Times,serif" font-size="14.00">952443115</text>
<text text-anchor="middle" x="878.61" y="-653.54" font-family="Times,serif" font-size="14.00">fb=1</text>
</g>
<!-- No_931458282 -->
<g id="node2" class="node">
<title>No_931458282</title>
<ellipse fill="none" stroke="black" cx="638.61" cy="-561.29" rx="82.05" ry="37.45"/>
<text text-anchor="middle" x="638.61" y="-572.59" font-family="Times,serif" font-size="14.00">Luana Freitas</text>
<text text-anchor="middle" x="638.61" y="-557.59" font-family="Times,serif" font-size="14.00">931458282</text>
<text text-anchor="middle" x="638.61" y="-542.59" font-family="Times,serif" font-size="14.00">fb=&#45;1</text>
</g>
<!-- No_952443115&#45;&gt;No_931458282 -->
<g id="edge1" class="edge">
<title>No_952443115&#45;&gt;No_931458282</title>
<path fill="none" stroke="black" d="M819.9,-644.59C785.25,-628.86 741.28,-608.9 705.32,-592.58"/>
<polygon fill="black" stroke="black" points="706.44,-589.24 695.89,-588.29 703.55,-595.61 706.44,-589.24"/>
</g>
<!-- No_972590915 -->
<g id="node21" class="node">
<title>No_972590915</title>
<ellipse fill="none" stroke="black" cx="1117.61" cy="-561.29" rx="93.18" ry="37.45"/>
<text text-anchor="middle" x="1117.61" y="-572.59" font-family="Times,serif" font-size="14.00">Leonardo Farias</text>
<text text-anchor="middle" x="1117.61" y="-557.59" font-family="Times,serif" font-size="14.00">972590915</text>
<text text-anchor="middle" x="1117.61" y="-542.59" font-family="Times,serif" font-size="14.00">fb=&#45;1</text>
</g>
<!-- No_952443115&#45;&gt;No_972590915 -->
<g id="edge20" class="edge">
<title>No_952443115&#45;&gt;No_972590915</title>
<path fill="none" stroke="black" d="M937.08,-644.59C970.44,-629.38 1012.48,-610.22 1047.6,-594.21"/>
<polygon fill="black" stroke="black" points="1049.19,-597.33 1056.83,-590 1046.28,-590.96 1049.19,-597.33"/>
</g>
<!-- No_923935650 -->
<g id="node3" class="node">
<title>No_923935650</title>
<ellipse fill="none" stroke="black" cx="374.61" cy="-450.34" rx="77.56" ry="37.45"/>
<text text-anchor="middle" x="374.61" y="-461.64" font-family="Times,serif" font-size="14.00">Lucas Barros</text>
<text text-anchor="middle" x="374.61" y="-446.64" font-family="Times,serif" font-size="14.00">923935650</text>
<text text-anchor="middle" x="374.61" y="-431.64" font-family="Times,serif" font-size="14.00">fb=0</text>
</g>
<!-- No_931458282&#45;&gt;No_923935650 -->
<g id="edge2" class="edge">
<title>No_931458282&#45;&gt;No_923935650</title>
<path fill="none" stroke="black" d="M578.7,-535.57C538.11,-518.81 484.4,-496.65 442.27,-479.26"/>
<polygon fill="black" stroke="black" points="443.5,-475.98 432.92,-475.4 440.82,-482.45 443.5,-475.98"/>
</g>
<!-- No_944786461 -->
<g id="node14" class="node">
<title>No_944786461</title>
<ellipse fill="none" stroke="black" cx="638.61" cy="-450.34" rx="85.62" ry="37.45"/>
<text text-anchor="middle" x="638.61" y="-461.64" font-family="Times,serif" font-size="14.00">Luana Martins</text>
<text text-anchor="middle" x="638.61" y="-446.64" font-family="Times,serif" font-size="14.00">944786461</text>
<text text-anchor="middle" x="638.61" y="-431.64" font-family="Times,serif" font-size="14.00">fb=0</text>
</g>
<!-- No_931458282&#45;&gt;No_944786461 -->
<g id="edge13" class="edge">
<title>No_931458282&#45;&gt;No_944786461</title>
<path fill="none" stroke="black" d="M638.61,-523.71C638.61,-515.53 638.61,-506.75 638.61,-498.23"/>
<polygon fill="black" stroke="black" points="642.11,-498.01 638.61,-488.01 635.11,-498.01 642.11,-498.01"/>
</g>
<!-- No_920179537 -->
<g id="node4" class="node">
<title>No_920179537</title>
<ellipse fill="none" stroke="black" cx="198.61" cy="-339.38" rx="79.81" ry="37.45"/>
<text text-anchor="middle" x="198.61" y="-350.68" font-family="Times,serif" font-size="14.00">Luana Coelho</text>
<text text-anchor="middle" x="198.61" y="-335.68" font-family="Times,serif" font-size="14.00">920179537</text>
<text text-anchor="middle" x="198.61" y="-320.68" font-family="Times,serif" font-size="14.00">fb=&#45;1</text>
</g>
<!-- No_923935650&#45;&gt;No_920179537 -->
<g id="edge3" class="edge">
<title>No_923935650&#45;&gt;No_920179537</title>
<path fill="none" stroke="black" d="M327.45,-420.14C305.05,-406.28 278.13,-389.61 254.7,-375.1"/>
<polygon fill="black" stroke="black" points="256.25,-371.95 245.91,-369.66 252.57,-377.9 256.25,-371.95"/>
</g>
<!-- No_925876652 -->
<g id="node9" class="node">
<title>No_925876652</title>
<ellipse fill="none" stroke="black" cx="374.61" cy="-339.38" rx="78.48" ry="37.45"/>
<text text-anchor="middle" x="374.61" y="-350.68" font-family="Times,serif" font-size="14.00">Lucas Santos</text>
<text text-anchor="middle" x="374.61" y="-335.68" font-family="Times,serif" font-size="14.00">925876652</text>
<text text-anchor="middle" x="374.61" y="-320.68" font-family="Times,serif" font-size="14.00">fb=1</text>
</g>
<!-- No_923935650&#45;&gt;No_925876652 -->
<g id="edge8" class="edge">
<title>No_923935650&#45;&gt;No_925876652</title>
<path fill="none" stroke="black" d="M374.61,-412.75C374.61,-404.58 374.61,-395.8 374.61,-387.27"/>
<polygon fill="black" stroke="black" points="378.11,-387.06 374.61,-377.06 371.11,-387.06 378.11,-387.06"/>
</g>
<!-- No_913232138 -->
<g id="node5" class="node">
<title>No_913232138</title>
<ellipse fill="none" stroke="black" cx="80.61" cy="-228.43" rx="80.72" ry="37.45"/>
<text text-anchor="middle" x="80.61" y="-239.73" font-family="Times,serif" font-size="14.00">Lucas Pereira</text>
<text text-anchor="middle" x="80.61" y="-224.73" font-family="Times,serif" font-size="14.00">913232138</text>
<text text-anchor="middle" x="80.61" y="-209.73" font-family="Times,serif" font-size="14.00">fb=0</text>
</g>
<!-- No_920179537&#45;&gt;No_913232138 -->
<g id="edge4" class="edge">
<title>No_920179537&#45;&gt;No_913232138</title>
<path fill="none" stroke="black" d="M163.21,-305.69C150.84,-294.27 136.81,-281.32 123.87,-269.37"/>
<polygon fill="black" stroke="black" points="126.12,-266.69 116.4,-262.47 121.37,-271.83 126.12,-266.69"/>
</g>
<!-- NUL_2 -->
<g id="node8" class="node">
<title>NUL_2</title>
<polygon fill="none" stroke="black" points="223.61,-250.43 179.61,-250.43 179.61,-206.43 223.61,-206.43 223.61,-250.43"/>
<text text-anchor="middle" x="201.61" y="-224.73" font-family="Times,serif" font-size="14.00">null</text>
</g>
<!-- No_920179537&#45;&gt;NUL_2 -->
<g id="edge7" class="edge">
<title>No_920179537&#45;&gt;NUL_2</title>
<path fill="none" stroke="black" d="M199.62,-301.8C199.98,-288.47 200.4,-273.53 200.75,-260.7"/>
<polygon fill="black" stroke="black" points="204.25,-260.6 201.03,-250.51 197.26,-260.41 204.25,-260.6"/>
</g>
<!-- NUL_0 -->
<g id="node6" class="node">
<title>NUL_0</title>
<polygon fill="none" stroke="black" points="71.61,-139.48 27.61,-139.48 27.61,-95.48 71.61,-95.48 71.61,-139.48"/>
<text text-anchor="middle" x="49.61" y="-113.78" font-family="Times,serif" font-size="14.00">null</text>
</g>
<!-- No_913232138&#45;&gt;NUL_0 -->
<g id="edge5" class="edge">
<title>No_913232138&#45;&gt;NUL_0</title>
<path fill="none" stroke="black" d="M70.29,-191.15C66.45,-177.67 62.14,-162.51 58.45,-149.53"/>
<polygon fill="black" stroke="black" points="61.74,-148.33 55.64,-139.67 55.01,-150.25 61.74,-148.33"/>
</g>
<!-- NUL_1 -->
<g id="node7" class="node">
<title>NUL_1</title>
<polygon fill="none" stroke="black" points="133.61,-139.48 89.61,-139.48 89.61,-95.48 133.61,-95.48 133.61,-139.48"/>
<text text-anchor="middle" x="111.61" y="-113.78" font-family="Times,serif" font-size="14.00">null</text>
</g>
<!-- No_913232138&#45;&gt;NUL_1 -->
<g id="edge6" class="edge">
<title>No_913232138&#45;&gt;NUL_1</title>
<path fill="none" stroke="black" d="M90.93,-191.15C94.77,-177.67 99.08,-162.51 102.77,-149.53"/>
<polygon fill="black" stroke="black" points="106.21,-150.25 105.58,-139.67 99.48,-148.33 106.21,-150.25"/>
</g>
<!-- NUL_3 -->
<g id="node10" class="node">
<title>NUL_3</title>
<polygon fill="none" stroke="black" points="288.61,-250.43 244.61,-250.43 244.61,-206.43 288.61,-206.43 288.61,-250.43"/>
<text text-anchor="middle" x="266.61" y="-224.73" font-family="Times,serif" font-size="14.00">null</text>
</g>
<!-- No_925876652&#45;&gt;NUL_3 -->
<g id="edge9" class="edge">
<title>No_925876652&#45;&gt;NUL_3</title>
<path fill="none" stroke="black" d="M338.55,-305.99C325.36,-293.74 310.51,-279.48 297.61,-265.91 295.32,-263.5 292.99,-260.95 290.68,-258.37"/>
<polygon fill="black" stroke="black" points="293.13,-255.85 283.93,-250.61 287.86,-260.45 293.13,-255.85"/>
</g>
<!-- No_930376817 -->
<g id="node11" class="node">
<title>No_930376817</title>
<ellipse fill="none" stroke="black" cx="392.61" cy="-228.43" rx="85.62" ry="37.45"/>
<text text-anchor="middle" x="392.61" y="-239.73" font-family="Times,serif" font-size="14.00">Luciano Farias</text>
<text text-anchor="middle" x="392.61" y="-224.73" font-family="Times,serif" font-size="14.00">930376817</text>
<text text-anchor="middle" x="392.61" y="-209.73" font-family="Times,serif" font-size="14.00">fb=0</text>
</g>
<!-- No_925876652&#45;&gt;No_930376817 -->
<g id="edge10" class="edge">
<title>No_925876652&#45;&gt;No_930376817</title>
<path fill="none" stroke="black" d="M380.65,-301.8C382.02,-293.54 383.49,-284.65 384.91,-276.04"/>
<polygon fill="black" stroke="black" points="388.37,-276.54 386.55,-266.1 381.47,-275.4 388.37,-276.54"/>
</g>
<!-- NUL_4 -->
<g id="node12" class="node">
<title>NUL_4</title>
<polygon fill="none" stroke="black" points="383.61,-139.48 339.61,-139.48 339.61,-95.48 383.61,-95.48 383.61,-139.48"/>
<text text-anchor="middle" x="361.61" y="-113.78" font-family="Times,serif" font-size="14.00">null</text>
</g>
<!-- No_930376817&#45;&gt;NUL_4 -->
<g id="edge11" class="edge">
<title>No_930376817&#45;&gt;NUL_4</title>
<path fill="none" stroke="black" d="M382.29,-191.15C378.45,-177.67 374.14,-162.51 370.45,-149.53"/>
<polygon fill="black" stroke="black" points="373.74,-148.33 367.64,-139.67 367.01,-150.25 373.74,-148.33"/>
</g>
<!-- NUL_5 -->
<g id="node13" class="node">
<title>NUL_5</title>
<polygon fill="none" stroke="black" points="445.61,-139.48 401.61,-139.48 401.61,-95.48 445.61,-95.48 445.61,-139.48"/>
<text text-anchor="middle" x="423.61" y="-113.78" font-family="Times,serif" font-size="14.00">null</text>
</g>
<!-- No_930376817&#45;&gt;NUL_5 -->
<g id="edge12" class="edge">
<title>No_930376817&#45;&gt;NUL_5</title>
<path fill="none" stroke="black" d="M402.93,-191.15C406.77,-177.67 411.08,-162.51 414.77,-149.53"/>
<polygon fill="black" stroke="black" points="418.21,-150.25 417.58,-139.67 411.48,-148.33 418.21,-150.25"/>
</g>
<!-- No_938821119 -->
<g id="node15" class="node">
<title>No_938821119</title>
<ellipse fill="none" stroke="black" cx="545.61" cy="-339.38" rx="74.49" ry="37.45"/>
<text text-anchor="middle" x="545.61" y="-350.68" font-family="Times,serif" font-size="14.00">Lucas Souza</text>
<text text-anchor="middle" x="545.61" y="-335.68" font-family="Times,serif" font-size="14.00">938821119</text>
<text text-anchor="middle" x="545.61" y="-320.68" font-family="Times,serif" font-size="14.00">fb=0</text>
</g>
<!-- No_944786461&#45;&gt;No_938821119 -->
<g id="edge14" class="edge">
<title>No_944786461&#45;&gt;No_938821119</title>
<path fill="none" stroke="black" d="M609.18,-414.86C600.28,-404.43 590.4,-392.86 581.14,-382.01"/>
<polygon fill="black" stroke="black" points="583.68,-379.59 574.53,-374.26 578.36,-384.14 583.68,-379.59"/>
</g>
<!-- No_945163791 -->
<g id="node18" class="node">
<title>No_945163791</title>
<ellipse fill="none" stroke="black" cx="721.61" cy="-339.38" rx="84.29" ry="37.45"/>
<text text-anchor="middle" x="721.61" y="-350.68" font-family="Times,serif" font-size="14.00">Lucas Martins</text>
<text text-anchor="middle" x="721.61" y="-335.68" font-family="Times,serif" font-size="14.00">945163791</text>
<text text-anchor="middle" x="721.61" y="-320.68" font-family="Times,serif" font-size="14.00">fb=0</text>
</g>
<!-- No_944786461&#45;&gt;No_945163791 -->
<g id="edge17" class="edge">
<title>No_944786461&#45;&gt;No_945163791</title>
<path fill="none" stroke="black" d="M665.1,-414.56C672.66,-404.64 680.99,-393.7 688.88,-383.35"/>
<polygon fill="black" stroke="black" points="691.81,-385.28 695.09,-375.2 686.24,-381.03 691.81,-385.28"/>
</g>
<!-- NUL_6 -->
<g id="node16" class="node">
<title>NUL_6</title>
<polygon fill="none" stroke="black" points="551.61,-250.43 507.61,-250.43 507.61,-206.43 551.61,-206.43 551.61,-250.43"/>
<text text-anchor="middle" x="529.61" y="-224.73" font-family="Times,serif" font-size="14.00">null</text>
</g>
<!-- No_938821119&#45;&gt;NUL_6 -->
<g id="edge15" class="edge">
<title>No_938821119&#45;&gt;NUL_6</title>
<path fill="none" stroke="black" d="M540.24,-301.8C538.28,-288.47 536.09,-273.53 534.2,-260.7"/>
<polygon fill="black" stroke="black" points="537.62,-259.89 532.71,-250.51 530.7,-260.91 537.62,-259.89"/>
</g>
<!-- NUL_7 -->
<g id="node17" class="node">
<title>NUL_7</title>
<polygon fill="none" stroke="black" points="613.61,-250.43 569.61,-250.43 569.61,-206.43 613.61,-206.43 613.61,-250.43"/>
<text text-anchor="middle" x="591.61" y="-224.73" font-family="Times,serif" font-size="14.00">null</text>
</g>
<!-- No_938821119&#45;&gt;NUL_7 -->
<g id="edge16" class="edge">
<title>No_938821119&#45;&gt;NUL_7</title>
<path fill="none" stroke="black" d="M560.8,-302.41C566.56,-288.77 573.05,-273.39 578.59,-260.27"/>
<polygon fill="black" stroke="black" points="581.95,-261.32 582.61,-250.75 575.5,-258.6 581.95,-261.32"/>
</g>
<!-- NUL_8 -->
<g id="node19" class="node">
<title>NUL_8</title>
<polygon fill="none" stroke="black" points="681.61,-250.43 637.61,-250.43 637.61,-206.43 681.61,-206.43 681.61,-250.43"/>
<text text-anchor="middle" x="659.61" y="-224.73" font-family="Times,serif" font-size="14.00">null</text>
</g>
<!-- No_945163791&#45;&gt;NUL_8 -->
<g id="edge18" class="edge">
<title>No_945163791&#45;&gt;NUL_8</title>
<path fill="none" stroke="black" d="M701.31,-302.71C693.33,-288.69 684.28,-272.78 676.65,-259.37"/>
<polygon fill="black" stroke="black" points="679.61,-257.51 671.63,-250.55 673.53,-260.97 679.61,-257.51"/>
</g>
<!-- NUL_9 -->
<g id="node20" class="node">
<title>NUL_9</title>
<polygon fill="none" stroke="black" points="743.61,-250.43 699.61,-250.43 699.61,-206.43 743.61,-206.43 743.61,-250.43"/>
<text text-anchor="middle" x="721.61" y="-224.73" font-family="Times,serif" font-size="14.00">null</text>
</g>
<!-- No_945163791&#45;&gt;NUL_9 -->
<g id="edge19" class="edge">
<title>No_945163791&#45;&gt;NUL_9</title>
<path fill="none" stroke="black" d="M721.61,-301.8C721.61,-288.47 721.61,-273.53 721.61,-260.7"/>
<polygon fill="black" stroke="black" points="725.11,-260.51 721.61,-250.51 718.11,-260.51 725.11,-260.51"/>
</g>
<!-- No_965784241 -->
<g id="node22" class="node">
<title>No_965784241</title>
<ellipse fill="none" stroke="black" cx="1117.61" cy="-450.34" rx="92.76" ry="37.45"/>
<text text-anchor="middle" x="1117.61" y="-461.64" font-family="Times,serif" font-size="14.00">Leonardo Souza</text>
<text text-anchor="middle" x="1117.61" y="-446.64" font-family="Times,serif" font-size="14.00">965784241</text>
<text text-anchor="middle" x="1117.61" y="-431.64" font-family="Times,serif" font-size="14.00">fb=&#45;1</text>
</g>
<!-- No_972590915&#45;&gt;No_965784241 -->
<g id="edge21" class="edge">
<title>No_972590915&#45;&gt;No_965784241</title>
<path fill="none" stroke="black" d="M1117.61,-523.71C1117.61,-515.53 1117.61,-506.75 1117.61,-498.23"/>
<polygon fill="black" stroke="black" points="1121.11,-498.01 1117.61,-488.01 1114.11,-498.01 1121.11,-498.01"/>
</g>
<!-- No_978788890 -->
<g id="node39" class="node">
<title>No_978788890</title>
<ellipse fill="none" stroke="black" cx="1545.61" cy="-450.34" rx="94.51" ry="37.45"/>
<text text-anchor="middle" x="1545.61" y="-461.64" font-family="Times,serif" font-size="14.00">Leonardo Torres</text>
<text text-anchor="middle" x="1545.61" y="-446.64" font-family="Times,serif" font-size="14.00">978788890</text>
<text text-anchor="middle" x="1545.61" y="-431.64" font-family="Times,serif" font-size="14.00">fb=0</text>
</g>
<!-- No_972590915&#45;&gt;No_978788890 -->
<g id="edge38" class="edge">
<title>No_972590915&#45;&gt;No_978788890</title>
<path fill="none" stroke="black" d="M1195.61,-540.43C1269.49,-521.63 1380.29,-493.42 1457.36,-473.8"/>
<polygon fill="black" stroke="black" points="1458.23,-477.19 1467.06,-471.33 1456.5,-470.41 1458.23,-477.19"/>
</g>
<!-- No_958835624 -->
<g id="node23" class="node">
<title>No_958835624</title>
<ellipse fill="none" stroke="black" cx="1028.61" cy="-339.38" rx="79.81" ry="37.45"/>
<text text-anchor="middle" x="1028.61" y="-350.68" font-family="Times,serif" font-size="14.00">Luana Santos</text>
<text text-anchor="middle" x="1028.61" y="-335.68" font-family="Times,serif" font-size="14.00">958835624</text>
<text text-anchor="middle" x="1028.61" y="-320.68" font-family="Times,serif" font-size="14.00">fb=0</text>
</g>
<!-- No_965784241&#45;&gt;No_958835624 -->
<g id="edge22" class="edge">
<title>No_965784241&#45;&gt;No_958835624</title>
<path fill="none" stroke="black" d="M1089.21,-414.56C1080.94,-404.44 1071.81,-393.27 1063.2,-382.73"/>
<polygon fill="black" stroke="black" points="1065.78,-380.36 1056.75,-374.83 1060.36,-384.79 1065.78,-380.36"/>
</g>
<!-- No_971178290 -->
<g id="node34" class="node">
<title>No_971178290</title>
<ellipse fill="none" stroke="black" cx="1206.61" cy="-339.38" rx="74.49" ry="37.45"/>
<text text-anchor="middle" x="1206.61" y="-350.68" font-family="Times,serif" font-size="14.00">Luana Costa</text>
<text text-anchor="middle" x="1206.61" y="-335.68" font-family="Times,serif" font-size="14.00">971178290</text>
<text text-anchor="middle" x="1206.61" y="-320.68" font-family="Times,serif" font-size="14.00">fb=&#45;1</text>
</g>
<!-- No_965784241&#45;&gt;No_971178290 -->
<g id="edge33" class="edge">
<title>No_965784241&#45;&gt;No_971178290</title>
<path fill="none" stroke="black" d="M1146.02,-414.56C1154.37,-404.34 1163.59,-393.05 1172.27,-382.42"/>
<polygon fill="black" stroke="black" points="1175.16,-384.41 1178.78,-374.45 1169.74,-379.98 1175.16,-384.41"/>
</g>
<!-- No_953602884 -->
<g id="node24" class="node">
<title>No_953602884</title>
<ellipse fill="none" stroke="black" cx="842.61" cy="-228.43" rx="81.13" ry="37.45"/>
<text text-anchor="middle" x="842.61" y="-239.73" font-family="Times,serif" font-size="14.00">Luciana Alves</text>
<text text-anchor="middle" x="842.61" y="-224.73" font-family="Times,serif" font-size="14.00">953602884</text>
<text text-anchor="middle" x="842.61" y="-209.73" font-family="Times,serif" font-size="14.00">fb=1</text>
</g>
<!-- No_958835624&#45;&gt;No_953602884 -->
<g id="edge23" class="edge">
<title>No_958835624&#45;&gt;No_953602884</title>
<path fill="none" stroke="black" d="M979.25,-309.47C955.09,-295.32 925.84,-278.18 900.61,-263.41"/>
<polygon fill="black" stroke="black" points="902.27,-260.32 891.87,-258.29 898.73,-266.36 902.27,-260.32"/>
</g>
<!-- No_965542053 -->
<g id="node29" class="node">
<title>No_965542053</title>
<ellipse fill="none" stroke="black" cx="1028.61" cy="-228.43" rx="81.13" ry="37.45"/>
<text text-anchor="middle" x="1028.61" y="-239.73" font-family="Times,serif" font-size="14.00">Luciana Porto</text>
<text text-anchor="middle" x="1028.61" y="-224.73" font-family="Times,serif" font-size="14.00">965542053</text>
<text text-anchor="middle" x="1028.61" y="-209.73" font-family="Times,serif" font-size="14.00">fb=&#45;1</text>
</g>
<!-- No_958835624&#45;&gt;No_965542053 -->
<g id="edge28" class="edge">
<title>No_958835624&#45;&gt;No_965542053</title>
<path fill="none" stroke="black" d="M1028.61,-301.8C1028.61,-293.63 1028.61,-284.85 1028.61,-276.32"/>
<polygon fill="black" stroke="black" points="1032.11,-276.1 1028.61,-266.1 1025.11,-276.1 1032.11,-276.1"/>
</g>
<!-- NUL_10 -->
<g id="node25" class="node">
<title>NUL_10</title>
<polygon fill="none" stroke="black" points="723.61,-139.48 679.61,-139.48 679.61,-95.48 723.61,-95.48 723.61,-139.48"/>
<text text-anchor="middle" x="701.61" y="-113.78" font-family="Times,serif" font-size="14.00">null</text>
</g>
<!-- No_953602884&#45;&gt;NUL_10 -->
<g id="edge24" class="edge">
<title>No_953602884&#45;&gt;NUL_10</title>
<path fill="none" stroke="black" d="M792.54,-198.66C772.95,-186.35 750.85,-171.1 732.61,-154.95 729.83,-152.5 727.08,-149.79 724.43,-146.99"/>
<polygon fill="black" stroke="black" points="726.99,-144.59 717.71,-139.48 721.77,-149.27 726.99,-144.59"/>
</g>
<!-- No_954954557 -->
<g id="node26" class="node">
<title>No_954954557</title>
<ellipse fill="none" stroke="black" cx="836.61" cy="-117.48" rx="95.42" ry="37.45"/>
<text text-anchor="middle" x="836.61" y="-128.78" font-family="Times,serif" font-size="14.00">Luciana Barbosa</text>
<text text-anchor="middle" x="836.61" y="-113.78" font-family="Times,serif" font-size="14.00">954954557</text>
<text text-anchor="middle" x="836.61" y="-98.78" font-family="Times,serif" font-size="14.00">fb=0</text>
</g>
<!-- No_953602884&#45;&gt;No_954954557 -->
<g id="edge25" class="edge">
<title>No_953602884&#45;&gt;No_954954557</title>
<path fill="none" stroke="black" d="M840.6,-190.85C840.15,-182.67 839.66,-173.89 839.19,-165.37"/>
<polygon fill="black" stroke="black" points="842.67,-164.94 838.63,-155.15 835.68,-165.33 842.67,-164.94"/>
</g>
<!-- NUL_11 -->
<g id="node27" class="node">
<title>NUL_11</title>
<polygon fill="none" stroke="black" points="827.61,-44 783.61,-44 783.61,0 827.61,0 827.61,-44"/>
<text text-anchor="middle" x="805.61" y="-18.3" font-family="Times,serif" font-size="14.00">null</text>
</g>
<!-- No_954954557&#45;&gt;NUL_11 -->
<g id="edge26" class="edge">
<title>No_954954557&#45;&gt;NUL_11</title>
<path fill="none" stroke="black" d="M824.54,-80.07C821.63,-71.3 818.55,-62.02 815.74,-53.55"/>
<polygon fill="black" stroke="black" points="819.06,-52.45 812.59,-44.06 812.42,-54.65 819.06,-52.45"/>
</g>
<!-- NUL_12 -->
<g id="node28" class="node">
<title>NUL_12</title>
<polygon fill="none" stroke="black" points="889.61,-44 845.61,-44 845.61,0 889.61,0 889.61,-44"/>
<text text-anchor="middle" x="867.61" y="-18.3" font-family="Times,serif" font-size="14.00">null</text>
</g>
<!-- No_954954557&#45;&gt;NUL_12 -->
<g id="edge27" class="edge">
<title>No_954954557&#45;&gt;NUL_12</title>
<path fill="none" stroke="black" d="M848.68,-80.07C851.59,-71.3 854.67,-62.02 857.48,-53.55"/>
<polygon fill="black" stroke="black" points="860.8,-54.65 860.63,-44.06 854.16,-52.45 860.8,-54.65"/>
</g>
<!-- No_964512931 -->
<g id="node30" class="node">
<title>No_964512931</title>
<ellipse fill="none" stroke="black" cx="1027.61" cy="-117.48" rx="77.15" ry="37.45"/>
<text text-anchor="middle" x="1027.61" y="-128.78" font-family="Times,serif" font-size="14.00">Lucas Moura</text>
<text text-anchor="middle" x="1027.61" y="-113.78" font-family="Times,serif" font-size="14.00">964512931</text>
<text text-anchor="middle" x="1027.61" y="-98.78" font-family="Times,serif" font-size="14.00">fb=0</text>
</g>
<!-- No_965542053&#45;&gt;No_964512931 -->
<g id="edge29" class="edge">
<title>No_965542053&#45;&gt;No_964512931</title>
<path fill="none" stroke="black" d="M1028.27,-190.85C1028.2,-182.67 1028.12,-173.89 1028.04,-165.37"/>
<polygon fill="black" stroke="black" points="1031.54,-165.12 1027.95,-155.15 1024.54,-165.18 1031.54,-165.12"/>
</g>
<!-- NUL_15 -->
<g id="node33" class="node">
<title>NUL_15</title>
<polygon fill="none" stroke="black" points="1166.61,-139.48 1122.61,-139.48 1122.61,-95.48 1166.61,-95.48 1166.61,-139.48"/>
<text text-anchor="middle" x="1144.61" y="-113.78" font-family="Times,serif" font-size="14.00">null</text>
</g>
<!-- No_965542053&#45;&gt;NUL_15 -->
<g id="edge32" class="edge">
<title>No_965542053&#45;&gt;NUL_15</title>
<path fill="none" stroke="black" d="M1068.71,-195.5C1083.3,-183.3 1099.63,-168.95 1113.61,-154.95 1115.96,-152.6 1118.33,-150.09 1120.66,-147.54"/>
<polygon fill="black" stroke="black" points="1123.47,-149.64 1127.46,-139.82 1118.22,-145.01 1123.47,-149.64"/>
</g>
<!-- NUL_13 -->
<g id="node31" class="node">
<title>NUL_13</title>
<polygon fill="none" stroke="black" points="1018.61,-44 974.61,-44 974.61,0 1018.61,0 1018.61,-44"/>
<text text-anchor="middle" x="996.61" y="-18.3" font-family="Times,serif" font-size="14.00">null</text>
</g>
<!-- No_964512931&#45;&gt;NUL_13 -->
<g id="edge30" class="edge">
<title>No_964512931&#45;&gt;NUL_13</title>
<path fill="none" stroke="black" d="M1015.62,-80.34C1012.71,-71.55 1009.62,-62.23 1006.8,-53.72"/>
<polygon fill="black" stroke="black" points="1010.1,-52.57 1003.63,-44.18 1003.46,-54.77 1010.1,-52.57"/>
</g>
<!-- NUL_14 -->
<g id="node32" class="node">
<title>NUL_14</title>
<polygon fill="none" stroke="black" points="1080.61,-44 1036.61,-44 1036.61,0 1080.61,0 1080.61,-44"/>
<text text-anchor="middle" x="1058.61" y="-18.3" font-family="Times,serif" font-size="14.00">null</text>
</g>
<!-- No_964512931&#45;&gt;NUL_14 -->
<g id="edge31" class="edge">
<title>No_964512931&#45;&gt;NUL_14</title>
<path fill="none" stroke="black" d="M1039.6,-80.34C1042.51,-71.55 1045.6,-62.23 1048.42,-53.72"/>
<polygon fill="black" stroke="black" points="1051.76,-54.77 1051.59,-44.18 1045.12,-52.57 1051.76,-54.77"/>
</g>
<!-- No_967012419 -->
<g id="node35" class="node">
<title>No_967012419</title>
<ellipse fill="none" stroke="black" cx="1206.61" cy="-228.43" rx="78.48" ry="37.45"/>
<text text-anchor="middle" x="1206.61" y="-239.73" font-family="Times,serif" font-size="14.00">Luana Moura</text>
<text text-anchor="middle" x="1206.61" y="-224.73" font-family="Times,serif" font-size="14.00">967012419</text>
<text text-anchor="middle" x="1206.61" y="-209.73" font-family="Times,serif" font-size="14.00">fb=0</text>
</g>
<!-- No_971178290&#45;&gt;No_967012419 -->
<g id="edge34" class="edge">
<title>No_971178290&#45;&gt;No_967012419</title>
<path fill="none" stroke="black" d="M1206.61,-301.8C1206.61,-293.63 1206.61,-284.85 1206.61,-276.32"/>
<polygon fill="black" stroke="black" points="1210.11,-276.1 1206.61,-266.1 1203.11,-276.1 1210.11,-276.1"/>
</g>
<!-- NUL_18 -->
<g id="node38" class="node">
<title>NUL_18</title>
<polygon fill="none" stroke="black" points="1346.61,-250.43 1302.61,-250.43 1302.61,-206.43 1346.61,-206.43 1346.61,-250.43"/>
<text text-anchor="middle" x="1324.61" y="-224.73" font-family="Times,serif" font-size="14.00">null</text>
</g>
<!-- No_971178290&#45;&gt;NUL_18 -->
<g id="edge37" class="edge">
<title>No_971178290&#45;&gt;NUL_18</title>
<path fill="none" stroke="black" d="M1246.4,-307.64C1261.67,-295.23 1278.94,-280.43 1293.61,-265.91 1296.03,-263.51 1298.47,-260.94 1300.86,-258.33"/>
<polygon fill="black" stroke="black" points="1303.84,-260.25 1307.83,-250.43 1298.59,-255.62 1303.84,-260.25"/>
</g>
<!-- NUL_16 -->
<g id="node36" class="node">
<title>NUL_16</title>
<polygon fill="none" stroke="black" points="1228.61,-139.48 1184.61,-139.48 1184.61,-95.48 1228.61,-95.48 1228.61,-139.48"/>
<text text-anchor="middle" x="1206.61" y="-113.78" font-family="Times,serif" font-size="14.00">null</text>
</g>
<!-- No_967012419&#45;&gt;NUL_16 -->
<g id="edge35" class="edge">
<title>No_967012419&#45;&gt;NUL_16</title>
<path fill="none" stroke="black" d="M1206.61,-190.85C1206.61,-177.52 1206.61,-162.58 1206.61,-149.75"/>
<polygon fill="black" stroke="black" points="1210.11,-149.55 1206.61,-139.55 1203.11,-149.55 1210.11,-149.55"/>
</g>
<!-- NUL_17 -->
<g id="node37" class="node">
<title>NUL_17</title>
<polygon fill="none" stroke="black" points="1290.61,-139.48 1246.61,-139.48 1246.61,-95.48 1290.61,-95.48 1290.61,-139.48"/>
<text text-anchor="middle" x="1268.61" y="-113.78" font-family="Times,serif" font-size="14.00">null</text>
</g>
<!-- No_967012419&#45;&gt;NUL_17 -->
<g id="edge36" class="edge">
<title>No_967012419&#45;&gt;NUL_17</title>
<path fill="none" stroke="black" d="M1226.74,-192.06C1234.73,-178.02 1243.82,-162.05 1251.48,-148.58"/>
<polygon fill="black" stroke="black" points="1254.62,-150.13 1256.53,-139.71 1248.54,-146.67 1254.62,-150.13"/>
</g>
<!-- No_975118455 -->
<g id="node40" class="node">
<title>No_975118455</title>
<ellipse fill="none" stroke="black" cx="1545.61" cy="-339.38" rx="86.95" ry="37.45"/>
<text text-anchor="middle" x="1545.61" y="-350.68" font-family="Times,serif" font-size="14.00">Luciana Moura</text>
<text text-anchor="middle" x="1545.61" y="-335.68" font-family="Times,serif" font-size="14.00">975118455</text>
<text text-anchor="middle" x="1545.61" y="-320.68" font-family="Times,serif" font-size="14.00">fb=0</text>
</g>
<!-- No_978788890&#45;&gt;No_975118455 -->
<g id="edge39" class="edge">
<title>No_978788890&#45;&gt;No_975118455</title>
<path fill="none" stroke="black" d="M1545.61,-412.75C1545.61,-404.58 1545.61,-395.8 1545.61,-387.27"/>
<polygon fill="black" stroke="black" points="1549.11,-387.06 1545.61,-377.06 1542.11,-387.06 1549.11,-387.06"/>
</g>
<!-- No_993059057 -->
<g id="node47" class="node">
<title>No_993059057</title>
<ellipse fill="none" stroke="black" cx="1828.61" cy="-339.38" rx="88.28" ry="37.45"/>
<text text-anchor="middle" x="1828.61" y="-350.68" font-family="Times,serif" font-size="14.00">Luciana Coelho</text>
<text text-anchor="middle" x="1828.61" y="-335.68" font-family="Times,serif" font-size="14.00">993059057</text>
<text text-anchor="middle" x="1828.61" y="-320.68" font-family="Times,serif" font-size="14.00">fb=&#45;1</text>
</g>
<!-- No_978788890&#45;&gt;No_993059057 -->
<g id="edge46" class="edge">
<title>No_978788890&#45;&gt;No_993059057</title>
<path fill="none" stroke="black" d="M1612.32,-423.65C1655.1,-407.18 1710.68,-385.79 1754.78,-368.81"/>
<polygon fill="black" stroke="black" points="1756.22,-372 1764.3,-365.14 1753.71,-365.47 1756.22,-372"/>
</g>
<!-- No_975106341 -->
<g id="node41" class="node">
<title>No_975106341</title>
<ellipse fill="none" stroke="black" cx="1454.61" cy="-228.43" rx="89.61" ry="37.45"/>
<text text-anchor="middle" x="1454.61" y="-239.73" font-family="Times,serif" font-size="14.00">Lucas Machado</text>
<text text-anchor="middle" x="1454.61" y="-224.73" font-family="Times,serif" font-size="14.00">975106341</text>
<text text-anchor="middle" x="1454.61" y="-209.73" font-family="Times,serif" font-size="14.00">fb=0</text>
</g>
<!-- No_975118455&#45;&gt;No_975106341 -->
<g id="edge40" class="edge">
<title>No_975118455&#45;&gt;No_975106341</title>
<path fill="none" stroke="black" d="M1516.82,-303.91C1508.35,-293.78 1498.99,-282.57 1490.16,-271.99"/>
<polygon fill="black" stroke="black" points="1492.62,-269.48 1483.53,-264.05 1487.25,-273.97 1492.62,-269.48"/>
</g>
<!-- No_977204055 -->
<g id="node44" class="node">
<title>No_977204055</title>
<ellipse fill="none" stroke="black" cx="1647.61" cy="-228.43" rx="85.62" ry="37.45"/>
<text text-anchor="middle" x="1647.61" y="-239.73" font-family="Times,serif" font-size="14.00">Luciana Farias</text>
<text text-anchor="middle" x="1647.61" y="-224.73" font-family="Times,serif" font-size="14.00">977204055</text>
<text text-anchor="middle" x="1647.61" y="-209.73" font-family="Times,serif" font-size="14.00">fb=0</text>
</g>
<!-- No_975118455&#45;&gt;No_977204055 -->
<g id="edge43" class="edge">
<title>No_975118455&#45;&gt;No_977204055</title>
<path fill="none" stroke="black" d="M1577.6,-304.21C1587.48,-293.66 1598.46,-281.93 1608.74,-270.95"/>
<polygon fill="black" stroke="black" points="1611.45,-273.18 1615.73,-263.48 1606.34,-268.39 1611.45,-273.18"/>
</g>
<!-- NUL_19 -->
<g id="node42" class="node">
<title>NUL_19</title>
<polygon fill="none" stroke="black" points="1445.61,-139.48 1401.61,-139.48 1401.61,-95.48 1445.61,-95.48 1445.61,-139.48"/>
<text text-anchor="middle" x="1423.61" y="-113.78" font-family="Times,serif" font-size="14.00">null</text>
</g>
<!-- No_975106341&#45;&gt;NUL_19 -->
<g id="edge41" class="edge">
<title>No_975106341&#45;&gt;NUL_19</title>
<path fill="none" stroke="black" d="M1444.29,-191.15C1440.45,-177.67 1436.14,-162.51 1432.45,-149.53"/>
<polygon fill="black" stroke="black" points="1435.74,-148.33 1429.64,-139.67 1429.01,-150.25 1435.74,-148.33"/>
</g>
<!-- NUL_20 -->
<g id="node43" class="node">
<title>NUL_20</title>
<polygon fill="none" stroke="black" points="1507.61,-139.48 1463.61,-139.48 1463.61,-95.48 1507.61,-95.48 1507.61,-139.48"/>
<text text-anchor="middle" x="1485.61" y="-113.78" font-family="Times,serif" font-size="14.00">null</text>
</g>
<!-- No_975106341&#45;&gt;NUL_20 -->
<g id="edge42" class="edge">
<title>No_975106341&#45;&gt;NUL_20</title>
<path fill="none" stroke="black" d="M1464.93,-191.15C1468.77,-177.67 1473.08,-162.51 1476.77,-149.53"/>
<polygon fill="black" stroke="black" points="1480.21,-150.25 1479.58,-139.67 1473.48,-148.33 1480.21,-150.25"/>
</g>
<!-- NUL_21 -->
<g id="node45" class="node">
<title>NUL_21</title>
<polygon fill="none" stroke="black" points="1638.61,-139.48 1594.61,-139.48 1594.61,-95.48 1638.61,-95.48 1638.61,-139.48"/>
<text text-anchor="middle" x="1616.61" y="-113.78" font-family="Times,serif" font-size="14.00">null</text>
</g>
<!-- No_977204055&#45;&gt;NUL_21 -->
<g id="edge44" class="edge">
<title>No_977204055&#45;&gt;NUL_21</title>
<path fill="none" stroke="black" d="M1637.29,-191.15C1633.45,-177.67 1629.14,-162.51 1625.45,-149.53"/>
<polygon fill="black" stroke="black" points="1628.74,-148.33 1622.64,-139.67 1622.01,-150.25 1628.74,-148.33"/>
</g>
<!-- NUL_22 -->
<g id="node46" class="node">
<title>NUL_22</title>
<polygon fill="none" stroke="black" points="1700.61,-139.48 1656.61,-139.48 1656.61,-95.48 1700.61,-95.48 1700.61,-139.48"/>
<text text-anchor="middle" x="1678.61" y="-113.78" font-family="Times,serif" font-size="14.00">null</text>
</g>
<!-- No_977204055&#45;&gt;NUL_22 -->
<g id="edge45" class="edge">
<title>No_977204055&#45;&gt;NUL_22</title>
<path fill="none" stroke="black" d="M1657.93,-191.15C1661.77,-177.67 1666.08,-162.51 1669.77,-149.53"/>
<polygon fill="black" stroke="black" points="1673.21,-150.25 1672.58,-139.67 1666.48,-148.33 1673.21,-150.25"/>
</g>
<!-- No_979089828 -->
<g id="node48" class="node">
<title>No_979089828</title>
<ellipse fill="none" stroke="black" cx="1828.61" cy="-228.43" rx="77.15" ry="37.45"/>
<text text-anchor="middle" x="1828.61" y="-239.73" font-family="Times,serif" font-size="14.00">Luana Farias</text>
<text text-anchor="middle" x="1828.61" y="-224.73" font-family="Times,serif" font-size="14.00">979089828</text>
<text text-anchor="middle" x="1828.61" y="-209.73" font-family="Times,serif" font-size="14.00">fb=0</text>
</g>
<!-- No_993059057&#45;&gt;No_979089828 -->
<g id="edge47" class="edge">
<title>No_993059057&#45;&gt;No_979089828</title>
<path fill="none" stroke="black" d="M1828.61,-301.8C1828.61,-293.63 1828.61,-284.85 1828.61,-276.32"/>
<polygon fill="black" stroke="black" points="1832.11,-276.1 1828.61,-266.1 1825.11,-276.1 1832.11,-276.1"/>
</g>
<!-- NUL_25 -->
<g id="node51" class="node">
<title>NUL_25</title>
<polygon fill="none" stroke="black" points="1967.61,-250.43 1923.61,-250.43 1923.61,-206.43 1967.61,-206.43 1967.61,-250.43"/>
<text text-anchor="middle" x="1945.61" y="-224.73" font-family="Times,serif" font-size="14.00">null</text>
</g>
<!-- No_993059057&#45;&gt;NUL_25 -->
<g id="edge50" class="edge">
<title>No_993059057&#45;&gt;NUL_25</title>
<path fill="none" stroke="black" d="M1869.65,-306.15C1884.3,-294.04 1900.64,-279.82 1914.61,-265.91 1916.97,-263.56 1919.34,-261.06 1921.67,-258.5"/>
<polygon fill="black" stroke="black" points="1924.49,-260.61 1928.48,-250.79 1919.24,-255.97 1924.49,-260.61"/>
</g>
<!-- NUL_23 -->
<g id="node49" class="node">
<title>NUL_23</title>
<polygon fill="none" stroke="black" points="1819.61,-139.48 1775.61,-139.48 1775.61,-95.48 1819.61,-95.48 1819.61,-139.48"/>
<text text-anchor="middle" x="1797.61" y="-113.78" font-family="Times,serif" font-size="14.00">null</text>
</g>
<!-- No_979089828&#45;&gt;NUL_23 -->
<g id="edge48" class="edge">
<title>No_979089828&#45;&gt;NUL_23</title>
<path fill="none" stroke="black" d="M1818.29,-191.15C1814.45,-177.67 1810.14,-162.51 1806.45,-149.53"/>
<polygon fill="black" stroke="black" points="1809.74,-148.33 1803.64,-139.67 1803.01,-150.25 1809.74,-148.33"/>
</g>
<!-- NUL_24 -->
<g id="node50" class="node">
<title>NUL_24</title>
<polygon fill="none" stroke="black" points="1881.61,-139.48 1837.61,-139.48 1837.61,-95.48 1881.61,-95.48 1881.61,-139.48"/>
<text text-anchor="middle" x="1859.61" y="-113.78" font-family="Times,serif" font-size="14.00">null</text>
</g>
<!-- No_979089828&#45;&gt;NUL_24 -->
<g id="edge49" class="edge">
<title>No_979089828&#45;&gt;NUL_24</title>
<path fill="none" stroke="black" d="M1838.93,-191.15C1842.77,-177.67 1847.08,-162.51 1850.77,-149.53"/>
<polygon fill="black" stroke="black" points="1854.21,-150.25 1853.58,-139.67 1847.48,-148.33 1854.21,-150.25"/>
</g>
</g>
</svg>
