<?xml version="1.0" encoding="UTF-8" standalone="no"?>
<!DOCTYPE svg PUBLIC "-//W3C//DTD SVG 1.1//EN"
 "http://www.w3.org/Graphics/SVG/1.1/DTD/svg11.dtd">
<!-- Generated by graphviz version 2.43.0 (0)
 -->
<!-- Title: BST Pages: 1 -->
<svg width="938pt" height="385pt"
 viewBox="0.00 0.00 937.84 384.86" xmlns="http://www.w3.org/2000/svg" xmlns:xlink="http://www.w3.org/1999/xlink">
<g id="graph0" class="graph" transform="scale(1 1) rotate(0) translate(4 380.86)">
<title>BST</title>
<polygon fill="white" stroke="transparent" points="-4,4 -4,-380.86 933.84,-380.86 933.84,4 -4,4"/>
<!-- No_971087469 -->
<g id="node1" class="node">
<title>No_971087469</title>
<ellipse fill="none" stroke="black" cx="481.19" cy="-339.38" rx="114.6" ry="37.45"/>
<text text-anchor="middle" x="481.19" y="-350.68" font-family="Times,serif" font-size="14.00">Washington Campos</text>
<text text-anchor="middle" x="481.19" y="-335.68" font-family="Times,serif" font-size="14.00">971087469</text>
<text text-anchor="middle" x="481.19" y="-320.68" font-family="Times,serif" font-size="14.00">fb=0</text>
</g>
<!-- No_956132265 -->
<g id="node2" class="node">
<title>No_956132265</title>
<ellipse fill="none" stroke="black" cx="360.19" cy="-228.43" rx="111.03" ry="37.45"/>
<text text-anchor="middle" x="360.19" y="-239.73" font-family="Times,serif" font-size="14.00">Washington Pereira</text>
<text text-anchor="middle" x="360.19" y="-224.73" font-family="Times,serif" font-size="14.00">956132265</text>
<text text-anchor="middle" x="360.19" y="-209.73" font-family="Times,serif" font-size="14.00">fb=0</text>
</g>
<!-- No_971087469&#45;&gt;No_956132265 -->
<g id="edge1" class="edge">
<title>No_971087469&#45;&gt;No_956132265</title>
<path fill="none" stroke="black" d="M442.9,-303.91C431.09,-293.27 417.97,-281.46 405.72,-270.43"/>
<polygon fill="black" stroke="black" points="408,-267.77 398.22,-263.68 403.31,-272.97 408,-267.77"/>
</g>
<!-- No_984823612 -->
<g id="node9" class="node">
<title>No_984823612</title>
<ellipse fill="none" stroke="black" cx="603.19" cy="-228.43" rx="113.69" ry="37.45"/>
<text text-anchor="middle" x="603.19" y="-239.73" font-family="Times,serif" font-size="14.00">Washington Martins</text>
<text text-anchor="middle" x="603.19" y="-224.73" font-family="Times,serif" font-size="14.00">984823612</text>
<text text-anchor="middle" x="603.19" y="-209.73" font-family="Times,serif" font-size="14.00">fb=0</text>
</g>
<!-- No_971087469&#45;&gt;No_984823612 -->
<g id="edge8" class="edge">
<title>No_971087469&#45;&gt;No_984823612</title>
<path fill="none" stroke="black" d="M519.79,-303.91C531.58,-293.38 544.67,-281.69 556.92,-270.75"/>
<polygon fill="black" stroke="black" points="559.29,-273.32 564.42,-264.05 554.63,-268.1 559.29,-273.32"/>
</g>
<!-- No_952449777 -->
<g id="node3" class="node">
<title>No_952449777</title>
<ellipse fill="none" stroke="black" cx="108.19" cy="-117.48" rx="108.38" ry="37.45"/>
<text text-anchor="middle" x="108.19" y="-128.78" font-family="Times,serif" font-size="14.00">Washington Barros</text>
<text text-anchor="middle" x="108.19" y="-113.78" font-family="Times,serif" font-size="14.00">952449777</text>
<text text-anchor="middle" x="108.19" y="-98.78" font-family="Times,serif" font-size="14.00">fb=0</text>
</g>
<!-- No_956132265&#45;&gt;No_952449777 -->
<g id="edge2" class="edge">
<title>No_956132265&#45;&gt;No_952449777</title>
<path fill="none" stroke="black" d="M292.99,-198.38C259.54,-183.91 218.96,-166.37 184.35,-151.41"/>
<polygon fill="black" stroke="black" points="185.33,-148.02 174.76,-147.26 182.55,-154.44 185.33,-148.02"/>
</g>
<!-- No_967265153 -->
<g id="node6" class="node">
<title>No_967265153</title>
<ellipse fill="none" stroke="black" cx="360.19" cy="-117.48" rx="125.73" ry="37.45"/>
<text text-anchor="middle" x="360.19" y="-128.78" font-family="Times,serif" font-size="14.00">Washington Rodrigues</text>
<text text-anchor="middle" x="360.19" y="-113.78" font-family="Times,serif" font-size="14.00">967265153</text>
<text text-anchor="middle" x="360.19" y="-98.78" font-family="Times,serif" font-size="14.00">fb=0</text>
</g>
<!-- No_956132265&#45;&gt;No_967265153 -->
<g id="edge5" class="edge">
<title>No_956132265&#45;&gt;No_967265153</title>
<path fill="none" stroke="black" d="M360.19,-190.85C360.19,-182.67 360.19,-173.89 360.19,-165.37"/>
<polygon fill="black" stroke="black" points="363.69,-165.15 360.19,-155.15 356.69,-165.15 363.69,-165.15"/>
</g>
<!-- NUL_0 -->
<g id="node4" class="node">
<title>NUL_0</title>
<polygon fill="none" stroke="black" points="99.19,-44 55.19,-44 55.19,0 99.19,0 99.19,-44"/>
<text text-anchor="middle" x="77.19" y="-18.3" font-family="Times,serif" font-size="14.00">null</text>
</g>
<!-- No_952449777&#45;&gt;NUL_0 -->
<g id="edge3" class="edge">
<title>No_952449777&#45;&gt;NUL_0</title>
<path fill="none" stroke="black" d="M96.11,-80.07C93.21,-71.3 90.13,-62.02 87.32,-53.55"/>
<polygon fill="black" stroke="black" points="90.64,-52.45 84.17,-44.06 84,-54.65 90.64,-52.45"/>
</g>
<!-- NUL_1 -->
<g id="node5" class="node">
<title>NUL_1</title>
<polygon fill="none" stroke="black" points="161.19,-44 117.19,-44 117.19,0 161.19,0 161.19,-44"/>
<text text-anchor="middle" x="139.19" y="-18.3" font-family="Times,serif" font-size="14.00">null</text>
</g>
<!-- No_952449777&#45;&gt;NUL_1 -->
<g id="edge4" class="edge">
<title>No_952449777&#45;&gt;NUL_1</title>
<path fill="none" stroke="black" d="M120.26,-80.07C123.17,-71.3 126.25,-62.02 129.06,-53.55"/>
<polygon fill="black" stroke="black" points="132.38,-54.65 132.2,-44.06 125.73,-52.45 132.38,-54.65"/>
</g>
<!-- NUL_2 -->
<g id="node7" class="node">
<title>NUL_2</title>
<polygon fill="none" stroke="black" points="351.19,-44 307.19,-44 307.19,0 351.19,0 351.19,-44"/>
<text text-anchor="middle" x="329.19" y="-18.3" font-family="Times,serif" font-size="14.00">null</text>
</g>
<!-- No_967265153&#45;&gt;NUL_2 -->
<g id="edge6" class="edge">
<title>No_967265153&#45;&gt;NUL_2</title>
<path fill="none" stroke="black" d="M348.11,-80.07C345.21,-71.3 342.13,-62.02 339.32,-53.55"/>
<polygon fill="black" stroke="black" points="342.64,-52.45 336.17,-44.06 336,-54.65 342.64,-52.45"/>
</g>
<!-- NUL_3 -->
<g id="node8" class="node">
<title>NUL_3</title>
<polygon fill="none" stroke="black" points="413.19,-44 369.19,-44 369.19,0 413.19,0 413.19,-44"/>
<text text-anchor="middle" x="391.19" y="-18.3" font-family="Times,serif" font-size="14.00">null</text>
</g>
<!-- No_967265153&#45;&gt;NUL_3 -->
<g id="edge7" class="edge">
<title>No_967265153&#45;&gt;NUL_3</title>
<path fill="none" stroke="black" d="M372.26,-80.07C375.17,-71.3 378.25,-62.02 381.06,-53.55"/>
<polygon fill="black" stroke="black" points="384.38,-54.65 384.2,-44.06 377.73,-52.45 384.38,-54.65"/>
</g>
<!-- No_983969826 -->
<g id="node10" class="node">
<title>No_983969826</title>
<ellipse fill="none" stroke="black" cx="603.19" cy="-117.48" rx="98.99" ry="37.45"/>
<text text-anchor="middle" x="603.19" y="-128.78" font-family="Times,serif" font-size="14.00">Washington Silva</text>
<text text-anchor="middle" x="603.19" y="-113.78" font-family="Times,serif" font-size="14.00">983969826</text>
<text text-anchor="middle" x="603.19" y="-98.78" font-family="Times,serif" font-size="14.00">fb=0</text>
</g>
<!-- No_984823612&#45;&gt;No_983969826 -->
<g id="edge9" class="edge">
<title>No_984823612&#45;&gt;No_983969826</title>
<path fill="none" stroke="black" d="M603.19,-190.85C603.19,-182.67 603.19,-173.89 603.19,-165.37"/>
<polygon fill="black" stroke="black" points="606.69,-165.15 603.19,-155.15 599.69,-165.15 606.69,-165.15"/>
</g>
<!-- No_985180900 -->
<g id="node13" class="node">
<title>No_985180900</title>
<ellipse fill="none" stroke="black" cx="825.19" cy="-117.48" rx="104.8" ry="37.45"/>
<text text-anchor="middle" x="825.19" y="-128.78" font-family="Times,serif" font-size="14.00">Washington Souza</text>
<text text-anchor="middle" x="825.19" y="-113.78" font-family="Times,serif" font-size="14.00">985180900</text>
<text text-anchor="middle" x="825.19" y="-98.78" font-family="Times,serif" font-size="14.00">fb=0</text>
</g>
<!-- No_984823612&#45;&gt;No_985180900 -->
<g id="edge12" class="edge">
<title>No_984823612&#45;&gt;No_985180900</title>
<path fill="none" stroke="black" d="M665.32,-196.94C693.33,-183.19 726.53,-166.9 755.39,-152.73"/>
<polygon fill="black" stroke="black" points="757.17,-155.76 764.6,-148.21 754.08,-149.47 757.17,-155.76"/>
</g>
<!-- NUL_4 -->
<g id="node11" class="node">
<title>NUL_4</title>
<polygon fill="none" stroke="black" points="594.19,-44 550.19,-44 550.19,0 594.19,0 594.19,-44"/>
<text text-anchor="middle" x="572.19" y="-18.3" font-family="Times,serif" font-size="14.00">null</text>
</g>
<!-- No_983969826&#45;&gt;NUL_4 -->
<g id="edge10" class="edge">
<title>No_983969826&#45;&gt;NUL_4</title>
<path fill="none" stroke="black" d="M591.11,-80.07C588.21,-71.3 585.13,-62.02 582.32,-53.55"/>
<polygon fill="black" stroke="black" points="585.64,-52.45 579.17,-44.06 579,-54.65 585.64,-52.45"/>
</g>
<!-- NUL_5 -->
<g id="node12" class="node">
<title>NUL_5</title>
<polygon fill="none" stroke="black" points="656.19,-44 612.19,-44 612.19,0 656.19,0 656.19,-44"/>
<text text-anchor="middle" x="634.19" y="-18.3" font-family="Times,serif" font-size="14.00">null</text>
</g>
<!-- No_983969826&#45;&gt;NUL_5 -->
<g id="edge11" class="edge">
<title>No_983969826&#45;&gt;NUL_5</title>
<path fill="none" stroke="black" d="M615.26,-80.07C618.17,-71.3 621.25,-62.02 624.06,-53.55"/>
<polygon fill="black" stroke="black" points="627.38,-54.65 627.2,-44.06 620.73,-52.45 627.38,-54.65"/>
</g>
<!-- NUL_6 -->
<g id="node14" class="node">
<title>NUL_6</title>
<polygon fill="none" stroke="black" points="816.19,-44 772.19,-44 772.19,0 816.19,0 816.19,-44"/>
<text text-anchor="middle" x="794.19" y="-18.3" font-family="Times,serif" font-size="14.00">null</text>
</g>
<!-- No_985180900&#45;&gt;NUL_6 -->
<g id="edge13" class="edge">
<title>No_985180900&#45;&gt;NUL_6</title>
<path fill="none" stroke="black" d="M813.11,-80.07C810.21,-71.3 807.13,-62.02 804.32,-53.55"/>
<polygon fill="black" stroke="black" points="807.64,-52.45 801.17,-44.06 801,-54.65 807.64,-52.45"/>
</g>
<!-- NUL_7 -->
<g id="node15" class="node">
<title>NUL_7</title>
<polygon fill="none" stroke="black" points="878.19,-44 834.19,-44 834.19,0 878.19,0 878.19,-44"/>
<text text-anchor="middle" x="856.19" y="-18.3" font-family="Times,serif" font-size="14.00">null</text>
</g>
<!-- No_985180900&#45;&gt;NUL_7 -->
<g id="edge14" class="edge">
<title>No_985180900&#45;&gt;NUL_7</title>
<path fill="none" stroke="black" d="M837.26,-80.07C840.17,-71.3 843.25,-62.02 846.06,-53.55"/>
<polygon fill="black" stroke="black" points="849.38,-54.65 849.2,-44.06 842.73,-52.45 849.38,-54.65"/>
</g>
</g>
</svg>
