<?xml version="1.0" encoding="UTF-8" standalone="no"?>
<!DOCTYPE svg PUBLIC "-//W3C//DTD SVG 1.1//EN"
 "http://www.w3.org/Graphics/SVG/1.1/DTD/svg11.dtd">
<!-- Generated by graphviz version 2.43.0 (0)
 -->
<!-- Title: BST Pages: 1 -->
<svg width="562pt" height="385pt"
 viewBox="0.00 0.00 561.97 384.86" xmlns="http://www.w3.org/2000/svg" xmlns:xlink="http://www.w3.org/1999/xlink">
<g id="graph0" class="graph" transform="scale(1 1) rotate(0) translate(4 380.86)">
<title>BST</title>
<polygon fill="white" stroke="transparent" points="-4,4 -4,-380.86 557.97,-380.86 557.97,4 -4,4"/>
<!-- No_988544965 -->
<g id="node1" class="node">
<title>No_988544965</title>
<ellipse fill="none" stroke="black" cx="298.97" cy="-339.38" rx="95.42" ry="37.45"/>
<text text-anchor="middle" x="298.97" y="-350.68" font-family="Times,serif" font-size="14.00">Vanessa Martins</text>
<text text-anchor="middle" x="298.97" y="-335.68" font-family="Times,serif" font-size="14.00">988544965</text>
<text text-anchor="middle" x="298.97" y="-320.68" font-family="Times,serif" font-size="14.00">fb=0</text>
</g>
<!-- No_980994344 -->
<g id="node2" class="node">
<title>No_980994344</title>
<ellipse fill="none" stroke="black" cx="201.97" cy="-228.43" rx="80.72" ry="37.45"/>
<text text-anchor="middle" x="201.97" y="-239.73" font-family="Times,serif" font-size="14.00">Vanessa Silva</text>
<text text-anchor="middle" x="201.97" y="-224.73" font-family="Times,serif" font-size="14.00">980994344</text>
<text text-anchor="middle" x="201.97" y="-209.73" font-family="Times,serif" font-size="14.00">fb=&#45;1</text>
</g>
<!-- No_988544965&#45;&gt;No_980994344 -->
<g id="edge1" class="edge">
<title>No_988544965&#45;&gt;No_980994344</title>
<path fill="none" stroke="black" d="M268.02,-303.61C258.83,-293.29 248.66,-281.87 239.12,-271.16"/>
<polygon fill="black" stroke="black" points="241.57,-268.64 232.31,-263.5 236.34,-273.3 241.57,-268.64"/>
</g>
<!-- No_999100434 -->
<g id="node7" class="node">
<title>No_999100434</title>
<ellipse fill="none" stroke="black" cx="396.97" cy="-228.43" rx="96.75" ry="37.45"/>
<text text-anchor="middle" x="396.97" y="-239.73" font-family="Times,serif" font-size="14.00">Vanessa Barbosa</text>
<text text-anchor="middle" x="396.97" y="-224.73" font-family="Times,serif" font-size="14.00">999100434</text>
<text text-anchor="middle" x="396.97" y="-209.73" font-family="Times,serif" font-size="14.00">fb=&#45;1</text>
</g>
<!-- No_988544965&#45;&gt;No_999100434 -->
<g id="edge6" class="edge">
<title>No_988544965&#45;&gt;No_999100434</title>
<path fill="none" stroke="black" d="M329.98,-303.91C339.19,-293.68 349.38,-282.35 358.97,-271.68"/>
<polygon fill="black" stroke="black" points="361.75,-273.83 365.83,-264.05 356.54,-269.15 361.75,-273.83"/>
</g>
<!-- No_970678322 -->
<g id="node3" class="node">
<title>No_970678322</title>
<ellipse fill="none" stroke="black" cx="86.97" cy="-117.48" rx="86.95" ry="37.45"/>
<text text-anchor="middle" x="86.97" y="-128.78" font-family="Times,serif" font-size="14.00">Vanessa Farias</text>
<text text-anchor="middle" x="86.97" y="-113.78" font-family="Times,serif" font-size="14.00">970678322</text>
<text text-anchor="middle" x="86.97" y="-98.78" font-family="Times,serif" font-size="14.00">fb=0</text>
</g>
<!-- No_980994344&#45;&gt;No_970678322 -->
<g id="edge2" class="edge">
<title>No_980994344&#45;&gt;No_970678322</title>
<path fill="none" stroke="black" d="M167.16,-194.44C155.44,-183.35 142.23,-170.83 129.96,-159.2"/>
<polygon fill="black" stroke="black" points="132.13,-156.44 122.47,-152.1 127.32,-161.52 132.13,-156.44"/>
</g>
<!-- NUL_2 -->
<g id="node6" class="node">
<title>NUL_2</title>
<polygon fill="none" stroke="black" points="235.97,-139.48 191.97,-139.48 191.97,-95.48 235.97,-95.48 235.97,-139.48"/>
<text text-anchor="middle" x="213.97" y="-113.78" font-family="Times,serif" font-size="14.00">null</text>
</g>
<!-- No_980994344&#45;&gt;NUL_2 -->
<g id="edge5" class="edge">
<title>No_980994344&#45;&gt;NUL_2</title>
<path fill="none" stroke="black" d="M206,-190.85C207.47,-177.52 209.12,-162.58 210.53,-149.75"/>
<polygon fill="black" stroke="black" points="214.04,-149.88 211.65,-139.55 207.08,-149.11 214.04,-149.88"/>
</g>
<!-- NUL_0 -->
<g id="node4" class="node">
<title>NUL_0</title>
<polygon fill="none" stroke="black" points="77.97,-44 33.97,-44 33.97,0 77.97,0 77.97,-44"/>
<text text-anchor="middle" x="55.97" y="-18.3" font-family="Times,serif" font-size="14.00">null</text>
</g>
<!-- No_970678322&#45;&gt;NUL_0 -->
<g id="edge3" class="edge">
<title>No_970678322&#45;&gt;NUL_0</title>
<path fill="none" stroke="black" d="M74.99,-80.34C72.07,-71.55 68.98,-62.23 66.16,-53.72"/>
<polygon fill="black" stroke="black" points="69.47,-52.57 63,-44.18 62.82,-54.77 69.47,-52.57"/>
</g>
<!-- NUL_1 -->
<g id="node5" class="node">
<title>NUL_1</title>
<polygon fill="none" stroke="black" points="139.97,-44 95.97,-44 95.97,0 139.97,0 139.97,-44"/>
<text text-anchor="middle" x="117.97" y="-18.3" font-family="Times,serif" font-size="14.00">null</text>
</g>
<!-- No_970678322&#45;&gt;NUL_1 -->
<g id="edge4" class="edge">
<title>No_970678322&#45;&gt;NUL_1</title>
<path fill="none" stroke="black" d="M98.96,-80.34C101.87,-71.55 104.96,-62.23 107.79,-53.72"/>
<polygon fill="black" stroke="black" points="111.12,-54.77 110.95,-44.18 104.48,-52.57 111.12,-54.77"/>
</g>
<!-- No_990886749 -->
<g id="node8" class="node">
<title>No_990886749</title>
<ellipse fill="none" stroke="black" cx="384.97" cy="-117.48" rx="107.46" ry="37.45"/>
<text text-anchor="middle" x="384.97" y="-128.78" font-family="Times,serif" font-size="14.00">Vanessa Rodrigues</text>
<text text-anchor="middle" x="384.97" y="-113.78" font-family="Times,serif" font-size="14.00">990886749</text>
<text text-anchor="middle" x="384.97" y="-98.78" font-family="Times,serif" font-size="14.00">fb=0</text>
</g>
<!-- No_999100434&#45;&gt;No_990886749 -->
<g id="edge7" class="edge">
<title>No_999100434&#45;&gt;No_990886749</title>
<path fill="none" stroke="black" d="M392.94,-190.85C392.04,-182.67 391.08,-173.89 390.14,-165.37"/>
<polygon fill="black" stroke="black" points="393.59,-164.71 389.01,-155.15 386.63,-165.47 393.59,-164.71"/>
</g>
<!-- NUL_5 -->
<g id="node11" class="node">
<title>NUL_5</title>
<polygon fill="none" stroke="black" points="553.97,-139.48 509.97,-139.48 509.97,-95.48 553.97,-95.48 553.97,-139.48"/>
<text text-anchor="middle" x="531.97" y="-113.78" font-family="Times,serif" font-size="14.00">null</text>
</g>
<!-- No_999100434&#45;&gt;NUL_5 -->
<g id="edge10" class="edge">
<title>No_999100434&#45;&gt;NUL_5</title>
<path fill="none" stroke="black" d="M447.09,-196.33C464.86,-184.33 484.52,-169.9 500.97,-154.95 503.5,-152.66 506.01,-150.17 508.44,-147.6"/>
<polygon fill="black" stroke="black" points="511.39,-149.55 515.47,-139.77 506.18,-144.87 511.39,-149.55"/>
</g>
<!-- NUL_3 -->
<g id="node9" class="node">
<title>NUL_3</title>
<polygon fill="none" stroke="black" points="375.97,-44 331.97,-44 331.97,0 375.97,0 375.97,-44"/>
<text text-anchor="middle" x="353.97" y="-18.3" font-family="Times,serif" font-size="14.00">null</text>
</g>
<!-- No_990886749&#45;&gt;NUL_3 -->
<g id="edge8" class="edge">
<title>No_990886749&#45;&gt;NUL_3</title>
<path fill="none" stroke="black" d="M372.9,-80.07C369.99,-71.3 366.91,-62.02 364.11,-53.55"/>
<polygon fill="black" stroke="black" points="367.43,-52.45 360.96,-44.06 360.78,-54.65 367.43,-52.45"/>
</g>
<!-- NUL_4 -->
<g id="node10" class="node">
<title>NUL_4</title>
<polygon fill="none" stroke="black" points="437.97,-44 393.97,-44 393.97,0 437.97,0 437.97,-44"/>
<text text-anchor="middle" x="415.97" y="-18.3" font-family="Times,serif" font-size="14.00">null</text>
</g>
<!-- No_990886749&#45;&gt;NUL_4 -->
<g id="edge9" class="edge">
<title>No_990886749&#45;&gt;NUL_4</title>
<path fill="none" stroke="black" d="M397.05,-80.07C399.96,-71.3 403.03,-62.02 405.84,-53.55"/>
<polygon fill="black" stroke="black" points="409.17,-54.65 408.99,-44.06 402.52,-52.45 409.17,-54.65"/>
</g>
</g>
</svg>
