<?xml version="1.0" encoding="UTF-8" standalone="no"?>
<!DOCTYPE svg PUBLIC "-//W3C//DTD SVG 1.1//EN"
 "http://www.w3.org/Graphics/SVG/1.1/DTD/svg11.dtd">
<!-- Generated by graphviz version 2.43.0 (0)
 -->
<!-- Title: BST Pages: 1 -->
<svg width="1400pt" height="607pt"
 viewBox="0.00 0.00 1399.66 606.77" xmlns="http://www.w3.org/2000/svg" xmlns:xlink="http://www.w3.org/1999/xlink">
<g id="graph0" class="graph" transform="scale(1 1) rotate(0) translate(4 602.77)">
<title>BST</title>
<polygon fill="white" stroke="transparent" points="-4,4 -4,-602.77 1395.66,-602.77 1395.66,4 -4,4"/>
<!-- No_981713517 -->
<g id="node1" class="node">
<title>No_981713517</title>
<ellipse fill="none" stroke="black" cx="582.51" cy="-561.29" rx="79.81" ry="37.45"/>
<text text-anchor="middle" x="582.51" y="-572.59" font-family="Times,serif" font-size="14.00">Pamella Silva</text>
<text text-anchor="middle" x="582.51" y="-557.59" font-family="Times,serif" font-size="14.00">981713517</text>
<text text-anchor="middle" x="582.51" y="-542.59" font-family="Times,serif" font-size="14.00">fb=0</text>
</g>
<!-- No_968732973 -->
<g id="node2" class="node">
<title>No_968732973</title>
<ellipse fill="none" stroke="black" cx="473.51" cy="-450.34" rx="86.95" ry="37.45"/>
<text text-anchor="middle" x="473.51" y="-461.64" font-family="Times,serif" font-size="14.00">Pamella Torres</text>
<text text-anchor="middle" x="473.51" y="-446.64" font-family="Times,serif" font-size="14.00">968732973</text>
<text text-anchor="middle" x="473.51" y="-431.64" font-family="Times,serif" font-size="14.00">fb=&#45;1</text>
</g>
<!-- No_981713517&#45;&gt;No_968732973 -->
<g id="edge1" class="edge">
<title>No_981713517&#45;&gt;No_968732973</title>
<path fill="none" stroke="black" d="M549.21,-527.01C538.33,-516.13 526.1,-503.91 514.7,-492.51"/>
<polygon fill="black" stroke="black" points="516.9,-489.76 507.35,-485.17 511.95,-494.71 516.9,-489.76"/>
</g>
<!-- No_987885224 -->
<g id="node17" class="node">
<title>No_987885224</title>
<ellipse fill="none" stroke="black" cx="745.51" cy="-450.34" rx="90.52" ry="37.45"/>
<text text-anchor="middle" x="745.51" y="-461.64" font-family="Times,serif" font-size="14.00">Patrícia Pereira</text>
<text text-anchor="middle" x="745.51" y="-446.64" font-family="Times,serif" font-size="14.00">987885224</text>
<text text-anchor="middle" x="745.51" y="-431.64" font-family="Times,serif" font-size="14.00">fb=1</text>
</g>
<!-- No_981713517&#45;&gt;No_987885224 -->
<g id="edge16" class="edge">
<title>No_981713517&#45;&gt;No_987885224</title>
<path fill="none" stroke="black" d="M627.48,-530.23C646.86,-517.28 669.71,-502 690.12,-488.36"/>
<polygon fill="black" stroke="black" points="692.33,-491.1 698.7,-482.63 688.44,-485.28 692.33,-491.1"/>
</g>
<!-- No_961887919 -->
<g id="node3" class="node">
<title>No_961887919</title>
<ellipse fill="none" stroke="black" cx="288.51" cy="-339.38" rx="80.72" ry="37.45"/>
<text text-anchor="middle" x="288.51" y="-350.68" font-family="Times,serif" font-size="14.00">Patrícia Porto</text>
<text text-anchor="middle" x="288.51" y="-335.68" font-family="Times,serif" font-size="14.00">961887919</text>
<text text-anchor="middle" x="288.51" y="-320.68" font-family="Times,serif" font-size="14.00">fb=1</text>
</g>
<!-- No_968732973&#45;&gt;No_961887919 -->
<g id="edge2" class="edge">
<title>No_968732973&#45;&gt;No_961887919</title>
<path fill="none" stroke="black" d="M422.96,-419.56C399.33,-405.65 371.06,-389 346.56,-374.57"/>
<polygon fill="black" stroke="black" points="348.11,-371.43 337.72,-369.37 344.56,-377.46 348.11,-371.43"/>
</g>
<!-- No_969402866 -->
<g id="node12" class="node">
<title>No_969402866</title>
<ellipse fill="none" stroke="black" cx="473.51" cy="-339.38" rx="74.91" ry="37.45"/>
<text text-anchor="middle" x="473.51" y="-350.68" font-family="Times,serif" font-size="14.00">Piettro Silva</text>
<text text-anchor="middle" x="473.51" y="-335.68" font-family="Times,serif" font-size="14.00">969402866</text>
<text text-anchor="middle" x="473.51" y="-320.68" font-family="Times,serif" font-size="14.00">fb=1</text>
</g>
<!-- No_968732973&#45;&gt;No_969402866 -->
<g id="edge11" class="edge">
<title>No_968732973&#45;&gt;No_969402866</title>
<path fill="none" stroke="black" d="M473.51,-412.75C473.51,-404.58 473.51,-395.8 473.51,-387.27"/>
<polygon fill="black" stroke="black" points="477.01,-387.06 473.51,-377.06 470.01,-387.06 477.01,-387.06"/>
</g>
<!-- No_952776904 -->
<g id="node4" class="node">
<title>No_952776904</title>
<ellipse fill="none" stroke="black" cx="90.51" cy="-228.43" rx="90.52" ry="37.45"/>
<text text-anchor="middle" x="90.51" y="-239.73" font-family="Times,serif" font-size="14.00">Piettro Campos</text>
<text text-anchor="middle" x="90.51" y="-224.73" font-family="Times,serif" font-size="14.00">952776904</text>
<text text-anchor="middle" x="90.51" y="-209.73" font-family="Times,serif" font-size="14.00">fb=0</text>
</g>
<!-- No_961887919&#45;&gt;No_952776904 -->
<g id="edge3" class="edge">
<title>No_961887919&#45;&gt;No_952776904</title>
<path fill="none" stroke="black" d="M237.52,-310.33C211.78,-296.16 180.34,-278.86 153.14,-263.89"/>
<polygon fill="black" stroke="black" points="154.54,-260.67 144.1,-258.92 151.17,-266.8 154.54,-260.67"/>
</g>
<!-- No_964697918 -->
<g id="node7" class="node">
<title>No_964697918</title>
<ellipse fill="none" stroke="black" cx="288.51" cy="-228.43" rx="89.61" ry="37.45"/>
<text text-anchor="middle" x="288.51" y="-239.73" font-family="Times,serif" font-size="14.00">Piettro Martins</text>
<text text-anchor="middle" x="288.51" y="-224.73" font-family="Times,serif" font-size="14.00">964697918</text>
<text text-anchor="middle" x="288.51" y="-209.73" font-family="Times,serif" font-size="14.00">fb=1</text>
</g>
<!-- No_961887919&#45;&gt;No_964697918 -->
<g id="edge6" class="edge">
<title>No_961887919&#45;&gt;No_964697918</title>
<path fill="none" stroke="black" d="M288.51,-301.8C288.51,-293.63 288.51,-284.85 288.51,-276.32"/>
<polygon fill="black" stroke="black" points="292.01,-276.1 288.51,-266.1 285.01,-276.1 292.01,-276.1"/>
</g>
<!-- NUL_0 -->
<g id="node5" class="node">
<title>NUL_0</title>
<polygon fill="none" stroke="black" points="81.51,-139.48 37.51,-139.48 37.51,-95.48 81.51,-95.48 81.51,-139.48"/>
<text text-anchor="middle" x="59.51" y="-113.78" font-family="Times,serif" font-size="14.00">null</text>
</g>
<!-- No_952776904&#45;&gt;NUL_0 -->
<g id="edge4" class="edge">
<title>No_952776904&#45;&gt;NUL_0</title>
<path fill="none" stroke="black" d="M80.19,-191.15C76.35,-177.67 72.04,-162.51 68.35,-149.53"/>
<polygon fill="black" stroke="black" points="71.64,-148.33 65.54,-139.67 64.91,-150.25 71.64,-148.33"/>
</g>
<!-- NUL_1 -->
<g id="node6" class="node">
<title>NUL_1</title>
<polygon fill="none" stroke="black" points="143.51,-139.48 99.51,-139.48 99.51,-95.48 143.51,-95.48 143.51,-139.48"/>
<text text-anchor="middle" x="121.51" y="-113.78" font-family="Times,serif" font-size="14.00">null</text>
</g>
<!-- No_952776904&#45;&gt;NUL_1 -->
<g id="edge5" class="edge">
<title>No_952776904&#45;&gt;NUL_1</title>
<path fill="none" stroke="black" d="M100.83,-191.15C104.67,-177.67 108.98,-162.51 112.67,-149.53"/>
<polygon fill="black" stroke="black" points="116.11,-150.25 115.48,-139.67 109.38,-148.33 116.11,-150.25"/>
</g>
<!-- NUL_2 -->
<g id="node8" class="node">
<title>NUL_2</title>
<polygon fill="none" stroke="black" points="286.51,-139.48 242.51,-139.48 242.51,-95.48 286.51,-95.48 286.51,-139.48"/>
<text text-anchor="middle" x="264.51" y="-113.78" font-family="Times,serif" font-size="14.00">null</text>
</g>
<!-- No_964697918&#45;&gt;NUL_2 -->
<g id="edge7" class="edge">
<title>No_964697918&#45;&gt;NUL_2</title>
<path fill="none" stroke="black" d="M280.45,-190.85C277.49,-177.38 274.16,-162.28 271.31,-149.37"/>
<polygon fill="black" stroke="black" points="274.72,-148.57 269.15,-139.55 267.89,-150.07 274.72,-148.57"/>
</g>
<!-- No_964769992 -->
<g id="node9" class="node">
<title>No_964769992</title>
<ellipse fill="none" stroke="black" cx="381.51" cy="-117.48" rx="77.15" ry="37.45"/>
<text text-anchor="middle" x="381.51" y="-128.78" font-family="Times,serif" font-size="14.00">Piettro Alves</text>
<text text-anchor="middle" x="381.51" y="-113.78" font-family="Times,serif" font-size="14.00">964769992</text>
<text text-anchor="middle" x="381.51" y="-98.78" font-family="Times,serif" font-size="14.00">fb=0</text>
</g>
<!-- No_964697918&#45;&gt;No_964769992 -->
<g id="edge8" class="edge">
<title>No_964697918&#45;&gt;No_964769992</title>
<path fill="none" stroke="black" d="M317.94,-192.96C326.84,-182.52 336.72,-170.95 345.98,-160.1"/>
<polygon fill="black" stroke="black" points="348.76,-162.23 352.59,-152.35 343.44,-157.69 348.76,-162.23"/>
</g>
<!-- NUL_3 -->
<g id="node10" class="node">
<title>NUL_3</title>
<polygon fill="none" stroke="black" points="372.51,-44 328.51,-44 328.51,0 372.51,0 372.51,-44"/>
<text text-anchor="middle" x="350.51" y="-18.3" font-family="Times,serif" font-size="14.00">null</text>
</g>
<!-- No_964769992&#45;&gt;NUL_3 -->
<g id="edge9" class="edge">
<title>No_964769992&#45;&gt;NUL_3</title>
<path fill="none" stroke="black" d="M369.52,-80.34C366.61,-71.55 363.52,-62.23 360.7,-53.72"/>
<polygon fill="black" stroke="black" points="364,-52.57 357.53,-44.18 357.36,-54.77 364,-52.57"/>
</g>
<!-- NUL_4 -->
<g id="node11" class="node">
<title>NUL_4</title>
<polygon fill="none" stroke="black" points="434.51,-44 390.51,-44 390.51,0 434.51,0 434.51,-44"/>
<text text-anchor="middle" x="412.51" y="-18.3" font-family="Times,serif" font-size="14.00">null</text>
</g>
<!-- No_964769992&#45;&gt;NUL_4 -->
<g id="edge10" class="edge">
<title>No_964769992&#45;&gt;NUL_4</title>
<path fill="none" stroke="black" d="M393.5,-80.34C396.41,-71.55 399.5,-62.23 402.32,-53.72"/>
<polygon fill="black" stroke="black" points="405.66,-54.77 405.49,-44.18 399.02,-52.57 405.66,-54.77"/>
</g>
<!-- NUL_5 -->
<g id="node13" class="node">
<title>NUL_5</title>
<polygon fill="none" stroke="black" points="440.51,-250.43 396.51,-250.43 396.51,-206.43 440.51,-206.43 440.51,-250.43"/>
<text text-anchor="middle" x="418.51" y="-224.73" font-family="Times,serif" font-size="14.00">null</text>
</g>
<!-- No_969402866&#45;&gt;NUL_5 -->
<g id="edge12" class="edge">
<title>No_969402866&#45;&gt;NUL_5</title>
<path fill="none" stroke="black" d="M455.5,-302.71C448.49,-288.82 440.55,-273.08 433.82,-259.76"/>
<polygon fill="black" stroke="black" points="436.8,-257.9 429.17,-250.55 430.55,-261.05 436.8,-257.9"/>
</g>
<!-- No_970079238 -->
<g id="node14" class="node">
<title>No_970079238</title>
<ellipse fill="none" stroke="black" cx="549.51" cy="-228.43" rx="91.43" ry="37.45"/>
<text text-anchor="middle" x="549.51" y="-239.73" font-family="Times,serif" font-size="14.00">Pamella Pereira</text>
<text text-anchor="middle" x="549.51" y="-224.73" font-family="Times,serif" font-size="14.00">970079238</text>
<text text-anchor="middle" x="549.51" y="-209.73" font-family="Times,serif" font-size="14.00">fb=0</text>
</g>
<!-- No_969402866&#45;&gt;No_970079238 -->
<g id="edge13" class="edge">
<title>No_969402866&#45;&gt;No_970079238</title>
<path fill="none" stroke="black" d="M497.77,-303.61C504.55,-293.88 512.02,-283.18 519.11,-273.01"/>
<polygon fill="black" stroke="black" points="522.11,-274.82 524.96,-264.62 516.37,-270.82 522.11,-274.82"/>
</g>
<!-- NUL_6 -->
<g id="node15" class="node">
<title>NUL_6</title>
<polygon fill="none" stroke="black" points="533.51,-139.48 489.51,-139.48 489.51,-95.48 533.51,-95.48 533.51,-139.48"/>
<text text-anchor="middle" x="511.51" y="-113.78" font-family="Times,serif" font-size="14.00">null</text>
</g>
<!-- No_970079238&#45;&gt;NUL_6 -->
<g id="edge14" class="edge">
<title>No_970079238&#45;&gt;NUL_6</title>
<path fill="none" stroke="black" d="M536.86,-191.15C532.11,-177.54 526.76,-162.21 522.21,-149.15"/>
<polygon fill="black" stroke="black" points="525.5,-147.96 518.9,-139.67 518.89,-150.27 525.5,-147.96"/>
</g>
<!-- NUL_7 -->
<g id="node16" class="node">
<title>NUL_7</title>
<polygon fill="none" stroke="black" points="595.51,-139.48 551.51,-139.48 551.51,-95.48 595.51,-95.48 595.51,-139.48"/>
<text text-anchor="middle" x="573.51" y="-113.78" font-family="Times,serif" font-size="14.00">null</text>
</g>
<!-- No_970079238&#45;&gt;NUL_7 -->
<g id="edge15" class="edge">
<title>No_970079238&#45;&gt;NUL_7</title>
<path fill="none" stroke="black" d="M557.57,-190.85C560.53,-177.38 563.86,-162.28 566.71,-149.37"/>
<polygon fill="black" stroke="black" points="570.13,-150.07 568.87,-139.55 563.3,-148.57 570.13,-150.07"/>
</g>
<!-- No_983397522 -->
<g id="node18" class="node">
<title>No_983397522</title>
<ellipse fill="none" stroke="black" cx="745.51" cy="-339.38" rx="88.28" ry="37.45"/>
<text text-anchor="middle" x="745.51" y="-350.68" font-family="Times,serif" font-size="14.00">Pamella Barros</text>
<text text-anchor="middle" x="745.51" y="-335.68" font-family="Times,serif" font-size="14.00">983397522</text>
<text text-anchor="middle" x="745.51" y="-320.68" font-family="Times,serif" font-size="14.00">fb=1</text>
</g>
<!-- No_987885224&#45;&gt;No_983397522 -->
<g id="edge17" class="edge">
<title>No_987885224&#45;&gt;No_983397522</title>
<path fill="none" stroke="black" d="M745.51,-412.75C745.51,-404.58 745.51,-395.8 745.51,-387.27"/>
<polygon fill="black" stroke="black" points="749.01,-387.06 745.51,-377.06 742.01,-387.06 749.01,-387.06"/>
</g>
<!-- No_993697423 -->
<g id="node23" class="node">
<title>No_993697423</title>
<ellipse fill="none" stroke="black" cx="1026.51" cy="-339.38" rx="89.19" ry="37.45"/>
<text text-anchor="middle" x="1026.51" y="-350.68" font-family="Times,serif" font-size="14.00">Pamella Coelho</text>
<text text-anchor="middle" x="1026.51" y="-335.68" font-family="Times,serif" font-size="14.00">993697423</text>
<text text-anchor="middle" x="1026.51" y="-320.68" font-family="Times,serif" font-size="14.00">fb=1</text>
</g>
<!-- No_987885224&#45;&gt;No_993697423 -->
<g id="edge22" class="edge">
<title>No_987885224&#45;&gt;No_993697423</title>
<path fill="none" stroke="black" d="M810.68,-424.07C853.13,-407.61 908.59,-386.1 952.67,-369.01"/>
<polygon fill="black" stroke="black" points="954.12,-372.21 962.17,-365.33 951.59,-365.68 954.12,-372.21"/>
</g>
<!-- NUL_8 -->
<g id="node19" class="node">
<title>NUL_8</title>
<polygon fill="none" stroke="black" points="702.51,-250.43 658.51,-250.43 658.51,-206.43 702.51,-206.43 702.51,-250.43"/>
<text text-anchor="middle" x="680.51" y="-224.73" font-family="Times,serif" font-size="14.00">null</text>
</g>
<!-- No_983397522&#45;&gt;NUL_8 -->
<g id="edge18" class="edge">
<title>No_983397522&#45;&gt;NUL_8</title>
<path fill="none" stroke="black" d="M724.23,-302.71C715.86,-288.69 706.37,-272.78 698.37,-259.37"/>
<polygon fill="black" stroke="black" points="701.24,-257.34 693.11,-250.55 695.23,-260.93 701.24,-257.34"/>
</g>
<!-- No_985611444 -->
<g id="node20" class="node">
<title>No_985611444</title>
<ellipse fill="none" stroke="black" cx="811.51" cy="-228.43" rx="91.43" ry="37.45"/>
<text text-anchor="middle" x="811.51" y="-239.73" font-family="Times,serif" font-size="14.00">Piettro Barbosa</text>
<text text-anchor="middle" x="811.51" y="-224.73" font-family="Times,serif" font-size="14.00">985611444</text>
<text text-anchor="middle" x="811.51" y="-209.73" font-family="Times,serif" font-size="14.00">fb=0</text>
</g>
<!-- No_983397522&#45;&gt;No_985611444 -->
<g id="edge19" class="edge">
<title>No_983397522&#45;&gt;No_985611444</title>
<path fill="none" stroke="black" d="M766.94,-303.01C772.59,-293.68 778.75,-283.51 784.65,-273.77"/>
<polygon fill="black" stroke="black" points="787.78,-275.37 789.96,-265 781.79,-271.74 787.78,-275.37"/>
</g>
<!-- NUL_9 -->
<g id="node21" class="node">
<title>NUL_9</title>
<polygon fill="none" stroke="black" points="802.51,-139.48 758.51,-139.48 758.51,-95.48 802.51,-95.48 802.51,-139.48"/>
<text text-anchor="middle" x="780.51" y="-113.78" font-family="Times,serif" font-size="14.00">null</text>
</g>
<!-- No_985611444&#45;&gt;NUL_9 -->
<g id="edge20" class="edge">
<title>No_985611444&#45;&gt;NUL_9</title>
<path fill="none" stroke="black" d="M801.19,-191.15C797.35,-177.67 793.04,-162.51 789.35,-149.53"/>
<polygon fill="black" stroke="black" points="792.64,-148.33 786.54,-139.67 785.91,-150.25 792.64,-148.33"/>
</g>
<!-- NUL_10 -->
<g id="node22" class="node">
<title>NUL_10</title>
<polygon fill="none" stroke="black" points="864.51,-139.48 820.51,-139.48 820.51,-95.48 864.51,-95.48 864.51,-139.48"/>
<text text-anchor="middle" x="842.51" y="-113.78" font-family="Times,serif" font-size="14.00">null</text>
</g>
<!-- No_985611444&#45;&gt;NUL_10 -->
<g id="edge21" class="edge">
<title>No_985611444&#45;&gt;NUL_10</title>
<path fill="none" stroke="black" d="M821.83,-191.15C825.67,-177.67 829.98,-162.51 833.67,-149.53"/>
<polygon fill="black" stroke="black" points="837.11,-150.25 836.48,-139.67 830.38,-148.33 837.11,-150.25"/>
</g>
<!-- No_992195761 -->
<g id="node24" class="node">
<title>No_992195761</title>
<ellipse fill="none" stroke="black" cx="1026.51" cy="-228.43" rx="106.13" ry="37.45"/>
<text text-anchor="middle" x="1026.51" y="-239.73" font-family="Times,serif" font-size="14.00">Pamella Rodrigues</text>
<text text-anchor="middle" x="1026.51" y="-224.73" font-family="Times,serif" font-size="14.00">992195761</text>
<text text-anchor="middle" x="1026.51" y="-209.73" font-family="Times,serif" font-size="14.00">fb=0</text>
</g>
<!-- No_993697423&#45;&gt;No_992195761 -->
<g id="edge23" class="edge">
<title>No_993697423&#45;&gt;No_992195761</title>
<path fill="none" stroke="black" d="M1026.51,-301.8C1026.51,-293.63 1026.51,-284.85 1026.51,-276.32"/>
<polygon fill="black" stroke="black" points="1030.01,-276.1 1026.51,-266.1 1023.01,-276.1 1030.01,-276.1"/>
</g>
<!-- No_996177799 -->
<g id="node27" class="node">
<title>No_996177799</title>
<ellipse fill="none" stroke="black" cx="1245.51" cy="-228.43" rx="94.51" ry="37.45"/>
<text text-anchor="middle" x="1245.51" y="-239.73" font-family="Times,serif" font-size="14.00">Patrícia Barbosa</text>
<text text-anchor="middle" x="1245.51" y="-224.73" font-family="Times,serif" font-size="14.00">996177799</text>
<text text-anchor="middle" x="1245.51" y="-209.73" font-family="Times,serif" font-size="14.00">fb=1</text>
</g>
<!-- No_993697423&#45;&gt;No_996177799 -->
<g id="edge26" class="edge">
<title>No_993697423&#45;&gt;No_996177799</title>
<path fill="none" stroke="black" d="M1082.91,-310.33C1112.08,-295.81 1147.89,-278 1178.47,-262.78"/>
<polygon fill="black" stroke="black" points="1180.38,-265.74 1187.78,-258.15 1177.27,-259.47 1180.38,-265.74"/>
</g>
<!-- NUL_11 -->
<g id="node25" class="node">
<title>NUL_11</title>
<polygon fill="none" stroke="black" points="1017.51,-139.48 973.51,-139.48 973.51,-95.48 1017.51,-95.48 1017.51,-139.48"/>
<text text-anchor="middle" x="995.51" y="-113.78" font-family="Times,serif" font-size="14.00">null</text>
</g>
<!-- No_992195761&#45;&gt;NUL_11 -->
<g id="edge24" class="edge">
<title>No_992195761&#45;&gt;NUL_11</title>
<path fill="none" stroke="black" d="M1016.1,-190.85C1012.27,-177.38 1007.97,-162.28 1004.3,-149.37"/>
<polygon fill="black" stroke="black" points="1007.61,-148.21 1001.51,-139.55 1000.88,-150.13 1007.61,-148.21"/>
</g>
<!-- NUL_12 -->
<g id="node26" class="node">
<title>NUL_12</title>
<polygon fill="none" stroke="black" points="1079.51,-139.48 1035.51,-139.48 1035.51,-95.48 1079.51,-95.48 1079.51,-139.48"/>
<text text-anchor="middle" x="1057.51" y="-113.78" font-family="Times,serif" font-size="14.00">null</text>
</g>
<!-- No_992195761&#45;&gt;NUL_12 -->
<g id="edge25" class="edge">
<title>No_992195761&#45;&gt;NUL_12</title>
<path fill="none" stroke="black" d="M1036.92,-190.85C1040.75,-177.38 1045.05,-162.28 1048.72,-149.37"/>
<polygon fill="black" stroke="black" points="1052.14,-150.13 1051.51,-139.55 1045.41,-148.21 1052.14,-150.13"/>
</g>
<!-- NUL_13 -->
<g id="node28" class="node">
<title>NUL_13</title>
<polygon fill="none" stroke="black" points="1205.51,-139.48 1161.51,-139.48 1161.51,-95.48 1205.51,-95.48 1205.51,-139.48"/>
<text text-anchor="middle" x="1183.51" y="-113.78" font-family="Times,serif" font-size="14.00">null</text>
</g>
<!-- No_996177799&#45;&gt;NUL_13 -->
<g id="edge27" class="edge">
<title>No_996177799&#45;&gt;NUL_13</title>
<path fill="none" stroke="black" d="M1225.21,-191.75C1217.23,-177.74 1208.18,-161.83 1200.55,-148.42"/>
<polygon fill="black" stroke="black" points="1203.51,-146.55 1195.53,-139.59 1197.43,-150.02 1203.51,-146.55"/>
</g>
<!-- No_998647415 -->
<g id="node29" class="node">
<title>No_998647415</title>
<ellipse fill="none" stroke="black" cx="1307.51" cy="-117.48" rx="84.29" ry="37.45"/>
<text text-anchor="middle" x="1307.51" y="-128.78" font-family="Times,serif" font-size="14.00">Piettro Santos</text>
<text text-anchor="middle" x="1307.51" y="-113.78" font-family="Times,serif" font-size="14.00">998647415</text>
<text text-anchor="middle" x="1307.51" y="-98.78" font-family="Times,serif" font-size="14.00">fb=0</text>
</g>
<!-- No_996177799&#45;&gt;No_998647415 -->
<g id="edge28" class="edge">
<title>No_996177799&#45;&gt;No_998647415</title>
<path fill="none" stroke="black" d="M1265.81,-191.75C1271,-182.63 1276.65,-172.7 1282.07,-163.19"/>
<polygon fill="black" stroke="black" points="1285.26,-164.65 1287.16,-154.23 1279.18,-161.19 1285.26,-164.65"/>
</g>
<!-- NUL_14 -->
<g id="node30" class="node">
<title>NUL_14</title>
<polygon fill="none" stroke="black" points="1298.51,-44 1254.51,-44 1254.51,0 1298.51,0 1298.51,-44"/>
<text text-anchor="middle" x="1276.51" y="-18.3" font-family="Times,serif" font-size="14.00">null</text>
</g>
<!-- No_998647415&#45;&gt;NUL_14 -->
<g id="edge29" class="edge">
<title>No_998647415&#45;&gt;NUL_14</title>
<path fill="none" stroke="black" d="M1295.52,-80.34C1292.61,-71.55 1289.52,-62.23 1286.7,-53.72"/>
<polygon fill="black" stroke="black" points="1290,-52.57 1283.53,-44.18 1283.36,-54.77 1290,-52.57"/>
</g>
<!-- NUL_15 -->
<g id="node31" class="node">
<title>NUL_15</title>
<polygon fill="none" stroke="black" points="1360.51,-44 1316.51,-44 1316.51,0 1360.51,0 1360.51,-44"/>
<text text-anchor="middle" x="1338.51" y="-18.3" font-family="Times,serif" font-size="14.00">null</text>
</g>
<!-- No_998647415&#45;&gt;NUL_15 -->
<g id="edge30" class="edge">
<title>No_998647415&#45;&gt;NUL_15</title>
<path fill="none" stroke="black" d="M1319.5,-80.34C1322.41,-71.55 1325.5,-62.23 1328.32,-53.72"/>
<polygon fill="black" stroke="black" points="1331.66,-54.77 1331.49,-44.18 1325.02,-52.57 1331.66,-54.77"/>
</g>
</g>
</svg>
