<?xml version="1.0" encoding="UTF-8" standalone="no"?>
<!DOCTYPE svg PUBLIC "-//W3C//DTD SVG 1.1//EN"
 "http://www.w3.org/Graphics/SVG/1.1/DTD/svg11.dtd">
<!-- Generated by graphviz version 2.43.0 (0)
 -->
<!-- Title: BST Pages: 1 -->
<svg width="1756pt" height="374pt"
 viewBox="0.00 0.00 1755.93 374.39" xmlns="http://www.w3.org/2000/svg" xmlns:xlink="http://www.w3.org/1999/xlink">
<g id="graph0" class="graph" transform="scale(1 1) rotate(0) translate(4 370.39)">
<title>BST</title>
<polygon fill="white" stroke="transparent" points="-4,4 -4,-370.39 1751.93,-370.39 1751.93,4 -4,4"/>
<!-- Alexandre Costa,982632579 [fb:1] -->
<g id="node1" class="node">
<title>Alexandre Costa,982632579 [fb:1]</title>
<ellipse fill="none" stroke="black" cx="824.34" cy="-348.39" rx="170.07" ry="18"/>
<text text-anchor="middle" x="824.34" y="-344.69" font-family="Times,serif" font-size="14.00">Alexandre Costa,982632579 [fb:1]</text>
</g>
<!-- Alexandre Freitas,964642705 [fb:0] -->
<g id="node2" class="node">
<title>Alexandre Freitas,964642705 [fb:0]</title>
<ellipse fill="none" stroke="black" cx="521.34" cy="-276.39" rx="176.57" ry="18"/>
<text text-anchor="middle" x="521.34" y="-272.69" font-family="Times,serif" font-size="14.00">Alexandre Freitas,964642705 [fb:0]</text>
</g>
<!-- Alexandre Costa,982632579 [fb:1]&#45;&gt;Alexandre Freitas,964642705 [fb:0] -->
<g id="edge1" class="edge">
<title>Alexandre Costa,982632579 [fb:1]&#45;&gt;Alexandre Freitas,964642705 [fb:0]</title>
<path fill="none" stroke="black" d="M756.71,-331.77C709.96,-320.97 647.65,-306.57 598.89,-295.31"/>
<polygon fill="black" stroke="black" points="599.54,-291.87 589.01,-293.02 597.97,-298.69 599.54,-291.87"/>
</g>
<!-- Alexandre Barbosa,992883178 [fb:0] -->
<g id="node9" class="node">
<title>Alexandre Barbosa,992883178 [fb:0]</title>
<ellipse fill="none" stroke="black" cx="1013.34" cy="-276.39" rx="181.97" ry="18"/>
<text text-anchor="middle" x="1013.34" y="-272.69" font-family="Times,serif" font-size="14.00">Alexandre Barbosa,992883178 [fb:0]</text>
</g>
<!-- Alexandre Costa,982632579 [fb:1]&#45;&gt;Alexandre Barbosa,992883178 [fb:0] -->
<g id="edge8" class="edge">
<title>Alexandre Costa,982632579 [fb:1]&#45;&gt;Alexandre Barbosa,992883178 [fb:0]</title>
<path fill="none" stroke="black" d="M868.65,-330.98C895.7,-320.96 930.49,-308.07 959.17,-297.45"/>
<polygon fill="black" stroke="black" points="960.48,-300.7 968.65,-293.94 958.05,-294.13 960.48,-300.7"/>
</g>
<!-- Alberto Campos,960933788 [fb:0] -->
<g id="node3" class="node">
<title>Alberto Campos,960933788 [fb:0]</title>
<ellipse fill="none" stroke="black" cx="168.34" cy="-204.39" rx="168.17" ry="18"/>
<text text-anchor="middle" x="168.34" y="-200.69" font-family="Times,serif" font-size="14.00">Alberto Campos,960933788 [fb:0]</text>
</g>
<!-- Alexandre Freitas,964642705 [fb:0]&#45;&gt;Alberto Campos,960933788 [fb:0] -->
<g id="edge2" class="edge">
<title>Alexandre Freitas,964642705 [fb:0]&#45;&gt;Alberto Campos,960933788 [fb:0]</title>
<path fill="none" stroke="black" d="M444.3,-260.11C388.31,-249.01 312.48,-233.97 254.47,-222.47"/>
<polygon fill="black" stroke="black" points="255.08,-219.02 244.59,-220.51 253.72,-225.89 255.08,-219.02"/>
</g>
<!-- Alfredo Martins,967387182 [fb:0] -->
<g id="node6" class="node">
<title>Alfredo Martins,967387182 [fb:0]</title>
<ellipse fill="none" stroke="black" cx="521.34" cy="-204.39" rx="167.07" ry="18"/>
<text text-anchor="middle" x="521.34" y="-200.69" font-family="Times,serif" font-size="14.00">Alfredo Martins,967387182 [fb:0]</text>
</g>
<!-- Alexandre Freitas,964642705 [fb:0]&#45;&gt;Alfredo Martins,967387182 [fb:0] -->
<g id="edge5" class="edge">
<title>Alexandre Freitas,964642705 [fb:0]&#45;&gt;Alfredo Martins,967387182 [fb:0]</title>
<path fill="none" stroke="black" d="M521.34,-258.09C521.34,-250.37 521.34,-241.1 521.34,-232.5"/>
<polygon fill="black" stroke="black" points="524.84,-232.49 521.34,-222.49 517.84,-232.49 524.84,-232.49"/>
</g>
<!-- N0 -->
<g id="node4" class="node">
<title>N0</title>
<ellipse fill="none" stroke="black" cx="131.34" cy="-121.79" rx="28.7" ry="28.7"/>
<text text-anchor="middle" x="131.34" y="-118.09" font-family="Times,serif" font-size="14.00">null</text>
</g>
<!-- Alberto Campos,960933788 [fb:0]&#45;&gt;N0 -->
<g id="edge3" class="edge">
<title>Alberto Campos,960933788 [fb:0]&#45;&gt;N0</title>
<path fill="none" stroke="black" d="M160.49,-186.3C156.63,-177.89 151.83,-167.45 147.25,-157.47"/>
<polygon fill="black" stroke="black" points="150.32,-155.76 142.97,-148.13 143.96,-158.68 150.32,-155.76"/>
</g>
<!-- N1 -->
<g id="node5" class="node">
<title>N1</title>
<ellipse fill="none" stroke="black" cx="206.34" cy="-121.79" rx="28.7" ry="28.7"/>
<text text-anchor="middle" x="206.34" y="-118.09" font-family="Times,serif" font-size="14.00">null</text>
</g>
<!-- Alberto Campos,960933788 [fb:0]&#45;&gt;N1 -->
<g id="edge4" class="edge">
<title>Alberto Campos,960933788 [fb:0]&#45;&gt;N1</title>
<path fill="none" stroke="black" d="M176.39,-186.3C180.36,-177.89 185.28,-167.45 189.99,-157.47"/>
<polygon fill="black" stroke="black" points="193.29,-158.67 194.39,-148.13 186.96,-155.68 193.29,-158.67"/>
</g>
<!-- N2 -->
<g id="node7" class="node">
<title>N2</title>
<ellipse fill="none" stroke="black" cx="446.34" cy="-121.79" rx="28.7" ry="28.7"/>
<text text-anchor="middle" x="446.34" y="-118.09" font-family="Times,serif" font-size="14.00">null</text>
</g>
<!-- Alfredo Martins,967387182 [fb:0]&#45;&gt;N2 -->
<g id="edge6" class="edge">
<title>Alfredo Martins,967387182 [fb:0]&#45;&gt;N2</title>
<path fill="none" stroke="black" d="M505.43,-186.3C495.84,-175.99 483.38,-162.6 472.38,-150.78"/>
<polygon fill="black" stroke="black" points="474.78,-148.22 465.41,-143.29 469.66,-152.99 474.78,-148.22"/>
</g>
<!-- N3 -->
<g id="node8" class="node">
<title>N3</title>
<ellipse fill="none" stroke="black" cx="521.34" cy="-121.79" rx="28.7" ry="28.7"/>
<text text-anchor="middle" x="521.34" y="-118.09" font-family="Times,serif" font-size="14.00">null</text>
</g>
<!-- Alfredo Martins,967387182 [fb:0]&#45;&gt;N3 -->
<g id="edge7" class="edge">
<title>Alfredo Martins,967387182 [fb:0]&#45;&gt;N3</title>
<path fill="none" stroke="black" d="M521.34,-186.3C521.34,-178.86 521.34,-169.82 521.34,-160.92"/>
<polygon fill="black" stroke="black" points="524.84,-160.64 521.34,-150.64 517.84,-160.64 524.84,-160.64"/>
</g>
<!-- Alexandre Machado,987340734 [fb:0] -->
<g id="node10" class="node">
<title>Alexandre Machado,987340734 [fb:0]</title>
<ellipse fill="none" stroke="black" cx="1013.34" cy="-204.39" rx="185.77" ry="18"/>
<text text-anchor="middle" x="1013.34" y="-200.69" font-family="Times,serif" font-size="14.00">Alexandre Machado,987340734 [fb:0]</text>
</g>
<!-- Alexandre Barbosa,992883178 [fb:0]&#45;&gt;Alexandre Machado,987340734 [fb:0] -->
<g id="edge9" class="edge">
<title>Alexandre Barbosa,992883178 [fb:0]&#45;&gt;Alexandre Machado,987340734 [fb:0]</title>
<path fill="none" stroke="black" d="M1013.34,-258.09C1013.34,-250.37 1013.34,-241.1 1013.34,-232.5"/>
<polygon fill="black" stroke="black" points="1016.84,-232.49 1013.34,-222.49 1009.84,-232.49 1016.84,-232.49"/>
</g>
<!-- Ana Farias,996598918 [fb:&#45;1] -->
<g id="node17" class="node">
<title>Ana Farias,996598918 [fb:&#45;1]</title>
<ellipse fill="none" stroke="black" cx="1498.34" cy="-204.39" rx="146.47" ry="18"/>
<text text-anchor="middle" x="1498.34" y="-200.69" font-family="Times,serif" font-size="14.00">Ana Farias,996598918 [fb:&#45;1]</text>
</g>
<!-- Alexandre Barbosa,992883178 [fb:0]&#45;&gt;Ana Farias,996598918 [fb:&#45;1] -->
<g id="edge16" class="edge">
<title>Alexandre Barbosa,992883178 [fb:0]&#45;&gt;Ana Farias,996598918 [fb:&#45;1]</title>
<path fill="none" stroke="black" d="M1111.48,-261.22C1194.6,-249.23 1313.3,-232.1 1397.24,-219.98"/>
<polygon fill="black" stroke="black" points="1397.9,-223.42 1407.3,-218.53 1396.9,-216.49 1397.9,-223.42"/>
</g>
<!-- Américo Rodrigues,986979432 [fb:0] -->
<g id="node11" class="node">
<title>Américo Rodrigues,986979432 [fb:0]</title>
<ellipse fill="none" stroke="black" cx="750.34" cy="-121.79" rx="182.77" ry="18"/>
<text text-anchor="middle" x="750.34" y="-118.09" font-family="Times,serif" font-size="14.00">Américo Rodrigues,986979432 [fb:0]</text>
</g>
<!-- Alexandre Machado,987340734 [fb:0]&#45;&gt;Américo Rodrigues,986979432 [fb:0] -->
<g id="edge10" class="edge">
<title>Alexandre Machado,987340734 [fb:0]&#45;&gt;Américo Rodrigues,986979432 [fb:0]</title>
<path fill="none" stroke="black" d="M960.11,-187.08C917.6,-174.05 857.93,-155.77 813.1,-142.03"/>
<polygon fill="black" stroke="black" points="814.06,-138.66 803.48,-139.08 812.01,-145.35 814.06,-138.66"/>
</g>
<!-- Alexandre Pereira,987671978 [fb:0] -->
<g id="node14" class="node">
<title>Alexandre Pereira,987671978 [fb:0]</title>
<ellipse fill="none" stroke="black" cx="1128.34" cy="-121.79" rx="177.37" ry="18"/>
<text text-anchor="middle" x="1128.34" y="-118.09" font-family="Times,serif" font-size="14.00">Alexandre Pereira,987671978 [fb:0]</text>
</g>
<!-- Alexandre Machado,987340734 [fb:0]&#45;&gt;Alexandre Pereira,987671978 [fb:0] -->
<g id="edge13" class="edge">
<title>Alexandre Machado,987340734 [fb:0]&#45;&gt;Alexandre Pereira,987671978 [fb:0]</title>
<path fill="none" stroke="black" d="M1037.44,-186.49C1054.46,-174.57 1077.46,-158.45 1096.06,-145.41"/>
<polygon fill="black" stroke="black" points="1098.08,-148.27 1104.26,-139.67 1094.06,-142.54 1098.08,-148.27"/>
</g>
<!-- N4 -->
<g id="node12" class="node">
<title>N4</title>
<ellipse fill="none" stroke="black" cx="713.34" cy="-28.6" rx="28.7" ry="28.7"/>
<text text-anchor="middle" x="713.34" y="-24.9" font-family="Times,serif" font-size="14.00">null</text>
</g>
<!-- Américo Rodrigues,986979432 [fb:0]&#45;&gt;N4 -->
<g id="edge11" class="edge">
<title>Américo Rodrigues,986979432 [fb:0]&#45;&gt;N4</title>
<path fill="none" stroke="black" d="M743.38,-103.64C738.93,-92.68 733,-78.07 727.59,-64.72"/>
<polygon fill="black" stroke="black" points="730.76,-63.25 723.76,-55.3 724.28,-65.88 730.76,-63.25"/>
</g>
<!-- N5 -->
<g id="node13" class="node">
<title>N5</title>
<ellipse fill="none" stroke="black" cx="788.34" cy="-28.6" rx="28.7" ry="28.7"/>
<text text-anchor="middle" x="788.34" y="-24.9" font-family="Times,serif" font-size="14.00">null</text>
</g>
<!-- Américo Rodrigues,986979432 [fb:0]&#45;&gt;N5 -->
<g id="edge12" class="edge">
<title>Américo Rodrigues,986979432 [fb:0]&#45;&gt;N5</title>
<path fill="none" stroke="black" d="M757.48,-103.64C762.05,-92.68 768.14,-78.07 773.7,-64.72"/>
<polygon fill="black" stroke="black" points="777.01,-65.87 777.63,-55.3 770.55,-63.18 777.01,-65.87"/>
</g>
<!-- N6 -->
<g id="node15" class="node">
<title>N6</title>
<ellipse fill="none" stroke="black" cx="1090.34" cy="-28.6" rx="28.7" ry="28.7"/>
<text text-anchor="middle" x="1090.34" y="-24.9" font-family="Times,serif" font-size="14.00">null</text>
</g>
<!-- Alexandre Pereira,987671978 [fb:0]&#45;&gt;N6 -->
<g id="edge14" class="edge">
<title>Alexandre Pereira,987671978 [fb:0]&#45;&gt;N6</title>
<path fill="none" stroke="black" d="M1121.19,-103.64C1116.62,-92.68 1110.53,-78.07 1104.97,-64.72"/>
<polygon fill="black" stroke="black" points="1108.12,-63.18 1101.04,-55.3 1101.66,-65.87 1108.12,-63.18"/>
</g>
<!-- N7 -->
<g id="node16" class="node">
<title>N7</title>
<ellipse fill="none" stroke="black" cx="1165.34" cy="-28.6" rx="28.7" ry="28.7"/>
<text text-anchor="middle" x="1165.34" y="-24.9" font-family="Times,serif" font-size="14.00">null</text>
</g>
<!-- Alexandre Pereira,987671978 [fb:0]&#45;&gt;N7 -->
<g id="edge15" class="edge">
<title>Alexandre Pereira,987671978 [fb:0]&#45;&gt;N7</title>
<path fill="none" stroke="black" d="M1135.29,-103.64C1139.74,-92.68 1145.67,-78.07 1151.08,-64.72"/>
<polygon fill="black" stroke="black" points="1154.39,-65.88 1154.91,-55.3 1147.91,-63.25 1154.39,-65.88"/>
</g>
<!-- Alexandra Moura,994116870 [fb:0] -->
<g id="node18" class="node">
<title>Alexandra Moura,994116870 [fb:0]</title>
<ellipse fill="none" stroke="black" cx="1498.34" cy="-121.79" rx="174.37" ry="18"/>
<text text-anchor="middle" x="1498.34" y="-118.09" font-family="Times,serif" font-size="14.00">Alexandra Moura,994116870 [fb:0]</text>
</g>
<!-- Ana Farias,996598918 [fb:&#45;1]&#45;&gt;Alexandra Moura,994116870 [fb:0] -->
<g id="edge17" class="edge">
<title>Ana Farias,996598918 [fb:&#45;1]&#45;&gt;Alexandra Moura,994116870 [fb:0]</title>
<path fill="none" stroke="black" d="M1498.34,-186.3C1498.34,-175.72 1498.34,-161.9 1498.34,-149.86"/>
<polygon fill="black" stroke="black" points="1501.84,-149.86 1498.34,-139.86 1494.84,-149.86 1501.84,-149.86"/>
</g>
<!-- N10 -->
<g id="node21" class="node">
<title>N10</title>
<ellipse fill="none" stroke="black" cx="1719.34" cy="-121.79" rx="28.7" ry="28.7"/>
<text text-anchor="middle" x="1719.34" y="-118.09" font-family="Times,serif" font-size="14.00">null</text>
</g>
<!-- Ana Farias,996598918 [fb:&#45;1]&#45;&gt;N10 -->
<g id="edge20" class="edge">
<title>Ana Farias,996598918 [fb:&#45;1]&#45;&gt;N10</title>
<path fill="none" stroke="black" d="M1570.41,-188.63C1605.01,-180.04 1646.42,-167.47 1681.34,-150.39 1683.94,-149.11 1686.56,-147.66 1689.14,-146.1"/>
<polygon fill="black" stroke="black" points="1691.22,-148.92 1697.65,-140.5 1687.37,-143.07 1691.22,-148.92"/>
</g>
<!-- N8 -->
<g id="node19" class="node">
<title>N8</title>
<ellipse fill="none" stroke="black" cx="1460.34" cy="-28.6" rx="28.7" ry="28.7"/>
<text text-anchor="middle" x="1460.34" y="-24.9" font-family="Times,serif" font-size="14.00">null</text>
</g>
<!-- Alexandra Moura,994116870 [fb:0]&#45;&gt;N8 -->
<g id="edge18" class="edge">
<title>Alexandra Moura,994116870 [fb:0]&#45;&gt;N8</title>
<path fill="none" stroke="black" d="M1491.19,-103.64C1486.62,-92.68 1480.53,-78.07 1474.97,-64.72"/>
<polygon fill="black" stroke="black" points="1478.12,-63.18 1471.04,-55.3 1471.66,-65.87 1478.12,-63.18"/>
</g>
<!-- N9 -->
<g id="node20" class="node">
<title>N9</title>
<ellipse fill="none" stroke="black" cx="1535.34" cy="-28.6" rx="28.7" ry="28.7"/>
<text text-anchor="middle" x="1535.34" y="-24.9" font-family="Times,serif" font-size="14.00">null</text>
</g>
<!-- Alexandra Moura,994116870 [fb:0]&#45;&gt;N9 -->
<g id="edge19" class="edge">
<title>Alexandra Moura,994116870 [fb:0]&#45;&gt;N9</title>
<path fill="none" stroke="black" d="M1505.29,-103.64C1509.74,-92.68 1515.67,-78.07 1521.08,-64.72"/>
<polygon fill="black" stroke="black" points="1524.39,-65.88 1524.91,-55.3 1517.91,-63.25 1524.39,-65.88"/>
</g>
</g>
</svg>
