<?xml version="1.0" encoding="UTF-8" standalone="no"?>
<!DOCTYPE svg PUBLIC "-//W3C//DTD SVG 1.1//EN"
 "http://www.w3.org/Graphics/SVG/1.1/DTD/svg11.dtd">
<!-- Generated by graphviz version 2.43.0 (0)
 -->
<!-- Title: BST Pages: 1 -->
<svg width="1885pt" height="374pt"
 viewBox="0.00 0.00 1885.08 374.39" xmlns="http://www.w3.org/2000/svg" xmlns:xlink="http://www.w3.org/1999/xlink">
<g id="graph0" class="graph" transform="scale(1 1) rotate(0) translate(4 370.39)">
<title>BST</title>
<polygon fill="white" stroke="transparent" points="-4,4 -4,-370.39 1881.08,-370.39 1881.08,4 -4,4"/>
<!-- Alexandre Costa,982632579 [fb:0] -->
<g id="node1" class="node">
<title>Alexandre Costa,982632579 [fb:0]</title>
<ellipse fill="none" stroke="black" cx="953.48" cy="-348.39" rx="170.07" ry="18"/>
<text text-anchor="middle" x="953.48" y="-344.69" font-family="Times,serif" font-size="14.00">Alexandre Costa,982632579 [fb:0]</text>
</g>
<!-- Alexandre Freitas,964642705 [fb:&#45;1] -->
<g id="node2" class="node">
<title>Alexandre Freitas,964642705 [fb:&#45;1]</title>
<ellipse fill="none" stroke="black" cx="650.48" cy="-276.39" rx="180.07" ry="18"/>
<text text-anchor="middle" x="650.48" y="-272.69" font-family="Times,serif" font-size="14.00">Alexandre Freitas,964642705 [fb:&#45;1]</text>
</g>
<!-- Alexandre Costa,982632579 [fb:0]&#45;&gt;Alexandre Freitas,964642705 [fb:&#45;1] -->
<g id="edge1" class="edge">
<title>Alexandre Costa,982632579 [fb:0]&#45;&gt;Alexandre Freitas,964642705 [fb:&#45;1]</title>
<path fill="none" stroke="black" d="M885.86,-331.77C839.19,-320.99 777.02,-306.62 728.29,-295.37"/>
<polygon fill="black" stroke="black" points="728.95,-291.93 718.42,-293.09 727.38,-298.75 728.95,-291.93"/>
</g>
<!-- Alexandre Barbosa,992883178 [fb:0] -->
<g id="node11" class="node">
<title>Alexandre Barbosa,992883178 [fb:0]</title>
<ellipse fill="none" stroke="black" cx="1144.48" cy="-276.39" rx="181.97" ry="18"/>
<text text-anchor="middle" x="1144.48" y="-272.69" font-family="Times,serif" font-size="14.00">Alexandre Barbosa,992883178 [fb:0]</text>
</g>
<!-- Alexandre Costa,982632579 [fb:0]&#45;&gt;Alexandre Barbosa,992883178 [fb:0] -->
<g id="edge10" class="edge">
<title>Alexandre Costa,982632579 [fb:0]&#45;&gt;Alexandre Barbosa,992883178 [fb:0]</title>
<path fill="none" stroke="black" d="M998.27,-330.98C1025.61,-320.96 1060.76,-308.07 1089.75,-297.45"/>
<polygon fill="black" stroke="black" points="1091.14,-300.67 1099.32,-293.94 1088.73,-294.1 1091.14,-300.67"/>
</g>
<!-- Alberto Campos,960933788 [fb:&#45;1] -->
<g id="node3" class="node">
<title>Alberto Campos,960933788 [fb:&#45;1]</title>
<ellipse fill="none" stroke="black" cx="294.48" cy="-204.39" rx="170.87" ry="18"/>
<text text-anchor="middle" x="294.48" y="-200.69" font-family="Times,serif" font-size="14.00">Alberto Campos,960933788 [fb:&#45;1]</text>
</g>
<!-- Alexandre Freitas,964642705 [fb:&#45;1]&#45;&gt;Alberto Campos,960933788 [fb:&#45;1] -->
<g id="edge2" class="edge">
<title>Alexandre Freitas,964642705 [fb:&#45;1]&#45;&gt;Alberto Campos,960933788 [fb:&#45;1]</title>
<path fill="none" stroke="black" d="M572.8,-260.11C516.33,-249.01 439.85,-233.97 381.36,-222.47"/>
<polygon fill="black" stroke="black" points="381.88,-219.01 371.39,-220.51 380.53,-225.88 381.88,-219.01"/>
</g>
<!-- Alfredo Martins,967387182 [fb:0] -->
<g id="node8" class="node">
<title>Alfredo Martins,967387182 [fb:0]</title>
<ellipse fill="none" stroke="black" cx="650.48" cy="-204.39" rx="167.07" ry="18"/>
<text text-anchor="middle" x="650.48" y="-200.69" font-family="Times,serif" font-size="14.00">Alfredo Martins,967387182 [fb:0]</text>
</g>
<!-- Alexandre Freitas,964642705 [fb:&#45;1]&#45;&gt;Alfredo Martins,967387182 [fb:0] -->
<g id="edge7" class="edge">
<title>Alexandre Freitas,964642705 [fb:&#45;1]&#45;&gt;Alfredo Martins,967387182 [fb:0]</title>
<path fill="none" stroke="black" d="M650.48,-258.09C650.48,-250.37 650.48,-241.1 650.48,-232.5"/>
<polygon fill="black" stroke="black" points="653.98,-232.49 650.48,-222.49 646.98,-232.49 653.98,-232.49"/>
</g>
<!-- Alexandre Santos,955838599 [fb:0] -->
<g id="node4" class="node">
<title>Alexandre Santos,955838599 [fb:0]</title>
<ellipse fill="none" stroke="black" cx="175.48" cy="-121.79" rx="175.47" ry="18"/>
<text text-anchor="middle" x="175.48" y="-118.09" font-family="Times,serif" font-size="14.00">Alexandre Santos,955838599 [fb:0]</text>
</g>
<!-- Alberto Campos,960933788 [fb:&#45;1]&#45;&gt;Alexandre Santos,955838599 [fb:0] -->
<g id="edge3" class="edge">
<title>Alberto Campos,960933788 [fb:&#45;1]&#45;&gt;Alexandre Santos,955838599 [fb:0]</title>
<path fill="none" stroke="black" d="M269.54,-186.49C251.93,-174.57 228.13,-158.45 208.88,-145.41"/>
<polygon fill="black" stroke="black" points="210.64,-142.38 200.4,-139.67 206.71,-148.17 210.64,-142.38"/>
</g>
<!-- N2 -->
<g id="node7" class="node">
<title>N2</title>
<ellipse fill="none" stroke="black" cx="397.48" cy="-121.79" rx="28.7" ry="28.7"/>
<text text-anchor="middle" x="397.48" y="-118.09" font-family="Times,serif" font-size="14.00">null</text>
</g>
<!-- Alberto Campos,960933788 [fb:&#45;1]&#45;&gt;N2 -->
<g id="edge6" class="edge">
<title>Alberto Campos,960933788 [fb:&#45;1]&#45;&gt;N2</title>
<path fill="none" stroke="black" d="M316.33,-186.3C331.11,-174.73 350.84,-159.29 367.15,-146.53"/>
<polygon fill="black" stroke="black" points="369.6,-149.06 375.32,-140.14 365.28,-143.54 369.6,-149.06"/>
</g>
<!-- N0 -->
<g id="node5" class="node">
<title>N0</title>
<ellipse fill="none" stroke="black" cx="138.48" cy="-28.6" rx="28.7" ry="28.7"/>
<text text-anchor="middle" x="138.48" y="-24.9" font-family="Times,serif" font-size="14.00">null</text>
</g>
<!-- Alexandre Santos,955838599 [fb:0]&#45;&gt;N0 -->
<g id="edge4" class="edge">
<title>Alexandre Santos,955838599 [fb:0]&#45;&gt;N0</title>
<path fill="none" stroke="black" d="M168.53,-103.64C164.08,-92.68 158.15,-78.07 152.73,-64.72"/>
<polygon fill="black" stroke="black" points="155.91,-63.25 148.91,-55.3 149.43,-65.88 155.91,-63.25"/>
</g>
<!-- N1 -->
<g id="node6" class="node">
<title>N1</title>
<ellipse fill="none" stroke="black" cx="213.48" cy="-28.6" rx="28.7" ry="28.7"/>
<text text-anchor="middle" x="213.48" y="-24.9" font-family="Times,serif" font-size="14.00">null</text>
</g>
<!-- Alexandre Santos,955838599 [fb:0]&#45;&gt;N1 -->
<g id="edge5" class="edge">
<title>Alexandre Santos,955838599 [fb:0]&#45;&gt;N1</title>
<path fill="none" stroke="black" d="M182.63,-103.64C187.2,-92.68 193.29,-78.07 198.85,-64.72"/>
<polygon fill="black" stroke="black" points="202.16,-65.87 202.78,-55.3 195.7,-63.18 202.16,-65.87"/>
</g>
<!-- N3 -->
<g id="node9" class="node">
<title>N3</title>
<ellipse fill="none" stroke="black" cx="575.48" cy="-121.79" rx="28.7" ry="28.7"/>
<text text-anchor="middle" x="575.48" y="-118.09" font-family="Times,serif" font-size="14.00">null</text>
</g>
<!-- Alfredo Martins,967387182 [fb:0]&#45;&gt;N3 -->
<g id="edge8" class="edge">
<title>Alfredo Martins,967387182 [fb:0]&#45;&gt;N3</title>
<path fill="none" stroke="black" d="M634.58,-186.3C624.98,-175.99 612.53,-162.6 601.53,-150.78"/>
<polygon fill="black" stroke="black" points="603.93,-148.22 594.56,-143.29 598.81,-152.99 603.93,-148.22"/>
</g>
<!-- N4 -->
<g id="node10" class="node">
<title>N4</title>
<ellipse fill="none" stroke="black" cx="650.48" cy="-121.79" rx="28.7" ry="28.7"/>
<text text-anchor="middle" x="650.48" y="-118.09" font-family="Times,serif" font-size="14.00">null</text>
</g>
<!-- Alfredo Martins,967387182 [fb:0]&#45;&gt;N4 -->
<g id="edge9" class="edge">
<title>Alfredo Martins,967387182 [fb:0]&#45;&gt;N4</title>
<path fill="none" stroke="black" d="M650.48,-186.3C650.48,-178.86 650.48,-169.82 650.48,-160.92"/>
<polygon fill="black" stroke="black" points="653.98,-160.64 650.48,-150.64 646.98,-160.64 653.98,-160.64"/>
</g>
<!-- Alexandre Machado,987340734 [fb:0] -->
<g id="node12" class="node">
<title>Alexandre Machado,987340734 [fb:0]</title>
<ellipse fill="none" stroke="black" cx="1144.48" cy="-204.39" rx="185.77" ry="18"/>
<text text-anchor="middle" x="1144.48" y="-200.69" font-family="Times,serif" font-size="14.00">Alexandre Machado,987340734 [fb:0]</text>
</g>
<!-- Alexandre Barbosa,992883178 [fb:0]&#45;&gt;Alexandre Machado,987340734 [fb:0] -->
<g id="edge11" class="edge">
<title>Alexandre Barbosa,992883178 [fb:0]&#45;&gt;Alexandre Machado,987340734 [fb:0]</title>
<path fill="none" stroke="black" d="M1144.48,-258.09C1144.48,-250.37 1144.48,-241.1 1144.48,-232.5"/>
<polygon fill="black" stroke="black" points="1147.98,-232.49 1144.48,-222.49 1140.98,-232.49 1147.98,-232.49"/>
</g>
<!-- Ana Farias,996598918 [fb:&#45;1] -->
<g id="node19" class="node">
<title>Ana Farias,996598918 [fb:&#45;1]</title>
<ellipse fill="none" stroke="black" cx="1627.48" cy="-204.39" rx="146.47" ry="18"/>
<text text-anchor="middle" x="1627.48" y="-200.69" font-family="Times,serif" font-size="14.00">Ana Farias,996598918 [fb:&#45;1]</text>
</g>
<!-- Alexandre Barbosa,992883178 [fb:0]&#45;&gt;Ana Farias,996598918 [fb:&#45;1] -->
<g id="edge18" class="edge">
<title>Alexandre Barbosa,992883178 [fb:0]&#45;&gt;Ana Farias,996598918 [fb:&#45;1]</title>
<path fill="none" stroke="black" d="M1242.52,-261.18C1325.19,-249.2 1443.04,-232.12 1526.53,-220.02"/>
<polygon fill="black" stroke="black" points="1527.14,-223.47 1536.53,-218.57 1526.14,-216.54 1527.14,-223.47"/>
</g>
<!-- Américo Rodrigues,986979432 [fb:0] -->
<g id="node13" class="node">
<title>Américo Rodrigues,986979432 [fb:0]</title>
<ellipse fill="none" stroke="black" cx="879.48" cy="-121.79" rx="182.77" ry="18"/>
<text text-anchor="middle" x="879.48" y="-118.09" font-family="Times,serif" font-size="14.00">Américo Rodrigues,986979432 [fb:0]</text>
</g>
<!-- Alexandre Machado,987340734 [fb:0]&#45;&gt;Américo Rodrigues,986979432 [fb:0] -->
<g id="edge12" class="edge">
<title>Alexandre Machado,987340734 [fb:0]&#45;&gt;Américo Rodrigues,986979432 [fb:0]</title>
<path fill="none" stroke="black" d="M1090.86,-187.08C1048.02,-174.05 987.9,-155.77 942.72,-142.03"/>
<polygon fill="black" stroke="black" points="943.62,-138.64 933.03,-139.08 941.58,-145.34 943.62,-138.64"/>
</g>
<!-- Alexandre Pereira,987671978 [fb:0] -->
<g id="node16" class="node">
<title>Alexandre Pereira,987671978 [fb:0]</title>
<ellipse fill="none" stroke="black" cx="1257.48" cy="-121.79" rx="177.37" ry="18"/>
<text text-anchor="middle" x="1257.48" y="-118.09" font-family="Times,serif" font-size="14.00">Alexandre Pereira,987671978 [fb:0]</text>
</g>
<!-- Alexandre Machado,987340734 [fb:0]&#45;&gt;Alexandre Pereira,987671978 [fb:0] -->
<g id="edge15" class="edge">
<title>Alexandre Machado,987340734 [fb:0]&#45;&gt;Alexandre Pereira,987671978 [fb:0]</title>
<path fill="none" stroke="black" d="M1168.17,-186.49C1184.75,-174.67 1207.08,-158.74 1225.27,-145.77"/>
<polygon fill="black" stroke="black" points="1227.72,-148.32 1233.83,-139.67 1223.65,-142.62 1227.72,-148.32"/>
</g>
<!-- N5 -->
<g id="node14" class="node">
<title>N5</title>
<ellipse fill="none" stroke="black" cx="841.48" cy="-28.6" rx="28.7" ry="28.7"/>
<text text-anchor="middle" x="841.48" y="-24.9" font-family="Times,serif" font-size="14.00">null</text>
</g>
<!-- Américo Rodrigues,986979432 [fb:0]&#45;&gt;N5 -->
<g id="edge13" class="edge">
<title>Américo Rodrigues,986979432 [fb:0]&#45;&gt;N5</title>
<path fill="none" stroke="black" d="M872.34,-103.64C867.77,-92.68 861.68,-78.07 856.12,-64.72"/>
<polygon fill="black" stroke="black" points="859.27,-63.18 852.19,-55.3 852.81,-65.87 859.27,-63.18"/>
</g>
<!-- N6 -->
<g id="node15" class="node">
<title>N6</title>
<ellipse fill="none" stroke="black" cx="916.48" cy="-28.6" rx="28.7" ry="28.7"/>
<text text-anchor="middle" x="916.48" y="-24.9" font-family="Times,serif" font-size="14.00">null</text>
</g>
<!-- Américo Rodrigues,986979432 [fb:0]&#45;&gt;N6 -->
<g id="edge14" class="edge">
<title>Américo Rodrigues,986979432 [fb:0]&#45;&gt;N6</title>
<path fill="none" stroke="black" d="M886.44,-103.64C890.89,-92.68 896.82,-78.07 902.23,-64.72"/>
<polygon fill="black" stroke="black" points="905.54,-65.88 906.06,-55.3 899.05,-63.25 905.54,-65.88"/>
</g>
<!-- N7 -->
<g id="node17" class="node">
<title>N7</title>
<ellipse fill="none" stroke="black" cx="1219.48" cy="-28.6" rx="28.7" ry="28.7"/>
<text text-anchor="middle" x="1219.48" y="-24.9" font-family="Times,serif" font-size="14.00">null</text>
</g>
<!-- Alexandre Pereira,987671978 [fb:0]&#45;&gt;N7 -->
<g id="edge16" class="edge">
<title>Alexandre Pereira,987671978 [fb:0]&#45;&gt;N7</title>
<path fill="none" stroke="black" d="M1250.34,-103.64C1245.77,-92.68 1239.68,-78.07 1234.12,-64.72"/>
<polygon fill="black" stroke="black" points="1237.27,-63.18 1230.19,-55.3 1230.81,-65.87 1237.27,-63.18"/>
</g>
<!-- N8 -->
<g id="node18" class="node">
<title>N8</title>
<ellipse fill="none" stroke="black" cx="1294.48" cy="-28.6" rx="28.7" ry="28.7"/>
<text text-anchor="middle" x="1294.48" y="-24.9" font-family="Times,serif" font-size="14.00">null</text>
</g>
<!-- Alexandre Pereira,987671978 [fb:0]&#45;&gt;N8 -->
<g id="edge17" class="edge">
<title>Alexandre Pereira,987671978 [fb:0]&#45;&gt;N8</title>
<path fill="none" stroke="black" d="M1264.44,-103.64C1268.89,-92.68 1274.82,-78.07 1280.23,-64.72"/>
<polygon fill="black" stroke="black" points="1283.54,-65.88 1284.06,-55.3 1277.05,-63.25 1283.54,-65.88"/>
</g>
<!-- Alexandra Moura,994116870 [fb:0] -->
<g id="node20" class="node">
<title>Alexandra Moura,994116870 [fb:0]</title>
<ellipse fill="none" stroke="black" cx="1627.48" cy="-121.79" rx="174.37" ry="18"/>
<text text-anchor="middle" x="1627.48" y="-118.09" font-family="Times,serif" font-size="14.00">Alexandra Moura,994116870 [fb:0]</text>
</g>
<!-- Ana Farias,996598918 [fb:&#45;1]&#45;&gt;Alexandra Moura,994116870 [fb:0] -->
<g id="edge19" class="edge">
<title>Ana Farias,996598918 [fb:&#45;1]&#45;&gt;Alexandra Moura,994116870 [fb:0]</title>
<path fill="none" stroke="black" d="M1627.48,-186.3C1627.48,-175.72 1627.48,-161.9 1627.48,-149.86"/>
<polygon fill="black" stroke="black" points="1630.98,-149.86 1627.48,-139.86 1623.98,-149.86 1630.98,-149.86"/>
</g>
<!-- N11 -->
<g id="node23" class="node">
<title>N11</title>
<ellipse fill="none" stroke="black" cx="1848.48" cy="-121.79" rx="28.7" ry="28.7"/>
<text text-anchor="middle" x="1848.48" y="-118.09" font-family="Times,serif" font-size="14.00">null</text>
</g>
<!-- Ana Farias,996598918 [fb:&#45;1]&#45;&gt;N11 -->
<g id="edge22" class="edge">
<title>Ana Farias,996598918 [fb:&#45;1]&#45;&gt;N11</title>
<path fill="none" stroke="black" d="M1699.56,-188.63C1734.16,-180.04 1775.57,-167.47 1810.48,-150.39 1813.09,-149.11 1815.71,-147.66 1818.29,-146.1"/>
<polygon fill="black" stroke="black" points="1820.37,-148.92 1826.8,-140.5 1816.52,-143.07 1820.37,-148.92"/>
</g>
<!-- N9 -->
<g id="node21" class="node">
<title>N9</title>
<ellipse fill="none" stroke="black" cx="1589.48" cy="-28.6" rx="28.7" ry="28.7"/>
<text text-anchor="middle" x="1589.48" y="-24.9" font-family="Times,serif" font-size="14.00">null</text>
</g>
<!-- Alexandra Moura,994116870 [fb:0]&#45;&gt;N9 -->
<g id="edge20" class="edge">
<title>Alexandra Moura,994116870 [fb:0]&#45;&gt;N9</title>
<path fill="none" stroke="black" d="M1620.34,-103.64C1615.77,-92.68 1609.68,-78.07 1604.12,-64.72"/>
<polygon fill="black" stroke="black" points="1607.27,-63.18 1600.19,-55.3 1600.81,-65.87 1607.27,-63.18"/>
</g>
<!-- N10 -->
<g id="node22" class="node">
<title>N10</title>
<ellipse fill="none" stroke="black" cx="1664.48" cy="-28.6" rx="28.7" ry="28.7"/>
<text text-anchor="middle" x="1664.48" y="-24.9" font-family="Times,serif" font-size="14.00">null</text>
</g>
<!-- Alexandra Moura,994116870 [fb:0]&#45;&gt;N10 -->
<g id="edge21" class="edge">
<title>Alexandra Moura,994116870 [fb:0]&#45;&gt;N10</title>
<path fill="none" stroke="black" d="M1634.44,-103.64C1638.89,-92.68 1644.82,-78.07 1650.23,-64.72"/>
<polygon fill="black" stroke="black" points="1653.54,-65.88 1654.06,-55.3 1647.05,-63.25 1653.54,-65.88"/>
</g>
</g>
</svg>
