<?xml version="1.0" encoding="UTF-8" standalone="no"?>
<!DOCTYPE svg PUBLIC "-//W3C//DTD SVG 1.1//EN"
 "http://www.w3.org/Graphics/SVG/1.1/DTD/svg11.dtd">
<!-- Generated by graphviz version 2.43.0 (0)
 -->
<!-- Title: BST Pages: 1 -->
<svg width="468pt" height="230pt"
 viewBox="0.00 0.00 467.92 230.39" xmlns="http://www.w3.org/2000/svg" xmlns:xlink="http://www.w3.org/1999/xlink">
<g id="graph0" class="graph" transform="scale(1 1) rotate(0) translate(4 226.39)">
<title>BST</title>
<polygon fill="white" stroke="transparent" points="-4,4 -4,-226.39 463.92,-226.39 463.92,4 -4,4"/>
<!-- Alexandre Barbosa,992883178 [fb:&#45;1] -->
<g id="node1" class="node">
<title>Alexandre Barbosa,992883178 [fb:&#45;1]</title>
<ellipse fill="none" stroke="black" cx="275.34" cy="-204.39" rx="184.67" ry="18"/>
<text text-anchor="middle" x="275.34" y="-200.69" font-family="Times,serif" font-size="14.00">Alexandre Barbosa,992883178 [fb:&#45;1]</text>
</g>
<!-- Alberto Campos,960933788 [fb:0] -->
<g id="node2" class="node">
<title>Alberto Campos,960933788 [fb:0]</title>
<ellipse fill="none" stroke="black" cx="168.34" cy="-121.79" rx="168.17" ry="18"/>
<text text-anchor="middle" x="168.34" y="-118.09" font-family="Times,serif" font-size="14.00">Alberto Campos,960933788 [fb:0]</text>
</g>
<!-- Alexandre Barbosa,992883178 [fb:&#45;1]&#45;&gt;Alberto Campos,960933788 [fb:0] -->
<g id="edge1" class="edge">
<title>Alexandre Barbosa,992883178 [fb:&#45;1]&#45;&gt;Alberto Campos,960933788 [fb:0]</title>
<path fill="none" stroke="black" d="M252.9,-186.49C237.21,-174.67 216.06,-158.74 198.83,-145.77"/>
<polygon fill="black" stroke="black" points="200.83,-142.89 190.74,-139.67 196.62,-148.48 200.83,-142.89"/>
</g>
<!-- N2 -->
<g id="node5" class="node">
<title>N2</title>
<ellipse fill="none" stroke="black" cx="383.34" cy="-121.79" rx="28.7" ry="28.7"/>
<text text-anchor="middle" x="383.34" y="-118.09" font-family="Times,serif" font-size="14.00">null</text>
</g>
<!-- Alexandre Barbosa,992883178 [fb:&#45;1]&#45;&gt;N2 -->
<g id="edge4" class="edge">
<title>Alexandre Barbosa,992883178 [fb:&#45;1]&#45;&gt;N2</title>
<path fill="none" stroke="black" d="M297.98,-186.49C313.82,-174.67 335.17,-158.74 352.55,-145.77"/>
<polygon fill="black" stroke="black" points="354.8,-148.45 360.72,-139.67 350.62,-142.84 354.8,-148.45"/>
</g>
<!-- N0 -->
<g id="node3" class="node">
<title>N0</title>
<ellipse fill="none" stroke="black" cx="131.34" cy="-28.6" rx="28.7" ry="28.7"/>
<text text-anchor="middle" x="131.34" y="-24.9" font-family="Times,serif" font-size="14.00">null</text>
</g>
<!-- Alberto Campos,960933788 [fb:0]&#45;&gt;N0 -->
<g id="edge2" class="edge">
<title>Alberto Campos,960933788 [fb:0]&#45;&gt;N0</title>
<path fill="none" stroke="black" d="M161.38,-103.64C156.93,-92.68 151,-78.07 145.59,-64.72"/>
<polygon fill="black" stroke="black" points="148.76,-63.25 141.76,-55.3 142.28,-65.88 148.76,-63.25"/>
</g>
<!-- N1 -->
<g id="node4" class="node">
<title>N1</title>
<ellipse fill="none" stroke="black" cx="206.34" cy="-28.6" rx="28.7" ry="28.7"/>
<text text-anchor="middle" x="206.34" y="-24.9" font-family="Times,serif" font-size="14.00">null</text>
</g>
<!-- Alberto Campos,960933788 [fb:0]&#45;&gt;N1 -->
<g id="edge3" class="edge">
<title>Alberto Campos,960933788 [fb:0]&#45;&gt;N1</title>
<path fill="none" stroke="black" d="M175.48,-103.64C180.05,-92.68 186.14,-78.07 191.7,-64.72"/>
<polygon fill="black" stroke="black" points="195.01,-65.87 195.63,-55.3 188.55,-63.18 195.01,-65.87"/>
</g>
</g>
</svg>
