<?xml version="1.0" encoding="UTF-8" standalone="no"?>
<!DOCTYPE svg PUBLIC "-//W3C//DTD SVG 1.1//EN"
 "http://www.w3.org/Graphics/SVG/1.1/DTD/svg11.dtd">
<!-- Generated by graphviz version 2.43.0 (0)
 -->
<!-- Title: BST Pages: 1 -->
<svg width="2832pt" height="353pt"
 viewBox="0.00 0.00 2832.02 353.19" xmlns="http://www.w3.org/2000/svg" xmlns:xlink="http://www.w3.org/1999/xlink">
<g id="graph0" class="graph" transform="scale(1 1) rotate(0) translate(4 349.19)">
<title>BST</title>
<polygon fill="white" stroke="transparent" points="-4,4 -4,-349.19 2828.02,-349.19 2828.02,4 -4,4"/>
<!-- Alexandre Costa,982632579 [fb:0] -->
<g id="node1" class="node">
<title>Alexandre Costa,982632579 [fb:0]</title>
<ellipse fill="none" stroke="black" cx="1347.48" cy="-327.19" rx="170.07" ry="18"/>
<text text-anchor="middle" x="1347.48" y="-323.49" font-family="Times,serif" font-size="14.00">Alexandre Costa,982632579 [fb:0]</text>
</g>
<!-- Alexandre Freitas,964642705 [fb:0] -->
<g id="node2" class="node">
<title>Alexandre Freitas,964642705 [fb:0]</title>
<ellipse fill="none" stroke="black" cx="1021.48" cy="-255.19" rx="176.57" ry="18"/>
<text text-anchor="middle" x="1021.48" y="-251.49" font-family="Times,serif" font-size="14.00">Alexandre Freitas,964642705 [fb:0]</text>
</g>
<!-- Alexandre Costa,982632579 [fb:0]&#45;&gt;Alexandre Freitas,964642705 [fb:0] -->
<g id="edge1" class="edge">
<title>Alexandre Costa,982632579 [fb:0]&#45;&gt;Alexandre Freitas,964642705 [fb:0]</title>
<path fill="none" stroke="black" d="M1275.94,-310.83C1225.06,-299.91 1156.58,-285.2 1103.49,-273.8"/>
<polygon fill="black" stroke="black" points="1103.93,-270.32 1093.42,-271.64 1102.46,-277.16 1103.93,-270.32"/>
</g>
<!-- Alexandre Barbosa,992883178 [fb:0] -->
<g id="node17" class="node">
<title>Alexandre Barbosa,992883178 [fb:0]</title>
<ellipse fill="none" stroke="black" cx="1725.48" cy="-255.19" rx="181.97" ry="18"/>
<text text-anchor="middle" x="1725.48" y="-251.49" font-family="Times,serif" font-size="14.00">Alexandre Barbosa,992883178 [fb:0]</text>
</g>
<!-- Alexandre Costa,982632579 [fb:0]&#45;&gt;Alexandre Barbosa,992883178 [fb:0] -->
<g id="edge16" class="edge">
<title>Alexandre Costa,982632579 [fb:0]&#45;&gt;Alexandre Barbosa,992883178 [fb:0]</title>
<path fill="none" stroke="black" d="M1428.11,-311.26C1488.41,-300.1 1570.95,-284.81 1633.77,-273.18"/>
<polygon fill="black" stroke="black" points="1634.48,-276.61 1643.68,-271.34 1633.21,-269.72 1634.48,-276.61"/>
</g>
<!-- Alberto Campos,960933788 [fb:0] -->
<g id="node3" class="node">
<title>Alberto Campos,960933788 [fb:0]</title>
<ellipse fill="none" stroke="black" cx="530.48" cy="-183.19" rx="168.17" ry="18"/>
<text text-anchor="middle" x="530.48" y="-179.49" font-family="Times,serif" font-size="14.00">Alberto Campos,960933788 [fb:0]</text>
</g>
<!-- Alexandre Freitas,964642705 [fb:0]&#45;&gt;Alberto Campos,960933788 [fb:0] -->
<g id="edge2" class="edge">
<title>Alexandre Freitas,964642705 [fb:0]&#45;&gt;Alberto Campos,960933788 [fb:0]</title>
<path fill="none" stroke="black" d="M923.3,-240.2C840.53,-228.4 722.29,-211.54 637.19,-199.41"/>
<polygon fill="black" stroke="black" points="637.63,-195.94 627.24,-197.99 636.65,-202.87 637.63,-195.94"/>
</g>
<!-- Alfredo Martins,967387182 [fb:0] -->
<g id="node10" class="node">
<title>Alfredo Martins,967387182 [fb:0]</title>
<ellipse fill="none" stroke="black" cx="1021.48" cy="-183.19" rx="167.07" ry="18"/>
<text text-anchor="middle" x="1021.48" y="-179.49" font-family="Times,serif" font-size="14.00">Alfredo Martins,967387182 [fb:0]</text>
</g>
<!-- Alexandre Freitas,964642705 [fb:0]&#45;&gt;Alfredo Martins,967387182 [fb:0] -->
<g id="edge9" class="edge">
<title>Alexandre Freitas,964642705 [fb:0]&#45;&gt;Alfredo Martins,967387182 [fb:0]</title>
<path fill="none" stroke="black" d="M1021.48,-236.89C1021.48,-229.18 1021.48,-219.91 1021.48,-211.31"/>
<polygon fill="black" stroke="black" points="1024.98,-211.3 1021.48,-201.3 1017.98,-211.3 1024.98,-211.3"/>
</g>
<!-- Alexandre Santos,955838599 [fb:0] -->
<g id="node4" class="node">
<title>Alexandre Santos,955838599 [fb:0]</title>
<ellipse fill="none" stroke="black" cx="175.48" cy="-111.19" rx="175.47" ry="18"/>
<text text-anchor="middle" x="175.48" y="-107.49" font-family="Times,serif" font-size="14.00">Alexandre Santos,955838599 [fb:0]</text>
</g>
<!-- Alberto Campos,960933788 [fb:0]&#45;&gt;Alexandre Santos,955838599 [fb:0] -->
<g id="edge3" class="edge">
<title>Alberto Campos,960933788 [fb:0]&#45;&gt;Alexandre Santos,955838599 [fb:0]</title>
<path fill="none" stroke="black" d="M453.89,-167.09C397.63,-156 321.11,-140.91 262.53,-129.36"/>
<polygon fill="black" stroke="black" points="263.04,-125.89 252.55,-127.39 261.69,-132.76 263.04,-125.89"/>
</g>
<!-- Andrea Santos,960933790 [fb:0] -->
<g id="node7" class="node">
<title>Andrea Santos,960933790 [fb:0]</title>
<ellipse fill="none" stroke="black" cx="530.48" cy="-111.19" rx="161.67" ry="18"/>
<text text-anchor="middle" x="530.48" y="-107.49" font-family="Times,serif" font-size="14.00">Andrea Santos,960933790 [fb:0]</text>
</g>
<!-- Alberto Campos,960933788 [fb:0]&#45;&gt;Andrea Santos,960933790 [fb:0] -->
<g id="edge6" class="edge">
<title>Alberto Campos,960933788 [fb:0]&#45;&gt;Andrea Santos,960933790 [fb:0]</title>
<path fill="none" stroke="black" d="M530.48,-164.89C530.48,-157.18 530.48,-147.91 530.48,-139.31"/>
<polygon fill="black" stroke="black" points="533.98,-139.3 530.48,-129.3 526.98,-139.3 533.98,-139.3"/>
</g>
<!-- N0 -->
<g id="node5" class="node">
<title>N0</title>
<ellipse fill="none" stroke="black" cx="138.48" cy="-28.6" rx="28.7" ry="28.7"/>
<text text-anchor="middle" x="138.48" y="-24.9" font-family="Times,serif" font-size="14.00">null</text>
</g>
<!-- Alexandre Santos,955838599 [fb:0]&#45;&gt;N0 -->
<g id="edge4" class="edge">
<title>Alexandre Santos,955838599 [fb:0]&#45;&gt;N0</title>
<path fill="none" stroke="black" d="M167.64,-93.1C163.78,-84.7 158.98,-74.25 154.4,-64.27"/>
<polygon fill="black" stroke="black" points="157.47,-62.56 150.12,-54.93 151.11,-65.48 157.47,-62.56"/>
</g>
<!-- N1 -->
<g id="node6" class="node">
<title>N1</title>
<ellipse fill="none" stroke="black" cx="213.48" cy="-28.6" rx="28.7" ry="28.7"/>
<text text-anchor="middle" x="213.48" y="-24.9" font-family="Times,serif" font-size="14.00">null</text>
</g>
<!-- Alexandre Santos,955838599 [fb:0]&#45;&gt;N1 -->
<g id="edge5" class="edge">
<title>Alexandre Santos,955838599 [fb:0]&#45;&gt;N1</title>
<path fill="none" stroke="black" d="M183.54,-93.1C187.51,-84.7 192.43,-74.25 197.14,-64.27"/>
<polygon fill="black" stroke="black" points="200.44,-65.47 201.54,-54.93 194.11,-62.49 200.44,-65.47"/>
</g>
<!-- N2 -->
<g id="node8" class="node">
<title>N2</title>
<ellipse fill="none" stroke="black" cx="492.48" cy="-28.6" rx="28.7" ry="28.7"/>
<text text-anchor="middle" x="492.48" y="-24.9" font-family="Times,serif" font-size="14.00">null</text>
</g>
<!-- Andrea Santos,960933790 [fb:0]&#45;&gt;N2 -->
<g id="edge7" class="edge">
<title>Andrea Santos,960933790 [fb:0]&#45;&gt;N2</title>
<path fill="none" stroke="black" d="M522.43,-93.1C518.46,-84.7 513.54,-74.25 508.83,-64.27"/>
<polygon fill="black" stroke="black" points="511.86,-62.49 504.43,-54.93 505.53,-65.47 511.86,-62.49"/>
</g>
<!-- N3 -->
<g id="node9" class="node">
<title>N3</title>
<ellipse fill="none" stroke="black" cx="567.48" cy="-28.6" rx="28.7" ry="28.7"/>
<text text-anchor="middle" x="567.48" y="-24.9" font-family="Times,serif" font-size="14.00">null</text>
</g>
<!-- Andrea Santos,960933790 [fb:0]&#45;&gt;N3 -->
<g id="edge8" class="edge">
<title>Andrea Santos,960933790 [fb:0]&#45;&gt;N3</title>
<path fill="none" stroke="black" d="M538.33,-93.1C542.19,-84.7 546.99,-74.25 551.57,-64.27"/>
<polygon fill="black" stroke="black" points="554.86,-65.48 555.85,-54.93 548.5,-62.56 554.86,-65.48"/>
</g>
<!-- Ana Barbosa,965115082 [fb:0] -->
<g id="node11" class="node">
<title>Ana Barbosa,965115082 [fb:0]</title>
<ellipse fill="none" stroke="black" cx="863.48" cy="-111.19" rx="152.97" ry="18"/>
<text text-anchor="middle" x="863.48" y="-107.49" font-family="Times,serif" font-size="14.00">Ana Barbosa,965115082 [fb:0]</text>
</g>
<!-- Alfredo Martins,967387182 [fb:0]&#45;&gt;Ana Barbosa,965115082 [fb:0] -->
<g id="edge10" class="edge">
<title>Alfredo Martins,967387182 [fb:0]&#45;&gt;Ana Barbosa,965115082 [fb:0]</title>
<path fill="none" stroke="black" d="M984.04,-165.61C961.9,-155.8 933.68,-143.3 910.11,-132.85"/>
<polygon fill="black" stroke="black" points="911.22,-129.52 900.66,-128.66 908.38,-135.92 911.22,-129.52"/>
</g>
<!-- Altair Souza,975960513 [fb:0] -->
<g id="node14" class="node">
<title>Altair Souza,975960513 [fb:0]</title>
<ellipse fill="none" stroke="black" cx="1185.48" cy="-111.19" rx="150.57" ry="18"/>
<text text-anchor="middle" x="1185.48" y="-107.49" font-family="Times,serif" font-size="14.00">Altair Souza,975960513 [fb:0]</text>
</g>
<!-- Alfredo Martins,967387182 [fb:0]&#45;&gt;Altair Souza,975960513 [fb:0] -->
<g id="edge13" class="edge">
<title>Alfredo Martins,967387182 [fb:0]&#45;&gt;Altair Souza,975960513 [fb:0]</title>
<path fill="none" stroke="black" d="M1060.35,-165.61C1083.43,-155.75 1112.88,-143.18 1137.41,-132.71"/>
<polygon fill="black" stroke="black" points="1139.07,-135.81 1146.9,-128.66 1136.33,-129.37 1139.07,-135.81"/>
</g>
<!-- N4 -->
<g id="node12" class="node">
<title>N4</title>
<ellipse fill="none" stroke="black" cx="825.48" cy="-28.6" rx="28.7" ry="28.7"/>
<text text-anchor="middle" x="825.48" y="-24.9" font-family="Times,serif" font-size="14.00">null</text>
</g>
<!-- Ana Barbosa,965115082 [fb:0]&#45;&gt;N4 -->
<g id="edge11" class="edge">
<title>Ana Barbosa,965115082 [fb:0]&#45;&gt;N4</title>
<path fill="none" stroke="black" d="M855.43,-93.1C851.46,-84.7 846.54,-74.25 841.83,-64.27"/>
<polygon fill="black" stroke="black" points="844.86,-62.49 837.43,-54.93 838.53,-65.47 844.86,-62.49"/>
</g>
<!-- N5 -->
<g id="node13" class="node">
<title>N5</title>
<ellipse fill="none" stroke="black" cx="900.48" cy="-28.6" rx="28.7" ry="28.7"/>
<text text-anchor="middle" x="900.48" y="-24.9" font-family="Times,serif" font-size="14.00">null</text>
</g>
<!-- Ana Barbosa,965115082 [fb:0]&#45;&gt;N5 -->
<g id="edge12" class="edge">
<title>Ana Barbosa,965115082 [fb:0]&#45;&gt;N5</title>
<path fill="none" stroke="black" d="M871.33,-93.1C875.19,-84.7 879.99,-74.25 884.57,-64.27"/>
<polygon fill="black" stroke="black" points="887.86,-65.48 888.85,-54.93 881.5,-62.56 887.86,-65.48"/>
</g>
<!-- N6 -->
<g id="node15" class="node">
<title>N6</title>
<ellipse fill="none" stroke="black" cx="1147.48" cy="-28.6" rx="28.7" ry="28.7"/>
<text text-anchor="middle" x="1147.48" y="-24.9" font-family="Times,serif" font-size="14.00">null</text>
</g>
<!-- Altair Souza,975960513 [fb:0]&#45;&gt;N6 -->
<g id="edge14" class="edge">
<title>Altair Souza,975960513 [fb:0]&#45;&gt;N6</title>
<path fill="none" stroke="black" d="M1177.43,-93.1C1173.46,-84.7 1168.54,-74.25 1163.83,-64.27"/>
<polygon fill="black" stroke="black" points="1166.86,-62.49 1159.43,-54.93 1160.53,-65.47 1166.86,-62.49"/>
</g>
<!-- N7 -->
<g id="node16" class="node">
<title>N7</title>
<ellipse fill="none" stroke="black" cx="1222.48" cy="-28.6" rx="28.7" ry="28.7"/>
<text text-anchor="middle" x="1222.48" y="-24.9" font-family="Times,serif" font-size="14.00">null</text>
</g>
<!-- Altair Souza,975960513 [fb:0]&#45;&gt;N7 -->
<g id="edge15" class="edge">
<title>Altair Souza,975960513 [fb:0]&#45;&gt;N7</title>
<path fill="none" stroke="black" d="M1193.33,-93.1C1197.19,-84.7 1201.99,-74.25 1206.57,-64.27"/>
<polygon fill="black" stroke="black" points="1209.86,-65.48 1210.85,-54.93 1203.5,-62.56 1209.86,-65.48"/>
</g>
<!-- Alexandre Machado,987340734 [fb:0] -->
<g id="node18" class="node">
<title>Alexandre Machado,987340734 [fb:0]</title>
<ellipse fill="none" stroke="black" cx="1725.48" cy="-183.19" rx="185.77" ry="18"/>
<text text-anchor="middle" x="1725.48" y="-179.49" font-family="Times,serif" font-size="14.00">Alexandre Machado,987340734 [fb:0]</text>
</g>
<!-- Alexandre Barbosa,992883178 [fb:0]&#45;&gt;Alexandre Machado,987340734 [fb:0] -->
<g id="edge17" class="edge">
<title>Alexandre Barbosa,992883178 [fb:0]&#45;&gt;Alexandre Machado,987340734 [fb:0]</title>
<path fill="none" stroke="black" d="M1725.48,-236.89C1725.48,-229.18 1725.48,-219.91 1725.48,-211.31"/>
<polygon fill="black" stroke="black" points="1728.98,-211.3 1725.48,-201.3 1721.98,-211.3 1728.98,-211.3"/>
</g>
<!-- Ana Farias,996598918 [fb:0] -->
<g id="node25" class="node">
<title>Ana Farias,996598918 [fb:0]</title>
<ellipse fill="none" stroke="black" cx="2284.48" cy="-183.19" rx="143.77" ry="18"/>
<text text-anchor="middle" x="2284.48" y="-179.49" font-family="Times,serif" font-size="14.00">Ana Farias,996598918 [fb:0]</text>
</g>
<!-- Alexandre Barbosa,992883178 [fb:0]&#45;&gt;Ana Farias,996598918 [fb:0] -->
<g id="edge24" class="edge">
<title>Alexandre Barbosa,992883178 [fb:0]&#45;&gt;Ana Farias,996598918 [fb:0]</title>
<path fill="none" stroke="black" d="M1833.6,-240.66C1932.4,-228.28 2077.74,-210.08 2176.51,-197.72"/>
<polygon fill="black" stroke="black" points="2177.03,-201.18 2186.51,-196.46 2176.16,-194.23 2177.03,-201.18"/>
</g>
<!-- Américo Rodrigues,986979432 [fb:0] -->
<g id="node19" class="node">
<title>Américo Rodrigues,986979432 [fb:0]</title>
<ellipse fill="none" stroke="black" cx="1536.48" cy="-111.19" rx="182.77" ry="18"/>
<text text-anchor="middle" x="1536.48" y="-107.49" font-family="Times,serif" font-size="14.00">Américo Rodrigues,986979432 [fb:0]</text>
</g>
<!-- Alexandre Machado,987340734 [fb:0]&#45;&gt;Américo Rodrigues,986979432 [fb:0] -->
<g id="edge18" class="edge">
<title>Alexandre Machado,987340734 [fb:0]&#45;&gt;Américo Rodrigues,986979432 [fb:0]</title>
<path fill="none" stroke="black" d="M1680.69,-165.61C1653.63,-155.58 1618.95,-142.74 1590.39,-132.16"/>
<polygon fill="black" stroke="black" points="1591.55,-128.86 1580.95,-128.66 1589.12,-135.42 1591.55,-128.86"/>
</g>
<!-- Alexandre Pereira,987671978 [fb:0] -->
<g id="node22" class="node">
<title>Alexandre Pereira,987671978 [fb:0]</title>
<ellipse fill="none" stroke="black" cx="1914.48" cy="-111.19" rx="177.37" ry="18"/>
<text text-anchor="middle" x="1914.48" y="-107.49" font-family="Times,serif" font-size="14.00">Alexandre Pereira,987671978 [fb:0]</text>
</g>
<!-- Alexandre Machado,987340734 [fb:0]&#45;&gt;Alexandre Pereira,987671978 [fb:0] -->
<g id="edge21" class="edge">
<title>Alexandre Machado,987340734 [fb:0]&#45;&gt;Alexandre Pereira,987671978 [fb:0]</title>
<path fill="none" stroke="black" d="M1770.27,-165.61C1797.34,-155.58 1832.02,-142.74 1860.58,-132.16"/>
<polygon fill="black" stroke="black" points="1861.85,-135.42 1870.02,-128.66 1859.42,-128.86 1861.85,-135.42"/>
</g>
<!-- N8 -->
<g id="node20" class="node">
<title>N8</title>
<ellipse fill="none" stroke="black" cx="1498.48" cy="-28.6" rx="28.7" ry="28.7"/>
<text text-anchor="middle" x="1498.48" y="-24.9" font-family="Times,serif" font-size="14.00">null</text>
</g>
<!-- Américo Rodrigues,986979432 [fb:0]&#45;&gt;N8 -->
<g id="edge19" class="edge">
<title>Américo Rodrigues,986979432 [fb:0]&#45;&gt;N8</title>
<path fill="none" stroke="black" d="M1528.43,-93.1C1524.46,-84.7 1519.54,-74.25 1514.83,-64.27"/>
<polygon fill="black" stroke="black" points="1517.86,-62.49 1510.43,-54.93 1511.53,-65.47 1517.86,-62.49"/>
</g>
<!-- N9 -->
<g id="node21" class="node">
<title>N9</title>
<ellipse fill="none" stroke="black" cx="1573.48" cy="-28.6" rx="28.7" ry="28.7"/>
<text text-anchor="middle" x="1573.48" y="-24.9" font-family="Times,serif" font-size="14.00">null</text>
</g>
<!-- Américo Rodrigues,986979432 [fb:0]&#45;&gt;N9 -->
<g id="edge20" class="edge">
<title>Américo Rodrigues,986979432 [fb:0]&#45;&gt;N9</title>
<path fill="none" stroke="black" d="M1544.33,-93.1C1548.19,-84.7 1552.99,-74.25 1557.57,-64.27"/>
<polygon fill="black" stroke="black" points="1560.86,-65.48 1561.85,-54.93 1554.5,-62.56 1560.86,-65.48"/>
</g>
<!-- N10 -->
<g id="node23" class="node">
<title>N10</title>
<ellipse fill="none" stroke="black" cx="1876.48" cy="-28.6" rx="28.7" ry="28.7"/>
<text text-anchor="middle" x="1876.48" y="-24.9" font-family="Times,serif" font-size="14.00">null</text>
</g>
<!-- Alexandre Pereira,987671978 [fb:0]&#45;&gt;N10 -->
<g id="edge22" class="edge">
<title>Alexandre Pereira,987671978 [fb:0]&#45;&gt;N10</title>
<path fill="none" stroke="black" d="M1906.43,-93.1C1902.46,-84.7 1897.54,-74.25 1892.83,-64.27"/>
<polygon fill="black" stroke="black" points="1895.86,-62.49 1888.43,-54.93 1889.53,-65.47 1895.86,-62.49"/>
</g>
<!-- N11 -->
<g id="node24" class="node">
<title>N11</title>
<ellipse fill="none" stroke="black" cx="1951.48" cy="-28.6" rx="28.7" ry="28.7"/>
<text text-anchor="middle" x="1951.48" y="-24.9" font-family="Times,serif" font-size="14.00">null</text>
</g>
<!-- Alexandre Pereira,987671978 [fb:0]&#45;&gt;N11 -->
<g id="edge23" class="edge">
<title>Alexandre Pereira,987671978 [fb:0]&#45;&gt;N11</title>
<path fill="none" stroke="black" d="M1922.33,-93.1C1926.19,-84.7 1930.99,-74.25 1935.57,-64.27"/>
<polygon fill="black" stroke="black" points="1938.86,-65.48 1939.85,-54.93 1932.5,-62.56 1938.86,-65.48"/>
</g>
<!-- Alexandra Moura,994116870 [fb:0] -->
<g id="node26" class="node">
<title>Alexandra Moura,994116870 [fb:0]</title>
<ellipse fill="none" stroke="black" cx="2284.48" cy="-111.19" rx="174.37" ry="18"/>
<text text-anchor="middle" x="2284.48" y="-107.49" font-family="Times,serif" font-size="14.00">Alexandra Moura,994116870 [fb:0]</text>
</g>
<!-- Ana Farias,996598918 [fb:0]&#45;&gt;Alexandra Moura,994116870 [fb:0] -->
<g id="edge25" class="edge">
<title>Ana Farias,996598918 [fb:0]&#45;&gt;Alexandra Moura,994116870 [fb:0]</title>
<path fill="none" stroke="black" d="M2284.48,-164.89C2284.48,-157.18 2284.48,-147.91 2284.48,-139.31"/>
<polygon fill="black" stroke="black" points="2287.98,-139.3 2284.48,-129.3 2280.98,-139.3 2287.98,-139.3"/>
</g>
<!-- Alexandre Torres,997285865 [fb:0] -->
<g id="node29" class="node">
<title>Alexandre Torres,997285865 [fb:0]</title>
<ellipse fill="none" stroke="black" cx="2650.48" cy="-111.19" rx="173.57" ry="18"/>
<text text-anchor="middle" x="2650.48" y="-107.49" font-family="Times,serif" font-size="14.00">Alexandre Torres,997285865 [fb:0]</text>
</g>
<!-- Ana Farias,996598918 [fb:0]&#45;&gt;Alexandre Torres,997285865 [fb:0] -->
<g id="edge28" class="edge">
<title>Ana Farias,996598918 [fb:0]&#45;&gt;Alexandre Torres,997285865 [fb:0]</title>
<path fill="none" stroke="black" d="M2359.88,-167.78C2418.45,-156.57 2499.84,-141.01 2561.59,-129.2"/>
<polygon fill="black" stroke="black" points="2562.55,-132.58 2571.71,-127.26 2561.23,-125.7 2562.55,-132.58"/>
</g>
<!-- N12 -->
<g id="node27" class="node">
<title>N12</title>
<ellipse fill="none" stroke="black" cx="2246.48" cy="-28.6" rx="28.7" ry="28.7"/>
<text text-anchor="middle" x="2246.48" y="-24.9" font-family="Times,serif" font-size="14.00">null</text>
</g>
<!-- Alexandra Moura,994116870 [fb:0]&#45;&gt;N12 -->
<g id="edge26" class="edge">
<title>Alexandra Moura,994116870 [fb:0]&#45;&gt;N12</title>
<path fill="none" stroke="black" d="M2276.43,-93.1C2272.46,-84.7 2267.54,-74.25 2262.83,-64.27"/>
<polygon fill="black" stroke="black" points="2265.86,-62.49 2258.43,-54.93 2259.53,-65.47 2265.86,-62.49"/>
</g>
<!-- N13 -->
<g id="node28" class="node">
<title>N13</title>
<ellipse fill="none" stroke="black" cx="2321.48" cy="-28.6" rx="28.7" ry="28.7"/>
<text text-anchor="middle" x="2321.48" y="-24.9" font-family="Times,serif" font-size="14.00">null</text>
</g>
<!-- Alexandra Moura,994116870 [fb:0]&#45;&gt;N13 -->
<g id="edge27" class="edge">
<title>Alexandra Moura,994116870 [fb:0]&#45;&gt;N13</title>
<path fill="none" stroke="black" d="M2292.33,-93.1C2296.19,-84.7 2300.99,-74.25 2305.57,-64.27"/>
<polygon fill="black" stroke="black" points="2308.86,-65.48 2309.85,-54.93 2302.5,-62.56 2308.86,-65.48"/>
</g>
<!-- N14 -->
<g id="node30" class="node">
<title>N14</title>
<ellipse fill="none" stroke="black" cx="2612.48" cy="-28.6" rx="28.7" ry="28.7"/>
<text text-anchor="middle" x="2612.48" y="-24.9" font-family="Times,serif" font-size="14.00">null</text>
</g>
<!-- Alexandre Torres,997285865 [fb:0]&#45;&gt;N14 -->
<g id="edge29" class="edge">
<title>Alexandre Torres,997285865 [fb:0]&#45;&gt;N14</title>
<path fill="none" stroke="black" d="M2642.43,-93.1C2638.46,-84.7 2633.54,-74.25 2628.83,-64.27"/>
<polygon fill="black" stroke="black" points="2631.86,-62.49 2624.43,-54.93 2625.53,-65.47 2631.86,-62.49"/>
</g>
<!-- N15 -->
<g id="node31" class="node">
<title>N15</title>
<ellipse fill="none" stroke="black" cx="2687.48" cy="-28.6" rx="28.7" ry="28.7"/>
<text text-anchor="middle" x="2687.48" y="-24.9" font-family="Times,serif" font-size="14.00">null</text>
</g>
<!-- Alexandre Torres,997285865 [fb:0]&#45;&gt;N15 -->
<g id="edge30" class="edge">
<title>Alexandre Torres,997285865 [fb:0]&#45;&gt;N15</title>
<path fill="none" stroke="black" d="M2658.33,-93.1C2662.19,-84.7 2666.99,-74.25 2671.57,-64.27"/>
<polygon fill="black" stroke="black" points="2674.86,-65.48 2675.85,-54.93 2668.5,-62.56 2674.86,-65.48"/>
</g>
</g>
</svg>
