<?xml version="1.0" encoding="UTF-8" standalone="no"?>
<!DOCTYPE svg PUBLIC "-//W3C//DTD SVG 1.1//EN"
 "http://www.w3.org/Graphics/SVG/1.1/DTD/svg11.dtd">
<!-- Generated by graphviz version 2.43.0 (0)
 -->
<!-- Title: BST Pages: 1 -->
<svg width="494pt" height="385pt"
 viewBox="0.00 0.00 494.30 384.86" xmlns="http://www.w3.org/2000/svg" xmlns:xlink="http://www.w3.org/1999/xlink">
<g id="graph0" class="graph" transform="scale(1 1) rotate(0) translate(4 380.86)">
<title>BST</title>
<polygon fill="white" stroke="transparent" points="-4,4 -4,-380.86 490.3,-380.86 490.3,4 -4,4"/>
<!-- No_982632579 -->
<g id="node1" class="node">
<title>No_982632579</title>
<ellipse fill="none" stroke="black" cx="224" cy="-339.38" rx="69.09" ry="37.45"/>
<text text-anchor="middle" x="224" y="-350.68" font-family="Times,serif" font-size="14.00">Abel Costa</text>
<text text-anchor="middle" x="224" y="-335.68" font-family="Times,serif" font-size="14.00">982632579</text>
<text text-anchor="middle" x="224" y="-320.68" font-family="Times,serif" font-size="14.00">fb=0</text>
</g>
<!-- No_960933788 -->
<g id="node2" class="node">
<title>No_960933788</title>
<ellipse fill="none" stroke="black" cx="115" cy="-228.43" rx="92.76" ry="37.45"/>
<text text-anchor="middle" x="115" y="-239.73" font-family="Times,serif" font-size="14.00">Alberto Campos</text>
<text text-anchor="middle" x="115" y="-224.73" font-family="Times,serif" font-size="14.00">960933788</text>
<text text-anchor="middle" x="115" y="-209.73" font-family="Times,serif" font-size="14.00">fb=1</text>
</g>
<!-- No_982632579&#45;&gt;No_960933788 -->
<g id="edge1" class="edge">
<title>No_982632579&#45;&gt;No_960933788</title>
<path fill="none" stroke="black" d="M191.59,-305.99C180.47,-294.87 167.87,-282.28 156.15,-270.56"/>
<polygon fill="black" stroke="black" points="158.53,-268 148.99,-263.4 153.59,-272.95 158.53,-268"/>
</g>
<!-- No_992883178 -->
<g id="node7" class="node">
<title>No_992883178</title>
<ellipse fill="none" stroke="black" cx="333" cy="-228.43" rx="107.46" ry="37.45"/>
<text text-anchor="middle" x="333" y="-239.73" font-family="Times,serif" font-size="14.00">Alexandre Barbosa</text>
<text text-anchor="middle" x="333" y="-224.73" font-family="Times,serif" font-size="14.00">992883178</text>
<text text-anchor="middle" x="333" y="-209.73" font-family="Times,serif" font-size="14.00">fb=1</text>
</g>
<!-- No_982632579&#45;&gt;No_992883178 -->
<g id="edge6" class="edge">
<title>No_982632579&#45;&gt;No_992883178</title>
<path fill="none" stroke="black" d="M256.41,-305.99C267.22,-295.18 279.43,-282.98 290.86,-271.55"/>
<polygon fill="black" stroke="black" points="293.65,-273.71 298.25,-264.17 288.7,-268.76 293.65,-273.71"/>
</g>
<!-- NUL_0 -->
<g id="node3" class="node">
<title>NUL_0</title>
<polygon fill="none" stroke="black" points="44,-139.48 0,-139.48 0,-95.48 44,-95.48 44,-139.48"/>
<text text-anchor="middle" x="22" y="-113.78" font-family="Times,serif" font-size="14.00">null</text>
</g>
<!-- No_960933788&#45;&gt;NUL_0 -->
<g id="edge2" class="edge">
<title>No_960933788&#45;&gt;NUL_0</title>
<path fill="none" stroke="black" d="M85.33,-192.8C75.08,-180.82 63.53,-167.3 53,-154.95 50.9,-152.49 48.72,-149.93 46.53,-147.36"/>
<polygon fill="black" stroke="black" points="49.16,-145.05 40.02,-139.7 43.83,-149.59 49.16,-145.05"/>
</g>
<!-- No_964642705 -->
<g id="node4" class="node">
<title>No_964642705</title>
<ellipse fill="none" stroke="black" cx="140" cy="-117.48" rx="78.48" ry="37.45"/>
<text text-anchor="middle" x="140" y="-128.78" font-family="Times,serif" font-size="14.00">Alícia Freitas</text>
<text text-anchor="middle" x="140" y="-113.78" font-family="Times,serif" font-size="14.00">964642705</text>
<text text-anchor="middle" x="140" y="-98.78" font-family="Times,serif" font-size="14.00">fb=0</text>
</g>
<!-- No_960933788&#45;&gt;No_964642705 -->
<g id="edge3" class="edge">
<title>No_960933788&#45;&gt;No_964642705</title>
<path fill="none" stroke="black" d="M123.39,-190.85C125.31,-182.49 127.37,-173.51 129.37,-164.81"/>
<polygon fill="black" stroke="black" points="132.85,-165.31 131.67,-154.78 126.02,-163.74 132.85,-165.31"/>
</g>
<!-- NUL_1 -->
<g id="node5" class="node">
<title>NUL_1</title>
<polygon fill="none" stroke="black" points="131,-44 87,-44 87,0 131,0 131,-44"/>
<text text-anchor="middle" x="109" y="-18.3" font-family="Times,serif" font-size="14.00">null</text>
</g>
<!-- No_964642705&#45;&gt;NUL_1 -->
<g id="edge4" class="edge">
<title>No_964642705&#45;&gt;NUL_1</title>
<path fill="none" stroke="black" d="M128.01,-80.34C125.1,-71.55 122.01,-62.23 119.19,-53.72"/>
<polygon fill="black" stroke="black" points="122.49,-52.57 116.02,-44.18 115.85,-54.77 122.49,-52.57"/>
</g>
<!-- NUL_2 -->
<g id="node6" class="node">
<title>NUL_2</title>
<polygon fill="none" stroke="black" points="193,-44 149,-44 149,0 193,0 193,-44"/>
<text text-anchor="middle" x="171" y="-18.3" font-family="Times,serif" font-size="14.00">null</text>
</g>
<!-- No_964642705&#45;&gt;NUL_2 -->
<g id="edge5" class="edge">
<title>No_964642705&#45;&gt;NUL_2</title>
<path fill="none" stroke="black" d="M151.99,-80.34C154.9,-71.55 157.99,-62.23 160.81,-53.72"/>
<polygon fill="black" stroke="black" points="164.15,-54.77 163.98,-44.18 157.51,-52.57 164.15,-54.77"/>
</g>
<!-- NUL_3 -->
<g id="node8" class="node">
<title>NUL_3</title>
<polygon fill="none" stroke="black" points="330,-139.48 286,-139.48 286,-95.48 330,-95.48 330,-139.48"/>
<text text-anchor="middle" x="308" y="-113.78" font-family="Times,serif" font-size="14.00">null</text>
</g>
<!-- No_992883178&#45;&gt;NUL_3 -->
<g id="edge7" class="edge">
<title>No_992883178&#45;&gt;NUL_3</title>
<path fill="none" stroke="black" d="M324.61,-190.85C321.52,-177.38 318.05,-162.28 315.09,-149.37"/>
<polygon fill="black" stroke="black" points="318.48,-148.52 312.84,-139.55 311.66,-150.08 318.48,-148.52"/>
</g>
<!-- No_996598918 -->
<g id="node9" class="node">
<title>No_996598918</title>
<ellipse fill="none" stroke="black" cx="417" cy="-117.48" rx="69.09" ry="37.45"/>
<text text-anchor="middle" x="417" y="-128.78" font-family="Times,serif" font-size="14.00">Ana Farias</text>
<text text-anchor="middle" x="417" y="-113.78" font-family="Times,serif" font-size="14.00">996598918</text>
<text text-anchor="middle" x="417" y="-98.78" font-family="Times,serif" font-size="14.00">fb=0</text>
</g>
<!-- No_992883178&#45;&gt;No_996598918 -->
<g id="edge8" class="edge">
<title>No_992883178&#45;&gt;No_996598918</title>
<path fill="none" stroke="black" d="M360.27,-192.06C367.98,-182.05 376.45,-171.07 384.44,-160.71"/>
<polygon fill="black" stroke="black" points="387.39,-162.62 390.72,-152.56 381.84,-158.34 387.39,-162.62"/>
</g>
<!-- NUL_4 -->
<g id="node10" class="node">
<title>NUL_4</title>
<polygon fill="none" stroke="black" points="408,-44 364,-44 364,0 408,0 408,-44"/>
<text text-anchor="middle" x="386" y="-18.3" font-family="Times,serif" font-size="14.00">null</text>
</g>
<!-- No_996598918&#45;&gt;NUL_4 -->
<g id="edge9" class="edge">
<title>No_996598918&#45;&gt;NUL_4</title>
<path fill="none" stroke="black" d="M405.01,-80.34C402.1,-71.55 399.01,-62.23 396.19,-53.72"/>
<polygon fill="black" stroke="black" points="399.49,-52.57 393.02,-44.18 392.85,-54.77 399.49,-52.57"/>
</g>
<!-- NUL_5 -->
<g id="node11" class="node">
<title>NUL_5</title>
<polygon fill="none" stroke="black" points="470,-44 426,-44 426,0 470,0 470,-44"/>
<text text-anchor="middle" x="448" y="-18.3" font-family="Times,serif" font-size="14.00">null</text>
</g>
<!-- No_996598918&#45;&gt;NUL_5 -->
<g id="edge10" class="edge">
<title>No_996598918&#45;&gt;NUL_5</title>
<path fill="none" stroke="black" d="M428.99,-80.34C431.9,-71.55 434.99,-62.23 437.81,-53.72"/>
<polygon fill="black" stroke="black" points="441.15,-54.77 440.98,-44.18 434.51,-52.57 441.15,-54.77"/>
</g>
</g>
</svg>
