<?xml version="1.0" encoding="UTF-8" standalone="no"?>
<!DOCTYPE svg PUBLIC "-//W3C//DTD SVG 1.1//EN"
 "http://www.w3.org/Graphics/SVG/1.1/DTD/svg11.dtd">
<!-- Generated by graphviz version 2.43.0 (0)
 -->
<!-- Title: BST Pages: 1 -->
<svg width="1132pt" height="302pt"
 viewBox="0.00 0.00 1132.23 302.39" xmlns="http://www.w3.org/2000/svg" xmlns:xlink="http://www.w3.org/1999/xlink">
<g id="graph0" class="graph" transform="scale(1 1) rotate(0) translate(4 298.39)">
<title>BST</title>
<polygon fill="white" stroke="transparent" points="-4,4 -4,-298.39 1128.23,-298.39 1128.23,4 -4,4"/>
<!-- Alexandre Costa,982632579 [fb:0] -->
<g id="node1" class="node">
<title>Alexandre Costa,982632579 [fb:0]</title>
<ellipse fill="none" stroke="black" cx="441.6" cy="-276.39" rx="170.07" ry="18"/>
<text text-anchor="middle" x="441.6" y="-272.69" font-family="Times,serif" font-size="14.00">Alexandre Costa,982632579 [fb:0]</text>
</g>
<!-- Alberto Campos,960933788 [fb:1] -->
<g id="node2" class="node">
<title>Alberto Campos,960933788 [fb:1]</title>
<ellipse fill="none" stroke="black" cx="251.6" cy="-204.39" rx="168.17" ry="18"/>
<text text-anchor="middle" x="251.6" y="-200.69" font-family="Times,serif" font-size="14.00">Alberto Campos,960933788 [fb:1]</text>
</g>
<!-- Alexandre Costa,982632579 [fb:0]&#45;&gt;Alberto Campos,960933788 [fb:1] -->
<g id="edge1" class="edge">
<title>Alexandre Costa,982632579 [fb:0]&#45;&gt;Alberto Campos,960933788 [fb:1]</title>
<path fill="none" stroke="black" d="M397.05,-258.98C369.75,-248.92 334.63,-235.98 305.73,-225.33"/>
<polygon fill="black" stroke="black" points="306.79,-221.99 296.19,-221.82 304.37,-228.56 306.79,-221.99"/>
</g>
<!-- Alexandre Barbosa,992883178 [fb:0] -->
<g id="node7" class="node">
<title>Alexandre Barbosa,992883178 [fb:0]</title>
<ellipse fill="none" stroke="black" cx="632.6" cy="-204.39" rx="181.97" ry="18"/>
<text text-anchor="middle" x="632.6" y="-200.69" font-family="Times,serif" font-size="14.00">Alexandre Barbosa,992883178 [fb:0]</text>
</g>
<!-- Alexandre Costa,982632579 [fb:0]&#45;&gt;Alexandre Barbosa,992883178 [fb:0] -->
<g id="edge6" class="edge">
<title>Alexandre Costa,982632579 [fb:0]&#45;&gt;Alexandre Barbosa,992883178 [fb:0]</title>
<path fill="none" stroke="black" d="M486.38,-258.98C513.72,-248.96 548.87,-236.07 577.86,-225.45"/>
<polygon fill="black" stroke="black" points="579.25,-228.67 587.44,-221.94 576.84,-222.1 579.25,-228.67"/>
</g>
<!-- N0 -->
<g id="node3" class="node">
<title>N0</title>
<ellipse fill="none" stroke="black" cx="28.6" cy="-121.79" rx="28.7" ry="28.7"/>
<text text-anchor="middle" x="28.6" y="-118.09" font-family="Times,serif" font-size="14.00">null</text>
</g>
<!-- Alberto Campos,960933788 [fb:1]&#45;&gt;N0 -->
<g id="edge2" class="edge">
<title>Alberto Campos,960933788 [fb:1]&#45;&gt;N0</title>
<path fill="none" stroke="black" d="M175.53,-188.33C140.9,-179.83 100.06,-167.43 65.6,-150.39 63.27,-149.24 60.94,-147.94 58.65,-146.54"/>
<polygon fill="black" stroke="black" points="60.31,-143.45 50.05,-140.82 56.43,-149.28 60.31,-143.45"/>
</g>
<!-- Alexandre Freitas,964642705 [fb:0] -->
<g id="node4" class="node">
<title>Alexandre Freitas,964642705 [fb:0]</title>
<ellipse fill="none" stroke="black" cx="251.6" cy="-121.79" rx="176.57" ry="18"/>
<text text-anchor="middle" x="251.6" y="-118.09" font-family="Times,serif" font-size="14.00">Alexandre Freitas,964642705 [fb:0]</text>
</g>
<!-- Alberto Campos,960933788 [fb:1]&#45;&gt;Alexandre Freitas,964642705 [fb:0] -->
<g id="edge3" class="edge">
<title>Alberto Campos,960933788 [fb:1]&#45;&gt;Alexandre Freitas,964642705 [fb:0]</title>
<path fill="none" stroke="black" d="M251.6,-186.3C251.6,-175.72 251.6,-161.9 251.6,-149.86"/>
<polygon fill="black" stroke="black" points="255.1,-149.86 251.6,-139.86 248.1,-149.86 255.1,-149.86"/>
</g>
<!-- N1 -->
<g id="node5" class="node">
<title>N1</title>
<ellipse fill="none" stroke="black" cx="214.6" cy="-28.6" rx="28.7" ry="28.7"/>
<text text-anchor="middle" x="214.6" y="-24.9" font-family="Times,serif" font-size="14.00">null</text>
</g>
<!-- Alexandre Freitas,964642705 [fb:0]&#45;&gt;N1 -->
<g id="edge4" class="edge">
<title>Alexandre Freitas,964642705 [fb:0]&#45;&gt;N1</title>
<path fill="none" stroke="black" d="M244.64,-103.64C240.19,-92.68 234.26,-78.07 228.85,-64.72"/>
<polygon fill="black" stroke="black" points="232.03,-63.25 225.02,-55.3 225.54,-65.88 232.03,-63.25"/>
</g>
<!-- N2 -->
<g id="node6" class="node">
<title>N2</title>
<ellipse fill="none" stroke="black" cx="289.6" cy="-28.6" rx="28.7" ry="28.7"/>
<text text-anchor="middle" x="289.6" y="-24.9" font-family="Times,serif" font-size="14.00">null</text>
</g>
<!-- Alexandre Freitas,964642705 [fb:0]&#45;&gt;N2 -->
<g id="edge5" class="edge">
<title>Alexandre Freitas,964642705 [fb:0]&#45;&gt;N2</title>
<path fill="none" stroke="black" d="M258.74,-103.64C263.31,-92.68 269.4,-78.07 274.96,-64.72"/>
<polygon fill="black" stroke="black" points="278.27,-65.87 278.89,-55.3 271.81,-63.18 278.27,-65.87"/>
</g>
<!-- Alexandre Machado,987340734 [fb:0] -->
<g id="node8" class="node">
<title>Alexandre Machado,987340734 [fb:0]</title>
<ellipse fill="none" stroke="black" cx="632.6" cy="-121.79" rx="185.77" ry="18"/>
<text text-anchor="middle" x="632.6" y="-118.09" font-family="Times,serif" font-size="14.00">Alexandre Machado,987340734 [fb:0]</text>
</g>
<!-- Alexandre Barbosa,992883178 [fb:0]&#45;&gt;Alexandre Machado,987340734 [fb:0] -->
<g id="edge7" class="edge">
<title>Alexandre Barbosa,992883178 [fb:0]&#45;&gt;Alexandre Machado,987340734 [fb:0]</title>
<path fill="none" stroke="black" d="M632.6,-186.3C632.6,-175.72 632.6,-161.9 632.6,-149.86"/>
<polygon fill="black" stroke="black" points="636.1,-149.86 632.6,-139.86 629.1,-149.86 636.1,-149.86"/>
</g>
<!-- Ana Farias,996598918 [fb:0] -->
<g id="node11" class="node">
<title>Ana Farias,996598918 [fb:0]</title>
<ellipse fill="none" stroke="black" cx="980.6" cy="-121.79" rx="143.77" ry="18"/>
<text text-anchor="middle" x="980.6" y="-118.09" font-family="Times,serif" font-size="14.00">Ana Farias,996598918 [fb:0]</text>
</g>
<!-- Alexandre Barbosa,992883178 [fb:0]&#45;&gt;Ana Farias,996598918 [fb:0] -->
<g id="edge10" class="edge">
<title>Alexandre Barbosa,992883178 [fb:0]&#45;&gt;Ana Farias,996598918 [fb:0]</title>
<path fill="none" stroke="black" d="M700.52,-187.66C759.45,-174.01 844.63,-154.28 905.55,-140.17"/>
<polygon fill="black" stroke="black" points="906.54,-143.54 915.49,-137.87 904.96,-136.72 906.54,-143.54"/>
</g>
<!-- N3 -->
<g id="node9" class="node">
<title>N3</title>
<ellipse fill="none" stroke="black" cx="594.6" cy="-28.6" rx="28.7" ry="28.7"/>
<text text-anchor="middle" x="594.6" y="-24.9" font-family="Times,serif" font-size="14.00">null</text>
</g>
<!-- Alexandre Machado,987340734 [fb:0]&#45;&gt;N3 -->
<g id="edge8" class="edge">
<title>Alexandre Machado,987340734 [fb:0]&#45;&gt;N3</title>
<path fill="none" stroke="black" d="M625.45,-103.64C620.88,-92.68 614.79,-78.07 609.23,-64.72"/>
<polygon fill="black" stroke="black" points="612.38,-63.18 605.31,-55.3 605.92,-65.87 612.38,-63.18"/>
</g>
<!-- N4 -->
<g id="node10" class="node">
<title>N4</title>
<ellipse fill="none" stroke="black" cx="669.6" cy="-28.6" rx="28.7" ry="28.7"/>
<text text-anchor="middle" x="669.6" y="-24.9" font-family="Times,serif" font-size="14.00">null</text>
</g>
<!-- Alexandre Machado,987340734 [fb:0]&#45;&gt;N4 -->
<g id="edge9" class="edge">
<title>Alexandre Machado,987340734 [fb:0]&#45;&gt;N4</title>
<path fill="none" stroke="black" d="M639.56,-103.64C644,-92.68 649.93,-78.07 655.35,-64.72"/>
<polygon fill="black" stroke="black" points="658.65,-65.88 659.17,-55.3 652.17,-63.25 658.65,-65.88"/>
</g>
<!-- N5 -->
<g id="node12" class="node">
<title>N5</title>
<ellipse fill="none" stroke="black" cx="942.6" cy="-28.6" rx="28.7" ry="28.7"/>
<text text-anchor="middle" x="942.6" y="-24.9" font-family="Times,serif" font-size="14.00">null</text>
</g>
<!-- Ana Farias,996598918 [fb:0]&#45;&gt;N5 -->
<g id="edge11" class="edge">
<title>Ana Farias,996598918 [fb:0]&#45;&gt;N5</title>
<path fill="none" stroke="black" d="M973.45,-103.64C968.88,-92.68 962.79,-78.07 957.23,-64.72"/>
<polygon fill="black" stroke="black" points="960.38,-63.18 953.31,-55.3 953.92,-65.87 960.38,-63.18"/>
</g>
<!-- N6 -->
<g id="node13" class="node">
<title>N6</title>
<ellipse fill="none" stroke="black" cx="1017.6" cy="-28.6" rx="28.7" ry="28.7"/>
<text text-anchor="middle" x="1017.6" y="-24.9" font-family="Times,serif" font-size="14.00">null</text>
</g>
<!-- Ana Farias,996598918 [fb:0]&#45;&gt;N6 -->
<g id="edge12" class="edge">
<title>Ana Farias,996598918 [fb:0]&#45;&gt;N6</title>
<path fill="none" stroke="black" d="M987.56,-103.64C992,-92.68 997.93,-78.07 1003.35,-64.72"/>
<polygon fill="black" stroke="black" points="1006.65,-65.88 1007.17,-55.3 1000.17,-63.25 1006.65,-65.88"/>
</g>
</g>
</svg>
