<?xml version="1.0" encoding="UTF-8" standalone="no"?>
<!DOCTYPE svg PUBLIC "-//W3C//DTD SVG 1.1//EN"
 "http://www.w3.org/Graphics/SVG/1.1/DTD/svg11.dtd">
<!-- Generated by graphviz version 2.43.0 (0)
 -->
<!-- Title: BST Pages: 1 -->
<svg width="223pt" height="163pt"
 viewBox="0.00 0.00 222.96 162.95" xmlns="http://www.w3.org/2000/svg" xmlns:xlink="http://www.w3.org/1999/xlink">
<g id="graph0" class="graph" transform="scale(1 1) rotate(0) translate(4 158.95)">
<title>BST</title>
<polygon fill="white" stroke="transparent" points="-4,4 -4,-158.95 218.96,-158.95 218.96,4 -4,4"/>
<!-- No_992883178 -->
<g id="node1" class="node">
<title>No_992883178</title>
<ellipse fill="none" stroke="black" cx="107.48" cy="-117.48" rx="107.46" ry="37.45"/>
<text text-anchor="middle" x="107.48" y="-128.78" font-family="Times,serif" font-size="14.00">Alexandre Barbosa</text>
<text text-anchor="middle" x="107.48" y="-113.78" font-family="Times,serif" font-size="14.00">992883178</text>
<text text-anchor="middle" x="107.48" y="-98.78" font-family="Times,serif" font-size="14.00">fb=0</text>
</g>
<!-- NUL_0 -->
<g id="node2" class="node">
<title>NUL_0</title>
<polygon fill="none" stroke="black" points="98.48,-44 54.48,-44 54.48,0 98.48,0 98.48,-44"/>
<text text-anchor="middle" x="76.48" y="-18.3" font-family="Times,serif" font-size="14.00">null</text>
</g>
<!-- No_992883178&#45;&gt;NUL_0 -->
<g id="edge1" class="edge">
<title>No_992883178&#45;&gt;NUL_0</title>
<path fill="none" stroke="black" d="M95.41,-80.07C92.5,-71.3 89.42,-62.02 86.61,-53.55"/>
<polygon fill="black" stroke="black" points="89.93,-52.45 83.46,-44.06 83.29,-54.65 89.93,-52.45"/>
</g>
<!-- NUL_1 -->
<g id="node3" class="node">
<title>NUL_1</title>
<polygon fill="none" stroke="black" points="160.48,-44 116.48,-44 116.48,0 160.48,0 160.48,-44"/>
<text text-anchor="middle" x="138.48" y="-18.3" font-family="Times,serif" font-size="14.00">null</text>
</g>
<!-- No_992883178&#45;&gt;NUL_1 -->
<g id="edge2" class="edge">
<title>No_992883178&#45;&gt;NUL_1</title>
<path fill="none" stroke="black" d="M119.55,-80.07C122.46,-71.3 125.54,-62.02 128.35,-53.55"/>
<polygon fill="black" stroke="black" points="131.67,-54.65 131.5,-44.06 125.03,-52.45 131.67,-54.65"/>
</g>
</g>
</svg>
