<?xml version="1.0" encoding="UTF-8" standalone="no"?>
<!DOCTYPE svg PUBLIC "-//W3C//DTD SVG 1.1//EN"
 "http://www.w3.org/Graphics/SVG/1.1/DTD/svg11.dtd">
<!-- Generated by graphviz version 2.43.0 (0)
 -->
<!-- Title: BST Pages: 1 -->
<svg width="2838pt" height="446pt"
 viewBox="0.00 0.00 2838.02 446.39" xmlns="http://www.w3.org/2000/svg" xmlns:xlink="http://www.w3.org/1999/xlink">
<g id="graph0" class="graph" transform="scale(1 1) rotate(0) translate(4 442.39)">
<title>BST</title>
<polygon fill="white" stroke="transparent" points="-4,4 -4,-442.39 2834.02,-442.39 2834.02,4 -4,4"/>
<!-- Alexandre Costa,982632579 [fb:1] -->
<g id="node1" class="node">
<title>Alexandre Costa,982632579 [fb:1]</title>
<ellipse fill="none" stroke="black" cx="1349.48" cy="-420.39" rx="170.07" ry="18"/>
<text text-anchor="middle" x="1349.48" y="-416.69" font-family="Times,serif" font-size="14.00">Alexandre Costa,982632579 [fb:1]</text>
</g>
<!-- Alexandre Freitas,964642705 [fb:0] -->
<g id="node2" class="node">
<title>Alexandre Freitas,964642705 [fb:0]</title>
<ellipse fill="none" stroke="black" cx="1021.48" cy="-348.39" rx="176.57" ry="18"/>
<text text-anchor="middle" x="1021.48" y="-344.69" font-family="Times,serif" font-size="14.00">Alexandre Freitas,964642705 [fb:0]</text>
</g>
<!-- Alexandre Costa,982632579 [fb:1]&#45;&gt;Alexandre Freitas,964642705 [fb:0] -->
<g id="edge1" class="edge">
<title>Alexandre Costa,982632579 [fb:1]&#45;&gt;Alexandre Freitas,964642705 [fb:0]</title>
<path fill="none" stroke="black" d="M1277.5,-404.03C1226.2,-393.08 1157.13,-378.34 1103.66,-366.93"/>
<polygon fill="black" stroke="black" points="1104.37,-363.5 1093.86,-364.84 1102.91,-370.35 1104.37,-363.5"/>
</g>
<!-- Alexandre Barbosa,992883178 [fb:&#45;1] -->
<g id="node17" class="node">
<title>Alexandre Barbosa,992883178 [fb:&#45;1]</title>
<ellipse fill="none" stroke="black" cx="1729.48" cy="-348.39" rx="184.67" ry="18"/>
<text text-anchor="middle" x="1729.48" y="-344.69" font-family="Times,serif" font-size="14.00">Alexandre Barbosa,992883178 [fb:&#45;1]</text>
</g>
<!-- Alexandre Costa,982632579 [fb:1]&#45;&gt;Alexandre Barbosa,992883178 [fb:&#45;1] -->
<g id="edge16" class="edge">
<title>Alexandre Costa,982632579 [fb:1]&#45;&gt;Alexandre Barbosa,992883178 [fb:&#45;1]</title>
<path fill="none" stroke="black" d="M1430.54,-404.46C1491.16,-393.29 1574.13,-378.01 1637.29,-366.37"/>
<polygon fill="black" stroke="black" points="1638.04,-369.79 1647.24,-364.54 1636.78,-362.91 1638.04,-369.79"/>
</g>
<!-- Alberto Campos,960933788 [fb:0] -->
<g id="node3" class="node">
<title>Alberto Campos,960933788 [fb:0]</title>
<ellipse fill="none" stroke="black" cx="530.48" cy="-276.39" rx="168.17" ry="18"/>
<text text-anchor="middle" x="530.48" y="-272.69" font-family="Times,serif" font-size="14.00">Alberto Campos,960933788 [fb:0]</text>
</g>
<!-- Alexandre Freitas,964642705 [fb:0]&#45;&gt;Alberto Campos,960933788 [fb:0] -->
<g id="edge2" class="edge">
<title>Alexandre Freitas,964642705 [fb:0]&#45;&gt;Alberto Campos,960933788 [fb:0]</title>
<path fill="none" stroke="black" d="M923.3,-333.39C840.53,-321.59 722.29,-304.73 637.19,-292.6"/>
<polygon fill="black" stroke="black" points="637.63,-289.13 627.24,-291.18 636.65,-296.06 637.63,-289.13"/>
</g>
<!-- Alfredo Martins,967387182 [fb:0] -->
<g id="node10" class="node">
<title>Alfredo Martins,967387182 [fb:0]</title>
<ellipse fill="none" stroke="black" cx="1021.48" cy="-276.39" rx="167.07" ry="18"/>
<text text-anchor="middle" x="1021.48" y="-272.69" font-family="Times,serif" font-size="14.00">Alfredo Martins,967387182 [fb:0]</text>
</g>
<!-- Alexandre Freitas,964642705 [fb:0]&#45;&gt;Alfredo Martins,967387182 [fb:0] -->
<g id="edge9" class="edge">
<title>Alexandre Freitas,964642705 [fb:0]&#45;&gt;Alfredo Martins,967387182 [fb:0]</title>
<path fill="none" stroke="black" d="M1021.48,-330.09C1021.48,-322.37 1021.48,-313.1 1021.48,-304.5"/>
<polygon fill="black" stroke="black" points="1024.98,-304.49 1021.48,-294.49 1017.98,-304.49 1024.98,-304.49"/>
</g>
<!-- Alexandre Santos,955838599 [fb:0] -->
<g id="node4" class="node">
<title>Alexandre Santos,955838599 [fb:0]</title>
<ellipse fill="none" stroke="black" cx="175.48" cy="-204.39" rx="175.47" ry="18"/>
<text text-anchor="middle" x="175.48" y="-200.69" font-family="Times,serif" font-size="14.00">Alexandre Santos,955838599 [fb:0]</text>
</g>
<!-- Alberto Campos,960933788 [fb:0]&#45;&gt;Alexandre Santos,955838599 [fb:0] -->
<g id="edge3" class="edge">
<title>Alberto Campos,960933788 [fb:0]&#45;&gt;Alexandre Santos,955838599 [fb:0]</title>
<path fill="none" stroke="black" d="M453.89,-260.29C397.63,-249.19 321.11,-234.1 262.53,-222.55"/>
<polygon fill="black" stroke="black" points="263.04,-219.09 252.55,-220.59 261.69,-225.95 263.04,-219.09"/>
</g>
<!-- Andrea Santos,960933790 [fb:0] -->
<g id="node7" class="node">
<title>Andrea Santos,960933790 [fb:0]</title>
<ellipse fill="none" stroke="black" cx="530.48" cy="-204.39" rx="161.67" ry="18"/>
<text text-anchor="middle" x="530.48" y="-200.69" font-family="Times,serif" font-size="14.00">Andrea Santos,960933790 [fb:0]</text>
</g>
<!-- Alberto Campos,960933788 [fb:0]&#45;&gt;Andrea Santos,960933790 [fb:0] -->
<g id="edge6" class="edge">
<title>Alberto Campos,960933788 [fb:0]&#45;&gt;Andrea Santos,960933790 [fb:0]</title>
<path fill="none" stroke="black" d="M530.48,-258.09C530.48,-250.37 530.48,-241.1 530.48,-232.5"/>
<polygon fill="black" stroke="black" points="533.98,-232.49 530.48,-222.49 526.98,-232.49 533.98,-232.49"/>
</g>
<!-- N0 -->
<g id="node5" class="node">
<title>N0</title>
<ellipse fill="none" stroke="black" cx="138.48" cy="-121.79" rx="28.7" ry="28.7"/>
<text text-anchor="middle" x="138.48" y="-118.09" font-family="Times,serif" font-size="14.00">null</text>
</g>
<!-- Alexandre Santos,955838599 [fb:0]&#45;&gt;N0 -->
<g id="edge4" class="edge">
<title>Alexandre Santos,955838599 [fb:0]&#45;&gt;N0</title>
<path fill="none" stroke="black" d="M167.64,-186.3C163.78,-177.89 158.98,-167.45 154.4,-157.47"/>
<polygon fill="black" stroke="black" points="157.47,-155.76 150.12,-148.13 151.11,-158.68 157.47,-155.76"/>
</g>
<!-- N1 -->
<g id="node6" class="node">
<title>N1</title>
<ellipse fill="none" stroke="black" cx="213.48" cy="-121.79" rx="28.7" ry="28.7"/>
<text text-anchor="middle" x="213.48" y="-118.09" font-family="Times,serif" font-size="14.00">null</text>
</g>
<!-- Alexandre Santos,955838599 [fb:0]&#45;&gt;N1 -->
<g id="edge5" class="edge">
<title>Alexandre Santos,955838599 [fb:0]&#45;&gt;N1</title>
<path fill="none" stroke="black" d="M183.54,-186.3C187.51,-177.89 192.43,-167.45 197.14,-157.47"/>
<polygon fill="black" stroke="black" points="200.44,-158.67 201.54,-148.13 194.11,-155.68 200.44,-158.67"/>
</g>
<!-- N2 -->
<g id="node8" class="node">
<title>N2</title>
<ellipse fill="none" stroke="black" cx="492.48" cy="-121.79" rx="28.7" ry="28.7"/>
<text text-anchor="middle" x="492.48" y="-118.09" font-family="Times,serif" font-size="14.00">null</text>
</g>
<!-- Andrea Santos,960933790 [fb:0]&#45;&gt;N2 -->
<g id="edge7" class="edge">
<title>Andrea Santos,960933790 [fb:0]&#45;&gt;N2</title>
<path fill="none" stroke="black" d="M522.43,-186.3C518.46,-177.89 513.54,-167.45 508.83,-157.47"/>
<polygon fill="black" stroke="black" points="511.86,-155.68 504.43,-148.13 505.53,-158.67 511.86,-155.68"/>
</g>
<!-- N3 -->
<g id="node9" class="node">
<title>N3</title>
<ellipse fill="none" stroke="black" cx="567.48" cy="-121.79" rx="28.7" ry="28.7"/>
<text text-anchor="middle" x="567.48" y="-118.09" font-family="Times,serif" font-size="14.00">null</text>
</g>
<!-- Andrea Santos,960933790 [fb:0]&#45;&gt;N3 -->
<g id="edge8" class="edge">
<title>Andrea Santos,960933790 [fb:0]&#45;&gt;N3</title>
<path fill="none" stroke="black" d="M538.33,-186.3C542.19,-177.89 546.99,-167.45 551.57,-157.47"/>
<polygon fill="black" stroke="black" points="554.86,-158.68 555.85,-148.13 548.5,-155.76 554.86,-158.68"/>
</g>
<!-- Ana Barbosa,965115082 [fb:0] -->
<g id="node11" class="node">
<title>Ana Barbosa,965115082 [fb:0]</title>
<ellipse fill="none" stroke="black" cx="863.48" cy="-204.39" rx="152.97" ry="18"/>
<text text-anchor="middle" x="863.48" y="-200.69" font-family="Times,serif" font-size="14.00">Ana Barbosa,965115082 [fb:0]</text>
</g>
<!-- Alfredo Martins,967387182 [fb:0]&#45;&gt;Ana Barbosa,965115082 [fb:0] -->
<g id="edge10" class="edge">
<title>Alfredo Martins,967387182 [fb:0]&#45;&gt;Ana Barbosa,965115082 [fb:0]</title>
<path fill="none" stroke="black" d="M984.04,-258.8C961.9,-248.99 933.68,-236.49 910.11,-226.05"/>
<polygon fill="black" stroke="black" points="911.22,-222.71 900.66,-221.86 908.38,-229.11 911.22,-222.71"/>
</g>
<!-- Altair Souza,975960513 [fb:0] -->
<g id="node14" class="node">
<title>Altair Souza,975960513 [fb:0]</title>
<ellipse fill="none" stroke="black" cx="1185.48" cy="-204.39" rx="150.57" ry="18"/>
<text text-anchor="middle" x="1185.48" y="-200.69" font-family="Times,serif" font-size="14.00">Altair Souza,975960513 [fb:0]</text>
</g>
<!-- Alfredo Martins,967387182 [fb:0]&#45;&gt;Altair Souza,975960513 [fb:0] -->
<g id="edge13" class="edge">
<title>Alfredo Martins,967387182 [fb:0]&#45;&gt;Altair Souza,975960513 [fb:0]</title>
<path fill="none" stroke="black" d="M1060.35,-258.8C1083.43,-248.95 1112.88,-236.38 1137.41,-225.91"/>
<polygon fill="black" stroke="black" points="1139.07,-229 1146.9,-221.86 1136.33,-222.57 1139.07,-229"/>
</g>
<!-- N4 -->
<g id="node12" class="node">
<title>N4</title>
<ellipse fill="none" stroke="black" cx="825.48" cy="-121.79" rx="28.7" ry="28.7"/>
<text text-anchor="middle" x="825.48" y="-118.09" font-family="Times,serif" font-size="14.00">null</text>
</g>
<!-- Ana Barbosa,965115082 [fb:0]&#45;&gt;N4 -->
<g id="edge11" class="edge">
<title>Ana Barbosa,965115082 [fb:0]&#45;&gt;N4</title>
<path fill="none" stroke="black" d="M855.43,-186.3C851.46,-177.89 846.54,-167.45 841.83,-157.47"/>
<polygon fill="black" stroke="black" points="844.86,-155.68 837.43,-148.13 838.53,-158.67 844.86,-155.68"/>
</g>
<!-- N5 -->
<g id="node13" class="node">
<title>N5</title>
<ellipse fill="none" stroke="black" cx="900.48" cy="-121.79" rx="28.7" ry="28.7"/>
<text text-anchor="middle" x="900.48" y="-118.09" font-family="Times,serif" font-size="14.00">null</text>
</g>
<!-- Ana Barbosa,965115082 [fb:0]&#45;&gt;N5 -->
<g id="edge12" class="edge">
<title>Ana Barbosa,965115082 [fb:0]&#45;&gt;N5</title>
<path fill="none" stroke="black" d="M871.33,-186.3C875.19,-177.89 879.99,-167.45 884.57,-157.47"/>
<polygon fill="black" stroke="black" points="887.86,-158.68 888.85,-148.13 881.5,-155.76 887.86,-158.68"/>
</g>
<!-- N6 -->
<g id="node15" class="node">
<title>N6</title>
<ellipse fill="none" stroke="black" cx="1145.48" cy="-121.79" rx="28.7" ry="28.7"/>
<text text-anchor="middle" x="1145.48" y="-118.09" font-family="Times,serif" font-size="14.00">null</text>
</g>
<!-- Altair Souza,975960513 [fb:0]&#45;&gt;N6 -->
<g id="edge14" class="edge">
<title>Altair Souza,975960513 [fb:0]&#45;&gt;N6</title>
<path fill="none" stroke="black" d="M1177,-186.3C1172.75,-177.74 1167.45,-167.05 1162.42,-156.91"/>
<polygon fill="black" stroke="black" points="1165.49,-155.22 1157.9,-147.82 1159.21,-158.33 1165.49,-155.22"/>
</g>
<!-- N7 -->
<g id="node16" class="node">
<title>N7</title>
<ellipse fill="none" stroke="black" cx="1220.48" cy="-121.79" rx="28.7" ry="28.7"/>
<text text-anchor="middle" x="1220.48" y="-118.09" font-family="Times,serif" font-size="14.00">null</text>
</g>
<!-- Altair Souza,975960513 [fb:0]&#45;&gt;N7 -->
<g id="edge15" class="edge">
<title>Altair Souza,975960513 [fb:0]&#45;&gt;N7</title>
<path fill="none" stroke="black" d="M1192.91,-186.3C1196.53,-177.96 1201.02,-167.62 1205.32,-157.72"/>
<polygon fill="black" stroke="black" points="1208.57,-159.01 1209.35,-148.44 1202.15,-156.22 1208.57,-159.01"/>
</g>
<!-- Alexandre Machado,987340734 [fb:&#45;1] -->
<g id="node18" class="node">
<title>Alexandre Machado,987340734 [fb:&#45;1]</title>
<ellipse fill="none" stroke="black" cx="1729.48" cy="-276.39" rx="188.47" ry="18"/>
<text text-anchor="middle" x="1729.48" y="-272.69" font-family="Times,serif" font-size="14.00">Alexandre Machado,987340734 [fb:&#45;1]</text>
</g>
<!-- Alexandre Barbosa,992883178 [fb:&#45;1]&#45;&gt;Alexandre Machado,987340734 [fb:&#45;1] -->
<g id="edge17" class="edge">
<title>Alexandre Barbosa,992883178 [fb:&#45;1]&#45;&gt;Alexandre Machado,987340734 [fb:&#45;1]</title>
<path fill="none" stroke="black" d="M1729.48,-330.09C1729.48,-322.37 1729.48,-313.1 1729.48,-304.5"/>
<polygon fill="black" stroke="black" points="1732.98,-304.49 1729.48,-294.49 1725.98,-304.49 1732.98,-304.49"/>
</g>
<!-- Ana Farias,996598918 [fb:0] -->
<g id="node27" class="node">
<title>Ana Farias,996598918 [fb:0]</title>
<ellipse fill="none" stroke="black" cx="2290.48" cy="-276.39" rx="143.77" ry="18"/>
<text text-anchor="middle" x="2290.48" y="-272.69" font-family="Times,serif" font-size="14.00">Ana Farias,996598918 [fb:0]</text>
</g>
<!-- Alexandre Barbosa,992883178 [fb:&#45;1]&#45;&gt;Ana Farias,996598918 [fb:0] -->
<g id="edge26" class="edge">
<title>Alexandre Barbosa,992883178 [fb:&#45;1]&#45;&gt;Ana Farias,996598918 [fb:0]</title>
<path fill="none" stroke="black" d="M1838.32,-333.81C1937.66,-321.41 2083.7,-303.19 2182.71,-290.84"/>
<polygon fill="black" stroke="black" points="2183.25,-294.3 2192.74,-289.59 2182.39,-287.35 2183.25,-294.3"/>
</g>
<!-- Américo Rodrigues,986979432 [fb:&#45;1] -->
<g id="node19" class="node">
<title>Américo Rodrigues,986979432 [fb:&#45;1]</title>
<ellipse fill="none" stroke="black" cx="1539.48" cy="-204.39" rx="185.47" ry="18"/>
<text text-anchor="middle" x="1539.48" y="-200.69" font-family="Times,serif" font-size="14.00">Américo Rodrigues,986979432 [fb:&#45;1]</text>
</g>
<!-- Alexandre Machado,987340734 [fb:&#45;1]&#45;&gt;Américo Rodrigues,986979432 [fb:&#45;1] -->
<g id="edge18" class="edge">
<title>Alexandre Machado,987340734 [fb:&#45;1]&#45;&gt;Américo Rodrigues,986979432 [fb:&#45;1]</title>
<path fill="none" stroke="black" d="M1684.46,-258.8C1657.25,-248.78 1622.39,-235.93 1593.67,-225.35"/>
<polygon fill="black" stroke="black" points="1594.78,-222.03 1584.19,-221.86 1592.36,-228.6 1594.78,-222.03"/>
</g>
<!-- Alexandre Pereira,987671978 [fb:0] -->
<g id="node24" class="node">
<title>Alexandre Pereira,987671978 [fb:0]</title>
<ellipse fill="none" stroke="black" cx="1920.48" cy="-204.39" rx="177.37" ry="18"/>
<text text-anchor="middle" x="1920.48" y="-200.69" font-family="Times,serif" font-size="14.00">Alexandre Pereira,987671978 [fb:0]</text>
</g>
<!-- Alexandre Machado,987340734 [fb:&#45;1]&#45;&gt;Alexandre Pereira,987671978 [fb:0] -->
<g id="edge23" class="edge">
<title>Alexandre Machado,987340734 [fb:&#45;1]&#45;&gt;Alexandre Pereira,987671978 [fb:0]</title>
<path fill="none" stroke="black" d="M1774.75,-258.8C1802.1,-248.78 1837.15,-235.93 1866.01,-225.35"/>
<polygon fill="black" stroke="black" points="1867.36,-228.59 1875.55,-221.86 1864.95,-222.01 1867.36,-228.59"/>
</g>
<!-- Andrea Campos,985278999 [fb:0] -->
<g id="node20" class="node">
<title>Andrea Campos,985278999 [fb:0]</title>
<ellipse fill="none" stroke="black" cx="1469.48" cy="-121.79" rx="167.07" ry="18"/>
<text text-anchor="middle" x="1469.48" y="-118.09" font-family="Times,serif" font-size="14.00">Andrea Campos,985278999 [fb:0]</text>
</g>
<!-- Américo Rodrigues,986979432 [fb:&#45;1]&#45;&gt;Andrea Campos,985278999 [fb:0] -->
<g id="edge19" class="edge">
<title>Américo Rodrigues,986979432 [fb:&#45;1]&#45;&gt;Andrea Campos,985278999 [fb:0]</title>
<path fill="none" stroke="black" d="M1524.64,-186.3C1514.89,-175.08 1501.99,-160.22 1491.11,-147.69"/>
<polygon fill="black" stroke="black" points="1493.51,-145.12 1484.31,-139.86 1488.22,-149.71 1493.51,-145.12"/>
</g>
<!-- N10 -->
<g id="node23" class="node">
<title>N10</title>
<ellipse fill="none" stroke="black" cx="1683.48" cy="-121.79" rx="28.7" ry="28.7"/>
<text text-anchor="middle" x="1683.48" y="-118.09" font-family="Times,serif" font-size="14.00">null</text>
</g>
<!-- Américo Rodrigues,986979432 [fb:&#45;1]&#45;&gt;N10 -->
<g id="edge22" class="edge">
<title>Américo Rodrigues,986979432 [fb:&#45;1]&#45;&gt;N10</title>
<path fill="none" stroke="black" d="M1576.59,-186.68C1597.3,-176.9 1623.33,-163.85 1645.48,-150.39 1647.74,-149.02 1650.03,-147.55 1652.32,-146.04"/>
<polygon fill="black" stroke="black" points="1654.75,-148.61 1660.99,-140.06 1650.77,-142.85 1654.75,-148.61"/>
</g>
<!-- N8 -->
<g id="node21" class="node">
<title>N8</title>
<ellipse fill="none" stroke="black" cx="1432.48" cy="-28.6" rx="28.7" ry="28.7"/>
<text text-anchor="middle" x="1432.48" y="-24.9" font-family="Times,serif" font-size="14.00">null</text>
</g>
<!-- Andrea Campos,985278999 [fb:0]&#45;&gt;N8 -->
<g id="edge20" class="edge">
<title>Andrea Campos,985278999 [fb:0]&#45;&gt;N8</title>
<path fill="none" stroke="black" d="M1462.53,-103.64C1458.08,-92.68 1452.15,-78.07 1446.73,-64.72"/>
<polygon fill="black" stroke="black" points="1449.91,-63.25 1442.91,-55.3 1443.43,-65.88 1449.91,-63.25"/>
</g>
<!-- N9 -->
<g id="node22" class="node">
<title>N9</title>
<ellipse fill="none" stroke="black" cx="1507.48" cy="-28.6" rx="28.7" ry="28.7"/>
<text text-anchor="middle" x="1507.48" y="-24.9" font-family="Times,serif" font-size="14.00">null</text>
</g>
<!-- Andrea Campos,985278999 [fb:0]&#45;&gt;N9 -->
<g id="edge21" class="edge">
<title>Andrea Campos,985278999 [fb:0]&#45;&gt;N9</title>
<path fill="none" stroke="black" d="M1476.63,-103.64C1481.2,-92.68 1487.29,-78.07 1492.85,-64.72"/>
<polygon fill="black" stroke="black" points="1496.16,-65.87 1496.78,-55.3 1489.7,-63.18 1496.16,-65.87"/>
</g>
<!-- N11 -->
<g id="node25" class="node">
<title>N11</title>
<ellipse fill="none" stroke="black" cx="1882.48" cy="-121.79" rx="28.7" ry="28.7"/>
<text text-anchor="middle" x="1882.48" y="-118.09" font-family="Times,serif" font-size="14.00">null</text>
</g>
<!-- Alexandre Pereira,987671978 [fb:0]&#45;&gt;N11 -->
<g id="edge24" class="edge">
<title>Alexandre Pereira,987671978 [fb:0]&#45;&gt;N11</title>
<path fill="none" stroke="black" d="M1912.43,-186.3C1908.46,-177.89 1903.54,-167.45 1898.83,-157.47"/>
<polygon fill="black" stroke="black" points="1901.86,-155.68 1894.43,-148.13 1895.53,-158.67 1901.86,-155.68"/>
</g>
<!-- N12 -->
<g id="node26" class="node">
<title>N12</title>
<ellipse fill="none" stroke="black" cx="1957.48" cy="-121.79" rx="28.7" ry="28.7"/>
<text text-anchor="middle" x="1957.48" y="-118.09" font-family="Times,serif" font-size="14.00">null</text>
</g>
<!-- Alexandre Pereira,987671978 [fb:0]&#45;&gt;N12 -->
<g id="edge25" class="edge">
<title>Alexandre Pereira,987671978 [fb:0]&#45;&gt;N12</title>
<path fill="none" stroke="black" d="M1928.33,-186.3C1932.19,-177.89 1936.99,-167.45 1941.57,-157.47"/>
<polygon fill="black" stroke="black" points="1944.86,-158.68 1945.85,-148.13 1938.5,-155.76 1944.86,-158.68"/>
</g>
<!-- Alexandra Moura,994116870 [fb:0] -->
<g id="node28" class="node">
<title>Alexandra Moura,994116870 [fb:0]</title>
<ellipse fill="none" stroke="black" cx="2290.48" cy="-204.39" rx="174.37" ry="18"/>
<text text-anchor="middle" x="2290.48" y="-200.69" font-family="Times,serif" font-size="14.00">Alexandra Moura,994116870 [fb:0]</text>
</g>
<!-- Ana Farias,996598918 [fb:0]&#45;&gt;Alexandra Moura,994116870 [fb:0] -->
<g id="edge27" class="edge">
<title>Ana Farias,996598918 [fb:0]&#45;&gt;Alexandra Moura,994116870 [fb:0]</title>
<path fill="none" stroke="black" d="M2290.48,-258.09C2290.48,-250.37 2290.48,-241.1 2290.48,-232.5"/>
<polygon fill="black" stroke="black" points="2293.98,-232.49 2290.48,-222.49 2286.98,-232.49 2293.98,-232.49"/>
</g>
<!-- Alexandre Torres,997285865 [fb:0] -->
<g id="node31" class="node">
<title>Alexandre Torres,997285865 [fb:0]</title>
<ellipse fill="none" stroke="black" cx="2656.48" cy="-204.39" rx="173.57" ry="18"/>
<text text-anchor="middle" x="2656.48" y="-200.69" font-family="Times,serif" font-size="14.00">Alexandre Torres,997285865 [fb:0]</text>
</g>
<!-- Ana Farias,996598918 [fb:0]&#45;&gt;Alexandre Torres,997285865 [fb:0] -->
<g id="edge30" class="edge">
<title>Ana Farias,996598918 [fb:0]&#45;&gt;Alexandre Torres,997285865 [fb:0]</title>
<path fill="none" stroke="black" d="M2365.88,-260.97C2424.45,-249.77 2505.84,-234.2 2567.59,-222.39"/>
<polygon fill="black" stroke="black" points="2568.55,-225.77 2577.71,-220.46 2567.23,-218.9 2568.55,-225.77"/>
</g>
<!-- N13 -->
<g id="node29" class="node">
<title>N13</title>
<ellipse fill="none" stroke="black" cx="2252.48" cy="-121.79" rx="28.7" ry="28.7"/>
<text text-anchor="middle" x="2252.48" y="-118.09" font-family="Times,serif" font-size="14.00">null</text>
</g>
<!-- Alexandra Moura,994116870 [fb:0]&#45;&gt;N13 -->
<g id="edge28" class="edge">
<title>Alexandra Moura,994116870 [fb:0]&#45;&gt;N13</title>
<path fill="none" stroke="black" d="M2282.43,-186.3C2278.46,-177.89 2273.54,-167.45 2268.83,-157.47"/>
<polygon fill="black" stroke="black" points="2271.86,-155.68 2264.43,-148.13 2265.53,-158.67 2271.86,-155.68"/>
</g>
<!-- N14 -->
<g id="node30" class="node">
<title>N14</title>
<ellipse fill="none" stroke="black" cx="2327.48" cy="-121.79" rx="28.7" ry="28.7"/>
<text text-anchor="middle" x="2327.48" y="-118.09" font-family="Times,serif" font-size="14.00">null</text>
</g>
<!-- Alexandra Moura,994116870 [fb:0]&#45;&gt;N14 -->
<g id="edge29" class="edge">
<title>Alexandra Moura,994116870 [fb:0]&#45;&gt;N14</title>
<path fill="none" stroke="black" d="M2298.33,-186.3C2302.19,-177.89 2306.99,-167.45 2311.57,-157.47"/>
<polygon fill="black" stroke="black" points="2314.86,-158.68 2315.85,-148.13 2308.5,-155.76 2314.86,-158.68"/>
</g>
<!-- N15 -->
<g id="node32" class="node">
<title>N15</title>
<ellipse fill="none" stroke="black" cx="2618.48" cy="-121.79" rx="28.7" ry="28.7"/>
<text text-anchor="middle" x="2618.48" y="-118.09" font-family="Times,serif" font-size="14.00">null</text>
</g>
<!-- Alexandre Torres,997285865 [fb:0]&#45;&gt;N15 -->
<g id="edge31" class="edge">
<title>Alexandre Torres,997285865 [fb:0]&#45;&gt;N15</title>
<path fill="none" stroke="black" d="M2648.43,-186.3C2644.46,-177.89 2639.54,-167.45 2634.83,-157.47"/>
<polygon fill="black" stroke="black" points="2637.86,-155.68 2630.43,-148.13 2631.53,-158.67 2637.86,-155.68"/>
</g>
<!-- N16 -->
<g id="node33" class="node">
<title>N16</title>
<ellipse fill="none" stroke="black" cx="2693.48" cy="-121.79" rx="28.7" ry="28.7"/>
<text text-anchor="middle" x="2693.48" y="-118.09" font-family="Times,serif" font-size="14.00">null</text>
</g>
<!-- Alexandre Torres,997285865 [fb:0]&#45;&gt;N16 -->
<g id="edge32" class="edge">
<title>Alexandre Torres,997285865 [fb:0]&#45;&gt;N16</title>
<path fill="none" stroke="black" d="M2664.33,-186.3C2668.19,-177.89 2672.99,-167.45 2677.57,-157.47"/>
<polygon fill="black" stroke="black" points="2680.86,-158.68 2681.85,-148.13 2674.5,-155.76 2680.86,-158.68"/>
</g>
</g>
</svg>
