<?xml version="1.0" encoding="UTF-8" standalone="no"?>
<!DOCTYPE svg PUBLIC "-//W3C//DTD SVG 1.1//EN"
 "http://www.w3.org/Graphics/SVG/1.1/DTD/svg11.dtd">
<!-- Generated by graphviz version 2.43.0 (0)
 -->
<!-- Title: BST Pages: 1 -->
<svg width="426pt" height="274pt"
 viewBox="0.00 0.00 426.11 273.91" xmlns="http://www.w3.org/2000/svg" xmlns:xlink="http://www.w3.org/1999/xlink">
<g id="graph0" class="graph" transform="scale(1 1) rotate(0) translate(4 269.91)">
<title>BST</title>
<polygon fill="white" stroke="transparent" points="-4,4 -4,-269.91 422.11,-269.91 422.11,4 -4,4"/>
<!-- No_982632579 -->
<g id="node1" class="node">
<title>No_982632579</title>
<ellipse fill="none" stroke="black" cx="201.63" cy="-228.43" rx="69.09" ry="37.45"/>
<text text-anchor="middle" x="201.63" y="-239.73" font-family="Times,serif" font-size="14.00">Abel Costa</text>
<text text-anchor="middle" x="201.63" y="-224.73" font-family="Times,serif" font-size="14.00">982632579</text>
<text text-anchor="middle" x="201.63" y="-209.73" font-family="Times,serif" font-size="14.00">fb=0</text>
</g>
<!-- No_960933788 -->
<g id="node2" class="node">
<title>No_960933788</title>
<ellipse fill="none" stroke="black" cx="92.63" cy="-117.48" rx="92.76" ry="37.45"/>
<text text-anchor="middle" x="92.63" y="-128.78" font-family="Times,serif" font-size="14.00">Alberto Campos</text>
<text text-anchor="middle" x="92.63" y="-113.78" font-family="Times,serif" font-size="14.00">960933788</text>
<text text-anchor="middle" x="92.63" y="-98.78" font-family="Times,serif" font-size="14.00">fb=0</text>
</g>
<!-- No_982632579&#45;&gt;No_960933788 -->
<g id="edge1" class="edge">
<title>No_982632579&#45;&gt;No_960933788</title>
<path fill="none" stroke="black" d="M169.22,-195.04C158.1,-183.92 145.5,-171.33 133.78,-159.61"/>
<polygon fill="black" stroke="black" points="136.17,-157.04 126.62,-152.45 131.22,-161.99 136.17,-157.04"/>
</g>
<!-- No_992883178 -->
<g id="node5" class="node">
<title>No_992883178</title>
<ellipse fill="none" stroke="black" cx="310.63" cy="-117.48" rx="107.46" ry="37.45"/>
<text text-anchor="middle" x="310.63" y="-128.78" font-family="Times,serif" font-size="14.00">Alexandre Barbosa</text>
<text text-anchor="middle" x="310.63" y="-113.78" font-family="Times,serif" font-size="14.00">992883178</text>
<text text-anchor="middle" x="310.63" y="-98.78" font-family="Times,serif" font-size="14.00">fb=0</text>
</g>
<!-- No_982632579&#45;&gt;No_992883178 -->
<g id="edge4" class="edge">
<title>No_982632579&#45;&gt;No_992883178</title>
<path fill="none" stroke="black" d="M234.04,-195.04C244.85,-184.23 257.06,-172.03 268.5,-160.59"/>
<polygon fill="black" stroke="black" points="271.28,-162.76 275.88,-153.21 266.33,-157.81 271.28,-162.76"/>
</g>
<!-- NUL_0 -->
<g id="node3" class="node">
<title>NUL_0</title>
<polygon fill="none" stroke="black" points="83.63,-44 39.63,-44 39.63,0 83.63,0 83.63,-44"/>
<text text-anchor="middle" x="61.63" y="-18.3" font-family="Times,serif" font-size="14.00">null</text>
</g>
<!-- No_960933788&#45;&gt;NUL_0 -->
<g id="edge2" class="edge">
<title>No_960933788&#45;&gt;NUL_0</title>
<path fill="none" stroke="black" d="M80.56,-80.07C77.65,-71.3 74.57,-62.02 71.76,-53.55"/>
<polygon fill="black" stroke="black" points="75.08,-52.45 68.61,-44.06 68.44,-54.65 75.08,-52.45"/>
</g>
<!-- NUL_1 -->
<g id="node4" class="node">
<title>NUL_1</title>
<polygon fill="none" stroke="black" points="145.63,-44 101.63,-44 101.63,0 145.63,0 145.63,-44"/>
<text text-anchor="middle" x="123.63" y="-18.3" font-family="Times,serif" font-size="14.00">null</text>
</g>
<!-- No_960933788&#45;&gt;NUL_1 -->
<g id="edge3" class="edge">
<title>No_960933788&#45;&gt;NUL_1</title>
<path fill="none" stroke="black" d="M104.71,-80.07C107.61,-71.3 110.69,-62.02 113.5,-53.55"/>
<polygon fill="black" stroke="black" points="116.82,-54.65 116.65,-44.06 110.18,-52.45 116.82,-54.65"/>
</g>
<!-- NUL_2 -->
<g id="node6" class="node">
<title>NUL_2</title>
<polygon fill="none" stroke="black" points="301.63,-44 257.63,-44 257.63,0 301.63,0 301.63,-44"/>
<text text-anchor="middle" x="279.63" y="-18.3" font-family="Times,serif" font-size="14.00">null</text>
</g>
<!-- No_992883178&#45;&gt;NUL_2 -->
<g id="edge5" class="edge">
<title>No_992883178&#45;&gt;NUL_2</title>
<path fill="none" stroke="black" d="M298.56,-80.07C295.65,-71.3 292.57,-62.02 289.76,-53.55"/>
<polygon fill="black" stroke="black" points="293.08,-52.45 286.61,-44.06 286.44,-54.65 293.08,-52.45"/>
</g>
<!-- NUL_3 -->
<g id="node7" class="node">
<title>NUL_3</title>
<polygon fill="none" stroke="black" points="363.63,-44 319.63,-44 319.63,0 363.63,0 363.63,-44"/>
<text text-anchor="middle" x="341.63" y="-18.3" font-family="Times,serif" font-size="14.00">null</text>
</g>
<!-- No_992883178&#45;&gt;NUL_3 -->
<g id="edge6" class="edge">
<title>No_992883178&#45;&gt;NUL_3</title>
<path fill="none" stroke="black" d="M322.71,-80.07C325.61,-71.3 328.69,-62.02 331.5,-53.55"/>
<polygon fill="black" stroke="black" points="334.82,-54.65 334.65,-44.06 328.18,-52.45 334.82,-54.65"/>
</g>
</g>
</svg>
