<?xml version="1.0" encoding="UTF-8" standalone="no"?>
<!DOCTYPE svg PUBLIC "-//W3C//DTD SVG 1.1//EN"
 "http://www.w3.org/Graphics/SVG/1.1/DTD/svg11.dtd">
<!-- Generated by graphviz version 2.43.0 (0)
 -->
<!-- Title: BST Pages: 1 -->
<svg width="1371pt" height="496pt"
 viewBox="0.00 0.00 1370.91 495.81" xmlns="http://www.w3.org/2000/svg" xmlns:xlink="http://www.w3.org/1999/xlink">
<g id="graph0" class="graph" transform="scale(1 1) rotate(0) translate(4 491.81)">
<title>BST</title>
<polygon fill="white" stroke="transparent" points="-4,4 -4,-491.81 1366.91,-491.81 1366.91,4 -4,4"/>
<!-- No_982632579 -->
<g id="node1" class="node">
<title>No_982632579</title>
<ellipse fill="none" stroke="black" cx="553.95" cy="-450.34" rx="69.09" ry="37.45"/>
<text text-anchor="middle" x="553.95" y="-461.64" font-family="Times,serif" font-size="14.00">Abel Costa</text>
<text text-anchor="middle" x="553.95" y="-446.64" font-family="Times,serif" font-size="14.00">982632579</text>
<text text-anchor="middle" x="553.95" y="-431.64" font-family="Times,serif" font-size="14.00">fb=0</text>
</g>
<!-- No_964642705 -->
<g id="node2" class="node">
<title>No_964642705</title>
<ellipse fill="none" stroke="black" cx="449.95" cy="-339.38" rx="78.48" ry="37.45"/>
<text text-anchor="middle" x="449.95" y="-350.68" font-family="Times,serif" font-size="14.00">Alícia Freitas</text>
<text text-anchor="middle" x="449.95" y="-335.68" font-family="Times,serif" font-size="14.00">964642705</text>
<text text-anchor="middle" x="449.95" y="-320.68" font-family="Times,serif" font-size="14.00">fb=0</text>
</g>
<!-- No_982632579&#45;&gt;No_964642705 -->
<g id="edge1" class="edge">
<title>No_982632579&#45;&gt;No_964642705</title>
<path fill="none" stroke="black" d="M522.75,-416.65C512.15,-405.54 500.17,-392.99 489.03,-381.32"/>
<polygon fill="black" stroke="black" points="491.29,-378.62 481.85,-373.8 486.23,-383.45 491.29,-378.62"/>
</g>
<!-- No_992883178 -->
<g id="node15" class="node">
<title>No_992883178</title>
<ellipse fill="none" stroke="black" cx="693.95" cy="-339.38" rx="107.46" ry="37.45"/>
<text text-anchor="middle" x="693.95" y="-350.68" font-family="Times,serif" font-size="14.00">Alexandre Barbosa</text>
<text text-anchor="middle" x="693.95" y="-335.68" font-family="Times,serif" font-size="14.00">992883178</text>
<text text-anchor="middle" x="693.95" y="-320.68" font-family="Times,serif" font-size="14.00">fb=0</text>
</g>
<!-- No_982632579&#45;&gt;No_992883178 -->
<g id="edge14" class="edge">
<title>No_982632579&#45;&gt;No_992883178</title>
<path fill="none" stroke="black" d="M592.95,-418.99C608.39,-406.97 626.34,-393 642.8,-380.19"/>
<polygon fill="black" stroke="black" points="645,-382.92 650.74,-374.02 640.7,-377.39 645,-382.92"/>
</g>
<!-- No_960933788 -->
<g id="node3" class="node">
<title>No_960933788</title>
<ellipse fill="none" stroke="black" cx="189.95" cy="-228.43" rx="92.76" ry="37.45"/>
<text text-anchor="middle" x="189.95" y="-239.73" font-family="Times,serif" font-size="14.00">Alberto Campos</text>
<text text-anchor="middle" x="189.95" y="-224.73" font-family="Times,serif" font-size="14.00">960933788</text>
<text text-anchor="middle" x="189.95" y="-209.73" font-family="Times,serif" font-size="14.00">fb=&#45;1</text>
</g>
<!-- No_964642705&#45;&gt;No_960933788 -->
<g id="edge2" class="edge">
<title>No_964642705&#45;&gt;No_960933788</title>
<path fill="none" stroke="black" d="M391.93,-314.07C353.74,-298.07 303.46,-277 262.62,-259.88"/>
<polygon fill="black" stroke="black" points="263.84,-256.6 253.26,-255.96 261.13,-263.05 263.84,-256.6"/>
</g>
<!-- No_967387182 -->
<g id="node8" class="node">
<title>No_967387182</title>
<ellipse fill="none" stroke="black" cx="449.95" cy="-228.43" rx="91.43" ry="37.45"/>
<text text-anchor="middle" x="449.95" y="-239.73" font-family="Times,serif" font-size="14.00">Alfredo Martins</text>
<text text-anchor="middle" x="449.95" y="-224.73" font-family="Times,serif" font-size="14.00">967387182</text>
<text text-anchor="middle" x="449.95" y="-209.73" font-family="Times,serif" font-size="14.00">fb=0</text>
</g>
<!-- No_964642705&#45;&gt;No_967387182 -->
<g id="edge7" class="edge">
<title>No_964642705&#45;&gt;No_967387182</title>
<path fill="none" stroke="black" d="M449.95,-301.8C449.95,-293.63 449.95,-284.85 449.95,-276.32"/>
<polygon fill="black" stroke="black" points="453.45,-276.1 449.95,-266.1 446.45,-276.1 453.45,-276.1"/>
</g>
<!-- No_955838599 -->
<g id="node4" class="node">
<title>No_955838599</title>
<ellipse fill="none" stroke="black" cx="74.95" cy="-117.48" rx="74.91" ry="37.45"/>
<text text-anchor="middle" x="74.95" y="-128.78" font-family="Times,serif" font-size="14.00">Aline Santos</text>
<text text-anchor="middle" x="74.95" y="-113.78" font-family="Times,serif" font-size="14.00">955838599</text>
<text text-anchor="middle" x="74.95" y="-98.78" font-family="Times,serif" font-size="14.00">fb=0</text>
</g>
<!-- No_960933788&#45;&gt;No_955838599 -->
<g id="edge3" class="edge">
<title>No_960933788&#45;&gt;No_955838599</title>
<path fill="none" stroke="black" d="M154.2,-193.55C142.29,-182.28 128.93,-169.62 116.62,-157.95"/>
<polygon fill="black" stroke="black" points="118.78,-155.18 109.11,-150.84 113.97,-160.26 118.78,-155.18"/>
</g>
<!-- NUL_2 -->
<g id="node7" class="node">
<title>NUL_2</title>
<polygon fill="none" stroke="black" points="211.95,-139.48 167.95,-139.48 167.95,-95.48 211.95,-95.48 211.95,-139.48"/>
<text text-anchor="middle" x="189.95" y="-113.78" font-family="Times,serif" font-size="14.00">null</text>
</g>
<!-- No_960933788&#45;&gt;NUL_2 -->
<g id="edge6" class="edge">
<title>No_960933788&#45;&gt;NUL_2</title>
<path fill="none" stroke="black" d="M189.95,-190.85C189.95,-177.52 189.95,-162.58 189.95,-149.75"/>
<polygon fill="black" stroke="black" points="193.45,-149.55 189.95,-139.55 186.45,-149.55 193.45,-149.55"/>
</g>
<!-- NUL_0 -->
<g id="node5" class="node">
<title>NUL_0</title>
<polygon fill="none" stroke="black" points="65.95,-44 21.95,-44 21.95,0 65.95,0 65.95,-44"/>
<text text-anchor="middle" x="43.95" y="-18.3" font-family="Times,serif" font-size="14.00">null</text>
</g>
<!-- No_955838599&#45;&gt;NUL_0 -->
<g id="edge4" class="edge">
<title>No_955838599&#45;&gt;NUL_0</title>
<path fill="none" stroke="black" d="M62.97,-80.34C60.05,-71.55 56.96,-62.23 54.14,-53.72"/>
<polygon fill="black" stroke="black" points="57.45,-52.57 50.98,-44.18 50.8,-54.77 57.45,-52.57"/>
</g>
<!-- NUL_1 -->
<g id="node6" class="node">
<title>NUL_1</title>
<polygon fill="none" stroke="black" points="127.95,-44 83.95,-44 83.95,0 127.95,0 127.95,-44"/>
<text text-anchor="middle" x="105.95" y="-18.3" font-family="Times,serif" font-size="14.00">null</text>
</g>
<!-- No_955838599&#45;&gt;NUL_1 -->
<g id="edge5" class="edge">
<title>No_955838599&#45;&gt;NUL_1</title>
<path fill="none" stroke="black" d="M86.94,-80.34C89.85,-71.55 92.94,-62.23 95.77,-53.72"/>
<polygon fill="black" stroke="black" points="99.1,-54.77 98.93,-44.18 92.46,-52.57 99.1,-54.77"/>
</g>
<!-- No_965115082 -->
<g id="node9" class="node">
<title>No_965115082</title>
<ellipse fill="none" stroke="black" cx="305.95" cy="-117.48" rx="75.82" ry="37.45"/>
<text text-anchor="middle" x="305.95" y="-128.78" font-family="Times,serif" font-size="14.00">Ana Barbosa</text>
<text text-anchor="middle" x="305.95" y="-113.78" font-family="Times,serif" font-size="14.00">965115082</text>
<text text-anchor="middle" x="305.95" y="-98.78" font-family="Times,serif" font-size="14.00">fb=0</text>
</g>
<!-- No_967387182&#45;&gt;No_965115082 -->
<g id="edge8" class="edge">
<title>No_967387182&#45;&gt;No_965115082</title>
<path fill="none" stroke="black" d="M407.14,-195.04C390.75,-182.64 371.94,-168.4 355.01,-155.6"/>
<polygon fill="black" stroke="black" points="356.96,-152.68 346.87,-149.44 352.74,-158.26 356.96,-152.68"/>
</g>
<!-- No_975960513 -->
<g id="node12" class="node">
<title>No_975960513</title>
<ellipse fill="none" stroke="black" cx="472.95" cy="-117.48" rx="73.58" ry="37.45"/>
<text text-anchor="middle" x="472.95" y="-128.78" font-family="Times,serif" font-size="14.00">Altair Souza</text>
<text text-anchor="middle" x="472.95" y="-113.78" font-family="Times,serif" font-size="14.00">975960513</text>
<text text-anchor="middle" x="472.95" y="-98.78" font-family="Times,serif" font-size="14.00">fb=0</text>
</g>
<!-- No_967387182&#45;&gt;No_975960513 -->
<g id="edge11" class="edge">
<title>No_967387182&#45;&gt;No_975960513</title>
<path fill="none" stroke="black" d="M457.68,-190.85C459.44,-182.49 461.34,-173.51 463.17,-164.81"/>
<polygon fill="black" stroke="black" points="466.65,-165.29 465.29,-154.78 459.8,-163.84 466.65,-165.29"/>
</g>
<!-- NUL_3 -->
<g id="node10" class="node">
<title>NUL_3</title>
<polygon fill="none" stroke="black" points="286.95,-44 242.95,-44 242.95,0 286.95,0 286.95,-44"/>
<text text-anchor="middle" x="264.95" y="-18.3" font-family="Times,serif" font-size="14.00">null</text>
</g>
<!-- No_965115082&#45;&gt;NUL_3 -->
<g id="edge9" class="edge">
<title>No_965115082&#45;&gt;NUL_3</title>
<path fill="none" stroke="black" d="M290.22,-80.6C286.28,-71.63 282.09,-62.08 278.29,-53.4"/>
<polygon fill="black" stroke="black" points="281.4,-51.79 274.18,-44.04 274.99,-54.6 281.4,-51.79"/>
</g>
<!-- NUL_4 -->
<g id="node11" class="node">
<title>NUL_4</title>
<polygon fill="none" stroke="black" points="348.95,-44 304.95,-44 304.95,0 348.95,0 348.95,-44"/>
<text text-anchor="middle" x="326.95" y="-18.3" font-family="Times,serif" font-size="14.00">null</text>
</g>
<!-- No_965115082&#45;&gt;NUL_4 -->
<g id="edge10" class="edge">
<title>No_965115082&#45;&gt;NUL_4</title>
<path fill="none" stroke="black" d="M314.13,-80.07C316.08,-71.39 318.14,-62.22 320.03,-53.83"/>
<polygon fill="black" stroke="black" points="323.45,-54.58 322.22,-44.06 316.62,-53.05 323.45,-54.58"/>
</g>
<!-- NUL_5 -->
<g id="node13" class="node">
<title>NUL_5</title>
<polygon fill="none" stroke="black" points="463.95,-44 419.95,-44 419.95,0 463.95,0 463.95,-44"/>
<text text-anchor="middle" x="441.95" y="-18.3" font-family="Times,serif" font-size="14.00">null</text>
</g>
<!-- No_975960513&#45;&gt;NUL_5 -->
<g id="edge12" class="edge">
<title>No_975960513&#45;&gt;NUL_5</title>
<path fill="none" stroke="black" d="M460.97,-80.34C458.05,-71.55 454.96,-62.23 452.14,-53.72"/>
<polygon fill="black" stroke="black" points="455.45,-52.57 448.98,-44.18 448.8,-54.77 455.45,-52.57"/>
</g>
<!-- NUL_6 -->
<g id="node14" class="node">
<title>NUL_6</title>
<polygon fill="none" stroke="black" points="525.95,-44 481.95,-44 481.95,0 525.95,0 525.95,-44"/>
<text text-anchor="middle" x="503.95" y="-18.3" font-family="Times,serif" font-size="14.00">null</text>
</g>
<!-- No_975960513&#45;&gt;NUL_6 -->
<g id="edge13" class="edge">
<title>No_975960513&#45;&gt;NUL_6</title>
<path fill="none" stroke="black" d="M484.94,-80.34C487.85,-71.55 490.94,-62.23 493.77,-53.72"/>
<polygon fill="black" stroke="black" points="497.1,-54.77 496.93,-44.18 490.46,-52.57 497.1,-54.77"/>
</g>
<!-- No_987340734 -->
<g id="node16" class="node">
<title>No_987340734</title>
<ellipse fill="none" stroke="black" cx="693.95" cy="-228.43" rx="98.99" ry="37.45"/>
<text text-anchor="middle" x="693.95" y="-239.73" font-family="Times,serif" font-size="14.00">Antônia Machado</text>
<text text-anchor="middle" x="693.95" y="-224.73" font-family="Times,serif" font-size="14.00">987340734</text>
<text text-anchor="middle" x="693.95" y="-209.73" font-family="Times,serif" font-size="14.00">fb=0</text>
</g>
<!-- No_992883178&#45;&gt;No_987340734 -->
<g id="edge15" class="edge">
<title>No_992883178&#45;&gt;No_987340734</title>
<path fill="none" stroke="black" d="M693.95,-301.8C693.95,-293.63 693.95,-284.85 693.95,-276.32"/>
<polygon fill="black" stroke="black" points="697.45,-276.1 693.95,-266.1 690.45,-276.1 697.45,-276.1"/>
</g>
<!-- No_996598918 -->
<g id="node23" class="node">
<title>No_996598918</title>
<ellipse fill="none" stroke="black" cx="1095.95" cy="-228.43" rx="69.09" ry="37.45"/>
<text text-anchor="middle" x="1095.95" y="-239.73" font-family="Times,serif" font-size="14.00">Ana Farias</text>
<text text-anchor="middle" x="1095.95" y="-224.73" font-family="Times,serif" font-size="14.00">996598918</text>
<text text-anchor="middle" x="1095.95" y="-209.73" font-family="Times,serif" font-size="14.00">fb=0</text>
</g>
<!-- No_992883178&#45;&gt;No_996598918 -->
<g id="edge22" class="edge">
<title>No_992883178&#45;&gt;No_996598918</title>
<path fill="none" stroke="black" d="M777.74,-315.68C850.77,-295.88 955.54,-267.49 1024.64,-248.76"/>
<polygon fill="black" stroke="black" points="1025.83,-252.06 1034.56,-246.07 1024,-245.31 1025.83,-252.06"/>
</g>
<!-- No_986979432 -->
<g id="node17" class="node">
<title>No_986979432</title>
<ellipse fill="none" stroke="black" cx="671.95" cy="-117.48" rx="107.46" ry="37.45"/>
<text text-anchor="middle" x="671.95" y="-128.78" font-family="Times,serif" font-size="14.00">Américo Rodrigues</text>
<text text-anchor="middle" x="671.95" y="-113.78" font-family="Times,serif" font-size="14.00">986979432</text>
<text text-anchor="middle" x="671.95" y="-98.78" font-family="Times,serif" font-size="14.00">fb=0</text>
</g>
<!-- No_987340734&#45;&gt;No_986979432 -->
<g id="edge16" class="edge">
<title>No_987340734&#45;&gt;No_986979432</title>
<path fill="none" stroke="black" d="M686.57,-190.85C684.9,-182.58 683.1,-173.7 681.36,-165.09"/>
<polygon fill="black" stroke="black" points="684.77,-164.26 679.36,-155.15 677.91,-165.64 684.77,-164.26"/>
</g>
<!-- No_987671978 -->
<g id="node20" class="node">
<title>No_987671978</title>
<ellipse fill="none" stroke="black" cx="887.95" cy="-117.48" rx="90.52" ry="37.45"/>
<text text-anchor="middle" x="887.95" y="-128.78" font-family="Times,serif" font-size="14.00">Adriana Pereira</text>
<text text-anchor="middle" x="887.95" y="-113.78" font-family="Times,serif" font-size="14.00">987671978</text>
<text text-anchor="middle" x="887.95" y="-98.78" font-family="Times,serif" font-size="14.00">fb=0</text>
</g>
<!-- No_987340734&#45;&gt;No_987671978 -->
<g id="edge19" class="edge">
<title>No_987340734&#45;&gt;No_987671978</title>
<path fill="none" stroke="black" d="M748.25,-196.94C772.62,-183.25 801.47,-167.04 826.62,-152.92"/>
<polygon fill="black" stroke="black" points="828.34,-155.97 835.34,-148.02 824.91,-149.87 828.34,-155.97"/>
</g>
<!-- NUL_7 -->
<g id="node18" class="node">
<title>NUL_7</title>
<polygon fill="none" stroke="black" points="662.95,-44 618.95,-44 618.95,0 662.95,0 662.95,-44"/>
<text text-anchor="middle" x="640.95" y="-18.3" font-family="Times,serif" font-size="14.00">null</text>
</g>
<!-- No_986979432&#45;&gt;NUL_7 -->
<g id="edge17" class="edge">
<title>No_986979432&#45;&gt;NUL_7</title>
<path fill="none" stroke="black" d="M659.88,-80.07C656.97,-71.3 653.89,-62.02 651.08,-53.55"/>
<polygon fill="black" stroke="black" points="654.41,-52.45 647.94,-44.06 647.76,-54.65 654.41,-52.45"/>
</g>
<!-- NUL_8 -->
<g id="node19" class="node">
<title>NUL_8</title>
<polygon fill="none" stroke="black" points="724.95,-44 680.95,-44 680.95,0 724.95,0 724.95,-44"/>
<text text-anchor="middle" x="702.95" y="-18.3" font-family="Times,serif" font-size="14.00">null</text>
</g>
<!-- No_986979432&#45;&gt;NUL_8 -->
<g id="edge18" class="edge">
<title>No_986979432&#45;&gt;NUL_8</title>
<path fill="none" stroke="black" d="M684.03,-80.07C686.94,-71.3 690.01,-62.02 692.82,-53.55"/>
<polygon fill="black" stroke="black" points="696.14,-54.65 695.97,-44.06 689.5,-52.45 696.14,-54.65"/>
</g>
<!-- NUL_9 -->
<g id="node21" class="node">
<title>NUL_9</title>
<polygon fill="none" stroke="black" points="878.95,-44 834.95,-44 834.95,0 878.95,0 878.95,-44"/>
<text text-anchor="middle" x="856.95" y="-18.3" font-family="Times,serif" font-size="14.00">null</text>
</g>
<!-- No_987671978&#45;&gt;NUL_9 -->
<g id="edge20" class="edge">
<title>No_987671978&#45;&gt;NUL_9</title>
<path fill="none" stroke="black" d="M875.88,-80.07C872.97,-71.3 869.89,-62.02 867.08,-53.55"/>
<polygon fill="black" stroke="black" points="870.41,-52.45 863.94,-44.06 863.76,-54.65 870.41,-52.45"/>
</g>
<!-- NUL_10 -->
<g id="node22" class="node">
<title>NUL_10</title>
<polygon fill="none" stroke="black" points="940.95,-44 896.95,-44 896.95,0 940.95,0 940.95,-44"/>
<text text-anchor="middle" x="918.95" y="-18.3" font-family="Times,serif" font-size="14.00">null</text>
</g>
<!-- No_987671978&#45;&gt;NUL_10 -->
<g id="edge21" class="edge">
<title>No_987671978&#45;&gt;NUL_10</title>
<path fill="none" stroke="black" d="M900.03,-80.07C902.94,-71.3 906.01,-62.02 908.82,-53.55"/>
<polygon fill="black" stroke="black" points="912.14,-54.65 911.97,-44.06 905.5,-52.45 912.14,-54.65"/>
</g>
<!-- No_994116870 -->
<g id="node24" class="node">
<title>No_994116870</title>
<ellipse fill="none" stroke="black" cx="1095.95" cy="-117.48" rx="98.99" ry="37.45"/>
<text text-anchor="middle" x="1095.95" y="-128.78" font-family="Times,serif" font-size="14.00">Alexandra Moura</text>
<text text-anchor="middle" x="1095.95" y="-113.78" font-family="Times,serif" font-size="14.00">994116870</text>
<text text-anchor="middle" x="1095.95" y="-98.78" font-family="Times,serif" font-size="14.00">fb=0</text>
</g>
<!-- No_996598918&#45;&gt;No_994116870 -->
<g id="edge23" class="edge">
<title>No_996598918&#45;&gt;No_994116870</title>
<path fill="none" stroke="black" d="M1095.95,-190.85C1095.95,-182.67 1095.95,-173.89 1095.95,-165.37"/>
<polygon fill="black" stroke="black" points="1099.45,-165.15 1095.95,-155.15 1092.45,-165.15 1099.45,-165.15"/>
</g>
<!-- No_997285865 -->
<g id="node27" class="node">
<title>No_997285865</title>
<ellipse fill="none" stroke="black" cx="1287.95" cy="-117.48" rx="74.91" ry="37.45"/>
<text text-anchor="middle" x="1287.95" y="-128.78" font-family="Times,serif" font-size="14.00">Almir Torres</text>
<text text-anchor="middle" x="1287.95" y="-113.78" font-family="Times,serif" font-size="14.00">997285865</text>
<text text-anchor="middle" x="1287.95" y="-98.78" font-family="Times,serif" font-size="14.00">fb=0</text>
</g>
<!-- No_996598918&#45;&gt;No_997285865 -->
<g id="edge26" class="edge">
<title>No_996598918&#45;&gt;No_997285865</title>
<path fill="none" stroke="black" d="M1142.92,-200.78C1169.27,-185.83 1202.35,-167.05 1230.26,-151.21"/>
<polygon fill="black" stroke="black" points="1232.16,-154.16 1239.13,-146.18 1228.7,-148.07 1232.16,-154.16"/>
</g>
<!-- NUL_11 -->
<g id="node25" class="node">
<title>NUL_11</title>
<polygon fill="none" stroke="black" points="1086.95,-44 1042.95,-44 1042.95,0 1086.95,0 1086.95,-44"/>
<text text-anchor="middle" x="1064.95" y="-18.3" font-family="Times,serif" font-size="14.00">null</text>
</g>
<!-- No_994116870&#45;&gt;NUL_11 -->
<g id="edge24" class="edge">
<title>No_994116870&#45;&gt;NUL_11</title>
<path fill="none" stroke="black" d="M1083.88,-80.07C1080.97,-71.3 1077.89,-62.02 1075.08,-53.55"/>
<polygon fill="black" stroke="black" points="1078.41,-52.45 1071.94,-44.06 1071.76,-54.65 1078.41,-52.45"/>
</g>
<!-- NUL_12 -->
<g id="node26" class="node">
<title>NUL_12</title>
<polygon fill="none" stroke="black" points="1148.95,-44 1104.95,-44 1104.95,0 1148.95,0 1148.95,-44"/>
<text text-anchor="middle" x="1126.95" y="-18.3" font-family="Times,serif" font-size="14.00">null</text>
</g>
<!-- No_994116870&#45;&gt;NUL_12 -->
<g id="edge25" class="edge">
<title>No_994116870&#45;&gt;NUL_12</title>
<path fill="none" stroke="black" d="M1108.03,-80.07C1110.94,-71.3 1114.01,-62.02 1116.82,-53.55"/>
<polygon fill="black" stroke="black" points="1120.14,-54.65 1119.97,-44.06 1113.5,-52.45 1120.14,-54.65"/>
</g>
<!-- NUL_13 -->
<g id="node28" class="node">
<title>NUL_13</title>
<polygon fill="none" stroke="black" points="1278.95,-44 1234.95,-44 1234.95,0 1278.95,0 1278.95,-44"/>
<text text-anchor="middle" x="1256.95" y="-18.3" font-family="Times,serif" font-size="14.00">null</text>
</g>
<!-- No_997285865&#45;&gt;NUL_13 -->
<g id="edge27" class="edge">
<title>No_997285865&#45;&gt;NUL_13</title>
<path fill="none" stroke="black" d="M1275.97,-80.34C1273.05,-71.55 1269.96,-62.23 1267.14,-53.72"/>
<polygon fill="black" stroke="black" points="1270.45,-52.57 1263.98,-44.18 1263.8,-54.77 1270.45,-52.57"/>
</g>
<!-- NUL_14 -->
<g id="node29" class="node">
<title>NUL_14</title>
<polygon fill="none" stroke="black" points="1340.95,-44 1296.95,-44 1296.95,0 1340.95,0 1340.95,-44"/>
<text text-anchor="middle" x="1318.95" y="-18.3" font-family="Times,serif" font-size="14.00">null</text>
</g>
<!-- No_997285865&#45;&gt;NUL_14 -->
<g id="edge28" class="edge">
<title>No_997285865&#45;&gt;NUL_14</title>
<path fill="none" stroke="black" d="M1299.94,-80.34C1302.85,-71.55 1305.94,-62.23 1308.77,-53.72"/>
<polygon fill="black" stroke="black" points="1312.1,-54.77 1311.93,-44.18 1305.46,-52.57 1312.1,-54.77"/>
</g>
</g>
</svg>
