<?xml version="1.0" encoding="UTF-8" standalone="no"?>
<!DOCTYPE svg PUBLIC "-//W3C//DTD SVG 1.1//EN"
 "http://www.w3.org/Graphics/SVG/1.1/DTD/svg11.dtd">
<!-- Generated by graphviz version 2.43.0 (0)
 -->
<!-- Title: BST Pages: 1 -->
<svg width="609pt" height="385pt"
 viewBox="0.00 0.00 609.30 384.86" xmlns="http://www.w3.org/2000/svg" xmlns:xlink="http://www.w3.org/1999/xlink">
<g id="graph0" class="graph" transform="scale(1 1) rotate(0) translate(4 380.86)">
<title>BST</title>
<polygon fill="white" stroke="transparent" points="-4,4 -4,-380.86 605.3,-380.86 605.3,4 -4,4"/>
<!-- No_982632579 -->
<g id="node1" class="node">
<title>No_982632579</title>
<ellipse fill="none" stroke="black" cx="243" cy="-339.38" rx="69.09" ry="37.45"/>
<text text-anchor="middle" x="243" y="-350.68" font-family="Times,serif" font-size="14.00">Abel Costa</text>
<text text-anchor="middle" x="243" y="-335.68" font-family="Times,serif" font-size="14.00">982632579</text>
<text text-anchor="middle" x="243" y="-320.68" font-family="Times,serif" font-size="14.00">fb=0</text>
</g>
<!-- No_960933788 -->
<g id="node2" class="node">
<title>No_960933788</title>
<ellipse fill="none" stroke="black" cx="134" cy="-228.43" rx="92.76" ry="37.45"/>
<text text-anchor="middle" x="134" y="-239.73" font-family="Times,serif" font-size="14.00">Alberto Campos</text>
<text text-anchor="middle" x="134" y="-224.73" font-family="Times,serif" font-size="14.00">960933788</text>
<text text-anchor="middle" x="134" y="-209.73" font-family="Times,serif" font-size="14.00">fb=1</text>
</g>
<!-- No_982632579&#45;&gt;No_960933788 -->
<g id="edge1" class="edge">
<title>No_982632579&#45;&gt;No_960933788</title>
<path fill="none" stroke="black" d="M210.59,-305.99C199.47,-294.87 186.87,-282.28 175.15,-270.56"/>
<polygon fill="black" stroke="black" points="177.53,-268 167.99,-263.4 172.59,-272.95 177.53,-268"/>
</g>
<!-- No_992883178 -->
<g id="node7" class="node">
<title>No_992883178</title>
<ellipse fill="none" stroke="black" cx="352" cy="-228.43" rx="107.46" ry="37.45"/>
<text text-anchor="middle" x="352" y="-239.73" font-family="Times,serif" font-size="14.00">Alexandre Barbosa</text>
<text text-anchor="middle" x="352" y="-224.73" font-family="Times,serif" font-size="14.00">992883178</text>
<text text-anchor="middle" x="352" y="-209.73" font-family="Times,serif" font-size="14.00">fb=0</text>
</g>
<!-- No_982632579&#45;&gt;No_992883178 -->
<g id="edge6" class="edge">
<title>No_982632579&#45;&gt;No_992883178</title>
<path fill="none" stroke="black" d="M275.41,-305.99C286.22,-295.18 298.43,-282.98 309.86,-271.55"/>
<polygon fill="black" stroke="black" points="312.65,-273.71 317.25,-264.17 307.7,-268.76 312.65,-273.71"/>
</g>
<!-- NUL_0 -->
<g id="node3" class="node">
<title>NUL_0</title>
<polygon fill="none" stroke="black" points="44,-139.48 0,-139.48 0,-95.48 44,-95.48 44,-139.48"/>
<text text-anchor="middle" x="22" y="-113.78" font-family="Times,serif" font-size="14.00">null</text>
</g>
<!-- No_960933788&#45;&gt;NUL_0 -->
<g id="edge2" class="edge">
<title>No_960933788&#45;&gt;NUL_0</title>
<path fill="none" stroke="black" d="M94.69,-194.18C81.11,-182.2 66.04,-168.33 53,-154.95 50.68,-152.57 48.33,-150.05 46.01,-147.48"/>
<polygon fill="black" stroke="black" points="48.45,-144.95 39.23,-139.74 43.19,-149.57 48.45,-144.95"/>
</g>
<!-- No_964642705 -->
<g id="node4" class="node">
<title>No_964642705</title>
<ellipse fill="none" stroke="black" cx="140" cy="-117.48" rx="78.48" ry="37.45"/>
<text text-anchor="middle" x="140" y="-128.78" font-family="Times,serif" font-size="14.00">Alícia Freitas</text>
<text text-anchor="middle" x="140" y="-113.78" font-family="Times,serif" font-size="14.00">964642705</text>
<text text-anchor="middle" x="140" y="-98.78" font-family="Times,serif" font-size="14.00">fb=0</text>
</g>
<!-- No_960933788&#45;&gt;No_964642705 -->
<g id="edge3" class="edge">
<title>No_960933788&#45;&gt;No_964642705</title>
<path fill="none" stroke="black" d="M136.01,-190.85C136.46,-182.67 136.95,-173.89 137.42,-165.37"/>
<polygon fill="black" stroke="black" points="140.93,-165.33 137.98,-155.15 133.94,-164.94 140.93,-165.33"/>
</g>
<!-- NUL_1 -->
<g id="node5" class="node">
<title>NUL_1</title>
<polygon fill="none" stroke="black" points="131,-44 87,-44 87,0 131,0 131,-44"/>
<text text-anchor="middle" x="109" y="-18.3" font-family="Times,serif" font-size="14.00">null</text>
</g>
<!-- No_964642705&#45;&gt;NUL_1 -->
<g id="edge4" class="edge">
<title>No_964642705&#45;&gt;NUL_1</title>
<path fill="none" stroke="black" d="M128.01,-80.34C125.1,-71.55 122.01,-62.23 119.19,-53.72"/>
<polygon fill="black" stroke="black" points="122.49,-52.57 116.02,-44.18 115.85,-54.77 122.49,-52.57"/>
</g>
<!-- NUL_2 -->
<g id="node6" class="node">
<title>NUL_2</title>
<polygon fill="none" stroke="black" points="193,-44 149,-44 149,0 193,0 193,-44"/>
<text text-anchor="middle" x="171" y="-18.3" font-family="Times,serif" font-size="14.00">null</text>
</g>
<!-- No_964642705&#45;&gt;NUL_2 -->
<g id="edge5" class="edge">
<title>No_964642705&#45;&gt;NUL_2</title>
<path fill="none" stroke="black" d="M151.99,-80.34C154.9,-71.55 157.99,-62.23 160.81,-53.72"/>
<polygon fill="black" stroke="black" points="164.15,-54.77 163.98,-44.18 157.51,-52.57 164.15,-54.77"/>
</g>
<!-- No_987340734 -->
<g id="node8" class="node">
<title>No_987340734</title>
<ellipse fill="none" stroke="black" cx="346" cy="-117.48" rx="98.99" ry="37.45"/>
<text text-anchor="middle" x="346" y="-128.78" font-family="Times,serif" font-size="14.00">Antônia Machado</text>
<text text-anchor="middle" x="346" y="-113.78" font-family="Times,serif" font-size="14.00">987340734</text>
<text text-anchor="middle" x="346" y="-98.78" font-family="Times,serif" font-size="14.00">fb=0</text>
</g>
<!-- No_992883178&#45;&gt;No_987340734 -->
<g id="edge7" class="edge">
<title>No_992883178&#45;&gt;No_987340734</title>
<path fill="none" stroke="black" d="M349.99,-190.85C349.54,-182.67 349.05,-173.89 348.58,-165.37"/>
<polygon fill="black" stroke="black" points="352.06,-164.94 348.02,-155.15 345.07,-165.33 352.06,-164.94"/>
</g>
<!-- No_996598918 -->
<g id="node11" class="node">
<title>No_996598918</title>
<ellipse fill="none" stroke="black" cx="532" cy="-117.48" rx="69.09" ry="37.45"/>
<text text-anchor="middle" x="532" y="-128.78" font-family="Times,serif" font-size="14.00">Ana Farias</text>
<text text-anchor="middle" x="532" y="-113.78" font-family="Times,serif" font-size="14.00">996598918</text>
<text text-anchor="middle" x="532" y="-98.78" font-family="Times,serif" font-size="14.00">fb=0</text>
</g>
<!-- No_992883178&#45;&gt;No_996598918 -->
<g id="edge10" class="edge">
<title>No_992883178&#45;&gt;No_996598918</title>
<path fill="none" stroke="black" d="M404.55,-195.62C427.64,-181.64 454.74,-165.24 478,-151.16"/>
<polygon fill="black" stroke="black" points="479.97,-154.06 486.71,-145.89 476.34,-148.07 479.97,-154.06"/>
</g>
<!-- NUL_3 -->
<g id="node9" class="node">
<title>NUL_3</title>
<polygon fill="none" stroke="black" points="337,-44 293,-44 293,0 337,0 337,-44"/>
<text text-anchor="middle" x="315" y="-18.3" font-family="Times,serif" font-size="14.00">null</text>
</g>
<!-- No_987340734&#45;&gt;NUL_3 -->
<g id="edge8" class="edge">
<title>No_987340734&#45;&gt;NUL_3</title>
<path fill="none" stroke="black" d="M333.93,-80.07C331.02,-71.3 327.94,-62.02 325.13,-53.55"/>
<polygon fill="black" stroke="black" points="328.45,-52.45 321.98,-44.06 321.81,-54.65 328.45,-52.45"/>
</g>
<!-- NUL_4 -->
<g id="node10" class="node">
<title>NUL_4</title>
<polygon fill="none" stroke="black" points="399,-44 355,-44 355,0 399,0 399,-44"/>
<text text-anchor="middle" x="377" y="-18.3" font-family="Times,serif" font-size="14.00">null</text>
</g>
<!-- No_987340734&#45;&gt;NUL_4 -->
<g id="edge9" class="edge">
<title>No_987340734&#45;&gt;NUL_4</title>
<path fill="none" stroke="black" d="M358.07,-80.07C360.98,-71.3 364.06,-62.02 366.87,-53.55"/>
<polygon fill="black" stroke="black" points="370.19,-54.65 370.02,-44.06 363.55,-52.45 370.19,-54.65"/>
</g>
<!-- NUL_5 -->
<g id="node12" class="node">
<title>NUL_5</title>
<polygon fill="none" stroke="black" points="523,-44 479,-44 479,0 523,0 523,-44"/>
<text text-anchor="middle" x="501" y="-18.3" font-family="Times,serif" font-size="14.00">null</text>
</g>
<!-- No_996598918&#45;&gt;NUL_5 -->
<g id="edge11" class="edge">
<title>No_996598918&#45;&gt;NUL_5</title>
<path fill="none" stroke="black" d="M520.01,-80.34C517.1,-71.55 514.01,-62.23 511.19,-53.72"/>
<polygon fill="black" stroke="black" points="514.49,-52.57 508.02,-44.18 507.85,-54.77 514.49,-52.57"/>
</g>
<!-- NUL_6 -->
<g id="node13" class="node">
<title>NUL_6</title>
<polygon fill="none" stroke="black" points="585,-44 541,-44 541,0 585,0 585,-44"/>
<text text-anchor="middle" x="563" y="-18.3" font-family="Times,serif" font-size="14.00">null</text>
</g>
<!-- No_996598918&#45;&gt;NUL_6 -->
<g id="edge12" class="edge">
<title>No_996598918&#45;&gt;NUL_6</title>
<path fill="none" stroke="black" d="M543.99,-80.34C546.9,-71.55 549.99,-62.23 552.81,-53.72"/>
<polygon fill="black" stroke="black" points="556.15,-54.77 555.98,-44.18 549.51,-52.57 556.15,-54.77"/>
</g>
</g>
</svg>
