<?xml version="1.0" encoding="UTF-8" standalone="no"?>
<!DOCTYPE svg PUBLIC "-//W3C//DTD SVG 1.1//EN"
 "http://www.w3.org/Graphics/SVG/1.1/DTD/svg11.dtd">
<!-- Generated by graphviz version 2.43.0 (0)
 -->
<!-- Title: BST Pages: 1 -->
<svg width="888pt" height="302pt"
 viewBox="0.00 0.00 888.23 302.39" xmlns="http://www.w3.org/2000/svg" xmlns:xlink="http://www.w3.org/1999/xlink">
<g id="graph0" class="graph" transform="scale(1 1) rotate(0) translate(4 298.39)">
<title>BST</title>
<polygon fill="white" stroke="transparent" points="-4,4 -4,-298.39 884.23,-298.39 884.23,4 -4,4"/>
<!-- Alexandre Costa,982632579 [fb:0] -->
<g id="node1" class="node">
<title>Alexandre Costa,982632579 [fb:0]</title>
<ellipse fill="none" stroke="black" cx="398.6" cy="-276.39" rx="170.07" ry="18"/>
<text text-anchor="middle" x="398.6" y="-272.69" font-family="Times,serif" font-size="14.00">Alexandre Costa,982632579 [fb:0]</text>
</g>
<!-- Alberto Campos,960933788 [fb:1] -->
<g id="node2" class="node">
<title>Alberto Campos,960933788 [fb:1]</title>
<ellipse fill="none" stroke="black" cx="214.6" cy="-204.39" rx="168.17" ry="18"/>
<text text-anchor="middle" x="214.6" y="-200.69" font-family="Times,serif" font-size="14.00">Alberto Campos,960933788 [fb:1]</text>
</g>
<!-- Alexandre Costa,982632579 [fb:0]&#45;&gt;Alberto Campos,960933788 [fb:1] -->
<g id="edge1" class="edge">
<title>Alexandre Costa,982632579 [fb:0]&#45;&gt;Alberto Campos,960933788 [fb:1]</title>
<path fill="none" stroke="black" d="M354.99,-258.8C328.75,-248.82 295.18,-236.04 267.44,-225.49"/>
<polygon fill="black" stroke="black" points="268.48,-222.14 257.89,-221.86 265.99,-228.69 268.48,-222.14"/>
</g>
<!-- Alexandre Barbosa,992883178 [fb:1] -->
<g id="node7" class="node">
<title>Alexandre Barbosa,992883178 [fb:1]</title>
<ellipse fill="none" stroke="black" cx="582.6" cy="-204.39" rx="181.97" ry="18"/>
<text text-anchor="middle" x="582.6" y="-200.69" font-family="Times,serif" font-size="14.00">Alexandre Barbosa,992883178 [fb:1]</text>
</g>
<!-- Alexandre Costa,982632579 [fb:0]&#45;&gt;Alexandre Barbosa,992883178 [fb:1] -->
<g id="edge6" class="edge">
<title>Alexandre Costa,982632579 [fb:0]&#45;&gt;Alexandre Barbosa,992883178 [fb:1]</title>
<path fill="none" stroke="black" d="M442.2,-258.8C468.35,-248.86 501.78,-236.14 529.46,-225.61"/>
<polygon fill="black" stroke="black" points="530.88,-228.81 538.99,-221.98 528.4,-222.27 530.88,-228.81"/>
</g>
<!-- N0 -->
<g id="node3" class="node">
<title>N0</title>
<ellipse fill="none" stroke="black" cx="28.6" cy="-121.79" rx="28.7" ry="28.7"/>
<text text-anchor="middle" x="28.6" y="-118.09" font-family="Times,serif" font-size="14.00">null</text>
</g>
<!-- Alberto Campos,960933788 [fb:1]&#45;&gt;N0 -->
<g id="edge2" class="edge">
<title>Alberto Campos,960933788 [fb:1]&#45;&gt;N0</title>
<path fill="none" stroke="black" d="M157.36,-187.46C128.91,-178.45 94.53,-165.87 65.6,-150.39 63.31,-149.17 61.01,-147.81 58.74,-146.38"/>
<polygon fill="black" stroke="black" points="60.42,-143.29 50.18,-140.56 56.49,-149.08 60.42,-143.29"/>
</g>
<!-- Alexandre Freitas,964642705 [fb:0] -->
<g id="node4" class="node">
<title>Alexandre Freitas,964642705 [fb:0]</title>
<ellipse fill="none" stroke="black" cx="251.6" cy="-121.79" rx="176.57" ry="18"/>
<text text-anchor="middle" x="251.6" y="-118.09" font-family="Times,serif" font-size="14.00">Alexandre Freitas,964642705 [fb:0]</text>
</g>
<!-- Alberto Campos,960933788 [fb:1]&#45;&gt;Alexandre Freitas,964642705 [fb:0] -->
<g id="edge3" class="edge">
<title>Alberto Campos,960933788 [fb:1]&#45;&gt;Alexandre Freitas,964642705 [fb:0]</title>
<path fill="none" stroke="black" d="M222.44,-186.3C227.4,-175.5 233.9,-161.34 239.51,-149.13"/>
<polygon fill="black" stroke="black" points="242.77,-150.41 243.76,-139.86 236.41,-147.49 242.77,-150.41"/>
</g>
<!-- N1 -->
<g id="node5" class="node">
<title>N1</title>
<ellipse fill="none" stroke="black" cx="213.6" cy="-28.6" rx="28.7" ry="28.7"/>
<text text-anchor="middle" x="213.6" y="-24.9" font-family="Times,serif" font-size="14.00">null</text>
</g>
<!-- Alexandre Freitas,964642705 [fb:0]&#45;&gt;N1 -->
<g id="edge4" class="edge">
<title>Alexandre Freitas,964642705 [fb:0]&#45;&gt;N1</title>
<path fill="none" stroke="black" d="M244.45,-103.64C239.88,-92.68 233.79,-78.07 228.23,-64.72"/>
<polygon fill="black" stroke="black" points="231.38,-63.18 224.31,-55.3 224.92,-65.87 231.38,-63.18"/>
</g>
<!-- N2 -->
<g id="node6" class="node">
<title>N2</title>
<ellipse fill="none" stroke="black" cx="288.6" cy="-28.6" rx="28.7" ry="28.7"/>
<text text-anchor="middle" x="288.6" y="-24.9" font-family="Times,serif" font-size="14.00">null</text>
</g>
<!-- Alexandre Freitas,964642705 [fb:0]&#45;&gt;N2 -->
<g id="edge5" class="edge">
<title>Alexandre Freitas,964642705 [fb:0]&#45;&gt;N2</title>
<path fill="none" stroke="black" d="M258.56,-103.64C263,-92.68 268.93,-78.07 274.35,-64.72"/>
<polygon fill="black" stroke="black" points="277.65,-65.88 278.17,-55.3 271.17,-63.25 277.65,-65.88"/>
</g>
<!-- N3 -->
<g id="node8" class="node">
<title>N3</title>
<ellipse fill="none" stroke="black" cx="546.6" cy="-121.79" rx="28.7" ry="28.7"/>
<text text-anchor="middle" x="546.6" y="-118.09" font-family="Times,serif" font-size="14.00">null</text>
</g>
<!-- Alexandre Barbosa,992883178 [fb:1]&#45;&gt;N3 -->
<g id="edge7" class="edge">
<title>Alexandre Barbosa,992883178 [fb:1]&#45;&gt;N3</title>
<path fill="none" stroke="black" d="M574.96,-186.3C571.21,-177.89 566.54,-167.45 562.09,-157.47"/>
<polygon fill="black" stroke="black" points="565.19,-155.83 557.91,-148.13 558.8,-158.69 565.19,-155.83"/>
</g>
<!-- Ana Farias,996598918 [fb:0] -->
<g id="node9" class="node">
<title>Ana Farias,996598918 [fb:0]</title>
<ellipse fill="none" stroke="black" cx="736.6" cy="-121.79" rx="143.77" ry="18"/>
<text text-anchor="middle" x="736.6" y="-118.09" font-family="Times,serif" font-size="14.00">Ana Farias,996598918 [fb:0]</text>
</g>
<!-- Alexandre Barbosa,992883178 [fb:1]&#45;&gt;Ana Farias,996598918 [fb:0] -->
<g id="edge8" class="edge">
<title>Alexandre Barbosa,992883178 [fb:1]&#45;&gt;Ana Farias,996598918 [fb:0]</title>
<path fill="none" stroke="black" d="M614.88,-186.49C638.45,-174.16 670.56,-157.35 695.89,-144.1"/>
<polygon fill="black" stroke="black" points="697.65,-147.13 704.88,-139.39 694.4,-140.93 697.65,-147.13"/>
</g>
<!-- N4 -->
<g id="node10" class="node">
<title>N4</title>
<ellipse fill="none" stroke="black" cx="698.6" cy="-28.6" rx="28.7" ry="28.7"/>
<text text-anchor="middle" x="698.6" y="-24.9" font-family="Times,serif" font-size="14.00">null</text>
</g>
<!-- Ana Farias,996598918 [fb:0]&#45;&gt;N4 -->
<g id="edge9" class="edge">
<title>Ana Farias,996598918 [fb:0]&#45;&gt;N4</title>
<path fill="none" stroke="black" d="M729.45,-103.64C724.88,-92.68 718.79,-78.07 713.23,-64.72"/>
<polygon fill="black" stroke="black" points="716.38,-63.18 709.31,-55.3 709.92,-65.87 716.38,-63.18"/>
</g>
<!-- N5 -->
<g id="node11" class="node">
<title>N5</title>
<ellipse fill="none" stroke="black" cx="773.6" cy="-28.6" rx="28.7" ry="28.7"/>
<text text-anchor="middle" x="773.6" y="-24.9" font-family="Times,serif" font-size="14.00">null</text>
</g>
<!-- Ana Farias,996598918 [fb:0]&#45;&gt;N5 -->
<g id="edge10" class="edge">
<title>Ana Farias,996598918 [fb:0]&#45;&gt;N5</title>
<path fill="none" stroke="black" d="M743.56,-103.64C748,-92.68 753.93,-78.07 759.35,-64.72"/>
<polygon fill="black" stroke="black" points="762.65,-65.88 763.17,-55.3 756.17,-63.25 762.65,-65.88"/>
</g>
</g>
</svg>
