<?xml version="1.0" encoding="UTF-8" standalone="no"?>
<!DOCTYPE svg PUBLIC "-//W3C//DTD SVG 1.1//EN"
 "http://www.w3.org/Graphics/SVG/1.1/DTD/svg11.dtd">
<!-- Generated by graphviz version 2.43.0 (0)
 -->
<!-- Title: BST Pages: 1 -->
<svg width="2068pt" height="374pt"
 viewBox="0.00 0.00 2068.08 374.39" xmlns="http://www.w3.org/2000/svg" xmlns:xlink="http://www.w3.org/1999/xlink">
<g id="graph0" class="graph" transform="scale(1 1) rotate(0) translate(4 370.39)">
<title>BST</title>
<polygon fill="white" stroke="transparent" points="-4,4 -4,-370.39 2064.08,-370.39 2064.08,4 -4,4"/>
<!-- Alexandre Costa,982632579 [fb:0] -->
<g id="node1" class="node">
<title>Alexandre Costa,982632579 [fb:0]</title>
<ellipse fill="none" stroke="black" cx="1075.48" cy="-348.39" rx="170.07" ry="18"/>
<text text-anchor="middle" x="1075.48" y="-344.69" font-family="Times,serif" font-size="14.00">Alexandre Costa,982632579 [fb:0]</text>
</g>
<!-- Alexandre Freitas,964642705 [fb:0] -->
<g id="node2" class="node">
<title>Alexandre Freitas,964642705 [fb:0]</title>
<ellipse fill="none" stroke="black" cx="711.48" cy="-276.39" rx="176.57" ry="18"/>
<text text-anchor="middle" x="711.48" y="-272.69" font-family="Times,serif" font-size="14.00">Alexandre Freitas,964642705 [fb:0]</text>
</g>
<!-- Alexandre Costa,982632579 [fb:0]&#45;&gt;Alexandre Freitas,964642705 [fb:0] -->
<g id="edge1" class="edge">
<title>Alexandre Costa,982632579 [fb:0]&#45;&gt;Alexandre Freitas,964642705 [fb:0]</title>
<path fill="none" stroke="black" d="M997.4,-332.37C939.52,-321.24 860.55,-306.06 800.27,-294.46"/>
<polygon fill="black" stroke="black" points="800.86,-291.01 790.38,-292.56 799.54,-297.89 800.86,-291.01"/>
</g>
<!-- Alexandre Barbosa,992883178 [fb:0] -->
<g id="node13" class="node">
<title>Alexandre Barbosa,992883178 [fb:0]</title>
<ellipse fill="none" stroke="black" cx="1264.48" cy="-276.39" rx="181.97" ry="18"/>
<text text-anchor="middle" x="1264.48" y="-272.69" font-family="Times,serif" font-size="14.00">Alexandre Barbosa,992883178 [fb:0]</text>
</g>
<!-- Alexandre Costa,982632579 [fb:0]&#45;&gt;Alexandre Barbosa,992883178 [fb:0] -->
<g id="edge12" class="edge">
<title>Alexandre Costa,982632579 [fb:0]&#45;&gt;Alexandre Barbosa,992883178 [fb:0]</title>
<path fill="none" stroke="black" d="M1119.8,-330.98C1146.85,-320.96 1181.64,-308.07 1210.32,-297.45"/>
<polygon fill="black" stroke="black" points="1211.63,-300.7 1219.8,-293.94 1209.2,-294.13 1211.63,-300.7"/>
</g>
<!-- Alberto Campos,960933788 [fb:&#45;1] -->
<g id="node3" class="node">
<title>Alberto Campos,960933788 [fb:&#45;1]</title>
<ellipse fill="none" stroke="black" cx="355.48" cy="-204.39" rx="170.87" ry="18"/>
<text text-anchor="middle" x="355.48" y="-200.69" font-family="Times,serif" font-size="14.00">Alberto Campos,960933788 [fb:&#45;1]</text>
</g>
<!-- Alexandre Freitas,964642705 [fb:0]&#45;&gt;Alberto Campos,960933788 [fb:&#45;1] -->
<g id="edge2" class="edge">
<title>Alexandre Freitas,964642705 [fb:0]&#45;&gt;Alberto Campos,960933788 [fb:&#45;1]</title>
<path fill="none" stroke="black" d="M633.8,-260.11C577.33,-249.01 500.85,-233.97 442.36,-222.47"/>
<polygon fill="black" stroke="black" points="442.88,-219.01 432.39,-220.51 441.53,-225.88 442.88,-219.01"/>
</g>
<!-- Alfredo Martins,967387182 [fb:1] -->
<g id="node8" class="node">
<title>Alfredo Martins,967387182 [fb:1]</title>
<ellipse fill="none" stroke="black" cx="711.48" cy="-204.39" rx="167.07" ry="18"/>
<text text-anchor="middle" x="711.48" y="-200.69" font-family="Times,serif" font-size="14.00">Alfredo Martins,967387182 [fb:1]</text>
</g>
<!-- Alexandre Freitas,964642705 [fb:0]&#45;&gt;Alfredo Martins,967387182 [fb:1] -->
<g id="edge7" class="edge">
<title>Alexandre Freitas,964642705 [fb:0]&#45;&gt;Alfredo Martins,967387182 [fb:1]</title>
<path fill="none" stroke="black" d="M711.48,-258.09C711.48,-250.37 711.48,-241.1 711.48,-232.5"/>
<polygon fill="black" stroke="black" points="714.98,-232.49 711.48,-222.49 707.98,-232.49 714.98,-232.49"/>
</g>
<!-- Alexandre Santos,955838599 [fb:0] -->
<g id="node4" class="node">
<title>Alexandre Santos,955838599 [fb:0]</title>
<ellipse fill="none" stroke="black" cx="175.48" cy="-121.79" rx="175.47" ry="18"/>
<text text-anchor="middle" x="175.48" y="-118.09" font-family="Times,serif" font-size="14.00">Alexandre Santos,955838599 [fb:0]</text>
</g>
<!-- Alberto Campos,960933788 [fb:&#45;1]&#45;&gt;Alexandre Santos,955838599 [fb:0] -->
<g id="edge3" class="edge">
<title>Alberto Campos,960933788 [fb:&#45;1]&#45;&gt;Alexandre Santos,955838599 [fb:0]</title>
<path fill="none" stroke="black" d="M318.19,-186.69C290.31,-174.21 252.02,-157.06 222.12,-143.67"/>
<polygon fill="black" stroke="black" points="223.29,-140.36 212.73,-139.47 220.43,-146.75 223.29,-140.36"/>
</g>
<!-- N2 -->
<g id="node7" class="node">
<title>N2</title>
<ellipse fill="none" stroke="black" cx="397.48" cy="-121.79" rx="28.7" ry="28.7"/>
<text text-anchor="middle" x="397.48" y="-118.09" font-family="Times,serif" font-size="14.00">null</text>
</g>
<!-- Alberto Campos,960933788 [fb:&#45;1]&#45;&gt;N2 -->
<g id="edge6" class="edge">
<title>Alberto Campos,960933788 [fb:&#45;1]&#45;&gt;N2</title>
<path fill="none" stroke="black" d="M364.39,-186.3C368.89,-177.66 374.51,-166.88 379.84,-156.66"/>
<polygon fill="black" stroke="black" points="383.09,-157.99 384.6,-147.51 376.88,-154.76 383.09,-157.99"/>
</g>
<!-- N0 -->
<g id="node5" class="node">
<title>N0</title>
<ellipse fill="none" stroke="black" cx="138.48" cy="-28.6" rx="28.7" ry="28.7"/>
<text text-anchor="middle" x="138.48" y="-24.9" font-family="Times,serif" font-size="14.00">null</text>
</g>
<!-- Alexandre Santos,955838599 [fb:0]&#45;&gt;N0 -->
<g id="edge4" class="edge">
<title>Alexandre Santos,955838599 [fb:0]&#45;&gt;N0</title>
<path fill="none" stroke="black" d="M168.53,-103.64C164.08,-92.68 158.15,-78.07 152.73,-64.72"/>
<polygon fill="black" stroke="black" points="155.91,-63.25 148.91,-55.3 149.43,-65.88 155.91,-63.25"/>
</g>
<!-- N1 -->
<g id="node6" class="node">
<title>N1</title>
<ellipse fill="none" stroke="black" cx="213.48" cy="-28.6" rx="28.7" ry="28.7"/>
<text text-anchor="middle" x="213.48" y="-24.9" font-family="Times,serif" font-size="14.00">null</text>
</g>
<!-- Alexandre Santos,955838599 [fb:0]&#45;&gt;N1 -->
<g id="edge5" class="edge">
<title>Alexandre Santos,955838599 [fb:0]&#45;&gt;N1</title>
<path fill="none" stroke="black" d="M182.63,-103.64C187.2,-92.68 193.29,-78.07 198.85,-64.72"/>
<polygon fill="black" stroke="black" points="202.16,-65.87 202.78,-55.3 195.7,-63.18 202.16,-65.87"/>
</g>
<!-- N3 -->
<g id="node9" class="node">
<title>N3</title>
<ellipse fill="none" stroke="black" cx="514.48" cy="-121.79" rx="28.7" ry="28.7"/>
<text text-anchor="middle" x="514.48" y="-118.09" font-family="Times,serif" font-size="14.00">null</text>
</g>
<!-- Alfredo Martins,967387182 [fb:1]&#45;&gt;N3 -->
<g id="edge8" class="edge">
<title>Alfredo Martins,967387182 [fb:1]&#45;&gt;N3</title>
<path fill="none" stroke="black" d="M648.82,-187.7C618.49,-178.85 582.11,-166.35 551.48,-150.39 549.18,-149.19 546.87,-147.85 544.59,-146.43"/>
<polygon fill="black" stroke="black" points="546.27,-143.34 536.02,-140.65 542.35,-149.15 546.27,-143.34"/>
</g>
<!-- Altair Souza,975960513 [fb:0] -->
<g id="node10" class="node">
<title>Altair Souza,975960513 [fb:0]</title>
<ellipse fill="none" stroke="black" cx="711.48" cy="-121.79" rx="150.57" ry="18"/>
<text text-anchor="middle" x="711.48" y="-118.09" font-family="Times,serif" font-size="14.00">Altair Souza,975960513 [fb:0]</text>
</g>
<!-- Alfredo Martins,967387182 [fb:1]&#45;&gt;Altair Souza,975960513 [fb:0] -->
<g id="edge9" class="edge">
<title>Alfredo Martins,967387182 [fb:1]&#45;&gt;Altair Souza,975960513 [fb:0]</title>
<path fill="none" stroke="black" d="M711.48,-186.3C711.48,-175.72 711.48,-161.9 711.48,-149.86"/>
<polygon fill="black" stroke="black" points="714.98,-149.86 711.48,-139.86 707.98,-149.86 714.98,-149.86"/>
</g>
<!-- N4 -->
<g id="node11" class="node">
<title>N4</title>
<ellipse fill="none" stroke="black" cx="673.48" cy="-28.6" rx="28.7" ry="28.7"/>
<text text-anchor="middle" x="673.48" y="-24.9" font-family="Times,serif" font-size="14.00">null</text>
</g>
<!-- Altair Souza,975960513 [fb:0]&#45;&gt;N4 -->
<g id="edge10" class="edge">
<title>Altair Souza,975960513 [fb:0]&#45;&gt;N4</title>
<path fill="none" stroke="black" d="M704.34,-103.64C699.77,-92.68 693.68,-78.07 688.12,-64.72"/>
<polygon fill="black" stroke="black" points="691.27,-63.18 684.19,-55.3 684.81,-65.87 691.27,-63.18"/>
</g>
<!-- N5 -->
<g id="node12" class="node">
<title>N5</title>
<ellipse fill="none" stroke="black" cx="748.48" cy="-28.6" rx="28.7" ry="28.7"/>
<text text-anchor="middle" x="748.48" y="-24.9" font-family="Times,serif" font-size="14.00">null</text>
</g>
<!-- Altair Souza,975960513 [fb:0]&#45;&gt;N5 -->
<g id="edge11" class="edge">
<title>Altair Souza,975960513 [fb:0]&#45;&gt;N5</title>
<path fill="none" stroke="black" d="M718.44,-103.64C722.89,-92.68 728.82,-78.07 734.23,-64.72"/>
<polygon fill="black" stroke="black" points="737.54,-65.88 738.06,-55.3 731.05,-63.25 737.54,-65.88"/>
</g>
<!-- Alexandre Machado,987340734 [fb:0] -->
<g id="node14" class="node">
<title>Alexandre Machado,987340734 [fb:0]</title>
<ellipse fill="none" stroke="black" cx="1264.48" cy="-204.39" rx="185.77" ry="18"/>
<text text-anchor="middle" x="1264.48" y="-200.69" font-family="Times,serif" font-size="14.00">Alexandre Machado,987340734 [fb:0]</text>
</g>
<!-- Alexandre Barbosa,992883178 [fb:0]&#45;&gt;Alexandre Machado,987340734 [fb:0] -->
<g id="edge13" class="edge">
<title>Alexandre Barbosa,992883178 [fb:0]&#45;&gt;Alexandre Machado,987340734 [fb:0]</title>
<path fill="none" stroke="black" d="M1264.48,-258.09C1264.48,-250.37 1264.48,-241.1 1264.48,-232.5"/>
<polygon fill="black" stroke="black" points="1267.98,-232.49 1264.48,-222.49 1260.98,-232.49 1267.98,-232.49"/>
</g>
<!-- Ana Farias,996598918 [fb:&#45;1] -->
<g id="node21" class="node">
<title>Ana Farias,996598918 [fb:&#45;1]</title>
<ellipse fill="none" stroke="black" cx="1810.48" cy="-204.39" rx="146.47" ry="18"/>
<text text-anchor="middle" x="1810.48" y="-200.69" font-family="Times,serif" font-size="14.00">Ana Farias,996598918 [fb:&#45;1]</text>
</g>
<!-- Alexandre Barbosa,992883178 [fb:0]&#45;&gt;Ana Farias,996598918 [fb:&#45;1] -->
<g id="edge20" class="edge">
<title>Alexandre Barbosa,992883178 [fb:0]&#45;&gt;Ana Farias,996598918 [fb:&#45;1]</title>
<path fill="none" stroke="black" d="M1370.73,-261.77C1466.61,-249.48 1606.97,-231.48 1703.18,-219.15"/>
<polygon fill="black" stroke="black" points="1703.75,-222.6 1713.22,-217.86 1702.86,-215.66 1703.75,-222.6"/>
</g>
<!-- Américo Rodrigues,986979432 [fb:0] -->
<g id="node15" class="node">
<title>Américo Rodrigues,986979432 [fb:0]</title>
<ellipse fill="none" stroke="black" cx="1062.48" cy="-121.79" rx="182.77" ry="18"/>
<text text-anchor="middle" x="1062.48" y="-118.09" font-family="Times,serif" font-size="14.00">Américo Rodrigues,986979432 [fb:0]</text>
</g>
<!-- Alexandre Machado,987340734 [fb:0]&#45;&gt;Américo Rodrigues,986979432 [fb:0] -->
<g id="edge14" class="edge">
<title>Alexandre Machado,987340734 [fb:0]&#45;&gt;Américo Rodrigues,986979432 [fb:0]</title>
<path fill="none" stroke="black" d="M1222.63,-186.69C1190.97,-174.06 1147.34,-156.65 1113.62,-143.19"/>
<polygon fill="black" stroke="black" points="1114.52,-139.79 1103.94,-139.33 1111.93,-146.29 1114.52,-139.79"/>
</g>
<!-- Alexandre Pereira,987671978 [fb:0] -->
<g id="node18" class="node">
<title>Alexandre Pereira,987671978 [fb:0]</title>
<ellipse fill="none" stroke="black" cx="1440.48" cy="-121.79" rx="177.37" ry="18"/>
<text text-anchor="middle" x="1440.48" y="-118.09" font-family="Times,serif" font-size="14.00">Alexandre Pereira,987671978 [fb:0]</text>
</g>
<!-- Alexandre Machado,987340734 [fb:0]&#45;&gt;Alexandre Pereira,987671978 [fb:0] -->
<g id="edge17" class="edge">
<title>Alexandre Machado,987340734 [fb:0]&#45;&gt;Alexandre Pereira,987671978 [fb:0]</title>
<path fill="none" stroke="black" d="M1300.95,-186.69C1328.21,-174.21 1365.65,-157.06 1394.88,-143.67"/>
<polygon fill="black" stroke="black" points="1396.43,-146.82 1404.06,-139.47 1393.51,-140.45 1396.43,-146.82"/>
</g>
<!-- N6 -->
<g id="node16" class="node">
<title>N6</title>
<ellipse fill="none" stroke="black" cx="1024.48" cy="-28.6" rx="28.7" ry="28.7"/>
<text text-anchor="middle" x="1024.48" y="-24.9" font-family="Times,serif" font-size="14.00">null</text>
</g>
<!-- Américo Rodrigues,986979432 [fb:0]&#45;&gt;N6 -->
<g id="edge15" class="edge">
<title>Américo Rodrigues,986979432 [fb:0]&#45;&gt;N6</title>
<path fill="none" stroke="black" d="M1055.34,-103.64C1050.77,-92.68 1044.68,-78.07 1039.12,-64.72"/>
<polygon fill="black" stroke="black" points="1042.27,-63.18 1035.19,-55.3 1035.81,-65.87 1042.27,-63.18"/>
</g>
<!-- N7 -->
<g id="node17" class="node">
<title>N7</title>
<ellipse fill="none" stroke="black" cx="1099.48" cy="-28.6" rx="28.7" ry="28.7"/>
<text text-anchor="middle" x="1099.48" y="-24.9" font-family="Times,serif" font-size="14.00">null</text>
</g>
<!-- Américo Rodrigues,986979432 [fb:0]&#45;&gt;N7 -->
<g id="edge16" class="edge">
<title>Américo Rodrigues,986979432 [fb:0]&#45;&gt;N7</title>
<path fill="none" stroke="black" d="M1069.44,-103.64C1073.89,-92.68 1079.82,-78.07 1085.23,-64.72"/>
<polygon fill="black" stroke="black" points="1088.54,-65.88 1089.06,-55.3 1082.05,-63.25 1088.54,-65.88"/>
</g>
<!-- N8 -->
<g id="node19" class="node">
<title>N8</title>
<ellipse fill="none" stroke="black" cx="1402.48" cy="-28.6" rx="28.7" ry="28.7"/>
<text text-anchor="middle" x="1402.48" y="-24.9" font-family="Times,serif" font-size="14.00">null</text>
</g>
<!-- Alexandre Pereira,987671978 [fb:0]&#45;&gt;N8 -->
<g id="edge18" class="edge">
<title>Alexandre Pereira,987671978 [fb:0]&#45;&gt;N8</title>
<path fill="none" stroke="black" d="M1433.34,-103.64C1428.77,-92.68 1422.68,-78.07 1417.12,-64.72"/>
<polygon fill="black" stroke="black" points="1420.27,-63.18 1413.19,-55.3 1413.81,-65.87 1420.27,-63.18"/>
</g>
<!-- N9 -->
<g id="node20" class="node">
<title>N9</title>
<ellipse fill="none" stroke="black" cx="1477.48" cy="-28.6" rx="28.7" ry="28.7"/>
<text text-anchor="middle" x="1477.48" y="-24.9" font-family="Times,serif" font-size="14.00">null</text>
</g>
<!-- Alexandre Pereira,987671978 [fb:0]&#45;&gt;N9 -->
<g id="edge19" class="edge">
<title>Alexandre Pereira,987671978 [fb:0]&#45;&gt;N9</title>
<path fill="none" stroke="black" d="M1447.44,-103.64C1451.89,-92.68 1457.82,-78.07 1463.23,-64.72"/>
<polygon fill="black" stroke="black" points="1466.54,-65.88 1467.06,-55.3 1460.05,-63.25 1466.54,-65.88"/>
</g>
<!-- Alexandra Moura,994116870 [fb:0] -->
<g id="node22" class="node">
<title>Alexandra Moura,994116870 [fb:0]</title>
<ellipse fill="none" stroke="black" cx="1810.48" cy="-121.79" rx="174.37" ry="18"/>
<text text-anchor="middle" x="1810.48" y="-118.09" font-family="Times,serif" font-size="14.00">Alexandra Moura,994116870 [fb:0]</text>
</g>
<!-- Ana Farias,996598918 [fb:&#45;1]&#45;&gt;Alexandra Moura,994116870 [fb:0] -->
<g id="edge21" class="edge">
<title>Ana Farias,996598918 [fb:&#45;1]&#45;&gt;Alexandra Moura,994116870 [fb:0]</title>
<path fill="none" stroke="black" d="M1810.48,-186.3C1810.48,-175.72 1810.48,-161.9 1810.48,-149.86"/>
<polygon fill="black" stroke="black" points="1813.98,-149.86 1810.48,-139.86 1806.98,-149.86 1813.98,-149.86"/>
</g>
<!-- N12 -->
<g id="node25" class="node">
<title>N12</title>
<ellipse fill="none" stroke="black" cx="2031.48" cy="-121.79" rx="28.7" ry="28.7"/>
<text text-anchor="middle" x="2031.48" y="-118.09" font-family="Times,serif" font-size="14.00">null</text>
</g>
<!-- Ana Farias,996598918 [fb:&#45;1]&#45;&gt;N12 -->
<g id="edge24" class="edge">
<title>Ana Farias,996598918 [fb:&#45;1]&#45;&gt;N12</title>
<path fill="none" stroke="black" d="M1882.56,-188.63C1917.16,-180.04 1958.57,-167.47 1993.48,-150.39 1996.09,-149.11 1998.71,-147.66 2001.29,-146.1"/>
<polygon fill="black" stroke="black" points="2003.37,-148.92 2009.8,-140.5 1999.52,-143.07 2003.37,-148.92"/>
</g>
<!-- N10 -->
<g id="node23" class="node">
<title>N10</title>
<ellipse fill="none" stroke="black" cx="1772.48" cy="-28.6" rx="28.7" ry="28.7"/>
<text text-anchor="middle" x="1772.48" y="-24.9" font-family="Times,serif" font-size="14.00">null</text>
</g>
<!-- Alexandra Moura,994116870 [fb:0]&#45;&gt;N10 -->
<g id="edge22" class="edge">
<title>Alexandra Moura,994116870 [fb:0]&#45;&gt;N10</title>
<path fill="none" stroke="black" d="M1803.34,-103.64C1798.77,-92.68 1792.68,-78.07 1787.12,-64.72"/>
<polygon fill="black" stroke="black" points="1790.27,-63.18 1783.19,-55.3 1783.81,-65.87 1790.27,-63.18"/>
</g>
<!-- N11 -->
<g id="node24" class="node">
<title>N11</title>
<ellipse fill="none" stroke="black" cx="1847.48" cy="-28.6" rx="28.7" ry="28.7"/>
<text text-anchor="middle" x="1847.48" y="-24.9" font-family="Times,serif" font-size="14.00">null</text>
</g>
<!-- Alexandra Moura,994116870 [fb:0]&#45;&gt;N11 -->
<g id="edge23" class="edge">
<title>Alexandra Moura,994116870 [fb:0]&#45;&gt;N11</title>
<path fill="none" stroke="black" d="M1817.44,-103.64C1821.89,-92.68 1827.82,-78.07 1833.23,-64.72"/>
<polygon fill="black" stroke="black" points="1836.54,-65.88 1837.06,-55.3 1830.05,-63.25 1836.54,-65.88"/>
</g>
</g>
</svg>
