<?xml version="1.0" encoding="UTF-8" standalone="no"?>
<!DOCTYPE svg PUBLIC "-//W3C//DTD SVG 1.1//EN"
 "http://www.w3.org/Graphics/SVG/1.1/DTD/svg11.dtd">
<!-- Generated by graphviz version 2.43.0 (0)
 -->
<!-- Title: BST Pages: 1 -->
<svg width="1171pt" height="496pt"
 viewBox="0.00 0.00 1170.95 495.81" xmlns="http://www.w3.org/2000/svg" xmlns:xlink="http://www.w3.org/1999/xlink">
<g id="graph0" class="graph" transform="scale(1 1) rotate(0) translate(4 491.81)">
<title>BST</title>
<polygon fill="white" stroke="transparent" points="-4,4 -4,-491.81 1166.95,-491.81 1166.95,4 -4,4"/>
<!-- No_982632579 -->
<g id="node1" class="node">
<title>No_982632579</title>
<ellipse fill="none" stroke="black" cx="585.95" cy="-450.34" rx="69.09" ry="37.45"/>
<text text-anchor="middle" x="585.95" y="-461.64" font-family="Times,serif" font-size="14.00">Abel Costa</text>
<text text-anchor="middle" x="585.95" y="-446.64" font-family="Times,serif" font-size="14.00">982632579</text>
<text text-anchor="middle" x="585.95" y="-431.64" font-family="Times,serif" font-size="14.00">fb=0</text>
</g>
<!-- No_964642705 -->
<g id="node2" class="node">
<title>No_964642705</title>
<ellipse fill="none" stroke="black" cx="378.95" cy="-339.38" rx="78.48" ry="37.45"/>
<text text-anchor="middle" x="378.95" y="-350.68" font-family="Times,serif" font-size="14.00">Alícia Freitas</text>
<text text-anchor="middle" x="378.95" y="-335.68" font-family="Times,serif" font-size="14.00">964642705</text>
<text text-anchor="middle" x="378.95" y="-320.68" font-family="Times,serif" font-size="14.00">fb=0</text>
</g>
<!-- No_982632579&#45;&gt;No_964642705 -->
<g id="edge1" class="edge">
<title>No_982632579&#45;&gt;No_964642705</title>
<path fill="none" stroke="black" d="M537.16,-423.65C508,-408.31 470.72,-388.68 439.67,-372.34"/>
<polygon fill="black" stroke="black" points="441.15,-369.17 430.67,-367.61 437.89,-375.36 441.15,-369.17"/>
</g>
<!-- No_992883178 -->
<g id="node13" class="node">
<title>No_992883178</title>
<ellipse fill="none" stroke="black" cx="690.95" cy="-339.38" rx="107.46" ry="37.45"/>
<text text-anchor="middle" x="690.95" y="-350.68" font-family="Times,serif" font-size="14.00">Alexandre Barbosa</text>
<text text-anchor="middle" x="690.95" y="-335.68" font-family="Times,serif" font-size="14.00">992883178</text>
<text text-anchor="middle" x="690.95" y="-320.68" font-family="Times,serif" font-size="14.00">fb=0</text>
</g>
<!-- No_982632579&#45;&gt;No_992883178 -->
<g id="edge12" class="edge">
<title>No_982632579&#45;&gt;No_992883178</title>
<path fill="none" stroke="black" d="M617.46,-416.65C627.76,-405.95 639.36,-393.92 650.25,-382.62"/>
<polygon fill="black" stroke="black" points="652.86,-384.95 657.28,-375.33 647.82,-380.1 652.86,-384.95"/>
</g>
<!-- No_960933788 -->
<g id="node3" class="node">
<title>No_960933788</title>
<ellipse fill="none" stroke="black" cx="176.95" cy="-228.43" rx="92.76" ry="37.45"/>
<text text-anchor="middle" x="176.95" y="-239.73" font-family="Times,serif" font-size="14.00">Alberto Campos</text>
<text text-anchor="middle" x="176.95" y="-224.73" font-family="Times,serif" font-size="14.00">960933788</text>
<text text-anchor="middle" x="176.95" y="-209.73" font-family="Times,serif" font-size="14.00">fb=&#45;1</text>
</g>
<!-- No_964642705&#45;&gt;No_960933788 -->
<g id="edge2" class="edge">
<title>No_964642705&#45;&gt;No_960933788</title>
<path fill="none" stroke="black" d="M327.72,-310.75C301.25,-296.47 268.69,-278.91 240.62,-263.77"/>
<polygon fill="black" stroke="black" points="242.14,-260.61 231.67,-258.94 238.81,-266.77 242.14,-260.61"/>
</g>
<!-- No_967387182 -->
<g id="node8" class="node">
<title>No_967387182</title>
<ellipse fill="none" stroke="black" cx="378.95" cy="-228.43" rx="91.43" ry="37.45"/>
<text text-anchor="middle" x="378.95" y="-239.73" font-family="Times,serif" font-size="14.00">Alfredo Martins</text>
<text text-anchor="middle" x="378.95" y="-224.73" font-family="Times,serif" font-size="14.00">967387182</text>
<text text-anchor="middle" x="378.95" y="-209.73" font-family="Times,serif" font-size="14.00">fb=1</text>
</g>
<!-- No_964642705&#45;&gt;No_967387182 -->
<g id="edge7" class="edge">
<title>No_964642705&#45;&gt;No_967387182</title>
<path fill="none" stroke="black" d="M378.95,-301.8C378.95,-293.63 378.95,-284.85 378.95,-276.32"/>
<polygon fill="black" stroke="black" points="382.45,-276.1 378.95,-266.1 375.45,-276.1 382.45,-276.1"/>
</g>
<!-- No_955838599 -->
<g id="node4" class="node">
<title>No_955838599</title>
<ellipse fill="none" stroke="black" cx="74.95" cy="-117.48" rx="74.91" ry="37.45"/>
<text text-anchor="middle" x="74.95" y="-128.78" font-family="Times,serif" font-size="14.00">Aline Santos</text>
<text text-anchor="middle" x="74.95" y="-113.78" font-family="Times,serif" font-size="14.00">955838599</text>
<text text-anchor="middle" x="74.95" y="-98.78" font-family="Times,serif" font-size="14.00">fb=0</text>
</g>
<!-- No_960933788&#45;&gt;No_955838599 -->
<g id="edge3" class="edge">
<title>No_960933788&#45;&gt;No_955838599</title>
<path fill="none" stroke="black" d="M144.96,-193.26C134.9,-182.51 123.68,-170.53 113.23,-159.36"/>
<polygon fill="black" stroke="black" points="115.52,-156.69 106.13,-151.78 110.41,-161.48 115.52,-156.69"/>
</g>
<!-- NUL_2 -->
<g id="node7" class="node">
<title>NUL_2</title>
<polygon fill="none" stroke="black" points="211.95,-139.48 167.95,-139.48 167.95,-95.48 211.95,-95.48 211.95,-139.48"/>
<text text-anchor="middle" x="189.95" y="-113.78" font-family="Times,serif" font-size="14.00">null</text>
</g>
<!-- No_960933788&#45;&gt;NUL_2 -->
<g id="edge6" class="edge">
<title>No_960933788&#45;&gt;NUL_2</title>
<path fill="none" stroke="black" d="M181.32,-190.85C182.91,-177.52 184.69,-162.58 186.22,-149.75"/>
<polygon fill="black" stroke="black" points="189.73,-149.9 187.44,-139.55 182.78,-149.07 189.73,-149.9"/>
</g>
<!-- NUL_0 -->
<g id="node5" class="node">
<title>NUL_0</title>
<polygon fill="none" stroke="black" points="65.95,-44 21.95,-44 21.95,0 65.95,0 65.95,-44"/>
<text text-anchor="middle" x="43.95" y="-18.3" font-family="Times,serif" font-size="14.00">null</text>
</g>
<!-- No_955838599&#45;&gt;NUL_0 -->
<g id="edge4" class="edge">
<title>No_955838599&#45;&gt;NUL_0</title>
<path fill="none" stroke="black" d="M62.97,-80.34C60.05,-71.55 56.96,-62.23 54.14,-53.72"/>
<polygon fill="black" stroke="black" points="57.45,-52.57 50.98,-44.18 50.8,-54.77 57.45,-52.57"/>
</g>
<!-- NUL_1 -->
<g id="node6" class="node">
<title>NUL_1</title>
<polygon fill="none" stroke="black" points="127.95,-44 83.95,-44 83.95,0 127.95,0 127.95,-44"/>
<text text-anchor="middle" x="105.95" y="-18.3" font-family="Times,serif" font-size="14.00">null</text>
</g>
<!-- No_955838599&#45;&gt;NUL_1 -->
<g id="edge5" class="edge">
<title>No_955838599&#45;&gt;NUL_1</title>
<path fill="none" stroke="black" d="M86.94,-80.34C89.85,-71.55 92.94,-62.23 95.77,-53.72"/>
<polygon fill="black" stroke="black" points="99.1,-54.77 98.93,-44.18 92.46,-52.57 99.1,-54.77"/>
</g>
<!-- NUL_3 -->
<g id="node9" class="node">
<title>NUL_3</title>
<polygon fill="none" stroke="black" points="286.95,-139.48 242.95,-139.48 242.95,-95.48 286.95,-95.48 286.95,-139.48"/>
<text text-anchor="middle" x="264.95" y="-113.78" font-family="Times,serif" font-size="14.00">null</text>
</g>
<!-- No_967387182&#45;&gt;NUL_3 -->
<g id="edge8" class="edge">
<title>No_967387182&#45;&gt;NUL_3</title>
<path fill="none" stroke="black" d="M339.02,-194.66C324.99,-182.61 309.39,-168.57 295.95,-154.95 293.62,-152.59 291.26,-150.07 288.93,-147.51"/>
<polygon fill="black" stroke="black" points="291.37,-144.98 282.14,-139.78 286.12,-149.6 291.37,-144.98"/>
</g>
<!-- No_975960513 -->
<g id="node10" class="node">
<title>No_975960513</title>
<ellipse fill="none" stroke="black" cx="378.95" cy="-117.48" rx="73.58" ry="37.45"/>
<text text-anchor="middle" x="378.95" y="-128.78" font-family="Times,serif" font-size="14.00">Altair Souza</text>
<text text-anchor="middle" x="378.95" y="-113.78" font-family="Times,serif" font-size="14.00">975960513</text>
<text text-anchor="middle" x="378.95" y="-98.78" font-family="Times,serif" font-size="14.00">fb=0</text>
</g>
<!-- No_967387182&#45;&gt;No_975960513 -->
<g id="edge9" class="edge">
<title>No_967387182&#45;&gt;No_975960513</title>
<path fill="none" stroke="black" d="M378.95,-190.85C378.95,-182.67 378.95,-173.89 378.95,-165.37"/>
<polygon fill="black" stroke="black" points="382.45,-165.15 378.95,-155.15 375.45,-165.15 382.45,-165.15"/>
</g>
<!-- NUL_4 -->
<g id="node11" class="node">
<title>NUL_4</title>
<polygon fill="none" stroke="black" points="369.95,-44 325.95,-44 325.95,0 369.95,0 369.95,-44"/>
<text text-anchor="middle" x="347.95" y="-18.3" font-family="Times,serif" font-size="14.00">null</text>
</g>
<!-- No_975960513&#45;&gt;NUL_4 -->
<g id="edge10" class="edge">
<title>No_975960513&#45;&gt;NUL_4</title>
<path fill="none" stroke="black" d="M366.97,-80.34C364.05,-71.55 360.96,-62.23 358.14,-53.72"/>
<polygon fill="black" stroke="black" points="361.45,-52.57 354.98,-44.18 354.8,-54.77 361.45,-52.57"/>
</g>
<!-- NUL_5 -->
<g id="node12" class="node">
<title>NUL_5</title>
<polygon fill="none" stroke="black" points="431.95,-44 387.95,-44 387.95,0 431.95,0 431.95,-44"/>
<text text-anchor="middle" x="409.95" y="-18.3" font-family="Times,serif" font-size="14.00">null</text>
</g>
<!-- No_975960513&#45;&gt;NUL_5 -->
<g id="edge11" class="edge">
<title>No_975960513&#45;&gt;NUL_5</title>
<path fill="none" stroke="black" d="M390.94,-80.34C393.85,-71.55 396.94,-62.23 399.77,-53.72"/>
<polygon fill="black" stroke="black" points="403.1,-54.77 402.93,-44.18 396.46,-52.57 403.1,-54.77"/>
</g>
<!-- No_987340734 -->
<g id="node14" class="node">
<title>No_987340734</title>
<ellipse fill="none" stroke="black" cx="690.95" cy="-228.43" rx="98.99" ry="37.45"/>
<text text-anchor="middle" x="690.95" y="-239.73" font-family="Times,serif" font-size="14.00">Antônia Machado</text>
<text text-anchor="middle" x="690.95" y="-224.73" font-family="Times,serif" font-size="14.00">987340734</text>
<text text-anchor="middle" x="690.95" y="-209.73" font-family="Times,serif" font-size="14.00">fb=0</text>
</g>
<!-- No_992883178&#45;&gt;No_987340734 -->
<g id="edge13" class="edge">
<title>No_992883178&#45;&gt;No_987340734</title>
<path fill="none" stroke="black" d="M690.95,-301.8C690.95,-293.63 690.95,-284.85 690.95,-276.32"/>
<polygon fill="black" stroke="black" points="694.45,-276.1 690.95,-266.1 687.45,-276.1 694.45,-276.1"/>
</g>
<!-- No_996598918 -->
<g id="node21" class="node">
<title>No_996598918</title>
<ellipse fill="none" stroke="black" cx="1001.95" cy="-228.43" rx="69.09" ry="37.45"/>
<text text-anchor="middle" x="1001.95" y="-239.73" font-family="Times,serif" font-size="14.00">Ana Farias</text>
<text text-anchor="middle" x="1001.95" y="-224.73" font-family="Times,serif" font-size="14.00">996598918</text>
<text text-anchor="middle" x="1001.95" y="-209.73" font-family="Times,serif" font-size="14.00">fb=&#45;1</text>
</g>
<!-- No_992883178&#45;&gt;No_996598918 -->
<g id="edge20" class="edge">
<title>No_992883178&#45;&gt;No_996598918</title>
<path fill="none" stroke="black" d="M765.45,-312.29C817,-294.23 885.03,-270.39 934.89,-252.92"/>
<polygon fill="black" stroke="black" points="936.33,-256.13 944.61,-249.52 934.01,-249.52 936.33,-256.13"/>
</g>
<!-- No_986979432 -->
<g id="node15" class="node">
<title>No_986979432</title>
<ellipse fill="none" stroke="black" cx="577.95" cy="-117.48" rx="107.46" ry="37.45"/>
<text text-anchor="middle" x="577.95" y="-128.78" font-family="Times,serif" font-size="14.00">Américo Rodrigues</text>
<text text-anchor="middle" x="577.95" y="-113.78" font-family="Times,serif" font-size="14.00">986979432</text>
<text text-anchor="middle" x="577.95" y="-98.78" font-family="Times,serif" font-size="14.00">fb=0</text>
</g>
<!-- No_987340734&#45;&gt;No_986979432 -->
<g id="edge14" class="edge">
<title>No_987340734&#45;&gt;No_986979432</title>
<path fill="none" stroke="black" d="M655.51,-193.26C644.57,-182.71 632.41,-170.98 621.01,-160"/>
<polygon fill="black" stroke="black" points="623.29,-157.33 613.66,-152.9 618.43,-162.37 623.29,-157.33"/>
</g>
<!-- No_987671978 -->
<g id="node18" class="node">
<title>No_987671978</title>
<ellipse fill="none" stroke="black" cx="793.95" cy="-117.48" rx="90.52" ry="37.45"/>
<text text-anchor="middle" x="793.95" y="-128.78" font-family="Times,serif" font-size="14.00">Adriana Pereira</text>
<text text-anchor="middle" x="793.95" y="-113.78" font-family="Times,serif" font-size="14.00">987671978</text>
<text text-anchor="middle" x="793.95" y="-98.78" font-family="Times,serif" font-size="14.00">fb=0</text>
</g>
<!-- No_987340734&#45;&gt;No_987671978 -->
<g id="edge17" class="edge">
<title>No_987340734&#45;&gt;No_987671978</title>
<path fill="none" stroke="black" d="M723.54,-192.96C733.41,-182.52 744.35,-170.95 754.6,-160.1"/>
<polygon fill="black" stroke="black" points="757.25,-162.4 761.58,-152.73 752.16,-157.59 757.25,-162.4"/>
</g>
<!-- NUL_6 -->
<g id="node16" class="node">
<title>NUL_6</title>
<polygon fill="none" stroke="black" points="568.95,-44 524.95,-44 524.95,0 568.95,0 568.95,-44"/>
<text text-anchor="middle" x="546.95" y="-18.3" font-family="Times,serif" font-size="14.00">null</text>
</g>
<!-- No_986979432&#45;&gt;NUL_6 -->
<g id="edge15" class="edge">
<title>No_986979432&#45;&gt;NUL_6</title>
<path fill="none" stroke="black" d="M565.88,-80.07C562.97,-71.3 559.89,-62.02 557.08,-53.55"/>
<polygon fill="black" stroke="black" points="560.41,-52.45 553.94,-44.06 553.76,-54.65 560.41,-52.45"/>
</g>
<!-- NUL_7 -->
<g id="node17" class="node">
<title>NUL_7</title>
<polygon fill="none" stroke="black" points="630.95,-44 586.95,-44 586.95,0 630.95,0 630.95,-44"/>
<text text-anchor="middle" x="608.95" y="-18.3" font-family="Times,serif" font-size="14.00">null</text>
</g>
<!-- No_986979432&#45;&gt;NUL_7 -->
<g id="edge16" class="edge">
<title>No_986979432&#45;&gt;NUL_7</title>
<path fill="none" stroke="black" d="M590.03,-80.07C592.94,-71.3 596.01,-62.02 598.82,-53.55"/>
<polygon fill="black" stroke="black" points="602.14,-54.65 601.97,-44.06 595.5,-52.45 602.14,-54.65"/>
</g>
<!-- NUL_8 -->
<g id="node19" class="node">
<title>NUL_8</title>
<polygon fill="none" stroke="black" points="784.95,-44 740.95,-44 740.95,0 784.95,0 784.95,-44"/>
<text text-anchor="middle" x="762.95" y="-18.3" font-family="Times,serif" font-size="14.00">null</text>
</g>
<!-- No_987671978&#45;&gt;NUL_8 -->
<g id="edge18" class="edge">
<title>No_987671978&#45;&gt;NUL_8</title>
<path fill="none" stroke="black" d="M781.88,-80.07C778.97,-71.3 775.89,-62.02 773.08,-53.55"/>
<polygon fill="black" stroke="black" points="776.41,-52.45 769.94,-44.06 769.76,-54.65 776.41,-52.45"/>
</g>
<!-- NUL_9 -->
<g id="node20" class="node">
<title>NUL_9</title>
<polygon fill="none" stroke="black" points="846.95,-44 802.95,-44 802.95,0 846.95,0 846.95,-44"/>
<text text-anchor="middle" x="824.95" y="-18.3" font-family="Times,serif" font-size="14.00">null</text>
</g>
<!-- No_987671978&#45;&gt;NUL_9 -->
<g id="edge19" class="edge">
<title>No_987671978&#45;&gt;NUL_9</title>
<path fill="none" stroke="black" d="M806.03,-80.07C808.94,-71.3 812.01,-62.02 814.82,-53.55"/>
<polygon fill="black" stroke="black" points="818.14,-54.65 817.97,-44.06 811.5,-52.45 818.14,-54.65"/>
</g>
<!-- No_994116870 -->
<g id="node22" class="node">
<title>No_994116870</title>
<ellipse fill="none" stroke="black" cx="1001.95" cy="-117.48" rx="98.99" ry="37.45"/>
<text text-anchor="middle" x="1001.95" y="-128.78" font-family="Times,serif" font-size="14.00">Alexandra Moura</text>
<text text-anchor="middle" x="1001.95" y="-113.78" font-family="Times,serif" font-size="14.00">994116870</text>
<text text-anchor="middle" x="1001.95" y="-98.78" font-family="Times,serif" font-size="14.00">fb=0</text>
</g>
<!-- No_996598918&#45;&gt;No_994116870 -->
<g id="edge21" class="edge">
<title>No_996598918&#45;&gt;No_994116870</title>
<path fill="none" stroke="black" d="M1001.95,-190.85C1001.95,-182.67 1001.95,-173.89 1001.95,-165.37"/>
<polygon fill="black" stroke="black" points="1005.45,-165.15 1001.95,-155.15 998.45,-165.15 1005.45,-165.15"/>
</g>
<!-- NUL_12 -->
<g id="node25" class="node">
<title>NUL_12</title>
<polygon fill="none" stroke="black" points="1162.95,-139.48 1118.95,-139.48 1118.95,-95.48 1162.95,-95.48 1162.95,-139.48"/>
<text text-anchor="middle" x="1140.95" y="-113.78" font-family="Times,serif" font-size="14.00">null</text>
</g>
<!-- No_996598918&#45;&gt;NUL_12 -->
<g id="edge24" class="edge">
<title>No_996598918&#45;&gt;NUL_12</title>
<path fill="none" stroke="black" d="M1048.12,-200.42C1068.06,-187.77 1091.09,-171.79 1109.95,-154.95 1112.5,-152.68 1115.02,-150.21 1117.46,-147.64"/>
<polygon fill="black" stroke="black" points="1120.41,-149.61 1124.5,-139.83 1115.21,-144.92 1120.41,-149.61"/>
</g>
<!-- NUL_10 -->
<g id="node23" class="node">
<title>NUL_10</title>
<polygon fill="none" stroke="black" points="992.95,-44 948.95,-44 948.95,0 992.95,0 992.95,-44"/>
<text text-anchor="middle" x="970.95" y="-18.3" font-family="Times,serif" font-size="14.00">null</text>
</g>
<!-- No_994116870&#45;&gt;NUL_10 -->
<g id="edge22" class="edge">
<title>No_994116870&#45;&gt;NUL_10</title>
<path fill="none" stroke="black" d="M989.88,-80.07C986.97,-71.3 983.89,-62.02 981.08,-53.55"/>
<polygon fill="black" stroke="black" points="984.41,-52.45 977.94,-44.06 977.76,-54.65 984.41,-52.45"/>
</g>
<!-- NUL_11 -->
<g id="node24" class="node">
<title>NUL_11</title>
<polygon fill="none" stroke="black" points="1054.95,-44 1010.95,-44 1010.95,0 1054.95,0 1054.95,-44"/>
<text text-anchor="middle" x="1032.95" y="-18.3" font-family="Times,serif" font-size="14.00">null</text>
</g>
<!-- No_994116870&#45;&gt;NUL_11 -->
<g id="edge23" class="edge">
<title>No_994116870&#45;&gt;NUL_11</title>
<path fill="none" stroke="black" d="M1014.03,-80.07C1016.94,-71.3 1020.01,-62.02 1022.82,-53.55"/>
<polygon fill="black" stroke="black" points="1026.14,-54.65 1025.97,-44.06 1019.5,-52.45 1026.14,-54.65"/>
</g>
</g>
</svg>
