<?xml version="1.0" encoding="UTF-8" standalone="no"?>
<!DOCTYPE svg PUBLIC "-//W3C//DTD SVG 1.1//EN"
 "http://www.w3.org/Graphics/SVG/1.1/DTD/svg11.dtd">
<!-- Generated by graphviz version 2.43.0 (0)
 -->
<!-- Title: BST Pages: 1 -->
<svg width="372pt" height="137pt"
 viewBox="0.00 0.00 371.97 137.19" xmlns="http://www.w3.org/2000/svg" xmlns:xlink="http://www.w3.org/1999/xlink">
<g id="graph0" class="graph" transform="scale(1 1) rotate(0) translate(4 133.19)">
<title>BST</title>
<polygon fill="white" stroke="transparent" points="-4,4 -4,-133.19 367.97,-133.19 367.97,4 -4,4"/>
<!-- Alexandre Barbosa,992883178 [fb:0] -->
<g id="node1" class="node">
<title>Alexandre Barbosa,992883178 [fb:0]</title>
<ellipse fill="none" stroke="black" cx="181.98" cy="-111.19" rx="181.97" ry="18"/>
<text text-anchor="middle" x="181.98" y="-107.49" font-family="Times,serif" font-size="14.00">Alexandre Barbosa,992883178 [fb:0]</text>
</g>
<!-- N0 -->
<g id="node2" class="node">
<title>N0</title>
<ellipse fill="none" stroke="black" cx="144.98" cy="-28.6" rx="28.7" ry="28.7"/>
<text text-anchor="middle" x="144.98" y="-24.9" font-family="Times,serif" font-size="14.00">null</text>
</g>
<!-- Alexandre Barbosa,992883178 [fb:0]&#45;&gt;N0 -->
<g id="edge1" class="edge">
<title>Alexandre Barbosa,992883178 [fb:0]&#45;&gt;N0</title>
<path fill="none" stroke="black" d="M174.14,-93.1C170.28,-84.7 165.48,-74.25 160.9,-64.27"/>
<polygon fill="black" stroke="black" points="163.97,-62.56 156.61,-54.93 157.61,-65.48 163.97,-62.56"/>
</g>
<!-- N1 -->
<g id="node3" class="node">
<title>N1</title>
<ellipse fill="none" stroke="black" cx="219.98" cy="-28.6" rx="28.7" ry="28.7"/>
<text text-anchor="middle" x="219.98" y="-24.9" font-family="Times,serif" font-size="14.00">null</text>
</g>
<!-- Alexandre Barbosa,992883178 [fb:0]&#45;&gt;N1 -->
<g id="edge2" class="edge">
<title>Alexandre Barbosa,992883178 [fb:0]&#45;&gt;N1</title>
<path fill="none" stroke="black" d="M190.04,-93.1C194.01,-84.7 198.93,-74.25 203.63,-64.27"/>
<polygon fill="black" stroke="black" points="206.94,-65.47 208.04,-54.93 200.61,-62.49 206.94,-65.47"/>
</g>
</g>
</svg>
