<?xml version="1.0" encoding="UTF-8" standalone="no"?>
<!DOCTYPE svg PUBLIC "-//W3C//DTD SVG 1.1//EN"
 "http://www.w3.org/Graphics/SVG/1.1/DTD/svg11.dtd">
<!-- Generated by graphviz version 2.43.0 (0)
 -->
<!-- Title: BST Pages: 1 -->
<svg width="766pt" height="385pt"
 viewBox="0.00 0.00 765.93 384.86" xmlns="http://www.w3.org/2000/svg" xmlns:xlink="http://www.w3.org/1999/xlink">
<g id="graph0" class="graph" transform="scale(1 1) rotate(0) translate(4 380.86)">
<title>BST</title>
<polygon fill="white" stroke="transparent" points="-4,4 -4,-380.86 761.93,-380.86 761.93,4 -4,4"/>
<!-- No_982632579 -->
<g id="node1" class="node">
<title>No_982632579</title>
<ellipse fill="none" stroke="black" cx="398.63" cy="-339.38" rx="69.09" ry="37.45"/>
<text text-anchor="middle" x="398.63" y="-350.68" font-family="Times,serif" font-size="14.00">Abel Costa</text>
<text text-anchor="middle" x="398.63" y="-335.68" font-family="Times,serif" font-size="14.00">982632579</text>
<text text-anchor="middle" x="398.63" y="-320.68" font-family="Times,serif" font-size="14.00">fb=0</text>
</g>
<!-- No_964642705 -->
<g id="node2" class="node">
<title>No_964642705</title>
<ellipse fill="none" stroke="black" cx="294.63" cy="-228.43" rx="78.48" ry="37.45"/>
<text text-anchor="middle" x="294.63" y="-239.73" font-family="Times,serif" font-size="14.00">Alícia Freitas</text>
<text text-anchor="middle" x="294.63" y="-224.73" font-family="Times,serif" font-size="14.00">964642705</text>
<text text-anchor="middle" x="294.63" y="-209.73" font-family="Times,serif" font-size="14.00">fb=0</text>
</g>
<!-- No_982632579&#45;&gt;No_964642705 -->
<g id="edge1" class="edge">
<title>No_982632579&#45;&gt;No_964642705</title>
<path fill="none" stroke="black" d="M367.43,-305.69C356.83,-294.59 344.84,-282.03 333.71,-270.37"/>
<polygon fill="black" stroke="black" points="335.97,-267.67 326.53,-262.85 330.91,-272.5 335.97,-267.67"/>
</g>
<!-- No_992883178 -->
<g id="node9" class="node">
<title>No_992883178</title>
<ellipse fill="none" stroke="black" cx="502.63" cy="-228.43" rx="107.46" ry="37.45"/>
<text text-anchor="middle" x="502.63" y="-239.73" font-family="Times,serif" font-size="14.00">Alexandre Barbosa</text>
<text text-anchor="middle" x="502.63" y="-224.73" font-family="Times,serif" font-size="14.00">992883178</text>
<text text-anchor="middle" x="502.63" y="-209.73" font-family="Times,serif" font-size="14.00">fb=0</text>
</g>
<!-- No_982632579&#45;&gt;No_992883178 -->
<g id="edge8" class="edge">
<title>No_982632579&#45;&gt;No_992883178</title>
<path fill="none" stroke="black" d="M429.83,-305.69C440.04,-295 451.53,-282.96 462.31,-271.67"/>
<polygon fill="black" stroke="black" points="464.9,-274.02 469.28,-264.37 459.84,-269.19 464.9,-274.02"/>
</g>
<!-- No_960933788 -->
<g id="node3" class="node">
<title>No_960933788</title>
<ellipse fill="none" stroke="black" cx="92.63" cy="-117.48" rx="92.76" ry="37.45"/>
<text text-anchor="middle" x="92.63" y="-128.78" font-family="Times,serif" font-size="14.00">Alberto Campos</text>
<text text-anchor="middle" x="92.63" y="-113.78" font-family="Times,serif" font-size="14.00">960933788</text>
<text text-anchor="middle" x="92.63" y="-98.78" font-family="Times,serif" font-size="14.00">fb=0</text>
</g>
<!-- No_964642705&#45;&gt;No_960933788 -->
<g id="edge2" class="edge">
<title>No_964642705&#45;&gt;No_960933788</title>
<path fill="none" stroke="black" d="M243.4,-199.8C216.92,-185.52 184.37,-167.96 156.3,-152.82"/>
<polygon fill="black" stroke="black" points="157.81,-149.66 147.35,-147.99 154.49,-155.82 157.81,-149.66"/>
</g>
<!-- No_967387182 -->
<g id="node6" class="node">
<title>No_967387182</title>
<ellipse fill="none" stroke="black" cx="294.63" cy="-117.48" rx="91.43" ry="37.45"/>
<text text-anchor="middle" x="294.63" y="-128.78" font-family="Times,serif" font-size="14.00">Alfredo Martins</text>
<text text-anchor="middle" x="294.63" y="-113.78" font-family="Times,serif" font-size="14.00">967387182</text>
<text text-anchor="middle" x="294.63" y="-98.78" font-family="Times,serif" font-size="14.00">fb=0</text>
</g>
<!-- No_964642705&#45;&gt;No_967387182 -->
<g id="edge5" class="edge">
<title>No_964642705&#45;&gt;No_967387182</title>
<path fill="none" stroke="black" d="M294.63,-190.85C294.63,-182.67 294.63,-173.89 294.63,-165.37"/>
<polygon fill="black" stroke="black" points="298.13,-165.15 294.63,-155.15 291.13,-165.15 298.13,-165.15"/>
</g>
<!-- NUL_0 -->
<g id="node4" class="node">
<title>NUL_0</title>
<polygon fill="none" stroke="black" points="83.63,-44 39.63,-44 39.63,0 83.63,0 83.63,-44"/>
<text text-anchor="middle" x="61.63" y="-18.3" font-family="Times,serif" font-size="14.00">null</text>
</g>
<!-- No_960933788&#45;&gt;NUL_0 -->
<g id="edge3" class="edge">
<title>No_960933788&#45;&gt;NUL_0</title>
<path fill="none" stroke="black" d="M80.56,-80.07C77.65,-71.3 74.57,-62.02 71.76,-53.55"/>
<polygon fill="black" stroke="black" points="75.08,-52.45 68.61,-44.06 68.44,-54.65 75.08,-52.45"/>
</g>
<!-- NUL_1 -->
<g id="node5" class="node">
<title>NUL_1</title>
<polygon fill="none" stroke="black" points="145.63,-44 101.63,-44 101.63,0 145.63,0 145.63,-44"/>
<text text-anchor="middle" x="123.63" y="-18.3" font-family="Times,serif" font-size="14.00">null</text>
</g>
<!-- No_960933788&#45;&gt;NUL_1 -->
<g id="edge4" class="edge">
<title>No_960933788&#45;&gt;NUL_1</title>
<path fill="none" stroke="black" d="M104.71,-80.07C107.61,-71.3 110.69,-62.02 113.5,-53.55"/>
<polygon fill="black" stroke="black" points="116.82,-54.65 116.65,-44.06 110.18,-52.45 116.82,-54.65"/>
</g>
<!-- NUL_2 -->
<g id="node7" class="node">
<title>NUL_2</title>
<polygon fill="none" stroke="black" points="285.63,-44 241.63,-44 241.63,0 285.63,0 285.63,-44"/>
<text text-anchor="middle" x="263.63" y="-18.3" font-family="Times,serif" font-size="14.00">null</text>
</g>
<!-- No_967387182&#45;&gt;NUL_2 -->
<g id="edge6" class="edge">
<title>No_967387182&#45;&gt;NUL_2</title>
<path fill="none" stroke="black" d="M282.56,-80.07C279.65,-71.3 276.57,-62.02 273.76,-53.55"/>
<polygon fill="black" stroke="black" points="277.08,-52.45 270.61,-44.06 270.44,-54.65 277.08,-52.45"/>
</g>
<!-- NUL_3 -->
<g id="node8" class="node">
<title>NUL_3</title>
<polygon fill="none" stroke="black" points="347.63,-44 303.63,-44 303.63,0 347.63,0 347.63,-44"/>
<text text-anchor="middle" x="325.63" y="-18.3" font-family="Times,serif" font-size="14.00">null</text>
</g>
<!-- No_967387182&#45;&gt;NUL_3 -->
<g id="edge7" class="edge">
<title>No_967387182&#45;&gt;NUL_3</title>
<path fill="none" stroke="black" d="M306.71,-80.07C309.61,-71.3 312.69,-62.02 315.5,-53.55"/>
<polygon fill="black" stroke="black" points="318.82,-54.65 318.65,-44.06 312.18,-52.45 318.82,-54.65"/>
</g>
<!-- No_987340734 -->
<g id="node10" class="node">
<title>No_987340734</title>
<ellipse fill="none" stroke="black" cx="502.63" cy="-117.48" rx="98.99" ry="37.45"/>
<text text-anchor="middle" x="502.63" y="-128.78" font-family="Times,serif" font-size="14.00">Antônia Machado</text>
<text text-anchor="middle" x="502.63" y="-113.78" font-family="Times,serif" font-size="14.00">987340734</text>
<text text-anchor="middle" x="502.63" y="-98.78" font-family="Times,serif" font-size="14.00">fb=0</text>
</g>
<!-- No_992883178&#45;&gt;No_987340734 -->
<g id="edge9" class="edge">
<title>No_992883178&#45;&gt;No_987340734</title>
<path fill="none" stroke="black" d="M502.63,-190.85C502.63,-182.67 502.63,-173.89 502.63,-165.37"/>
<polygon fill="black" stroke="black" points="506.13,-165.15 502.63,-155.15 499.13,-165.15 506.13,-165.15"/>
</g>
<!-- No_996598918 -->
<g id="node13" class="node">
<title>No_996598918</title>
<ellipse fill="none" stroke="black" cx="688.63" cy="-117.48" rx="69.09" ry="37.45"/>
<text text-anchor="middle" x="688.63" y="-128.78" font-family="Times,serif" font-size="14.00">Ana Farias</text>
<text text-anchor="middle" x="688.63" y="-113.78" font-family="Times,serif" font-size="14.00">996598918</text>
<text text-anchor="middle" x="688.63" y="-98.78" font-family="Times,serif" font-size="14.00">fb=0</text>
</g>
<!-- No_992883178&#45;&gt;No_996598918 -->
<g id="edge12" class="edge">
<title>No_992883178&#45;&gt;No_996598918</title>
<path fill="none" stroke="black" d="M556.43,-195.92C580.7,-181.7 609.33,-164.93 633.73,-150.63"/>
<polygon fill="black" stroke="black" points="635.66,-153.56 642.52,-145.49 632.12,-147.52 635.66,-153.56"/>
</g>
<!-- NUL_4 -->
<g id="node11" class="node">
<title>NUL_4</title>
<polygon fill="none" stroke="black" points="493.63,-44 449.63,-44 449.63,0 493.63,0 493.63,-44"/>
<text text-anchor="middle" x="471.63" y="-18.3" font-family="Times,serif" font-size="14.00">null</text>
</g>
<!-- No_987340734&#45;&gt;NUL_4 -->
<g id="edge10" class="edge">
<title>No_987340734&#45;&gt;NUL_4</title>
<path fill="none" stroke="black" d="M490.56,-80.07C487.65,-71.3 484.57,-62.02 481.76,-53.55"/>
<polygon fill="black" stroke="black" points="485.08,-52.45 478.61,-44.06 478.44,-54.65 485.08,-52.45"/>
</g>
<!-- NUL_5 -->
<g id="node12" class="node">
<title>NUL_5</title>
<polygon fill="none" stroke="black" points="555.63,-44 511.63,-44 511.63,0 555.63,0 555.63,-44"/>
<text text-anchor="middle" x="533.63" y="-18.3" font-family="Times,serif" font-size="14.00">null</text>
</g>
<!-- No_987340734&#45;&gt;NUL_5 -->
<g id="edge11" class="edge">
<title>No_987340734&#45;&gt;NUL_5</title>
<path fill="none" stroke="black" d="M514.71,-80.07C517.61,-71.3 520.69,-62.02 523.5,-53.55"/>
<polygon fill="black" stroke="black" points="526.82,-54.65 526.65,-44.06 520.18,-52.45 526.82,-54.65"/>
</g>
<!-- NUL_6 -->
<g id="node14" class="node">
<title>NUL_6</title>
<polygon fill="none" stroke="black" points="679.63,-44 635.63,-44 635.63,0 679.63,0 679.63,-44"/>
<text text-anchor="middle" x="657.63" y="-18.3" font-family="Times,serif" font-size="14.00">null</text>
</g>
<!-- No_996598918&#45;&gt;NUL_6 -->
<g id="edge13" class="edge">
<title>No_996598918&#45;&gt;NUL_6</title>
<path fill="none" stroke="black" d="M676.65,-80.34C673.73,-71.55 670.64,-62.23 667.82,-53.72"/>
<polygon fill="black" stroke="black" points="671.13,-52.57 664.66,-44.18 664.48,-54.77 671.13,-52.57"/>
</g>
<!-- NUL_7 -->
<g id="node15" class="node">
<title>NUL_7</title>
<polygon fill="none" stroke="black" points="741.63,-44 697.63,-44 697.63,0 741.63,0 741.63,-44"/>
<text text-anchor="middle" x="719.63" y="-18.3" font-family="Times,serif" font-size="14.00">null</text>
</g>
<!-- No_996598918&#45;&gt;NUL_7 -->
<g id="edge14" class="edge">
<title>No_996598918&#45;&gt;NUL_7</title>
<path fill="none" stroke="black" d="M700.62,-80.34C703.53,-71.55 706.62,-62.23 709.44,-53.72"/>
<polygon fill="black" stroke="black" points="712.78,-54.77 712.61,-44.18 706.14,-52.57 712.78,-54.77"/>
</g>
</g>
</svg>
