<?xml version="1.0" encoding="UTF-8" standalone="no"?>
<!DOCTYPE svg PUBLIC "-//W3C//DTD SVG 1.1//EN"
 "http://www.w3.org/Graphics/SVG/1.1/DTD/svg11.dtd">
<!-- Generated by graphviz version 2.43.0 (0)
 -->
<!-- Title: BST Pages: 1 -->
<svg width="846pt" height="496pt"
 viewBox="0.00 0.00 845.63 495.81" xmlns="http://www.w3.org/2000/svg" xmlns:xlink="http://www.w3.org/1999/xlink">
<g id="graph0" class="graph" transform="scale(1 1) rotate(0) translate(4 491.81)">
<title>BST</title>
<polygon fill="white" stroke="transparent" points="-4,4 -4,-491.81 841.63,-491.81 841.63,4 -4,4"/>
<!-- No_982632579 -->
<g id="node1" class="node">
<title>No_982632579</title>
<ellipse fill="none" stroke="black" cx="398.63" cy="-450.34" rx="69.09" ry="37.45"/>
<text text-anchor="middle" x="398.63" y="-461.64" font-family="Times,serif" font-size="14.00">Abel Costa</text>
<text text-anchor="middle" x="398.63" y="-446.64" font-family="Times,serif" font-size="14.00">982632579</text>
<text text-anchor="middle" x="398.63" y="-431.64" font-family="Times,serif" font-size="14.00">fb=1</text>
</g>
<!-- No_964642705 -->
<g id="node2" class="node">
<title>No_964642705</title>
<ellipse fill="none" stroke="black" cx="294.63" cy="-339.38" rx="78.48" ry="37.45"/>
<text text-anchor="middle" x="294.63" y="-350.68" font-family="Times,serif" font-size="14.00">Alícia Freitas</text>
<text text-anchor="middle" x="294.63" y="-335.68" font-family="Times,serif" font-size="14.00">964642705</text>
<text text-anchor="middle" x="294.63" y="-320.68" font-family="Times,serif" font-size="14.00">fb=0</text>
</g>
<!-- No_982632579&#45;&gt;No_964642705 -->
<g id="edge1" class="edge">
<title>No_982632579&#45;&gt;No_964642705</title>
<path fill="none" stroke="black" d="M367.43,-416.65C356.83,-405.54 344.84,-392.99 333.71,-381.32"/>
<polygon fill="black" stroke="black" points="335.97,-378.62 326.53,-373.8 330.91,-383.45 335.97,-378.62"/>
</g>
<!-- No_992883178 -->
<g id="node9" class="node">
<title>No_992883178</title>
<ellipse fill="none" stroke="black" cx="502.63" cy="-339.38" rx="107.46" ry="37.45"/>
<text text-anchor="middle" x="502.63" y="-350.68" font-family="Times,serif" font-size="14.00">Alexandre Barbosa</text>
<text text-anchor="middle" x="502.63" y="-335.68" font-family="Times,serif" font-size="14.00">992883178</text>
<text text-anchor="middle" x="502.63" y="-320.68" font-family="Times,serif" font-size="14.00">fb=1</text>
</g>
<!-- No_982632579&#45;&gt;No_992883178 -->
<g id="edge8" class="edge">
<title>No_982632579&#45;&gt;No_992883178</title>
<path fill="none" stroke="black" d="M429.83,-416.65C440.04,-405.95 451.53,-393.92 462.31,-382.62"/>
<polygon fill="black" stroke="black" points="464.9,-384.98 469.28,-375.33 459.84,-380.14 464.9,-384.98"/>
</g>
<!-- No_960933788 -->
<g id="node3" class="node">
<title>No_960933788</title>
<ellipse fill="none" stroke="black" cx="92.63" cy="-228.43" rx="92.76" ry="37.45"/>
<text text-anchor="middle" x="92.63" y="-239.73" font-family="Times,serif" font-size="14.00">Alberto Campos</text>
<text text-anchor="middle" x="92.63" y="-224.73" font-family="Times,serif" font-size="14.00">960933788</text>
<text text-anchor="middle" x="92.63" y="-209.73" font-family="Times,serif" font-size="14.00">fb=0</text>
</g>
<!-- No_964642705&#45;&gt;No_960933788 -->
<g id="edge2" class="edge">
<title>No_964642705&#45;&gt;No_960933788</title>
<path fill="none" stroke="black" d="M243.4,-310.75C216.92,-296.47 184.37,-278.91 156.3,-263.77"/>
<polygon fill="black" stroke="black" points="157.81,-260.61 147.35,-258.94 154.49,-266.77 157.81,-260.61"/>
</g>
<!-- No_967387182 -->
<g id="node6" class="node">
<title>No_967387182</title>
<ellipse fill="none" stroke="black" cx="294.63" cy="-228.43" rx="91.43" ry="37.45"/>
<text text-anchor="middle" x="294.63" y="-239.73" font-family="Times,serif" font-size="14.00">Alfredo Martins</text>
<text text-anchor="middle" x="294.63" y="-224.73" font-family="Times,serif" font-size="14.00">967387182</text>
<text text-anchor="middle" x="294.63" y="-209.73" font-family="Times,serif" font-size="14.00">fb=0</text>
</g>
<!-- No_964642705&#45;&gt;No_967387182 -->
<g id="edge5" class="edge">
<title>No_964642705&#45;&gt;No_967387182</title>
<path fill="none" stroke="black" d="M294.63,-301.8C294.63,-293.63 294.63,-284.85 294.63,-276.32"/>
<polygon fill="black" stroke="black" points="298.13,-276.1 294.63,-266.1 291.13,-276.1 298.13,-276.1"/>
</g>
<!-- NUL_0 -->
<g id="node4" class="node">
<title>NUL_0</title>
<polygon fill="none" stroke="black" points="83.63,-139.48 39.63,-139.48 39.63,-95.48 83.63,-95.48 83.63,-139.48"/>
<text text-anchor="middle" x="61.63" y="-113.78" font-family="Times,serif" font-size="14.00">null</text>
</g>
<!-- No_960933788&#45;&gt;NUL_0 -->
<g id="edge3" class="edge">
<title>No_960933788&#45;&gt;NUL_0</title>
<path fill="none" stroke="black" d="M82.31,-191.15C78.47,-177.67 74.16,-162.51 70.47,-149.53"/>
<polygon fill="black" stroke="black" points="73.77,-148.33 67.66,-139.67 67.03,-150.25 73.77,-148.33"/>
</g>
<!-- NUL_1 -->
<g id="node5" class="node">
<title>NUL_1</title>
<polygon fill="none" stroke="black" points="145.63,-139.48 101.63,-139.48 101.63,-95.48 145.63,-95.48 145.63,-139.48"/>
<text text-anchor="middle" x="123.63" y="-113.78" font-family="Times,serif" font-size="14.00">null</text>
</g>
<!-- No_960933788&#45;&gt;NUL_1 -->
<g id="edge4" class="edge">
<title>No_960933788&#45;&gt;NUL_1</title>
<path fill="none" stroke="black" d="M102.95,-191.15C106.79,-177.67 111.1,-162.51 114.79,-149.53"/>
<polygon fill="black" stroke="black" points="118.23,-150.25 117.6,-139.67 111.5,-148.33 118.23,-150.25"/>
</g>
<!-- NUL_2 -->
<g id="node7" class="node">
<title>NUL_2</title>
<polygon fill="none" stroke="black" points="285.63,-139.48 241.63,-139.48 241.63,-95.48 285.63,-95.48 285.63,-139.48"/>
<text text-anchor="middle" x="263.63" y="-113.78" font-family="Times,serif" font-size="14.00">null</text>
</g>
<!-- No_967387182&#45;&gt;NUL_2 -->
<g id="edge6" class="edge">
<title>No_967387182&#45;&gt;NUL_2</title>
<path fill="none" stroke="black" d="M284.31,-191.15C280.47,-177.67 276.16,-162.51 272.47,-149.53"/>
<polygon fill="black" stroke="black" points="275.77,-148.33 269.66,-139.67 269.03,-150.25 275.77,-148.33"/>
</g>
<!-- NUL_3 -->
<g id="node8" class="node">
<title>NUL_3</title>
<polygon fill="none" stroke="black" points="347.63,-139.48 303.63,-139.48 303.63,-95.48 347.63,-95.48 347.63,-139.48"/>
<text text-anchor="middle" x="325.63" y="-113.78" font-family="Times,serif" font-size="14.00">null</text>
</g>
<!-- No_967387182&#45;&gt;NUL_3 -->
<g id="edge7" class="edge">
<title>No_967387182&#45;&gt;NUL_3</title>
<path fill="none" stroke="black" d="M304.95,-191.15C308.79,-177.67 313.1,-162.51 316.79,-149.53"/>
<polygon fill="black" stroke="black" points="320.23,-150.25 319.6,-139.67 313.5,-148.33 320.23,-150.25"/>
</g>
<!-- No_987340734 -->
<g id="node10" class="node">
<title>No_987340734</title>
<ellipse fill="none" stroke="black" cx="502.63" cy="-228.43" rx="98.99" ry="37.45"/>
<text text-anchor="middle" x="502.63" y="-239.73" font-family="Times,serif" font-size="14.00">Antônia Machado</text>
<text text-anchor="middle" x="502.63" y="-224.73" font-family="Times,serif" font-size="14.00">987340734</text>
<text text-anchor="middle" x="502.63" y="-209.73" font-family="Times,serif" font-size="14.00">fb=0</text>
</g>
<!-- No_992883178&#45;&gt;No_987340734 -->
<g id="edge9" class="edge">
<title>No_992883178&#45;&gt;No_987340734</title>
<path fill="none" stroke="black" d="M502.63,-301.8C502.63,-293.63 502.63,-284.85 502.63,-276.32"/>
<polygon fill="black" stroke="black" points="506.13,-276.1 502.63,-266.1 499.13,-276.1 506.13,-276.1"/>
</g>
<!-- No_996598918 -->
<g id="node13" class="node">
<title>No_996598918</title>
<ellipse fill="none" stroke="black" cx="688.63" cy="-228.43" rx="69.09" ry="37.45"/>
<text text-anchor="middle" x="688.63" y="-239.73" font-family="Times,serif" font-size="14.00">Ana Farias</text>
<text text-anchor="middle" x="688.63" y="-224.73" font-family="Times,serif" font-size="14.00">996598918</text>
<text text-anchor="middle" x="688.63" y="-209.73" font-family="Times,serif" font-size="14.00">fb=&#45;1</text>
</g>
<!-- No_992883178&#45;&gt;No_996598918 -->
<g id="edge12" class="edge">
<title>No_992883178&#45;&gt;No_996598918</title>
<path fill="none" stroke="black" d="M556.43,-306.87C580.7,-292.65 609.33,-275.88 633.73,-261.59"/>
<polygon fill="black" stroke="black" points="635.66,-264.52 642.52,-256.44 632.12,-258.48 635.66,-264.52"/>
</g>
<!-- NUL_4 -->
<g id="node11" class="node">
<title>NUL_4</title>
<polygon fill="none" stroke="black" points="474.63,-139.48 430.63,-139.48 430.63,-95.48 474.63,-95.48 474.63,-139.48"/>
<text text-anchor="middle" x="452.63" y="-113.78" font-family="Times,serif" font-size="14.00">null</text>
</g>
<!-- No_987340734&#45;&gt;NUL_4 -->
<g id="edge10" class="edge">
<title>No_987340734&#45;&gt;NUL_4</title>
<path fill="none" stroke="black" d="M486.12,-191.45C479.8,-177.69 472.66,-162.13 466.61,-148.93"/>
<polygon fill="black" stroke="black" points="469.77,-147.42 462.41,-139.79 463.4,-150.34 469.77,-147.42"/>
</g>
<!-- NUL_5 -->
<g id="node12" class="node">
<title>NUL_5</title>
<polygon fill="none" stroke="black" points="536.63,-139.48 492.63,-139.48 492.63,-95.48 536.63,-95.48 536.63,-139.48"/>
<text text-anchor="middle" x="514.63" y="-113.78" font-family="Times,serif" font-size="14.00">null</text>
</g>
<!-- No_987340734&#45;&gt;NUL_5 -->
<g id="edge11" class="edge">
<title>No_987340734&#45;&gt;NUL_5</title>
<path fill="none" stroke="black" d="M506.66,-190.85C508.13,-177.52 509.77,-162.58 511.19,-149.75"/>
<polygon fill="black" stroke="black" points="514.69,-149.88 512.31,-139.55 507.74,-149.11 514.69,-149.88"/>
</g>
<!-- No_994116870 -->
<g id="node14" class="node">
<title>No_994116870</title>
<ellipse fill="none" stroke="black" cx="676.63" cy="-117.48" rx="98.99" ry="37.45"/>
<text text-anchor="middle" x="676.63" y="-128.78" font-family="Times,serif" font-size="14.00">Alexandra Moura</text>
<text text-anchor="middle" x="676.63" y="-113.78" font-family="Times,serif" font-size="14.00">994116870</text>
<text text-anchor="middle" x="676.63" y="-98.78" font-family="Times,serif" font-size="14.00">fb=0</text>
</g>
<!-- No_996598918&#45;&gt;No_994116870 -->
<g id="edge13" class="edge">
<title>No_996598918&#45;&gt;No_994116870</title>
<path fill="none" stroke="black" d="M684.6,-190.85C683.7,-182.67 682.73,-173.89 681.8,-165.37"/>
<polygon fill="black" stroke="black" points="685.24,-164.71 680.67,-155.15 678.29,-165.47 685.24,-164.71"/>
</g>
<!-- NUL_8 -->
<g id="node17" class="node">
<title>NUL_8</title>
<polygon fill="none" stroke="black" points="837.63,-139.48 793.63,-139.48 793.63,-95.48 837.63,-95.48 837.63,-139.48"/>
<text text-anchor="middle" x="815.63" y="-113.78" font-family="Times,serif" font-size="14.00">null</text>
</g>
<!-- No_996598918&#45;&gt;NUL_8 -->
<g id="edge16" class="edge">
<title>No_996598918&#45;&gt;NUL_8</title>
<path fill="none" stroke="black" d="M730.87,-198.64C748.22,-186.04 768.08,-170.58 784.63,-154.95 787.11,-152.61 789.59,-150.09 792.01,-147.5"/>
<polygon fill="black" stroke="black" points="794.97,-149.44 799,-139.64 789.74,-144.78 794.97,-149.44"/>
</g>
<!-- NUL_6 -->
<g id="node15" class="node">
<title>NUL_6</title>
<polygon fill="none" stroke="black" points="667.63,-44 623.63,-44 623.63,0 667.63,0 667.63,-44"/>
<text text-anchor="middle" x="645.63" y="-18.3" font-family="Times,serif" font-size="14.00">null</text>
</g>
<!-- No_994116870&#45;&gt;NUL_6 -->
<g id="edge14" class="edge">
<title>No_994116870&#45;&gt;NUL_6</title>
<path fill="none" stroke="black" d="M664.56,-80.07C661.65,-71.3 658.57,-62.02 655.76,-53.55"/>
<polygon fill="black" stroke="black" points="659.08,-52.45 652.61,-44.06 652.44,-54.65 659.08,-52.45"/>
</g>
<!-- NUL_7 -->
<g id="node16" class="node">
<title>NUL_7</title>
<polygon fill="none" stroke="black" points="729.63,-44 685.63,-44 685.63,0 729.63,0 729.63,-44"/>
<text text-anchor="middle" x="707.63" y="-18.3" font-family="Times,serif" font-size="14.00">null</text>
</g>
<!-- No_994116870&#45;&gt;NUL_7 -->
<g id="edge15" class="edge">
<title>No_994116870&#45;&gt;NUL_7</title>
<path fill="none" stroke="black" d="M688.71,-80.07C691.61,-71.3 694.69,-62.02 697.5,-53.55"/>
<polygon fill="black" stroke="black" points="700.82,-54.65 700.65,-44.06 694.18,-52.45 700.82,-54.65"/>
</g>
</g>
</svg>
