<?xml version="1.0" encoding="UTF-8" standalone="no"?>
<!DOCTYPE svg PUBLIC "-//W3C//DTD SVG 1.1//EN"
 "http://www.w3.org/Graphics/SVG/1.1/DTD/svg11.dtd">
<!-- Generated by graphviz version 2.43.0 (0)
 -->
<!-- Title: BST Pages: 1 -->
<svg width="1395pt" height="281pt"
 viewBox="0.00 0.00 1394.97 281.19" xmlns="http://www.w3.org/2000/svg" xmlns:xlink="http://www.w3.org/1999/xlink">
<g id="graph0" class="graph" transform="scale(1 1) rotate(0) translate(4 277.19)">
<title>BST</title>
<polygon fill="white" stroke="transparent" points="-4,4 -4,-277.19 1390.97,-277.19 1390.97,4 -4,4"/>
<!-- Alexandre Costa,982632579 [fb:0] -->
<g id="node1" class="node">
<title>Alexandre Costa,982632579 [fb:0]</title>
<ellipse fill="none" stroke="black" cx="707.34" cy="-255.19" rx="170.07" ry="18"/>
<text text-anchor="middle" x="707.34" y="-251.49" font-family="Times,serif" font-size="14.00">Alexandre Costa,982632579 [fb:0]</text>
</g>
<!-- Alexandre Freitas,964642705 [fb:0] -->
<g id="node2" class="node">
<title>Alexandre Freitas,964642705 [fb:0]</title>
<ellipse fill="none" stroke="black" cx="519.34" cy="-183.19" rx="176.57" ry="18"/>
<text text-anchor="middle" x="519.34" y="-179.49" font-family="Times,serif" font-size="14.00">Alexandre Freitas,964642705 [fb:0]</text>
</g>
<!-- Alexandre Costa,982632579 [fb:0]&#45;&gt;Alexandre Freitas,964642705 [fb:0] -->
<g id="edge1" class="edge">
<title>Alexandre Costa,982632579 [fb:0]&#45;&gt;Alexandre Freitas,964642705 [fb:0]</title>
<path fill="none" stroke="black" d="M663.26,-237.78C636.35,-227.76 601.74,-214.88 573.21,-204.26"/>
<polygon fill="black" stroke="black" points="574.38,-200.96 563.79,-200.75 571.94,-207.52 574.38,-200.96"/>
</g>
<!-- Alexandre Barbosa,992883178 [fb:0] -->
<g id="node9" class="node">
<title>Alexandre Barbosa,992883178 [fb:0]</title>
<ellipse fill="none" stroke="black" cx="896.34" cy="-183.19" rx="181.97" ry="18"/>
<text text-anchor="middle" x="896.34" y="-179.49" font-family="Times,serif" font-size="14.00">Alexandre Barbosa,992883178 [fb:0]</text>
</g>
<!-- Alexandre Costa,982632579 [fb:0]&#45;&gt;Alexandre Barbosa,992883178 [fb:0] -->
<g id="edge8" class="edge">
<title>Alexandre Costa,982632579 [fb:0]&#45;&gt;Alexandre Barbosa,992883178 [fb:0]</title>
<path fill="none" stroke="black" d="M751.65,-237.78C778.7,-227.76 813.49,-214.88 842.17,-204.26"/>
<polygon fill="black" stroke="black" points="843.48,-207.5 851.65,-200.75 841.05,-200.94 843.48,-207.5"/>
</g>
<!-- Alberto Campos,960933788 [fb:0] -->
<g id="node3" class="node">
<title>Alberto Campos,960933788 [fb:0]</title>
<ellipse fill="none" stroke="black" cx="168.34" cy="-111.19" rx="168.17" ry="18"/>
<text text-anchor="middle" x="168.34" y="-107.49" font-family="Times,serif" font-size="14.00">Alberto Campos,960933788 [fb:0]</text>
</g>
<!-- Alexandre Freitas,964642705 [fb:0]&#45;&gt;Alberto Campos,960933788 [fb:0] -->
<g id="edge2" class="edge">
<title>Alexandre Freitas,964642705 [fb:0]&#45;&gt;Alberto Campos,960933788 [fb:0]</title>
<path fill="none" stroke="black" d="M442.74,-166.92C387.06,-155.82 311.66,-140.78 253.99,-129.28"/>
<polygon fill="black" stroke="black" points="254.65,-125.84 244.16,-127.32 253.28,-132.71 254.65,-125.84"/>
</g>
<!-- Alfredo Martins,967387182 [fb:0] -->
<g id="node6" class="node">
<title>Alfredo Martins,967387182 [fb:0]</title>
<ellipse fill="none" stroke="black" cx="521.34" cy="-111.19" rx="167.07" ry="18"/>
<text text-anchor="middle" x="521.34" y="-107.49" font-family="Times,serif" font-size="14.00">Alfredo Martins,967387182 [fb:0]</text>
</g>
<!-- Alexandre Freitas,964642705 [fb:0]&#45;&gt;Alfredo Martins,967387182 [fb:0] -->
<g id="edge5" class="edge">
<title>Alexandre Freitas,964642705 [fb:0]&#45;&gt;Alfredo Martins,967387182 [fb:0]</title>
<path fill="none" stroke="black" d="M519.83,-164.89C520.05,-157.18 520.31,-147.91 520.56,-139.31"/>
<polygon fill="black" stroke="black" points="524.06,-139.4 520.85,-129.3 517.06,-139.2 524.06,-139.4"/>
</g>
<!-- N0 -->
<g id="node4" class="node">
<title>N0</title>
<ellipse fill="none" stroke="black" cx="131.34" cy="-28.6" rx="28.7" ry="28.7"/>
<text text-anchor="middle" x="131.34" y="-24.9" font-family="Times,serif" font-size="14.00">null</text>
</g>
<!-- Alberto Campos,960933788 [fb:0]&#45;&gt;N0 -->
<g id="edge3" class="edge">
<title>Alberto Campos,960933788 [fb:0]&#45;&gt;N0</title>
<path fill="none" stroke="black" d="M160.49,-93.1C156.63,-84.7 151.83,-74.25 147.25,-64.27"/>
<polygon fill="black" stroke="black" points="150.32,-62.56 142.97,-54.93 143.96,-65.48 150.32,-62.56"/>
</g>
<!-- N1 -->
<g id="node5" class="node">
<title>N1</title>
<ellipse fill="none" stroke="black" cx="206.34" cy="-28.6" rx="28.7" ry="28.7"/>
<text text-anchor="middle" x="206.34" y="-24.9" font-family="Times,serif" font-size="14.00">null</text>
</g>
<!-- Alberto Campos,960933788 [fb:0]&#45;&gt;N1 -->
<g id="edge4" class="edge">
<title>Alberto Campos,960933788 [fb:0]&#45;&gt;N1</title>
<path fill="none" stroke="black" d="M176.39,-93.1C180.36,-84.7 185.28,-74.25 189.99,-64.27"/>
<polygon fill="black" stroke="black" points="193.29,-65.47 194.39,-54.93 186.96,-62.49 193.29,-65.47"/>
</g>
<!-- N2 -->
<g id="node7" class="node">
<title>N2</title>
<ellipse fill="none" stroke="black" cx="483.34" cy="-28.6" rx="28.7" ry="28.7"/>
<text text-anchor="middle" x="483.34" y="-24.9" font-family="Times,serif" font-size="14.00">null</text>
</g>
<!-- Alfredo Martins,967387182 [fb:0]&#45;&gt;N2 -->
<g id="edge6" class="edge">
<title>Alfredo Martins,967387182 [fb:0]&#45;&gt;N2</title>
<path fill="none" stroke="black" d="M513.28,-93.1C509.31,-84.7 504.39,-74.25 499.68,-64.27"/>
<polygon fill="black" stroke="black" points="502.71,-62.49 495.28,-54.93 496.38,-65.47 502.71,-62.49"/>
</g>
<!-- N3 -->
<g id="node8" class="node">
<title>N3</title>
<ellipse fill="none" stroke="black" cx="558.34" cy="-28.6" rx="28.7" ry="28.7"/>
<text text-anchor="middle" x="558.34" y="-24.9" font-family="Times,serif" font-size="14.00">null</text>
</g>
<!-- Alfredo Martins,967387182 [fb:0]&#45;&gt;N3 -->
<g id="edge7" class="edge">
<title>Alfredo Martins,967387182 [fb:0]&#45;&gt;N3</title>
<path fill="none" stroke="black" d="M529.18,-93.1C533.04,-84.7 537.84,-74.25 542.42,-64.27"/>
<polygon fill="black" stroke="black" points="545.71,-65.48 546.7,-54.93 539.35,-62.56 545.71,-65.48"/>
</g>
<!-- Alexandre Machado,987340734 [fb:0] -->
<g id="node10" class="node">
<title>Alexandre Machado,987340734 [fb:0]</title>
<ellipse fill="none" stroke="black" cx="895.34" cy="-111.19" rx="185.77" ry="18"/>
<text text-anchor="middle" x="895.34" y="-107.49" font-family="Times,serif" font-size="14.00">Alexandre Machado,987340734 [fb:0]</text>
</g>
<!-- Alexandre Barbosa,992883178 [fb:0]&#45;&gt;Alexandre Machado,987340734 [fb:0] -->
<g id="edge9" class="edge">
<title>Alexandre Barbosa,992883178 [fb:0]&#45;&gt;Alexandre Machado,987340734 [fb:0]</title>
<path fill="none" stroke="black" d="M896.09,-164.89C895.98,-157.18 895.85,-147.91 895.72,-139.31"/>
<polygon fill="black" stroke="black" points="899.22,-139.25 895.58,-129.3 892.22,-139.35 899.22,-139.25"/>
</g>
<!-- Ana Farias,996598918 [fb:0] -->
<g id="node13" class="node">
<title>Ana Farias,996598918 [fb:0]</title>
<ellipse fill="none" stroke="black" cx="1243.34" cy="-111.19" rx="143.77" ry="18"/>
<text text-anchor="middle" x="1243.34" y="-107.49" font-family="Times,serif" font-size="14.00">Ana Farias,996598918 [fb:0]</text>
</g>
<!-- Alexandre Barbosa,992883178 [fb:0]&#45;&gt;Ana Farias,996598918 [fb:0] -->
<g id="edge12" class="edge">
<title>Alexandre Barbosa,992883178 [fb:0]&#45;&gt;Ana Farias,996598918 [fb:0]</title>
<path fill="none" stroke="black" d="M972.49,-166.83C1028.19,-155.6 1103.7,-140.36 1160.84,-128.84"/>
<polygon fill="black" stroke="black" points="1161.81,-132.21 1170.92,-126.8 1160.43,-125.35 1161.81,-132.21"/>
</g>
<!-- N4 -->
<g id="node11" class="node">
<title>N4</title>
<ellipse fill="none" stroke="black" cx="857.34" cy="-28.6" rx="28.7" ry="28.7"/>
<text text-anchor="middle" x="857.34" y="-24.9" font-family="Times,serif" font-size="14.00">null</text>
</g>
<!-- Alexandre Machado,987340734 [fb:0]&#45;&gt;N4 -->
<g id="edge10" class="edge">
<title>Alexandre Machado,987340734 [fb:0]&#45;&gt;N4</title>
<path fill="none" stroke="black" d="M887.28,-93.1C883.31,-84.7 878.39,-74.25 873.68,-64.27"/>
<polygon fill="black" stroke="black" points="876.71,-62.49 869.28,-54.93 870.38,-65.47 876.71,-62.49"/>
</g>
<!-- N5 -->
<g id="node12" class="node">
<title>N5</title>
<ellipse fill="none" stroke="black" cx="932.34" cy="-28.6" rx="28.7" ry="28.7"/>
<text text-anchor="middle" x="932.34" y="-24.9" font-family="Times,serif" font-size="14.00">null</text>
</g>
<!-- Alexandre Machado,987340734 [fb:0]&#45;&gt;N5 -->
<g id="edge11" class="edge">
<title>Alexandre Machado,987340734 [fb:0]&#45;&gt;N5</title>
<path fill="none" stroke="black" d="M903.18,-93.1C907.04,-84.7 911.84,-74.25 916.42,-64.27"/>
<polygon fill="black" stroke="black" points="919.71,-65.48 920.7,-54.93 913.35,-62.56 919.71,-65.48"/>
</g>
<!-- N6 -->
<g id="node14" class="node">
<title>N6</title>
<ellipse fill="none" stroke="black" cx="1205.34" cy="-28.6" rx="28.7" ry="28.7"/>
<text text-anchor="middle" x="1205.34" y="-24.9" font-family="Times,serif" font-size="14.00">null</text>
</g>
<!-- Ana Farias,996598918 [fb:0]&#45;&gt;N6 -->
<g id="edge13" class="edge">
<title>Ana Farias,996598918 [fb:0]&#45;&gt;N6</title>
<path fill="none" stroke="black" d="M1235.28,-93.1C1231.31,-84.7 1226.39,-74.25 1221.68,-64.27"/>
<polygon fill="black" stroke="black" points="1224.71,-62.49 1217.28,-54.93 1218.38,-65.47 1224.71,-62.49"/>
</g>
<!-- N7 -->
<g id="node15" class="node">
<title>N7</title>
<ellipse fill="none" stroke="black" cx="1280.34" cy="-28.6" rx="28.7" ry="28.7"/>
<text text-anchor="middle" x="1280.34" y="-24.9" font-family="Times,serif" font-size="14.00">null</text>
</g>
<!-- Ana Farias,996598918 [fb:0]&#45;&gt;N7 -->
<g id="edge14" class="edge">
<title>Ana Farias,996598918 [fb:0]&#45;&gt;N7</title>
<path fill="none" stroke="black" d="M1251.18,-93.1C1255.04,-84.7 1259.84,-74.25 1264.42,-64.27"/>
<polygon fill="black" stroke="black" points="1267.71,-65.48 1268.7,-54.93 1261.35,-62.56 1267.71,-65.48"/>
</g>
</g>
</svg>
