<?xml version="1.0" encoding="UTF-8" standalone="no"?>
<!DOCTYPE svg PUBLIC "-//W3C//DTD SVG 1.1//EN"
 "http://www.w3.org/Graphics/SVG/1.1/DTD/svg11.dtd">
<!-- Generated by graphviz version 2.43.0 (0)
 -->
<!-- Title: BST Pages: 1 -->
<svg width="446pt" height="385pt"
 viewBox="0.00 0.00 445.93 384.86" xmlns="http://www.w3.org/2000/svg" xmlns:xlink="http://www.w3.org/1999/xlink">
<g id="graph0" class="graph" transform="scale(1 1) rotate(0) translate(4 380.86)">
<title>BST</title>
<polygon fill="white" stroke="transparent" points="-4,4 -4,-380.86 441.93,-380.86 441.93,4 -4,4"/>
<!-- No_982632579 -->
<g id="node1" class="node">
<title>No_982632579</title>
<ellipse fill="none" stroke="black" cx="201.63" cy="-339.38" rx="69.09" ry="37.45"/>
<text text-anchor="middle" x="201.63" y="-350.68" font-family="Times,serif" font-size="14.00">Abel Costa</text>
<text text-anchor="middle" x="201.63" y="-335.68" font-family="Times,serif" font-size="14.00">982632579</text>
<text text-anchor="middle" x="201.63" y="-320.68" font-family="Times,serif" font-size="14.00">fb=1</text>
</g>
<!-- No_960933788 -->
<g id="node2" class="node">
<title>No_960933788</title>
<ellipse fill="none" stroke="black" cx="92.63" cy="-228.43" rx="92.76" ry="37.45"/>
<text text-anchor="middle" x="92.63" y="-239.73" font-family="Times,serif" font-size="14.00">Alberto Campos</text>
<text text-anchor="middle" x="92.63" y="-224.73" font-family="Times,serif" font-size="14.00">960933788</text>
<text text-anchor="middle" x="92.63" y="-209.73" font-family="Times,serif" font-size="14.00">fb=0</text>
</g>
<!-- No_982632579&#45;&gt;No_960933788 -->
<g id="edge1" class="edge">
<title>No_982632579&#45;&gt;No_960933788</title>
<path fill="none" stroke="black" d="M169.22,-305.99C158.1,-294.87 145.5,-282.28 133.78,-270.56"/>
<polygon fill="black" stroke="black" points="136.17,-268 126.62,-263.4 131.22,-272.95 136.17,-268"/>
</g>
<!-- No_992883178 -->
<g id="node5" class="node">
<title>No_992883178</title>
<ellipse fill="none" stroke="black" cx="310.63" cy="-228.43" rx="107.46" ry="37.45"/>
<text text-anchor="middle" x="310.63" y="-239.73" font-family="Times,serif" font-size="14.00">Alexandre Barbosa</text>
<text text-anchor="middle" x="310.63" y="-224.73" font-family="Times,serif" font-size="14.00">992883178</text>
<text text-anchor="middle" x="310.63" y="-209.73" font-family="Times,serif" font-size="14.00">fb=1</text>
</g>
<!-- No_982632579&#45;&gt;No_992883178 -->
<g id="edge4" class="edge">
<title>No_982632579&#45;&gt;No_992883178</title>
<path fill="none" stroke="black" d="M234.04,-305.99C244.85,-295.18 257.06,-282.98 268.5,-271.55"/>
<polygon fill="black" stroke="black" points="271.28,-273.71 275.88,-264.17 266.33,-268.76 271.28,-273.71"/>
</g>
<!-- NUL_0 -->
<g id="node3" class="node">
<title>NUL_0</title>
<polygon fill="none" stroke="black" points="107.63,-139.48 63.63,-139.48 63.63,-95.48 107.63,-95.48 107.63,-139.48"/>
<text text-anchor="middle" x="85.63" y="-113.78" font-family="Times,serif" font-size="14.00">null</text>
</g>
<!-- No_960933788&#45;&gt;NUL_0 -->
<g id="edge2" class="edge">
<title>No_960933788&#45;&gt;NUL_0</title>
<path fill="none" stroke="black" d="M90.28,-190.85C89.42,-177.52 88.46,-162.58 87.64,-149.75"/>
<polygon fill="black" stroke="black" points="91.12,-149.31 86.99,-139.55 84.13,-149.76 91.12,-149.31"/>
</g>
<!-- NUL_1 -->
<g id="node4" class="node">
<title>NUL_1</title>
<polygon fill="none" stroke="black" points="169.63,-139.48 125.63,-139.48 125.63,-95.48 169.63,-95.48 169.63,-139.48"/>
<text text-anchor="middle" x="147.63" y="-113.78" font-family="Times,serif" font-size="14.00">null</text>
</g>
<!-- No_960933788&#45;&gt;NUL_1 -->
<g id="edge3" class="edge">
<title>No_960933788&#45;&gt;NUL_1</title>
<path fill="none" stroke="black" d="M110.79,-191.45C117.74,-177.69 125.59,-162.13 132.26,-148.93"/>
<polygon fill="black" stroke="black" points="135.49,-150.3 136.87,-139.79 129.24,-147.14 135.49,-150.3"/>
</g>
<!-- NUL_2 -->
<g id="node6" class="node">
<title>NUL_2</title>
<polygon fill="none" stroke="black" points="281.63,-139.48 237.63,-139.48 237.63,-95.48 281.63,-95.48 281.63,-139.48"/>
<text text-anchor="middle" x="259.63" y="-113.78" font-family="Times,serif" font-size="14.00">null</text>
</g>
<!-- No_992883178&#45;&gt;NUL_2 -->
<g id="edge5" class="edge">
<title>No_992883178&#45;&gt;NUL_2</title>
<path fill="none" stroke="black" d="M293.65,-191.15C287.21,-177.4 279.96,-161.91 273.81,-148.77"/>
<polygon fill="black" stroke="black" points="276.96,-147.25 269.55,-139.67 270.62,-150.21 276.96,-147.25"/>
</g>
<!-- No_996598918 -->
<g id="node7" class="node">
<title>No_996598918</title>
<ellipse fill="none" stroke="black" cx="368.63" cy="-117.48" rx="69.09" ry="37.45"/>
<text text-anchor="middle" x="368.63" y="-128.78" font-family="Times,serif" font-size="14.00">Ana Farias</text>
<text text-anchor="middle" x="368.63" y="-113.78" font-family="Times,serif" font-size="14.00">996598918</text>
<text text-anchor="middle" x="368.63" y="-98.78" font-family="Times,serif" font-size="14.00">fb=0</text>
</g>
<!-- No_992883178&#45;&gt;No_996598918 -->
<g id="edge6" class="edge">
<title>No_992883178&#45;&gt;No_996598918</title>
<path fill="none" stroke="black" d="M329.78,-191.45C334.68,-182.25 340.01,-172.24 345.1,-162.67"/>
<polygon fill="black" stroke="black" points="348.28,-164.15 349.89,-153.67 342.11,-160.86 348.28,-164.15"/>
</g>
<!-- NUL_3 -->
<g id="node8" class="node">
<title>NUL_3</title>
<polygon fill="none" stroke="black" points="359.63,-44 315.63,-44 315.63,0 359.63,0 359.63,-44"/>
<text text-anchor="middle" x="337.63" y="-18.3" font-family="Times,serif" font-size="14.00">null</text>
</g>
<!-- No_996598918&#45;&gt;NUL_3 -->
<g id="edge7" class="edge">
<title>No_996598918&#45;&gt;NUL_3</title>
<path fill="none" stroke="black" d="M356.65,-80.34C353.73,-71.55 350.64,-62.23 347.82,-53.72"/>
<polygon fill="black" stroke="black" points="351.13,-52.57 344.66,-44.18 344.48,-54.77 351.13,-52.57"/>
</g>
<!-- NUL_4 -->
<g id="node9" class="node">
<title>NUL_4</title>
<polygon fill="none" stroke="black" points="421.63,-44 377.63,-44 377.63,0 421.63,0 421.63,-44"/>
<text text-anchor="middle" x="399.63" y="-18.3" font-family="Times,serif" font-size="14.00">null</text>
</g>
<!-- No_996598918&#45;&gt;NUL_4 -->
<g id="edge8" class="edge">
<title>No_996598918&#45;&gt;NUL_4</title>
<path fill="none" stroke="black" d="M380.62,-80.34C383.53,-71.55 386.62,-62.23 389.44,-53.72"/>
<polygon fill="black" stroke="black" points="392.78,-54.77 392.61,-44.18 386.14,-52.57 392.78,-54.77"/>
</g>
</g>
</svg>
