<?xml version="1.0" encoding="UTF-8" standalone="no"?>
<!DOCTYPE svg PUBLIC "-//W3C//DTD SVG 1.1//EN"
 "http://www.w3.org/Graphics/SVG/1.1/DTD/svg11.dtd">
<!-- Generated by graphviz version 2.43.0 (0)
 -->
<!-- Title: BST Pages: 1 -->
<svg width="1523pt" height="374pt"
 viewBox="0.00 0.00 1522.93 374.39" xmlns="http://www.w3.org/2000/svg" xmlns:xlink="http://www.w3.org/1999/xlink">
<g id="graph0" class="graph" transform="scale(1 1) rotate(0) translate(4 370.39)">
<title>BST</title>
<polygon fill="white" stroke="transparent" points="-4,4 -4,-370.39 1518.93,-370.39 1518.93,4 -4,4"/>
<!-- Alexandre Costa,982632579 [fb:1] -->
<g id="node1" class="node">
<title>Alexandre Costa,982632579 [fb:1]</title>
<ellipse fill="none" stroke="black" cx="707.34" cy="-348.39" rx="170.07" ry="18"/>
<text text-anchor="middle" x="707.34" y="-344.69" font-family="Times,serif" font-size="14.00">Alexandre Costa,982632579 [fb:1]</text>
</g>
<!-- Alexandre Freitas,964642705 [fb:0] -->
<g id="node2" class="node">
<title>Alexandre Freitas,964642705 [fb:0]</title>
<ellipse fill="none" stroke="black" cx="519.34" cy="-276.39" rx="176.57" ry="18"/>
<text text-anchor="middle" x="519.34" y="-272.69" font-family="Times,serif" font-size="14.00">Alexandre Freitas,964642705 [fb:0]</text>
</g>
<!-- Alexandre Costa,982632579 [fb:1]&#45;&gt;Alexandre Freitas,964642705 [fb:0] -->
<g id="edge1" class="edge">
<title>Alexandre Costa,982632579 [fb:1]&#45;&gt;Alexandre Freitas,964642705 [fb:0]</title>
<path fill="none" stroke="black" d="M663.26,-330.98C636.35,-320.96 601.74,-308.07 573.21,-297.45"/>
<polygon fill="black" stroke="black" points="574.38,-294.15 563.79,-293.94 571.94,-300.71 574.38,-294.15"/>
</g>
<!-- Alexandre Barbosa,992883178 [fb:0] -->
<g id="node9" class="node">
<title>Alexandre Barbosa,992883178 [fb:0]</title>
<ellipse fill="none" stroke="black" cx="896.34" cy="-276.39" rx="181.97" ry="18"/>
<text text-anchor="middle" x="896.34" y="-272.69" font-family="Times,serif" font-size="14.00">Alexandre Barbosa,992883178 [fb:0]</text>
</g>
<!-- Alexandre Costa,982632579 [fb:1]&#45;&gt;Alexandre Barbosa,992883178 [fb:0] -->
<g id="edge8" class="edge">
<title>Alexandre Costa,982632579 [fb:1]&#45;&gt;Alexandre Barbosa,992883178 [fb:0]</title>
<path fill="none" stroke="black" d="M751.65,-330.98C778.7,-320.96 813.49,-308.07 842.17,-297.45"/>
<polygon fill="black" stroke="black" points="843.48,-300.7 851.65,-293.94 841.05,-294.13 843.48,-300.7"/>
</g>
<!-- Alberto Campos,960933788 [fb:0] -->
<g id="node3" class="node">
<title>Alberto Campos,960933788 [fb:0]</title>
<ellipse fill="none" stroke="black" cx="168.34" cy="-204.39" rx="168.17" ry="18"/>
<text text-anchor="middle" x="168.34" y="-200.69" font-family="Times,serif" font-size="14.00">Alberto Campos,960933788 [fb:0]</text>
</g>
<!-- Alexandre Freitas,964642705 [fb:0]&#45;&gt;Alberto Campos,960933788 [fb:0] -->
<g id="edge2" class="edge">
<title>Alexandre Freitas,964642705 [fb:0]&#45;&gt;Alberto Campos,960933788 [fb:0]</title>
<path fill="none" stroke="black" d="M442.74,-260.11C387.06,-249.01 311.66,-233.97 253.99,-222.47"/>
<polygon fill="black" stroke="black" points="254.65,-219.04 244.16,-220.51 253.28,-225.9 254.65,-219.04"/>
</g>
<!-- Alfredo Martins,967387182 [fb:0] -->
<g id="node6" class="node">
<title>Alfredo Martins,967387182 [fb:0]</title>
<ellipse fill="none" stroke="black" cx="521.34" cy="-204.39" rx="167.07" ry="18"/>
<text text-anchor="middle" x="521.34" y="-200.69" font-family="Times,serif" font-size="14.00">Alfredo Martins,967387182 [fb:0]</text>
</g>
<!-- Alexandre Freitas,964642705 [fb:0]&#45;&gt;Alfredo Martins,967387182 [fb:0] -->
<g id="edge5" class="edge">
<title>Alexandre Freitas,964642705 [fb:0]&#45;&gt;Alfredo Martins,967387182 [fb:0]</title>
<path fill="none" stroke="black" d="M519.83,-258.09C520.05,-250.37 520.31,-241.1 520.56,-232.5"/>
<polygon fill="black" stroke="black" points="524.06,-232.59 520.85,-222.49 517.06,-232.39 524.06,-232.59"/>
</g>
<!-- N0 -->
<g id="node4" class="node">
<title>N0</title>
<ellipse fill="none" stroke="black" cx="131.34" cy="-121.79" rx="28.7" ry="28.7"/>
<text text-anchor="middle" x="131.34" y="-118.09" font-family="Times,serif" font-size="14.00">null</text>
</g>
<!-- Alberto Campos,960933788 [fb:0]&#45;&gt;N0 -->
<g id="edge3" class="edge">
<title>Alberto Campos,960933788 [fb:0]&#45;&gt;N0</title>
<path fill="none" stroke="black" d="M160.49,-186.3C156.63,-177.89 151.83,-167.45 147.25,-157.47"/>
<polygon fill="black" stroke="black" points="150.32,-155.76 142.97,-148.13 143.96,-158.68 150.32,-155.76"/>
</g>
<!-- N1 -->
<g id="node5" class="node">
<title>N1</title>
<ellipse fill="none" stroke="black" cx="206.34" cy="-121.79" rx="28.7" ry="28.7"/>
<text text-anchor="middle" x="206.34" y="-118.09" font-family="Times,serif" font-size="14.00">null</text>
</g>
<!-- Alberto Campos,960933788 [fb:0]&#45;&gt;N1 -->
<g id="edge4" class="edge">
<title>Alberto Campos,960933788 [fb:0]&#45;&gt;N1</title>
<path fill="none" stroke="black" d="M176.39,-186.3C180.36,-177.89 185.28,-167.45 189.99,-157.47"/>
<polygon fill="black" stroke="black" points="193.29,-158.67 194.39,-148.13 186.96,-155.68 193.29,-158.67"/>
</g>
<!-- N2 -->
<g id="node7" class="node">
<title>N2</title>
<ellipse fill="none" stroke="black" cx="483.34" cy="-121.79" rx="28.7" ry="28.7"/>
<text text-anchor="middle" x="483.34" y="-118.09" font-family="Times,serif" font-size="14.00">null</text>
</g>
<!-- Alfredo Martins,967387182 [fb:0]&#45;&gt;N2 -->
<g id="edge6" class="edge">
<title>Alfredo Martins,967387182 [fb:0]&#45;&gt;N2</title>
<path fill="none" stroke="black" d="M513.28,-186.3C509.31,-177.89 504.39,-167.45 499.68,-157.47"/>
<polygon fill="black" stroke="black" points="502.71,-155.68 495.28,-148.13 496.38,-158.67 502.71,-155.68"/>
</g>
<!-- N3 -->
<g id="node8" class="node">
<title>N3</title>
<ellipse fill="none" stroke="black" cx="558.34" cy="-121.79" rx="28.7" ry="28.7"/>
<text text-anchor="middle" x="558.34" y="-118.09" font-family="Times,serif" font-size="14.00">null</text>
</g>
<!-- Alfredo Martins,967387182 [fb:0]&#45;&gt;N3 -->
<g id="edge7" class="edge">
<title>Alfredo Martins,967387182 [fb:0]&#45;&gt;N3</title>
<path fill="none" stroke="black" d="M529.18,-186.3C533.04,-177.89 537.84,-167.45 542.42,-157.47"/>
<polygon fill="black" stroke="black" points="545.71,-158.68 546.7,-148.13 539.35,-155.76 545.71,-158.68"/>
</g>
<!-- Alexandre Machado,987340734 [fb:1] -->
<g id="node10" class="node">
<title>Alexandre Machado,987340734 [fb:1]</title>
<ellipse fill="none" stroke="black" cx="895.34" cy="-204.39" rx="185.77" ry="18"/>
<text text-anchor="middle" x="895.34" y="-200.69" font-family="Times,serif" font-size="14.00">Alexandre Machado,987340734 [fb:1]</text>
</g>
<!-- Alexandre Barbosa,992883178 [fb:0]&#45;&gt;Alexandre Machado,987340734 [fb:1] -->
<g id="edge9" class="edge">
<title>Alexandre Barbosa,992883178 [fb:0]&#45;&gt;Alexandre Machado,987340734 [fb:1]</title>
<path fill="none" stroke="black" d="M896.09,-258.09C895.98,-250.37 895.85,-241.1 895.72,-232.5"/>
<polygon fill="black" stroke="black" points="899.22,-232.44 895.58,-222.49 892.22,-232.54 899.22,-232.44"/>
</g>
<!-- Ana Farias,996598918 [fb:&#45;1] -->
<g id="node15" class="node">
<title>Ana Farias,996598918 [fb:&#45;1]</title>
<ellipse fill="none" stroke="black" cx="1265.34" cy="-204.39" rx="146.47" ry="18"/>
<text text-anchor="middle" x="1265.34" y="-200.69" font-family="Times,serif" font-size="14.00">Ana Farias,996598918 [fb:&#45;1]</text>
</g>
<!-- Alexandre Barbosa,992883178 [fb:0]&#45;&gt;Ana Farias,996598918 [fb:&#45;1] -->
<g id="edge14" class="edge">
<title>Alexandre Barbosa,992883178 [fb:0]&#45;&gt;Ana Farias,996598918 [fb:&#45;1]</title>
<path fill="none" stroke="black" d="M976.4,-260.2C1036.24,-248.85 1117.92,-233.35 1179.17,-221.73"/>
<polygon fill="black" stroke="black" points="1180.03,-225.13 1189.21,-219.83 1178.73,-218.26 1180.03,-225.13"/>
</g>
<!-- N4 -->
<g id="node11" class="node">
<title>N4</title>
<ellipse fill="none" stroke="black" cx="671.34" cy="-121.79" rx="28.7" ry="28.7"/>
<text text-anchor="middle" x="671.34" y="-118.09" font-family="Times,serif" font-size="14.00">null</text>
</g>
<!-- Alexandre Machado,987340734 [fb:1]&#45;&gt;N4 -->
<g id="edge10" class="edge">
<title>Alexandre Machado,987340734 [fb:1]&#45;&gt;N4</title>
<path fill="none" stroke="black" d="M818.45,-187.91C784.05,-179.37 743.6,-167.06 709.34,-150.39 706.72,-149.12 704.1,-147.67 701.53,-146.11"/>
<polygon fill="black" stroke="black" points="703.29,-143.08 693.01,-140.52 699.45,-148.93 703.29,-143.08"/>
</g>
<!-- Alexandre Pereira,987671978 [fb:0] -->
<g id="node12" class="node">
<title>Alexandre Pereira,987671978 [fb:0]</title>
<ellipse fill="none" stroke="black" cx="895.34" cy="-121.79" rx="177.37" ry="18"/>
<text text-anchor="middle" x="895.34" y="-118.09" font-family="Times,serif" font-size="14.00">Alexandre Pereira,987671978 [fb:0]</text>
</g>
<!-- Alexandre Machado,987340734 [fb:1]&#45;&gt;Alexandre Pereira,987671978 [fb:0] -->
<g id="edge11" class="edge">
<title>Alexandre Machado,987340734 [fb:1]&#45;&gt;Alexandre Pereira,987671978 [fb:0]</title>
<path fill="none" stroke="black" d="M895.34,-186.3C895.34,-175.72 895.34,-161.9 895.34,-149.86"/>
<polygon fill="black" stroke="black" points="898.84,-149.86 895.34,-139.86 891.84,-149.86 898.84,-149.86"/>
</g>
<!-- N5 -->
<g id="node13" class="node">
<title>N5</title>
<ellipse fill="none" stroke="black" cx="858.34" cy="-28.6" rx="28.7" ry="28.7"/>
<text text-anchor="middle" x="858.34" y="-24.9" font-family="Times,serif" font-size="14.00">null</text>
</g>
<!-- Alexandre Pereira,987671978 [fb:0]&#45;&gt;N5 -->
<g id="edge12" class="edge">
<title>Alexandre Pereira,987671978 [fb:0]&#45;&gt;N5</title>
<path fill="none" stroke="black" d="M888.38,-103.64C883.93,-92.68 878,-78.07 872.59,-64.72"/>
<polygon fill="black" stroke="black" points="875.76,-63.25 868.76,-55.3 869.28,-65.88 875.76,-63.25"/>
</g>
<!-- N6 -->
<g id="node14" class="node">
<title>N6</title>
<ellipse fill="none" stroke="black" cx="933.34" cy="-28.6" rx="28.7" ry="28.7"/>
<text text-anchor="middle" x="933.34" y="-24.9" font-family="Times,serif" font-size="14.00">null</text>
</g>
<!-- Alexandre Pereira,987671978 [fb:0]&#45;&gt;N6 -->
<g id="edge13" class="edge">
<title>Alexandre Pereira,987671978 [fb:0]&#45;&gt;N6</title>
<path fill="none" stroke="black" d="M902.48,-103.64C907.05,-92.68 913.14,-78.07 918.7,-64.72"/>
<polygon fill="black" stroke="black" points="922.01,-65.87 922.63,-55.3 915.55,-63.18 922.01,-65.87"/>
</g>
<!-- Alexandra Moura,994116870 [fb:0] -->
<g id="node16" class="node">
<title>Alexandra Moura,994116870 [fb:0]</title>
<ellipse fill="none" stroke="black" cx="1265.34" cy="-121.79" rx="174.37" ry="18"/>
<text text-anchor="middle" x="1265.34" y="-118.09" font-family="Times,serif" font-size="14.00">Alexandra Moura,994116870 [fb:0]</text>
</g>
<!-- Ana Farias,996598918 [fb:&#45;1]&#45;&gt;Alexandra Moura,994116870 [fb:0] -->
<g id="edge15" class="edge">
<title>Ana Farias,996598918 [fb:&#45;1]&#45;&gt;Alexandra Moura,994116870 [fb:0]</title>
<path fill="none" stroke="black" d="M1265.34,-186.3C1265.34,-175.72 1265.34,-161.9 1265.34,-149.86"/>
<polygon fill="black" stroke="black" points="1268.84,-149.86 1265.34,-139.86 1261.84,-149.86 1268.84,-149.86"/>
</g>
<!-- N9 -->
<g id="node19" class="node">
<title>N9</title>
<ellipse fill="none" stroke="black" cx="1486.34" cy="-121.79" rx="28.7" ry="28.7"/>
<text text-anchor="middle" x="1486.34" y="-118.09" font-family="Times,serif" font-size="14.00">null</text>
</g>
<!-- Ana Farias,996598918 [fb:&#45;1]&#45;&gt;N9 -->
<g id="edge18" class="edge">
<title>Ana Farias,996598918 [fb:&#45;1]&#45;&gt;N9</title>
<path fill="none" stroke="black" d="M1337.41,-188.63C1372.01,-180.04 1413.42,-167.47 1448.34,-150.39 1450.94,-149.11 1453.56,-147.66 1456.14,-146.1"/>
<polygon fill="black" stroke="black" points="1458.22,-148.92 1464.65,-140.5 1454.37,-143.07 1458.22,-148.92"/>
</g>
<!-- N7 -->
<g id="node17" class="node">
<title>N7</title>
<ellipse fill="none" stroke="black" cx="1227.34" cy="-28.6" rx="28.7" ry="28.7"/>
<text text-anchor="middle" x="1227.34" y="-24.9" font-family="Times,serif" font-size="14.00">null</text>
</g>
<!-- Alexandra Moura,994116870 [fb:0]&#45;&gt;N7 -->
<g id="edge16" class="edge">
<title>Alexandra Moura,994116870 [fb:0]&#45;&gt;N7</title>
<path fill="none" stroke="black" d="M1258.19,-103.64C1253.62,-92.68 1247.53,-78.07 1241.97,-64.72"/>
<polygon fill="black" stroke="black" points="1245.12,-63.18 1238.04,-55.3 1238.66,-65.87 1245.12,-63.18"/>
</g>
<!-- N8 -->
<g id="node18" class="node">
<title>N8</title>
<ellipse fill="none" stroke="black" cx="1302.34" cy="-28.6" rx="28.7" ry="28.7"/>
<text text-anchor="middle" x="1302.34" y="-24.9" font-family="Times,serif" font-size="14.00">null</text>
</g>
<!-- Alexandra Moura,994116870 [fb:0]&#45;&gt;N8 -->
<g id="edge17" class="edge">
<title>Alexandra Moura,994116870 [fb:0]&#45;&gt;N8</title>
<path fill="none" stroke="black" d="M1272.29,-103.64C1276.74,-92.68 1282.67,-78.07 1288.08,-64.72"/>
<polygon fill="black" stroke="black" points="1291.39,-65.88 1291.91,-55.3 1284.91,-63.25 1291.39,-65.88"/>
</g>
</g>
</svg>
