<?xml version="1.0" encoding="UTF-8" standalone="no"?>
<!DOCTYPE svg PUBLIC "-//W3C//DTD SVG 1.1//EN"
 "http://www.w3.org/Graphics/SVG/1.1/DTD/svg11.dtd">
<!-- Generated by graphviz version 2.43.0 (0)
 -->
<!-- Title: BST Pages: 1 -->
<svg width="2565pt" height="374pt"
 viewBox="0.00 0.00 2565.02 374.39" xmlns="http://www.w3.org/2000/svg" xmlns:xlink="http://www.w3.org/1999/xlink">
<g id="graph0" class="graph" transform="scale(1 1) rotate(0) translate(4 370.39)">
<title>BST</title>
<polygon fill="white" stroke="transparent" points="-4,4 -4,-370.39 2561.02,-370.39 2561.02,4 -4,4"/>
<!-- Alexandre Costa,982632579 [fb:0] -->
<g id="node1" class="node">
<title>Alexandre Costa,982632579 [fb:0]</title>
<ellipse fill="none" stroke="black" cx="1080.48" cy="-348.39" rx="170.07" ry="18"/>
<text text-anchor="middle" x="1080.48" y="-344.69" font-family="Times,serif" font-size="14.00">Alexandre Costa,982632579 [fb:0]</text>
</g>
<!-- Alexandre Freitas,964642705 [fb:0] -->
<g id="node2" class="node">
<title>Alexandre Freitas,964642705 [fb:0]</title>
<ellipse fill="none" stroke="black" cx="822.48" cy="-276.39" rx="176.57" ry="18"/>
<text text-anchor="middle" x="822.48" y="-272.69" font-family="Times,serif" font-size="14.00">Alexandre Freitas,964642705 [fb:0]</text>
</g>
<!-- Alexandre Costa,982632579 [fb:0]&#45;&gt;Alexandre Freitas,964642705 [fb:0] -->
<g id="edge1" class="edge">
<title>Alexandre Costa,982632579 [fb:0]&#45;&gt;Alexandre Freitas,964642705 [fb:0]</title>
<path fill="none" stroke="black" d="M1021.62,-331.42C982.87,-320.91 932,-307.1 891.37,-296.08"/>
<polygon fill="black" stroke="black" points="892.11,-292.65 881.54,-293.41 890.28,-299.41 892.11,-292.65"/>
</g>
<!-- Alexandre Barbosa,992883178 [fb:0] -->
<g id="node15" class="node">
<title>Alexandre Barbosa,992883178 [fb:0]</title>
<ellipse fill="none" stroke="black" cx="1458.48" cy="-276.39" rx="181.97" ry="18"/>
<text text-anchor="middle" x="1458.48" y="-272.69" font-family="Times,serif" font-size="14.00">Alexandre Barbosa,992883178 [fb:0]</text>
</g>
<!-- Alexandre Costa,982632579 [fb:0]&#45;&gt;Alexandre Barbosa,992883178 [fb:0] -->
<g id="edge14" class="edge">
<title>Alexandre Costa,982632579 [fb:0]&#45;&gt;Alexandre Barbosa,992883178 [fb:0]</title>
<path fill="none" stroke="black" d="M1161.11,-332.46C1221.41,-321.29 1303.95,-306.01 1366.77,-294.37"/>
<polygon fill="black" stroke="black" points="1367.48,-297.8 1376.68,-292.54 1366.21,-290.92 1367.48,-297.8"/>
</g>
<!-- Alberto Campos,960933788 [fb:&#45;1] -->
<g id="node3" class="node">
<title>Alberto Campos,960933788 [fb:&#45;1]</title>
<ellipse fill="none" stroke="black" cx="397.48" cy="-204.39" rx="170.87" ry="18"/>
<text text-anchor="middle" x="397.48" y="-200.69" font-family="Times,serif" font-size="14.00">Alberto Campos,960933788 [fb:&#45;1]</text>
</g>
<!-- Alexandre Freitas,964642705 [fb:0]&#45;&gt;Alberto Campos,960933788 [fb:&#45;1] -->
<g id="edge2" class="edge">
<title>Alexandre Freitas,964642705 [fb:0]&#45;&gt;Alberto Campos,960933788 [fb:&#45;1]</title>
<path fill="none" stroke="black" d="M733.91,-260.8C664.2,-249.32 567.16,-233.34 495.2,-221.48"/>
<polygon fill="black" stroke="black" points="495.65,-218.01 485.22,-219.84 494.52,-224.92 495.65,-218.01"/>
</g>
<!-- Alfredo Martins,967387182 [fb:0] -->
<g id="node8" class="node">
<title>Alfredo Martins,967387182 [fb:0]</title>
<ellipse fill="none" stroke="black" cx="822.48" cy="-204.39" rx="167.07" ry="18"/>
<text text-anchor="middle" x="822.48" y="-200.69" font-family="Times,serif" font-size="14.00">Alfredo Martins,967387182 [fb:0]</text>
</g>
<!-- Alexandre Freitas,964642705 [fb:0]&#45;&gt;Alfredo Martins,967387182 [fb:0] -->
<g id="edge7" class="edge">
<title>Alexandre Freitas,964642705 [fb:0]&#45;&gt;Alfredo Martins,967387182 [fb:0]</title>
<path fill="none" stroke="black" d="M822.48,-258.09C822.48,-250.37 822.48,-241.1 822.48,-232.5"/>
<polygon fill="black" stroke="black" points="825.98,-232.49 822.48,-222.49 818.98,-232.49 825.98,-232.49"/>
</g>
<!-- Alexandre Santos,955838599 [fb:0] -->
<g id="node4" class="node">
<title>Alexandre Santos,955838599 [fb:0]</title>
<ellipse fill="none" stroke="black" cx="175.48" cy="-121.79" rx="175.47" ry="18"/>
<text text-anchor="middle" x="175.48" y="-118.09" font-family="Times,serif" font-size="14.00">Alexandre Santos,955838599 [fb:0]</text>
</g>
<!-- Alberto Campos,960933788 [fb:&#45;1]&#45;&gt;Alexandre Santos,955838599 [fb:0] -->
<g id="edge3" class="edge">
<title>Alberto Campos,960933788 [fb:&#45;1]&#45;&gt;Alexandre Santos,955838599 [fb:0]</title>
<path fill="none" stroke="black" d="M352.29,-186.98C317.15,-174.22 268.22,-156.46 230.75,-142.86"/>
<polygon fill="black" stroke="black" points="231.59,-139.44 220.99,-139.31 229.2,-146.02 231.59,-139.44"/>
</g>
<!-- N2 -->
<g id="node7" class="node">
<title>N2</title>
<ellipse fill="none" stroke="black" cx="397.48" cy="-121.79" rx="28.7" ry="28.7"/>
<text text-anchor="middle" x="397.48" y="-118.09" font-family="Times,serif" font-size="14.00">null</text>
</g>
<!-- Alberto Campos,960933788 [fb:&#45;1]&#45;&gt;N2 -->
<g id="edge6" class="edge">
<title>Alberto Campos,960933788 [fb:&#45;1]&#45;&gt;N2</title>
<path fill="none" stroke="black" d="M397.48,-186.3C397.48,-178.86 397.48,-169.82 397.48,-160.92"/>
<polygon fill="black" stroke="black" points="400.98,-160.64 397.48,-150.64 393.98,-160.64 400.98,-160.64"/>
</g>
<!-- N0 -->
<g id="node5" class="node">
<title>N0</title>
<ellipse fill="none" stroke="black" cx="138.48" cy="-28.6" rx="28.7" ry="28.7"/>
<text text-anchor="middle" x="138.48" y="-24.9" font-family="Times,serif" font-size="14.00">null</text>
</g>
<!-- Alexandre Santos,955838599 [fb:0]&#45;&gt;N0 -->
<g id="edge4" class="edge">
<title>Alexandre Santos,955838599 [fb:0]&#45;&gt;N0</title>
<path fill="none" stroke="black" d="M168.53,-103.64C164.08,-92.68 158.15,-78.07 152.73,-64.72"/>
<polygon fill="black" stroke="black" points="155.91,-63.25 148.91,-55.3 149.43,-65.88 155.91,-63.25"/>
</g>
<!-- N1 -->
<g id="node6" class="node">
<title>N1</title>
<ellipse fill="none" stroke="black" cx="213.48" cy="-28.6" rx="28.7" ry="28.7"/>
<text text-anchor="middle" x="213.48" y="-24.9" font-family="Times,serif" font-size="14.00">null</text>
</g>
<!-- Alexandre Santos,955838599 [fb:0]&#45;&gt;N1 -->
<g id="edge5" class="edge">
<title>Alexandre Santos,955838599 [fb:0]&#45;&gt;N1</title>
<path fill="none" stroke="black" d="M182.63,-103.64C187.2,-92.68 193.29,-78.07 198.85,-64.72"/>
<polygon fill="black" stroke="black" points="202.16,-65.87 202.78,-55.3 195.7,-63.18 202.16,-65.87"/>
</g>
<!-- Ana Barbosa,965115082 [fb:0] -->
<g id="node9" class="node">
<title>Ana Barbosa,965115082 [fb:0]</title>
<ellipse fill="none" stroke="black" cx="596.48" cy="-121.79" rx="152.97" ry="18"/>
<text text-anchor="middle" x="596.48" y="-118.09" font-family="Times,serif" font-size="14.00">Ana Barbosa,965115082 [fb:0]</text>
</g>
<!-- Alfredo Martins,967387182 [fb:0]&#45;&gt;Ana Barbosa,965115082 [fb:0] -->
<g id="edge8" class="edge">
<title>Alfredo Martins,967387182 [fb:0]&#45;&gt;Ana Barbosa,965115082 [fb:0]</title>
<path fill="none" stroke="black" d="M776.48,-186.98C740.31,-174.08 689.81,-156.07 651.5,-142.41"/>
<polygon fill="black" stroke="black" points="652.64,-139.1 642.04,-139.04 650.28,-145.69 652.64,-139.1"/>
</g>
<!-- Altair Souza,975960513 [fb:0] -->
<g id="node12" class="node">
<title>Altair Souza,975960513 [fb:0]</title>
<ellipse fill="none" stroke="black" cx="918.48" cy="-121.79" rx="150.57" ry="18"/>
<text text-anchor="middle" x="918.48" y="-118.09" font-family="Times,serif" font-size="14.00">Altair Souza,975960513 [fb:0]</text>
</g>
<!-- Alfredo Martins,967387182 [fb:0]&#45;&gt;Altair Souza,975960513 [fb:0] -->
<g id="edge11" class="edge">
<title>Alfredo Martins,967387182 [fb:0]&#45;&gt;Altair Souza,975960513 [fb:0]</title>
<path fill="none" stroke="black" d="M842.84,-186.3C856.59,-174.76 874.92,-159.36 890.1,-146.62"/>
<polygon fill="black" stroke="black" points="892.75,-148.97 898.15,-139.86 888.25,-143.61 892.75,-148.97"/>
</g>
<!-- N3 -->
<g id="node10" class="node">
<title>N3</title>
<ellipse fill="none" stroke="black" cx="558.48" cy="-28.6" rx="28.7" ry="28.7"/>
<text text-anchor="middle" x="558.48" y="-24.9" font-family="Times,serif" font-size="14.00">null</text>
</g>
<!-- Ana Barbosa,965115082 [fb:0]&#45;&gt;N3 -->
<g id="edge9" class="edge">
<title>Ana Barbosa,965115082 [fb:0]&#45;&gt;N3</title>
<path fill="none" stroke="black" d="M589.34,-103.64C584.77,-92.68 578.68,-78.07 573.12,-64.72"/>
<polygon fill="black" stroke="black" points="576.27,-63.18 569.19,-55.3 569.81,-65.87 576.27,-63.18"/>
</g>
<!-- N4 -->
<g id="node11" class="node">
<title>N4</title>
<ellipse fill="none" stroke="black" cx="633.48" cy="-28.6" rx="28.7" ry="28.7"/>
<text text-anchor="middle" x="633.48" y="-24.9" font-family="Times,serif" font-size="14.00">null</text>
</g>
<!-- Ana Barbosa,965115082 [fb:0]&#45;&gt;N4 -->
<g id="edge10" class="edge">
<title>Ana Barbosa,965115082 [fb:0]&#45;&gt;N4</title>
<path fill="none" stroke="black" d="M603.44,-103.64C607.89,-92.68 613.82,-78.07 619.23,-64.72"/>
<polygon fill="black" stroke="black" points="622.54,-65.88 623.06,-55.3 616.05,-63.25 622.54,-65.88"/>
</g>
<!-- N5 -->
<g id="node13" class="node">
<title>N5</title>
<ellipse fill="none" stroke="black" cx="880.48" cy="-28.6" rx="28.7" ry="28.7"/>
<text text-anchor="middle" x="880.48" y="-24.9" font-family="Times,serif" font-size="14.00">null</text>
</g>
<!-- Altair Souza,975960513 [fb:0]&#45;&gt;N5 -->
<g id="edge12" class="edge">
<title>Altair Souza,975960513 [fb:0]&#45;&gt;N5</title>
<path fill="none" stroke="black" d="M911.34,-103.64C906.77,-92.68 900.68,-78.07 895.12,-64.72"/>
<polygon fill="black" stroke="black" points="898.27,-63.18 891.19,-55.3 891.81,-65.87 898.27,-63.18"/>
</g>
<!-- N6 -->
<g id="node14" class="node">
<title>N6</title>
<ellipse fill="none" stroke="black" cx="955.48" cy="-28.6" rx="28.7" ry="28.7"/>
<text text-anchor="middle" x="955.48" y="-24.9" font-family="Times,serif" font-size="14.00">null</text>
</g>
<!-- Altair Souza,975960513 [fb:0]&#45;&gt;N6 -->
<g id="edge13" class="edge">
<title>Altair Souza,975960513 [fb:0]&#45;&gt;N6</title>
<path fill="none" stroke="black" d="M925.44,-103.64C929.89,-92.68 935.82,-78.07 941.23,-64.72"/>
<polygon fill="black" stroke="black" points="944.54,-65.88 945.06,-55.3 938.05,-63.25 944.54,-65.88"/>
</g>
<!-- Alexandre Machado,987340734 [fb:0] -->
<g id="node16" class="node">
<title>Alexandre Machado,987340734 [fb:0]</title>
<ellipse fill="none" stroke="black" cx="1458.48" cy="-204.39" rx="185.77" ry="18"/>
<text text-anchor="middle" x="1458.48" y="-200.69" font-family="Times,serif" font-size="14.00">Alexandre Machado,987340734 [fb:0]</text>
</g>
<!-- Alexandre Barbosa,992883178 [fb:0]&#45;&gt;Alexandre Machado,987340734 [fb:0] -->
<g id="edge15" class="edge">
<title>Alexandre Barbosa,992883178 [fb:0]&#45;&gt;Alexandre Machado,987340734 [fb:0]</title>
<path fill="none" stroke="black" d="M1458.48,-258.09C1458.48,-250.37 1458.48,-241.1 1458.48,-232.5"/>
<polygon fill="black" stroke="black" points="1461.98,-232.49 1458.48,-222.49 1454.98,-232.49 1461.98,-232.49"/>
</g>
<!-- Ana Farias,996598918 [fb:0] -->
<g id="node23" class="node">
<title>Ana Farias,996598918 [fb:0]</title>
<ellipse fill="none" stroke="black" cx="2017.48" cy="-204.39" rx="143.77" ry="18"/>
<text text-anchor="middle" x="2017.48" y="-200.69" font-family="Times,serif" font-size="14.00">Ana Farias,996598918 [fb:0]</text>
</g>
<!-- Alexandre Barbosa,992883178 [fb:0]&#45;&gt;Ana Farias,996598918 [fb:0] -->
<g id="edge22" class="edge">
<title>Alexandre Barbosa,992883178 [fb:0]&#45;&gt;Ana Farias,996598918 [fb:0]</title>
<path fill="none" stroke="black" d="M1566.6,-261.85C1665.4,-249.48 1810.74,-231.28 1909.51,-218.91"/>
<polygon fill="black" stroke="black" points="1910.03,-222.37 1919.51,-217.66 1909.16,-215.43 1910.03,-222.37"/>
</g>
<!-- Américo Rodrigues,986979432 [fb:0] -->
<g id="node17" class="node">
<title>Américo Rodrigues,986979432 [fb:0]</title>
<ellipse fill="none" stroke="black" cx="1269.48" cy="-121.79" rx="182.77" ry="18"/>
<text text-anchor="middle" x="1269.48" y="-118.09" font-family="Times,serif" font-size="14.00">Américo Rodrigues,986979432 [fb:0]</text>
</g>
<!-- Alexandre Machado,987340734 [fb:0]&#45;&gt;Américo Rodrigues,986979432 [fb:0] -->
<g id="edge16" class="edge">
<title>Alexandre Machado,987340734 [fb:0]&#45;&gt;Américo Rodrigues,986979432 [fb:0]</title>
<path fill="none" stroke="black" d="M1419.32,-186.69C1389.93,-174.15 1349.5,-156.91 1318.05,-143.5"/>
<polygon fill="black" stroke="black" points="1319.17,-140.17 1308.6,-139.47 1316.42,-146.61 1319.17,-140.17"/>
</g>
<!-- Alexandre Pereira,987671978 [fb:0] -->
<g id="node20" class="node">
<title>Alexandre Pereira,987671978 [fb:0]</title>
<ellipse fill="none" stroke="black" cx="1647.48" cy="-121.79" rx="177.37" ry="18"/>
<text text-anchor="middle" x="1647.48" y="-118.09" font-family="Times,serif" font-size="14.00">Alexandre Pereira,987671978 [fb:0]</text>
</g>
<!-- Alexandre Machado,987340734 [fb:0]&#45;&gt;Alexandre Pereira,987671978 [fb:0] -->
<g id="edge19" class="edge">
<title>Alexandre Machado,987340734 [fb:0]&#45;&gt;Alexandre Pereira,987671978 [fb:0]</title>
<path fill="none" stroke="black" d="M1497.65,-186.69C1527.04,-174.15 1567.47,-156.91 1598.92,-143.5"/>
<polygon fill="black" stroke="black" points="1600.55,-146.61 1608.37,-139.47 1597.8,-140.17 1600.55,-146.61"/>
</g>
<!-- N7 -->
<g id="node18" class="node">
<title>N7</title>
<ellipse fill="none" stroke="black" cx="1231.48" cy="-28.6" rx="28.7" ry="28.7"/>
<text text-anchor="middle" x="1231.48" y="-24.9" font-family="Times,serif" font-size="14.00">null</text>
</g>
<!-- Américo Rodrigues,986979432 [fb:0]&#45;&gt;N7 -->
<g id="edge17" class="edge">
<title>Américo Rodrigues,986979432 [fb:0]&#45;&gt;N7</title>
<path fill="none" stroke="black" d="M1262.34,-103.64C1257.77,-92.68 1251.68,-78.07 1246.12,-64.72"/>
<polygon fill="black" stroke="black" points="1249.27,-63.18 1242.19,-55.3 1242.81,-65.87 1249.27,-63.18"/>
</g>
<!-- N8 -->
<g id="node19" class="node">
<title>N8</title>
<ellipse fill="none" stroke="black" cx="1306.48" cy="-28.6" rx="28.7" ry="28.7"/>
<text text-anchor="middle" x="1306.48" y="-24.9" font-family="Times,serif" font-size="14.00">null</text>
</g>
<!-- Américo Rodrigues,986979432 [fb:0]&#45;&gt;N8 -->
<g id="edge18" class="edge">
<title>Américo Rodrigues,986979432 [fb:0]&#45;&gt;N8</title>
<path fill="none" stroke="black" d="M1276.44,-103.64C1280.89,-92.68 1286.82,-78.07 1292.23,-64.72"/>
<polygon fill="black" stroke="black" points="1295.54,-65.88 1296.06,-55.3 1289.05,-63.25 1295.54,-65.88"/>
</g>
<!-- N9 -->
<g id="node21" class="node">
<title>N9</title>
<ellipse fill="none" stroke="black" cx="1609.48" cy="-28.6" rx="28.7" ry="28.7"/>
<text text-anchor="middle" x="1609.48" y="-24.9" font-family="Times,serif" font-size="14.00">null</text>
</g>
<!-- Alexandre Pereira,987671978 [fb:0]&#45;&gt;N9 -->
<g id="edge20" class="edge">
<title>Alexandre Pereira,987671978 [fb:0]&#45;&gt;N9</title>
<path fill="none" stroke="black" d="M1640.34,-103.64C1635.77,-92.68 1629.68,-78.07 1624.12,-64.72"/>
<polygon fill="black" stroke="black" points="1627.27,-63.18 1620.19,-55.3 1620.81,-65.87 1627.27,-63.18"/>
</g>
<!-- N10 -->
<g id="node22" class="node">
<title>N10</title>
<ellipse fill="none" stroke="black" cx="1684.48" cy="-28.6" rx="28.7" ry="28.7"/>
<text text-anchor="middle" x="1684.48" y="-24.9" font-family="Times,serif" font-size="14.00">null</text>
</g>
<!-- Alexandre Pereira,987671978 [fb:0]&#45;&gt;N10 -->
<g id="edge21" class="edge">
<title>Alexandre Pereira,987671978 [fb:0]&#45;&gt;N10</title>
<path fill="none" stroke="black" d="M1654.44,-103.64C1658.89,-92.68 1664.82,-78.07 1670.23,-64.72"/>
<polygon fill="black" stroke="black" points="1673.54,-65.88 1674.06,-55.3 1667.05,-63.25 1673.54,-65.88"/>
</g>
<!-- Alexandra Moura,994116870 [fb:0] -->
<g id="node24" class="node">
<title>Alexandra Moura,994116870 [fb:0]</title>
<ellipse fill="none" stroke="black" cx="2017.48" cy="-121.79" rx="174.37" ry="18"/>
<text text-anchor="middle" x="2017.48" y="-118.09" font-family="Times,serif" font-size="14.00">Alexandra Moura,994116870 [fb:0]</text>
</g>
<!-- Ana Farias,996598918 [fb:0]&#45;&gt;Alexandra Moura,994116870 [fb:0] -->
<g id="edge23" class="edge">
<title>Ana Farias,996598918 [fb:0]&#45;&gt;Alexandra Moura,994116870 [fb:0]</title>
<path fill="none" stroke="black" d="M2017.48,-186.3C2017.48,-175.72 2017.48,-161.9 2017.48,-149.86"/>
<polygon fill="black" stroke="black" points="2020.98,-149.86 2017.48,-139.86 2013.98,-149.86 2020.98,-149.86"/>
</g>
<!-- Alexandre Torres,997285865 [fb:0] -->
<g id="node27" class="node">
<title>Alexandre Torres,997285865 [fb:0]</title>
<ellipse fill="none" stroke="black" cx="2383.48" cy="-121.79" rx="173.57" ry="18"/>
<text text-anchor="middle" x="2383.48" y="-118.09" font-family="Times,serif" font-size="14.00">Alexandre Torres,997285865 [fb:0]</text>
</g>
<!-- Ana Farias,996598918 [fb:0]&#45;&gt;Alexandre Torres,997285865 [fb:0] -->
<g id="edge26" class="edge">
<title>Ana Farias,996598918 [fb:0]&#45;&gt;Alexandre Torres,997285865 [fb:0]</title>
<path fill="none" stroke="black" d="M2085.47,-188.42C2147.11,-174.84 2238.04,-154.82 2303.23,-140.47"/>
<polygon fill="black" stroke="black" points="2304.05,-143.87 2313.06,-138.3 2302.54,-137.03 2304.05,-143.87"/>
</g>
<!-- N11 -->
<g id="node25" class="node">
<title>N11</title>
<ellipse fill="none" stroke="black" cx="1979.48" cy="-28.6" rx="28.7" ry="28.7"/>
<text text-anchor="middle" x="1979.48" y="-24.9" font-family="Times,serif" font-size="14.00">null</text>
</g>
<!-- Alexandra Moura,994116870 [fb:0]&#45;&gt;N11 -->
<g id="edge24" class="edge">
<title>Alexandra Moura,994116870 [fb:0]&#45;&gt;N11</title>
<path fill="none" stroke="black" d="M2010.34,-103.64C2005.77,-92.68 1999.68,-78.07 1994.12,-64.72"/>
<polygon fill="black" stroke="black" points="1997.27,-63.18 1990.19,-55.3 1990.81,-65.87 1997.27,-63.18"/>
</g>
<!-- N12 -->
<g id="node26" class="node">
<title>N12</title>
<ellipse fill="none" stroke="black" cx="2054.48" cy="-28.6" rx="28.7" ry="28.7"/>
<text text-anchor="middle" x="2054.48" y="-24.9" font-family="Times,serif" font-size="14.00">null</text>
</g>
<!-- Alexandra Moura,994116870 [fb:0]&#45;&gt;N12 -->
<g id="edge25" class="edge">
<title>Alexandra Moura,994116870 [fb:0]&#45;&gt;N12</title>
<path fill="none" stroke="black" d="M2024.44,-103.64C2028.89,-92.68 2034.82,-78.07 2040.23,-64.72"/>
<polygon fill="black" stroke="black" points="2043.54,-65.88 2044.06,-55.3 2037.05,-63.25 2043.54,-65.88"/>
</g>
<!-- N13 -->
<g id="node28" class="node">
<title>N13</title>
<ellipse fill="none" stroke="black" cx="2345.48" cy="-28.6" rx="28.7" ry="28.7"/>
<text text-anchor="middle" x="2345.48" y="-24.9" font-family="Times,serif" font-size="14.00">null</text>
</g>
<!-- Alexandre Torres,997285865 [fb:0]&#45;&gt;N13 -->
<g id="edge27" class="edge">
<title>Alexandre Torres,997285865 [fb:0]&#45;&gt;N13</title>
<path fill="none" stroke="black" d="M2376.34,-103.64C2371.77,-92.68 2365.68,-78.07 2360.12,-64.72"/>
<polygon fill="black" stroke="black" points="2363.27,-63.18 2356.19,-55.3 2356.81,-65.87 2363.27,-63.18"/>
</g>
<!-- N14 -->
<g id="node29" class="node">
<title>N14</title>
<ellipse fill="none" stroke="black" cx="2420.48" cy="-28.6" rx="28.7" ry="28.7"/>
<text text-anchor="middle" x="2420.48" y="-24.9" font-family="Times,serif" font-size="14.00">null</text>
</g>
<!-- Alexandre Torres,997285865 [fb:0]&#45;&gt;N14 -->
<g id="edge28" class="edge">
<title>Alexandre Torres,997285865 [fb:0]&#45;&gt;N14</title>
<path fill="none" stroke="black" d="M2390.44,-103.64C2394.89,-92.68 2400.82,-78.07 2406.23,-64.72"/>
<polygon fill="black" stroke="black" points="2409.54,-65.88 2410.06,-55.3 2403.05,-63.25 2409.54,-65.88"/>
</g>
</g>
</svg>
