<?xml version="1.0" encoding="UTF-8" standalone="no"?>
<!DOCTYPE svg PUBLIC "-//W3C//DTD SVG 1.1//EN"
 "http://www.w3.org/Graphics/SVG/1.1/DTD/svg11.dtd">
<!-- Generated by graphviz version 2.43.0 (0)
 -->
<!-- Title: BST Pages: 1 -->
<svg width="1498pt" height="496pt"
 viewBox="0.00 0.00 1497.91 495.81" xmlns="http://www.w3.org/2000/svg" xmlns:xlink="http://www.w3.org/1999/xlink">
<g id="graph0" class="graph" transform="scale(1 1) rotate(0) translate(4 491.81)">
<title>BST</title>
<polygon fill="white" stroke="transparent" points="-4,4 -4,-491.81 1493.91,-491.81 1493.91,4 -4,4"/>
<!-- No_982632579 -->
<g id="node1" class="node">
<title>No_982632579</title>
<ellipse fill="none" stroke="black" cx="665.95" cy="-450.34" rx="69.09" ry="37.45"/>
<text text-anchor="middle" x="665.95" y="-461.64" font-family="Times,serif" font-size="14.00">Abel Costa</text>
<text text-anchor="middle" x="665.95" y="-446.64" font-family="Times,serif" font-size="14.00">982632579</text>
<text text-anchor="middle" x="665.95" y="-431.64" font-family="Times,serif" font-size="14.00">fb=0</text>
</g>
<!-- No_964642705 -->
<g id="node2" class="node">
<title>No_964642705</title>
<ellipse fill="none" stroke="black" cx="561.95" cy="-339.38" rx="78.48" ry="37.45"/>
<text text-anchor="middle" x="561.95" y="-350.68" font-family="Times,serif" font-size="14.00">Alícia Freitas</text>
<text text-anchor="middle" x="561.95" y="-335.68" font-family="Times,serif" font-size="14.00">964642705</text>
<text text-anchor="middle" x="561.95" y="-320.68" font-family="Times,serif" font-size="14.00">fb=0</text>
</g>
<!-- No_982632579&#45;&gt;No_964642705 -->
<g id="edge1" class="edge">
<title>No_982632579&#45;&gt;No_964642705</title>
<path fill="none" stroke="black" d="M634.75,-416.65C624.15,-405.54 612.17,-392.99 601.03,-381.32"/>
<polygon fill="black" stroke="black" points="603.29,-378.62 593.85,-373.8 598.23,-383.45 603.29,-378.62"/>
</g>
<!-- No_992883178 -->
<g id="node17" class="node">
<title>No_992883178</title>
<ellipse fill="none" stroke="black" cx="836.95" cy="-339.38" rx="107.46" ry="37.45"/>
<text text-anchor="middle" x="836.95" y="-350.68" font-family="Times,serif" font-size="14.00">Alexandre Barbosa</text>
<text text-anchor="middle" x="836.95" y="-335.68" font-family="Times,serif" font-size="14.00">992883178</text>
<text text-anchor="middle" x="836.95" y="-320.68" font-family="Times,serif" font-size="14.00">fb=0</text>
</g>
<!-- No_982632579&#45;&gt;No_992883178 -->
<g id="edge16" class="edge">
<title>No_982632579&#45;&gt;No_992883178</title>
<path fill="none" stroke="black" d="M709.99,-421.28C730.61,-408.14 755.47,-392.3 777.71,-378.13"/>
<polygon fill="black" stroke="black" points="779.85,-380.91 786.41,-372.59 776.09,-375.01 779.85,-380.91"/>
</g>
<!-- No_960933788 -->
<g id="node3" class="node">
<title>No_960933788</title>
<ellipse fill="none" stroke="black" cx="253.95" cy="-228.43" rx="92.76" ry="37.45"/>
<text text-anchor="middle" x="253.95" y="-239.73" font-family="Times,serif" font-size="14.00">Alberto Campos</text>
<text text-anchor="middle" x="253.95" y="-224.73" font-family="Times,serif" font-size="14.00">960933788</text>
<text text-anchor="middle" x="253.95" y="-209.73" font-family="Times,serif" font-size="14.00">fb=0</text>
</g>
<!-- No_964642705&#45;&gt;No_960933788 -->
<g id="edge2" class="edge">
<title>No_964642705&#45;&gt;No_960933788</title>
<path fill="none" stroke="black" d="M499.62,-316.33C451.31,-299.24 384.05,-275.45 332.13,-257.08"/>
<polygon fill="black" stroke="black" points="333.21,-253.76 322.62,-253.72 330.88,-260.35 333.21,-253.76"/>
</g>
<!-- No_967387182 -->
<g id="node10" class="node">
<title>No_967387182</title>
<ellipse fill="none" stroke="black" cx="561.95" cy="-228.43" rx="91.43" ry="37.45"/>
<text text-anchor="middle" x="561.95" y="-239.73" font-family="Times,serif" font-size="14.00">Alfredo Martins</text>
<text text-anchor="middle" x="561.95" y="-224.73" font-family="Times,serif" font-size="14.00">967387182</text>
<text text-anchor="middle" x="561.95" y="-209.73" font-family="Times,serif" font-size="14.00">fb=0</text>
</g>
<!-- No_964642705&#45;&gt;No_967387182 -->
<g id="edge9" class="edge">
<title>No_964642705&#45;&gt;No_967387182</title>
<path fill="none" stroke="black" d="M561.95,-301.8C561.95,-293.63 561.95,-284.85 561.95,-276.32"/>
<polygon fill="black" stroke="black" points="565.45,-276.1 561.95,-266.1 558.45,-276.1 565.45,-276.1"/>
</g>
<!-- No_955838599 -->
<g id="node4" class="node">
<title>No_955838599</title>
<ellipse fill="none" stroke="black" cx="74.95" cy="-117.48" rx="74.91" ry="37.45"/>
<text text-anchor="middle" x="74.95" y="-128.78" font-family="Times,serif" font-size="14.00">Aline Santos</text>
<text text-anchor="middle" x="74.95" y="-113.78" font-family="Times,serif" font-size="14.00">955838599</text>
<text text-anchor="middle" x="74.95" y="-98.78" font-family="Times,serif" font-size="14.00">fb=0</text>
</g>
<!-- No_960933788&#45;&gt;No_955838599 -->
<g id="edge3" class="edge">
<title>No_960933788&#45;&gt;No_955838599</title>
<path fill="none" stroke="black" d="M203.62,-196.79C180.88,-182.95 153.94,-166.55 130.6,-152.35"/>
<polygon fill="black" stroke="black" points="132.21,-149.23 121.84,-147.02 128.57,-155.21 132.21,-149.23"/>
</g>
<!-- No_960933790 -->
<g id="node7" class="node">
<title>No_960933790</title>
<ellipse fill="none" stroke="black" cx="253.95" cy="-117.48" rx="85.62" ry="37.45"/>
<text text-anchor="middle" x="253.95" y="-128.78" font-family="Times,serif" font-size="14.00">Andrea Santos</text>
<text text-anchor="middle" x="253.95" y="-113.78" font-family="Times,serif" font-size="14.00">960933790</text>
<text text-anchor="middle" x="253.95" y="-98.78" font-family="Times,serif" font-size="14.00">fb=0</text>
</g>
<!-- No_960933788&#45;&gt;No_960933790 -->
<g id="edge6" class="edge">
<title>No_960933788&#45;&gt;No_960933790</title>
<path fill="none" stroke="black" d="M253.95,-190.85C253.95,-182.67 253.95,-173.89 253.95,-165.37"/>
<polygon fill="black" stroke="black" points="257.45,-165.15 253.95,-155.15 250.45,-165.15 257.45,-165.15"/>
</g>
<!-- NUL_0 -->
<g id="node5" class="node">
<title>NUL_0</title>
<polygon fill="none" stroke="black" points="65.95,-44 21.95,-44 21.95,0 65.95,0 65.95,-44"/>
<text text-anchor="middle" x="43.95" y="-18.3" font-family="Times,serif" font-size="14.00">null</text>
</g>
<!-- No_955838599&#45;&gt;NUL_0 -->
<g id="edge4" class="edge">
<title>No_955838599&#45;&gt;NUL_0</title>
<path fill="none" stroke="black" d="M62.97,-80.34C60.05,-71.55 56.96,-62.23 54.14,-53.72"/>
<polygon fill="black" stroke="black" points="57.45,-52.57 50.98,-44.18 50.8,-54.77 57.45,-52.57"/>
</g>
<!-- NUL_1 -->
<g id="node6" class="node">
<title>NUL_1</title>
<polygon fill="none" stroke="black" points="127.95,-44 83.95,-44 83.95,0 127.95,0 127.95,-44"/>
<text text-anchor="middle" x="105.95" y="-18.3" font-family="Times,serif" font-size="14.00">null</text>
</g>
<!-- No_955838599&#45;&gt;NUL_1 -->
<g id="edge5" class="edge">
<title>No_955838599&#45;&gt;NUL_1</title>
<path fill="none" stroke="black" d="M86.94,-80.34C89.85,-71.55 92.94,-62.23 95.77,-53.72"/>
<polygon fill="black" stroke="black" points="99.1,-54.77 98.93,-44.18 92.46,-52.57 99.1,-54.77"/>
</g>
<!-- NUL_2 -->
<g id="node8" class="node">
<title>NUL_2</title>
<polygon fill="none" stroke="black" points="258.95,-44 214.95,-44 214.95,0 258.95,0 258.95,-44"/>
<text text-anchor="middle" x="236.95" y="-18.3" font-family="Times,serif" font-size="14.00">null</text>
</g>
<!-- No_960933790&#45;&gt;NUL_2 -->
<g id="edge7" class="edge">
<title>No_960933790&#45;&gt;NUL_2</title>
<path fill="none" stroke="black" d="M247.33,-80.07C245.77,-71.49 244.12,-62.42 242.61,-54.1"/>
<polygon fill="black" stroke="black" points="246.02,-53.27 240.78,-44.06 239.13,-54.52 246.02,-53.27"/>
</g>
<!-- NUL_3 -->
<g id="node9" class="node">
<title>NUL_3</title>
<polygon fill="none" stroke="black" points="320.95,-44 276.95,-44 276.95,0 320.95,0 320.95,-44"/>
<text text-anchor="middle" x="298.95" y="-18.3" font-family="Times,serif" font-size="14.00">null</text>
</g>
<!-- No_960933790&#45;&gt;NUL_3 -->
<g id="edge8" class="edge">
<title>No_960933790&#45;&gt;NUL_3</title>
<path fill="none" stroke="black" d="M271.22,-80.6C275.59,-71.53 280.24,-61.88 284.45,-53.12"/>
<polygon fill="black" stroke="black" points="287.64,-54.56 288.83,-44.04 281.34,-51.53 287.64,-54.56"/>
</g>
<!-- No_965115082 -->
<g id="node11" class="node">
<title>No_965115082</title>
<ellipse fill="none" stroke="black" cx="432.95" cy="-117.48" rx="75.82" ry="37.45"/>
<text text-anchor="middle" x="432.95" y="-128.78" font-family="Times,serif" font-size="14.00">Ana Barbosa</text>
<text text-anchor="middle" x="432.95" y="-113.78" font-family="Times,serif" font-size="14.00">965115082</text>
<text text-anchor="middle" x="432.95" y="-98.78" font-family="Times,serif" font-size="14.00">fb=0</text>
</g>
<!-- No_967387182&#45;&gt;No_965115082 -->
<g id="edge10" class="edge">
<title>No_967387182&#45;&gt;No_965115082</title>
<path fill="none" stroke="black" d="M522.9,-194.44C508.88,-182.61 492.96,-169.16 478.44,-156.9"/>
<polygon fill="black" stroke="black" points="480.45,-154.01 470.55,-150.23 475.93,-159.35 480.45,-154.01"/>
</g>
<!-- No_975960513 -->
<g id="node14" class="node">
<title>No_975960513</title>
<ellipse fill="none" stroke="black" cx="599.95" cy="-117.48" rx="73.58" ry="37.45"/>
<text text-anchor="middle" x="599.95" y="-128.78" font-family="Times,serif" font-size="14.00">Altair Souza</text>
<text text-anchor="middle" x="599.95" y="-113.78" font-family="Times,serif" font-size="14.00">975960513</text>
<text text-anchor="middle" x="599.95" y="-98.78" font-family="Times,serif" font-size="14.00">fb=0</text>
</g>
<!-- No_967387182&#45;&gt;No_975960513 -->
<g id="edge13" class="edge">
<title>No_967387182&#45;&gt;No_975960513</title>
<path fill="none" stroke="black" d="M574.61,-191.15C577.62,-182.51 580.87,-173.19 584.01,-164.19"/>
<polygon fill="black" stroke="black" points="587.37,-165.19 587.36,-154.6 580.76,-162.89 587.37,-165.19"/>
</g>
<!-- NUL_4 -->
<g id="node12" class="node">
<title>NUL_4</title>
<polygon fill="none" stroke="black" points="409.95,-44 365.95,-44 365.95,0 409.95,0 409.95,-44"/>
<text text-anchor="middle" x="387.95" y="-18.3" font-family="Times,serif" font-size="14.00">null</text>
</g>
<!-- No_965115082&#45;&gt;NUL_4 -->
<g id="edge11" class="edge">
<title>No_965115082&#45;&gt;NUL_4</title>
<path fill="none" stroke="black" d="M415.81,-80.87C411.43,-71.78 406.77,-62.09 402.53,-53.29"/>
<polygon fill="black" stroke="black" points="405.63,-51.65 398.14,-44.16 399.32,-54.69 405.63,-51.65"/>
</g>
<!-- NUL_5 -->
<g id="node13" class="node">
<title>NUL_5</title>
<polygon fill="none" stroke="black" points="471.95,-44 427.95,-44 427.95,0 471.95,0 471.95,-44"/>
<text text-anchor="middle" x="449.95" y="-18.3" font-family="Times,serif" font-size="14.00">null</text>
</g>
<!-- No_965115082&#45;&gt;NUL_5 -->
<g id="edge12" class="edge">
<title>No_965115082&#45;&gt;NUL_5</title>
<path fill="none" stroke="black" d="M439.57,-80.07C441.13,-71.49 442.78,-62.42 444.3,-54.1"/>
<polygon fill="black" stroke="black" points="447.78,-54.52 446.12,-44.06 440.89,-53.27 447.78,-54.52"/>
</g>
<!-- NUL_6 -->
<g id="node15" class="node">
<title>NUL_6</title>
<polygon fill="none" stroke="black" points="590.95,-44 546.95,-44 546.95,0 590.95,0 590.95,-44"/>
<text text-anchor="middle" x="568.95" y="-18.3" font-family="Times,serif" font-size="14.00">null</text>
</g>
<!-- No_975960513&#45;&gt;NUL_6 -->
<g id="edge14" class="edge">
<title>No_975960513&#45;&gt;NUL_6</title>
<path fill="none" stroke="black" d="M587.97,-80.34C585.05,-71.55 581.96,-62.23 579.14,-53.72"/>
<polygon fill="black" stroke="black" points="582.45,-52.57 575.98,-44.18 575.8,-54.77 582.45,-52.57"/>
</g>
<!-- NUL_7 -->
<g id="node16" class="node">
<title>NUL_7</title>
<polygon fill="none" stroke="black" points="652.95,-44 608.95,-44 608.95,0 652.95,0 652.95,-44"/>
<text text-anchor="middle" x="630.95" y="-18.3" font-family="Times,serif" font-size="14.00">null</text>
</g>
<!-- No_975960513&#45;&gt;NUL_7 -->
<g id="edge15" class="edge">
<title>No_975960513&#45;&gt;NUL_7</title>
<path fill="none" stroke="black" d="M611.94,-80.34C614.85,-71.55 617.94,-62.23 620.77,-53.72"/>
<polygon fill="black" stroke="black" points="624.1,-54.77 623.93,-44.18 617.46,-52.57 624.1,-54.77"/>
</g>
<!-- No_987340734 -->
<g id="node18" class="node">
<title>No_987340734</title>
<ellipse fill="none" stroke="black" cx="836.95" cy="-228.43" rx="98.99" ry="37.45"/>
<text text-anchor="middle" x="836.95" y="-239.73" font-family="Times,serif" font-size="14.00">Antônia Machado</text>
<text text-anchor="middle" x="836.95" y="-224.73" font-family="Times,serif" font-size="14.00">987340734</text>
<text text-anchor="middle" x="836.95" y="-209.73" font-family="Times,serif" font-size="14.00">fb=0</text>
</g>
<!-- No_992883178&#45;&gt;No_987340734 -->
<g id="edge17" class="edge">
<title>No_992883178&#45;&gt;No_987340734</title>
<path fill="none" stroke="black" d="M836.95,-301.8C836.95,-293.63 836.95,-284.85 836.95,-276.32"/>
<polygon fill="black" stroke="black" points="840.45,-276.1 836.95,-266.1 833.45,-276.1 840.45,-276.1"/>
</g>
<!-- No_996598918 -->
<g id="node25" class="node">
<title>No_996598918</title>
<ellipse fill="none" stroke="black" cx="1222.95" cy="-228.43" rx="69.09" ry="37.45"/>
<text text-anchor="middle" x="1222.95" y="-239.73" font-family="Times,serif" font-size="14.00">Ana Farias</text>
<text text-anchor="middle" x="1222.95" y="-224.73" font-family="Times,serif" font-size="14.00">996598918</text>
<text text-anchor="middle" x="1222.95" y="-209.73" font-family="Times,serif" font-size="14.00">fb=0</text>
</g>
<!-- No_992883178&#45;&gt;No_996598918 -->
<g id="edge24" class="edge">
<title>No_992883178&#45;&gt;No_996598918</title>
<path fill="none" stroke="black" d="M919.29,-315.14C988.57,-295.59 1086.61,-267.92 1152.36,-249.36"/>
<polygon fill="black" stroke="black" points="1153.55,-252.66 1162.22,-246.57 1151.65,-245.92 1153.55,-252.66"/>
</g>
<!-- No_986979432 -->
<g id="node19" class="node">
<title>No_986979432</title>
<ellipse fill="none" stroke="black" cx="798.95" cy="-117.48" rx="107.46" ry="37.45"/>
<text text-anchor="middle" x="798.95" y="-128.78" font-family="Times,serif" font-size="14.00">Américo Rodrigues</text>
<text text-anchor="middle" x="798.95" y="-113.78" font-family="Times,serif" font-size="14.00">986979432</text>
<text text-anchor="middle" x="798.95" y="-98.78" font-family="Times,serif" font-size="14.00">fb=0</text>
</g>
<!-- No_987340734&#45;&gt;No_986979432 -->
<g id="edge18" class="edge">
<title>No_987340734&#45;&gt;No_986979432</title>
<path fill="none" stroke="black" d="M824.3,-191.15C821.32,-182.6 818.1,-173.38 814.99,-164.47"/>
<polygon fill="black" stroke="black" points="818.28,-163.26 811.68,-154.97 811.67,-165.56 818.28,-163.26"/>
</g>
<!-- No_987671978 -->
<g id="node22" class="node">
<title>No_987671978</title>
<ellipse fill="none" stroke="black" cx="1014.95" cy="-117.48" rx="90.52" ry="37.45"/>
<text text-anchor="middle" x="1014.95" y="-128.78" font-family="Times,serif" font-size="14.00">Adriana Pereira</text>
<text text-anchor="middle" x="1014.95" y="-113.78" font-family="Times,serif" font-size="14.00">987671978</text>
<text text-anchor="middle" x="1014.95" y="-98.78" font-family="Times,serif" font-size="14.00">fb=0</text>
</g>
<!-- No_987340734&#45;&gt;No_987671978 -->
<g id="edge21" class="edge">
<title>No_987340734&#45;&gt;No_987671978</title>
<path fill="none" stroke="black" d="M887.96,-196.21C909.36,-183.11 934.38,-167.8 956.52,-154.25"/>
<polygon fill="black" stroke="black" points="958.47,-157.16 965.17,-148.95 954.81,-151.19 958.47,-157.16"/>
</g>
<!-- NUL_8 -->
<g id="node20" class="node">
<title>NUL_8</title>
<polygon fill="none" stroke="black" points="789.95,-44 745.95,-44 745.95,0 789.95,0 789.95,-44"/>
<text text-anchor="middle" x="767.95" y="-18.3" font-family="Times,serif" font-size="14.00">null</text>
</g>
<!-- No_986979432&#45;&gt;NUL_8 -->
<g id="edge19" class="edge">
<title>No_986979432&#45;&gt;NUL_8</title>
<path fill="none" stroke="black" d="M786.88,-80.07C783.97,-71.3 780.89,-62.02 778.08,-53.55"/>
<polygon fill="black" stroke="black" points="781.41,-52.45 774.94,-44.06 774.76,-54.65 781.41,-52.45"/>
</g>
<!-- NUL_9 -->
<g id="node21" class="node">
<title>NUL_9</title>
<polygon fill="none" stroke="black" points="851.95,-44 807.95,-44 807.95,0 851.95,0 851.95,-44"/>
<text text-anchor="middle" x="829.95" y="-18.3" font-family="Times,serif" font-size="14.00">null</text>
</g>
<!-- No_986979432&#45;&gt;NUL_9 -->
<g id="edge20" class="edge">
<title>No_986979432&#45;&gt;NUL_9</title>
<path fill="none" stroke="black" d="M811.03,-80.07C813.94,-71.3 817.01,-62.02 819.82,-53.55"/>
<polygon fill="black" stroke="black" points="823.14,-54.65 822.97,-44.06 816.5,-52.45 823.14,-54.65"/>
</g>
<!-- NUL_10 -->
<g id="node23" class="node">
<title>NUL_10</title>
<polygon fill="none" stroke="black" points="1005.95,-44 961.95,-44 961.95,0 1005.95,0 1005.95,-44"/>
<text text-anchor="middle" x="983.95" y="-18.3" font-family="Times,serif" font-size="14.00">null</text>
</g>
<!-- No_987671978&#45;&gt;NUL_10 -->
<g id="edge22" class="edge">
<title>No_987671978&#45;&gt;NUL_10</title>
<path fill="none" stroke="black" d="M1002.88,-80.07C999.97,-71.3 996.89,-62.02 994.08,-53.55"/>
<polygon fill="black" stroke="black" points="997.41,-52.45 990.94,-44.06 990.76,-54.65 997.41,-52.45"/>
</g>
<!-- NUL_11 -->
<g id="node24" class="node">
<title>NUL_11</title>
<polygon fill="none" stroke="black" points="1067.95,-44 1023.95,-44 1023.95,0 1067.95,0 1067.95,-44"/>
<text text-anchor="middle" x="1045.95" y="-18.3" font-family="Times,serif" font-size="14.00">null</text>
</g>
<!-- No_987671978&#45;&gt;NUL_11 -->
<g id="edge23" class="edge">
<title>No_987671978&#45;&gt;NUL_11</title>
<path fill="none" stroke="black" d="M1027.03,-80.07C1029.94,-71.3 1033.01,-62.02 1035.82,-53.55"/>
<polygon fill="black" stroke="black" points="1039.14,-54.65 1038.97,-44.06 1032.5,-52.45 1039.14,-54.65"/>
</g>
<!-- No_994116870 -->
<g id="node26" class="node">
<title>No_994116870</title>
<ellipse fill="none" stroke="black" cx="1222.95" cy="-117.48" rx="98.99" ry="37.45"/>
<text text-anchor="middle" x="1222.95" y="-128.78" font-family="Times,serif" font-size="14.00">Alexandra Moura</text>
<text text-anchor="middle" x="1222.95" y="-113.78" font-family="Times,serif" font-size="14.00">994116870</text>
<text text-anchor="middle" x="1222.95" y="-98.78" font-family="Times,serif" font-size="14.00">fb=0</text>
</g>
<!-- No_996598918&#45;&gt;No_994116870 -->
<g id="edge25" class="edge">
<title>No_996598918&#45;&gt;No_994116870</title>
<path fill="none" stroke="black" d="M1222.95,-190.85C1222.95,-182.67 1222.95,-173.89 1222.95,-165.37"/>
<polygon fill="black" stroke="black" points="1226.45,-165.15 1222.95,-155.15 1219.45,-165.15 1226.45,-165.15"/>
</g>
<!-- No_997285865 -->
<g id="node29" class="node">
<title>No_997285865</title>
<ellipse fill="none" stroke="black" cx="1414.95" cy="-117.48" rx="74.91" ry="37.45"/>
<text text-anchor="middle" x="1414.95" y="-128.78" font-family="Times,serif" font-size="14.00">Almir Torres</text>
<text text-anchor="middle" x="1414.95" y="-113.78" font-family="Times,serif" font-size="14.00">997285865</text>
<text text-anchor="middle" x="1414.95" y="-98.78" font-family="Times,serif" font-size="14.00">fb=0</text>
</g>
<!-- No_996598918&#45;&gt;No_997285865 -->
<g id="edge28" class="edge">
<title>No_996598918&#45;&gt;No_997285865</title>
<path fill="none" stroke="black" d="M1269.92,-200.78C1296.27,-185.83 1329.35,-167.05 1357.26,-151.21"/>
<polygon fill="black" stroke="black" points="1359.16,-154.16 1366.13,-146.18 1355.7,-148.07 1359.16,-154.16"/>
</g>
<!-- NUL_12 -->
<g id="node27" class="node">
<title>NUL_12</title>
<polygon fill="none" stroke="black" points="1213.95,-44 1169.95,-44 1169.95,0 1213.95,0 1213.95,-44"/>
<text text-anchor="middle" x="1191.95" y="-18.3" font-family="Times,serif" font-size="14.00">null</text>
</g>
<!-- No_994116870&#45;&gt;NUL_12 -->
<g id="edge26" class="edge">
<title>No_994116870&#45;&gt;NUL_12</title>
<path fill="none" stroke="black" d="M1210.88,-80.07C1207.97,-71.3 1204.89,-62.02 1202.08,-53.55"/>
<polygon fill="black" stroke="black" points="1205.41,-52.45 1198.94,-44.06 1198.76,-54.65 1205.41,-52.45"/>
</g>
<!-- NUL_13 -->
<g id="node28" class="node">
<title>NUL_13</title>
<polygon fill="none" stroke="black" points="1275.95,-44 1231.95,-44 1231.95,0 1275.95,0 1275.95,-44"/>
<text text-anchor="middle" x="1253.95" y="-18.3" font-family="Times,serif" font-size="14.00">null</text>
</g>
<!-- No_994116870&#45;&gt;NUL_13 -->
<g id="edge27" class="edge">
<title>No_994116870&#45;&gt;NUL_13</title>
<path fill="none" stroke="black" d="M1235.03,-80.07C1237.94,-71.3 1241.01,-62.02 1243.82,-53.55"/>
<polygon fill="black" stroke="black" points="1247.14,-54.65 1246.97,-44.06 1240.5,-52.45 1247.14,-54.65"/>
</g>
<!-- NUL_14 -->
<g id="node30" class="node">
<title>NUL_14</title>
<polygon fill="none" stroke="black" points="1405.95,-44 1361.95,-44 1361.95,0 1405.95,0 1405.95,-44"/>
<text text-anchor="middle" x="1383.95" y="-18.3" font-family="Times,serif" font-size="14.00">null</text>
</g>
<!-- No_997285865&#45;&gt;NUL_14 -->
<g id="edge29" class="edge">
<title>No_997285865&#45;&gt;NUL_14</title>
<path fill="none" stroke="black" d="M1402.97,-80.34C1400.05,-71.55 1396.96,-62.23 1394.14,-53.72"/>
<polygon fill="black" stroke="black" points="1397.45,-52.57 1390.98,-44.18 1390.8,-54.77 1397.45,-52.57"/>
</g>
<!-- NUL_15 -->
<g id="node31" class="node">
<title>NUL_15</title>
<polygon fill="none" stroke="black" points="1467.95,-44 1423.95,-44 1423.95,0 1467.95,0 1467.95,-44"/>
<text text-anchor="middle" x="1445.95" y="-18.3" font-family="Times,serif" font-size="14.00">null</text>
</g>
<!-- No_997285865&#45;&gt;NUL_15 -->
<g id="edge30" class="edge">
<title>No_997285865&#45;&gt;NUL_15</title>
<path fill="none" stroke="black" d="M1426.94,-80.34C1429.85,-71.55 1432.94,-62.23 1435.77,-53.72"/>
<polygon fill="black" stroke="black" points="1439.1,-54.77 1438.93,-44.18 1432.46,-52.57 1439.1,-54.77"/>
</g>
</g>
</svg>
