<?xml version="1.0" encoding="UTF-8" standalone="no"?>
<!DOCTYPE svg PUBLIC "-//W3C//DTD SVG 1.1//EN"
 "http://www.w3.org/Graphics/SVG/1.1/DTD/svg11.dtd">
<!-- Generated by graphviz version 2.43.0 (0)
 -->
<!-- Title: BST Pages: 1 -->
<svg width="1093pt" height="496pt"
 viewBox="0.00 0.00 1092.95 495.81" xmlns="http://www.w3.org/2000/svg" xmlns:xlink="http://www.w3.org/1999/xlink">
<g id="graph0" class="graph" transform="scale(1 1) rotate(0) translate(4 491.81)">
<title>BST</title>
<polygon fill="white" stroke="transparent" points="-4,4 -4,-491.81 1088.95,-491.81 1088.95,4 -4,4"/>
<!-- No_982632579 -->
<g id="node1" class="node">
<title>No_982632579</title>
<ellipse fill="none" stroke="black" cx="533.95" cy="-450.34" rx="69.09" ry="37.45"/>
<text text-anchor="middle" x="533.95" y="-461.64" font-family="Times,serif" font-size="14.00">Abel Costa</text>
<text text-anchor="middle" x="533.95" y="-446.64" font-family="Times,serif" font-size="14.00">982632579</text>
<text text-anchor="middle" x="533.95" y="-431.64" font-family="Times,serif" font-size="14.00">fb=0</text>
</g>
<!-- No_964642705 -->
<g id="node2" class="node">
<title>No_964642705</title>
<ellipse fill="none" stroke="black" cx="352.95" cy="-339.38" rx="78.48" ry="37.45"/>
<text text-anchor="middle" x="352.95" y="-350.68" font-family="Times,serif" font-size="14.00">Alícia Freitas</text>
<text text-anchor="middle" x="352.95" y="-335.68" font-family="Times,serif" font-size="14.00">964642705</text>
<text text-anchor="middle" x="352.95" y="-320.68" font-family="Times,serif" font-size="14.00">fb=&#45;1</text>
</g>
<!-- No_982632579&#45;&gt;No_964642705 -->
<g id="edge1" class="edge">
<title>No_982632579&#45;&gt;No_964642705</title>
<path fill="none" stroke="black" d="M488.28,-421.84C464.39,-407.46 434.93,-389.73 409.6,-374.48"/>
<polygon fill="black" stroke="black" points="411.2,-371.36 400.83,-369.2 407.59,-377.36 411.2,-371.36"/>
</g>
<!-- No_992883178 -->
<g id="node11" class="node">
<title>No_992883178</title>
<ellipse fill="none" stroke="black" cx="638.95" cy="-339.38" rx="107.46" ry="37.45"/>
<text text-anchor="middle" x="638.95" y="-350.68" font-family="Times,serif" font-size="14.00">Alexandre Barbosa</text>
<text text-anchor="middle" x="638.95" y="-335.68" font-family="Times,serif" font-size="14.00">992883178</text>
<text text-anchor="middle" x="638.95" y="-320.68" font-family="Times,serif" font-size="14.00">fb=0</text>
</g>
<!-- No_982632579&#45;&gt;No_992883178 -->
<g id="edge10" class="edge">
<title>No_982632579&#45;&gt;No_992883178</title>
<path fill="none" stroke="black" d="M565.46,-416.65C575.76,-405.95 587.36,-393.92 598.25,-382.62"/>
<polygon fill="black" stroke="black" points="600.86,-384.95 605.28,-375.33 595.82,-380.1 600.86,-384.95"/>
</g>
<!-- No_960933788 -->
<g id="node3" class="node">
<title>No_960933788</title>
<ellipse fill="none" stroke="black" cx="150.95" cy="-228.43" rx="92.76" ry="37.45"/>
<text text-anchor="middle" x="150.95" y="-239.73" font-family="Times,serif" font-size="14.00">Alberto Campos</text>
<text text-anchor="middle" x="150.95" y="-224.73" font-family="Times,serif" font-size="14.00">960933788</text>
<text text-anchor="middle" x="150.95" y="-209.73" font-family="Times,serif" font-size="14.00">fb=&#45;1</text>
</g>
<!-- No_964642705&#45;&gt;No_960933788 -->
<g id="edge2" class="edge">
<title>No_964642705&#45;&gt;No_960933788</title>
<path fill="none" stroke="black" d="M301.72,-310.75C275.25,-296.47 242.69,-278.91 214.62,-263.77"/>
<polygon fill="black" stroke="black" points="216.14,-260.61 205.67,-258.94 212.81,-266.77 216.14,-260.61"/>
</g>
<!-- No_967387182 -->
<g id="node8" class="node">
<title>No_967387182</title>
<ellipse fill="none" stroke="black" cx="352.95" cy="-228.43" rx="91.43" ry="37.45"/>
<text text-anchor="middle" x="352.95" y="-239.73" font-family="Times,serif" font-size="14.00">Alfredo Martins</text>
<text text-anchor="middle" x="352.95" y="-224.73" font-family="Times,serif" font-size="14.00">967387182</text>
<text text-anchor="middle" x="352.95" y="-209.73" font-family="Times,serif" font-size="14.00">fb=0</text>
</g>
<!-- No_964642705&#45;&gt;No_967387182 -->
<g id="edge7" class="edge">
<title>No_964642705&#45;&gt;No_967387182</title>
<path fill="none" stroke="black" d="M352.95,-301.8C352.95,-293.63 352.95,-284.85 352.95,-276.32"/>
<polygon fill="black" stroke="black" points="356.45,-276.1 352.95,-266.1 349.45,-276.1 356.45,-276.1"/>
</g>
<!-- No_955838599 -->
<g id="node4" class="node">
<title>No_955838599</title>
<ellipse fill="none" stroke="black" cx="74.95" cy="-117.48" rx="74.91" ry="37.45"/>
<text text-anchor="middle" x="74.95" y="-128.78" font-family="Times,serif" font-size="14.00">Aline Santos</text>
<text text-anchor="middle" x="74.95" y="-113.78" font-family="Times,serif" font-size="14.00">955838599</text>
<text text-anchor="middle" x="74.95" y="-98.78" font-family="Times,serif" font-size="14.00">fb=0</text>
</g>
<!-- No_960933788&#45;&gt;No_955838599 -->
<g id="edge3" class="edge">
<title>No_960933788&#45;&gt;No_955838599</title>
<path fill="none" stroke="black" d="M126.28,-192.06C119.51,-182.35 112.09,-171.71 105.05,-161.62"/>
<polygon fill="black" stroke="black" points="107.84,-159.5 99.25,-153.3 102.1,-163.51 107.84,-159.5"/>
</g>
<!-- NUL_2 -->
<g id="node7" class="node">
<title>NUL_2</title>
<polygon fill="none" stroke="black" points="211.95,-139.48 167.95,-139.48 167.95,-95.48 211.95,-95.48 211.95,-139.48"/>
<text text-anchor="middle" x="189.95" y="-113.78" font-family="Times,serif" font-size="14.00">null</text>
</g>
<!-- No_960933788&#45;&gt;NUL_2 -->
<g id="edge6" class="edge">
<title>No_960933788&#45;&gt;NUL_2</title>
<path fill="none" stroke="black" d="M163.94,-191.15C168.81,-177.54 174.3,-162.21 178.97,-149.15"/>
<polygon fill="black" stroke="black" points="182.29,-150.27 182.37,-139.67 175.7,-147.91 182.29,-150.27"/>
</g>
<!-- NUL_0 -->
<g id="node5" class="node">
<title>NUL_0</title>
<polygon fill="none" stroke="black" points="65.95,-44 21.95,-44 21.95,0 65.95,0 65.95,-44"/>
<text text-anchor="middle" x="43.95" y="-18.3" font-family="Times,serif" font-size="14.00">null</text>
</g>
<!-- No_955838599&#45;&gt;NUL_0 -->
<g id="edge4" class="edge">
<title>No_955838599&#45;&gt;NUL_0</title>
<path fill="none" stroke="black" d="M62.97,-80.34C60.05,-71.55 56.96,-62.23 54.14,-53.72"/>
<polygon fill="black" stroke="black" points="57.45,-52.57 50.98,-44.18 50.8,-54.77 57.45,-52.57"/>
</g>
<!-- NUL_1 -->
<g id="node6" class="node">
<title>NUL_1</title>
<polygon fill="none" stroke="black" points="127.95,-44 83.95,-44 83.95,0 127.95,0 127.95,-44"/>
<text text-anchor="middle" x="105.95" y="-18.3" font-family="Times,serif" font-size="14.00">null</text>
</g>
<!-- No_955838599&#45;&gt;NUL_1 -->
<g id="edge5" class="edge">
<title>No_955838599&#45;&gt;NUL_1</title>
<path fill="none" stroke="black" d="M86.94,-80.34C89.85,-71.55 92.94,-62.23 95.77,-53.72"/>
<polygon fill="black" stroke="black" points="99.1,-54.77 98.93,-44.18 92.46,-52.57 99.1,-54.77"/>
</g>
<!-- NUL_3 -->
<g id="node9" class="node">
<title>NUL_3</title>
<polygon fill="none" stroke="black" points="312.95,-139.48 268.95,-139.48 268.95,-95.48 312.95,-95.48 312.95,-139.48"/>
<text text-anchor="middle" x="290.95" y="-113.78" font-family="Times,serif" font-size="14.00">null</text>
</g>
<!-- No_967387182&#45;&gt;NUL_3 -->
<g id="edge8" class="edge">
<title>No_967387182&#45;&gt;NUL_3</title>
<path fill="none" stroke="black" d="M332.65,-191.75C324.68,-177.74 315.62,-161.83 307.99,-148.42"/>
<polygon fill="black" stroke="black" points="310.96,-146.55 302.97,-139.59 304.87,-150.02 310.96,-146.55"/>
</g>
<!-- NUL_4 -->
<g id="node10" class="node">
<title>NUL_4</title>
<polygon fill="none" stroke="black" points="374.95,-139.48 330.95,-139.48 330.95,-95.48 374.95,-95.48 374.95,-139.48"/>
<text text-anchor="middle" x="352.95" y="-113.78" font-family="Times,serif" font-size="14.00">null</text>
</g>
<!-- No_967387182&#45;&gt;NUL_4 -->
<g id="edge9" class="edge">
<title>No_967387182&#45;&gt;NUL_4</title>
<path fill="none" stroke="black" d="M352.95,-190.85C352.95,-177.52 352.95,-162.58 352.95,-149.75"/>
<polygon fill="black" stroke="black" points="356.45,-149.55 352.95,-139.55 349.45,-149.55 356.45,-149.55"/>
</g>
<!-- No_987340734 -->
<g id="node12" class="node">
<title>No_987340734</title>
<ellipse fill="none" stroke="black" cx="638.95" cy="-228.43" rx="98.99" ry="37.45"/>
<text text-anchor="middle" x="638.95" y="-239.73" font-family="Times,serif" font-size="14.00">Antônia Machado</text>
<text text-anchor="middle" x="638.95" y="-224.73" font-family="Times,serif" font-size="14.00">987340734</text>
<text text-anchor="middle" x="638.95" y="-209.73" font-family="Times,serif" font-size="14.00">fb=0</text>
</g>
<!-- No_992883178&#45;&gt;No_987340734 -->
<g id="edge11" class="edge">
<title>No_992883178&#45;&gt;No_987340734</title>
<path fill="none" stroke="black" d="M638.95,-301.8C638.95,-293.63 638.95,-284.85 638.95,-276.32"/>
<polygon fill="black" stroke="black" points="642.45,-276.1 638.95,-266.1 635.45,-276.1 642.45,-276.1"/>
</g>
<!-- No_996598918 -->
<g id="node19" class="node">
<title>No_996598918</title>
<ellipse fill="none" stroke="black" cx="923.95" cy="-228.43" rx="69.09" ry="37.45"/>
<text text-anchor="middle" x="923.95" y="-239.73" font-family="Times,serif" font-size="14.00">Ana Farias</text>
<text text-anchor="middle" x="923.95" y="-224.73" font-family="Times,serif" font-size="14.00">996598918</text>
<text text-anchor="middle" x="923.95" y="-209.73" font-family="Times,serif" font-size="14.00">fb=&#45;1</text>
</g>
<!-- No_992883178&#45;&gt;No_996598918 -->
<g id="edge18" class="edge">
<title>No_992883178&#45;&gt;No_996598918</title>
<path fill="none" stroke="black" d="M710.14,-311.17C755.6,-293.79 814.12,-271.42 858.44,-254.48"/>
<polygon fill="black" stroke="black" points="859.86,-257.68 867.95,-250.84 857.36,-251.14 859.86,-257.68"/>
</g>
<!-- No_986979432 -->
<g id="node13" class="node">
<title>No_986979432</title>
<ellipse fill="none" stroke="black" cx="499.95" cy="-117.48" rx="107.46" ry="37.45"/>
<text text-anchor="middle" x="499.95" y="-128.78" font-family="Times,serif" font-size="14.00">Américo Rodrigues</text>
<text text-anchor="middle" x="499.95" y="-113.78" font-family="Times,serif" font-size="14.00">986979432</text>
<text text-anchor="middle" x="499.95" y="-98.78" font-family="Times,serif" font-size="14.00">fb=0</text>
</g>
<!-- No_987340734&#45;&gt;No_986979432 -->
<g id="edge12" class="edge">
<title>No_987340734&#45;&gt;No_986979432</title>
<path fill="none" stroke="black" d="M596.87,-194.44C582.44,-183.14 566.14,-170.35 551.07,-158.55"/>
<polygon fill="black" stroke="black" points="552.88,-155.52 542.85,-152.1 548.56,-161.03 552.88,-155.52"/>
</g>
<!-- No_987671978 -->
<g id="node16" class="node">
<title>No_987671978</title>
<ellipse fill="none" stroke="black" cx="715.95" cy="-117.48" rx="90.52" ry="37.45"/>
<text text-anchor="middle" x="715.95" y="-128.78" font-family="Times,serif" font-size="14.00">Adriana Pereira</text>
<text text-anchor="middle" x="715.95" y="-113.78" font-family="Times,serif" font-size="14.00">987671978</text>
<text text-anchor="middle" x="715.95" y="-98.78" font-family="Times,serif" font-size="14.00">fb=0</text>
</g>
<!-- No_987340734&#45;&gt;No_987671978 -->
<g id="edge15" class="edge">
<title>No_987340734&#45;&gt;No_987671978</title>
<path fill="none" stroke="black" d="M663.95,-192.06C670.75,-182.44 678.18,-171.92 685.25,-161.92"/>
<polygon fill="black" stroke="black" points="688.17,-163.86 691.08,-153.67 682.45,-159.82 688.17,-163.86"/>
</g>
<!-- NUL_5 -->
<g id="node14" class="node">
<title>NUL_5</title>
<polygon fill="none" stroke="black" points="490.95,-44 446.95,-44 446.95,0 490.95,0 490.95,-44"/>
<text text-anchor="middle" x="468.95" y="-18.3" font-family="Times,serif" font-size="14.00">null</text>
</g>
<!-- No_986979432&#45;&gt;NUL_5 -->
<g id="edge13" class="edge">
<title>No_986979432&#45;&gt;NUL_5</title>
<path fill="none" stroke="black" d="M487.88,-80.07C484.97,-71.3 481.89,-62.02 479.08,-53.55"/>
<polygon fill="black" stroke="black" points="482.41,-52.45 475.94,-44.06 475.76,-54.65 482.41,-52.45"/>
</g>
<!-- NUL_6 -->
<g id="node15" class="node">
<title>NUL_6</title>
<polygon fill="none" stroke="black" points="552.95,-44 508.95,-44 508.95,0 552.95,0 552.95,-44"/>
<text text-anchor="middle" x="530.95" y="-18.3" font-family="Times,serif" font-size="14.00">null</text>
</g>
<!-- No_986979432&#45;&gt;NUL_6 -->
<g id="edge14" class="edge">
<title>No_986979432&#45;&gt;NUL_6</title>
<path fill="none" stroke="black" d="M512.03,-80.07C514.94,-71.3 518.01,-62.02 520.82,-53.55"/>
<polygon fill="black" stroke="black" points="524.14,-54.65 523.97,-44.06 517.5,-52.45 524.14,-54.65"/>
</g>
<!-- NUL_7 -->
<g id="node17" class="node">
<title>NUL_7</title>
<polygon fill="none" stroke="black" points="706.95,-44 662.95,-44 662.95,0 706.95,0 706.95,-44"/>
<text text-anchor="middle" x="684.95" y="-18.3" font-family="Times,serif" font-size="14.00">null</text>
</g>
<!-- No_987671978&#45;&gt;NUL_7 -->
<g id="edge16" class="edge">
<title>No_987671978&#45;&gt;NUL_7</title>
<path fill="none" stroke="black" d="M703.88,-80.07C700.97,-71.3 697.89,-62.02 695.08,-53.55"/>
<polygon fill="black" stroke="black" points="698.41,-52.45 691.94,-44.06 691.76,-54.65 698.41,-52.45"/>
</g>
<!-- NUL_8 -->
<g id="node18" class="node">
<title>NUL_8</title>
<polygon fill="none" stroke="black" points="768.95,-44 724.95,-44 724.95,0 768.95,0 768.95,-44"/>
<text text-anchor="middle" x="746.95" y="-18.3" font-family="Times,serif" font-size="14.00">null</text>
</g>
<!-- No_987671978&#45;&gt;NUL_8 -->
<g id="edge17" class="edge">
<title>No_987671978&#45;&gt;NUL_8</title>
<path fill="none" stroke="black" d="M728.03,-80.07C730.94,-71.3 734.01,-62.02 736.82,-53.55"/>
<polygon fill="black" stroke="black" points="740.14,-54.65 739.97,-44.06 733.5,-52.45 740.14,-54.65"/>
</g>
<!-- No_994116870 -->
<g id="node20" class="node">
<title>No_994116870</title>
<ellipse fill="none" stroke="black" cx="923.95" cy="-117.48" rx="98.99" ry="37.45"/>
<text text-anchor="middle" x="923.95" y="-128.78" font-family="Times,serif" font-size="14.00">Alexandra Moura</text>
<text text-anchor="middle" x="923.95" y="-113.78" font-family="Times,serif" font-size="14.00">994116870</text>
<text text-anchor="middle" x="923.95" y="-98.78" font-family="Times,serif" font-size="14.00">fb=0</text>
</g>
<!-- No_996598918&#45;&gt;No_994116870 -->
<g id="edge19" class="edge">
<title>No_996598918&#45;&gt;No_994116870</title>
<path fill="none" stroke="black" d="M923.95,-190.85C923.95,-182.67 923.95,-173.89 923.95,-165.37"/>
<polygon fill="black" stroke="black" points="927.45,-165.15 923.95,-155.15 920.45,-165.15 927.45,-165.15"/>
</g>
<!-- NUL_11 -->
<g id="node23" class="node">
<title>NUL_11</title>
<polygon fill="none" stroke="black" points="1084.95,-139.48 1040.95,-139.48 1040.95,-95.48 1084.95,-95.48 1084.95,-139.48"/>
<text text-anchor="middle" x="1062.95" y="-113.78" font-family="Times,serif" font-size="14.00">null</text>
</g>
<!-- No_996598918&#45;&gt;NUL_11 -->
<g id="edge22" class="edge">
<title>No_996598918&#45;&gt;NUL_11</title>
<path fill="none" stroke="black" d="M970.12,-200.42C990.06,-187.77 1013.09,-171.79 1031.95,-154.95 1034.5,-152.68 1037.02,-150.21 1039.46,-147.64"/>
<polygon fill="black" stroke="black" points="1042.41,-149.61 1046.5,-139.83 1037.21,-144.92 1042.41,-149.61"/>
</g>
<!-- NUL_9 -->
<g id="node21" class="node">
<title>NUL_9</title>
<polygon fill="none" stroke="black" points="914.95,-44 870.95,-44 870.95,0 914.95,0 914.95,-44"/>
<text text-anchor="middle" x="892.95" y="-18.3" font-family="Times,serif" font-size="14.00">null</text>
</g>
<!-- No_994116870&#45;&gt;NUL_9 -->
<g id="edge20" class="edge">
<title>No_994116870&#45;&gt;NUL_9</title>
<path fill="none" stroke="black" d="M911.88,-80.07C908.97,-71.3 905.89,-62.02 903.08,-53.55"/>
<polygon fill="black" stroke="black" points="906.41,-52.45 899.94,-44.06 899.76,-54.65 906.41,-52.45"/>
</g>
<!-- NUL_10 -->
<g id="node22" class="node">
<title>NUL_10</title>
<polygon fill="none" stroke="black" points="976.95,-44 932.95,-44 932.95,0 976.95,0 976.95,-44"/>
<text text-anchor="middle" x="954.95" y="-18.3" font-family="Times,serif" font-size="14.00">null</text>
</g>
<!-- No_994116870&#45;&gt;NUL_10 -->
<g id="edge21" class="edge">
<title>No_994116870&#45;&gt;NUL_10</title>
<path fill="none" stroke="black" d="M936.03,-80.07C938.94,-71.3 942.01,-62.02 944.82,-53.55"/>
<polygon fill="black" stroke="black" points="948.14,-54.65 947.97,-44.06 941.5,-52.45 948.14,-54.65"/>
</g>
</g>
</svg>
