<?xml version="1.0" encoding="UTF-8" standalone="no"?>
<!DOCTYPE svg PUBLIC "-//W3C//DTD SVG 1.1//EN"
 "http://www.w3.org/Graphics/SVG/1.1/DTD/svg11.dtd">
<!-- Generated by graphviz version 2.43.0 (0)
 -->
<!-- Title: BST Pages: 1 -->
<svg width="783pt" height="302pt"
 viewBox="0.00 0.00 782.97 302.39" xmlns="http://www.w3.org/2000/svg" xmlns:xlink="http://www.w3.org/1999/xlink">
<g id="graph0" class="graph" transform="scale(1 1) rotate(0) translate(4 298.39)">
<title>BST</title>
<polygon fill="white" stroke="transparent" points="-4,4 -4,-298.39 778.97,-298.39 778.97,4 -4,4"/>
<!-- Alexandre Costa,982632579 [fb:1] -->
<g id="node1" class="node">
<title>Alexandre Costa,982632579 [fb:1]</title>
<ellipse fill="none" stroke="black" cx="352.34" cy="-276.39" rx="170.07" ry="18"/>
<text text-anchor="middle" x="352.34" y="-272.69" font-family="Times,serif" font-size="14.00">Alexandre Costa,982632579 [fb:1]</text>
</g>
<!-- Alberto Campos,960933788 [fb:0] -->
<g id="node2" class="node">
<title>Alberto Campos,960933788 [fb:0]</title>
<ellipse fill="none" stroke="black" cx="168.34" cy="-204.39" rx="168.17" ry="18"/>
<text text-anchor="middle" x="168.34" y="-200.69" font-family="Times,serif" font-size="14.00">Alberto Campos,960933788 [fb:0]</text>
</g>
<!-- Alexandre Costa,982632579 [fb:1]&#45;&gt;Alberto Campos,960933788 [fb:0] -->
<g id="edge1" class="edge">
<title>Alexandre Costa,982632579 [fb:1]&#45;&gt;Alberto Campos,960933788 [fb:0]</title>
<path fill="none" stroke="black" d="M308.73,-258.8C282.49,-248.82 248.91,-236.04 221.17,-225.49"/>
<polygon fill="black" stroke="black" points="222.22,-222.14 211.63,-221.86 219.73,-228.69 222.22,-222.14"/>
</g>
<!-- Alexandre Barbosa,992883178 [fb:1] -->
<g id="node5" class="node">
<title>Alexandre Barbosa,992883178 [fb:1]</title>
<ellipse fill="none" stroke="black" cx="536.34" cy="-204.39" rx="181.97" ry="18"/>
<text text-anchor="middle" x="536.34" y="-200.69" font-family="Times,serif" font-size="14.00">Alexandre Barbosa,992883178 [fb:1]</text>
</g>
<!-- Alexandre Costa,982632579 [fb:1]&#45;&gt;Alexandre Barbosa,992883178 [fb:1] -->
<g id="edge4" class="edge">
<title>Alexandre Costa,982632579 [fb:1]&#45;&gt;Alexandre Barbosa,992883178 [fb:1]</title>
<path fill="none" stroke="black" d="M395.94,-258.8C422.08,-248.86 455.51,-236.14 483.19,-225.61"/>
<polygon fill="black" stroke="black" points="484.62,-228.81 492.72,-221.98 482.13,-222.27 484.62,-228.81"/>
</g>
<!-- N0 -->
<g id="node3" class="node">
<title>N0</title>
<ellipse fill="none" stroke="black" cx="131.34" cy="-121.79" rx="28.7" ry="28.7"/>
<text text-anchor="middle" x="131.34" y="-118.09" font-family="Times,serif" font-size="14.00">null</text>
</g>
<!-- Alberto Campos,960933788 [fb:0]&#45;&gt;N0 -->
<g id="edge2" class="edge">
<title>Alberto Campos,960933788 [fb:0]&#45;&gt;N0</title>
<path fill="none" stroke="black" d="M160.49,-186.3C156.63,-177.89 151.83,-167.45 147.25,-157.47"/>
<polygon fill="black" stroke="black" points="150.32,-155.76 142.97,-148.13 143.96,-158.68 150.32,-155.76"/>
</g>
<!-- N1 -->
<g id="node4" class="node">
<title>N1</title>
<ellipse fill="none" stroke="black" cx="206.34" cy="-121.79" rx="28.7" ry="28.7"/>
<text text-anchor="middle" x="206.34" y="-118.09" font-family="Times,serif" font-size="14.00">null</text>
</g>
<!-- Alberto Campos,960933788 [fb:0]&#45;&gt;N1 -->
<g id="edge3" class="edge">
<title>Alberto Campos,960933788 [fb:0]&#45;&gt;N1</title>
<path fill="none" stroke="black" d="M176.39,-186.3C180.36,-177.89 185.28,-167.45 189.99,-157.47"/>
<polygon fill="black" stroke="black" points="193.29,-158.67 194.39,-148.13 186.96,-155.68 193.29,-158.67"/>
</g>
<!-- N2 -->
<g id="node6" class="node">
<title>N2</title>
<ellipse fill="none" stroke="black" cx="441.34" cy="-121.79" rx="28.7" ry="28.7"/>
<text text-anchor="middle" x="441.34" y="-118.09" font-family="Times,serif" font-size="14.00">null</text>
</g>
<!-- Alexandre Barbosa,992883178 [fb:1]&#45;&gt;N2 -->
<g id="edge5" class="edge">
<title>Alexandre Barbosa,992883178 [fb:1]&#45;&gt;N2</title>
<path fill="none" stroke="black" d="M516.19,-186.3C502.95,-175.07 485.42,-160.19 470.65,-147.66"/>
<polygon fill="black" stroke="black" points="472.66,-144.78 462.77,-140.98 468.13,-150.12 472.66,-144.78"/>
</g>
<!-- Ana Farias,996598918 [fb:0] -->
<g id="node7" class="node">
<title>Ana Farias,996598918 [fb:0]</title>
<ellipse fill="none" stroke="black" cx="631.34" cy="-121.79" rx="143.77" ry="18"/>
<text text-anchor="middle" x="631.34" y="-118.09" font-family="Times,serif" font-size="14.00">Ana Farias,996598918 [fb:0]</text>
</g>
<!-- Alexandre Barbosa,992883178 [fb:1]&#45;&gt;Ana Farias,996598918 [fb:0] -->
<g id="edge6" class="edge">
<title>Alexandre Barbosa,992883178 [fb:1]&#45;&gt;Ana Farias,996598918 [fb:0]</title>
<path fill="none" stroke="black" d="M556.48,-186.3C570.08,-174.76 588.23,-159.36 603.24,-146.62"/>
<polygon fill="black" stroke="black" points="605.86,-149 611.22,-139.86 601.33,-143.66 605.86,-149"/>
</g>
<!-- N3 -->
<g id="node8" class="node">
<title>N3</title>
<ellipse fill="none" stroke="black" cx="593.34" cy="-28.6" rx="28.7" ry="28.7"/>
<text text-anchor="middle" x="593.34" y="-24.9" font-family="Times,serif" font-size="14.00">null</text>
</g>
<!-- Ana Farias,996598918 [fb:0]&#45;&gt;N3 -->
<g id="edge7" class="edge">
<title>Ana Farias,996598918 [fb:0]&#45;&gt;N3</title>
<path fill="none" stroke="black" d="M624.19,-103.64C619.62,-92.68 613.53,-78.07 607.97,-64.72"/>
<polygon fill="black" stroke="black" points="611.12,-63.18 604.04,-55.3 604.66,-65.87 611.12,-63.18"/>
</g>
<!-- N4 -->
<g id="node9" class="node">
<title>N4</title>
<ellipse fill="none" stroke="black" cx="668.34" cy="-28.6" rx="28.7" ry="28.7"/>
<text text-anchor="middle" x="668.34" y="-24.9" font-family="Times,serif" font-size="14.00">null</text>
</g>
<!-- Ana Farias,996598918 [fb:0]&#45;&gt;N4 -->
<g id="edge8" class="edge">
<title>Ana Farias,996598918 [fb:0]&#45;&gt;N4</title>
<path fill="none" stroke="black" d="M638.29,-103.64C642.74,-92.68 648.67,-78.07 654.08,-64.72"/>
<polygon fill="black" stroke="black" points="657.39,-65.88 657.91,-55.3 650.91,-63.25 657.39,-65.88"/>
</g>
</g>
</svg>
