<?xml version="1.0" encoding="UTF-8" standalone="no"?>
<!DOCTYPE svg PUBLIC "-//W3C//DTD SVG 1.1//EN"
 "http://www.w3.org/Graphics/SVG/1.1/DTD/svg11.dtd">
<!-- Generated by graphviz version 2.43.0 (0)
 -->
<!-- Title: BST Pages: 1 -->
<svg width="726pt" height="209pt"
 viewBox="0.00 0.00 726.32 209.19" xmlns="http://www.w3.org/2000/svg" xmlns:xlink="http://www.w3.org/1999/xlink">
<g id="graph0" class="graph" transform="scale(1 1) rotate(0) translate(4 205.19)">
<title>BST</title>
<polygon fill="white" stroke="transparent" points="-4,4 -4,-205.19 722.32,-205.19 722.32,4 -4,4"/>
<!-- Alexandre Costa,982632579 [fb:0] -->
<g id="node1" class="node">
<title>Alexandre Costa,982632579 [fb:0]</title>
<ellipse fill="none" stroke="black" cx="352.34" cy="-183.19" rx="170.07" ry="18"/>
<text text-anchor="middle" x="352.34" y="-179.49" font-family="Times,serif" font-size="14.00">Alexandre Costa,982632579 [fb:0]</text>
</g>
<!-- Alberto Campos,960933788 [fb:0] -->
<g id="node2" class="node">
<title>Alberto Campos,960933788 [fb:0]</title>
<ellipse fill="none" stroke="black" cx="168.34" cy="-111.19" rx="168.17" ry="18"/>
<text text-anchor="middle" x="168.34" y="-107.49" font-family="Times,serif" font-size="14.00">Alberto Campos,960933788 [fb:0]</text>
</g>
<!-- Alexandre Costa,982632579 [fb:0]&#45;&gt;Alberto Campos,960933788 [fb:0] -->
<g id="edge1" class="edge">
<title>Alexandre Costa,982632579 [fb:0]&#45;&gt;Alberto Campos,960933788 [fb:0]</title>
<path fill="none" stroke="black" d="M308.73,-165.61C282.49,-155.62 248.91,-142.85 221.17,-132.3"/>
<polygon fill="black" stroke="black" points="222.22,-128.95 211.63,-128.66 219.73,-135.49 222.22,-128.95"/>
</g>
<!-- Alexandre Barbosa,992883178 [fb:0] -->
<g id="node5" class="node">
<title>Alexandre Barbosa,992883178 [fb:0]</title>
<ellipse fill="none" stroke="black" cx="536.34" cy="-111.19" rx="181.97" ry="18"/>
<text text-anchor="middle" x="536.34" y="-107.49" font-family="Times,serif" font-size="14.00">Alexandre Barbosa,992883178 [fb:0]</text>
</g>
<!-- Alexandre Costa,982632579 [fb:0]&#45;&gt;Alexandre Barbosa,992883178 [fb:0] -->
<g id="edge4" class="edge">
<title>Alexandre Costa,982632579 [fb:0]&#45;&gt;Alexandre Barbosa,992883178 [fb:0]</title>
<path fill="none" stroke="black" d="M395.94,-165.61C422.08,-155.66 455.51,-142.94 483.19,-132.41"/>
<polygon fill="black" stroke="black" points="484.62,-135.61 492.72,-128.79 482.13,-129.07 484.62,-135.61"/>
</g>
<!-- N0 -->
<g id="node3" class="node">
<title>N0</title>
<ellipse fill="none" stroke="black" cx="131.34" cy="-28.6" rx="28.7" ry="28.7"/>
<text text-anchor="middle" x="131.34" y="-24.9" font-family="Times,serif" font-size="14.00">null</text>
</g>
<!-- Alberto Campos,960933788 [fb:0]&#45;&gt;N0 -->
<g id="edge2" class="edge">
<title>Alberto Campos,960933788 [fb:0]&#45;&gt;N0</title>
<path fill="none" stroke="black" d="M160.49,-93.1C156.63,-84.7 151.83,-74.25 147.25,-64.27"/>
<polygon fill="black" stroke="black" points="150.32,-62.56 142.97,-54.93 143.96,-65.48 150.32,-62.56"/>
</g>
<!-- N1 -->
<g id="node4" class="node">
<title>N1</title>
<ellipse fill="none" stroke="black" cx="206.34" cy="-28.6" rx="28.7" ry="28.7"/>
<text text-anchor="middle" x="206.34" y="-24.9" font-family="Times,serif" font-size="14.00">null</text>
</g>
<!-- Alberto Campos,960933788 [fb:0]&#45;&gt;N1 -->
<g id="edge3" class="edge">
<title>Alberto Campos,960933788 [fb:0]&#45;&gt;N1</title>
<path fill="none" stroke="black" d="M176.39,-93.1C180.36,-84.7 185.28,-74.25 189.99,-64.27"/>
<polygon fill="black" stroke="black" points="193.29,-65.47 194.39,-54.93 186.96,-62.49 193.29,-65.47"/>
</g>
<!-- N2 -->
<g id="node6" class="node">
<title>N2</title>
<ellipse fill="none" stroke="black" cx="498.34" cy="-28.6" rx="28.7" ry="28.7"/>
<text text-anchor="middle" x="498.34" y="-24.9" font-family="Times,serif" font-size="14.00">null</text>
</g>
<!-- Alexandre Barbosa,992883178 [fb:0]&#45;&gt;N2 -->
<g id="edge5" class="edge">
<title>Alexandre Barbosa,992883178 [fb:0]&#45;&gt;N2</title>
<path fill="none" stroke="black" d="M528.28,-93.1C524.31,-84.7 519.39,-74.25 514.68,-64.27"/>
<polygon fill="black" stroke="black" points="517.71,-62.49 510.28,-54.93 511.38,-65.47 517.71,-62.49"/>
</g>
<!-- N3 -->
<g id="node7" class="node">
<title>N3</title>
<ellipse fill="none" stroke="black" cx="573.34" cy="-28.6" rx="28.7" ry="28.7"/>
<text text-anchor="middle" x="573.34" y="-24.9" font-family="Times,serif" font-size="14.00">null</text>
</g>
<!-- Alexandre Barbosa,992883178 [fb:0]&#45;&gt;N3 -->
<g id="edge6" class="edge">
<title>Alexandre Barbosa,992883178 [fb:0]&#45;&gt;N3</title>
<path fill="none" stroke="black" d="M544.18,-93.1C548.04,-84.7 552.84,-74.25 557.42,-64.27"/>
<polygon fill="black" stroke="black" points="560.71,-65.48 561.7,-54.93 554.35,-62.56 560.71,-65.48"/>
</g>
</g>
</svg>
