<?xml version="1.0" encoding="UTF-8" standalone="no"?>
<!DOCTYPE svg PUBLIC "-//W3C//DTD SVG 1.1//EN"
 "http://www.w3.org/Graphics/SVG/1.1/DTD/svg11.dtd">
<!-- Generated by graphviz version 2.43.0 (0)
 -->
<!-- Title: BST Pages: 1 -->
<svg width="1035pt" height="496pt"
 viewBox="0.00 0.00 1034.63 495.81" xmlns="http://www.w3.org/2000/svg" xmlns:xlink="http://www.w3.org/1999/xlink">
<g id="graph0" class="graph" transform="scale(1 1) rotate(0) translate(4 491.81)">
<title>BST</title>
<polygon fill="white" stroke="transparent" points="-4,4 -4,-491.81 1030.63,-491.81 1030.63,4 -4,4"/>
<!-- No_982632579 -->
<g id="node1" class="node">
<title>No_982632579</title>
<ellipse fill="none" stroke="black" cx="475.63" cy="-450.34" rx="69.09" ry="37.45"/>
<text text-anchor="middle" x="475.63" y="-461.64" font-family="Times,serif" font-size="14.00">Abel Costa</text>
<text text-anchor="middle" x="475.63" y="-446.64" font-family="Times,serif" font-size="14.00">982632579</text>
<text text-anchor="middle" x="475.63" y="-431.64" font-family="Times,serif" font-size="14.00">fb=1</text>
</g>
<!-- No_964642705 -->
<g id="node2" class="node">
<title>No_964642705</title>
<ellipse fill="none" stroke="black" cx="294.63" cy="-339.38" rx="78.48" ry="37.45"/>
<text text-anchor="middle" x="294.63" y="-350.68" font-family="Times,serif" font-size="14.00">Alícia Freitas</text>
<text text-anchor="middle" x="294.63" y="-335.68" font-family="Times,serif" font-size="14.00">964642705</text>
<text text-anchor="middle" x="294.63" y="-320.68" font-family="Times,serif" font-size="14.00">fb=0</text>
</g>
<!-- No_982632579&#45;&gt;No_964642705 -->
<g id="edge1" class="edge">
<title>No_982632579&#45;&gt;No_964642705</title>
<path fill="none" stroke="black" d="M429.96,-421.84C406.07,-407.46 376.61,-389.73 351.28,-374.48"/>
<polygon fill="black" stroke="black" points="352.88,-371.36 342.5,-369.2 349.27,-377.36 352.88,-371.36"/>
</g>
<!-- No_992883178 -->
<g id="node9" class="node">
<title>No_992883178</title>
<ellipse fill="none" stroke="black" cx="580.63" cy="-339.38" rx="107.46" ry="37.45"/>
<text text-anchor="middle" x="580.63" y="-350.68" font-family="Times,serif" font-size="14.00">Alexandre Barbosa</text>
<text text-anchor="middle" x="580.63" y="-335.68" font-family="Times,serif" font-size="14.00">992883178</text>
<text text-anchor="middle" x="580.63" y="-320.68" font-family="Times,serif" font-size="14.00">fb=0</text>
</g>
<!-- No_982632579&#45;&gt;No_992883178 -->
<g id="edge8" class="edge">
<title>No_982632579&#45;&gt;No_992883178</title>
<path fill="none" stroke="black" d="M507.13,-416.65C517.44,-405.95 529.04,-393.92 539.93,-382.62"/>
<polygon fill="black" stroke="black" points="542.54,-384.95 546.96,-375.33 537.5,-380.1 542.54,-384.95"/>
</g>
<!-- No_960933788 -->
<g id="node3" class="node">
<title>No_960933788</title>
<ellipse fill="none" stroke="black" cx="92.63" cy="-228.43" rx="92.76" ry="37.45"/>
<text text-anchor="middle" x="92.63" y="-239.73" font-family="Times,serif" font-size="14.00">Alberto Campos</text>
<text text-anchor="middle" x="92.63" y="-224.73" font-family="Times,serif" font-size="14.00">960933788</text>
<text text-anchor="middle" x="92.63" y="-209.73" font-family="Times,serif" font-size="14.00">fb=0</text>
</g>
<!-- No_964642705&#45;&gt;No_960933788 -->
<g id="edge2" class="edge">
<title>No_964642705&#45;&gt;No_960933788</title>
<path fill="none" stroke="black" d="M243.4,-310.75C216.92,-296.47 184.37,-278.91 156.3,-263.77"/>
<polygon fill="black" stroke="black" points="157.81,-260.61 147.35,-258.94 154.49,-266.77 157.81,-260.61"/>
</g>
<!-- No_967387182 -->
<g id="node6" class="node">
<title>No_967387182</title>
<ellipse fill="none" stroke="black" cx="294.63" cy="-228.43" rx="91.43" ry="37.45"/>
<text text-anchor="middle" x="294.63" y="-239.73" font-family="Times,serif" font-size="14.00">Alfredo Martins</text>
<text text-anchor="middle" x="294.63" y="-224.73" font-family="Times,serif" font-size="14.00">967387182</text>
<text text-anchor="middle" x="294.63" y="-209.73" font-family="Times,serif" font-size="14.00">fb=0</text>
</g>
<!-- No_964642705&#45;&gt;No_967387182 -->
<g id="edge5" class="edge">
<title>No_964642705&#45;&gt;No_967387182</title>
<path fill="none" stroke="black" d="M294.63,-301.8C294.63,-293.63 294.63,-284.85 294.63,-276.32"/>
<polygon fill="black" stroke="black" points="298.13,-276.1 294.63,-266.1 291.13,-276.1 298.13,-276.1"/>
</g>
<!-- NUL_0 -->
<g id="node4" class="node">
<title>NUL_0</title>
<polygon fill="none" stroke="black" points="83.63,-139.48 39.63,-139.48 39.63,-95.48 83.63,-95.48 83.63,-139.48"/>
<text text-anchor="middle" x="61.63" y="-113.78" font-family="Times,serif" font-size="14.00">null</text>
</g>
<!-- No_960933788&#45;&gt;NUL_0 -->
<g id="edge3" class="edge">
<title>No_960933788&#45;&gt;NUL_0</title>
<path fill="none" stroke="black" d="M82.31,-191.15C78.47,-177.67 74.16,-162.51 70.47,-149.53"/>
<polygon fill="black" stroke="black" points="73.77,-148.33 67.66,-139.67 67.03,-150.25 73.77,-148.33"/>
</g>
<!-- NUL_1 -->
<g id="node5" class="node">
<title>NUL_1</title>
<polygon fill="none" stroke="black" points="145.63,-139.48 101.63,-139.48 101.63,-95.48 145.63,-95.48 145.63,-139.48"/>
<text text-anchor="middle" x="123.63" y="-113.78" font-family="Times,serif" font-size="14.00">null</text>
</g>
<!-- No_960933788&#45;&gt;NUL_1 -->
<g id="edge4" class="edge">
<title>No_960933788&#45;&gt;NUL_1</title>
<path fill="none" stroke="black" d="M102.95,-191.15C106.79,-177.67 111.1,-162.51 114.79,-149.53"/>
<polygon fill="black" stroke="black" points="118.23,-150.25 117.6,-139.67 111.5,-148.33 118.23,-150.25"/>
</g>
<!-- NUL_2 -->
<g id="node7" class="node">
<title>NUL_2</title>
<polygon fill="none" stroke="black" points="254.63,-139.48 210.63,-139.48 210.63,-95.48 254.63,-95.48 254.63,-139.48"/>
<text text-anchor="middle" x="232.63" y="-113.78" font-family="Times,serif" font-size="14.00">null</text>
</g>
<!-- No_967387182&#45;&gt;NUL_2 -->
<g id="edge6" class="edge">
<title>No_967387182&#45;&gt;NUL_2</title>
<path fill="none" stroke="black" d="M274.33,-191.75C266.35,-177.74 257.3,-161.83 249.67,-148.42"/>
<polygon fill="black" stroke="black" points="252.64,-146.55 244.65,-139.59 246.55,-150.02 252.64,-146.55"/>
</g>
<!-- NUL_3 -->
<g id="node8" class="node">
<title>NUL_3</title>
<polygon fill="none" stroke="black" points="316.63,-139.48 272.63,-139.48 272.63,-95.48 316.63,-95.48 316.63,-139.48"/>
<text text-anchor="middle" x="294.63" y="-113.78" font-family="Times,serif" font-size="14.00">null</text>
</g>
<!-- No_967387182&#45;&gt;NUL_3 -->
<g id="edge7" class="edge">
<title>No_967387182&#45;&gt;NUL_3</title>
<path fill="none" stroke="black" d="M294.63,-190.85C294.63,-177.52 294.63,-162.58 294.63,-149.75"/>
<polygon fill="black" stroke="black" points="298.13,-149.55 294.63,-139.55 291.13,-149.55 298.13,-149.55"/>
</g>
<!-- No_987340734 -->
<g id="node10" class="node">
<title>No_987340734</title>
<ellipse fill="none" stroke="black" cx="580.63" cy="-228.43" rx="98.99" ry="37.45"/>
<text text-anchor="middle" x="580.63" y="-239.73" font-family="Times,serif" font-size="14.00">Antônia Machado</text>
<text text-anchor="middle" x="580.63" y="-224.73" font-family="Times,serif" font-size="14.00">987340734</text>
<text text-anchor="middle" x="580.63" y="-209.73" font-family="Times,serif" font-size="14.00">fb=0</text>
</g>
<!-- No_992883178&#45;&gt;No_987340734 -->
<g id="edge9" class="edge">
<title>No_992883178&#45;&gt;No_987340734</title>
<path fill="none" stroke="black" d="M580.63,-301.8C580.63,-293.63 580.63,-284.85 580.63,-276.32"/>
<polygon fill="black" stroke="black" points="584.13,-276.1 580.63,-266.1 577.13,-276.1 584.13,-276.1"/>
</g>
<!-- No_996598918 -->
<g id="node17" class="node">
<title>No_996598918</title>
<ellipse fill="none" stroke="black" cx="865.63" cy="-228.43" rx="69.09" ry="37.45"/>
<text text-anchor="middle" x="865.63" y="-239.73" font-family="Times,serif" font-size="14.00">Ana Farias</text>
<text text-anchor="middle" x="865.63" y="-224.73" font-family="Times,serif" font-size="14.00">996598918</text>
<text text-anchor="middle" x="865.63" y="-209.73" font-family="Times,serif" font-size="14.00">fb=&#45;1</text>
</g>
<!-- No_992883178&#45;&gt;No_996598918 -->
<g id="edge16" class="edge">
<title>No_992883178&#45;&gt;No_996598918</title>
<path fill="none" stroke="black" d="M651.81,-311.17C697.28,-293.79 755.8,-271.42 800.12,-254.48"/>
<polygon fill="black" stroke="black" points="801.54,-257.68 809.63,-250.84 799.04,-251.14 801.54,-257.68"/>
</g>
<!-- No_986979432 -->
<g id="node11" class="node">
<title>No_986979432</title>
<ellipse fill="none" stroke="black" cx="441.63" cy="-117.48" rx="107.46" ry="37.45"/>
<text text-anchor="middle" x="441.63" y="-128.78" font-family="Times,serif" font-size="14.00">Américo Rodrigues</text>
<text text-anchor="middle" x="441.63" y="-113.78" font-family="Times,serif" font-size="14.00">986979432</text>
<text text-anchor="middle" x="441.63" y="-98.78" font-family="Times,serif" font-size="14.00">fb=0</text>
</g>
<!-- No_987340734&#45;&gt;No_986979432 -->
<g id="edge10" class="edge">
<title>No_987340734&#45;&gt;No_986979432</title>
<path fill="none" stroke="black" d="M538.55,-194.44C524.12,-183.14 507.82,-170.35 492.75,-158.55"/>
<polygon fill="black" stroke="black" points="494.56,-155.52 484.53,-152.1 490.24,-161.03 494.56,-155.52"/>
</g>
<!-- No_987671978 -->
<g id="node14" class="node">
<title>No_987671978</title>
<ellipse fill="none" stroke="black" cx="657.63" cy="-117.48" rx="90.52" ry="37.45"/>
<text text-anchor="middle" x="657.63" y="-128.78" font-family="Times,serif" font-size="14.00">Adriana Pereira</text>
<text text-anchor="middle" x="657.63" y="-113.78" font-family="Times,serif" font-size="14.00">987671978</text>
<text text-anchor="middle" x="657.63" y="-98.78" font-family="Times,serif" font-size="14.00">fb=0</text>
</g>
<!-- No_987340734&#45;&gt;No_987671978 -->
<g id="edge13" class="edge">
<title>No_987340734&#45;&gt;No_987671978</title>
<path fill="none" stroke="black" d="M605.63,-192.06C612.42,-182.44 619.86,-171.92 626.93,-161.92"/>
<polygon fill="black" stroke="black" points="629.84,-163.86 632.76,-153.67 624.13,-159.82 629.84,-163.86"/>
</g>
<!-- NUL_4 -->
<g id="node12" class="node">
<title>NUL_4</title>
<polygon fill="none" stroke="black" points="432.63,-44 388.63,-44 388.63,0 432.63,0 432.63,-44"/>
<text text-anchor="middle" x="410.63" y="-18.3" font-family="Times,serif" font-size="14.00">null</text>
</g>
<!-- No_986979432&#45;&gt;NUL_4 -->
<g id="edge11" class="edge">
<title>No_986979432&#45;&gt;NUL_4</title>
<path fill="none" stroke="black" d="M429.56,-80.07C426.65,-71.3 423.57,-62.02 420.76,-53.55"/>
<polygon fill="black" stroke="black" points="424.08,-52.45 417.61,-44.06 417.44,-54.65 424.08,-52.45"/>
</g>
<!-- NUL_5 -->
<g id="node13" class="node">
<title>NUL_5</title>
<polygon fill="none" stroke="black" points="494.63,-44 450.63,-44 450.63,0 494.63,0 494.63,-44"/>
<text text-anchor="middle" x="472.63" y="-18.3" font-family="Times,serif" font-size="14.00">null</text>
</g>
<!-- No_986979432&#45;&gt;NUL_5 -->
<g id="edge12" class="edge">
<title>No_986979432&#45;&gt;NUL_5</title>
<path fill="none" stroke="black" d="M453.71,-80.07C456.61,-71.3 459.69,-62.02 462.5,-53.55"/>
<polygon fill="black" stroke="black" points="465.82,-54.65 465.65,-44.06 459.18,-52.45 465.82,-54.65"/>
</g>
<!-- NUL_6 -->
<g id="node15" class="node">
<title>NUL_6</title>
<polygon fill="none" stroke="black" points="648.63,-44 604.63,-44 604.63,0 648.63,0 648.63,-44"/>
<text text-anchor="middle" x="626.63" y="-18.3" font-family="Times,serif" font-size="14.00">null</text>
</g>
<!-- No_987671978&#45;&gt;NUL_6 -->
<g id="edge14" class="edge">
<title>No_987671978&#45;&gt;NUL_6</title>
<path fill="none" stroke="black" d="M645.56,-80.07C642.65,-71.3 639.57,-62.02 636.76,-53.55"/>
<polygon fill="black" stroke="black" points="640.08,-52.45 633.61,-44.06 633.44,-54.65 640.08,-52.45"/>
</g>
<!-- NUL_7 -->
<g id="node16" class="node">
<title>NUL_7</title>
<polygon fill="none" stroke="black" points="710.63,-44 666.63,-44 666.63,0 710.63,0 710.63,-44"/>
<text text-anchor="middle" x="688.63" y="-18.3" font-family="Times,serif" font-size="14.00">null</text>
</g>
<!-- No_987671978&#45;&gt;NUL_7 -->
<g id="edge15" class="edge">
<title>No_987671978&#45;&gt;NUL_7</title>
<path fill="none" stroke="black" d="M669.71,-80.07C672.61,-71.3 675.69,-62.02 678.5,-53.55"/>
<polygon fill="black" stroke="black" points="681.82,-54.65 681.65,-44.06 675.18,-52.45 681.82,-54.65"/>
</g>
<!-- No_994116870 -->
<g id="node18" class="node">
<title>No_994116870</title>
<ellipse fill="none" stroke="black" cx="865.63" cy="-117.48" rx="98.99" ry="37.45"/>
<text text-anchor="middle" x="865.63" y="-128.78" font-family="Times,serif" font-size="14.00">Alexandra Moura</text>
<text text-anchor="middle" x="865.63" y="-113.78" font-family="Times,serif" font-size="14.00">994116870</text>
<text text-anchor="middle" x="865.63" y="-98.78" font-family="Times,serif" font-size="14.00">fb=0</text>
</g>
<!-- No_996598918&#45;&gt;No_994116870 -->
<g id="edge17" class="edge">
<title>No_996598918&#45;&gt;No_994116870</title>
<path fill="none" stroke="black" d="M865.63,-190.85C865.63,-182.67 865.63,-173.89 865.63,-165.37"/>
<polygon fill="black" stroke="black" points="869.13,-165.15 865.63,-155.15 862.13,-165.15 869.13,-165.15"/>
</g>
<!-- NUL_10 -->
<g id="node21" class="node">
<title>NUL_10</title>
<polygon fill="none" stroke="black" points="1026.63,-139.48 982.63,-139.48 982.63,-95.48 1026.63,-95.48 1026.63,-139.48"/>
<text text-anchor="middle" x="1004.63" y="-113.78" font-family="Times,serif" font-size="14.00">null</text>
</g>
<!-- No_996598918&#45;&gt;NUL_10 -->
<g id="edge20" class="edge">
<title>No_996598918&#45;&gt;NUL_10</title>
<path fill="none" stroke="black" d="M911.79,-200.42C931.73,-187.77 954.76,-171.79 973.63,-154.95 976.17,-152.68 978.7,-150.21 981.14,-147.64"/>
<polygon fill="black" stroke="black" points="984.09,-149.61 988.18,-139.83 978.89,-144.92 984.09,-149.61"/>
</g>
<!-- NUL_8 -->
<g id="node19" class="node">
<title>NUL_8</title>
<polygon fill="none" stroke="black" points="856.63,-44 812.63,-44 812.63,0 856.63,0 856.63,-44"/>
<text text-anchor="middle" x="834.63" y="-18.3" font-family="Times,serif" font-size="14.00">null</text>
</g>
<!-- No_994116870&#45;&gt;NUL_8 -->
<g id="edge18" class="edge">
<title>No_994116870&#45;&gt;NUL_8</title>
<path fill="none" stroke="black" d="M853.56,-80.07C850.65,-71.3 847.57,-62.02 844.76,-53.55"/>
<polygon fill="black" stroke="black" points="848.08,-52.45 841.61,-44.06 841.44,-54.65 848.08,-52.45"/>
</g>
<!-- NUL_9 -->
<g id="node20" class="node">
<title>NUL_9</title>
<polygon fill="none" stroke="black" points="918.63,-44 874.63,-44 874.63,0 918.63,0 918.63,-44"/>
<text text-anchor="middle" x="896.63" y="-18.3" font-family="Times,serif" font-size="14.00">null</text>
</g>
<!-- No_994116870&#45;&gt;NUL_9 -->
<g id="edge19" class="edge">
<title>No_994116870&#45;&gt;NUL_9</title>
<path fill="none" stroke="black" d="M877.71,-80.07C880.61,-71.3 883.69,-62.02 886.5,-53.55"/>
<polygon fill="black" stroke="black" points="889.82,-54.65 889.65,-44.06 883.18,-52.45 889.82,-54.65"/>
</g>
</g>
</svg>
