<?xml version="1.0" encoding="UTF-8" standalone="no"?>
<!DOCTYPE svg PUBLIC "-//W3C//DTD SVG 1.1//EN"
 "http://www.w3.org/Graphics/SVG/1.1/DTD/svg11.dtd">
<!-- Generated by graphviz version 2.43.0 (0)
 -->
<!-- Title: BST Pages: 1 -->
<svg width="1470pt" height="374pt"
 viewBox="0.00 0.00 1469.93 374.39" xmlns="http://www.w3.org/2000/svg" xmlns:xlink="http://www.w3.org/1999/xlink">
<g id="graph0" class="graph" transform="scale(1 1) rotate(0) translate(4 370.39)">
<title>BST</title>
<polygon fill="white" stroke="transparent" points="-4,4 -4,-370.39 1465.93,-370.39 1465.93,4 -4,4"/>
<!-- Alexandre Costa,982632579 [fb:1] -->
<g id="node1" class="node">
<title>Alexandre Costa,982632579 [fb:1]</title>
<ellipse fill="none" stroke="black" cx="707.34" cy="-348.39" rx="170.07" ry="18"/>
<text text-anchor="middle" x="707.34" y="-344.69" font-family="Times,serif" font-size="14.00">Alexandre Costa,982632579 [fb:1]</text>
</g>
<!-- Alexandre Freitas,964642705 [fb:0] -->
<g id="node2" class="node">
<title>Alexandre Freitas,964642705 [fb:0]</title>
<ellipse fill="none" stroke="black" cx="519.34" cy="-276.39" rx="176.57" ry="18"/>
<text text-anchor="middle" x="519.34" y="-272.69" font-family="Times,serif" font-size="14.00">Alexandre Freitas,964642705 [fb:0]</text>
</g>
<!-- Alexandre Costa,982632579 [fb:1]&#45;&gt;Alexandre Freitas,964642705 [fb:0] -->
<g id="edge1" class="edge">
<title>Alexandre Costa,982632579 [fb:1]&#45;&gt;Alexandre Freitas,964642705 [fb:0]</title>
<path fill="none" stroke="black" d="M663.26,-330.98C636.35,-320.96 601.74,-308.07 573.21,-297.45"/>
<polygon fill="black" stroke="black" points="574.38,-294.15 563.79,-293.94 571.94,-300.71 574.38,-294.15"/>
</g>
<!-- Alexandre Barbosa,992883178 [fb:1] -->
<g id="node9" class="node">
<title>Alexandre Barbosa,992883178 [fb:1]</title>
<ellipse fill="none" stroke="black" cx="896.34" cy="-276.39" rx="181.97" ry="18"/>
<text text-anchor="middle" x="896.34" y="-272.69" font-family="Times,serif" font-size="14.00">Alexandre Barbosa,992883178 [fb:1]</text>
</g>
<!-- Alexandre Costa,982632579 [fb:1]&#45;&gt;Alexandre Barbosa,992883178 [fb:1] -->
<g id="edge8" class="edge">
<title>Alexandre Costa,982632579 [fb:1]&#45;&gt;Alexandre Barbosa,992883178 [fb:1]</title>
<path fill="none" stroke="black" d="M751.65,-330.98C778.7,-320.96 813.49,-308.07 842.17,-297.45"/>
<polygon fill="black" stroke="black" points="843.48,-300.7 851.65,-293.94 841.05,-294.13 843.48,-300.7"/>
</g>
<!-- Alberto Campos,960933788 [fb:0] -->
<g id="node3" class="node">
<title>Alberto Campos,960933788 [fb:0]</title>
<ellipse fill="none" stroke="black" cx="168.34" cy="-204.39" rx="168.17" ry="18"/>
<text text-anchor="middle" x="168.34" y="-200.69" font-family="Times,serif" font-size="14.00">Alberto Campos,960933788 [fb:0]</text>
</g>
<!-- Alexandre Freitas,964642705 [fb:0]&#45;&gt;Alberto Campos,960933788 [fb:0] -->
<g id="edge2" class="edge">
<title>Alexandre Freitas,964642705 [fb:0]&#45;&gt;Alberto Campos,960933788 [fb:0]</title>
<path fill="none" stroke="black" d="M442.74,-260.11C387.06,-249.01 311.66,-233.97 253.99,-222.47"/>
<polygon fill="black" stroke="black" points="254.65,-219.04 244.16,-220.51 253.28,-225.9 254.65,-219.04"/>
</g>
<!-- Alfredo Martins,967387182 [fb:0] -->
<g id="node6" class="node">
<title>Alfredo Martins,967387182 [fb:0]</title>
<ellipse fill="none" stroke="black" cx="521.34" cy="-204.39" rx="167.07" ry="18"/>
<text text-anchor="middle" x="521.34" y="-200.69" font-family="Times,serif" font-size="14.00">Alfredo Martins,967387182 [fb:0]</text>
</g>
<!-- Alexandre Freitas,964642705 [fb:0]&#45;&gt;Alfredo Martins,967387182 [fb:0] -->
<g id="edge5" class="edge">
<title>Alexandre Freitas,964642705 [fb:0]&#45;&gt;Alfredo Martins,967387182 [fb:0]</title>
<path fill="none" stroke="black" d="M519.83,-258.09C520.05,-250.37 520.31,-241.1 520.56,-232.5"/>
<polygon fill="black" stroke="black" points="524.06,-232.59 520.85,-222.49 517.06,-232.39 524.06,-232.59"/>
</g>
<!-- N0 -->
<g id="node4" class="node">
<title>N0</title>
<ellipse fill="none" stroke="black" cx="131.34" cy="-121.79" rx="28.7" ry="28.7"/>
<text text-anchor="middle" x="131.34" y="-118.09" font-family="Times,serif" font-size="14.00">null</text>
</g>
<!-- Alberto Campos,960933788 [fb:0]&#45;&gt;N0 -->
<g id="edge3" class="edge">
<title>Alberto Campos,960933788 [fb:0]&#45;&gt;N0</title>
<path fill="none" stroke="black" d="M160.49,-186.3C156.63,-177.89 151.83,-167.45 147.25,-157.47"/>
<polygon fill="black" stroke="black" points="150.32,-155.76 142.97,-148.13 143.96,-158.68 150.32,-155.76"/>
</g>
<!-- N1 -->
<g id="node5" class="node">
<title>N1</title>
<ellipse fill="none" stroke="black" cx="206.34" cy="-121.79" rx="28.7" ry="28.7"/>
<text text-anchor="middle" x="206.34" y="-118.09" font-family="Times,serif" font-size="14.00">null</text>
</g>
<!-- Alberto Campos,960933788 [fb:0]&#45;&gt;N1 -->
<g id="edge4" class="edge">
<title>Alberto Campos,960933788 [fb:0]&#45;&gt;N1</title>
<path fill="none" stroke="black" d="M176.39,-186.3C180.36,-177.89 185.28,-167.45 189.99,-157.47"/>
<polygon fill="black" stroke="black" points="193.29,-158.67 194.39,-148.13 186.96,-155.68 193.29,-158.67"/>
</g>
<!-- N2 -->
<g id="node7" class="node">
<title>N2</title>
<ellipse fill="none" stroke="black" cx="483.34" cy="-121.79" rx="28.7" ry="28.7"/>
<text text-anchor="middle" x="483.34" y="-118.09" font-family="Times,serif" font-size="14.00">null</text>
</g>
<!-- Alfredo Martins,967387182 [fb:0]&#45;&gt;N2 -->
<g id="edge6" class="edge">
<title>Alfredo Martins,967387182 [fb:0]&#45;&gt;N2</title>
<path fill="none" stroke="black" d="M513.28,-186.3C509.31,-177.89 504.39,-167.45 499.68,-157.47"/>
<polygon fill="black" stroke="black" points="502.71,-155.68 495.28,-148.13 496.38,-158.67 502.71,-155.68"/>
</g>
<!-- N3 -->
<g id="node8" class="node">
<title>N3</title>
<ellipse fill="none" stroke="black" cx="558.34" cy="-121.79" rx="28.7" ry="28.7"/>
<text text-anchor="middle" x="558.34" y="-118.09" font-family="Times,serif" font-size="14.00">null</text>
</g>
<!-- Alfredo Martins,967387182 [fb:0]&#45;&gt;N3 -->
<g id="edge7" class="edge">
<title>Alfredo Martins,967387182 [fb:0]&#45;&gt;N3</title>
<path fill="none" stroke="black" d="M529.18,-186.3C533.04,-177.89 537.84,-167.45 542.42,-157.47"/>
<polygon fill="black" stroke="black" points="545.71,-158.68 546.7,-148.13 539.35,-155.76 545.71,-158.68"/>
</g>
<!-- Alexandre Machado,987340734 [fb:0] -->
<g id="node10" class="node">
<title>Alexandre Machado,987340734 [fb:0]</title>
<ellipse fill="none" stroke="black" cx="895.34" cy="-204.39" rx="185.77" ry="18"/>
<text text-anchor="middle" x="895.34" y="-200.69" font-family="Times,serif" font-size="14.00">Alexandre Machado,987340734 [fb:0]</text>
</g>
<!-- Alexandre Barbosa,992883178 [fb:1]&#45;&gt;Alexandre Machado,987340734 [fb:0] -->
<g id="edge9" class="edge">
<title>Alexandre Barbosa,992883178 [fb:1]&#45;&gt;Alexandre Machado,987340734 [fb:0]</title>
<path fill="none" stroke="black" d="M896.09,-258.09C895.98,-250.37 895.85,-241.1 895.72,-232.5"/>
<polygon fill="black" stroke="black" points="899.22,-232.44 895.58,-222.49 892.22,-232.54 899.22,-232.44"/>
</g>
<!-- Ana Farias,996598918 [fb:&#45;1] -->
<g id="node13" class="node">
<title>Ana Farias,996598918 [fb:&#45;1]</title>
<ellipse fill="none" stroke="black" cx="1245.34" cy="-204.39" rx="146.47" ry="18"/>
<text text-anchor="middle" x="1245.34" y="-200.69" font-family="Times,serif" font-size="14.00">Ana Farias,996598918 [fb:&#45;1]</text>
</g>
<!-- Alexandre Barbosa,992883178 [fb:1]&#45;&gt;Ana Farias,996598918 [fb:&#45;1] -->
<g id="edge12" class="edge">
<title>Alexandre Barbosa,992883178 [fb:1]&#45;&gt;Ana Farias,996598918 [fb:&#45;1]</title>
<path fill="none" stroke="black" d="M972.92,-260.03C1028.86,-248.81 1104.64,-233.61 1162.07,-222.09"/>
<polygon fill="black" stroke="black" points="1163.09,-225.46 1172.21,-220.06 1161.72,-218.59 1163.09,-225.46"/>
</g>
<!-- N4 -->
<g id="node11" class="node">
<title>N4</title>
<ellipse fill="none" stroke="black" cx="852.34" cy="-121.79" rx="28.7" ry="28.7"/>
<text text-anchor="middle" x="852.34" y="-118.09" font-family="Times,serif" font-size="14.00">null</text>
</g>
<!-- Alexandre Machado,987340734 [fb:0]&#45;&gt;N4 -->
<g id="edge10" class="edge">
<title>Alexandre Machado,987340734 [fb:0]&#45;&gt;N4</title>
<path fill="none" stroke="black" d="M886.22,-186.3C881.56,-177.58 875.74,-166.66 870.24,-156.34"/>
<polygon fill="black" stroke="black" points="873.32,-154.68 865.52,-147.51 867.14,-157.98 873.32,-154.68"/>
</g>
<!-- N5 -->
<g id="node12" class="node">
<title>N5</title>
<ellipse fill="none" stroke="black" cx="927.34" cy="-121.79" rx="28.7" ry="28.7"/>
<text text-anchor="middle" x="927.34" y="-118.09" font-family="Times,serif" font-size="14.00">null</text>
</g>
<!-- Alexandre Machado,987340734 [fb:0]&#45;&gt;N5 -->
<g id="edge11" class="edge">
<title>Alexandre Machado,987340734 [fb:0]&#45;&gt;N5</title>
<path fill="none" stroke="black" d="M902.12,-186.3C905.37,-178.12 909.38,-168 913.25,-158.27"/>
<polygon fill="black" stroke="black" points="916.59,-159.34 917.03,-148.75 910.09,-156.75 916.59,-159.34"/>
</g>
<!-- Alexandra Moura,994116870 [fb:0] -->
<g id="node14" class="node">
<title>Alexandra Moura,994116870 [fb:0]</title>
<ellipse fill="none" stroke="black" cx="1212.34" cy="-121.79" rx="174.37" ry="18"/>
<text text-anchor="middle" x="1212.34" y="-118.09" font-family="Times,serif" font-size="14.00">Alexandra Moura,994116870 [fb:0]</text>
</g>
<!-- Ana Farias,996598918 [fb:&#45;1]&#45;&gt;Alexandra Moura,994116870 [fb:0] -->
<g id="edge13" class="edge">
<title>Ana Farias,996598918 [fb:&#45;1]&#45;&gt;Alexandra Moura,994116870 [fb:0]</title>
<path fill="none" stroke="black" d="M1238.34,-186.3C1233.92,-175.5 1228.12,-161.34 1223.12,-149.13"/>
<polygon fill="black" stroke="black" points="1226.35,-147.79 1219.32,-139.86 1219.87,-150.44 1226.35,-147.79"/>
</g>
<!-- N8 -->
<g id="node17" class="node">
<title>N8</title>
<ellipse fill="none" stroke="black" cx="1433.34" cy="-121.79" rx="28.7" ry="28.7"/>
<text text-anchor="middle" x="1433.34" y="-118.09" font-family="Times,serif" font-size="14.00">null</text>
</g>
<!-- Ana Farias,996598918 [fb:&#45;1]&#45;&gt;N8 -->
<g id="edge16" class="edge">
<title>Ana Farias,996598918 [fb:&#45;1]&#45;&gt;N8</title>
<path fill="none" stroke="black" d="M1301.8,-187.69C1330.62,-178.63 1365.75,-165.94 1395.34,-150.39 1397.67,-149.16 1400.03,-147.8 1402.35,-146.37"/>
<polygon fill="black" stroke="black" points="1404.72,-148.99 1411.12,-140.55 1400.86,-143.16 1404.72,-148.99"/>
</g>
<!-- N6 -->
<g id="node15" class="node">
<title>N6</title>
<ellipse fill="none" stroke="black" cx="1174.34" cy="-28.6" rx="28.7" ry="28.7"/>
<text text-anchor="middle" x="1174.34" y="-24.9" font-family="Times,serif" font-size="14.00">null</text>
</g>
<!-- Alexandra Moura,994116870 [fb:0]&#45;&gt;N6 -->
<g id="edge14" class="edge">
<title>Alexandra Moura,994116870 [fb:0]&#45;&gt;N6</title>
<path fill="none" stroke="black" d="M1205.19,-103.64C1200.62,-92.68 1194.53,-78.07 1188.97,-64.72"/>
<polygon fill="black" stroke="black" points="1192.12,-63.18 1185.04,-55.3 1185.66,-65.87 1192.12,-63.18"/>
</g>
<!-- N7 -->
<g id="node16" class="node">
<title>N7</title>
<ellipse fill="none" stroke="black" cx="1249.34" cy="-28.6" rx="28.7" ry="28.7"/>
<text text-anchor="middle" x="1249.34" y="-24.9" font-family="Times,serif" font-size="14.00">null</text>
</g>
<!-- Alexandra Moura,994116870 [fb:0]&#45;&gt;N7 -->
<g id="edge15" class="edge">
<title>Alexandra Moura,994116870 [fb:0]&#45;&gt;N7</title>
<path fill="none" stroke="black" d="M1219.29,-103.64C1223.74,-92.68 1229.67,-78.07 1235.08,-64.72"/>
<polygon fill="black" stroke="black" points="1238.39,-65.88 1238.91,-55.3 1231.91,-63.25 1238.39,-65.88"/>
</g>
</g>
</svg>
