<?xml version="1.0" encoding="UTF-8" standalone="no"?>
<!DOCTYPE svg PUBLIC "-//W3C//DTD SVG 1.1//EN"
 "http://www.w3.org/Graphics/SVG/1.1/DTD/svg11.dtd">
<!-- Generated by graphviz version 2.43.0 (0)
 -->
<!-- Title: BST Pages: 1 -->
<svg width="880pt" height="496pt"
 viewBox="0.00 0.00 879.63 495.81" xmlns="http://www.w3.org/2000/svg" xmlns:xlink="http://www.w3.org/1999/xlink">
<g id="graph0" class="graph" transform="scale(1 1) rotate(0) translate(4 491.81)">
<title>BST</title>
<polygon fill="white" stroke="transparent" points="-4,4 -4,-491.81 875.63,-491.81 875.63,4 -4,4"/>
<!-- No_982632579 -->
<g id="node1" class="node">
<title>No_982632579</title>
<ellipse fill="none" stroke="black" cx="398.63" cy="-450.34" rx="69.09" ry="37.45"/>
<text text-anchor="middle" x="398.63" y="-461.64" font-family="Times,serif" font-size="14.00">Abel Costa</text>
<text text-anchor="middle" x="398.63" y="-446.64" font-family="Times,serif" font-size="14.00">982632579</text>
<text text-anchor="middle" x="398.63" y="-431.64" font-family="Times,serif" font-size="14.00">fb=1</text>
</g>
<!-- No_964642705 -->
<g id="node2" class="node">
<title>No_964642705</title>
<ellipse fill="none" stroke="black" cx="294.63" cy="-339.38" rx="78.48" ry="37.45"/>
<text text-anchor="middle" x="294.63" y="-350.68" font-family="Times,serif" font-size="14.00">Alícia Freitas</text>
<text text-anchor="middle" x="294.63" y="-335.68" font-family="Times,serif" font-size="14.00">964642705</text>
<text text-anchor="middle" x="294.63" y="-320.68" font-family="Times,serif" font-size="14.00">fb=0</text>
</g>
<!-- No_982632579&#45;&gt;No_964642705 -->
<g id="edge1" class="edge">
<title>No_982632579&#45;&gt;No_964642705</title>
<path fill="none" stroke="black" d="M367.43,-416.65C356.83,-405.54 344.84,-392.99 333.71,-381.32"/>
<polygon fill="black" stroke="black" points="335.97,-378.62 326.53,-373.8 330.91,-383.45 335.97,-378.62"/>
</g>
<!-- No_992883178 -->
<g id="node9" class="node">
<title>No_992883178</title>
<ellipse fill="none" stroke="black" cx="502.63" cy="-339.38" rx="107.46" ry="37.45"/>
<text text-anchor="middle" x="502.63" y="-350.68" font-family="Times,serif" font-size="14.00">Alexandre Barbosa</text>
<text text-anchor="middle" x="502.63" y="-335.68" font-family="Times,serif" font-size="14.00">992883178</text>
<text text-anchor="middle" x="502.63" y="-320.68" font-family="Times,serif" font-size="14.00">fb=0</text>
</g>
<!-- No_982632579&#45;&gt;No_992883178 -->
<g id="edge8" class="edge">
<title>No_982632579&#45;&gt;No_992883178</title>
<path fill="none" stroke="black" d="M429.83,-416.65C440.04,-405.95 451.53,-393.92 462.31,-382.62"/>
<polygon fill="black" stroke="black" points="464.9,-384.98 469.28,-375.33 459.84,-380.14 464.9,-384.98"/>
</g>
<!-- No_960933788 -->
<g id="node3" class="node">
<title>No_960933788</title>
<ellipse fill="none" stroke="black" cx="92.63" cy="-228.43" rx="92.76" ry="37.45"/>
<text text-anchor="middle" x="92.63" y="-239.73" font-family="Times,serif" font-size="14.00">Alberto Campos</text>
<text text-anchor="middle" x="92.63" y="-224.73" font-family="Times,serif" font-size="14.00">960933788</text>
<text text-anchor="middle" x="92.63" y="-209.73" font-family="Times,serif" font-size="14.00">fb=0</text>
</g>
<!-- No_964642705&#45;&gt;No_960933788 -->
<g id="edge2" class="edge">
<title>No_964642705&#45;&gt;No_960933788</title>
<path fill="none" stroke="black" d="M243.4,-310.75C216.92,-296.47 184.37,-278.91 156.3,-263.77"/>
<polygon fill="black" stroke="black" points="157.81,-260.61 147.35,-258.94 154.49,-266.77 157.81,-260.61"/>
</g>
<!-- No_967387182 -->
<g id="node6" class="node">
<title>No_967387182</title>
<ellipse fill="none" stroke="black" cx="294.63" cy="-228.43" rx="91.43" ry="37.45"/>
<text text-anchor="middle" x="294.63" y="-239.73" font-family="Times,serif" font-size="14.00">Alfredo Martins</text>
<text text-anchor="middle" x="294.63" y="-224.73" font-family="Times,serif" font-size="14.00">967387182</text>
<text text-anchor="middle" x="294.63" y="-209.73" font-family="Times,serif" font-size="14.00">fb=0</text>
</g>
<!-- No_964642705&#45;&gt;No_967387182 -->
<g id="edge5" class="edge">
<title>No_964642705&#45;&gt;No_967387182</title>
<path fill="none" stroke="black" d="M294.63,-301.8C294.63,-293.63 294.63,-284.85 294.63,-276.32"/>
<polygon fill="black" stroke="black" points="298.13,-276.1 294.63,-266.1 291.13,-276.1 298.13,-276.1"/>
</g>
<!-- NUL_0 -->
<g id="node4" class="node">
<title>NUL_0</title>
<polygon fill="none" stroke="black" points="83.63,-139.48 39.63,-139.48 39.63,-95.48 83.63,-95.48 83.63,-139.48"/>
<text text-anchor="middle" x="61.63" y="-113.78" font-family="Times,serif" font-size="14.00">null</text>
</g>
<!-- No_960933788&#45;&gt;NUL_0 -->
<g id="edge3" class="edge">
<title>No_960933788&#45;&gt;NUL_0</title>
<path fill="none" stroke="black" d="M82.31,-191.15C78.47,-177.67 74.16,-162.51 70.47,-149.53"/>
<polygon fill="black" stroke="black" points="73.77,-148.33 67.66,-139.67 67.03,-150.25 73.77,-148.33"/>
</g>
<!-- NUL_1 -->
<g id="node5" class="node">
<title>NUL_1</title>
<polygon fill="none" stroke="black" points="145.63,-139.48 101.63,-139.48 101.63,-95.48 145.63,-95.48 145.63,-139.48"/>
<text text-anchor="middle" x="123.63" y="-113.78" font-family="Times,serif" font-size="14.00">null</text>
</g>
<!-- No_960933788&#45;&gt;NUL_1 -->
<g id="edge4" class="edge">
<title>No_960933788&#45;&gt;NUL_1</title>
<path fill="none" stroke="black" d="M102.95,-191.15C106.79,-177.67 111.1,-162.51 114.79,-149.53"/>
<polygon fill="black" stroke="black" points="118.23,-150.25 117.6,-139.67 111.5,-148.33 118.23,-150.25"/>
</g>
<!-- NUL_2 -->
<g id="node7" class="node">
<title>NUL_2</title>
<polygon fill="none" stroke="black" points="261.63,-139.48 217.63,-139.48 217.63,-95.48 261.63,-95.48 261.63,-139.48"/>
<text text-anchor="middle" x="239.63" y="-113.78" font-family="Times,serif" font-size="14.00">null</text>
</g>
<!-- No_967387182&#45;&gt;NUL_2 -->
<g id="edge6" class="edge">
<title>No_967387182&#45;&gt;NUL_2</title>
<path fill="none" stroke="black" d="M276.47,-191.45C269.52,-177.69 261.67,-162.13 255,-148.93"/>
<polygon fill="black" stroke="black" points="258.02,-147.14 250.39,-139.79 251.77,-150.3 258.02,-147.14"/>
</g>
<!-- NUL_3 -->
<g id="node8" class="node">
<title>NUL_3</title>
<polygon fill="none" stroke="black" points="323.63,-139.48 279.63,-139.48 279.63,-95.48 323.63,-95.48 323.63,-139.48"/>
<text text-anchor="middle" x="301.63" y="-113.78" font-family="Times,serif" font-size="14.00">null</text>
</g>
<!-- No_967387182&#45;&gt;NUL_3 -->
<g id="edge7" class="edge">
<title>No_967387182&#45;&gt;NUL_3</title>
<path fill="none" stroke="black" d="M296.98,-190.85C297.84,-177.52 298.8,-162.58 299.62,-149.75"/>
<polygon fill="black" stroke="black" points="303.13,-149.76 300.28,-139.55 296.14,-149.31 303.13,-149.76"/>
</g>
<!-- No_987340734 -->
<g id="node10" class="node">
<title>No_987340734</title>
<ellipse fill="none" stroke="black" cx="502.63" cy="-228.43" rx="98.99" ry="37.45"/>
<text text-anchor="middle" x="502.63" y="-239.73" font-family="Times,serif" font-size="14.00">Antônia Machado</text>
<text text-anchor="middle" x="502.63" y="-224.73" font-family="Times,serif" font-size="14.00">987340734</text>
<text text-anchor="middle" x="502.63" y="-209.73" font-family="Times,serif" font-size="14.00">fb=1</text>
</g>
<!-- No_992883178&#45;&gt;No_987340734 -->
<g id="edge9" class="edge">
<title>No_992883178&#45;&gt;No_987340734</title>
<path fill="none" stroke="black" d="M502.63,-301.8C502.63,-293.63 502.63,-284.85 502.63,-276.32"/>
<polygon fill="black" stroke="black" points="506.13,-276.1 502.63,-266.1 499.13,-276.1 506.13,-276.1"/>
</g>
<!-- No_996598918 -->
<g id="node15" class="node">
<title>No_996598918</title>
<ellipse fill="none" stroke="black" cx="710.63" cy="-228.43" rx="69.09" ry="37.45"/>
<text text-anchor="middle" x="710.63" y="-239.73" font-family="Times,serif" font-size="14.00">Ana Farias</text>
<text text-anchor="middle" x="710.63" y="-224.73" font-family="Times,serif" font-size="14.00">996598918</text>
<text text-anchor="middle" x="710.63" y="-209.73" font-family="Times,serif" font-size="14.00">fb=&#45;1</text>
</g>
<!-- No_992883178&#45;&gt;No_996598918 -->
<g id="edge14" class="edge">
<title>No_992883178&#45;&gt;No_996598918</title>
<path fill="none" stroke="black" d="M561.12,-307.74C589.75,-292.75 624.1,-274.76 652.66,-259.8"/>
<polygon fill="black" stroke="black" points="654.47,-262.8 661.71,-255.06 651.23,-256.6 654.47,-262.8"/>
</g>
<!-- NUL_4 -->
<g id="node11" class="node">
<title>NUL_4</title>
<polygon fill="none" stroke="black" points="393.63,-139.48 349.63,-139.48 349.63,-95.48 393.63,-95.48 393.63,-139.48"/>
<text text-anchor="middle" x="371.63" y="-113.78" font-family="Times,serif" font-size="14.00">null</text>
</g>
<!-- No_987340734&#45;&gt;NUL_4 -->
<g id="edge10" class="edge">
<title>No_987340734&#45;&gt;NUL_4</title>
<path fill="none" stroke="black" d="M454.02,-195.72C437.07,-183.76 418.37,-169.52 402.63,-154.95 400.13,-152.64 397.64,-150.13 395.21,-147.55"/>
<polygon fill="black" stroke="black" points="397.47,-144.83 388.2,-139.71 392.25,-149.49 397.47,-144.83"/>
</g>
<!-- No_987671978 -->
<g id="node12" class="node">
<title>No_987671978</title>
<ellipse fill="none" stroke="black" cx="502.63" cy="-117.48" rx="90.52" ry="37.45"/>
<text text-anchor="middle" x="502.63" y="-128.78" font-family="Times,serif" font-size="14.00">Adriana Pereira</text>
<text text-anchor="middle" x="502.63" y="-113.78" font-family="Times,serif" font-size="14.00">987671978</text>
<text text-anchor="middle" x="502.63" y="-98.78" font-family="Times,serif" font-size="14.00">fb=0</text>
</g>
<!-- No_987340734&#45;&gt;No_987671978 -->
<g id="edge11" class="edge">
<title>No_987340734&#45;&gt;No_987671978</title>
<path fill="none" stroke="black" d="M502.63,-190.85C502.63,-182.67 502.63,-173.89 502.63,-165.37"/>
<polygon fill="black" stroke="black" points="506.13,-165.15 502.63,-155.15 499.13,-165.15 506.13,-165.15"/>
</g>
<!-- NUL_5 -->
<g id="node13" class="node">
<title>NUL_5</title>
<polygon fill="none" stroke="black" points="493.63,-44 449.63,-44 449.63,0 493.63,0 493.63,-44"/>
<text text-anchor="middle" x="471.63" y="-18.3" font-family="Times,serif" font-size="14.00">null</text>
</g>
<!-- No_987671978&#45;&gt;NUL_5 -->
<g id="edge12" class="edge">
<title>No_987671978&#45;&gt;NUL_5</title>
<path fill="none" stroke="black" d="M490.56,-80.07C487.65,-71.3 484.57,-62.02 481.76,-53.55"/>
<polygon fill="black" stroke="black" points="485.08,-52.45 478.61,-44.06 478.44,-54.65 485.08,-52.45"/>
</g>
<!-- NUL_6 -->
<g id="node14" class="node">
<title>NUL_6</title>
<polygon fill="none" stroke="black" points="555.63,-44 511.63,-44 511.63,0 555.63,0 555.63,-44"/>
<text text-anchor="middle" x="533.63" y="-18.3" font-family="Times,serif" font-size="14.00">null</text>
</g>
<!-- No_987671978&#45;&gt;NUL_6 -->
<g id="edge13" class="edge">
<title>No_987671978&#45;&gt;NUL_6</title>
<path fill="none" stroke="black" d="M514.71,-80.07C517.61,-71.3 520.69,-62.02 523.5,-53.55"/>
<polygon fill="black" stroke="black" points="526.82,-54.65 526.65,-44.06 520.18,-52.45 526.82,-54.65"/>
</g>
<!-- No_994116870 -->
<g id="node16" class="node">
<title>No_994116870</title>
<ellipse fill="none" stroke="black" cx="710.63" cy="-117.48" rx="98.99" ry="37.45"/>
<text text-anchor="middle" x="710.63" y="-128.78" font-family="Times,serif" font-size="14.00">Alexandra Moura</text>
<text text-anchor="middle" x="710.63" y="-113.78" font-family="Times,serif" font-size="14.00">994116870</text>
<text text-anchor="middle" x="710.63" y="-98.78" font-family="Times,serif" font-size="14.00">fb=0</text>
</g>
<!-- No_996598918&#45;&gt;No_994116870 -->
<g id="edge15" class="edge">
<title>No_996598918&#45;&gt;No_994116870</title>
<path fill="none" stroke="black" d="M710.63,-190.85C710.63,-182.67 710.63,-173.89 710.63,-165.37"/>
<polygon fill="black" stroke="black" points="714.13,-165.15 710.63,-155.15 707.13,-165.15 714.13,-165.15"/>
</g>
<!-- NUL_9 -->
<g id="node19" class="node">
<title>NUL_9</title>
<polygon fill="none" stroke="black" points="871.63,-139.48 827.63,-139.48 827.63,-95.48 871.63,-95.48 871.63,-139.48"/>
<text text-anchor="middle" x="849.63" y="-113.78" font-family="Times,serif" font-size="14.00">null</text>
</g>
<!-- No_996598918&#45;&gt;NUL_9 -->
<g id="edge18" class="edge">
<title>No_996598918&#45;&gt;NUL_9</title>
<path fill="none" stroke="black" d="M756.79,-200.42C776.73,-187.77 799.76,-171.79 818.63,-154.95 821.17,-152.68 823.7,-150.21 826.14,-147.64"/>
<polygon fill="black" stroke="black" points="829.09,-149.61 833.18,-139.83 823.89,-144.92 829.09,-149.61"/>
</g>
<!-- NUL_7 -->
<g id="node17" class="node">
<title>NUL_7</title>
<polygon fill="none" stroke="black" points="701.63,-44 657.63,-44 657.63,0 701.63,0 701.63,-44"/>
<text text-anchor="middle" x="679.63" y="-18.3" font-family="Times,serif" font-size="14.00">null</text>
</g>
<!-- No_994116870&#45;&gt;NUL_7 -->
<g id="edge16" class="edge">
<title>No_994116870&#45;&gt;NUL_7</title>
<path fill="none" stroke="black" d="M698.56,-80.07C695.65,-71.3 692.57,-62.02 689.76,-53.55"/>
<polygon fill="black" stroke="black" points="693.08,-52.45 686.61,-44.06 686.44,-54.65 693.08,-52.45"/>
</g>
<!-- NUL_8 -->
<g id="node18" class="node">
<title>NUL_8</title>
<polygon fill="none" stroke="black" points="763.63,-44 719.63,-44 719.63,0 763.63,0 763.63,-44"/>
<text text-anchor="middle" x="741.63" y="-18.3" font-family="Times,serif" font-size="14.00">null</text>
</g>
<!-- No_994116870&#45;&gt;NUL_8 -->
<g id="edge17" class="edge">
<title>No_994116870&#45;&gt;NUL_8</title>
<path fill="none" stroke="black" d="M722.71,-80.07C725.61,-71.3 728.69,-62.02 731.5,-53.55"/>
<polygon fill="black" stroke="black" points="734.82,-54.65 734.65,-44.06 728.18,-52.45 734.82,-54.65"/>
</g>
</g>
</svg>
