<?xml version="1.0" encoding="UTF-8" standalone="no"?>
<!DOCTYPE svg PUBLIC "-//W3C//DTD SVG 1.1//EN"
 "http://www.w3.org/Graphics/SVG/1.1/DTD/svg11.dtd">
<!-- Generated by graphviz version 2.43.0 (0)
 -->
<!-- Title: BST Pages: 1 -->
<svg width="1111pt" height="496pt"
 viewBox="0.00 0.00 1110.95 495.81" xmlns="http://www.w3.org/2000/svg" xmlns:xlink="http://www.w3.org/1999/xlink">
<g id="graph0" class="graph" transform="scale(1 1) rotate(0) translate(4 491.81)">
<title>BST</title>
<polygon fill="white" stroke="transparent" points="-4,4 -4,-491.81 1106.95,-491.81 1106.95,4 -4,4"/>
<!-- No_985278999 -->
<g id="node1" class="node">
<title>No_985278999</title>
<ellipse fill="none" stroke="black" cx="554.95" cy="-450.34" rx="75.82" ry="37.45"/>
<text text-anchor="middle" x="554.95" y="-461.64" font-family="Times,serif" font-size="14.00">Acir Campos</text>
<text text-anchor="middle" x="554.95" y="-446.64" font-family="Times,serif" font-size="14.00">985278999</text>
<text text-anchor="middle" x="554.95" y="-431.64" font-family="Times,serif" font-size="14.00">fb=0</text>
</g>
<!-- No_964642705 -->
<g id="node2" class="node">
<title>No_964642705</title>
<ellipse fill="none" stroke="black" cx="428.95" cy="-339.38" rx="78.48" ry="37.45"/>
<text text-anchor="middle" x="428.95" y="-350.68" font-family="Times,serif" font-size="14.00">Alícia Freitas</text>
<text text-anchor="middle" x="428.95" y="-335.68" font-family="Times,serif" font-size="14.00">964642705</text>
<text text-anchor="middle" x="428.95" y="-320.68" font-family="Times,serif" font-size="14.00">fb=0</text>
</g>
<!-- No_985278999&#45;&gt;No_964642705 -->
<g id="edge1" class="edge">
<title>No_985278999&#45;&gt;No_964642705</title>
<path fill="none" stroke="black" d="M518.17,-417.53C504.44,-405.66 488.69,-392.04 474.28,-379.58"/>
<polygon fill="black" stroke="black" points="476.29,-376.69 466.44,-372.8 471.71,-381.98 476.29,-376.69"/>
</g>
<!-- No_987671978 -->
<g id="node15" class="node">
<title>No_987671978</title>
<ellipse fill="none" stroke="black" cx="685.95" cy="-339.38" rx="90.52" ry="37.45"/>
<text text-anchor="middle" x="685.95" y="-350.68" font-family="Times,serif" font-size="14.00">Adriana Pereira</text>
<text text-anchor="middle" x="685.95" y="-335.68" font-family="Times,serif" font-size="14.00">987671978</text>
<text text-anchor="middle" x="685.95" y="-320.68" font-family="Times,serif" font-size="14.00">fb=0</text>
</g>
<!-- No_985278999&#45;&gt;No_987671978 -->
<g id="edge14" class="edge">
<title>No_985278999&#45;&gt;No_987671978</title>
<path fill="none" stroke="black" d="M592.84,-417.82C607.13,-405.94 623.56,-392.28 638.6,-379.77"/>
<polygon fill="black" stroke="black" points="640.87,-382.43 646.32,-373.34 636.4,-377.05 640.87,-382.43"/>
</g>
<!-- No_960933790 -->
<g id="node3" class="node">
<title>No_960933790</title>
<ellipse fill="none" stroke="black" cx="189.95" cy="-228.43" rx="85.62" ry="37.45"/>
<text text-anchor="middle" x="189.95" y="-239.73" font-family="Times,serif" font-size="14.00">Andrea Santos</text>
<text text-anchor="middle" x="189.95" y="-224.73" font-family="Times,serif" font-size="14.00">960933790</text>
<text text-anchor="middle" x="189.95" y="-209.73" font-family="Times,serif" font-size="14.00">fb=&#45;1</text>
</g>
<!-- No_964642705&#45;&gt;No_960933790 -->
<g id="edge2" class="edge">
<title>No_964642705&#45;&gt;No_960933790</title>
<path fill="none" stroke="black" d="M373.22,-312.98C338.63,-297.21 293.97,-276.85 257.39,-260.17"/>
<polygon fill="black" stroke="black" points="258.83,-256.98 248.28,-256.02 255.92,-263.35 258.83,-256.98"/>
</g>
<!-- No_967387182 -->
<g id="node8" class="node">
<title>No_967387182</title>
<ellipse fill="none" stroke="black" cx="428.95" cy="-228.43" rx="91.43" ry="37.45"/>
<text text-anchor="middle" x="428.95" y="-239.73" font-family="Times,serif" font-size="14.00">Alfredo Martins</text>
<text text-anchor="middle" x="428.95" y="-224.73" font-family="Times,serif" font-size="14.00">967387182</text>
<text text-anchor="middle" x="428.95" y="-209.73" font-family="Times,serif" font-size="14.00">fb=0</text>
</g>
<!-- No_964642705&#45;&gt;No_967387182 -->
<g id="edge7" class="edge">
<title>No_964642705&#45;&gt;No_967387182</title>
<path fill="none" stroke="black" d="M428.95,-301.8C428.95,-293.63 428.95,-284.85 428.95,-276.32"/>
<polygon fill="black" stroke="black" points="432.45,-276.1 428.95,-266.1 425.45,-276.1 432.45,-276.1"/>
</g>
<!-- No_955838599 -->
<g id="node4" class="node">
<title>No_955838599</title>
<ellipse fill="none" stroke="black" cx="74.95" cy="-117.48" rx="74.91" ry="37.45"/>
<text text-anchor="middle" x="74.95" y="-128.78" font-family="Times,serif" font-size="14.00">Aline Santos</text>
<text text-anchor="middle" x="74.95" y="-113.78" font-family="Times,serif" font-size="14.00">955838599</text>
<text text-anchor="middle" x="74.95" y="-98.78" font-family="Times,serif" font-size="14.00">fb=0</text>
</g>
<!-- No_960933790&#45;&gt;No_955838599 -->
<g id="edge3" class="edge">
<title>No_960933790&#45;&gt;No_955838599</title>
<path fill="none" stroke="black" d="M154.82,-194.15C142.9,-182.85 129.45,-170.11 117.04,-158.35"/>
<polygon fill="black" stroke="black" points="119.14,-155.52 109.47,-151.18 114.32,-160.6 119.14,-155.52"/>
</g>
<!-- NUL_2 -->
<g id="node7" class="node">
<title>NUL_2</title>
<polygon fill="none" stroke="black" points="211.95,-139.48 167.95,-139.48 167.95,-95.48 211.95,-95.48 211.95,-139.48"/>
<text text-anchor="middle" x="189.95" y="-113.78" font-family="Times,serif" font-size="14.00">null</text>
</g>
<!-- No_960933790&#45;&gt;NUL_2 -->
<g id="edge6" class="edge">
<title>No_960933790&#45;&gt;NUL_2</title>
<path fill="none" stroke="black" d="M189.95,-190.85C189.95,-177.52 189.95,-162.58 189.95,-149.75"/>
<polygon fill="black" stroke="black" points="193.45,-149.55 189.95,-139.55 186.45,-149.55 193.45,-149.55"/>
</g>
<!-- NUL_0 -->
<g id="node5" class="node">
<title>NUL_0</title>
<polygon fill="none" stroke="black" points="65.95,-44 21.95,-44 21.95,0 65.95,0 65.95,-44"/>
<text text-anchor="middle" x="43.95" y="-18.3" font-family="Times,serif" font-size="14.00">null</text>
</g>
<!-- No_955838599&#45;&gt;NUL_0 -->
<g id="edge4" class="edge">
<title>No_955838599&#45;&gt;NUL_0</title>
<path fill="none" stroke="black" d="M62.97,-80.34C60.05,-71.55 56.96,-62.23 54.14,-53.72"/>
<polygon fill="black" stroke="black" points="57.45,-52.57 50.98,-44.18 50.8,-54.77 57.45,-52.57"/>
</g>
<!-- NUL_1 -->
<g id="node6" class="node">
<title>NUL_1</title>
<polygon fill="none" stroke="black" points="127.95,-44 83.95,-44 83.95,0 127.95,0 127.95,-44"/>
<text text-anchor="middle" x="105.95" y="-18.3" font-family="Times,serif" font-size="14.00">null</text>
</g>
<!-- No_955838599&#45;&gt;NUL_1 -->
<g id="edge5" class="edge">
<title>No_955838599&#45;&gt;NUL_1</title>
<path fill="none" stroke="black" d="M86.94,-80.34C89.85,-71.55 92.94,-62.23 95.77,-53.72"/>
<polygon fill="black" stroke="black" points="99.1,-54.77 98.93,-44.18 92.46,-52.57 99.1,-54.77"/>
</g>
<!-- No_965115082 -->
<g id="node9" class="node">
<title>No_965115082</title>
<ellipse fill="none" stroke="black" cx="305.95" cy="-117.48" rx="75.82" ry="37.45"/>
<text text-anchor="middle" x="305.95" y="-128.78" font-family="Times,serif" font-size="14.00">Ana Barbosa</text>
<text text-anchor="middle" x="305.95" y="-113.78" font-family="Times,serif" font-size="14.00">965115082</text>
<text text-anchor="middle" x="305.95" y="-98.78" font-family="Times,serif" font-size="14.00">fb=0</text>
</g>
<!-- No_967387182&#45;&gt;No_965115082 -->
<g id="edge8" class="edge">
<title>No_967387182&#45;&gt;No_965115082</title>
<path fill="none" stroke="black" d="M391.38,-194.15C378.27,-182.53 363.44,-169.4 349.86,-157.37"/>
<polygon fill="black" stroke="black" points="351.84,-154.45 342.03,-150.43 347.2,-159.69 351.84,-154.45"/>
</g>
<!-- No_975960513 -->
<g id="node12" class="node">
<title>No_975960513</title>
<ellipse fill="none" stroke="black" cx="472.95" cy="-117.48" rx="73.58" ry="37.45"/>
<text text-anchor="middle" x="472.95" y="-128.78" font-family="Times,serif" font-size="14.00">Altair Souza</text>
<text text-anchor="middle" x="472.95" y="-113.78" font-family="Times,serif" font-size="14.00">975960513</text>
<text text-anchor="middle" x="472.95" y="-98.78" font-family="Times,serif" font-size="14.00">fb=0</text>
</g>
<!-- No_967387182&#45;&gt;No_975960513 -->
<g id="edge11" class="edge">
<title>No_967387182&#45;&gt;No_975960513</title>
<path fill="none" stroke="black" d="M443.6,-191.15C447.17,-182.33 451.02,-172.79 454.73,-163.61"/>
<polygon fill="black" stroke="black" points="458.02,-164.81 458.52,-154.23 451.53,-162.19 458.02,-164.81"/>
</g>
<!-- NUL_3 -->
<g id="node10" class="node">
<title>NUL_3</title>
<polygon fill="none" stroke="black" points="286.95,-44 242.95,-44 242.95,0 286.95,0 286.95,-44"/>
<text text-anchor="middle" x="264.95" y="-18.3" font-family="Times,serif" font-size="14.00">null</text>
</g>
<!-- No_965115082&#45;&gt;NUL_3 -->
<g id="edge9" class="edge">
<title>No_965115082&#45;&gt;NUL_3</title>
<path fill="none" stroke="black" d="M290.22,-80.6C286.28,-71.63 282.09,-62.08 278.29,-53.4"/>
<polygon fill="black" stroke="black" points="281.4,-51.79 274.18,-44.04 274.99,-54.6 281.4,-51.79"/>
</g>
<!-- NUL_4 -->
<g id="node11" class="node">
<title>NUL_4</title>
<polygon fill="none" stroke="black" points="348.95,-44 304.95,-44 304.95,0 348.95,0 348.95,-44"/>
<text text-anchor="middle" x="326.95" y="-18.3" font-family="Times,serif" font-size="14.00">null</text>
</g>
<!-- No_965115082&#45;&gt;NUL_4 -->
<g id="edge10" class="edge">
<title>No_965115082&#45;&gt;NUL_4</title>
<path fill="none" stroke="black" d="M314.13,-80.07C316.08,-71.39 318.14,-62.22 320.03,-53.83"/>
<polygon fill="black" stroke="black" points="323.45,-54.58 322.22,-44.06 316.62,-53.05 323.45,-54.58"/>
</g>
<!-- NUL_5 -->
<g id="node13" class="node">
<title>NUL_5</title>
<polygon fill="none" stroke="black" points="463.95,-44 419.95,-44 419.95,0 463.95,0 463.95,-44"/>
<text text-anchor="middle" x="441.95" y="-18.3" font-family="Times,serif" font-size="14.00">null</text>
</g>
<!-- No_975960513&#45;&gt;NUL_5 -->
<g id="edge12" class="edge">
<title>No_975960513&#45;&gt;NUL_5</title>
<path fill="none" stroke="black" d="M460.97,-80.34C458.05,-71.55 454.96,-62.23 452.14,-53.72"/>
<polygon fill="black" stroke="black" points="455.45,-52.57 448.98,-44.18 448.8,-54.77 455.45,-52.57"/>
</g>
<!-- NUL_6 -->
<g id="node14" class="node">
<title>NUL_6</title>
<polygon fill="none" stroke="black" points="525.95,-44 481.95,-44 481.95,0 525.95,0 525.95,-44"/>
<text text-anchor="middle" x="503.95" y="-18.3" font-family="Times,serif" font-size="14.00">null</text>
</g>
<!-- No_975960513&#45;&gt;NUL_6 -->
<g id="edge13" class="edge">
<title>No_975960513&#45;&gt;NUL_6</title>
<path fill="none" stroke="black" d="M484.94,-80.34C487.85,-71.55 490.94,-62.23 493.77,-53.72"/>
<polygon fill="black" stroke="black" points="497.1,-54.77 496.93,-44.18 490.46,-52.57 497.1,-54.77"/>
</g>
<!-- No_986979432 -->
<g id="node16" class="node">
<title>No_986979432</title>
<ellipse fill="none" stroke="black" cx="685.95" cy="-228.43" rx="107.46" ry="37.45"/>
<text text-anchor="middle" x="685.95" y="-239.73" font-family="Times,serif" font-size="14.00">Américo Rodrigues</text>
<text text-anchor="middle" x="685.95" y="-224.73" font-family="Times,serif" font-size="14.00">986979432</text>
<text text-anchor="middle" x="685.95" y="-209.73" font-family="Times,serif" font-size="14.00">fb=1</text>
</g>
<!-- No_987671978&#45;&gt;No_986979432 -->
<g id="edge15" class="edge">
<title>No_987671978&#45;&gt;No_986979432</title>
<path fill="none" stroke="black" d="M685.95,-301.8C685.95,-293.63 685.95,-284.85 685.95,-276.32"/>
<polygon fill="black" stroke="black" points="689.45,-276.1 685.95,-266.1 682.45,-276.1 689.45,-276.1"/>
</g>
<!-- No_997285865 -->
<g id="node21" class="node">
<title>No_997285865</title>
<ellipse fill="none" stroke="black" cx="941.95" cy="-228.43" rx="74.91" ry="37.45"/>
<text text-anchor="middle" x="941.95" y="-239.73" font-family="Times,serif" font-size="14.00">Almir Torres</text>
<text text-anchor="middle" x="941.95" y="-224.73" font-family="Times,serif" font-size="14.00">997285865</text>
<text text-anchor="middle" x="941.95" y="-209.73" font-family="Times,serif" font-size="14.00">fb=&#45;1</text>
</g>
<!-- No_987671978&#45;&gt;No_997285865 -->
<g id="edge20" class="edge">
<title>No_987671978&#45;&gt;No_997285865</title>
<path fill="none" stroke="black" d="M747.92,-312.01C786.83,-295.45 836.94,-274.12 876.5,-257.29"/>
<polygon fill="black" stroke="black" points="877.96,-260.47 885.79,-253.33 875.22,-254.03 877.96,-260.47"/>
</g>
<!-- NUL_7 -->
<g id="node17" class="node">
<title>NUL_7</title>
<polygon fill="none" stroke="black" points="608.95,-139.48 564.95,-139.48 564.95,-95.48 608.95,-95.48 608.95,-139.48"/>
<text text-anchor="middle" x="586.95" y="-113.78" font-family="Times,serif" font-size="14.00">null</text>
</g>
<!-- No_986979432&#45;&gt;NUL_7 -->
<g id="edge16" class="edge">
<title>No_986979432&#45;&gt;NUL_7</title>
<path fill="none" stroke="black" d="M652.74,-192.73C641.56,-180.86 629.1,-167.44 617.95,-154.95 615.79,-152.54 613.57,-150.01 611.36,-147.46"/>
<polygon fill="black" stroke="black" points="613.99,-145.14 604.81,-139.85 608.68,-149.71 613.99,-145.14"/>
</g>
<!-- No_987340734 -->
<g id="node18" class="node">
<title>No_987340734</title>
<ellipse fill="none" stroke="black" cx="725.95" cy="-117.48" rx="98.99" ry="37.45"/>
<text text-anchor="middle" x="725.95" y="-128.78" font-family="Times,serif" font-size="14.00">Antônia Machado</text>
<text text-anchor="middle" x="725.95" y="-113.78" font-family="Times,serif" font-size="14.00">987340734</text>
<text text-anchor="middle" x="725.95" y="-98.78" font-family="Times,serif" font-size="14.00">fb=0</text>
</g>
<!-- No_986979432&#45;&gt;No_987340734 -->
<g id="edge17" class="edge">
<title>No_986979432&#45;&gt;No_987340734</title>
<path fill="none" stroke="black" d="M699.27,-191.15C702.41,-182.6 705.8,-173.38 709.07,-164.47"/>
<polygon fill="black" stroke="black" points="712.39,-165.56 712.56,-154.97 705.82,-163.15 712.39,-165.56"/>
</g>
<!-- NUL_8 -->
<g id="node19" class="node">
<title>NUL_8</title>
<polygon fill="none" stroke="black" points="716.95,-44 672.95,-44 672.95,0 716.95,0 716.95,-44"/>
<text text-anchor="middle" x="694.95" y="-18.3" font-family="Times,serif" font-size="14.00">null</text>
</g>
<!-- No_987340734&#45;&gt;NUL_8 -->
<g id="edge18" class="edge">
<title>No_987340734&#45;&gt;NUL_8</title>
<path fill="none" stroke="black" d="M713.88,-80.07C710.97,-71.3 707.89,-62.02 705.08,-53.55"/>
<polygon fill="black" stroke="black" points="708.41,-52.45 701.94,-44.06 701.76,-54.65 708.41,-52.45"/>
</g>
<!-- NUL_9 -->
<g id="node20" class="node">
<title>NUL_9</title>
<polygon fill="none" stroke="black" points="778.95,-44 734.95,-44 734.95,0 778.95,0 778.95,-44"/>
<text text-anchor="middle" x="756.95" y="-18.3" font-family="Times,serif" font-size="14.00">null</text>
</g>
<!-- No_987340734&#45;&gt;NUL_9 -->
<g id="edge19" class="edge">
<title>No_987340734&#45;&gt;NUL_9</title>
<path fill="none" stroke="black" d="M738.03,-80.07C740.94,-71.3 744.01,-62.02 746.82,-53.55"/>
<polygon fill="black" stroke="black" points="750.14,-54.65 749.97,-44.06 743.5,-52.45 750.14,-54.65"/>
</g>
<!-- No_994116870 -->
<g id="node22" class="node">
<title>No_994116870</title>
<ellipse fill="none" stroke="black" cx="941.95" cy="-117.48" rx="98.99" ry="37.45"/>
<text text-anchor="middle" x="941.95" y="-128.78" font-family="Times,serif" font-size="14.00">Alexandra Moura</text>
<text text-anchor="middle" x="941.95" y="-113.78" font-family="Times,serif" font-size="14.00">994116870</text>
<text text-anchor="middle" x="941.95" y="-98.78" font-family="Times,serif" font-size="14.00">fb=0</text>
</g>
<!-- No_997285865&#45;&gt;No_994116870 -->
<g id="edge21" class="edge">
<title>No_997285865&#45;&gt;No_994116870</title>
<path fill="none" stroke="black" d="M941.95,-190.85C941.95,-182.67 941.95,-173.89 941.95,-165.37"/>
<polygon fill="black" stroke="black" points="945.45,-165.15 941.95,-155.15 938.45,-165.15 945.45,-165.15"/>
</g>
<!-- NUL_12 -->
<g id="node25" class="node">
<title>NUL_12</title>
<polygon fill="none" stroke="black" points="1102.95,-139.48 1058.95,-139.48 1058.95,-95.48 1102.95,-95.48 1102.95,-139.48"/>
<text text-anchor="middle" x="1080.95" y="-113.78" font-family="Times,serif" font-size="14.00">null</text>
</g>
<!-- No_997285865&#45;&gt;NUL_12 -->
<g id="edge24" class="edge">
<title>No_997285865&#45;&gt;NUL_12</title>
<path fill="none" stroke="black" d="M989.73,-199.4C1009.29,-186.92 1031.59,-171.34 1049.95,-154.95 1052.5,-152.68 1055.02,-150.21 1057.46,-147.64"/>
<polygon fill="black" stroke="black" points="1060.41,-149.61 1064.5,-139.83 1055.21,-144.92 1060.41,-149.61"/>
</g>
<!-- NUL_10 -->
<g id="node23" class="node">
<title>NUL_10</title>
<polygon fill="none" stroke="black" points="932.95,-44 888.95,-44 888.95,0 932.95,0 932.95,-44"/>
<text text-anchor="middle" x="910.95" y="-18.3" font-family="Times,serif" font-size="14.00">null</text>
</g>
<!-- No_994116870&#45;&gt;NUL_10 -->
<g id="edge22" class="edge">
<title>No_994116870&#45;&gt;NUL_10</title>
<path fill="none" stroke="black" d="M929.88,-80.07C926.97,-71.3 923.89,-62.02 921.08,-53.55"/>
<polygon fill="black" stroke="black" points="924.41,-52.45 917.94,-44.06 917.76,-54.65 924.41,-52.45"/>
</g>
<!-- NUL_11 -->
<g id="node24" class="node">
<title>NUL_11</title>
<polygon fill="none" stroke="black" points="994.95,-44 950.95,-44 950.95,0 994.95,0 994.95,-44"/>
<text text-anchor="middle" x="972.95" y="-18.3" font-family="Times,serif" font-size="14.00">null</text>
</g>
<!-- No_994116870&#45;&gt;NUL_11 -->
<g id="edge23" class="edge">
<title>No_994116870&#45;&gt;NUL_11</title>
<path fill="none" stroke="black" d="M954.03,-80.07C956.94,-71.3 960.01,-62.02 962.82,-53.55"/>
<polygon fill="black" stroke="black" points="966.14,-54.65 965.97,-44.06 959.5,-52.45 966.14,-54.65"/>
</g>
</g>
</svg>
