<?xml version="1.0" encoding="UTF-8" standalone="no"?>
<!DOCTYPE svg PUBLIC "-//W3C//DTD SVG 1.1//EN"
 "http://www.w3.org/Graphics/SVG/1.1/DTD/svg11.dtd">
<!-- Generated by graphviz version 2.43.0 (0)
 -->
<!-- Title: BST Pages: 1 -->
<svg width="1324pt" height="496pt"
 viewBox="0.00 0.00 1323.91 495.81" xmlns="http://www.w3.org/2000/svg" xmlns:xlink="http://www.w3.org/1999/xlink">
<g id="graph0" class="graph" transform="scale(1 1) rotate(0) translate(4 491.81)">
<title>BST</title>
<polygon fill="white" stroke="transparent" points="-4,4 -4,-491.81 1319.91,-491.81 1319.91,4 -4,4"/>
<!-- No_982632579 -->
<g id="node1" class="node">
<title>No_982632579</title>
<ellipse fill="none" stroke="black" cx="545.95" cy="-450.34" rx="69.09" ry="37.45"/>
<text text-anchor="middle" x="545.95" y="-461.64" font-family="Times,serif" font-size="14.00">Abel Costa</text>
<text text-anchor="middle" x="545.95" y="-446.64" font-family="Times,serif" font-size="14.00">982632579</text>
<text text-anchor="middle" x="545.95" y="-431.64" font-family="Times,serif" font-size="14.00">fb=0</text>
</g>
<!-- No_964642705 -->
<g id="node2" class="node">
<title>No_964642705</title>
<ellipse fill="none" stroke="black" cx="437.95" cy="-339.38" rx="78.48" ry="37.45"/>
<text text-anchor="middle" x="437.95" y="-350.68" font-family="Times,serif" font-size="14.00">Alícia Freitas</text>
<text text-anchor="middle" x="437.95" y="-335.68" font-family="Times,serif" font-size="14.00">964642705</text>
<text text-anchor="middle" x="437.95" y="-320.68" font-family="Times,serif" font-size="14.00">fb=0</text>
</g>
<!-- No_982632579&#45;&gt;No_964642705 -->
<g id="edge1" class="edge">
<title>No_982632579&#45;&gt;No_964642705</title>
<path fill="none" stroke="black" d="M513.84,-416.94C502.62,-405.62 489.87,-392.76 478.08,-380.86"/>
<polygon fill="black" stroke="black" points="480.4,-378.23 470.88,-373.6 475.43,-383.16 480.4,-378.23"/>
</g>
<!-- No_987671978 -->
<g id="node15" class="node">
<title>No_987671978</title>
<ellipse fill="none" stroke="black" cx="673.95" cy="-339.38" rx="90.52" ry="37.45"/>
<text text-anchor="middle" x="673.95" y="-350.68" font-family="Times,serif" font-size="14.00">Adriana Pereira</text>
<text text-anchor="middle" x="673.95" y="-335.68" font-family="Times,serif" font-size="14.00">987671978</text>
<text text-anchor="middle" x="673.95" y="-320.68" font-family="Times,serif" font-size="14.00">fb=0</text>
</g>
<!-- No_982632579&#45;&gt;No_987671978 -->
<g id="edge14" class="edge">
<title>No_982632579&#45;&gt;No_987671978</title>
<path fill="none" stroke="black" d="M582.29,-418.41C596.39,-406.41 612.71,-392.52 627.63,-379.81"/>
<polygon fill="black" stroke="black" points="629.94,-382.44 635.29,-373.29 625.41,-377.11 629.94,-382.44"/>
</g>
<!-- No_960933790 -->
<g id="node3" class="node">
<title>No_960933790</title>
<ellipse fill="none" stroke="black" cx="189.95" cy="-228.43" rx="85.62" ry="37.45"/>
<text text-anchor="middle" x="189.95" y="-239.73" font-family="Times,serif" font-size="14.00">Andrea Santos</text>
<text text-anchor="middle" x="189.95" y="-224.73" font-family="Times,serif" font-size="14.00">960933790</text>
<text text-anchor="middle" x="189.95" y="-209.73" font-family="Times,serif" font-size="14.00">fb=&#45;1</text>
</g>
<!-- No_964642705&#45;&gt;No_960933790 -->
<g id="edge2" class="edge">
<title>No_964642705&#45;&gt;No_960933790</title>
<path fill="none" stroke="black" d="M381.06,-313.39C344.8,-297.46 297.6,-276.72 259.18,-259.84"/>
<polygon fill="black" stroke="black" points="260.17,-256.46 249.61,-255.64 257.36,-262.86 260.17,-256.46"/>
</g>
<!-- No_967387182 -->
<g id="node8" class="node">
<title>No_967387182</title>
<ellipse fill="none" stroke="black" cx="437.95" cy="-228.43" rx="91.43" ry="37.45"/>
<text text-anchor="middle" x="437.95" y="-239.73" font-family="Times,serif" font-size="14.00">Alfredo Martins</text>
<text text-anchor="middle" x="437.95" y="-224.73" font-family="Times,serif" font-size="14.00">967387182</text>
<text text-anchor="middle" x="437.95" y="-209.73" font-family="Times,serif" font-size="14.00">fb=0</text>
</g>
<!-- No_964642705&#45;&gt;No_967387182 -->
<g id="edge7" class="edge">
<title>No_964642705&#45;&gt;No_967387182</title>
<path fill="none" stroke="black" d="M437.95,-301.8C437.95,-293.63 437.95,-284.85 437.95,-276.32"/>
<polygon fill="black" stroke="black" points="441.45,-276.1 437.95,-266.1 434.45,-276.1 441.45,-276.1"/>
</g>
<!-- No_955838599 -->
<g id="node4" class="node">
<title>No_955838599</title>
<ellipse fill="none" stroke="black" cx="74.95" cy="-117.48" rx="74.91" ry="37.45"/>
<text text-anchor="middle" x="74.95" y="-128.78" font-family="Times,serif" font-size="14.00">Aline Santos</text>
<text text-anchor="middle" x="74.95" y="-113.78" font-family="Times,serif" font-size="14.00">955838599</text>
<text text-anchor="middle" x="74.95" y="-98.78" font-family="Times,serif" font-size="14.00">fb=0</text>
</g>
<!-- No_960933790&#45;&gt;No_955838599 -->
<g id="edge3" class="edge">
<title>No_960933790&#45;&gt;No_955838599</title>
<path fill="none" stroke="black" d="M154.82,-194.15C142.9,-182.85 129.45,-170.11 117.04,-158.35"/>
<polygon fill="black" stroke="black" points="119.14,-155.52 109.47,-151.18 114.32,-160.6 119.14,-155.52"/>
</g>
<!-- NUL_2 -->
<g id="node7" class="node">
<title>NUL_2</title>
<polygon fill="none" stroke="black" points="211.95,-139.48 167.95,-139.48 167.95,-95.48 211.95,-95.48 211.95,-139.48"/>
<text text-anchor="middle" x="189.95" y="-113.78" font-family="Times,serif" font-size="14.00">null</text>
</g>
<!-- No_960933790&#45;&gt;NUL_2 -->
<g id="edge6" class="edge">
<title>No_960933790&#45;&gt;NUL_2</title>
<path fill="none" stroke="black" d="M189.95,-190.85C189.95,-177.52 189.95,-162.58 189.95,-149.75"/>
<polygon fill="black" stroke="black" points="193.45,-149.55 189.95,-139.55 186.45,-149.55 193.45,-149.55"/>
</g>
<!-- NUL_0 -->
<g id="node5" class="node">
<title>NUL_0</title>
<polygon fill="none" stroke="black" points="65.95,-44 21.95,-44 21.95,0 65.95,0 65.95,-44"/>
<text text-anchor="middle" x="43.95" y="-18.3" font-family="Times,serif" font-size="14.00">null</text>
</g>
<!-- No_955838599&#45;&gt;NUL_0 -->
<g id="edge4" class="edge">
<title>No_955838599&#45;&gt;NUL_0</title>
<path fill="none" stroke="black" d="M62.97,-80.34C60.05,-71.55 56.96,-62.23 54.14,-53.72"/>
<polygon fill="black" stroke="black" points="57.45,-52.57 50.98,-44.18 50.8,-54.77 57.45,-52.57"/>
</g>
<!-- NUL_1 -->
<g id="node6" class="node">
<title>NUL_1</title>
<polygon fill="none" stroke="black" points="127.95,-44 83.95,-44 83.95,0 127.95,0 127.95,-44"/>
<text text-anchor="middle" x="105.95" y="-18.3" font-family="Times,serif" font-size="14.00">null</text>
</g>
<!-- No_955838599&#45;&gt;NUL_1 -->
<g id="edge5" class="edge">
<title>No_955838599&#45;&gt;NUL_1</title>
<path fill="none" stroke="black" d="M86.94,-80.34C89.85,-71.55 92.94,-62.23 95.77,-53.72"/>
<polygon fill="black" stroke="black" points="99.1,-54.77 98.93,-44.18 92.46,-52.57 99.1,-54.77"/>
</g>
<!-- No_965115082 -->
<g id="node9" class="node">
<title>No_965115082</title>
<ellipse fill="none" stroke="black" cx="305.95" cy="-117.48" rx="75.82" ry="37.45"/>
<text text-anchor="middle" x="305.95" y="-128.78" font-family="Times,serif" font-size="14.00">Ana Barbosa</text>
<text text-anchor="middle" x="305.95" y="-113.78" font-family="Times,serif" font-size="14.00">965115082</text>
<text text-anchor="middle" x="305.95" y="-98.78" font-family="Times,serif" font-size="14.00">fb=0</text>
</g>
<!-- No_967387182&#45;&gt;No_965115082 -->
<g id="edge8" class="edge">
<title>No_967387182&#45;&gt;No_965115082</title>
<path fill="none" stroke="black" d="M397.99,-194.44C383.65,-182.61 367.35,-169.16 352.5,-156.9"/>
<polygon fill="black" stroke="black" points="354.36,-153.89 344.42,-150.23 349.91,-159.29 354.36,-153.89"/>
</g>
<!-- No_975960513 -->
<g id="node12" class="node">
<title>No_975960513</title>
<ellipse fill="none" stroke="black" cx="472.95" cy="-117.48" rx="73.58" ry="37.45"/>
<text text-anchor="middle" x="472.95" y="-128.78" font-family="Times,serif" font-size="14.00">Altair Souza</text>
<text text-anchor="middle" x="472.95" y="-113.78" font-family="Times,serif" font-size="14.00">975960513</text>
<text text-anchor="middle" x="472.95" y="-98.78" font-family="Times,serif" font-size="14.00">fb=0</text>
</g>
<!-- No_967387182&#45;&gt;No_975960513 -->
<g id="edge11" class="edge">
<title>No_967387182&#45;&gt;No_975960513</title>
<path fill="none" stroke="black" d="M449.61,-191.15C452.38,-182.51 455.38,-173.19 458.27,-164.19"/>
<polygon fill="black" stroke="black" points="461.62,-165.19 461.35,-154.6 454.96,-163.05 461.62,-165.19"/>
</g>
<!-- NUL_3 -->
<g id="node10" class="node">
<title>NUL_3</title>
<polygon fill="none" stroke="black" points="286.95,-44 242.95,-44 242.95,0 286.95,0 286.95,-44"/>
<text text-anchor="middle" x="264.95" y="-18.3" font-family="Times,serif" font-size="14.00">null</text>
</g>
<!-- No_965115082&#45;&gt;NUL_3 -->
<g id="edge9" class="edge">
<title>No_965115082&#45;&gt;NUL_3</title>
<path fill="none" stroke="black" d="M290.22,-80.6C286.28,-71.63 282.09,-62.08 278.29,-53.4"/>
<polygon fill="black" stroke="black" points="281.4,-51.79 274.18,-44.04 274.99,-54.6 281.4,-51.79"/>
</g>
<!-- NUL_4 -->
<g id="node11" class="node">
<title>NUL_4</title>
<polygon fill="none" stroke="black" points="348.95,-44 304.95,-44 304.95,0 348.95,0 348.95,-44"/>
<text text-anchor="middle" x="326.95" y="-18.3" font-family="Times,serif" font-size="14.00">null</text>
</g>
<!-- No_965115082&#45;&gt;NUL_4 -->
<g id="edge10" class="edge">
<title>No_965115082&#45;&gt;NUL_4</title>
<path fill="none" stroke="black" d="M314.13,-80.07C316.08,-71.39 318.14,-62.22 320.03,-53.83"/>
<polygon fill="black" stroke="black" points="323.45,-54.58 322.22,-44.06 316.62,-53.05 323.45,-54.58"/>
</g>
<!-- NUL_5 -->
<g id="node13" class="node">
<title>NUL_5</title>
<polygon fill="none" stroke="black" points="453.95,-44 409.95,-44 409.95,0 453.95,0 453.95,-44"/>
<text text-anchor="middle" x="431.95" y="-18.3" font-family="Times,serif" font-size="14.00">null</text>
</g>
<!-- No_975960513&#45;&gt;NUL_5 -->
<g id="edge12" class="edge">
<title>No_975960513&#45;&gt;NUL_5</title>
<path fill="none" stroke="black" d="M457.22,-80.6C453.28,-71.63 449.09,-62.08 445.29,-53.4"/>
<polygon fill="black" stroke="black" points="448.4,-51.79 441.18,-44.04 441.99,-54.6 448.4,-51.79"/>
</g>
<!-- NUL_6 -->
<g id="node14" class="node">
<title>NUL_6</title>
<polygon fill="none" stroke="black" points="515.95,-44 471.95,-44 471.95,0 515.95,0 515.95,-44"/>
<text text-anchor="middle" x="493.95" y="-18.3" font-family="Times,serif" font-size="14.00">null</text>
</g>
<!-- No_975960513&#45;&gt;NUL_6 -->
<g id="edge13" class="edge">
<title>No_975960513&#45;&gt;NUL_6</title>
<path fill="none" stroke="black" d="M481.13,-80.07C483.08,-71.39 485.14,-62.22 487.03,-53.83"/>
<polygon fill="black" stroke="black" points="490.45,-54.58 489.22,-44.06 483.62,-53.05 490.45,-54.58"/>
</g>
<!-- No_986979432 -->
<g id="node16" class="node">
<title>No_986979432</title>
<ellipse fill="none" stroke="black" cx="673.95" cy="-228.43" rx="107.46" ry="37.45"/>
<text text-anchor="middle" x="673.95" y="-239.73" font-family="Times,serif" font-size="14.00">Américo Rodrigues</text>
<text text-anchor="middle" x="673.95" y="-224.73" font-family="Times,serif" font-size="14.00">986979432</text>
<text text-anchor="middle" x="673.95" y="-209.73" font-family="Times,serif" font-size="14.00">fb=0</text>
</g>
<!-- No_987671978&#45;&gt;No_986979432 -->
<g id="edge15" class="edge">
<title>No_987671978&#45;&gt;No_986979432</title>
<path fill="none" stroke="black" d="M673.95,-301.8C673.95,-293.63 673.95,-284.85 673.95,-276.32"/>
<polygon fill="black" stroke="black" points="677.45,-276.1 673.95,-266.1 670.45,-276.1 677.45,-276.1"/>
</g>
<!-- No_996598918 -->
<g id="node23" class="node">
<title>No_996598918</title>
<ellipse fill="none" stroke="black" cx="1048.95" cy="-228.43" rx="69.09" ry="37.45"/>
<text text-anchor="middle" x="1048.95" y="-239.73" font-family="Times,serif" font-size="14.00">Ana Farias</text>
<text text-anchor="middle" x="1048.95" y="-224.73" font-family="Times,serif" font-size="14.00">996598918</text>
<text text-anchor="middle" x="1048.95" y="-209.73" font-family="Times,serif" font-size="14.00">fb=0</text>
</g>
<!-- No_987671978&#45;&gt;No_996598918 -->
<g id="edge22" class="edge">
<title>No_987671978&#45;&gt;No_996598918</title>
<path fill="none" stroke="black" d="M747.15,-317.12C814.15,-297.65 912.65,-269.03 978.71,-249.84"/>
<polygon fill="black" stroke="black" points="979.99,-253.11 988.62,-246.96 978.04,-246.39 979.99,-253.11"/>
</g>
<!-- No_985278999 -->
<g id="node17" class="node">
<title>No_985278999</title>
<ellipse fill="none" stroke="black" cx="639.95" cy="-117.48" rx="75.82" ry="37.45"/>
<text text-anchor="middle" x="639.95" y="-128.78" font-family="Times,serif" font-size="14.00">Acir Campos</text>
<text text-anchor="middle" x="639.95" y="-113.78" font-family="Times,serif" font-size="14.00">985278999</text>
<text text-anchor="middle" x="639.95" y="-98.78" font-family="Times,serif" font-size="14.00">fb=0</text>
</g>
<!-- No_986979432&#45;&gt;No_985278999 -->
<g id="edge16" class="edge">
<title>No_986979432&#45;&gt;No_985278999</title>
<path fill="none" stroke="black" d="M662.63,-191.15C659.94,-182.51 657.03,-173.19 654.22,-164.19"/>
<polygon fill="black" stroke="black" points="657.55,-163.1 651.23,-154.6 650.86,-165.19 657.55,-163.1"/>
</g>
<!-- No_987340734 -->
<g id="node20" class="node">
<title>No_987340734</title>
<ellipse fill="none" stroke="black" cx="832.95" cy="-117.48" rx="98.99" ry="37.45"/>
<text text-anchor="middle" x="832.95" y="-128.78" font-family="Times,serif" font-size="14.00">Antônia Machado</text>
<text text-anchor="middle" x="832.95" y="-113.78" font-family="Times,serif" font-size="14.00">987340734</text>
<text text-anchor="middle" x="832.95" y="-98.78" font-family="Times,serif" font-size="14.00">fb=0</text>
</g>
<!-- No_986979432&#45;&gt;No_987340734 -->
<g id="edge19" class="edge">
<title>No_986979432&#45;&gt;No_987340734</title>
<path fill="none" stroke="black" d="M721.66,-194.74C739.35,-182.62 759.55,-168.77 777.85,-156.24"/>
<polygon fill="black" stroke="black" points="779.83,-159.12 786.1,-150.58 775.88,-153.35 779.83,-159.12"/>
</g>
<!-- NUL_7 -->
<g id="node18" class="node">
<title>NUL_7</title>
<polygon fill="none" stroke="black" points="630.95,-44 586.95,-44 586.95,0 630.95,0 630.95,-44"/>
<text text-anchor="middle" x="608.95" y="-18.3" font-family="Times,serif" font-size="14.00">null</text>
</g>
<!-- No_985278999&#45;&gt;NUL_7 -->
<g id="edge17" class="edge">
<title>No_985278999&#45;&gt;NUL_7</title>
<path fill="none" stroke="black" d="M627.97,-80.34C625.05,-71.55 621.96,-62.23 619.14,-53.72"/>
<polygon fill="black" stroke="black" points="622.45,-52.57 615.98,-44.18 615.8,-54.77 622.45,-52.57"/>
</g>
<!-- NUL_8 -->
<g id="node19" class="node">
<title>NUL_8</title>
<polygon fill="none" stroke="black" points="692.95,-44 648.95,-44 648.95,0 692.95,0 692.95,-44"/>
<text text-anchor="middle" x="670.95" y="-18.3" font-family="Times,serif" font-size="14.00">null</text>
</g>
<!-- No_985278999&#45;&gt;NUL_8 -->
<g id="edge18" class="edge">
<title>No_985278999&#45;&gt;NUL_8</title>
<path fill="none" stroke="black" d="M651.94,-80.34C654.85,-71.55 657.94,-62.23 660.77,-53.72"/>
<polygon fill="black" stroke="black" points="664.1,-54.77 663.93,-44.18 657.46,-52.57 664.1,-54.77"/>
</g>
<!-- NUL_9 -->
<g id="node21" class="node">
<title>NUL_9</title>
<polygon fill="none" stroke="black" points="823.95,-44 779.95,-44 779.95,0 823.95,0 823.95,-44"/>
<text text-anchor="middle" x="801.95" y="-18.3" font-family="Times,serif" font-size="14.00">null</text>
</g>
<!-- No_987340734&#45;&gt;NUL_9 -->
<g id="edge20" class="edge">
<title>No_987340734&#45;&gt;NUL_9</title>
<path fill="none" stroke="black" d="M820.88,-80.07C817.97,-71.3 814.89,-62.02 812.08,-53.55"/>
<polygon fill="black" stroke="black" points="815.41,-52.45 808.94,-44.06 808.76,-54.65 815.41,-52.45"/>
</g>
<!-- NUL_10 -->
<g id="node22" class="node">
<title>NUL_10</title>
<polygon fill="none" stroke="black" points="885.95,-44 841.95,-44 841.95,0 885.95,0 885.95,-44"/>
<text text-anchor="middle" x="863.95" y="-18.3" font-family="Times,serif" font-size="14.00">null</text>
</g>
<!-- No_987340734&#45;&gt;NUL_10 -->
<g id="edge21" class="edge">
<title>No_987340734&#45;&gt;NUL_10</title>
<path fill="none" stroke="black" d="M845.03,-80.07C847.94,-71.3 851.01,-62.02 853.82,-53.55"/>
<polygon fill="black" stroke="black" points="857.14,-54.65 856.97,-44.06 850.5,-52.45 857.14,-54.65"/>
</g>
<!-- No_994116870 -->
<g id="node24" class="node">
<title>No_994116870</title>
<ellipse fill="none" stroke="black" cx="1048.95" cy="-117.48" rx="98.99" ry="37.45"/>
<text text-anchor="middle" x="1048.95" y="-128.78" font-family="Times,serif" font-size="14.00">Alexandra Moura</text>
<text text-anchor="middle" x="1048.95" y="-113.78" font-family="Times,serif" font-size="14.00">994116870</text>
<text text-anchor="middle" x="1048.95" y="-98.78" font-family="Times,serif" font-size="14.00">fb=0</text>
</g>
<!-- No_996598918&#45;&gt;No_994116870 -->
<g id="edge23" class="edge">
<title>No_996598918&#45;&gt;No_994116870</title>
<path fill="none" stroke="black" d="M1048.95,-190.85C1048.95,-182.67 1048.95,-173.89 1048.95,-165.37"/>
<polygon fill="black" stroke="black" points="1052.45,-165.15 1048.95,-155.15 1045.45,-165.15 1052.45,-165.15"/>
</g>
<!-- No_997285865 -->
<g id="node27" class="node">
<title>No_997285865</title>
<ellipse fill="none" stroke="black" cx="1240.95" cy="-117.48" rx="74.91" ry="37.45"/>
<text text-anchor="middle" x="1240.95" y="-128.78" font-family="Times,serif" font-size="14.00">Almir Torres</text>
<text text-anchor="middle" x="1240.95" y="-113.78" font-family="Times,serif" font-size="14.00">997285865</text>
<text text-anchor="middle" x="1240.95" y="-98.78" font-family="Times,serif" font-size="14.00">fb=0</text>
</g>
<!-- No_996598918&#45;&gt;No_997285865 -->
<g id="edge26" class="edge">
<title>No_996598918&#45;&gt;No_997285865</title>
<path fill="none" stroke="black" d="M1095.92,-200.78C1122.27,-185.83 1155.35,-167.05 1183.26,-151.21"/>
<polygon fill="black" stroke="black" points="1185.16,-154.16 1192.13,-146.18 1181.7,-148.07 1185.16,-154.16"/>
</g>
<!-- NUL_11 -->
<g id="node25" class="node">
<title>NUL_11</title>
<polygon fill="none" stroke="black" points="1039.95,-44 995.95,-44 995.95,0 1039.95,0 1039.95,-44"/>
<text text-anchor="middle" x="1017.95" y="-18.3" font-family="Times,serif" font-size="14.00">null</text>
</g>
<!-- No_994116870&#45;&gt;NUL_11 -->
<g id="edge24" class="edge">
<title>No_994116870&#45;&gt;NUL_11</title>
<path fill="none" stroke="black" d="M1036.88,-80.07C1033.97,-71.3 1030.89,-62.02 1028.08,-53.55"/>
<polygon fill="black" stroke="black" points="1031.41,-52.45 1024.94,-44.06 1024.76,-54.65 1031.41,-52.45"/>
</g>
<!-- NUL_12 -->
<g id="node26" class="node">
<title>NUL_12</title>
<polygon fill="none" stroke="black" points="1101.95,-44 1057.95,-44 1057.95,0 1101.95,0 1101.95,-44"/>
<text text-anchor="middle" x="1079.95" y="-18.3" font-family="Times,serif" font-size="14.00">null</text>
</g>
<!-- No_994116870&#45;&gt;NUL_12 -->
<g id="edge25" class="edge">
<title>No_994116870&#45;&gt;NUL_12</title>
<path fill="none" stroke="black" d="M1061.03,-80.07C1063.94,-71.3 1067.01,-62.02 1069.82,-53.55"/>
<polygon fill="black" stroke="black" points="1073.14,-54.65 1072.97,-44.06 1066.5,-52.45 1073.14,-54.65"/>
</g>
<!-- NUL_13 -->
<g id="node28" class="node">
<title>NUL_13</title>
<polygon fill="none" stroke="black" points="1231.95,-44 1187.95,-44 1187.95,0 1231.95,0 1231.95,-44"/>
<text text-anchor="middle" x="1209.95" y="-18.3" font-family="Times,serif" font-size="14.00">null</text>
</g>
<!-- No_997285865&#45;&gt;NUL_13 -->
<g id="edge27" class="edge">
<title>No_997285865&#45;&gt;NUL_13</title>
<path fill="none" stroke="black" d="M1228.97,-80.34C1226.05,-71.55 1222.96,-62.23 1220.14,-53.72"/>
<polygon fill="black" stroke="black" points="1223.45,-52.57 1216.98,-44.18 1216.8,-54.77 1223.45,-52.57"/>
</g>
<!-- NUL_14 -->
<g id="node29" class="node">
<title>NUL_14</title>
<polygon fill="none" stroke="black" points="1293.95,-44 1249.95,-44 1249.95,0 1293.95,0 1293.95,-44"/>
<text text-anchor="middle" x="1271.95" y="-18.3" font-family="Times,serif" font-size="14.00">null</text>
</g>
<!-- No_997285865&#45;&gt;NUL_14 -->
<g id="edge28" class="edge">
<title>No_997285865&#45;&gt;NUL_14</title>
<path fill="none" stroke="black" d="M1252.94,-80.34C1255.85,-71.55 1258.94,-62.23 1261.77,-53.72"/>
<polygon fill="black" stroke="black" points="1265.1,-54.77 1264.93,-44.18 1258.46,-52.57 1265.1,-54.77"/>
</g>
</g>
</svg>
