<?xml version="1.0" encoding="UTF-8" standalone="no"?>
<!DOCTYPE svg PUBLIC "-//W3C//DTD SVG 1.1//EN"
 "http://www.w3.org/Graphics/SVG/1.1/DTD/svg11.dtd">
<!-- Generated by graphviz version 2.43.0 (0)
 -->
<!-- Title: BST Pages: 1 -->
<svg width="437pt" height="385pt"
 viewBox="0.00 0.00 436.51 384.86" xmlns="http://www.w3.org/2000/svg" xmlns:xlink="http://www.w3.org/1999/xlink">
<g id="graph0" class="graph" transform="scale(1 1) rotate(0) translate(4 380.86)">
<title>BST</title>
<polygon fill="white" stroke="transparent" points="-4,4 -4,-380.86 432.51,-380.86 432.51,4 -4,4"/>
<!-- No_985278999 -->
<g id="node1" class="node">
<title>No_985278999</title>
<ellipse fill="none" stroke="black" cx="268.56" cy="-339.38" rx="75.82" ry="37.45"/>
<text text-anchor="middle" x="268.56" y="-350.68" font-family="Times,serif" font-size="14.00">Acir Campos</text>
<text text-anchor="middle" x="268.56" y="-335.68" font-family="Times,serif" font-size="14.00">985278999</text>
<text text-anchor="middle" x="268.56" y="-320.68" font-family="Times,serif" font-size="14.00">fb=&#45;1</text>
</g>
<!-- No_965115082 -->
<g id="node2" class="node">
<title>No_965115082</title>
<ellipse fill="none" stroke="black" cx="184.56" cy="-228.43" rx="75.82" ry="37.45"/>
<text text-anchor="middle" x="184.56" y="-239.73" font-family="Times,serif" font-size="14.00">Ana Barbosa</text>
<text text-anchor="middle" x="184.56" y="-224.73" font-family="Times,serif" font-size="14.00">965115082</text>
<text text-anchor="middle" x="184.56" y="-209.73" font-family="Times,serif" font-size="14.00">fb=&#45;1</text>
</g>
<!-- No_985278999&#45;&gt;No_965115082 -->
<g id="edge1" class="edge">
<title>No_985278999&#45;&gt;No_965115082</title>
<path fill="none" stroke="black" d="M242.21,-304.21C234.31,-293.96 225.55,-282.6 217.3,-271.89"/>
<polygon fill="black" stroke="black" points="219.98,-269.64 211.1,-263.86 214.44,-273.91 219.98,-269.64"/>
</g>
<!-- No_997285865 -->
<g id="node7" class="node">
<title>No_997285865</title>
<ellipse fill="none" stroke="black" cx="353.56" cy="-228.43" rx="74.91" ry="37.45"/>
<text text-anchor="middle" x="353.56" y="-239.73" font-family="Times,serif" font-size="14.00">Almir Torres</text>
<text text-anchor="middle" x="353.56" y="-224.73" font-family="Times,serif" font-size="14.00">997285865</text>
<text text-anchor="middle" x="353.56" y="-209.73" font-family="Times,serif" font-size="14.00">fb=0</text>
</g>
<!-- No_985278999&#45;&gt;No_997285865 -->
<g id="edge6" class="edge">
<title>No_985278999&#45;&gt;No_997285865</title>
<path fill="none" stroke="black" d="M295.22,-304.21C303.29,-293.86 312.25,-282.38 320.68,-271.58"/>
<polygon fill="black" stroke="black" points="323.6,-273.52 326.99,-263.48 318.08,-269.21 323.6,-273.52"/>
</g>
<!-- No_960933790 -->
<g id="node3" class="node">
<title>No_960933790</title>
<ellipse fill="none" stroke="black" cx="85.56" cy="-117.48" rx="85.62" ry="37.45"/>
<text text-anchor="middle" x="85.56" y="-128.78" font-family="Times,serif" font-size="14.00">Andrea Santos</text>
<text text-anchor="middle" x="85.56" y="-113.78" font-family="Times,serif" font-size="14.00">960933790</text>
<text text-anchor="middle" x="85.56" y="-98.78" font-family="Times,serif" font-size="14.00">fb=0</text>
</g>
<!-- No_965115082&#45;&gt;No_960933790 -->
<g id="edge2" class="edge">
<title>No_965115082&#45;&gt;No_960933790</title>
<path fill="none" stroke="black" d="M154.05,-193.85C144.36,-183.18 133.52,-171.25 123.37,-160.09"/>
<polygon fill="black" stroke="black" points="125.8,-157.56 116.48,-152.51 120.62,-162.26 125.8,-157.56"/>
</g>
<!-- NUL_2 -->
<g id="node6" class="node">
<title>NUL_2</title>
<polygon fill="none" stroke="black" points="233.56,-139.48 189.56,-139.48 189.56,-95.48 233.56,-95.48 233.56,-139.48"/>
<text text-anchor="middle" x="211.56" y="-113.78" font-family="Times,serif" font-size="14.00">null</text>
</g>
<!-- No_965115082&#45;&gt;NUL_2 -->
<g id="edge5" class="edge">
<title>No_965115082&#45;&gt;NUL_2</title>
<path fill="none" stroke="black" d="M193.55,-191.15C196.89,-177.67 200.65,-162.51 203.86,-149.53"/>
<polygon fill="black" stroke="black" points="207.3,-150.22 206.31,-139.67 200.5,-148.54 207.3,-150.22"/>
</g>
<!-- NUL_0 -->
<g id="node4" class="node">
<title>NUL_0</title>
<polygon fill="none" stroke="black" points="76.56,-44 32.56,-44 32.56,0 76.56,0 76.56,-44"/>
<text text-anchor="middle" x="54.56" y="-18.3" font-family="Times,serif" font-size="14.00">null</text>
</g>
<!-- No_960933790&#45;&gt;NUL_0 -->
<g id="edge3" class="edge">
<title>No_960933790&#45;&gt;NUL_0</title>
<path fill="none" stroke="black" d="M73.57,-80.34C70.66,-71.55 67.57,-62.23 64.75,-53.72"/>
<polygon fill="black" stroke="black" points="68.05,-52.57 61.58,-44.18 61.41,-54.77 68.05,-52.57"/>
</g>
<!-- NUL_1 -->
<g id="node5" class="node">
<title>NUL_1</title>
<polygon fill="none" stroke="black" points="138.56,-44 94.56,-44 94.56,0 138.56,0 138.56,-44"/>
<text text-anchor="middle" x="116.56" y="-18.3" font-family="Times,serif" font-size="14.00">null</text>
</g>
<!-- No_960933790&#45;&gt;NUL_1 -->
<g id="edge4" class="edge">
<title>No_960933790&#45;&gt;NUL_1</title>
<path fill="none" stroke="black" d="M97.55,-80.34C100.46,-71.55 103.55,-62.23 106.37,-53.72"/>
<polygon fill="black" stroke="black" points="109.71,-54.77 109.54,-44.18 103.07,-52.57 109.71,-54.77"/>
</g>
<!-- NUL_3 -->
<g id="node8" class="node">
<title>NUL_3</title>
<polygon fill="none" stroke="black" points="348.56,-139.48 304.56,-139.48 304.56,-95.48 348.56,-95.48 348.56,-139.48"/>
<text text-anchor="middle" x="326.56" y="-113.78" font-family="Times,serif" font-size="14.00">null</text>
</g>
<!-- No_997285865&#45;&gt;NUL_3 -->
<g id="edge7" class="edge">
<title>No_997285865&#45;&gt;NUL_3</title>
<path fill="none" stroke="black" d="M344.57,-191.15C341.23,-177.67 337.47,-162.51 334.26,-149.53"/>
<polygon fill="black" stroke="black" points="337.62,-148.54 331.81,-139.67 330.82,-150.22 337.62,-148.54"/>
</g>
<!-- NUL_4 -->
<g id="node9" class="node">
<title>NUL_4</title>
<polygon fill="none" stroke="black" points="410.56,-139.48 366.56,-139.48 366.56,-95.48 410.56,-95.48 410.56,-139.48"/>
<text text-anchor="middle" x="388.56" y="-113.78" font-family="Times,serif" font-size="14.00">null</text>
</g>
<!-- No_997285865&#45;&gt;NUL_4 -->
<g id="edge8" class="edge">
<title>No_997285865&#45;&gt;NUL_4</title>
<path fill="none" stroke="black" d="M365.21,-191.15C369.55,-177.67 374.42,-162.51 378.58,-149.53"/>
<polygon fill="black" stroke="black" points="382.02,-150.27 381.75,-139.67 375.36,-148.12 382.02,-150.27"/>
</g>
</g>
</svg>
