<?xml version="1.0" encoding="UTF-8" standalone="no"?>
<!DOCTYPE svg PUBLIC "-//W3C//DTD SVG 1.1//EN"
 "http://www.w3.org/Graphics/SVG/1.1/DTD/svg11.dtd">
<!-- Generated by graphviz version 2.43.0 (0)
 -->
<!-- Title: BST Pages: 1 -->
<svg width="552pt" height="188pt"
 viewBox="0.00 0.00 551.58 188.00" xmlns="http://www.w3.org/2000/svg" xmlns:xlink="http://www.w3.org/1999/xlink">
<g id="graph0" class="graph" transform="scale(1 1) rotate(0) translate(4 184)">
<title>BST</title>
<polygon fill="white" stroke="transparent" points="-4,4 -4,-184 547.58,-184 547.58,4 -4,4"/>
<!-- Carlos Freitas,990940187 -->
<g id="node1" class="node">
<title>Carlos Freitas,990940187</title>
<ellipse fill="none" stroke="black" cx="271.94" cy="-162" rx="131.88" ry="18"/>
<text text-anchor="middle" x="271.94" y="-158.3" font-family="Times,serif" font-size="14.00">Carlos Freitas,990940187</text>
</g>
<!-- Carlos Freitas,990775211 -->
<g id="node2" class="node">
<title>Carlos Freitas,990775211</title>
<ellipse fill="none" stroke="black" cx="131.94" cy="-90" rx="131.88" ry="18"/>
<text text-anchor="middle" x="131.94" y="-86.3" font-family="Times,serif" font-size="14.00">Carlos Freitas,990775211</text>
</g>
<!-- Carlos Freitas,990940187&#45;&gt;Carlos Freitas,990775211 -->
<g id="edge1" class="edge">
<title>Carlos Freitas,990940187&#45;&gt;Carlos Freitas,990775211</title>
<path fill="none" stroke="black" d="M238.76,-144.41C219.41,-134.73 194.8,-122.43 174.09,-112.08"/>
<polygon fill="black" stroke="black" points="175.39,-108.81 164.88,-107.47 172.26,-115.07 175.39,-108.81"/>
</g>
<!-- Carlos Coelho,991472947 -->
<g id="node4" class="node">
<title>Carlos Coelho,991472947</title>
<ellipse fill="none" stroke="black" cx="412.94" cy="-90" rx="130.78" ry="18"/>
<text text-anchor="middle" x="412.94" y="-86.3" font-family="Times,serif" font-size="14.00">Carlos Coelho,991472947</text>
</g>
<!-- Carlos Freitas,990940187&#45;&gt;Carlos Coelho,991472947 -->
<g id="edge3" class="edge">
<title>Carlos Freitas,990940187&#45;&gt;Carlos Coelho,991472947</title>
<path fill="none" stroke="black" d="M305.35,-144.41C324.93,-134.69 349.85,-122.32 370.77,-111.94"/>
<polygon fill="black" stroke="black" points="372.36,-115.05 379.76,-107.47 369.25,-108.78 372.36,-115.05"/>
</g>
<!-- Carlos Costa,984972895 -->
<g id="node3" class="node">
<title>Carlos Costa,984972895</title>
<ellipse fill="none" stroke="black" cx="131.94" cy="-18" rx="125.38" ry="18"/>
<text text-anchor="middle" x="131.94" y="-14.3" font-family="Times,serif" font-size="14.00">Carlos Costa,984972895</text>
</g>
<!-- Carlos Freitas,990775211&#45;&gt;Carlos Costa,984972895 -->
<g id="edge2" class="edge">
<title>Carlos Freitas,990775211&#45;&gt;Carlos Costa,984972895</title>
<path fill="none" stroke="black" d="M131.94,-71.7C131.94,-63.98 131.94,-54.71 131.94,-46.11"/>
<polygon fill="black" stroke="black" points="135.44,-46.1 131.94,-36.1 128.44,-46.1 135.44,-46.1"/>
</g>
</g>
</svg>
