<?xml version="1.0" encoding="UTF-8" standalone="no"?>
<!DOCTYPE svg PUBLIC "-//W3C//DTD SVG 1.1//EN"
 "http://www.w3.org/Graphics/SVG/1.1/DTD/svg11.dtd">
<!-- Generated by graphviz version 2.43.0 (0)
 -->
<!-- Title: BST Pages: 1 -->
<svg width="252pt" height="188pt"
 viewBox="0.00 0.00 252.38 188.00" xmlns="http://www.w3.org/2000/svg" xmlns:xlink="http://www.w3.org/1999/xlink">
<g id="graph0" class="graph" transform="scale(1 1) rotate(0) translate(4 184)">
<title>BST</title>
<polygon fill="white" stroke="transparent" points="-4,4 -4,-184 248.38,-184 248.38,4 -4,4"/>
<!-- João Pereira,979323293 -->
<g id="node1" class="node">
<title>João Pereira,979323293</title>
<ellipse fill="none" stroke="black" cx="122.19" cy="-162" rx="122.38" ry="18"/>
<text text-anchor="middle" x="122.19" y="-158.3" font-family="Times,serif" font-size="14.00">João Pereira,979323293</text>
</g>
<!-- João Souza,970206539 -->
<g id="node2" class="node">
<title>João Souza,970206539</title>
<ellipse fill="none" stroke="black" cx="122.19" cy="-90" rx="116.18" ry="18"/>
<text text-anchor="middle" x="122.19" y="-86.3" font-family="Times,serif" font-size="14.00">João Souza,970206539</text>
</g>
<!-- João Pereira,979323293&#45;&gt;João Souza,970206539 -->
<g id="edge1" class="edge">
<title>João Pereira,979323293&#45;&gt;João Souza,970206539</title>
<path fill="none" stroke="black" d="M122.19,-143.7C122.19,-135.98 122.19,-126.71 122.19,-118.11"/>
<polygon fill="black" stroke="black" points="125.69,-118.1 122.19,-108.1 118.69,-118.1 125.69,-118.1"/>
</g>
<!-- João Moura,971483101 -->
<g id="node3" class="node">
<title>João Moura,971483101</title>
<ellipse fill="none" stroke="black" cx="122.19" cy="-18" rx="118.88" ry="18"/>
<text text-anchor="middle" x="122.19" y="-14.3" font-family="Times,serif" font-size="14.00">João Moura,971483101</text>
</g>
<!-- João Souza,970206539&#45;&gt;João Moura,971483101 -->
<g id="edge2" class="edge">
<title>João Souza,970206539&#45;&gt;João Moura,971483101</title>
<path fill="none" stroke="black" d="M122.19,-71.7C122.19,-63.98 122.19,-54.71 122.19,-46.11"/>
<polygon fill="black" stroke="black" points="125.69,-46.1 122.19,-36.1 118.69,-46.1 125.69,-46.1"/>
</g>
</g>
</svg>
