<?xml version="1.0" encoding="UTF-8" standalone="no"?>
<!DOCTYPE svg PUBLIC "-//W3C//DTD SVG 1.1//EN"
 "http://www.w3.org/Graphics/SVG/1.1/DTD/svg11.dtd">
<!-- Generated by graphviz version 2.43.0 (0)
 -->
<!-- Title: BST Pages: 1 -->
<svg width="1769pt" height="332pt"
 viewBox="0.00 0.00 1768.87 332.00" xmlns="http://www.w3.org/2000/svg" xmlns:xlink="http://www.w3.org/1999/xlink">
<g id="graph0" class="graph" transform="scale(1 1) rotate(0) translate(4 328)">
<title>BST</title>
<polygon fill="white" stroke="transparent" points="-4,4 -4,-328 1764.87,-328 1764.87,4 -4,4"/>
<!-- Luciano Moura,986476438 -->
<g id="node1" class="node">
<title>Luciano Moura,986476438</title>
<ellipse fill="none" stroke="black" cx="776.99" cy="-306" rx="135.68" ry="18"/>
<text text-anchor="middle" x="776.99" y="-302.3" font-family="Times,serif" font-size="14.00">Luciano Moura,986476438</text>
</g>
<!-- Luciano Barbosa,957188337 -->
<g id="node2" class="node">
<title>Luciano Barbosa,957188337</title>
<ellipse fill="none" stroke="black" cx="626.99" cy="-234" rx="143.77" ry="18"/>
<text text-anchor="middle" x="626.99" y="-230.3" font-family="Times,serif" font-size="14.00">Luciano Barbosa,957188337</text>
</g>
<!-- Luciano Moura,986476438&#45;&gt;Luciano Barbosa,957188337 -->
<g id="edge1" class="edge">
<title>Luciano Moura,986476438&#45;&gt;Luciano Barbosa,957188337</title>
<path fill="none" stroke="black" d="M741.82,-288.59C720.91,-278.83 694.17,-266.35 671.76,-255.9"/>
<polygon fill="black" stroke="black" points="673,-252.61 662.46,-251.55 670.04,-258.95 673,-252.61"/>
</g>
<!-- Luiz Silva,996877113 -->
<g id="node11" class="node">
<title>Luiz Silva,996877113</title>
<ellipse fill="none" stroke="black" cx="1000.99" cy="-234" rx="111.58" ry="18"/>
<text text-anchor="middle" x="1000.99" y="-230.3" font-family="Times,serif" font-size="14.00">Luiz Silva,996877113</text>
</g>
<!-- Luciano Moura,986476438&#45;&gt;Luiz Silva,996877113 -->
<g id="edge10" class="edge">
<title>Luciano Moura,986476438&#45;&gt;Luiz Silva,996877113</title>
<path fill="none" stroke="black" d="M827.54,-289.2C861.62,-278.55 906.71,-264.46 942.37,-253.32"/>
<polygon fill="black" stroke="black" points="943.66,-256.58 952.16,-250.26 941.57,-249.9 943.66,-256.58"/>
</g>
<!-- Luiz Souza,955830623 -->
<g id="node3" class="node">
<title>Luiz Souza,955830623</title>
<ellipse fill="none" stroke="black" cx="216.99" cy="-162" rx="116.18" ry="18"/>
<text text-anchor="middle" x="216.99" y="-158.3" font-family="Times,serif" font-size="14.00">Luiz Souza,955830623</text>
</g>
<!-- Luciano Barbosa,957188337&#45;&gt;Luiz Souza,955830623 -->
<g id="edge2" class="edge">
<title>Luciano Barbosa,957188337&#45;&gt;Luiz Souza,955830623</title>
<path fill="none" stroke="black" d="M545.49,-219.09C475.01,-207.05 373.48,-189.72 301.99,-177.51"/>
<polygon fill="black" stroke="black" points="302.56,-174.06 292.11,-175.83 301.38,-180.96 302.56,-174.06"/>
</g>
<!-- Luciano Alves,966049029 -->
<g id="node5" class="node">
<title>Luciano Alves,966049029</title>
<ellipse fill="none" stroke="black" cx="626.99" cy="-162" rx="129.98" ry="18"/>
<text text-anchor="middle" x="626.99" y="-158.3" font-family="Times,serif" font-size="14.00">Luciano Alves,966049029</text>
</g>
<!-- Luciano Barbosa,957188337&#45;&gt;Luciano Alves,966049029 -->
<g id="edge4" class="edge">
<title>Luciano Barbosa,957188337&#45;&gt;Luciano Alves,966049029</title>
<path fill="none" stroke="black" d="M626.99,-215.7C626.99,-207.98 626.99,-198.71 626.99,-190.11"/>
<polygon fill="black" stroke="black" points="630.49,-190.1 626.99,-180.1 623.49,-190.1 630.49,-190.1"/>
</g>
<!-- Leonardo Moura,952857172 -->
<g id="node4" class="node">
<title>Leonardo Moura,952857172</title>
<ellipse fill="none" stroke="black" cx="142.99" cy="-90" rx="142.97" ry="18"/>
<text text-anchor="middle" x="142.99" y="-86.3" font-family="Times,serif" font-size="14.00">Leonardo Moura,952857172</text>
</g>
<!-- Luiz Souza,955830623&#45;&gt;Leonardo Moura,952857172 -->
<g id="edge3" class="edge">
<title>Luiz Souza,955830623&#45;&gt;Leonardo Moura,952857172</title>
<path fill="none" stroke="black" d="M199.07,-144.05C189.87,-135.35 178.5,-124.59 168.4,-115.04"/>
<polygon fill="black" stroke="black" points="170.66,-112.36 160.99,-108.03 165.85,-117.45 170.66,-112.36"/>
</g>
<!-- Luciano Alves,958295711 -->
<g id="node6" class="node">
<title>Luciano Alves,958295711</title>
<ellipse fill="none" stroke="black" cx="433.99" cy="-90" rx="129.98" ry="18"/>
<text text-anchor="middle" x="433.99" y="-86.3" font-family="Times,serif" font-size="14.00">Luciano Alves,958295711</text>
</g>
<!-- Luciano Alves,966049029&#45;&gt;Luciano Alves,958295711 -->
<g id="edge5" class="edge">
<title>Luciano Alves,966049029&#45;&gt;Luciano Alves,958295711</title>
<path fill="none" stroke="black" d="M582.71,-144.94C554.39,-134.67 517.49,-121.28 487.52,-110.42"/>
<polygon fill="black" stroke="black" points="488.65,-107.1 478.06,-106.98 486.27,-113.68 488.65,-107.1"/>
</g>
<!-- Luciano Porto,984121948 -->
<g id="node9" class="node">
<title>Luciano Porto,984121948</title>
<ellipse fill="none" stroke="black" cx="711.99" cy="-90" rx="129.98" ry="18"/>
<text text-anchor="middle" x="711.99" y="-86.3" font-family="Times,serif" font-size="14.00">Luciano Porto,984121948</text>
</g>
<!-- Luciano Alves,966049029&#45;&gt;Luciano Porto,984121948 -->
<g id="edge8" class="edge">
<title>Luciano Alves,966049029&#45;&gt;Luciano Porto,984121948</title>
<path fill="none" stroke="black" d="M647.56,-144.05C658.42,-135.11 671.91,-124.01 683.73,-114.27"/>
<polygon fill="black" stroke="black" points="686.11,-116.85 691.6,-107.79 681.66,-111.44 686.11,-116.85"/>
</g>
<!-- Lucas Machado,957445164 -->
<g id="node7" class="node">
<title>Lucas Machado,957445164</title>
<ellipse fill="none" stroke="black" cx="142.99" cy="-18" rx="137.58" ry="18"/>
<text text-anchor="middle" x="142.99" y="-14.3" font-family="Times,serif" font-size="14.00">Lucas Machado,957445164</text>
</g>
<!-- Luciano Alves,958295711&#45;&gt;Lucas Machado,957445164 -->
<g id="edge6" class="edge">
<title>Luciano Alves,958295711&#45;&gt;Lucas Machado,957445164</title>
<path fill="none" stroke="black" d="M372.27,-74.15C326.39,-63.12 263.63,-48.02 215.37,-36.41"/>
<polygon fill="black" stroke="black" points="216.16,-33 205.62,-34.07 214.52,-39.81 216.16,-33"/>
</g>
<!-- Leonardo Porto,958339091 -->
<g id="node8" class="node">
<title>Leonardo Porto,958339091</title>
<ellipse fill="none" stroke="black" cx="436.99" cy="-18" rx="137.58" ry="18"/>
<text text-anchor="middle" x="436.99" y="-14.3" font-family="Times,serif" font-size="14.00">Leonardo Porto,958339091</text>
</g>
<!-- Luciano Alves,958295711&#45;&gt;Leonardo Porto,958339091 -->
<g id="edge7" class="edge">
<title>Luciano Alves,958295711&#45;&gt;Leonardo Porto,958339091</title>
<path fill="none" stroke="black" d="M434.73,-71.7C435.06,-63.98 435.46,-54.71 435.83,-46.11"/>
<polygon fill="black" stroke="black" points="439.32,-46.25 436.25,-36.1 432.33,-45.95 439.32,-46.25"/>
</g>
<!-- Luiz Souza,984718198 -->
<g id="node10" class="node">
<title>Luiz Souza,984718198</title>
<ellipse fill="none" stroke="black" cx="711.99" cy="-18" rx="116.18" ry="18"/>
<text text-anchor="middle" x="711.99" y="-14.3" font-family="Times,serif" font-size="14.00">Luiz Souza,984718198</text>
</g>
<!-- Luciano Porto,984121948&#45;&gt;Luiz Souza,984718198 -->
<g id="edge9" class="edge">
<title>Luciano Porto,984121948&#45;&gt;Luiz Souza,984718198</title>
<path fill="none" stroke="black" d="M711.99,-71.7C711.99,-63.98 711.99,-54.71 711.99,-46.11"/>
<polygon fill="black" stroke="black" points="715.49,-46.1 711.99,-36.1 708.49,-46.1 715.49,-46.1"/>
</g>
<!-- Luciano Rodrigues,991669981 -->
<g id="node12" class="node">
<title>Luciano Rodrigues,991669981</title>
<ellipse fill="none" stroke="black" cx="1000.99" cy="-162" rx="152.97" ry="18"/>
<text text-anchor="middle" x="1000.99" y="-158.3" font-family="Times,serif" font-size="14.00">Luciano Rodrigues,991669981</text>
</g>
<!-- Luiz Silva,996877113&#45;&gt;Luciano Rodrigues,991669981 -->
<g id="edge11" class="edge">
<title>Luiz Silva,996877113&#45;&gt;Luciano Rodrigues,991669981</title>
<path fill="none" stroke="black" d="M1000.99,-215.7C1000.99,-207.98 1000.99,-198.71 1000.99,-190.11"/>
<polygon fill="black" stroke="black" points="1004.49,-190.1 1000.99,-180.1 997.49,-190.1 1004.49,-190.1"/>
</g>
<!-- Lucas Porto,999152157 -->
<g id="node15" class="node">
<title>Lucas Porto,999152157</title>
<ellipse fill="none" stroke="black" cx="1292.99" cy="-162" rx="120.78" ry="18"/>
<text text-anchor="middle" x="1292.99" y="-158.3" font-family="Times,serif" font-size="14.00">Lucas Porto,999152157</text>
</g>
<!-- Luiz Silva,996877113&#45;&gt;Lucas Porto,999152157 -->
<g id="edge14" class="edge">
<title>Luiz Silva,996877113&#45;&gt;Lucas Porto,999152157</title>
<path fill="none" stroke="black" d="M1060.43,-218.75C1107.23,-207.53 1172.6,-191.86 1222.12,-179.99"/>
<polygon fill="black" stroke="black" points="1223.21,-183.33 1232.12,-177.59 1221.58,-176.52 1223.21,-183.33"/>
</g>
<!-- Luciano Campos,988176352 -->
<g id="node13" class="node">
<title>Luciano Campos,988176352</title>
<ellipse fill="none" stroke="black" cx="1001.99" cy="-90" rx="142.17" ry="18"/>
<text text-anchor="middle" x="1001.99" y="-86.3" font-family="Times,serif" font-size="14.00">Luciano Campos,988176352</text>
</g>
<!-- Luciano Rodrigues,991669981&#45;&gt;Luciano Campos,988176352 -->
<g id="edge12" class="edge">
<title>Luciano Rodrigues,991669981&#45;&gt;Luciano Campos,988176352</title>
<path fill="none" stroke="black" d="M1001.23,-143.7C1001.34,-135.98 1001.48,-126.71 1001.6,-118.11"/>
<polygon fill="black" stroke="black" points="1005.1,-118.15 1001.74,-108.1 998.1,-118.05 1005.1,-118.15"/>
</g>
<!-- Luiz Silva,990920197 -->
<g id="node14" class="node">
<title>Luiz Silva,990920197</title>
<ellipse fill="none" stroke="black" cx="1001.99" cy="-18" rx="111.58" ry="18"/>
<text text-anchor="middle" x="1001.99" y="-14.3" font-family="Times,serif" font-size="14.00">Luiz Silva,990920197</text>
</g>
<!-- Luciano Campos,988176352&#45;&gt;Luiz Silva,990920197 -->
<g id="edge13" class="edge">
<title>Luciano Campos,988176352&#45;&gt;Luiz Silva,990920197</title>
<path fill="none" stroke="black" d="M1001.99,-71.7C1001.99,-63.98 1001.99,-54.71 1001.99,-46.11"/>
<polygon fill="black" stroke="black" points="1005.49,-46.1 1001.99,-36.1 998.49,-46.1 1005.49,-46.1"/>
</g>
<!-- Lucas Pereira,998665777 -->
<g id="node16" class="node">
<title>Lucas Pereira,998665777</title>
<ellipse fill="none" stroke="black" cx="1292.99" cy="-90" rx="129.98" ry="18"/>
<text text-anchor="middle" x="1292.99" y="-86.3" font-family="Times,serif" font-size="14.00">Lucas Pereira,998665777</text>
</g>
<!-- Lucas Porto,999152157&#45;&gt;Lucas Pereira,998665777 -->
<g id="edge15" class="edge">
<title>Lucas Porto,999152157&#45;&gt;Lucas Pereira,998665777</title>
<path fill="none" stroke="black" d="M1292.99,-143.7C1292.99,-135.98 1292.99,-126.71 1292.99,-118.11"/>
<polygon fill="black" stroke="black" points="1296.49,-118.1 1292.99,-108.1 1289.49,-118.1 1296.49,-118.1"/>
</g>
<!-- Leonardo Rodrigues,999746207 -->
<g id="node18" class="node">
<title>Leonardo Rodrigues,999746207</title>
<ellipse fill="none" stroke="black" cx="1600.99" cy="-90" rx="159.77" ry="18"/>
<text text-anchor="middle" x="1600.99" y="-86.3" font-family="Times,serif" font-size="14.00">Leonardo Rodrigues,999746207</text>
</g>
<!-- Lucas Porto,999152157&#45;&gt;Leonardo Rodrigues,999746207 -->
<g id="edge17" class="edge">
<title>Lucas Porto,999152157&#45;&gt;Leonardo Rodrigues,999746207</title>
<path fill="none" stroke="black" d="M1356.43,-146.58C1404.9,-135.56 1471.94,-120.33 1523.57,-108.59"/>
<polygon fill="black" stroke="black" points="1524.38,-112 1533.35,-106.37 1522.83,-105.17 1524.38,-112"/>
</g>
<!-- Lucas Torres,998532786 -->
<g id="node17" class="node">
<title>Lucas Torres,998532786</title>
<ellipse fill="none" stroke="black" cx="1292.99" cy="-18" rx="126.18" ry="18"/>
<text text-anchor="middle" x="1292.99" y="-14.3" font-family="Times,serif" font-size="14.00">Lucas Torres,998532786</text>
</g>
<!-- Lucas Pereira,998665777&#45;&gt;Lucas Torres,998532786 -->
<g id="edge16" class="edge">
<title>Lucas Pereira,998665777&#45;&gt;Lucas Torres,998532786</title>
<path fill="none" stroke="black" d="M1292.99,-71.7C1292.99,-63.98 1292.99,-54.71 1292.99,-46.11"/>
<polygon fill="black" stroke="black" points="1296.49,-46.1 1292.99,-36.1 1289.49,-46.1 1296.49,-46.1"/>
</g>
</g>
</svg>
