<?xml version="1.0" encoding="UTF-8" standalone="no"?>
<!DOCTYPE svg PUBLIC "-//W3C//DTD SVG 1.1//EN"
 "http://www.w3.org/Graphics/SVG/1.1/DTD/svg11.dtd">
<!-- Generated by graphviz version 2.43.0 (0)
 -->
<!-- Title: BST Pages: 1 -->
<svg width="490pt" height="496pt"
 viewBox="0.00 0.00 489.91 495.81" xmlns="http://www.w3.org/2000/svg" xmlns:xlink="http://www.w3.org/1999/xlink">
<g id="graph0" class="graph" transform="scale(1 1) rotate(0) translate(4 491.81)">
<title>BST</title>
<polygon fill="white" stroke="transparent" points="-4,4 -4,-491.81 485.91,-491.81 485.91,4 -4,4"/>
<!-- No_985278999 -->
<g id="node1" class="node">
<title>No_985278999</title>
<ellipse fill="none" stroke="black" cx="316.95" cy="-450.34" rx="75.82" ry="37.45"/>
<text text-anchor="middle" x="316.95" y="-461.64" font-family="Times,serif" font-size="14.00">Acir Campos</text>
<text text-anchor="middle" x="316.95" y="-446.64" font-family="Times,serif" font-size="14.00">985278999</text>
<text text-anchor="middle" x="316.95" y="-431.64" font-family="Times,serif" font-size="14.00">fb=0</text>
</g>
<!-- No_960933790 -->
<g id="node2" class="node">
<title>No_960933790</title>
<ellipse fill="none" stroke="black" cx="227.95" cy="-339.38" rx="85.62" ry="37.45"/>
<text text-anchor="middle" x="227.95" y="-350.68" font-family="Times,serif" font-size="14.00">Andrea Santos</text>
<text text-anchor="middle" x="227.95" y="-335.68" font-family="Times,serif" font-size="14.00">960933790</text>
<text text-anchor="middle" x="227.95" y="-320.68" font-family="Times,serif" font-size="14.00">fb=1</text>
</g>
<!-- No_985278999&#45;&gt;No_960933790 -->
<g id="edge1" class="edge">
<title>No_985278999&#45;&gt;No_960933790</title>
<path fill="none" stroke="black" d="M289.04,-415.16C280.67,-404.92 271.39,-393.56 262.64,-382.84"/>
<polygon fill="black" stroke="black" points="265.11,-380.34 256.08,-374.81 259.69,-384.77 265.11,-380.34"/>
</g>
<!-- No_997285865 -->
<g id="node11" class="node">
<title>No_997285865</title>
<ellipse fill="none" stroke="black" cx="406.95" cy="-339.38" rx="74.91" ry="37.45"/>
<text text-anchor="middle" x="406.95" y="-350.68" font-family="Times,serif" font-size="14.00">Almir Torres</text>
<text text-anchor="middle" x="406.95" y="-335.68" font-family="Times,serif" font-size="14.00">997285865</text>
<text text-anchor="middle" x="406.95" y="-320.68" font-family="Times,serif" font-size="14.00">fb=0</text>
</g>
<!-- No_985278999&#45;&gt;No_997285865 -->
<g id="edge10" class="edge">
<title>No_985278999&#45;&gt;No_997285865</title>
<path fill="none" stroke="black" d="M344.94,-415.46C353.66,-404.9 363.38,-393.14 372.49,-382.11"/>
<polygon fill="black" stroke="black" points="375.32,-384.18 378.99,-374.24 369.92,-379.72 375.32,-384.18"/>
</g>
<!-- No_955838599 -->
<g id="node3" class="node">
<title>No_955838599</title>
<ellipse fill="none" stroke="black" cx="74.95" cy="-228.43" rx="74.91" ry="37.45"/>
<text text-anchor="middle" x="74.95" y="-239.73" font-family="Times,serif" font-size="14.00">Aline Santos</text>
<text text-anchor="middle" x="74.95" y="-224.73" font-family="Times,serif" font-size="14.00">955838599</text>
<text text-anchor="middle" x="74.95" y="-209.73" font-family="Times,serif" font-size="14.00">fb=1</text>
</g>
<!-- No_960933790&#45;&gt;No_955838599 -->
<g id="edge2" class="edge">
<title>No_960933790&#45;&gt;No_955838599</title>
<path fill="none" stroke="black" d="M184.11,-307.16C165.8,-294.12 144.42,-278.9 125.46,-265.4"/>
<polygon fill="black" stroke="black" points="127.4,-262.48 117.22,-259.53 123.34,-268.18 127.4,-262.48"/>
</g>
<!-- No_965115082 -->
<g id="node6" class="node">
<title>No_965115082</title>
<ellipse fill="none" stroke="black" cx="243.95" cy="-228.43" rx="75.82" ry="37.45"/>
<text text-anchor="middle" x="243.95" y="-239.73" font-family="Times,serif" font-size="14.00">Ana Barbosa</text>
<text text-anchor="middle" x="243.95" y="-224.73" font-family="Times,serif" font-size="14.00">965115082</text>
<text text-anchor="middle" x="243.95" y="-209.73" font-family="Times,serif" font-size="14.00">fb=1</text>
</g>
<!-- No_960933790&#45;&gt;No_965115082 -->
<g id="edge5" class="edge">
<title>No_960933790&#45;&gt;No_965115082</title>
<path fill="none" stroke="black" d="M233.33,-301.8C234.54,-293.54 235.84,-284.65 237.11,-276.04"/>
<polygon fill="black" stroke="black" points="240.58,-276.5 238.57,-266.1 233.65,-275.49 240.58,-276.5"/>
</g>
<!-- NUL_0 -->
<g id="node4" class="node">
<title>NUL_0</title>
<polygon fill="none" stroke="black" points="65.95,-139.48 21.95,-139.48 21.95,-95.48 65.95,-95.48 65.95,-139.48"/>
<text text-anchor="middle" x="43.95" y="-113.78" font-family="Times,serif" font-size="14.00">null</text>
</g>
<!-- No_955838599&#45;&gt;NUL_0 -->
<g id="edge3" class="edge">
<title>No_955838599&#45;&gt;NUL_0</title>
<path fill="none" stroke="black" d="M64.63,-191.15C60.79,-177.67 56.48,-162.51 52.79,-149.53"/>
<polygon fill="black" stroke="black" points="56.09,-148.33 49.98,-139.67 49.35,-150.25 56.09,-148.33"/>
</g>
<!-- NUL_1 -->
<g id="node5" class="node">
<title>NUL_1</title>
<polygon fill="none" stroke="black" points="127.95,-139.48 83.95,-139.48 83.95,-95.48 127.95,-95.48 127.95,-139.48"/>
<text text-anchor="middle" x="105.95" y="-113.78" font-family="Times,serif" font-size="14.00">null</text>
</g>
<!-- No_955838599&#45;&gt;NUL_1 -->
<g id="edge4" class="edge">
<title>No_955838599&#45;&gt;NUL_1</title>
<path fill="none" stroke="black" d="M85.28,-191.15C89.11,-177.67 93.43,-162.51 97.12,-149.53"/>
<polygon fill="black" stroke="black" points="100.55,-150.25 99.92,-139.67 93.82,-148.33 100.55,-150.25"/>
</g>
<!-- NUL_2 -->
<g id="node7" class="node">
<title>NUL_2</title>
<polygon fill="none" stroke="black" points="227.95,-139.48 183.95,-139.48 183.95,-95.48 227.95,-95.48 227.95,-139.48"/>
<text text-anchor="middle" x="205.95" y="-113.78" font-family="Times,serif" font-size="14.00">null</text>
</g>
<!-- No_965115082&#45;&gt;NUL_2 -->
<g id="edge6" class="edge">
<title>No_965115082&#45;&gt;NUL_2</title>
<path fill="none" stroke="black" d="M231.41,-191.45C226.65,-177.82 221.28,-162.43 216.71,-149.32"/>
<polygon fill="black" stroke="black" points="219.99,-148.08 213.39,-139.79 213.38,-150.39 219.99,-148.08"/>
</g>
<!-- No_975960513 -->
<g id="node8" class="node">
<title>No_975960513</title>
<ellipse fill="none" stroke="black" cx="319.95" cy="-117.48" rx="73.58" ry="37.45"/>
<text text-anchor="middle" x="319.95" y="-128.78" font-family="Times,serif" font-size="14.00">Altair Souza</text>
<text text-anchor="middle" x="319.95" y="-113.78" font-family="Times,serif" font-size="14.00">975960513</text>
<text text-anchor="middle" x="319.95" y="-98.78" font-family="Times,serif" font-size="14.00">fb=0</text>
</g>
<!-- No_965115082&#45;&gt;No_975960513 -->
<g id="edge7" class="edge">
<title>No_965115082&#45;&gt;No_975960513</title>
<path fill="none" stroke="black" d="M268.21,-192.66C275.2,-182.63 282.91,-171.58 290.2,-161.13"/>
<polygon fill="black" stroke="black" points="293.08,-163.12 295.93,-152.92 287.34,-159.12 293.08,-163.12"/>
</g>
<!-- NUL_3 -->
<g id="node9" class="node">
<title>NUL_3</title>
<polygon fill="none" stroke="black" points="310.95,-44 266.95,-44 266.95,0 310.95,0 310.95,-44"/>
<text text-anchor="middle" x="288.95" y="-18.3" font-family="Times,serif" font-size="14.00">null</text>
</g>
<!-- No_975960513&#45;&gt;NUL_3 -->
<g id="edge8" class="edge">
<title>No_975960513&#45;&gt;NUL_3</title>
<path fill="none" stroke="black" d="M307.97,-80.34C305.05,-71.55 301.96,-62.23 299.14,-53.72"/>
<polygon fill="black" stroke="black" points="302.45,-52.57 295.98,-44.18 295.8,-54.77 302.45,-52.57"/>
</g>
<!-- NUL_4 -->
<g id="node10" class="node">
<title>NUL_4</title>
<polygon fill="none" stroke="black" points="372.95,-44 328.95,-44 328.95,0 372.95,0 372.95,-44"/>
<text text-anchor="middle" x="350.95" y="-18.3" font-family="Times,serif" font-size="14.00">null</text>
</g>
<!-- No_975960513&#45;&gt;NUL_4 -->
<g id="edge9" class="edge">
<title>No_975960513&#45;&gt;NUL_4</title>
<path fill="none" stroke="black" d="M331.94,-80.34C334.85,-71.55 337.94,-62.23 340.77,-53.72"/>
<polygon fill="black" stroke="black" points="344.1,-54.77 343.93,-44.18 337.46,-52.57 344.1,-54.77"/>
</g>
<!-- NUL_5 -->
<g id="node12" class="node">
<title>NUL_5</title>
<polygon fill="none" stroke="black" points="412.95,-250.43 368.95,-250.43 368.95,-206.43 412.95,-206.43 412.95,-250.43"/>
<text text-anchor="middle" x="390.95" y="-224.73" font-family="Times,serif" font-size="14.00">null</text>
</g>
<!-- No_997285865&#45;&gt;NUL_5 -->
<g id="edge11" class="edge">
<title>No_997285865&#45;&gt;NUL_5</title>
<path fill="none" stroke="black" d="M401.58,-301.8C399.62,-288.47 397.43,-273.53 395.55,-260.7"/>
<polygon fill="black" stroke="black" points="398.96,-259.89 394.05,-250.51 392.04,-260.91 398.96,-259.89"/>
</g>
<!-- NUL_6 -->
<g id="node13" class="node">
<title>NUL_6</title>
<polygon fill="none" stroke="black" points="474.95,-250.43 430.95,-250.43 430.95,-206.43 474.95,-206.43 474.95,-250.43"/>
<text text-anchor="middle" x="452.95" y="-224.73" font-family="Times,serif" font-size="14.00">null</text>
</g>
<!-- No_997285865&#45;&gt;NUL_6 -->
<g id="edge12" class="edge">
<title>No_997285865&#45;&gt;NUL_6</title>
<path fill="none" stroke="black" d="M422.14,-302.41C427.9,-288.77 434.39,-273.39 439.93,-260.27"/>
<polygon fill="black" stroke="black" points="443.29,-261.32 443.95,-250.75 436.84,-258.6 443.29,-261.32"/>
</g>
</g>
</svg>
