<?xml version="1.0" encoding="UTF-8" standalone="no"?>
<!DOCTYPE svg PUBLIC "-//W3C//DTD SVG 1.1//EN"
 "http://www.w3.org/Graphics/SVG/1.1/DTD/svg11.dtd">
<!-- Generated by graphviz version 2.43.0 (0)
 -->
<!-- Title: BST Pages: 1 -->
<svg width="742pt" height="116pt"
 viewBox="0.00 0.00 742.12 116.00" xmlns="http://www.w3.org/2000/svg" xmlns:xlink="http://www.w3.org/1999/xlink">
<g id="graph0" class="graph" transform="scale(1 1) rotate(0) translate(4 112)">
<title>BST</title>
<polygon fill="white" stroke="transparent" points="-4,4 -4,-112 738.12,-112 738.12,4 -4,4"/>
<!-- Alexandre Coelho,958161132 [fb:0] -->
<g id="node1" class="node">
<title>Alexandre Coelho,958161132 [fb:0]</title>
<ellipse fill="none" stroke="black" cx="379.08" cy="-90" rx="175.47" ry="18"/>
<text text-anchor="middle" x="379.08" y="-86.3" font-family="Times,serif" font-size="14.00">Alexandre Coelho,958161132 [fb:0]</text>
</g>
<!-- Alexandre Rodrigues,957023242 [fb:0] -->
<g id="node2" class="node">
<title>Alexandre Rodrigues,957023242 [fb:0]</title>
<ellipse fill="none" stroke="black" cx="191.08" cy="-18" rx="191.17" ry="18"/>
<text text-anchor="middle" x="191.08" y="-14.3" font-family="Times,serif" font-size="14.00">Alexandre Rodrigues,957023242 [fb:0]</text>
</g>
<!-- Alexandre Coelho,958161132 [fb:0]&#45;&gt;Alexandre Rodrigues,957023242 [fb:0] -->
<g id="edge1" class="edge">
<title>Alexandre Coelho,958161132 [fb:0]&#45;&gt;Alexandre Rodrigues,957023242 [fb:0]</title>
<path fill="none" stroke="black" d="M334.53,-72.41C307.82,-62.47 273.66,-49.75 245.38,-39.22"/>
<polygon fill="black" stroke="black" points="246.23,-35.8 235.64,-35.59 243.79,-42.36 246.23,-35.8"/>
</g>
<!-- Alexandre Silva,992966968 [fb:0] -->
<g id="node3" class="node">
<title>Alexandre Silva,992966968 [fb:0]</title>
<ellipse fill="none" stroke="black" cx="567.08" cy="-18" rx="167.07" ry="18"/>
<text text-anchor="middle" x="567.08" y="-14.3" font-family="Times,serif" font-size="14.00">Alexandre Silva,992966968 [fb:0]</text>
</g>
<!-- Alexandre Coelho,958161132 [fb:0]&#45;&gt;Alexandre Silva,992966968 [fb:0] -->
<g id="edge2" class="edge">
<title>Alexandre Coelho,958161132 [fb:0]&#45;&gt;Alexandre Silva,992966968 [fb:0]</title>
<path fill="none" stroke="black" d="M423.64,-72.41C450.56,-62.39 485.05,-49.54 513.47,-38.96"/>
<polygon fill="black" stroke="black" points="514.7,-42.24 522.85,-35.47 512.26,-35.68 514.7,-42.24"/>
</g>
</g>
</svg>
