<?xml version="1.0" encoding="UTF-8" standalone="no"?>
<!DOCTYPE svg PUBLIC "-//W3C//DTD SVG 1.1//EN"
 "http://www.w3.org/Graphics/SVG/1.1/DTD/svg11.dtd">
<!-- Generated by graphviz version 2.43.0 (0)
 -->
<!-- Title: BST Pages: 1 -->
<svg width="614pt" height="116pt"
 viewBox="0.00 0.00 614.42 116.00" xmlns="http://www.w3.org/2000/svg" xmlns:xlink="http://www.w3.org/1999/xlink">
<g id="graph0" class="graph" transform="scale(1 1) rotate(0) translate(4 112)">
<title>BST</title>
<polygon fill="white" stroke="transparent" points="-4,4 -4,-112 610.42,-112 610.42,4 -4,4"/>
<!-- João Moura,971483101 [fb:0] -->
<g id="node1" class="node">
<title>João Moura,971483101 [fb:0]</title>
<ellipse fill="none" stroke="black" cx="300.29" cy="-90" rx="146.77" ry="18"/>
<text text-anchor="middle" x="300.29" y="-86.3" font-family="Times,serif" font-size="14.00">João Moura,971483101 [fb:0]</text>
</g>
<!-- João Souza,970206539 [fb:0] -->
<g id="node2" class="node">
<title>João Souza,970206539 [fb:0]</title>
<ellipse fill="none" stroke="black" cx="144.29" cy="-18" rx="144.07" ry="18"/>
<text text-anchor="middle" x="144.29" y="-14.3" font-family="Times,serif" font-size="14.00">João Souza,970206539 [fb:0]</text>
</g>
<!-- João Moura,971483101 [fb:0]&#45;&gt;João Souza,970206539 [fb:0] -->
<g id="edge1" class="edge">
<title>João Moura,971483101 [fb:0]&#45;&gt;João Souza,970206539 [fb:0]</title>
<path fill="none" stroke="black" d="M263.32,-72.41C241.46,-62.6 213.6,-50.1 190.32,-39.66"/>
<polygon fill="black" stroke="black" points="191.55,-36.37 180.99,-35.47 188.68,-42.76 191.55,-36.37"/>
</g>
<!-- João Pereira,979323293 [fb:0] -->
<g id="node3" class="node">
<title>João Pereira,979323293 [fb:0]</title>
<ellipse fill="none" stroke="black" cx="456.29" cy="-18" rx="150.27" ry="18"/>
<text text-anchor="middle" x="456.29" y="-14.3" font-family="Times,serif" font-size="14.00">João Pereira,979323293 [fb:0]</text>
</g>
<!-- João Moura,971483101 [fb:0]&#45;&gt;João Pereira,979323293 [fb:0] -->
<g id="edge2" class="edge">
<title>João Moura,971483101 [fb:0]&#45;&gt;João Pereira,979323293 [fb:0]</title>
<path fill="none" stroke="black" d="M337.26,-72.41C359.11,-62.6 386.98,-50.1 410.25,-39.66"/>
<polygon fill="black" stroke="black" points="411.89,-42.76 419.58,-35.47 409.03,-36.37 411.89,-42.76"/>
</g>
</g>
</svg>
