<?xml version="1.0" encoding="UTF-8" standalone="no"?>
<!DOCTYPE svg PUBLIC "-//W3C//DTD SVG 1.1//EN"
 "http://www.w3.org/Graphics/SVG/1.1/DTD/svg11.dtd">
<!-- Generated by graphviz version 2.43.0 (0)
 -->
<!-- Title: BST Pages: 1 -->
<svg width="900pt" height="496pt"
 viewBox="0.00 0.00 899.95 495.81" xmlns="http://www.w3.org/2000/svg" xmlns:xlink="http://www.w3.org/1999/xlink">
<g id="graph0" class="graph" transform="scale(1 1) rotate(0) translate(4 491.81)">
<title>BST</title>
<polygon fill="white" stroke="transparent" points="-4,4 -4,-491.81 895.95,-491.81 895.95,4 -4,4"/>
<!-- No_985278999 -->
<g id="node1" class="node">
<title>No_985278999</title>
<ellipse fill="none" stroke="black" cx="501.95" cy="-450.34" rx="75.82" ry="37.45"/>
<text text-anchor="middle" x="501.95" y="-461.64" font-family="Times,serif" font-size="14.00">Acir Campos</text>
<text text-anchor="middle" x="501.95" y="-446.64" font-family="Times,serif" font-size="14.00">985278999</text>
<text text-anchor="middle" x="501.95" y="-431.64" font-family="Times,serif" font-size="14.00">fb=0</text>
</g>
<!-- No_965115082 -->
<g id="node2" class="node">
<title>No_965115082</title>
<ellipse fill="none" stroke="black" cx="385.95" cy="-339.38" rx="75.82" ry="37.45"/>
<text text-anchor="middle" x="385.95" y="-350.68" font-family="Times,serif" font-size="14.00">Ana Barbosa</text>
<text text-anchor="middle" x="385.95" y="-335.68" font-family="Times,serif" font-size="14.00">965115082</text>
<text text-anchor="middle" x="385.95" y="-320.68" font-family="Times,serif" font-size="14.00">fb=0</text>
</g>
<!-- No_985278999&#45;&gt;No_965115082 -->
<g id="edge1" class="edge">
<title>No_985278999&#45;&gt;No_965115082</title>
<path fill="none" stroke="black" d="M467.46,-416.94C455.07,-405.3 440.95,-392.04 427.99,-379.86"/>
<polygon fill="black" stroke="black" points="430.2,-377.14 420.51,-372.84 425.4,-382.24 430.2,-377.14"/>
</g>
<!-- No_994116870 -->
<g id="node13" class="node">
<title>No_994116870</title>
<ellipse fill="none" stroke="black" cx="611.95" cy="-339.38" rx="98.99" ry="37.45"/>
<text text-anchor="middle" x="611.95" y="-350.68" font-family="Times,serif" font-size="14.00">Alexandra Moura</text>
<text text-anchor="middle" x="611.95" y="-335.68" font-family="Times,serif" font-size="14.00">994116870</text>
<text text-anchor="middle" x="611.95" y="-320.68" font-family="Times,serif" font-size="14.00">fb=&#45;1</text>
</g>
<!-- No_985278999&#45;&gt;No_994116870 -->
<g id="edge12" class="edge">
<title>No_985278999&#45;&gt;No_994116870</title>
<path fill="none" stroke="black" d="M535.26,-416.35C546.15,-405.56 558.39,-393.43 569.85,-382.09"/>
<polygon fill="black" stroke="black" points="572.6,-384.29 577.24,-374.77 567.67,-379.32 572.6,-384.29"/>
</g>
<!-- No_960933790 -->
<g id="node3" class="node">
<title>No_960933790</title>
<ellipse fill="none" stroke="black" cx="189.95" cy="-228.43" rx="85.62" ry="37.45"/>
<text text-anchor="middle" x="189.95" y="-239.73" font-family="Times,serif" font-size="14.00">Andrea Santos</text>
<text text-anchor="middle" x="189.95" y="-224.73" font-family="Times,serif" font-size="14.00">960933790</text>
<text text-anchor="middle" x="189.95" y="-209.73" font-family="Times,serif" font-size="14.00">fb=1</text>
</g>
<!-- No_965115082&#45;&gt;No_960933790 -->
<g id="edge2" class="edge">
<title>No_965115082&#45;&gt;No_960933790</title>
<path fill="none" stroke="black" d="M336.49,-310.89C310.4,-296.38 278.16,-278.46 250.57,-263.13"/>
<polygon fill="black" stroke="black" points="252.24,-260.05 241.79,-258.25 248.83,-266.17 252.24,-260.05"/>
</g>
<!-- No_975960513 -->
<g id="node8" class="node">
<title>No_975960513</title>
<ellipse fill="none" stroke="black" cx="385.95" cy="-228.43" rx="73.58" ry="37.45"/>
<text text-anchor="middle" x="385.95" y="-239.73" font-family="Times,serif" font-size="14.00">Altair Souza</text>
<text text-anchor="middle" x="385.95" y="-224.73" font-family="Times,serif" font-size="14.00">975960513</text>
<text text-anchor="middle" x="385.95" y="-209.73" font-family="Times,serif" font-size="14.00">fb=&#45;1</text>
</g>
<!-- No_965115082&#45;&gt;No_975960513 -->
<g id="edge7" class="edge">
<title>No_965115082&#45;&gt;No_975960513</title>
<path fill="none" stroke="black" d="M385.95,-301.8C385.95,-293.63 385.95,-284.85 385.95,-276.32"/>
<polygon fill="black" stroke="black" points="389.45,-276.1 385.95,-266.1 382.45,-276.1 389.45,-276.1"/>
</g>
<!-- No_955838599 -->
<g id="node4" class="node">
<title>No_955838599</title>
<ellipse fill="none" stroke="black" cx="74.95" cy="-117.48" rx="74.91" ry="37.45"/>
<text text-anchor="middle" x="74.95" y="-128.78" font-family="Times,serif" font-size="14.00">Aline Santos</text>
<text text-anchor="middle" x="74.95" y="-113.78" font-family="Times,serif" font-size="14.00">955838599</text>
<text text-anchor="middle" x="74.95" y="-98.78" font-family="Times,serif" font-size="14.00">fb=0</text>
</g>
<!-- No_960933790&#45;&gt;No_955838599 -->
<g id="edge3" class="edge">
<title>No_960933790&#45;&gt;No_955838599</title>
<path fill="none" stroke="black" d="M154.82,-194.15C142.9,-182.85 129.45,-170.11 117.04,-158.35"/>
<polygon fill="black" stroke="black" points="119.14,-155.52 109.47,-151.18 114.32,-160.6 119.14,-155.52"/>
</g>
<!-- NUL_2 -->
<g id="node7" class="node">
<title>NUL_2</title>
<polygon fill="none" stroke="black" points="211.95,-139.48 167.95,-139.48 167.95,-95.48 211.95,-95.48 211.95,-139.48"/>
<text text-anchor="middle" x="189.95" y="-113.78" font-family="Times,serif" font-size="14.00">null</text>
</g>
<!-- No_960933790&#45;&gt;NUL_2 -->
<g id="edge6" class="edge">
<title>No_960933790&#45;&gt;NUL_2</title>
<path fill="none" stroke="black" d="M189.95,-190.85C189.95,-177.52 189.95,-162.58 189.95,-149.75"/>
<polygon fill="black" stroke="black" points="193.45,-149.55 189.95,-139.55 186.45,-149.55 193.45,-149.55"/>
</g>
<!-- NUL_0 -->
<g id="node5" class="node">
<title>NUL_0</title>
<polygon fill="none" stroke="black" points="65.95,-44 21.95,-44 21.95,0 65.95,0 65.95,-44"/>
<text text-anchor="middle" x="43.95" y="-18.3" font-family="Times,serif" font-size="14.00">null</text>
</g>
<!-- No_955838599&#45;&gt;NUL_0 -->
<g id="edge4" class="edge">
<title>No_955838599&#45;&gt;NUL_0</title>
<path fill="none" stroke="black" d="M62.97,-80.34C60.05,-71.55 56.96,-62.23 54.14,-53.72"/>
<polygon fill="black" stroke="black" points="57.45,-52.57 50.98,-44.18 50.8,-54.77 57.45,-52.57"/>
</g>
<!-- NUL_1 -->
<g id="node6" class="node">
<title>NUL_1</title>
<polygon fill="none" stroke="black" points="127.95,-44 83.95,-44 83.95,0 127.95,0 127.95,-44"/>
<text text-anchor="middle" x="105.95" y="-18.3" font-family="Times,serif" font-size="14.00">null</text>
</g>
<!-- No_955838599&#45;&gt;NUL_1 -->
<g id="edge5" class="edge">
<title>No_955838599&#45;&gt;NUL_1</title>
<path fill="none" stroke="black" d="M86.94,-80.34C89.85,-71.55 92.94,-62.23 95.77,-53.72"/>
<polygon fill="black" stroke="black" points="99.1,-54.77 98.93,-44.18 92.46,-52.57 99.1,-54.77"/>
</g>
<!-- No_967387182 -->
<g id="node9" class="node">
<title>No_967387182</title>
<ellipse fill="none" stroke="black" cx="320.95" cy="-117.48" rx="91.43" ry="37.45"/>
<text text-anchor="middle" x="320.95" y="-128.78" font-family="Times,serif" font-size="14.00">Alfredo Martins</text>
<text text-anchor="middle" x="320.95" y="-113.78" font-family="Times,serif" font-size="14.00">967387182</text>
<text text-anchor="middle" x="320.95" y="-98.78" font-family="Times,serif" font-size="14.00">fb=0</text>
</g>
<!-- No_975960513&#45;&gt;No_967387182 -->
<g id="edge8" class="edge">
<title>No_975960513&#45;&gt;No_967387182</title>
<path fill="none" stroke="black" d="M365.03,-192.36C359.46,-183.02 353.37,-172.81 347.54,-163.04"/>
<polygon fill="black" stroke="black" points="350.41,-161.03 342.28,-154.23 344.4,-164.61 350.41,-161.03"/>
</g>
<!-- NUL_5 -->
<g id="node12" class="node">
<title>NUL_5</title>
<polygon fill="none" stroke="black" points="473.95,-139.48 429.95,-139.48 429.95,-95.48 473.95,-95.48 473.95,-139.48"/>
<text text-anchor="middle" x="451.95" y="-113.78" font-family="Times,serif" font-size="14.00">null</text>
</g>
<!-- No_975960513&#45;&gt;NUL_5 -->
<g id="edge11" class="edge">
<title>No_975960513&#45;&gt;NUL_5</title>
<path fill="none" stroke="black" d="M407.2,-192.36C415.77,-178.2 425.56,-162.04 433.8,-148.45"/>
<polygon fill="black" stroke="black" points="437.03,-149.87 439.21,-139.51 431.04,-146.25 437.03,-149.87"/>
</g>
<!-- NUL_3 -->
<g id="node10" class="node">
<title>NUL_3</title>
<polygon fill="none" stroke="black" points="311.95,-44 267.95,-44 267.95,0 311.95,0 311.95,-44"/>
<text text-anchor="middle" x="289.95" y="-18.3" font-family="Times,serif" font-size="14.00">null</text>
</g>
<!-- No_967387182&#45;&gt;NUL_3 -->
<g id="edge9" class="edge">
<title>No_967387182&#45;&gt;NUL_3</title>
<path fill="none" stroke="black" d="M308.88,-80.07C305.97,-71.3 302.89,-62.02 300.08,-53.55"/>
<polygon fill="black" stroke="black" points="303.41,-52.45 296.94,-44.06 296.76,-54.65 303.41,-52.45"/>
</g>
<!-- NUL_4 -->
<g id="node11" class="node">
<title>NUL_4</title>
<polygon fill="none" stroke="black" points="373.95,-44 329.95,-44 329.95,0 373.95,0 373.95,-44"/>
<text text-anchor="middle" x="351.95" y="-18.3" font-family="Times,serif" font-size="14.00">null</text>
</g>
<!-- No_967387182&#45;&gt;NUL_4 -->
<g id="edge10" class="edge">
<title>No_967387182&#45;&gt;NUL_4</title>
<path fill="none" stroke="black" d="M333.03,-80.07C335.94,-71.3 339.01,-62.02 341.82,-53.55"/>
<polygon fill="black" stroke="black" points="345.14,-54.65 344.97,-44.06 338.5,-52.45 345.14,-54.65"/>
</g>
<!-- No_987671978 -->
<g id="node14" class="node">
<title>No_987671978</title>
<ellipse fill="none" stroke="black" cx="611.95" cy="-228.43" rx="90.52" ry="37.45"/>
<text text-anchor="middle" x="611.95" y="-239.73" font-family="Times,serif" font-size="14.00">Adriana Pereira</text>
<text text-anchor="middle" x="611.95" y="-224.73" font-family="Times,serif" font-size="14.00">987671978</text>
<text text-anchor="middle" x="611.95" y="-209.73" font-family="Times,serif" font-size="14.00">fb=0</text>
</g>
<!-- No_994116870&#45;&gt;No_987671978 -->
<g id="edge13" class="edge">
<title>No_994116870&#45;&gt;No_987671978</title>
<path fill="none" stroke="black" d="M611.95,-301.8C611.95,-293.63 611.95,-284.85 611.95,-276.32"/>
<polygon fill="black" stroke="black" points="615.45,-276.1 611.95,-266.1 608.45,-276.1 615.45,-276.1"/>
</g>
<!-- No_997285865 -->
<g id="node19" class="node">
<title>No_997285865</title>
<ellipse fill="none" stroke="black" cx="807.95" cy="-228.43" rx="74.91" ry="37.45"/>
<text text-anchor="middle" x="807.95" y="-239.73" font-family="Times,serif" font-size="14.00">Almir Torres</text>
<text text-anchor="middle" x="807.95" y="-224.73" font-family="Times,serif" font-size="14.00">997285865</text>
<text text-anchor="middle" x="807.95" y="-209.73" font-family="Times,serif" font-size="14.00">fb=0</text>
</g>
<!-- No_994116870&#45;&gt;No_997285865 -->
<g id="edge18" class="edge">
<title>No_994116870&#45;&gt;No_997285865</title>
<path fill="none" stroke="black" d="M666.55,-308.03C692.5,-293.61 723.54,-276.35 749.92,-261.69"/>
<polygon fill="black" stroke="black" points="751.63,-264.74 758.67,-256.83 748.23,-258.63 751.63,-264.74"/>
</g>
<!-- No_986979432 -->
<g id="node15" class="node">
<title>No_986979432</title>
<ellipse fill="none" stroke="black" cx="598.95" cy="-117.48" rx="107.46" ry="37.45"/>
<text text-anchor="middle" x="598.95" y="-128.78" font-family="Times,serif" font-size="14.00">Américo Rodrigues</text>
<text text-anchor="middle" x="598.95" y="-113.78" font-family="Times,serif" font-size="14.00">986979432</text>
<text text-anchor="middle" x="598.95" y="-98.78" font-family="Times,serif" font-size="14.00">fb=&#45;1</text>
</g>
<!-- No_987671978&#45;&gt;No_986979432 -->
<g id="edge14" class="edge">
<title>No_987671978&#45;&gt;No_986979432</title>
<path fill="none" stroke="black" d="M607.59,-190.85C606.6,-182.58 605.54,-173.7 604.51,-165.09"/>
<polygon fill="black" stroke="black" points="607.99,-164.66 603.33,-155.15 601.04,-165.49 607.99,-164.66"/>
</g>
<!-- NUL_8 -->
<g id="node18" class="node">
<title>NUL_8</title>
<polygon fill="none" stroke="black" points="767.95,-139.48 723.95,-139.48 723.95,-95.48 767.95,-95.48 767.95,-139.48"/>
<text text-anchor="middle" x="745.95" y="-113.78" font-family="Times,serif" font-size="14.00">null</text>
</g>
<!-- No_987671978&#45;&gt;NUL_8 -->
<g id="edge17" class="edge">
<title>No_987671978&#45;&gt;NUL_8</title>
<path fill="none" stroke="black" d="M660.78,-196.8C678.59,-184.69 698.4,-170.06 714.95,-154.95 717.47,-152.66 719.98,-150.16 722.41,-147.59"/>
<polygon fill="black" stroke="black" points="725.36,-149.54 729.43,-139.76 720.15,-144.86 725.36,-149.54"/>
</g>
<!-- NUL_6 -->
<g id="node16" class="node">
<title>NUL_6</title>
<polygon fill="none" stroke="black" points="589.95,-44 545.95,-44 545.95,0 589.95,0 589.95,-44"/>
<text text-anchor="middle" x="567.95" y="-18.3" font-family="Times,serif" font-size="14.00">null</text>
</g>
<!-- No_986979432&#45;&gt;NUL_6 -->
<g id="edge15" class="edge">
<title>No_986979432&#45;&gt;NUL_6</title>
<path fill="none" stroke="black" d="M586.88,-80.07C583.97,-71.3 580.89,-62.02 578.08,-53.55"/>
<polygon fill="black" stroke="black" points="581.41,-52.45 574.94,-44.06 574.76,-54.65 581.41,-52.45"/>
</g>
<!-- NUL_7 -->
<g id="node17" class="node">
<title>NUL_7</title>
<polygon fill="none" stroke="black" points="651.95,-44 607.95,-44 607.95,0 651.95,0 651.95,-44"/>
<text text-anchor="middle" x="629.95" y="-18.3" font-family="Times,serif" font-size="14.00">null</text>
</g>
<!-- No_986979432&#45;&gt;NUL_7 -->
<g id="edge16" class="edge">
<title>No_986979432&#45;&gt;NUL_7</title>
<path fill="none" stroke="black" d="M611.03,-80.07C613.94,-71.3 617.01,-62.02 619.82,-53.55"/>
<polygon fill="black" stroke="black" points="623.14,-54.65 622.97,-44.06 616.5,-52.45 623.14,-54.65"/>
</g>
<!-- NUL_9 -->
<g id="node20" class="node">
<title>NUL_9</title>
<polygon fill="none" stroke="black" points="829.95,-139.48 785.95,-139.48 785.95,-95.48 829.95,-95.48 829.95,-139.48"/>
<text text-anchor="middle" x="807.95" y="-113.78" font-family="Times,serif" font-size="14.00">null</text>
</g>
<!-- No_997285865&#45;&gt;NUL_9 -->
<g id="edge19" class="edge">
<title>No_997285865&#45;&gt;NUL_9</title>
<path fill="none" stroke="black" d="M807.95,-190.85C807.95,-177.52 807.95,-162.58 807.95,-149.75"/>
<polygon fill="black" stroke="black" points="811.45,-149.55 807.95,-139.55 804.45,-149.55 811.45,-149.55"/>
</g>
<!-- NUL_10 -->
<g id="node21" class="node">
<title>NUL_10</title>
<polygon fill="none" stroke="black" points="891.95,-139.48 847.95,-139.48 847.95,-95.48 891.95,-95.48 891.95,-139.48"/>
<text text-anchor="middle" x="869.95" y="-113.78" font-family="Times,serif" font-size="14.00">null</text>
</g>
<!-- No_997285865&#45;&gt;NUL_10 -->
<g id="edge20" class="edge">
<title>No_997285865&#45;&gt;NUL_10</title>
<path fill="none" stroke="black" d="M828.08,-192.06C836.07,-178.02 845.16,-162.05 852.82,-148.58"/>
<polygon fill="black" stroke="black" points="855.97,-150.13 857.87,-139.71 849.88,-146.67 855.97,-150.13"/>
</g>
</g>
</svg>
