<?xml version="1.0" encoding="UTF-8" standalone="no"?>
<!DOCTYPE svg PUBLIC "-//W3C//DTD SVG 1.1//EN"
 "http://www.w3.org/Graphics/SVG/1.1/DTD/svg11.dtd">
<!-- Generated by graphviz version 2.43.0 (0)
 -->
<!-- Title: BST Pages: 1 -->
<svg width="2177pt" height="468pt"
 viewBox="0.00 0.00 2176.97 467.58" xmlns="http://www.w3.org/2000/svg" xmlns:xlink="http://www.w3.org/1999/xlink">
<g id="graph0" class="graph" transform="scale(1 1) rotate(0) translate(4 463.58)">
<title>BST</title>
<polygon fill="white" stroke="transparent" points="-4,4 -4,-463.58 2172.97,-463.58 2172.97,4 -4,4"/>
<!-- Carlos Torres,966439277 [fb:1] -->
<g id="node1" class="node">
<title>Carlos Torres,966439277 [fb:1]</title>
<ellipse fill="none" stroke="black" cx="967.39" cy="-441.58" rx="156.77" ry="18"/>
<text text-anchor="middle" x="967.39" y="-437.88" font-family="Times,serif" font-size="14.00">Carlos Torres,966439277 [fb:1]</text>
</g>
<!-- Carlos Silva,953897543 [fb:0] -->
<g id="node2" class="node">
<title>Carlos Silva,953897543 [fb:0]</title>
<ellipse fill="none" stroke="black" cx="796.39" cy="-369.58" rx="149.47" ry="18"/>
<text text-anchor="middle" x="796.39" y="-365.88" font-family="Times,serif" font-size="14.00">Carlos Silva,953897543 [fb:0]</text>
</g>
<!-- Carlos Torres,966439277 [fb:1]&#45;&gt;Carlos Silva,953897543 [fb:0] -->
<g id="edge1" class="edge">
<title>Carlos Torres,966439277 [fb:1]&#45;&gt;Carlos Silva,953897543 [fb:0]</title>
<path fill="none" stroke="black" d="M927.29,-424.17C902.94,-414.2 871.66,-401.4 845.79,-390.81"/>
<polygon fill="black" stroke="black" points="847.1,-387.56 836.52,-387.01 844.45,-394.04 847.1,-387.56"/>
</g>
<!-- Carlos Costa,976849055 [fb:1] -->
<g id="node15" class="node">
<title>Carlos Costa,976849055 [fb:1]</title>
<ellipse fill="none" stroke="black" cx="1288.39" cy="-369.58" rx="153.27" ry="18"/>
<text text-anchor="middle" x="1288.39" y="-365.88" font-family="Times,serif" font-size="14.00">Carlos Costa,976849055 [fb:1]</text>
</g>
<!-- Carlos Torres,966439277 [fb:1]&#45;&gt;Carlos Costa,976849055 [fb:1] -->
<g id="edge14" class="edge">
<title>Carlos Torres,966439277 [fb:1]&#45;&gt;Carlos Costa,976849055 [fb:1]</title>
<path fill="none" stroke="black" d="M1037.04,-425.4C1087.71,-414.35 1156.39,-399.37 1209.15,-387.86"/>
<polygon fill="black" stroke="black" points="1210.12,-391.23 1219.15,-385.68 1208.63,-384.39 1210.12,-391.23"/>
</g>
<!-- Carlos Coelho,951673848 [fb:&#45;1] -->
<g id="node3" class="node">
<title>Carlos Coelho,951673848 [fb:&#45;1]</title>
<ellipse fill="none" stroke="black" cx="353.39" cy="-297.58" rx="161.37" ry="18"/>
<text text-anchor="middle" x="353.39" y="-293.88" font-family="Times,serif" font-size="14.00">Carlos Coelho,951673848 [fb:&#45;1]</text>
</g>
<!-- Carlos Silva,953897543 [fb:0]&#45;&gt;Carlos Coelho,951673848 [fb:&#45;1] -->
<g id="edge2" class="edge">
<title>Carlos Silva,953897543 [fb:0]&#45;&gt;Carlos Coelho,951673848 [fb:&#45;1]</title>
<path fill="none" stroke="black" d="M709.66,-354.88C635.77,-343.21 529.61,-326.43 452.4,-314.23"/>
<polygon fill="black" stroke="black" points="452.61,-310.72 442.18,-312.62 451.51,-317.63 452.61,-310.72"/>
</g>
<!-- Carlos Souza,961337758 [fb:0] -->
<g id="node8" class="node">
<title>Carlos Souza,961337758 [fb:0]</title>
<ellipse fill="none" stroke="black" cx="796.39" cy="-297.58" rx="154.87" ry="18"/>
<text text-anchor="middle" x="796.39" y="-293.88" font-family="Times,serif" font-size="14.00">Carlos Souza,961337758 [fb:0]</text>
</g>
<!-- Carlos Silva,953897543 [fb:0]&#45;&gt;Carlos Souza,961337758 [fb:0] -->
<g id="edge7" class="edge">
<title>Carlos Silva,953897543 [fb:0]&#45;&gt;Carlos Souza,961337758 [fb:0]</title>
<path fill="none" stroke="black" d="M796.39,-351.28C796.39,-343.57 796.39,-334.3 796.39,-325.7"/>
<polygon fill="black" stroke="black" points="799.89,-325.69 796.39,-315.69 792.89,-325.69 799.89,-325.69"/>
</g>
<!-- Carlos Costa,950852179 [fb:0] -->
<g id="node4" class="node">
<title>Carlos Costa,950852179 [fb:0]</title>
<ellipse fill="none" stroke="black" cx="153.39" cy="-214.99" rx="153.27" ry="18"/>
<text text-anchor="middle" x="153.39" y="-211.29" font-family="Times,serif" font-size="14.00">Carlos Costa,950852179 [fb:0]</text>
</g>
<!-- Carlos Coelho,951673848 [fb:&#45;1]&#45;&gt;Carlos Costa,950852179 [fb:0] -->
<g id="edge3" class="edge">
<title>Carlos Coelho,951673848 [fb:&#45;1]&#45;&gt;Carlos Costa,950852179 [fb:0]</title>
<path fill="none" stroke="black" d="M312.43,-280.08C281.02,-267.42 237.5,-249.88 203.92,-236.35"/>
<polygon fill="black" stroke="black" points="204.87,-232.96 194.29,-232.47 202.25,-239.45 204.87,-232.96"/>
</g>
<!-- N2 -->
<g id="node7" class="node">
<title>N2</title>
<ellipse fill="none" stroke="black" cx="353.39" cy="-214.99" rx="28.7" ry="28.7"/>
<text text-anchor="middle" x="353.39" y="-211.29" font-family="Times,serif" font-size="14.00">null</text>
</g>
<!-- Carlos Coelho,951673848 [fb:&#45;1]&#45;&gt;N2 -->
<g id="edge6" class="edge">
<title>Carlos Coelho,951673848 [fb:&#45;1]&#45;&gt;N2</title>
<path fill="none" stroke="black" d="M353.39,-279.49C353.39,-272.05 353.39,-263.01 353.39,-254.11"/>
<polygon fill="black" stroke="black" points="356.89,-253.84 353.39,-243.84 349.89,-253.84 356.89,-253.84"/>
</g>
<!-- N0 -->
<g id="node5" class="node">
<title>N0</title>
<ellipse fill="none" stroke="black" cx="116.39" cy="-121.79" rx="28.7" ry="28.7"/>
<text text-anchor="middle" x="116.39" y="-118.09" font-family="Times,serif" font-size="14.00">null</text>
</g>
<!-- Carlos Costa,950852179 [fb:0]&#45;&gt;N0 -->
<g id="edge4" class="edge">
<title>Carlos Costa,950852179 [fb:0]&#45;&gt;N0</title>
<path fill="none" stroke="black" d="M146.43,-196.83C141.98,-185.87 136.05,-171.26 130.64,-157.92"/>
<polygon fill="black" stroke="black" points="133.82,-156.44 126.81,-148.49 127.33,-159.07 133.82,-156.44"/>
</g>
<!-- N1 -->
<g id="node6" class="node">
<title>N1</title>
<ellipse fill="none" stroke="black" cx="191.39" cy="-121.79" rx="28.7" ry="28.7"/>
<text text-anchor="middle" x="191.39" y="-118.09" font-family="Times,serif" font-size="14.00">null</text>
</g>
<!-- Carlos Costa,950852179 [fb:0]&#45;&gt;N1 -->
<g id="edge5" class="edge">
<title>Carlos Costa,950852179 [fb:0]&#45;&gt;N1</title>
<path fill="none" stroke="black" d="M160.53,-196.83C165.1,-185.87 171.19,-171.26 176.75,-157.92"/>
<polygon fill="black" stroke="black" points="180.06,-159.07 180.68,-148.49 173.6,-156.38 180.06,-159.07"/>
</g>
<!-- Carlos Campos,955323682 [fb:0] -->
<g id="node9" class="node">
<title>Carlos Campos,955323682 [fb:0]</title>
<ellipse fill="none" stroke="black" cx="563.39" cy="-214.99" rx="163.57" ry="18"/>
<text text-anchor="middle" x="563.39" y="-211.29" font-family="Times,serif" font-size="14.00">Carlos Campos,955323682 [fb:0]</text>
</g>
<!-- Carlos Souza,961337758 [fb:0]&#45;&gt;Carlos Campos,955323682 [fb:0] -->
<g id="edge8" class="edge">
<title>Carlos Souza,961337758 [fb:0]&#45;&gt;Carlos Campos,955323682 [fb:0]</title>
<path fill="none" stroke="black" d="M749.52,-280.37C712.19,-267.46 659.81,-249.34 620.12,-235.61"/>
<polygon fill="black" stroke="black" points="621.18,-232.27 610.58,-232.31 618.89,-238.89 621.18,-232.27"/>
</g>
<!-- Carlos Freitas,961834137 [fb:0] -->
<g id="node12" class="node">
<title>Carlos Freitas,961834137 [fb:0]</title>
<ellipse fill="none" stroke="black" cx="905.39" cy="-214.99" rx="159.77" ry="18"/>
<text text-anchor="middle" x="905.39" y="-211.29" font-family="Times,serif" font-size="14.00">Carlos Freitas,961834137 [fb:0]</text>
</g>
<!-- Carlos Souza,961337758 [fb:0]&#45;&gt;Carlos Freitas,961834137 [fb:0] -->
<g id="edge11" class="edge">
<title>Carlos Souza,961337758 [fb:0]&#45;&gt;Carlos Freitas,961834137 [fb:0]</title>
<path fill="none" stroke="black" d="M819.24,-279.69C835.22,-267.87 856.77,-251.93 874.32,-238.96"/>
<polygon fill="black" stroke="black" points="876.61,-241.62 882.57,-232.86 872.44,-235.99 876.61,-241.62"/>
</g>
<!-- N3 -->
<g id="node10" class="node">
<title>N3</title>
<ellipse fill="none" stroke="black" cx="525.39" cy="-121.79" rx="28.7" ry="28.7"/>
<text text-anchor="middle" x="525.39" y="-118.09" font-family="Times,serif" font-size="14.00">null</text>
</g>
<!-- Carlos Campos,955323682 [fb:0]&#45;&gt;N3 -->
<g id="edge9" class="edge">
<title>Carlos Campos,955323682 [fb:0]&#45;&gt;N3</title>
<path fill="none" stroke="black" d="M556.24,-196.83C551.67,-185.87 545.58,-171.26 540.02,-157.92"/>
<polygon fill="black" stroke="black" points="543.17,-156.38 536.09,-148.49 536.71,-159.07 543.17,-156.38"/>
</g>
<!-- N4 -->
<g id="node11" class="node">
<title>N4</title>
<ellipse fill="none" stroke="black" cx="600.39" cy="-121.79" rx="28.7" ry="28.7"/>
<text text-anchor="middle" x="600.39" y="-118.09" font-family="Times,serif" font-size="14.00">null</text>
</g>
<!-- Carlos Campos,955323682 [fb:0]&#45;&gt;N4 -->
<g id="edge10" class="edge">
<title>Carlos Campos,955323682 [fb:0]&#45;&gt;N4</title>
<path fill="none" stroke="black" d="M570.35,-196.83C574.79,-185.87 580.72,-171.26 586.14,-157.92"/>
<polygon fill="black" stroke="black" points="589.44,-159.07 589.96,-148.49 582.96,-156.44 589.44,-159.07"/>
</g>
<!-- N5 -->
<g id="node13" class="node">
<title>N5</title>
<ellipse fill="none" stroke="black" cx="867.39" cy="-121.79" rx="28.7" ry="28.7"/>
<text text-anchor="middle" x="867.39" y="-118.09" font-family="Times,serif" font-size="14.00">null</text>
</g>
<!-- Carlos Freitas,961834137 [fb:0]&#45;&gt;N5 -->
<g id="edge12" class="edge">
<title>Carlos Freitas,961834137 [fb:0]&#45;&gt;N5</title>
<path fill="none" stroke="black" d="M898.24,-196.83C893.67,-185.87 887.58,-171.26 882.02,-157.92"/>
<polygon fill="black" stroke="black" points="885.17,-156.38 878.09,-148.49 878.71,-159.07 885.17,-156.38"/>
</g>
<!-- N6 -->
<g id="node14" class="node">
<title>N6</title>
<ellipse fill="none" stroke="black" cx="942.39" cy="-121.79" rx="28.7" ry="28.7"/>
<text text-anchor="middle" x="942.39" y="-118.09" font-family="Times,serif" font-size="14.00">null</text>
</g>
<!-- Carlos Freitas,961834137 [fb:0]&#45;&gt;N6 -->
<g id="edge13" class="edge">
<title>Carlos Freitas,961834137 [fb:0]&#45;&gt;N6</title>
<path fill="none" stroke="black" d="M912.35,-196.83C916.79,-185.87 922.72,-171.26 928.14,-157.92"/>
<polygon fill="black" stroke="black" points="931.44,-159.07 931.96,-148.49 924.96,-156.44 931.44,-159.07"/>
</g>
<!-- Carlos Moura,973688088 [fb:&#45;1] -->
<g id="node16" class="node">
<title>Carlos Moura,973688088 [fb:&#45;1]</title>
<ellipse fill="none" stroke="black" cx="1288.39" cy="-297.58" rx="159.77" ry="18"/>
<text text-anchor="middle" x="1288.39" y="-293.88" font-family="Times,serif" font-size="14.00">Carlos Moura,973688088 [fb:&#45;1]</text>
</g>
<!-- Carlos Costa,976849055 [fb:1]&#45;&gt;Carlos Moura,973688088 [fb:&#45;1] -->
<g id="edge15" class="edge">
<title>Carlos Costa,976849055 [fb:1]&#45;&gt;Carlos Moura,973688088 [fb:&#45;1]</title>
<path fill="none" stroke="black" d="M1288.39,-351.28C1288.39,-343.57 1288.39,-334.3 1288.39,-325.7"/>
<polygon fill="black" stroke="black" points="1291.89,-325.69 1288.39,-315.69 1284.89,-325.69 1291.89,-325.69"/>
</g>
<!-- Carlos Freitas,990940187 [fb:&#45;1] -->
<g id="node21" class="node">
<title>Carlos Freitas,990940187 [fb:&#45;1]</title>
<ellipse fill="none" stroke="black" cx="1670.39" cy="-297.58" rx="163.27" ry="18"/>
<text text-anchor="middle" x="1670.39" y="-293.88" font-family="Times,serif" font-size="14.00">Carlos Freitas,990940187 [fb:&#45;1]</text>
</g>
<!-- Carlos Costa,976849055 [fb:1]&#45;&gt;Carlos Freitas,990940187 [fb:&#45;1] -->
<g id="edge20" class="edge">
<title>Carlos Costa,976849055 [fb:1]&#45;&gt;Carlos Freitas,990940187 [fb:&#45;1]</title>
<path fill="none" stroke="black" d="M1367.54,-354.08C1429.35,-342.75 1515.3,-327 1579.85,-315.17"/>
<polygon fill="black" stroke="black" points="1580.82,-318.56 1590.02,-313.31 1579.56,-311.67 1580.82,-318.56"/>
</g>
<!-- Carlos Barbosa,971596197 [fb:0] -->
<g id="node17" class="node">
<title>Carlos Barbosa,971596197 [fb:0]</title>
<ellipse fill="none" stroke="black" cx="1248.39" cy="-214.99" rx="165.17" ry="18"/>
<text text-anchor="middle" x="1248.39" y="-211.29" font-family="Times,serif" font-size="14.00">Carlos Barbosa,971596197 [fb:0]</text>
</g>
<!-- Carlos Moura,973688088 [fb:&#45;1]&#45;&gt;Carlos Barbosa,971596197 [fb:0] -->
<g id="edge16" class="edge">
<title>Carlos Moura,973688088 [fb:&#45;1]&#45;&gt;Carlos Barbosa,971596197 [fb:0]</title>
<path fill="none" stroke="black" d="M1279.9,-279.49C1274.55,-268.7 1267.52,-254.54 1261.46,-242.33"/>
<polygon fill="black" stroke="black" points="1264.44,-240.46 1256.86,-233.06 1258.17,-243.57 1264.44,-240.46"/>
</g>
<!-- N9 -->
<g id="node20" class="node">
<title>N9</title>
<ellipse fill="none" stroke="black" cx="1460.39" cy="-214.99" rx="28.7" ry="28.7"/>
<text text-anchor="middle" x="1460.39" y="-211.29" font-family="Times,serif" font-size="14.00">null</text>
</g>
<!-- Carlos Moura,973688088 [fb:&#45;1]&#45;&gt;N9 -->
<g id="edge19" class="edge">
<title>Carlos Moura,973688088 [fb:&#45;1]&#45;&gt;N9</title>
<path fill="none" stroke="black" d="M1337.79,-280.42C1363.69,-271.11 1395.53,-258.34 1422.39,-243.58 1424.7,-242.31 1427.04,-240.92 1429.35,-239.46"/>
<polygon fill="black" stroke="black" points="1431.74,-242.07 1438.09,-233.59 1427.84,-236.26 1431.74,-242.07"/>
</g>
<!-- N7 -->
<g id="node18" class="node">
<title>N7</title>
<ellipse fill="none" stroke="black" cx="1180.39" cy="-121.79" rx="28.7" ry="28.7"/>
<text text-anchor="middle" x="1180.39" y="-118.09" font-family="Times,serif" font-size="14.00">null</text>
</g>
<!-- Carlos Barbosa,971596197 [fb:0]&#45;&gt;N7 -->
<g id="edge17" class="edge">
<title>Carlos Barbosa,971596197 [fb:0]&#45;&gt;N7</title>
<path fill="none" stroke="black" d="M1235.6,-196.83C1226.53,-184.67 1214.11,-168.01 1203.34,-153.58"/>
<polygon fill="black" stroke="black" points="1206.02,-151.31 1197.23,-145.38 1200.4,-155.49 1206.02,-151.31"/>
</g>
<!-- N8 -->
<g id="node19" class="node">
<title>N8</title>
<ellipse fill="none" stroke="black" cx="1255.39" cy="-121.79" rx="28.7" ry="28.7"/>
<text text-anchor="middle" x="1255.39" y="-118.09" font-family="Times,serif" font-size="14.00">null</text>
</g>
<!-- Carlos Barbosa,971596197 [fb:0]&#45;&gt;N8 -->
<g id="edge18" class="edge">
<title>Carlos Barbosa,971596197 [fb:0]&#45;&gt;N8</title>
<path fill="none" stroke="black" d="M1249.7,-196.83C1250.48,-186.68 1251.5,-173.38 1252.46,-160.87"/>
<polygon fill="black" stroke="black" points="1255.97,-160.86 1253.25,-150.62 1249,-160.33 1255.97,-160.86"/>
</g>
<!-- Carlos Freitas,990775211 [fb:&#45;1] -->
<g id="node22" class="node">
<title>Carlos Freitas,990775211 [fb:&#45;1]</title>
<ellipse fill="none" stroke="black" cx="1670.39" cy="-214.99" rx="163.27" ry="18"/>
<text text-anchor="middle" x="1670.39" y="-211.29" font-family="Times,serif" font-size="14.00">Carlos Freitas,990775211 [fb:&#45;1]</text>
</g>
<!-- Carlos Freitas,990940187 [fb:&#45;1]&#45;&gt;Carlos Freitas,990775211 [fb:&#45;1] -->
<g id="edge21" class="edge">
<title>Carlos Freitas,990940187 [fb:&#45;1]&#45;&gt;Carlos Freitas,990775211 [fb:&#45;1]</title>
<path fill="none" stroke="black" d="M1670.39,-279.49C1670.39,-268.91 1670.39,-255.1 1670.39,-243.06"/>
<polygon fill="black" stroke="black" points="1673.89,-243.06 1670.39,-233.06 1666.89,-243.06 1673.89,-243.06"/>
</g>
<!-- Carlos Coelho,991472947 [fb:0] -->
<g id="node27" class="node">
<title>Carlos Coelho,991472947 [fb:0]</title>
<ellipse fill="none" stroke="black" cx="2010.39" cy="-214.99" rx="158.67" ry="18"/>
<text text-anchor="middle" x="2010.39" y="-211.29" font-family="Times,serif" font-size="14.00">Carlos Coelho,991472947 [fb:0]</text>
</g>
<!-- Carlos Freitas,990940187 [fb:&#45;1]&#45;&gt;Carlos Coelho,991472947 [fb:0] -->
<g id="edge26" class="edge">
<title>Carlos Freitas,990940187 [fb:&#45;1]&#45;&gt;Carlos Coelho,991472947 [fb:0]</title>
<path fill="none" stroke="black" d="M1735.94,-281.04C1793.06,-267.5 1875.87,-247.87 1935.57,-233.72"/>
<polygon fill="black" stroke="black" points="1936.4,-237.12 1945.32,-231.41 1934.78,-230.31 1936.4,-237.12"/>
</g>
<!-- Carlos Moura,984972895 [fb:0] -->
<g id="node23" class="node">
<title>Carlos Moura,984972895 [fb:0]</title>
<ellipse fill="none" stroke="black" cx="1568.39" cy="-121.79" rx="157.07" ry="18"/>
<text text-anchor="middle" x="1568.39" y="-118.09" font-family="Times,serif" font-size="14.00">Carlos Moura,984972895 [fb:0]</text>
</g>
<!-- Carlos Freitas,990775211 [fb:&#45;1]&#45;&gt;Carlos Moura,984972895 [fb:0] -->
<g id="edge22" class="edge">
<title>Carlos Freitas,990775211 [fb:&#45;1]&#45;&gt;Carlos Moura,984972895 [fb:0]</title>
<path fill="none" stroke="black" d="M1651.2,-196.83C1635.39,-182.7 1612.78,-162.48 1595.18,-146.75"/>
<polygon fill="black" stroke="black" points="1597.27,-143.92 1587.49,-139.87 1592.61,-149.14 1597.27,-143.92"/>
</g>
<!-- N12 -->
<g id="node26" class="node">
<title>N12</title>
<ellipse fill="none" stroke="black" cx="1772.39" cy="-121.79" rx="28.7" ry="28.7"/>
<text text-anchor="middle" x="1772.39" y="-118.09" font-family="Times,serif" font-size="14.00">null</text>
</g>
<!-- Carlos Freitas,990775211 [fb:&#45;1]&#45;&gt;N12 -->
<g id="edge25" class="edge">
<title>Carlos Freitas,990775211 [fb:&#45;1]&#45;&gt;N12</title>
<path fill="none" stroke="black" d="M1689.57,-196.83C1704.89,-183.14 1726.57,-163.75 1743.91,-148.25"/>
<polygon fill="black" stroke="black" points="1746.41,-150.71 1751.53,-141.44 1741.74,-145.49 1746.41,-150.71"/>
</g>
<!-- N10 -->
<g id="node24" class="node">
<title>N10</title>
<ellipse fill="none" stroke="black" cx="1531.39" cy="-28.6" rx="28.7" ry="28.7"/>
<text text-anchor="middle" x="1531.39" y="-24.9" font-family="Times,serif" font-size="14.00">null</text>
</g>
<!-- Carlos Moura,984972895 [fb:0]&#45;&gt;N10 -->
<g id="edge23" class="edge">
<title>Carlos Moura,984972895 [fb:0]&#45;&gt;N10</title>
<path fill="none" stroke="black" d="M1561.43,-103.64C1556.98,-92.68 1551.05,-78.07 1545.64,-64.72"/>
<polygon fill="black" stroke="black" points="1548.82,-63.25 1541.81,-55.3 1542.33,-65.88 1548.82,-63.25"/>
</g>
<!-- N11 -->
<g id="node25" class="node">
<title>N11</title>
<ellipse fill="none" stroke="black" cx="1606.39" cy="-28.6" rx="28.7" ry="28.7"/>
<text text-anchor="middle" x="1606.39" y="-24.9" font-family="Times,serif" font-size="14.00">null</text>
</g>
<!-- Carlos Moura,984972895 [fb:0]&#45;&gt;N11 -->
<g id="edge24" class="edge">
<title>Carlos Moura,984972895 [fb:0]&#45;&gt;N11</title>
<path fill="none" stroke="black" d="M1575.53,-103.64C1580.1,-92.68 1586.19,-78.07 1591.75,-64.72"/>
<polygon fill="black" stroke="black" points="1595.06,-65.87 1595.68,-55.3 1588.6,-63.18 1595.06,-65.87"/>
</g>
<!-- N13 -->
<g id="node28" class="node">
<title>N13</title>
<ellipse fill="none" stroke="black" cx="1972.39" cy="-121.79" rx="28.7" ry="28.7"/>
<text text-anchor="middle" x="1972.39" y="-118.09" font-family="Times,serif" font-size="14.00">null</text>
</g>
<!-- Carlos Coelho,991472947 [fb:0]&#45;&gt;N13 -->
<g id="edge27" class="edge">
<title>Carlos Coelho,991472947 [fb:0]&#45;&gt;N13</title>
<path fill="none" stroke="black" d="M2003.24,-196.83C1998.67,-185.87 1992.58,-171.26 1987.02,-157.92"/>
<polygon fill="black" stroke="black" points="1990.17,-156.38 1983.09,-148.49 1983.71,-159.07 1990.17,-156.38"/>
</g>
<!-- N14 -->
<g id="node29" class="node">
<title>N14</title>
<ellipse fill="none" stroke="black" cx="2047.39" cy="-121.79" rx="28.7" ry="28.7"/>
<text text-anchor="middle" x="2047.39" y="-118.09" font-family="Times,serif" font-size="14.00">null</text>
</g>
<!-- Carlos Coelho,991472947 [fb:0]&#45;&gt;N14 -->
<g id="edge28" class="edge">
<title>Carlos Coelho,991472947 [fb:0]&#45;&gt;N14</title>
<path fill="none" stroke="black" d="M2017.35,-196.83C2021.79,-185.87 2027.72,-171.26 2033.14,-157.92"/>
<polygon fill="black" stroke="black" points="2036.44,-159.07 2036.96,-148.49 2029.96,-156.44 2036.44,-159.07"/>
</g>
</g>
</svg>
