<?xml version="1.0" encoding="UTF-8" standalone="no"?>
<!DOCTYPE svg PUBLIC "-//W3C//DTD SVG 1.1//EN"
 "http://www.w3.org/Graphics/SVG/1.1/DTD/svg11.dtd">
<!-- Generated by graphviz version 2.43.0 (0)
 -->
<!-- Title: BST Pages: 1 -->
<svg width="348pt" height="274pt"
 viewBox="0.00 0.00 347.51 273.91" xmlns="http://www.w3.org/2000/svg" xmlns:xlink="http://www.w3.org/1999/xlink">
<g id="graph0" class="graph" transform="scale(1 1) rotate(0) translate(4 269.91)">
<title>BST</title>
<polygon fill="white" stroke="transparent" points="-4,4 -4,-269.91 343.51,-269.91 343.51,4 -4,4"/>
<!-- No_955450120 -->
<g id="node1" class="node">
<title>No_955450120</title>
<ellipse fill="none" stroke="black" cx="173.15" cy="-228.43" rx="76.24" ry="37.45"/>
<text text-anchor="middle" x="173.15" y="-239.73" font-family="Times,serif" font-size="14.00">Joana Barros</text>
<text text-anchor="middle" x="173.15" y="-224.73" font-family="Times,serif" font-size="14.00">955450120</text>
<text text-anchor="middle" x="173.15" y="-209.73" font-family="Times,serif" font-size="14.00">fb=0</text>
</g>
<!-- No_952474325 -->
<g id="node2" class="node">
<title>No_952474325</title>
<ellipse fill="none" stroke="black" cx="84.15" cy="-117.48" rx="84.29" ry="37.45"/>
<text text-anchor="middle" x="84.15" y="-128.78" font-family="Times,serif" font-size="14.00">Joana Barbosa</text>
<text text-anchor="middle" x="84.15" y="-113.78" font-family="Times,serif" font-size="14.00">952474325</text>
<text text-anchor="middle" x="84.15" y="-98.78" font-family="Times,serif" font-size="14.00">fb=0</text>
</g>
<!-- No_955450120&#45;&gt;No_952474325 -->
<g id="edge1" class="edge">
<title>No_955450120&#45;&gt;No_952474325</title>
<path fill="none" stroke="black" d="M145.23,-193.26C136.86,-183.01 127.58,-171.65 118.83,-160.94"/>
<polygon fill="black" stroke="black" points="121.31,-158.43 112.27,-152.9 115.88,-162.86 121.31,-158.43"/>
</g>
<!-- No_972422204 -->
<g id="node5" class="node">
<title>No_972422204</title>
<ellipse fill="none" stroke="black" cx="263.15" cy="-117.48" rx="76.24" ry="37.45"/>
<text text-anchor="middle" x="263.15" y="-128.78" font-family="Times,serif" font-size="14.00">João Campos</text>
<text text-anchor="middle" x="263.15" y="-113.78" font-family="Times,serif" font-size="14.00">972422204</text>
<text text-anchor="middle" x="263.15" y="-98.78" font-family="Times,serif" font-size="14.00">fb=0</text>
</g>
<!-- No_955450120&#45;&gt;No_972422204 -->
<g id="edge4" class="edge">
<title>No_955450120&#45;&gt;No_972422204</title>
<path fill="none" stroke="black" d="M201.13,-193.55C209.77,-183.1 219.38,-171.46 228.42,-160.52"/>
<polygon fill="black" stroke="black" points="231.2,-162.65 234.87,-152.71 225.8,-158.19 231.2,-162.65"/>
</g>
<!-- NUL_0 -->
<g id="node3" class="node">
<title>NUL_0</title>
<polygon fill="none" stroke="black" points="103.15,-44 59.15,-44 59.15,0 103.15,0 103.15,-44"/>
<text text-anchor="middle" x="81.15" y="-18.3" font-family="Times,serif" font-size="14.00">null</text>
</g>
<!-- No_952474325&#45;&gt;NUL_0 -->
<g id="edge2" class="edge">
<title>No_952474325&#45;&gt;NUL_0</title>
<path fill="none" stroke="black" d="M82.97,-79.8C82.7,-71.41 82.42,-62.56 82.15,-54.41"/>
<polygon fill="black" stroke="black" points="85.65,-54.08 81.83,-44.2 78.65,-54.31 85.65,-54.08"/>
</g>
<!-- NUL_1 -->
<g id="node4" class="node">
<title>NUL_1</title>
<polygon fill="none" stroke="black" points="165.15,-44 121.15,-44 121.15,0 165.15,0 165.15,-44"/>
<text text-anchor="middle" x="143.15" y="-18.3" font-family="Times,serif" font-size="14.00">null</text>
</g>
<!-- No_952474325&#45;&gt;NUL_1 -->
<g id="edge3" class="edge">
<title>No_952474325&#45;&gt;NUL_1</title>
<path fill="none" stroke="black" d="M106.45,-81.14C112.37,-71.75 118.71,-61.72 124.42,-52.67"/>
<polygon fill="black" stroke="black" points="127.51,-54.34 129.88,-44.01 121.59,-50.6 127.51,-54.34"/>
</g>
<!-- NUL_2 -->
<g id="node6" class="node">
<title>NUL_2</title>
<polygon fill="none" stroke="black" points="256.15,-44 212.15,-44 212.15,0 256.15,0 256.15,-44"/>
<text text-anchor="middle" x="234.15" y="-18.3" font-family="Times,serif" font-size="14.00">null</text>
</g>
<!-- No_972422204&#45;&gt;NUL_2 -->
<g id="edge5" class="edge">
<title>No_972422204&#45;&gt;NUL_2</title>
<path fill="none" stroke="black" d="M251.93,-80.34C249.24,-71.64 246.38,-62.43 243.76,-54"/>
<polygon fill="black" stroke="black" points="247.02,-52.7 240.72,-44.18 240.34,-54.77 247.02,-52.7"/>
</g>
<!-- NUL_3 -->
<g id="node7" class="node">
<title>NUL_3</title>
<polygon fill="none" stroke="black" points="318.15,-44 274.15,-44 274.15,0 318.15,0 318.15,-44"/>
<text text-anchor="middle" x="296.15" y="-18.3" font-family="Times,serif" font-size="14.00">null</text>
</g>
<!-- No_972422204&#45;&gt;NUL_3 -->
<g id="edge6" class="edge">
<title>No_972422204&#45;&gt;NUL_3</title>
<path fill="none" stroke="black" d="M275.9,-80.34C279.01,-71.55 282.3,-62.23 285.3,-53.72"/>
<polygon fill="black" stroke="black" points="288.64,-54.78 288.67,-44.18 282.04,-52.45 288.64,-54.78"/>
</g>
</g>
</svg>
