<?xml version="1.0" encoding="UTF-8" standalone="no"?>
<!DOCTYPE svg PUBLIC "-//W3C//DTD SVG 1.1//EN"
 "http://www.w3.org/Graphics/SVG/1.1/DTD/svg11.dtd">
<!-- Generated by graphviz version 2.43.0 (0)
 -->
<!-- Title: BST Pages: 1 -->
<svg width="295pt" height="274pt"
 viewBox="0.00 0.00 295.08 273.91" xmlns="http://www.w3.org/2000/svg" xmlns:xlink="http://www.w3.org/1999/xlink">
<g id="graph0" class="graph" transform="scale(1 1) rotate(0) translate(4 269.91)">
<title>BST</title>
<polygon fill="white" stroke="transparent" points="-4,4 -4,-269.91 291.08,-269.91 291.08,4 -4,4"/>
<!-- No_977522470 -->
<g id="node1" class="node">
<title>No_977522470</title>
<ellipse fill="none" stroke="black" cx="171.12" cy="-228.43" rx="115.93" ry="37.45"/>
<text text-anchor="middle" x="171.12" y="-239.73" font-family="Times,serif" font-size="14.00">Washington Barbosa</text>
<text text-anchor="middle" x="171.12" y="-224.73" font-family="Times,serif" font-size="14.00">977522470</text>
<text text-anchor="middle" x="171.12" y="-209.73" font-family="Times,serif" font-size="14.00">fb=&#45;1</text>
</g>
<!-- No_976828152 -->
<g id="node2" class="node">
<title>No_976828152</title>
<ellipse fill="none" stroke="black" cx="101.12" cy="-117.48" rx="101.23" ry="37.45"/>
<text text-anchor="middle" x="101.12" y="-128.78" font-family="Times,serif" font-size="14.00">Washington Porto</text>
<text text-anchor="middle" x="101.12" y="-113.78" font-family="Times,serif" font-size="14.00">976828152</text>
<text text-anchor="middle" x="101.12" y="-98.78" font-family="Times,serif" font-size="14.00">fb=0</text>
</g>
<!-- No_977522470&#45;&gt;No_976828152 -->
<g id="edge1" class="edge">
<title>No_977522470&#45;&gt;No_976828152</title>
<path fill="none" stroke="black" d="M148,-191.45C142.09,-182.25 135.66,-172.24 129.51,-162.67"/>
<polygon fill="black" stroke="black" points="132.32,-160.57 123.97,-154.04 126.43,-164.35 132.32,-160.57"/>
</g>
<!-- NUL_2 -->
<g id="node5" class="node">
<title>NUL_2</title>
<polygon fill="none" stroke="black" points="264.12,-139.48 220.12,-139.48 220.12,-95.48 264.12,-95.48 264.12,-139.48"/>
<text text-anchor="middle" x="242.12" y="-113.78" font-family="Times,serif" font-size="14.00">null</text>
</g>
<!-- No_977522470&#45;&gt;NUL_2 -->
<g id="edge4" class="edge">
<title>No_977522470&#45;&gt;NUL_2</title>
<path fill="none" stroke="black" d="M194.56,-191.45C203.62,-177.55 213.87,-161.83 222.52,-148.55"/>
<polygon fill="black" stroke="black" points="225.7,-150.08 228.23,-139.79 219.83,-146.26 225.7,-150.08"/>
</g>
<!-- NUL_0 -->
<g id="node3" class="node">
<title>NUL_0</title>
<polygon fill="none" stroke="black" points="92.12,-44 48.12,-44 48.12,0 92.12,0 92.12,-44"/>
<text text-anchor="middle" x="70.12" y="-18.3" font-family="Times,serif" font-size="14.00">null</text>
</g>
<!-- No_976828152&#45;&gt;NUL_0 -->
<g id="edge2" class="edge">
<title>No_976828152&#45;&gt;NUL_0</title>
<path fill="none" stroke="black" d="M89.04,-80.07C86.13,-71.3 83.06,-62.02 80.25,-53.55"/>
<polygon fill="black" stroke="black" points="83.57,-52.45 77.1,-44.06 76.92,-54.65 83.57,-52.45"/>
</g>
<!-- NUL_1 -->
<g id="node4" class="node">
<title>NUL_1</title>
<polygon fill="none" stroke="black" points="154.12,-44 110.12,-44 110.12,0 154.12,0 154.12,-44"/>
<text text-anchor="middle" x="132.12" y="-18.3" font-family="Times,serif" font-size="14.00">null</text>
</g>
<!-- No_976828152&#45;&gt;NUL_1 -->
<g id="edge3" class="edge">
<title>No_976828152&#45;&gt;NUL_1</title>
<path fill="none" stroke="black" d="M113.19,-80.07C116.1,-71.3 119.18,-62.02 121.99,-53.55"/>
<polygon fill="black" stroke="black" points="125.31,-54.65 125.13,-44.06 118.66,-52.45 125.31,-54.65"/>
</g>
</g>
</svg>
