<?xml version="1.0" encoding="UTF-8" standalone="no"?>
<!DOCTYPE svg PUBLIC "-//W3C//DTD SVG 1.1//EN"
 "http://www.w3.org/Graphics/SVG/1.1/DTD/svg11.dtd">
<!-- Generated by graphviz version 2.43.0 (0)
 -->
<!-- Title: BST Pages: 1 -->
<svg width="530pt" height="116pt"
 viewBox="0.00 0.00 530.18 116.00" xmlns="http://www.w3.org/2000/svg" xmlns:xlink="http://www.w3.org/1999/xlink">
<g id="graph0" class="graph" transform="scale(1 1) rotate(0) translate(4 112)">
<title>BST</title>
<polygon fill="white" stroke="transparent" points="-4,4 -4,-112 526.18,-112 526.18,4 -4,4"/>
<!-- Yago Costa,977426233 -->
<g id="node1" class="node">
<title>Yago Costa,977426233</title>
<ellipse fill="none" stroke="black" cx="264.34" cy="-90" rx="117.78" ry="18"/>
<text text-anchor="middle" x="264.34" y="-86.3" font-family="Times,serif" font-size="14.00">Yago Costa,977426233</text>
</g>
<!-- Yago Barbosa,976786212 -->
<g id="node2" class="node">
<title>Yago Barbosa,976786212</title>
<ellipse fill="none" stroke="black" cx="129.34" cy="-18" rx="129.18" ry="18"/>
<text text-anchor="middle" x="129.34" y="-14.3" font-family="Times,serif" font-size="14.00">Yago Barbosa,976786212</text>
</g>
<!-- Yago Costa,977426233&#45;&gt;Yago Barbosa,976786212 -->
<g id="edge1" class="edge">
<title>Yago Costa,977426233&#45;&gt;Yago Barbosa,976786212</title>
<path fill="none" stroke="black" d="M232.69,-72.59C214.03,-62.92 190.24,-50.58 170.18,-40.18"/>
<polygon fill="black" stroke="black" points="171.75,-37.05 161.26,-35.55 168.53,-43.26 171.75,-37.05"/>
</g>
<!-- Yago Santos,994390255 -->
<g id="node3" class="node">
<title>Yago Santos,994390255</title>
<ellipse fill="none" stroke="black" cx="399.34" cy="-18" rx="122.68" ry="18"/>
<text text-anchor="middle" x="399.34" y="-14.3" font-family="Times,serif" font-size="14.00">Yago Santos,994390255</text>
</g>
<!-- Yago Costa,977426233&#45;&gt;Yago Santos,994390255 -->
<g id="edge2" class="edge">
<title>Yago Costa,977426233&#45;&gt;Yago Santos,994390255</title>
<path fill="none" stroke="black" d="M295.99,-72.59C314.64,-62.92 338.44,-50.58 358.5,-40.18"/>
<polygon fill="black" stroke="black" points="360.15,-43.26 367.42,-35.55 356.93,-37.05 360.15,-43.26"/>
</g>
</g>
</svg>
