<?xml version="1.0" encoding="UTF-8" standalone="no"?>
<!DOCTYPE svg PUBLIC "-//W3C//DTD SVG 1.1//EN"
 "http://www.w3.org/Graphics/SVG/1.1/DTD/svg11.dtd">
<!-- Generated by graphviz version 2.43.0 (0)
 -->
<!-- Title: BST Pages: 1 -->
<svg width="851pt" height="260pt"
 viewBox="0.00 0.00 851.27 260.00" xmlns="http://www.w3.org/2000/svg" xmlns:xlink="http://www.w3.org/1999/xlink">
<g id="graph0" class="graph" transform="scale(1 1) rotate(0) translate(4 256)">
<title>BST</title>
<polygon fill="white" stroke="transparent" points="-4,4 -4,-256 847.27,-256 847.27,4 -4,4"/>
<!-- Washington Rodrigues,961697749 -->
<g id="node1" class="node">
<title>Washington Rodrigues,961697749</title>
<ellipse fill="none" stroke="black" cx="342.74" cy="-234" rx="170.87" ry="18"/>
<text text-anchor="middle" x="342.74" y="-230.3" font-family="Times,serif" font-size="14.00">Washington Rodrigues,961697749</text>
</g>
<!-- Washington Barros,958678462 -->
<g id="node2" class="node">
<title>Washington Barros,958678462</title>
<ellipse fill="none" stroke="black" cx="181.74" cy="-162" rx="155.17" ry="18"/>
<text text-anchor="middle" x="181.74" y="-158.3" font-family="Times,serif" font-size="14.00">Washington Barros,958678462</text>
</g>
<!-- Washington Rodrigues,961697749&#45;&gt;Washington Barros,958678462 -->
<g id="edge1" class="edge">
<title>Washington Rodrigues,961697749&#45;&gt;Washington Barros,958678462</title>
<path fill="none" stroke="black" d="M304.58,-216.41C281.92,-206.56 253.01,-193.99 228.93,-183.52"/>
<polygon fill="black" stroke="black" points="230.18,-180.25 219.62,-179.47 227.39,-186.67 230.18,-180.25"/>
</g>
<!-- Washington Costa,976017582 -->
<g id="node4" class="node">
<title>Washington Costa,976017582</title>
<ellipse fill="none" stroke="black" cx="512.74" cy="-162" rx="150.27" ry="18"/>
<text text-anchor="middle" x="512.74" y="-158.3" font-family="Times,serif" font-size="14.00">Washington Costa,976017582</text>
</g>
<!-- Washington Rodrigues,961697749&#45;&gt;Washington Costa,976017582 -->
<g id="edge3" class="edge">
<title>Washington Rodrigues,961697749&#45;&gt;Washington Costa,976017582</title>
<path fill="none" stroke="black" d="M383.02,-216.41C407.05,-206.52 437.75,-193.88 463.24,-183.38"/>
<polygon fill="black" stroke="black" points="464.82,-186.51 472.74,-179.47 462.16,-180.04 464.82,-186.51"/>
</g>
<!-- Washington Machado,955446445 -->
<g id="node3" class="node">
<title>Washington Machado,955446445</title>
<ellipse fill="none" stroke="black" cx="165.74" cy="-90" rx="165.97" ry="18"/>
<text text-anchor="middle" x="165.74" y="-86.3" font-family="Times,serif" font-size="14.00">Washington Machado,955446445</text>
</g>
<!-- Washington Barros,958678462&#45;&gt;Washington Machado,955446445 -->
<g id="edge2" class="edge">
<title>Washington Barros,958678462&#45;&gt;Washington Machado,955446445</title>
<path fill="none" stroke="black" d="M177.78,-143.7C176.02,-135.98 173.9,-126.71 171.93,-118.11"/>
<polygon fill="black" stroke="black" points="175.29,-117.07 169.64,-108.1 168.46,-118.63 175.29,-117.07"/>
</g>
<!-- Washington Rodrigues,986307423 -->
<g id="node5" class="node">
<title>Washington Rodrigues,986307423</title>
<ellipse fill="none" stroke="black" cx="520.74" cy="-90" rx="170.87" ry="18"/>
<text text-anchor="middle" x="520.74" y="-86.3" font-family="Times,serif" font-size="14.00">Washington Rodrigues,986307423</text>
</g>
<!-- Washington Costa,976017582&#45;&gt;Washington Rodrigues,986307423 -->
<g id="edge4" class="edge">
<title>Washington Costa,976017582&#45;&gt;Washington Rodrigues,986307423</title>
<path fill="none" stroke="black" d="M514.71,-143.7C515.59,-135.98 516.65,-126.71 517.64,-118.11"/>
<polygon fill="black" stroke="black" points="521.12,-118.44 518.78,-108.1 514.17,-117.64 521.12,-118.44"/>
</g>
<!-- Washington Silva,978326149 -->
<g id="node6" class="node">
<title>Washington Silva,978326149</title>
<ellipse fill="none" stroke="black" cx="357.74" cy="-18" rx="146.77" ry="18"/>
<text text-anchor="middle" x="357.74" y="-14.3" font-family="Times,serif" font-size="14.00">Washington Silva,978326149</text>
</g>
<!-- Washington Rodrigues,986307423&#45;&gt;Washington Silva,978326149 -->
<g id="edge5" class="edge">
<title>Washington Rodrigues,986307423&#45;&gt;Washington Silva,978326149</title>
<path fill="none" stroke="black" d="M482.11,-72.41C459.17,-62.56 429.9,-49.99 405.51,-39.52"/>
<polygon fill="black" stroke="black" points="406.66,-36.2 396.09,-35.47 403.89,-42.63 406.66,-36.2"/>
</g>
<!-- Washington Martins,987735642 -->
<g id="node7" class="node">
<title>Washington Martins,987735642</title>
<ellipse fill="none" stroke="black" cx="682.74" cy="-18" rx="160.57" ry="18"/>
<text text-anchor="middle" x="682.74" y="-14.3" font-family="Times,serif" font-size="14.00">Washington Martins,987735642</text>
</g>
<!-- Washington Rodrigues,986307423&#45;&gt;Washington Martins,987735642 -->
<g id="edge6" class="edge">
<title>Washington Rodrigues,986307423&#45;&gt;Washington Martins,987735642</title>
<path fill="none" stroke="black" d="M559.13,-72.41C581.84,-62.6 610.81,-50.08 634.99,-39.63"/>
<polygon fill="black" stroke="black" points="636.55,-42.77 644.34,-35.59 633.77,-36.34 636.55,-42.77"/>
</g>
</g>
</svg>
