<?xml version="1.0" encoding="UTF-8" standalone="no"?>
<!DOCTYPE svg PUBLIC "-//W3C//DTD SVG 1.1//EN"
 "http://www.w3.org/Graphics/SVG/1.1/DTD/svg11.dtd">
<!-- Generated by graphviz version 2.43.0 (0)
 -->
<!-- Title: BST Pages: 1 -->
<svg width="847pt" height="260pt"
 viewBox="0.00 0.00 847.13 260.00" xmlns="http://www.w3.org/2000/svg" xmlns:xlink="http://www.w3.org/1999/xlink">
<g id="graph0" class="graph" transform="scale(1 1) rotate(0) translate(4 256)">
<title>BST</title>
<polygon fill="white" stroke="transparent" points="-4,4 -4,-256 843.13,-256 843.13,4 -4,4"/>
<!-- Marcel Silva,962499508 -->
<g id="node1" class="node">
<title>Marcel Silva,962499508</title>
<ellipse fill="none" stroke="black" cx="559.54" cy="-234" rx="124.28" ry="18"/>
<text text-anchor="middle" x="559.54" y="-230.3" font-family="Times,serif" font-size="14.00">Marcel Silva,962499508</text>
</g>
<!-- Márcio Machado,951425568 -->
<g id="node2" class="node">
<title>Márcio Machado,951425568</title>
<ellipse fill="none" stroke="black" cx="412.54" cy="-162" rx="143.77" ry="18"/>
<text text-anchor="middle" x="412.54" y="-158.3" font-family="Times,serif" font-size="14.00">Márcio Machado,951425568</text>
</g>
<!-- Marcel Silva,962499508&#45;&gt;Márcio Machado,951425568 -->
<g id="edge1" class="edge">
<title>Marcel Silva,962499508&#45;&gt;Márcio Machado,951425568</title>
<path fill="none" stroke="black" d="M525.07,-216.59C504.58,-206.83 478.38,-194.35 456.42,-183.9"/>
<polygon fill="black" stroke="black" points="457.83,-180.69 447.3,-179.55 454.82,-187.01 457.83,-180.69"/>
</g>
<!-- Márcio Moura,967440374 -->
<g id="node5" class="node">
<title>Márcio Moura,967440374</title>
<ellipse fill="none" stroke="black" cx="706.54" cy="-162" rx="131.88" ry="18"/>
<text text-anchor="middle" x="706.54" y="-158.3" font-family="Times,serif" font-size="14.00">Márcio Moura,967440374</text>
</g>
<!-- Marcel Silva,962499508&#45;&gt;Márcio Moura,967440374 -->
<g id="edge4" class="edge">
<title>Marcel Silva,962499508&#45;&gt;Márcio Moura,967440374</title>
<path fill="none" stroke="black" d="M594,-216.59C614.57,-206.79 640.88,-194.26 662.89,-183.78"/>
<polygon fill="black" stroke="black" points="664.51,-186.89 672.03,-179.43 661.5,-180.57 664.51,-186.89"/>
</g>
<!-- Marcel Freitas,950313546 -->
<g id="node3" class="node">
<title>Marcel Freitas,950313546</title>
<ellipse fill="none" stroke="black" cx="134.54" cy="-90" rx="134.58" ry="18"/>
<text text-anchor="middle" x="134.54" y="-86.3" font-family="Times,serif" font-size="14.00">Marcel Freitas,950313546</text>
</g>
<!-- Márcio Machado,951425568&#45;&gt;Marcel Freitas,950313546 -->
<g id="edge2" class="edge">
<title>Márcio Machado,951425568&#45;&gt;Marcel Freitas,950313546</title>
<path fill="none" stroke="black" d="M351.53,-145.64C308.2,-134.73 249.92,-120.05 204.66,-108.66"/>
<polygon fill="black" stroke="black" points="205.48,-105.25 194.93,-106.21 203.77,-112.04 205.48,-105.25"/>
</g>
<!-- Marcel Torres,961020719 -->
<g id="node4" class="node">
<title>Marcel Torres,961020719</title>
<ellipse fill="none" stroke="black" cx="418.54" cy="-90" rx="131.08" ry="18"/>
<text text-anchor="middle" x="418.54" y="-86.3" font-family="Times,serif" font-size="14.00">Marcel Torres,961020719</text>
</g>
<!-- Márcio Machado,951425568&#45;&gt;Marcel Torres,961020719 -->
<g id="edge3" class="edge">
<title>Márcio Machado,951425568&#45;&gt;Marcel Torres,961020719</title>
<path fill="none" stroke="black" d="M414.02,-143.7C414.68,-135.98 415.48,-126.71 416.21,-118.11"/>
<polygon fill="black" stroke="black" points="419.71,-118.37 417.07,-108.1 412.73,-117.77 419.71,-118.37"/>
</g>
<!-- Márcio Barros,969853543 -->
<g id="node6" class="node">
<title>Márcio Barros,969853543</title>
<ellipse fill="none" stroke="black" cx="706.54" cy="-90" rx="132.68" ry="18"/>
<text text-anchor="middle" x="706.54" y="-86.3" font-family="Times,serif" font-size="14.00">Márcio Barros,969853543</text>
</g>
<!-- Márcio Moura,967440374&#45;&gt;Márcio Barros,969853543 -->
<g id="edge5" class="edge">
<title>Márcio Moura,967440374&#45;&gt;Márcio Barros,969853543</title>
<path fill="none" stroke="black" d="M706.54,-143.7C706.54,-135.98 706.54,-126.71 706.54,-118.11"/>
<polygon fill="black" stroke="black" points="710.04,-118.1 706.54,-108.1 703.04,-118.1 710.04,-118.1"/>
</g>
<!-- Márcio Moura,979688182 -->
<g id="node7" class="node">
<title>Márcio Moura,979688182</title>
<ellipse fill="none" stroke="black" cx="706.54" cy="-18" rx="131.88" ry="18"/>
<text text-anchor="middle" x="706.54" y="-14.3" font-family="Times,serif" font-size="14.00">Márcio Moura,979688182</text>
</g>
<!-- Márcio Barros,969853543&#45;&gt;Márcio Moura,979688182 -->
<g id="edge6" class="edge">
<title>Márcio Barros,969853543&#45;&gt;Márcio Moura,979688182</title>
<path fill="none" stroke="black" d="M706.54,-71.7C706.54,-63.98 706.54,-54.71 706.54,-46.11"/>
<polygon fill="black" stroke="black" points="710.04,-46.1 706.54,-36.1 703.04,-46.1 710.04,-46.1"/>
</g>
</g>
</svg>
