<?xml version="1.0" encoding="UTF-8" standalone="no"?>
<!DOCTYPE svg PUBLIC "-//W3C//DTD SVG 1.1//EN"
 "http://www.w3.org/Graphics/SVG/1.1/DTD/svg11.dtd">
<!-- Generated by graphviz version 2.43.0 (0)
 -->
<!-- Title: BST Pages: 1 -->
<svg width="2844pt" height="468pt"
 viewBox="0.00 0.00 2844.43 467.58" xmlns="http://www.w3.org/2000/svg" xmlns:xlink="http://www.w3.org/1999/xlink">
<g id="graph0" class="graph" transform="scale(1 1) rotate(0) translate(4 463.58)">
<title>BST</title>
<polygon fill="white" stroke="transparent" points="-4,4 -4,-463.58 2840.43,-463.58 2840.43,4 -4,4"/>
<!-- Roberto Martins,967828497 [fb:1] -->
<g id="node1" class="node">
<title>Roberto Martins,967828497 [fb:1]</title>
<ellipse fill="none" stroke="black" cx="1030.84" cy="-441.58" rx="170.87" ry="18"/>
<text text-anchor="middle" x="1030.84" y="-437.88" font-family="Times,serif" font-size="14.00">Roberto Martins,967828497 [fb:1]</text>
</g>
<!-- Roberto Barbosa,964163007 [fb:0] -->
<g id="node2" class="node">
<title>Roberto Barbosa,964163007 [fb:0]</title>
<ellipse fill="none" stroke="black" cx="851.84" cy="-369.58" rx="172.47" ry="18"/>
<text text-anchor="middle" x="851.84" y="-365.88" font-family="Times,serif" font-size="14.00">Roberto Barbosa,964163007 [fb:0]</text>
</g>
<!-- Roberto Martins,967828497 [fb:1]&#45;&gt;Roberto Barbosa,964163007 [fb:0] -->
<g id="edge1" class="edge">
<title>Roberto Martins,967828497 [fb:1]&#45;&gt;Roberto Barbosa,964163007 [fb:0]</title>
<path fill="none" stroke="black" d="M988.42,-424C963,-414.06 930.51,-401.35 903.59,-390.82"/>
<polygon fill="black" stroke="black" points="904.54,-387.44 893.95,-387.05 901.99,-393.96 904.54,-387.44"/>
</g>
<!-- Roberto Barros,980040703 [fb:1] -->
<g id="node15" class="node">
<title>Roberto Barros,980040703 [fb:1]</title>
<ellipse fill="none" stroke="black" cx="1493.84" cy="-369.58" rx="165.17" ry="18"/>
<text text-anchor="middle" x="1493.84" y="-365.88" font-family="Times,serif" font-size="14.00">Roberto Barros,980040703 [fb:1]</text>
</g>
<!-- Roberto Martins,967828497 [fb:1]&#45;&gt;Roberto Barros,980040703 [fb:1] -->
<g id="edge14" class="edge">
<title>Roberto Martins,967828497 [fb:1]&#45;&gt;Roberto Barros,980040703 [fb:1]</title>
<path fill="none" stroke="black" d="M1124.25,-426.46C1201.64,-414.76 1311.47,-398.16 1391.28,-386.09"/>
<polygon fill="black" stroke="black" points="1391.99,-389.52 1401.35,-384.57 1390.94,-382.6 1391.99,-389.52"/>
</g>
<!-- Roberto Freitas,952862350 [fb:&#45;1] -->
<g id="node3" class="node">
<title>Roberto Freitas,952862350 [fb:&#45;1]</title>
<ellipse fill="none" stroke="black" cx="369.84" cy="-297.58" rx="170.07" ry="18"/>
<text text-anchor="middle" x="369.84" y="-293.88" font-family="Times,serif" font-size="14.00">Roberto Freitas,952862350 [fb:&#45;1]</text>
</g>
<!-- Roberto Barbosa,964163007 [fb:0]&#45;&gt;Roberto Freitas,952862350 [fb:&#45;1] -->
<g id="edge2" class="edge">
<title>Roberto Barbosa,964163007 [fb:0]&#45;&gt;Roberto Freitas,952862350 [fb:&#45;1]</title>
<path fill="none" stroke="black" d="M755.74,-354.63C674.86,-342.88 559.33,-326.1 475.78,-313.97"/>
<polygon fill="black" stroke="black" points="476.15,-310.49 465.75,-312.51 475.15,-317.42 476.15,-310.49"/>
</g>
<!-- Roberto Rodrigues,966669452 [fb:0] -->
<g id="node8" class="node">
<title>Roberto Rodrigues,966669452 [fb:0]</title>
<ellipse fill="none" stroke="black" cx="851.84" cy="-297.58" rx="181.17" ry="18"/>
<text text-anchor="middle" x="851.84" y="-293.88" font-family="Times,serif" font-size="14.00">Roberto Rodrigues,966669452 [fb:0]</text>
</g>
<!-- Roberto Barbosa,964163007 [fb:0]&#45;&gt;Roberto Rodrigues,966669452 [fb:0] -->
<g id="edge7" class="edge">
<title>Roberto Barbosa,964163007 [fb:0]&#45;&gt;Roberto Rodrigues,966669452 [fb:0]</title>
<path fill="none" stroke="black" d="M851.84,-351.28C851.84,-343.57 851.84,-334.3 851.84,-325.7"/>
<polygon fill="black" stroke="black" points="855.34,-325.69 851.84,-315.69 848.34,-325.69 855.34,-325.69"/>
</g>
<!-- Roberto Souza,950773441 [fb:0] -->
<g id="node4" class="node">
<title>Roberto Souza,950773441 [fb:0]</title>
<ellipse fill="none" stroke="black" cx="161.84" cy="-214.99" rx="161.67" ry="18"/>
<text text-anchor="middle" x="161.84" y="-211.29" font-family="Times,serif" font-size="14.00">Roberto Souza,950773441 [fb:0]</text>
</g>
<!-- Roberto Freitas,952862350 [fb:&#45;1]&#45;&gt;Roberto Souza,950773441 [fb:0] -->
<g id="edge3" class="edge">
<title>Roberto Freitas,952862350 [fb:&#45;1]&#45;&gt;Roberto Souza,950773441 [fb:0]</title>
<path fill="none" stroke="black" d="M327.24,-280.08C294.43,-267.37 248.92,-249.73 213.94,-236.18"/>
<polygon fill="black" stroke="black" points="214.96,-232.82 204.37,-232.47 212.43,-239.35 214.96,-232.82"/>
</g>
<!-- N2 -->
<g id="node7" class="node">
<title>N2</title>
<ellipse fill="none" stroke="black" cx="369.84" cy="-214.99" rx="28.7" ry="28.7"/>
<text text-anchor="middle" x="369.84" y="-211.29" font-family="Times,serif" font-size="14.00">null</text>
</g>
<!-- Roberto Freitas,952862350 [fb:&#45;1]&#45;&gt;N2 -->
<g id="edge6" class="edge">
<title>Roberto Freitas,952862350 [fb:&#45;1]&#45;&gt;N2</title>
<path fill="none" stroke="black" d="M369.84,-279.49C369.84,-272.05 369.84,-263.01 369.84,-254.11"/>
<polygon fill="black" stroke="black" points="373.34,-253.84 369.84,-243.84 366.34,-253.84 373.34,-253.84"/>
</g>
<!-- N0 -->
<g id="node5" class="node">
<title>N0</title>
<ellipse fill="none" stroke="black" cx="124.84" cy="-121.79" rx="28.7" ry="28.7"/>
<text text-anchor="middle" x="124.84" y="-118.09" font-family="Times,serif" font-size="14.00">null</text>
</g>
<!-- Roberto Souza,950773441 [fb:0]&#45;&gt;N0 -->
<g id="edge4" class="edge">
<title>Roberto Souza,950773441 [fb:0]&#45;&gt;N0</title>
<path fill="none" stroke="black" d="M154.88,-196.83C150.43,-185.87 144.5,-171.26 139.09,-157.92"/>
<polygon fill="black" stroke="black" points="142.27,-156.44 135.26,-148.49 135.78,-159.07 142.27,-156.44"/>
</g>
<!-- N1 -->
<g id="node6" class="node">
<title>N1</title>
<ellipse fill="none" stroke="black" cx="199.84" cy="-121.79" rx="28.7" ry="28.7"/>
<text text-anchor="middle" x="199.84" y="-118.09" font-family="Times,serif" font-size="14.00">null</text>
</g>
<!-- Roberto Souza,950773441 [fb:0]&#45;&gt;N1 -->
<g id="edge5" class="edge">
<title>Roberto Souza,950773441 [fb:0]&#45;&gt;N1</title>
<path fill="none" stroke="black" d="M168.98,-196.83C173.55,-185.87 179.64,-171.26 185.2,-157.92"/>
<polygon fill="black" stroke="black" points="188.51,-159.07 189.13,-148.49 182.05,-156.38 188.51,-159.07"/>
</g>
<!-- Roberto Machado,965381960 [fb:0] -->
<g id="node9" class="node">
<title>Roberto Machado,965381960 [fb:0]</title>
<ellipse fill="none" stroke="black" cx="592.84" cy="-214.99" rx="176.27" ry="18"/>
<text text-anchor="middle" x="592.84" y="-211.29" font-family="Times,serif" font-size="14.00">Roberto Machado,965381960 [fb:0]</text>
</g>
<!-- Roberto Rodrigues,966669452 [fb:0]&#45;&gt;Roberto Machado,965381960 [fb:0] -->
<g id="edge8" class="edge">
<title>Roberto Rodrigues,966669452 [fb:0]&#45;&gt;Roberto Machado,965381960 [fb:0]</title>
<path fill="none" stroke="black" d="M799.42,-280.27C757.65,-267.27 699.04,-249.04 654.92,-235.31"/>
<polygon fill="black" stroke="black" points="655.76,-231.9 645.17,-232.27 653.68,-238.59 655.76,-231.9"/>
</g>
<!-- Roberto Machado,967003251 [fb:0] -->
<g id="node12" class="node">
<title>Roberto Machado,967003251 [fb:0]</title>
<ellipse fill="none" stroke="black" cx="962.84" cy="-214.99" rx="176.27" ry="18"/>
<text text-anchor="middle" x="962.84" y="-211.29" font-family="Times,serif" font-size="14.00">Roberto Machado,967003251 [fb:0]</text>
</g>
<!-- Roberto Rodrigues,966669452 [fb:0]&#45;&gt;Roberto Machado,967003251 [fb:0] -->
<g id="edge11" class="edge">
<title>Roberto Rodrigues,966669452 [fb:0]&#45;&gt;Roberto Machado,967003251 [fb:0]</title>
<path fill="none" stroke="black" d="M875.1,-279.69C891.39,-267.87 913.33,-251.93 931.2,-238.96"/>
<polygon fill="black" stroke="black" points="933.56,-241.57 939.6,-232.86 929.45,-235.9 933.56,-241.57"/>
</g>
<!-- N3 -->
<g id="node10" class="node">
<title>N3</title>
<ellipse fill="none" stroke="black" cx="554.84" cy="-121.79" rx="28.7" ry="28.7"/>
<text text-anchor="middle" x="554.84" y="-118.09" font-family="Times,serif" font-size="14.00">null</text>
</g>
<!-- Roberto Machado,965381960 [fb:0]&#45;&gt;N3 -->
<g id="edge9" class="edge">
<title>Roberto Machado,965381960 [fb:0]&#45;&gt;N3</title>
<path fill="none" stroke="black" d="M585.69,-196.83C581.12,-185.87 575.03,-171.26 569.47,-157.92"/>
<polygon fill="black" stroke="black" points="572.62,-156.38 565.54,-148.49 566.16,-159.07 572.62,-156.38"/>
</g>
<!-- N4 -->
<g id="node11" class="node">
<title>N4</title>
<ellipse fill="none" stroke="black" cx="629.84" cy="-121.79" rx="28.7" ry="28.7"/>
<text text-anchor="middle" x="629.84" y="-118.09" font-family="Times,serif" font-size="14.00">null</text>
</g>
<!-- Roberto Machado,965381960 [fb:0]&#45;&gt;N4 -->
<g id="edge10" class="edge">
<title>Roberto Machado,965381960 [fb:0]&#45;&gt;N4</title>
<path fill="none" stroke="black" d="M599.8,-196.83C604.24,-185.87 610.17,-171.26 615.59,-157.92"/>
<polygon fill="black" stroke="black" points="618.89,-159.07 619.41,-148.49 612.41,-156.44 618.89,-159.07"/>
</g>
<!-- N5 -->
<g id="node13" class="node">
<title>N5</title>
<ellipse fill="none" stroke="black" cx="924.84" cy="-121.79" rx="28.7" ry="28.7"/>
<text text-anchor="middle" x="924.84" y="-118.09" font-family="Times,serif" font-size="14.00">null</text>
</g>
<!-- Roberto Machado,967003251 [fb:0]&#45;&gt;N5 -->
<g id="edge12" class="edge">
<title>Roberto Machado,967003251 [fb:0]&#45;&gt;N5</title>
<path fill="none" stroke="black" d="M955.69,-196.83C951.12,-185.87 945.03,-171.26 939.47,-157.92"/>
<polygon fill="black" stroke="black" points="942.62,-156.38 935.54,-148.49 936.16,-159.07 942.62,-156.38"/>
</g>
<!-- N6 -->
<g id="node14" class="node">
<title>N6</title>
<ellipse fill="none" stroke="black" cx="999.84" cy="-121.79" rx="28.7" ry="28.7"/>
<text text-anchor="middle" x="999.84" y="-118.09" font-family="Times,serif" font-size="14.00">null</text>
</g>
<!-- Roberto Machado,967003251 [fb:0]&#45;&gt;N6 -->
<g id="edge13" class="edge">
<title>Roberto Machado,967003251 [fb:0]&#45;&gt;N6</title>
<path fill="none" stroke="black" d="M969.8,-196.83C974.24,-185.87 980.17,-171.26 985.59,-157.92"/>
<polygon fill="black" stroke="black" points="988.89,-159.07 989.41,-148.49 982.41,-156.44 988.89,-159.07"/>
</g>
<!-- Roberto Silva,977964561 [fb:0] -->
<g id="node16" class="node">
<title>Roberto Silva,977964561 [fb:0]</title>
<ellipse fill="none" stroke="black" cx="1493.84" cy="-297.58" rx="157.07" ry="18"/>
<text text-anchor="middle" x="1493.84" y="-293.88" font-family="Times,serif" font-size="14.00">Roberto Silva,977964561 [fb:0]</text>
</g>
<!-- Roberto Barros,980040703 [fb:1]&#45;&gt;Roberto Silva,977964561 [fb:0] -->
<g id="edge15" class="edge">
<title>Roberto Barros,980040703 [fb:1]&#45;&gt;Roberto Silva,977964561 [fb:0]</title>
<path fill="none" stroke="black" d="M1493.84,-351.28C1493.84,-343.57 1493.84,-334.3 1493.84,-325.7"/>
<polygon fill="black" stroke="black" points="1497.34,-325.69 1493.84,-315.69 1490.34,-325.69 1497.34,-325.69"/>
</g>
<!-- Roberto Porto,990366818 [fb:0] -->
<g id="node23" class="node">
<title>Roberto Porto,990366818 [fb:0]</title>
<ellipse fill="none" stroke="black" cx="2122.84" cy="-297.58" rx="159.47" ry="18"/>
<text text-anchor="middle" x="2122.84" y="-293.88" font-family="Times,serif" font-size="14.00">Roberto Porto,990366818 [fb:0]</text>
</g>
<!-- Roberto Barros,980040703 [fb:1]&#45;&gt;Roberto Porto,990366818 [fb:0] -->
<g id="edge22" class="edge">
<title>Roberto Barros,980040703 [fb:1]&#45;&gt;Roberto Porto,990366818 [fb:0]</title>
<path fill="none" stroke="black" d="M1604.84,-356.23C1716.7,-343.78 1888.76,-324.63 2003.5,-311.87"/>
<polygon fill="black" stroke="black" points="2004.18,-315.31 2013.73,-310.73 2003.4,-308.35 2004.18,-315.31"/>
</g>
<!-- Roberto Moura,973079926 [fb:0] -->
<g id="node17" class="node">
<title>Roberto Moura,973079926 [fb:0]</title>
<ellipse fill="none" stroke="black" cx="1321.84" cy="-214.99" rx="164.37" ry="18"/>
<text text-anchor="middle" x="1321.84" y="-211.29" font-family="Times,serif" font-size="14.00">Roberto Moura,973079926 [fb:0]</text>
</g>
<!-- Roberto Silva,977964561 [fb:0]&#45;&gt;Roberto Moura,973079926 [fb:0] -->
<g id="edge16" class="edge">
<title>Roberto Silva,977964561 [fb:0]&#45;&gt;Roberto Moura,973079926 [fb:0]</title>
<path fill="none" stroke="black" d="M1458.2,-279.88C1431.68,-267.46 1395.29,-250.41 1366.77,-237.04"/>
<polygon fill="black" stroke="black" points="1367.97,-233.74 1357.43,-232.67 1365,-240.08 1367.97,-233.74"/>
</g>
<!-- Roberto Souza,978053544 [fb:0] -->
<g id="node20" class="node">
<title>Roberto Souza,978053544 [fb:0]</title>
<ellipse fill="none" stroke="black" cx="1665.84" cy="-214.99" rx="161.67" ry="18"/>
<text text-anchor="middle" x="1665.84" y="-211.29" font-family="Times,serif" font-size="14.00">Roberto Souza,978053544 [fb:0]</text>
</g>
<!-- Roberto Silva,977964561 [fb:0]&#45;&gt;Roberto Souza,978053544 [fb:0] -->
<g id="edge19" class="edge">
<title>Roberto Silva,977964561 [fb:0]&#45;&gt;Roberto Souza,978053544 [fb:0]</title>
<path fill="none" stroke="black" d="M1529.47,-279.88C1556,-267.46 1592.38,-250.41 1620.9,-237.04"/>
<polygon fill="black" stroke="black" points="1622.67,-240.08 1630.24,-232.67 1619.7,-233.74 1622.67,-240.08"/>
</g>
<!-- N7 -->
<g id="node18" class="node">
<title>N7</title>
<ellipse fill="none" stroke="black" cx="1283.84" cy="-121.79" rx="28.7" ry="28.7"/>
<text text-anchor="middle" x="1283.84" y="-118.09" font-family="Times,serif" font-size="14.00">null</text>
</g>
<!-- Roberto Moura,973079926 [fb:0]&#45;&gt;N7 -->
<g id="edge17" class="edge">
<title>Roberto Moura,973079926 [fb:0]&#45;&gt;N7</title>
<path fill="none" stroke="black" d="M1314.69,-196.83C1310.12,-185.87 1304.03,-171.26 1298.47,-157.92"/>
<polygon fill="black" stroke="black" points="1301.62,-156.38 1294.54,-148.49 1295.16,-159.07 1301.62,-156.38"/>
</g>
<!-- N8 -->
<g id="node19" class="node">
<title>N8</title>
<ellipse fill="none" stroke="black" cx="1358.84" cy="-121.79" rx="28.7" ry="28.7"/>
<text text-anchor="middle" x="1358.84" y="-118.09" font-family="Times,serif" font-size="14.00">null</text>
</g>
<!-- Roberto Moura,973079926 [fb:0]&#45;&gt;N8 -->
<g id="edge18" class="edge">
<title>Roberto Moura,973079926 [fb:0]&#45;&gt;N8</title>
<path fill="none" stroke="black" d="M1328.8,-196.83C1333.24,-185.87 1339.17,-171.26 1344.59,-157.92"/>
<polygon fill="black" stroke="black" points="1347.89,-159.07 1348.41,-148.49 1341.41,-156.44 1347.89,-159.07"/>
</g>
<!-- N9 -->
<g id="node21" class="node">
<title>N9</title>
<ellipse fill="none" stroke="black" cx="1590.84" cy="-121.79" rx="28.7" ry="28.7"/>
<text text-anchor="middle" x="1590.84" y="-118.09" font-family="Times,serif" font-size="14.00">null</text>
</g>
<!-- Roberto Souza,978053544 [fb:0]&#45;&gt;N9 -->
<g id="edge20" class="edge">
<title>Roberto Souza,978053544 [fb:0]&#45;&gt;N9</title>
<path fill="none" stroke="black" d="M1651.73,-196.83C1641.42,-184.3 1627.18,-166.98 1615.06,-152.25"/>
<polygon fill="black" stroke="black" points="1617.64,-149.88 1608.59,-144.38 1612.23,-154.32 1617.64,-149.88"/>
</g>
<!-- N10 -->
<g id="node22" class="node">
<title>N10</title>
<ellipse fill="none" stroke="black" cx="1665.84" cy="-121.79" rx="28.7" ry="28.7"/>
<text text-anchor="middle" x="1665.84" y="-118.09" font-family="Times,serif" font-size="14.00">null</text>
</g>
<!-- Roberto Souza,978053544 [fb:0]&#45;&gt;N10 -->
<g id="edge21" class="edge">
<title>Roberto Souza,978053544 [fb:0]&#45;&gt;N10</title>
<path fill="none" stroke="black" d="M1665.84,-196.83C1665.84,-186.68 1665.84,-173.38 1665.84,-160.87"/>
<polygon fill="black" stroke="black" points="1669.34,-160.62 1665.84,-150.62 1662.34,-160.62 1669.34,-160.62"/>
</g>
<!-- Roberto Alves,982365369 [fb:0] -->
<g id="node24" class="node">
<title>Roberto Alves,982365369 [fb:0]</title>
<ellipse fill="none" stroke="black" cx="2122.84" cy="-214.99" rx="159.47" ry="18"/>
<text text-anchor="middle" x="2122.84" y="-211.29" font-family="Times,serif" font-size="14.00">Roberto Alves,982365369 [fb:0]</text>
</g>
<!-- Roberto Porto,990366818 [fb:0]&#45;&gt;Roberto Alves,982365369 [fb:0] -->
<g id="edge23" class="edge">
<title>Roberto Porto,990366818 [fb:0]&#45;&gt;Roberto Alves,982365369 [fb:0]</title>
<path fill="none" stroke="black" d="M2122.84,-279.49C2122.84,-268.91 2122.84,-255.1 2122.84,-243.06"/>
<polygon fill="black" stroke="black" points="2126.34,-243.06 2122.84,-233.06 2119.34,-243.06 2126.34,-243.06"/>
</g>
<!-- Roberto Silva,998535597 [fb:&#45;1] -->
<g id="node31" class="node">
<title>Roberto Silva,998535597 [fb:&#45;1]</title>
<ellipse fill="none" stroke="black" cx="2589.84" cy="-214.99" rx="159.77" ry="18"/>
<text text-anchor="middle" x="2589.84" y="-211.29" font-family="Times,serif" font-size="14.00">Roberto Silva,998535597 [fb:&#45;1]</text>
</g>
<!-- Roberto Porto,990366818 [fb:0]&#45;&gt;Roberto Silva,998535597 [fb:&#45;1] -->
<g id="edge30" class="edge">
<title>Roberto Porto,990366818 [fb:0]&#45;&gt;Roberto Silva,998535597 [fb:&#45;1]</title>
<path fill="none" stroke="black" d="M2206.06,-282.22C2287.66,-268.14 2411.83,-246.71 2496.69,-232.06"/>
<polygon fill="black" stroke="black" points="2497.32,-235.51 2506.58,-230.36 2496.13,-228.61 2497.32,-235.51"/>
</g>
<!-- Roberto Machado,980757555 [fb:0] -->
<g id="node25" class="node">
<title>Roberto Machado,980757555 [fb:0]</title>
<ellipse fill="none" stroke="black" cx="1888.84" cy="-121.79" rx="176.27" ry="18"/>
<text text-anchor="middle" x="1888.84" y="-118.09" font-family="Times,serif" font-size="14.00">Roberto Machado,980757555 [fb:0]</text>
</g>
<!-- Roberto Alves,982365369 [fb:0]&#45;&gt;Roberto Machado,980757555 [fb:0] -->
<g id="edge24" class="edge">
<title>Roberto Alves,982365369 [fb:0]&#45;&gt;Roberto Machado,980757555 [fb:0]</title>
<path fill="none" stroke="black" d="M2080.73,-197.58C2041.55,-182.31 1983.02,-159.5 1940.92,-143.09"/>
<polygon fill="black" stroke="black" points="1941.98,-139.75 1931.39,-139.38 1939.44,-146.27 1941.98,-139.75"/>
</g>
<!-- Roberto Alves,985464278 [fb:0] -->
<g id="node28" class="node">
<title>Roberto Alves,985464278 [fb:0]</title>
<ellipse fill="none" stroke="black" cx="2241.84" cy="-121.79" rx="159.47" ry="18"/>
<text text-anchor="middle" x="2241.84" y="-118.09" font-family="Times,serif" font-size="14.00">Roberto Alves,985464278 [fb:0]</text>
</g>
<!-- Roberto Alves,982365369 [fb:0]&#45;&gt;Roberto Alves,985464278 [fb:0] -->
<g id="edge27" class="edge">
<title>Roberto Alves,982365369 [fb:0]&#45;&gt;Roberto Alves,985464278 [fb:0]</title>
<path fill="none" stroke="black" d="M2144.94,-197.05C2163.73,-182.65 2190.88,-161.85 2211.66,-145.92"/>
<polygon fill="black" stroke="black" points="2214.04,-148.5 2219.85,-139.64 2209.78,-142.95 2214.04,-148.5"/>
</g>
<!-- N11 -->
<g id="node26" class="node">
<title>N11</title>
<ellipse fill="none" stroke="black" cx="1851.84" cy="-28.6" rx="28.7" ry="28.7"/>
<text text-anchor="middle" x="1851.84" y="-24.9" font-family="Times,serif" font-size="14.00">null</text>
</g>
<!-- Roberto Machado,980757555 [fb:0]&#45;&gt;N11 -->
<g id="edge25" class="edge">
<title>Roberto Machado,980757555 [fb:0]&#45;&gt;N11</title>
<path fill="none" stroke="black" d="M1881.88,-103.64C1877.43,-92.68 1871.5,-78.07 1866.09,-64.72"/>
<polygon fill="black" stroke="black" points="1869.27,-63.25 1862.26,-55.3 1862.78,-65.88 1869.27,-63.25"/>
</g>
<!-- N12 -->
<g id="node27" class="node">
<title>N12</title>
<ellipse fill="none" stroke="black" cx="1926.84" cy="-28.6" rx="28.7" ry="28.7"/>
<text text-anchor="middle" x="1926.84" y="-24.9" font-family="Times,serif" font-size="14.00">null</text>
</g>
<!-- Roberto Machado,980757555 [fb:0]&#45;&gt;N12 -->
<g id="edge26" class="edge">
<title>Roberto Machado,980757555 [fb:0]&#45;&gt;N12</title>
<path fill="none" stroke="black" d="M1895.98,-103.64C1900.55,-92.68 1906.64,-78.07 1912.2,-64.72"/>
<polygon fill="black" stroke="black" points="1915.51,-65.87 1916.13,-55.3 1909.05,-63.18 1915.51,-65.87"/>
</g>
<!-- N13 -->
<g id="node29" class="node">
<title>N13</title>
<ellipse fill="none" stroke="black" cx="2203.84" cy="-28.6" rx="28.7" ry="28.7"/>
<text text-anchor="middle" x="2203.84" y="-24.9" font-family="Times,serif" font-size="14.00">null</text>
</g>
<!-- Roberto Alves,985464278 [fb:0]&#45;&gt;N13 -->
<g id="edge28" class="edge">
<title>Roberto Alves,985464278 [fb:0]&#45;&gt;N13</title>
<path fill="none" stroke="black" d="M2234.69,-103.64C2230.12,-92.68 2224.03,-78.07 2218.47,-64.72"/>
<polygon fill="black" stroke="black" points="2221.62,-63.18 2214.54,-55.3 2215.16,-65.87 2221.62,-63.18"/>
</g>
<!-- N14 -->
<g id="node30" class="node">
<title>N14</title>
<ellipse fill="none" stroke="black" cx="2278.84" cy="-28.6" rx="28.7" ry="28.7"/>
<text text-anchor="middle" x="2278.84" y="-24.9" font-family="Times,serif" font-size="14.00">null</text>
</g>
<!-- Roberto Alves,985464278 [fb:0]&#45;&gt;N14 -->
<g id="edge29" class="edge">
<title>Roberto Alves,985464278 [fb:0]&#45;&gt;N14</title>
<path fill="none" stroke="black" d="M2248.8,-103.64C2253.24,-92.68 2259.17,-78.07 2264.59,-64.72"/>
<polygon fill="black" stroke="black" points="2267.89,-65.88 2268.41,-55.3 2261.41,-63.25 2267.89,-65.88"/>
</g>
<!-- Roberto Martins,992848433 [fb:0] -->
<g id="node32" class="node">
<title>Roberto Martins,992848433 [fb:0]</title>
<ellipse fill="none" stroke="black" cx="2589.84" cy="-121.79" rx="170.87" ry="18"/>
<text text-anchor="middle" x="2589.84" y="-118.09" font-family="Times,serif" font-size="14.00">Roberto Martins,992848433 [fb:0]</text>
</g>
<!-- Roberto Silva,998535597 [fb:&#45;1]&#45;&gt;Roberto Martins,992848433 [fb:0] -->
<g id="edge31" class="edge">
<title>Roberto Silva,998535597 [fb:&#45;1]&#45;&gt;Roberto Martins,992848433 [fb:0]</title>
<path fill="none" stroke="black" d="M2589.84,-196.83C2589.84,-183.71 2589.84,-165.36 2589.84,-150.21"/>
<polygon fill="black" stroke="black" points="2593.34,-149.87 2589.84,-139.87 2586.34,-149.87 2593.34,-149.87"/>
</g>
<!-- N17 -->
<g id="node35" class="node">
<title>N17</title>
<ellipse fill="none" stroke="black" cx="2807.84" cy="-121.79" rx="28.7" ry="28.7"/>
<text text-anchor="middle" x="2807.84" y="-118.09" font-family="Times,serif" font-size="14.00">null</text>
</g>
<!-- Roberto Silva,998535597 [fb:&#45;1]&#45;&gt;N17 -->
<g id="edge34" class="edge">
<title>Roberto Silva,998535597 [fb:&#45;1]&#45;&gt;N17</title>
<path fill="none" stroke="black" d="M2647.95,-198.13C2684.11,-187.14 2730.96,-170.82 2769.84,-150.39 2772.17,-149.16 2774.53,-147.8 2776.85,-146.37"/>
<polygon fill="black" stroke="black" points="2779.23,-148.99 2785.62,-140.55 2775.36,-143.16 2779.23,-148.99"/>
</g>
<!-- N15 -->
<g id="node33" class="node">
<title>N15</title>
<ellipse fill="none" stroke="black" cx="2551.84" cy="-28.6" rx="28.7" ry="28.7"/>
<text text-anchor="middle" x="2551.84" y="-24.9" font-family="Times,serif" font-size="14.00">null</text>
</g>
<!-- Roberto Martins,992848433 [fb:0]&#45;&gt;N15 -->
<g id="edge32" class="edge">
<title>Roberto Martins,992848433 [fb:0]&#45;&gt;N15</title>
<path fill="none" stroke="black" d="M2582.69,-103.64C2578.12,-92.68 2572.03,-78.07 2566.47,-64.72"/>
<polygon fill="black" stroke="black" points="2569.62,-63.18 2562.54,-55.3 2563.16,-65.87 2569.62,-63.18"/>
</g>
<!-- N16 -->
<g id="node34" class="node">
<title>N16</title>
<ellipse fill="none" stroke="black" cx="2626.84" cy="-28.6" rx="28.7" ry="28.7"/>
<text text-anchor="middle" x="2626.84" y="-24.9" font-family="Times,serif" font-size="14.00">null</text>
</g>
<!-- Roberto Martins,992848433 [fb:0]&#45;&gt;N16 -->
<g id="edge33" class="edge">
<title>Roberto Martins,992848433 [fb:0]&#45;&gt;N16</title>
<path fill="none" stroke="black" d="M2596.8,-103.64C2601.24,-92.68 2607.17,-78.07 2612.59,-64.72"/>
<polygon fill="black" stroke="black" points="2615.89,-65.88 2616.41,-55.3 2609.41,-63.25 2615.89,-65.88"/>
</g>
</g>
</svg>
