<?xml version="1.0" encoding="UTF-8" standalone="no"?>
<!DOCTYPE svg PUBLIC "-//W3C//DTD SVG 1.1//EN"
 "http://www.w3.org/Graphics/SVG/1.1/DTD/svg11.dtd">
<!-- Generated by graphviz version 2.43.0 (0)
 -->
<!-- Title: BST Pages: 1 -->
<svg width="159pt" height="163pt"
 viewBox="0.00 0.00 159.32 162.95" xmlns="http://www.w3.org/2000/svg" xmlns:xlink="http://www.w3.org/1999/xlink">
<g id="graph0" class="graph" transform="scale(1 1) rotate(0) translate(4 158.95)">
<title>BST</title>
<polygon fill="white" stroke="transparent" points="-4,4 -4,-158.95 155.32,-158.95 155.32,4 -4,4"/>
<!-- No_985278999 -->
<g id="node1" class="node">
<title>No_985278999</title>
<ellipse fill="none" stroke="black" cx="75.66" cy="-117.48" rx="75.82" ry="37.45"/>
<text text-anchor="middle" x="75.66" y="-128.78" font-family="Times,serif" font-size="14.00">Acir Campos</text>
<text text-anchor="middle" x="75.66" y="-113.78" font-family="Times,serif" font-size="14.00">985278999</text>
<text text-anchor="middle" x="75.66" y="-98.78" font-family="Times,serif" font-size="14.00">fb=0</text>
</g>
<!-- NUL_0 -->
<g id="node2" class="node">
<title>NUL_0</title>
<polygon fill="none" stroke="black" points="66.66,-44 22.66,-44 22.66,0 66.66,0 66.66,-44"/>
<text text-anchor="middle" x="44.66" y="-18.3" font-family="Times,serif" font-size="14.00">null</text>
</g>
<!-- No_985278999&#45;&gt;NUL_0 -->
<g id="edge1" class="edge">
<title>No_985278999&#45;&gt;NUL_0</title>
<path fill="none" stroke="black" d="M63.68,-80.34C60.76,-71.55 57.67,-62.23 54.85,-53.72"/>
<polygon fill="black" stroke="black" points="58.15,-52.57 51.68,-44.18 51.51,-54.77 58.15,-52.57"/>
</g>
<!-- NUL_1 -->
<g id="node3" class="node">
<title>NUL_1</title>
<polygon fill="none" stroke="black" points="128.66,-44 84.66,-44 84.66,0 128.66,0 128.66,-44"/>
<text text-anchor="middle" x="106.66" y="-18.3" font-family="Times,serif" font-size="14.00">null</text>
</g>
<!-- No_985278999&#45;&gt;NUL_1 -->
<g id="edge2" class="edge">
<title>No_985278999&#45;&gt;NUL_1</title>
<path fill="none" stroke="black" d="M87.65,-80.34C90.56,-71.55 93.65,-62.23 96.47,-53.72"/>
<polygon fill="black" stroke="black" points="99.81,-54.77 99.64,-44.18 93.17,-52.57 99.81,-54.77"/>
</g>
</g>
</svg>
