<?xml version="1.0" encoding="UTF-8" standalone="no"?>
<!DOCTYPE svg PUBLIC "-//W3C//DTD SVG 1.1//EN"
 "http://www.w3.org/Graphics/SVG/1.1/DTD/svg11.dtd">
<!-- Generated by graphviz version 2.43.0 (0)
 -->
<!-- Title: BST Pages: 1 -->
<svg width="1128pt" height="607pt"
 viewBox="0.00 0.00 1127.55 606.77" xmlns="http://www.w3.org/2000/svg" xmlns:xlink="http://www.w3.org/1999/xlink">
<g id="graph0" class="graph" transform="scale(1 1) rotate(0) translate(4 602.77)">
<title>BST</title>
<polygon fill="white" stroke="transparent" points="-4,4 -4,-602.77 1123.55,-602.77 1123.55,4 -4,4"/>
<!-- No_966178657 -->
<g id="node1" class="node">
<title>No_966178657</title>
<ellipse fill="none" stroke="black" cx="412.41" cy="-561.29" rx="79.81" ry="37.45"/>
<text text-anchor="middle" x="412.41" y="-572.59" font-family="Times,serif" font-size="14.00">Piettro Souza</text>
<text text-anchor="middle" x="412.41" y="-557.59" font-family="Times,serif" font-size="14.00">966178657</text>
<text text-anchor="middle" x="412.41" y="-542.59" font-family="Times,serif" font-size="14.00">fb=2</text>
</g>
<!-- No_954107564 -->
<g id="node2" class="node">
<title>No_954107564</title>
<ellipse fill="none" stroke="black" cx="308.41" cy="-450.34" rx="86.03" ry="37.45"/>
<text text-anchor="middle" x="308.41" y="-461.64" font-family="Times,serif" font-size="14.00">Piettro Pereira</text>
<text text-anchor="middle" x="308.41" y="-446.64" font-family="Times,serif" font-size="14.00">954107564</text>
<text text-anchor="middle" x="308.41" y="-431.64" font-family="Times,serif" font-size="14.00">fb=0</text>
</g>
<!-- No_966178657&#45;&gt;No_954107564 -->
<g id="edge1" class="edge">
<title>No_966178657&#45;&gt;No_954107564</title>
<path fill="none" stroke="black" d="M380.36,-526.71C370.08,-515.94 358.57,-503.88 347.82,-492.63"/>
<polygon fill="black" stroke="black" points="350.33,-490.18 340.89,-485.37 345.27,-495.02 350.33,-490.18"/>
</g>
<!-- No_975334063 -->
<g id="node9" class="node">
<title>No_975334063</title>
<ellipse fill="none" stroke="black" cx="517.41" cy="-450.34" rx="96.33" ry="37.45"/>
<text text-anchor="middle" x="517.41" y="-461.64" font-family="Times,serif" font-size="14.00">Pamella Barbosa</text>
<text text-anchor="middle" x="517.41" y="-446.64" font-family="Times,serif" font-size="14.00">975334063</text>
<text text-anchor="middle" x="517.41" y="-431.64" font-family="Times,serif" font-size="14.00">fb=1</text>
</g>
<!-- No_966178657&#45;&gt;No_975334063 -->
<g id="edge8" class="edge">
<title>No_966178657&#45;&gt;No_975334063</title>
<path fill="none" stroke="black" d="M444.77,-526.71C455.05,-516.04 466.55,-504.11 477.31,-492.95"/>
<polygon fill="black" stroke="black" points="479.83,-495.37 484.25,-485.74 474.79,-490.52 479.83,-495.37"/>
</g>
<!-- No_952558952 -->
<g id="node3" class="node">
<title>No_952558952</title>
<ellipse fill="none" stroke="black" cx="100.41" cy="-339.38" rx="100.32" ry="37.45"/>
<text text-anchor="middle" x="100.41" y="-350.68" font-family="Times,serif" font-size="14.00">Pamella Machado</text>
<text text-anchor="middle" x="100.41" y="-335.68" font-family="Times,serif" font-size="14.00">952558952</text>
<text text-anchor="middle" x="100.41" y="-320.68" font-family="Times,serif" font-size="14.00">fb=0</text>
</g>
<!-- No_954107564&#45;&gt;No_952558952 -->
<g id="edge2" class="edge">
<title>No_954107564&#45;&gt;No_952558952</title>
<path fill="none" stroke="black" d="M254.3,-420.99C227.47,-406.94 194.84,-389.85 166.54,-375.02"/>
<polygon fill="black" stroke="black" points="168,-371.84 157.52,-370.3 164.75,-378.04 168,-371.84"/>
</g>
<!-- No_964697918 -->
<g id="node6" class="node">
<title>No_964697918</title>
<ellipse fill="none" stroke="black" cx="308.41" cy="-339.38" rx="89.61" ry="37.45"/>
<text text-anchor="middle" x="308.41" y="-350.68" font-family="Times,serif" font-size="14.00">Piettro Martins</text>
<text text-anchor="middle" x="308.41" y="-335.68" font-family="Times,serif" font-size="14.00">964697918</text>
<text text-anchor="middle" x="308.41" y="-320.68" font-family="Times,serif" font-size="14.00">fb=0</text>
</g>
<!-- No_954107564&#45;&gt;No_964697918 -->
<g id="edge5" class="edge">
<title>No_954107564&#45;&gt;No_964697918</title>
<path fill="none" stroke="black" d="M308.41,-412.75C308.41,-404.58 308.41,-395.8 308.41,-387.27"/>
<polygon fill="black" stroke="black" points="311.91,-387.06 308.41,-377.06 304.91,-387.06 311.91,-387.06"/>
</g>
<!-- NUL_0 -->
<g id="node4" class="node">
<title>NUL_0</title>
<polygon fill="none" stroke="black" points="91.41,-250.43 47.41,-250.43 47.41,-206.43 91.41,-206.43 91.41,-250.43"/>
<text text-anchor="middle" x="69.41" y="-224.73" font-family="Times,serif" font-size="14.00">null</text>
</g>
<!-- No_952558952&#45;&gt;NUL_0 -->
<g id="edge3" class="edge">
<title>No_952558952&#45;&gt;NUL_0</title>
<path fill="none" stroke="black" d="M90.09,-302.1C86.25,-288.62 81.94,-273.46 78.25,-260.49"/>
<polygon fill="black" stroke="black" points="81.54,-259.29 75.44,-250.63 74.81,-261.2 81.54,-259.29"/>
</g>
<!-- NUL_1 -->
<g id="node5" class="node">
<title>NUL_1</title>
<polygon fill="none" stroke="black" points="153.41,-250.43 109.41,-250.43 109.41,-206.43 153.41,-206.43 153.41,-250.43"/>
<text text-anchor="middle" x="131.41" y="-224.73" font-family="Times,serif" font-size="14.00">null</text>
</g>
<!-- No_952558952&#45;&gt;NUL_1 -->
<g id="edge4" class="edge">
<title>No_952558952&#45;&gt;NUL_1</title>
<path fill="none" stroke="black" d="M110.73,-302.1C114.57,-288.62 118.88,-273.46 122.57,-260.49"/>
<polygon fill="black" stroke="black" points="126.01,-261.2 125.38,-250.63 119.27,-259.29 126.01,-261.2"/>
</g>
<!-- NUL_2 -->
<g id="node7" class="node">
<title>NUL_2</title>
<polygon fill="none" stroke="black" points="278.41,-250.43 234.41,-250.43 234.41,-206.43 278.41,-206.43 278.41,-250.43"/>
<text text-anchor="middle" x="256.41" y="-224.73" font-family="Times,serif" font-size="14.00">null</text>
</g>
<!-- No_964697918&#45;&gt;NUL_2 -->
<g id="edge6" class="edge">
<title>No_964697918&#45;&gt;NUL_2</title>
<path fill="none" stroke="black" d="M291.24,-302.41C284.67,-288.64 277.24,-273.09 270.94,-259.88"/>
<polygon fill="black" stroke="black" points="274.05,-258.26 266.58,-250.75 267.73,-261.28 274.05,-258.26"/>
</g>
<!-- NUL_3 -->
<g id="node8" class="node">
<title>NUL_3</title>
<polygon fill="none" stroke="black" points="340.41,-250.43 296.41,-250.43 296.41,-206.43 340.41,-206.43 340.41,-250.43"/>
<text text-anchor="middle" x="318.41" y="-224.73" font-family="Times,serif" font-size="14.00">null</text>
</g>
<!-- No_964697918&#45;&gt;NUL_3 -->
<g id="edge7" class="edge">
<title>No_964697918&#45;&gt;NUL_3</title>
<path fill="none" stroke="black" d="M311.77,-301.8C312.99,-288.47 314.36,-273.53 315.54,-260.7"/>
<polygon fill="black" stroke="black" points="319.05,-260.79 316.47,-250.51 312.08,-260.15 319.05,-260.79"/>
</g>
<!-- No_968192222 -->
<g id="node10" class="node">
<title>No_968192222</title>
<ellipse fill="none" stroke="black" cx="517.41" cy="-339.38" rx="101.23" ry="37.45"/>
<text text-anchor="middle" x="517.41" y="-350.68" font-family="Times,serif" font-size="14.00">Piettro Rodrigues</text>
<text text-anchor="middle" x="517.41" y="-335.68" font-family="Times,serif" font-size="14.00">968192222</text>
<text text-anchor="middle" x="517.41" y="-320.68" font-family="Times,serif" font-size="14.00">fb=1</text>
</g>
<!-- No_975334063&#45;&gt;No_968192222 -->
<g id="edge9" class="edge">
<title>No_975334063&#45;&gt;No_968192222</title>
<path fill="none" stroke="black" d="M517.41,-412.75C517.41,-404.58 517.41,-395.8 517.41,-387.27"/>
<polygon fill="black" stroke="black" points="520.91,-387.06 517.41,-377.06 513.91,-387.06 520.91,-387.06"/>
</g>
<!-- No_985611444 -->
<g id="node15" class="node">
<title>No_985611444</title>
<ellipse fill="none" stroke="black" cx="727.41" cy="-339.38" rx="91.43" ry="37.45"/>
<text text-anchor="middle" x="727.41" y="-350.68" font-family="Times,serif" font-size="14.00">Piettro Barbosa</text>
<text text-anchor="middle" x="727.41" y="-335.68" font-family="Times,serif" font-size="14.00">985611444</text>
<text text-anchor="middle" x="727.41" y="-320.68" font-family="Times,serif" font-size="14.00">fb=0</text>
</g>
<!-- No_975334063&#45;&gt;No_985611444 -->
<g id="edge14" class="edge">
<title>No_975334063&#45;&gt;No_985611444</title>
<path fill="none" stroke="black" d="M573.96,-420C601.37,-405.78 634.41,-388.63 662.8,-373.9"/>
<polygon fill="black" stroke="black" points="664.58,-376.92 671.85,-369.21 661.36,-370.71 664.58,-376.92"/>
</g>
<!-- NUL_4 -->
<g id="node11" class="node">
<title>NUL_4</title>
<polygon fill="none" stroke="black" points="415.41,-250.43 371.41,-250.43 371.41,-206.43 415.41,-206.43 415.41,-250.43"/>
<text text-anchor="middle" x="393.41" y="-224.73" font-family="Times,serif" font-size="14.00">null</text>
</g>
<!-- No_968192222&#45;&gt;NUL_4 -->
<g id="edge10" class="edge">
<title>No_968192222&#45;&gt;NUL_4</title>
<path fill="none" stroke="black" d="M471.88,-305.86C456.26,-293.95 439.04,-279.93 424.41,-265.91 421.95,-263.55 419.48,-261.01 417.07,-258.41"/>
<polygon fill="black" stroke="black" points="419.34,-255.7 410.09,-250.54 414.11,-260.34 419.34,-255.7"/>
</g>
<!-- No_968732973 -->
<g id="node12" class="node">
<title>No_968732973</title>
<ellipse fill="none" stroke="black" cx="520.41" cy="-228.43" rx="86.95" ry="37.45"/>
<text text-anchor="middle" x="520.41" y="-239.73" font-family="Times,serif" font-size="14.00">Pamella Torres</text>
<text text-anchor="middle" x="520.41" y="-224.73" font-family="Times,serif" font-size="14.00">968732973</text>
<text text-anchor="middle" x="520.41" y="-209.73" font-family="Times,serif" font-size="14.00">fb=0</text>
</g>
<!-- No_968192222&#45;&gt;No_968732973 -->
<g id="edge11" class="edge">
<title>No_968192222&#45;&gt;No_968732973</title>
<path fill="none" stroke="black" d="M518.42,-301.8C518.64,-293.63 518.88,-284.85 519.12,-276.32"/>
<polygon fill="black" stroke="black" points="522.62,-276.19 519.4,-266.1 515.63,-276 522.62,-276.19"/>
</g>
<!-- NUL_5 -->
<g id="node13" class="node">
<title>NUL_5</title>
<polygon fill="none" stroke="black" points="534.41,-139.48 490.41,-139.48 490.41,-95.48 534.41,-95.48 534.41,-139.48"/>
<text text-anchor="middle" x="512.41" y="-113.78" font-family="Times,serif" font-size="14.00">null</text>
</g>
<!-- No_968732973&#45;&gt;NUL_5 -->
<g id="edge12" class="edge">
<title>No_968732973&#45;&gt;NUL_5</title>
<path fill="none" stroke="black" d="M517.72,-190.85C516.74,-177.52 515.65,-162.58 514.71,-149.75"/>
<polygon fill="black" stroke="black" points="518.18,-149.27 513.96,-139.55 511.2,-149.78 518.18,-149.27"/>
</g>
<!-- NUL_6 -->
<g id="node14" class="node">
<title>NUL_6</title>
<polygon fill="none" stroke="black" points="596.41,-139.48 552.41,-139.48 552.41,-95.48 596.41,-95.48 596.41,-139.48"/>
<text text-anchor="middle" x="574.41" y="-113.78" font-family="Times,serif" font-size="14.00">null</text>
</g>
<!-- No_968732973&#45;&gt;NUL_6 -->
<g id="edge13" class="edge">
<title>No_968732973&#45;&gt;NUL_6</title>
<path fill="none" stroke="black" d="M538.24,-191.45C545.06,-177.69 552.77,-162.13 559.32,-148.93"/>
<polygon fill="black" stroke="black" points="562.54,-150.31 563.84,-139.79 556.27,-147.2 562.54,-150.31"/>
</g>
<!-- No_975969572 -->
<g id="node16" class="node">
<title>No_975969572</title>
<ellipse fill="none" stroke="black" cx="721.41" cy="-228.43" rx="82.05" ry="37.45"/>
<text text-anchor="middle" x="721.41" y="-239.73" font-family="Times,serif" font-size="14.00">Piettro Torres</text>
<text text-anchor="middle" x="721.41" y="-224.73" font-family="Times,serif" font-size="14.00">975969572</text>
<text text-anchor="middle" x="721.41" y="-209.73" font-family="Times,serif" font-size="14.00">fb=1</text>
</g>
<!-- No_985611444&#45;&gt;No_975969572 -->
<g id="edge15" class="edge">
<title>No_985611444&#45;&gt;No_975969572</title>
<path fill="none" stroke="black" d="M725.39,-301.8C724.94,-293.63 724.46,-284.85 723.99,-276.32"/>
<polygon fill="black" stroke="black" points="727.47,-275.89 723.43,-266.1 720.48,-276.28 727.47,-275.89"/>
</g>
<!-- No_996177799 -->
<g id="node21" class="node">
<title>No_996177799</title>
<ellipse fill="none" stroke="black" cx="916.41" cy="-228.43" rx="94.51" ry="37.45"/>
<text text-anchor="middle" x="916.41" y="-239.73" font-family="Times,serif" font-size="14.00">Patrícia Barbosa</text>
<text text-anchor="middle" x="916.41" y="-224.73" font-family="Times,serif" font-size="14.00">996177799</text>
<text text-anchor="middle" x="916.41" y="-209.73" font-family="Times,serif" font-size="14.00">fb=1</text>
</g>
<!-- No_985611444&#45;&gt;No_996177799 -->
<g id="edge20" class="edge">
<title>No_985611444&#45;&gt;No_996177799</title>
<path fill="none" stroke="black" d="M779.3,-308.47C802.76,-294.95 830.65,-278.87 855.12,-264.76"/>
<polygon fill="black" stroke="black" points="857.06,-267.68 863.97,-259.66 853.56,-261.62 857.06,-267.68"/>
</g>
<!-- NUL_7 -->
<g id="node17" class="node">
<title>NUL_7</title>
<polygon fill="none" stroke="black" points="668.41,-139.48 624.41,-139.48 624.41,-95.48 668.41,-95.48 668.41,-139.48"/>
<text text-anchor="middle" x="646.41" y="-113.78" font-family="Times,serif" font-size="14.00">null</text>
</g>
<!-- No_975969572&#45;&gt;NUL_7 -->
<g id="edge16" class="edge">
<title>No_975969572&#45;&gt;NUL_7</title>
<path fill="none" stroke="black" d="M697.27,-192.36C687.43,-178.07 676.18,-161.73 666.77,-148.06"/>
<polygon fill="black" stroke="black" points="669.44,-145.76 660.89,-139.51 663.67,-149.73 669.44,-145.76"/>
</g>
<!-- No_979381089 -->
<g id="node18" class="node">
<title>No_979381089</title>
<ellipse fill="none" stroke="black" cx="776.41" cy="-117.48" rx="89.61" ry="37.45"/>
<text text-anchor="middle" x="776.41" y="-128.78" font-family="Times,serif" font-size="14.00">Patrícia Freitas</text>
<text text-anchor="middle" x="776.41" y="-113.78" font-family="Times,serif" font-size="14.00">979381089</text>
<text text-anchor="middle" x="776.41" y="-98.78" font-family="Times,serif" font-size="14.00">fb=0</text>
</g>
<!-- No_975969572&#45;&gt;No_979381089 -->
<g id="edge17" class="edge">
<title>No_975969572&#45;&gt;No_979381089</title>
<path fill="none" stroke="black" d="M739.42,-191.75C744.02,-182.63 749.03,-172.7 753.84,-163.19"/>
<polygon fill="black" stroke="black" points="756.98,-164.74 758.36,-154.23 750.73,-161.58 756.98,-164.74"/>
</g>
<!-- NUL_8 -->
<g id="node19" class="node">
<title>NUL_8</title>
<polygon fill="none" stroke="black" points="767.41,-44 723.41,-44 723.41,0 767.41,0 767.41,-44"/>
<text text-anchor="middle" x="745.41" y="-18.3" font-family="Times,serif" font-size="14.00">null</text>
</g>
<!-- No_979381089&#45;&gt;NUL_8 -->
<g id="edge18" class="edge">
<title>No_979381089&#45;&gt;NUL_8</title>
<path fill="none" stroke="black" d="M764.33,-80.07C761.43,-71.3 758.35,-62.02 755.54,-53.55"/>
<polygon fill="black" stroke="black" points="758.86,-52.45 752.39,-44.06 752.22,-54.65 758.86,-52.45"/>
</g>
<!-- NUL_9 -->
<g id="node20" class="node">
<title>NUL_9</title>
<polygon fill="none" stroke="black" points="829.41,-44 785.41,-44 785.41,0 829.41,0 829.41,-44"/>
<text text-anchor="middle" x="807.41" y="-18.3" font-family="Times,serif" font-size="14.00">null</text>
</g>
<!-- No_979381089&#45;&gt;NUL_9 -->
<g id="edge19" class="edge">
<title>No_979381089&#45;&gt;NUL_9</title>
<path fill="none" stroke="black" d="M788.48,-80.07C791.39,-71.3 794.47,-62.02 797.28,-53.55"/>
<polygon fill="black" stroke="black" points="800.6,-54.65 800.43,-44.06 793.96,-52.45 800.6,-54.65"/>
</g>
<!-- NUL_10 -->
<g id="node22" class="node">
<title>NUL_10</title>
<polygon fill="none" stroke="black" points="933.41,-139.48 889.41,-139.48 889.41,-95.48 933.41,-95.48 933.41,-139.48"/>
<text text-anchor="middle" x="911.41" y="-113.78" font-family="Times,serif" font-size="14.00">null</text>
</g>
<!-- No_996177799&#45;&gt;NUL_10 -->
<g id="edge21" class="edge">
<title>No_996177799&#45;&gt;NUL_10</title>
<path fill="none" stroke="black" d="M914.73,-190.85C914.12,-177.52 913.43,-162.58 912.84,-149.75"/>
<polygon fill="black" stroke="black" points="916.33,-149.38 912.38,-139.55 909.34,-149.7 916.33,-149.38"/>
</g>
<!-- No_998647415 -->
<g id="node23" class="node">
<title>No_998647415</title>
<ellipse fill="none" stroke="black" cx="1035.41" cy="-117.48" rx="84.29" ry="37.45"/>
<text text-anchor="middle" x="1035.41" y="-128.78" font-family="Times,serif" font-size="14.00">Piettro Santos</text>
<text text-anchor="middle" x="1035.41" y="-113.78" font-family="Times,serif" font-size="14.00">998647415</text>
<text text-anchor="middle" x="1035.41" y="-98.78" font-family="Times,serif" font-size="14.00">fb=0</text>
</g>
<!-- No_996177799&#45;&gt;No_998647415 -->
<g id="edge22" class="edge">
<title>No_996177799&#45;&gt;No_998647415</title>
<path fill="none" stroke="black" d="M953.08,-193.85C965.41,-182.56 979.29,-169.86 992.08,-158.15"/>
<polygon fill="black" stroke="black" points="994.46,-160.72 999.47,-151.38 989.73,-155.55 994.46,-160.72"/>
</g>
<!-- NUL_11 -->
<g id="node24" class="node">
<title>NUL_11</title>
<polygon fill="none" stroke="black" points="1026.41,-44 982.41,-44 982.41,0 1026.41,0 1026.41,-44"/>
<text text-anchor="middle" x="1004.41" y="-18.3" font-family="Times,serif" font-size="14.00">null</text>
</g>
<!-- No_998647415&#45;&gt;NUL_11 -->
<g id="edge23" class="edge">
<title>No_998647415&#45;&gt;NUL_11</title>
<path fill="none" stroke="black" d="M1023.42,-80.34C1020.51,-71.55 1017.42,-62.23 1014.6,-53.72"/>
<polygon fill="black" stroke="black" points="1017.9,-52.57 1011.43,-44.18 1011.26,-54.77 1017.9,-52.57"/>
</g>
<!-- NUL_12 -->
<g id="node25" class="node">
<title>NUL_12</title>
<polygon fill="none" stroke="black" points="1088.41,-44 1044.41,-44 1044.41,0 1088.41,0 1088.41,-44"/>
<text text-anchor="middle" x="1066.41" y="-18.3" font-family="Times,serif" font-size="14.00">null</text>
</g>
<!-- No_998647415&#45;&gt;NUL_12 -->
<g id="edge24" class="edge">
<title>No_998647415&#45;&gt;NUL_12</title>
<path fill="none" stroke="black" d="M1047.39,-80.34C1050.31,-71.55 1053.4,-62.23 1056.22,-53.72"/>
<polygon fill="black" stroke="black" points="1059.56,-54.77 1059.38,-44.18 1052.91,-52.57 1059.56,-54.77"/>
</g>
</g>
</svg>
