<?xml version="1.0" encoding="UTF-8" standalone="no"?>
<!DOCTYPE svg PUBLIC "-//W3C//DTD SVG 1.1//EN"
 "http://www.w3.org/Graphics/SVG/1.1/DTD/svg11.dtd">
<!-- Generated by graphviz version 2.43.0 (0)
 -->
<!-- Title: BST Pages: 1 -->
<svg width="222pt" height="274pt"
 viewBox="0.00 0.00 222.37 273.91" xmlns="http://www.w3.org/2000/svg" xmlns:xlink="http://www.w3.org/1999/xlink">
<g id="graph0" class="graph" transform="scale(1 1) rotate(0) translate(4 269.91)">
<title>BST</title>
<polygon fill="white" stroke="transparent" points="-4,4 -4,-269.91 218.37,-269.91 218.37,4 -4,4"/>
<!-- No_958501205 -->
<g id="node1" class="node">
<title>No_958501205</title>
<ellipse fill="none" stroke="black" cx="134.37" cy="-228.43" rx="69.09" ry="37.45"/>
<text text-anchor="middle" x="134.37" y="-239.73" font-family="Times,serif" font-size="14.00">Joana Porto</text>
<text text-anchor="middle" x="134.37" y="-224.73" font-family="Times,serif" font-size="14.00">958501205</text>
<text text-anchor="middle" x="134.37" y="-209.73" font-family="Times,serif" font-size="14.00">fb=&#45;1</text>
</g>
<!-- No_955450120 -->
<g id="node2" class="node">
<title>No_955450120</title>
<ellipse fill="none" stroke="black" cx="76.37" cy="-117.48" rx="76.24" ry="37.45"/>
<text text-anchor="middle" x="76.37" y="-128.78" font-family="Times,serif" font-size="14.00">Joana Barros</text>
<text text-anchor="middle" x="76.37" y="-113.78" font-family="Times,serif" font-size="14.00">955450120</text>
<text text-anchor="middle" x="76.37" y="-98.78" font-family="Times,serif" font-size="14.00">fb=0</text>
</g>
<!-- No_958501205&#45;&gt;No_955450120 -->
<g id="edge1" class="edge">
<title>No_958501205&#45;&gt;No_955450120</title>
<path fill="none" stroke="black" d="M115.54,-192.06C110.62,-182.83 105.26,-172.76 100.13,-163.12"/>
<polygon fill="black" stroke="black" points="103.09,-161.23 95.3,-154.05 96.91,-164.52 103.09,-161.23"/>
</g>
<!-- NUL_2 -->
<g id="node5" class="node">
<title>NUL_2</title>
<polygon fill="none" stroke="black" points="214.37,-139.48 170.37,-139.48 170.37,-95.48 214.37,-95.48 214.37,-139.48"/>
<text text-anchor="middle" x="192.37" y="-113.78" font-family="Times,serif" font-size="14.00">null</text>
</g>
<!-- No_958501205&#45;&gt;NUL_2 -->
<g id="edge4" class="edge">
<title>No_958501205&#45;&gt;NUL_2</title>
<path fill="none" stroke="black" d="M153.2,-192.06C160.67,-178.02 169.17,-162.05 176.34,-148.58"/>
<polygon fill="black" stroke="black" points="179.45,-150.18 181.06,-139.71 173.27,-146.89 179.45,-150.18"/>
</g>
<!-- NUL_0 -->
<g id="node3" class="node">
<title>NUL_0</title>
<polygon fill="none" stroke="black" points="67.37,-44 23.37,-44 23.37,0 67.37,0 67.37,-44"/>
<text text-anchor="middle" x="45.37" y="-18.3" font-family="Times,serif" font-size="14.00">null</text>
</g>
<!-- No_955450120&#45;&gt;NUL_0 -->
<g id="edge2" class="edge">
<title>No_955450120&#45;&gt;NUL_0</title>
<path fill="none" stroke="black" d="M64.38,-80.34C61.47,-71.55 58.38,-62.23 55.56,-53.72"/>
<polygon fill="black" stroke="black" points="58.86,-52.57 52.39,-44.18 52.22,-54.77 58.86,-52.57"/>
</g>
<!-- NUL_1 -->
<g id="node4" class="node">
<title>NUL_1</title>
<polygon fill="none" stroke="black" points="129.37,-44 85.37,-44 85.37,0 129.37,0 129.37,-44"/>
<text text-anchor="middle" x="107.37" y="-18.3" font-family="Times,serif" font-size="14.00">null</text>
</g>
<!-- No_955450120&#45;&gt;NUL_1 -->
<g id="edge3" class="edge">
<title>No_955450120&#45;&gt;NUL_1</title>
<path fill="none" stroke="black" d="M88.35,-80.34C91.27,-71.55 94.36,-62.23 97.18,-53.72"/>
<polygon fill="black" stroke="black" points="100.52,-54.77 100.34,-44.18 93.87,-52.57 100.52,-54.77"/>
</g>
</g>
</svg>
