<?xml version="1.0" encoding="UTF-8" standalone="no"?>
<!DOCTYPE svg PUBLIC "-//W3C//DTD SVG 1.1//EN"
 "http://www.w3.org/Graphics/SVG/1.1/DTD/svg11.dtd">
<!-- Generated by graphviz version 2.43.0 (0)
 -->
<!-- Title: BST Pages: 1 -->
<svg width="875pt" height="496pt"
 viewBox="0.00 0.00 874.95 495.81" xmlns="http://www.w3.org/2000/svg" xmlns:xlink="http://www.w3.org/1999/xlink">
<g id="graph0" class="graph" transform="scale(1 1) rotate(0) translate(4 491.81)">
<title>BST</title>
<polygon fill="white" stroke="transparent" points="-4,4 -4,-491.81 870.95,-491.81 870.95,4 -4,4"/>
<!-- No_985278999 -->
<g id="node1" class="node">
<title>No_985278999</title>
<ellipse fill="none" stroke="black" cx="486.95" cy="-450.34" rx="75.82" ry="37.45"/>
<text text-anchor="middle" x="486.95" y="-461.64" font-family="Times,serif" font-size="14.00">Acir Campos</text>
<text text-anchor="middle" x="486.95" y="-446.64" font-family="Times,serif" font-size="14.00">985278999</text>
<text text-anchor="middle" x="486.95" y="-431.64" font-family="Times,serif" font-size="14.00">fb=0</text>
</g>
<!-- No_965115082 -->
<g id="node2" class="node">
<title>No_965115082</title>
<ellipse fill="none" stroke="black" cx="374.95" cy="-339.38" rx="75.82" ry="37.45"/>
<text text-anchor="middle" x="374.95" y="-350.68" font-family="Times,serif" font-size="14.00">Ana Barbosa</text>
<text text-anchor="middle" x="374.95" y="-335.68" font-family="Times,serif" font-size="14.00">965115082</text>
<text text-anchor="middle" x="374.95" y="-320.68" font-family="Times,serif" font-size="14.00">fb=0</text>
</g>
<!-- No_985278999&#45;&gt;No_965115082 -->
<g id="edge1" class="edge">
<title>No_985278999&#45;&gt;No_965115082</title>
<path fill="none" stroke="black" d="M453.35,-416.65C441.61,-405.23 428.3,-392.28 416.02,-380.33"/>
<polygon fill="black" stroke="black" points="418.14,-377.51 408.53,-373.05 413.26,-382.53 418.14,-377.51"/>
</g>
<!-- No_994116870 -->
<g id="node13" class="node">
<title>No_994116870</title>
<ellipse fill="none" stroke="black" cx="587.95" cy="-339.38" rx="98.99" ry="37.45"/>
<text text-anchor="middle" x="587.95" y="-350.68" font-family="Times,serif" font-size="14.00">Alexandra Moura</text>
<text text-anchor="middle" x="587.95" y="-335.68" font-family="Times,serif" font-size="14.00">994116870</text>
<text text-anchor="middle" x="587.95" y="-320.68" font-family="Times,serif" font-size="14.00">fb=&#45;1</text>
</g>
<!-- No_985278999&#45;&gt;No_994116870 -->
<g id="edge12" class="edge">
<title>No_985278999&#45;&gt;No_994116870</title>
<path fill="none" stroke="black" d="M517.81,-416.06C527.61,-405.48 538.58,-393.64 548.89,-382.52"/>
<polygon fill="black" stroke="black" points="551.66,-384.68 555.89,-374.97 546.53,-379.92 551.66,-384.68"/>
</g>
<!-- No_960933790 -->
<g id="node3" class="node">
<title>No_960933790</title>
<ellipse fill="none" stroke="black" cx="179.95" cy="-228.43" rx="85.62" ry="37.45"/>
<text text-anchor="middle" x="179.95" y="-239.73" font-family="Times,serif" font-size="14.00">Andrea Santos</text>
<text text-anchor="middle" x="179.95" y="-224.73" font-family="Times,serif" font-size="14.00">960933790</text>
<text text-anchor="middle" x="179.95" y="-209.73" font-family="Times,serif" font-size="14.00">fb=&#45;1</text>
</g>
<!-- No_965115082&#45;&gt;No_960933790 -->
<g id="edge2" class="edge">
<title>No_965115082&#45;&gt;No_960933790</title>
<path fill="none" stroke="black" d="M325.75,-310.89C300,-296.5 268.24,-278.76 240.94,-263.51"/>
<polygon fill="black" stroke="black" points="242.31,-260.26 231.87,-258.44 238.9,-266.37 242.31,-260.26"/>
</g>
<!-- No_967387182 -->
<g id="node8" class="node">
<title>No_967387182</title>
<ellipse fill="none" stroke="black" cx="374.95" cy="-228.43" rx="91.43" ry="37.45"/>
<text text-anchor="middle" x="374.95" y="-239.73" font-family="Times,serif" font-size="14.00">Alfredo Martins</text>
<text text-anchor="middle" x="374.95" y="-224.73" font-family="Times,serif" font-size="14.00">967387182</text>
<text text-anchor="middle" x="374.95" y="-209.73" font-family="Times,serif" font-size="14.00">fb=1</text>
</g>
<!-- No_965115082&#45;&gt;No_967387182 -->
<g id="edge7" class="edge">
<title>No_965115082&#45;&gt;No_967387182</title>
<path fill="none" stroke="black" d="M374.95,-301.8C374.95,-293.63 374.95,-284.85 374.95,-276.32"/>
<polygon fill="black" stroke="black" points="378.45,-276.1 374.95,-266.1 371.45,-276.1 378.45,-276.1"/>
</g>
<!-- No_955838599 -->
<g id="node4" class="node">
<title>No_955838599</title>
<ellipse fill="none" stroke="black" cx="74.95" cy="-117.48" rx="74.91" ry="37.45"/>
<text text-anchor="middle" x="74.95" y="-128.78" font-family="Times,serif" font-size="14.00">Aline Santos</text>
<text text-anchor="middle" x="74.95" y="-113.78" font-family="Times,serif" font-size="14.00">955838599</text>
<text text-anchor="middle" x="74.95" y="-98.78" font-family="Times,serif" font-size="14.00">fb=0</text>
</g>
<!-- No_960933790&#45;&gt;No_955838599 -->
<g id="edge3" class="edge">
<title>No_960933790&#45;&gt;No_955838599</title>
<path fill="none" stroke="black" d="M147.31,-193.55C136.74,-182.59 124.91,-170.32 113.93,-158.92"/>
<polygon fill="black" stroke="black" points="116.32,-156.36 106.86,-151.58 111.28,-161.21 116.32,-156.36"/>
</g>
<!-- NUL_2 -->
<g id="node7" class="node">
<title>NUL_2</title>
<polygon fill="none" stroke="black" points="211.95,-139.48 167.95,-139.48 167.95,-95.48 211.95,-95.48 211.95,-139.48"/>
<text text-anchor="middle" x="189.95" y="-113.78" font-family="Times,serif" font-size="14.00">null</text>
</g>
<!-- No_960933790&#45;&gt;NUL_2 -->
<g id="edge6" class="edge">
<title>No_960933790&#45;&gt;NUL_2</title>
<path fill="none" stroke="black" d="M183.31,-190.85C184.53,-177.52 185.91,-162.58 187.08,-149.75"/>
<polygon fill="black" stroke="black" points="190.59,-149.83 188.02,-139.55 183.62,-149.19 190.59,-149.83"/>
</g>
<!-- NUL_0 -->
<g id="node5" class="node">
<title>NUL_0</title>
<polygon fill="none" stroke="black" points="65.95,-44 21.95,-44 21.95,0 65.95,0 65.95,-44"/>
<text text-anchor="middle" x="43.95" y="-18.3" font-family="Times,serif" font-size="14.00">null</text>
</g>
<!-- No_955838599&#45;&gt;NUL_0 -->
<g id="edge4" class="edge">
<title>No_955838599&#45;&gt;NUL_0</title>
<path fill="none" stroke="black" d="M62.97,-80.34C60.05,-71.55 56.96,-62.23 54.14,-53.72"/>
<polygon fill="black" stroke="black" points="57.45,-52.57 50.98,-44.18 50.8,-54.77 57.45,-52.57"/>
</g>
<!-- NUL_1 -->
<g id="node6" class="node">
<title>NUL_1</title>
<polygon fill="none" stroke="black" points="127.95,-44 83.95,-44 83.95,0 127.95,0 127.95,-44"/>
<text text-anchor="middle" x="105.95" y="-18.3" font-family="Times,serif" font-size="14.00">null</text>
</g>
<!-- No_955838599&#45;&gt;NUL_1 -->
<g id="edge5" class="edge">
<title>No_955838599&#45;&gt;NUL_1</title>
<path fill="none" stroke="black" d="M86.94,-80.34C89.85,-71.55 92.94,-62.23 95.77,-53.72"/>
<polygon fill="black" stroke="black" points="99.1,-54.77 98.93,-44.18 92.46,-52.57 99.1,-54.77"/>
</g>
<!-- NUL_3 -->
<g id="node9" class="node">
<title>NUL_3</title>
<polygon fill="none" stroke="black" points="282.95,-139.48 238.95,-139.48 238.95,-95.48 282.95,-95.48 282.95,-139.48"/>
<text text-anchor="middle" x="260.95" y="-113.78" font-family="Times,serif" font-size="14.00">null</text>
</g>
<!-- No_967387182&#45;&gt;NUL_3 -->
<g id="edge8" class="edge">
<title>No_967387182&#45;&gt;NUL_3</title>
<path fill="none" stroke="black" d="M335.02,-194.66C320.99,-182.61 305.39,-168.57 291.95,-154.95 289.62,-152.59 287.26,-150.07 284.93,-147.51"/>
<polygon fill="black" stroke="black" points="287.37,-144.98 278.14,-139.78 282.12,-149.6 287.37,-144.98"/>
</g>
<!-- No_975960513 -->
<g id="node10" class="node">
<title>No_975960513</title>
<ellipse fill="none" stroke="black" cx="374.95" cy="-117.48" rx="73.58" ry="37.45"/>
<text text-anchor="middle" x="374.95" y="-128.78" font-family="Times,serif" font-size="14.00">Altair Souza</text>
<text text-anchor="middle" x="374.95" y="-113.78" font-family="Times,serif" font-size="14.00">975960513</text>
<text text-anchor="middle" x="374.95" y="-98.78" font-family="Times,serif" font-size="14.00">fb=0</text>
</g>
<!-- No_967387182&#45;&gt;No_975960513 -->
<g id="edge9" class="edge">
<title>No_967387182&#45;&gt;No_975960513</title>
<path fill="none" stroke="black" d="M374.95,-190.85C374.95,-182.67 374.95,-173.89 374.95,-165.37"/>
<polygon fill="black" stroke="black" points="378.45,-165.15 374.95,-155.15 371.45,-165.15 378.45,-165.15"/>
</g>
<!-- NUL_4 -->
<g id="node11" class="node">
<title>NUL_4</title>
<polygon fill="none" stroke="black" points="365.95,-44 321.95,-44 321.95,0 365.95,0 365.95,-44"/>
<text text-anchor="middle" x="343.95" y="-18.3" font-family="Times,serif" font-size="14.00">null</text>
</g>
<!-- No_975960513&#45;&gt;NUL_4 -->
<g id="edge10" class="edge">
<title>No_975960513&#45;&gt;NUL_4</title>
<path fill="none" stroke="black" d="M362.97,-80.34C360.05,-71.55 356.96,-62.23 354.14,-53.72"/>
<polygon fill="black" stroke="black" points="357.45,-52.57 350.98,-44.18 350.8,-54.77 357.45,-52.57"/>
</g>
<!-- NUL_5 -->
<g id="node12" class="node">
<title>NUL_5</title>
<polygon fill="none" stroke="black" points="427.95,-44 383.95,-44 383.95,0 427.95,0 427.95,-44"/>
<text text-anchor="middle" x="405.95" y="-18.3" font-family="Times,serif" font-size="14.00">null</text>
</g>
<!-- No_975960513&#45;&gt;NUL_5 -->
<g id="edge11" class="edge">
<title>No_975960513&#45;&gt;NUL_5</title>
<path fill="none" stroke="black" d="M386.94,-80.34C389.85,-71.55 392.94,-62.23 395.77,-53.72"/>
<polygon fill="black" stroke="black" points="399.1,-54.77 398.93,-44.18 392.46,-52.57 399.1,-54.77"/>
</g>
<!-- No_987671978 -->
<g id="node14" class="node">
<title>No_987671978</title>
<ellipse fill="none" stroke="black" cx="587.95" cy="-228.43" rx="90.52" ry="37.45"/>
<text text-anchor="middle" x="587.95" y="-239.73" font-family="Times,serif" font-size="14.00">Adriana Pereira</text>
<text text-anchor="middle" x="587.95" y="-224.73" font-family="Times,serif" font-size="14.00">987671978</text>
<text text-anchor="middle" x="587.95" y="-209.73" font-family="Times,serif" font-size="14.00">fb=&#45;1</text>
</g>
<!-- No_994116870&#45;&gt;No_987671978 -->
<g id="edge13" class="edge">
<title>No_994116870&#45;&gt;No_987671978</title>
<path fill="none" stroke="black" d="M587.95,-301.8C587.95,-293.63 587.95,-284.85 587.95,-276.32"/>
<polygon fill="black" stroke="black" points="591.45,-276.1 587.95,-266.1 584.45,-276.1 591.45,-276.1"/>
</g>
<!-- No_997285865 -->
<g id="node19" class="node">
<title>No_997285865</title>
<ellipse fill="none" stroke="black" cx="782.95" cy="-228.43" rx="74.91" ry="37.45"/>
<text text-anchor="middle" x="782.95" y="-239.73" font-family="Times,serif" font-size="14.00">Almir Torres</text>
<text text-anchor="middle" x="782.95" y="-224.73" font-family="Times,serif" font-size="14.00">997285865</text>
<text text-anchor="middle" x="782.95" y="-209.73" font-family="Times,serif" font-size="14.00">fb=0</text>
</g>
<!-- No_994116870&#45;&gt;No_997285865 -->
<g id="edge18" class="edge">
<title>No_994116870&#45;&gt;No_997285865</title>
<path fill="none" stroke="black" d="M642.27,-308.03C667.98,-293.67 698.7,-276.5 724.87,-261.88"/>
<polygon fill="black" stroke="black" points="726.9,-264.76 733.92,-256.83 723.48,-258.65 726.9,-264.76"/>
</g>
<!-- No_986979432 -->
<g id="node15" class="node">
<title>No_986979432</title>
<ellipse fill="none" stroke="black" cx="573.95" cy="-117.48" rx="107.46" ry="37.45"/>
<text text-anchor="middle" x="573.95" y="-128.78" font-family="Times,serif" font-size="14.00">Américo Rodrigues</text>
<text text-anchor="middle" x="573.95" y="-113.78" font-family="Times,serif" font-size="14.00">986979432</text>
<text text-anchor="middle" x="573.95" y="-98.78" font-family="Times,serif" font-size="14.00">fb=0</text>
</g>
<!-- No_987671978&#45;&gt;No_986979432 -->
<g id="edge14" class="edge">
<title>No_987671978&#45;&gt;No_986979432</title>
<path fill="none" stroke="black" d="M583.25,-190.85C582.19,-182.58 581.05,-173.7 579.94,-165.09"/>
<polygon fill="black" stroke="black" points="583.41,-164.62 578.67,-155.15 576.47,-165.51 583.41,-164.62"/>
</g>
<!-- NUL_8 -->
<g id="node18" class="node">
<title>NUL_8</title>
<polygon fill="none" stroke="black" points="742.95,-139.48 698.95,-139.48 698.95,-95.48 742.95,-95.48 742.95,-139.48"/>
<text text-anchor="middle" x="720.95" y="-113.78" font-family="Times,serif" font-size="14.00">null</text>
</g>
<!-- No_987671978&#45;&gt;NUL_8 -->
<g id="edge17" class="edge">
<title>No_987671978&#45;&gt;NUL_8</title>
<path fill="none" stroke="black" d="M636.29,-196.74C653.92,-184.62 673.54,-170 689.95,-154.95 692.46,-152.65 694.97,-150.15 697.4,-147.57"/>
<polygon fill="black" stroke="black" points="700.35,-149.52 704.42,-139.74 695.14,-144.85 700.35,-149.52"/>
</g>
<!-- NUL_6 -->
<g id="node16" class="node">
<title>NUL_6</title>
<polygon fill="none" stroke="black" points="564.95,-44 520.95,-44 520.95,0 564.95,0 564.95,-44"/>
<text text-anchor="middle" x="542.95" y="-18.3" font-family="Times,serif" font-size="14.00">null</text>
</g>
<!-- No_986979432&#45;&gt;NUL_6 -->
<g id="edge15" class="edge">
<title>No_986979432&#45;&gt;NUL_6</title>
<path fill="none" stroke="black" d="M561.88,-80.07C558.97,-71.3 555.89,-62.02 553.08,-53.55"/>
<polygon fill="black" stroke="black" points="556.41,-52.45 549.94,-44.06 549.76,-54.65 556.41,-52.45"/>
</g>
<!-- NUL_7 -->
<g id="node17" class="node">
<title>NUL_7</title>
<polygon fill="none" stroke="black" points="626.95,-44 582.95,-44 582.95,0 626.95,0 626.95,-44"/>
<text text-anchor="middle" x="604.95" y="-18.3" font-family="Times,serif" font-size="14.00">null</text>
</g>
<!-- No_986979432&#45;&gt;NUL_7 -->
<g id="edge16" class="edge">
<title>No_986979432&#45;&gt;NUL_7</title>
<path fill="none" stroke="black" d="M586.03,-80.07C588.94,-71.3 592.01,-62.02 594.82,-53.55"/>
<polygon fill="black" stroke="black" points="598.14,-54.65 597.97,-44.06 591.5,-52.45 598.14,-54.65"/>
</g>
<!-- NUL_9 -->
<g id="node20" class="node">
<title>NUL_9</title>
<polygon fill="none" stroke="black" points="804.95,-139.48 760.95,-139.48 760.95,-95.48 804.95,-95.48 804.95,-139.48"/>
<text text-anchor="middle" x="782.95" y="-113.78" font-family="Times,serif" font-size="14.00">null</text>
</g>
<!-- No_997285865&#45;&gt;NUL_9 -->
<g id="edge19" class="edge">
<title>No_997285865&#45;&gt;NUL_9</title>
<path fill="none" stroke="black" d="M782.95,-190.85C782.95,-177.52 782.95,-162.58 782.95,-149.75"/>
<polygon fill="black" stroke="black" points="786.45,-149.55 782.95,-139.55 779.45,-149.55 786.45,-149.55"/>
</g>
<!-- NUL_10 -->
<g id="node21" class="node">
<title>NUL_10</title>
<polygon fill="none" stroke="black" points="866.95,-139.48 822.95,-139.48 822.95,-95.48 866.95,-95.48 866.95,-139.48"/>
<text text-anchor="middle" x="844.95" y="-113.78" font-family="Times,serif" font-size="14.00">null</text>
</g>
<!-- No_997285865&#45;&gt;NUL_10 -->
<g id="edge20" class="edge">
<title>No_997285865&#45;&gt;NUL_10</title>
<path fill="none" stroke="black" d="M803.08,-192.06C811.07,-178.02 820.16,-162.05 827.82,-148.58"/>
<polygon fill="black" stroke="black" points="830.97,-150.13 832.87,-139.71 824.88,-146.67 830.97,-150.13"/>
</g>
</g>
</svg>
