<?xml version="1.0" encoding="UTF-8" standalone="no"?>
<!DOCTYPE svg PUBLIC "-//W3C//DTD SVG 1.1//EN"
 "http://www.w3.org/Graphics/SVG/1.1/DTD/svg11.dtd">
<!-- Generated by graphviz version 2.43.0 (0)
 -->
<!-- Title: BST Pages: 1 -->
<svg width="906pt" height="496pt"
 viewBox="0.00 0.00 906.15 495.81" xmlns="http://www.w3.org/2000/svg" xmlns:xlink="http://www.w3.org/1999/xlink">
<g id="graph0" class="graph" transform="scale(1 1) rotate(0) translate(4 491.81)">
<title>BST</title>
<polygon fill="white" stroke="transparent" points="-4,4 -4,-491.81 902.15,-491.81 902.15,4 -4,4"/>
<!-- No_952713622 -->
<g id="node1" class="node">
<title>No_952713622</title>
<ellipse fill="none" stroke="black" cx="542" cy="-450.34" rx="70.92" ry="37.45"/>
<text text-anchor="middle" x="542" y="-461.64" font-family="Times,serif" font-size="14.00">Carla Costa</text>
<text text-anchor="middle" x="542" y="-446.64" font-family="Times,serif" font-size="14.00">952713622</text>
<text text-anchor="middle" x="542" y="-431.64" font-family="Times,serif" font-size="14.00">fb=&#45;1</text>
</g>
<!-- No_924719979 -->
<g id="node2" class="node">
<title>No_924719979</title>
<ellipse fill="none" stroke="black" cx="398" cy="-339.38" rx="74.49" ry="37.45"/>
<text text-anchor="middle" x="398" y="-350.68" font-family="Times,serif" font-size="14.00">Carlos Alves</text>
<text text-anchor="middle" x="398" y="-335.68" font-family="Times,serif" font-size="14.00">924719979</text>
<text text-anchor="middle" x="398" y="-320.68" font-family="Times,serif" font-size="14.00">fb=0</text>
</g>
<!-- No_952713622&#45;&gt;No_924719979 -->
<g id="edge1" class="edge">
<title>No_952713622&#45;&gt;No_924719979</title>
<path fill="none" stroke="black" d="M502.27,-419.28C485.02,-406.22 464.65,-390.81 446.51,-377.09"/>
<polygon fill="black" stroke="black" points="448.44,-374.16 438.35,-370.91 444.21,-379.74 448.44,-374.16"/>
</g>
<!-- No_967404803 -->
<g id="node15" class="node">
<title>No_967404803</title>
<ellipse fill="none" stroke="black" cx="634" cy="-339.38" rx="91.85" ry="37.45"/>
<text text-anchor="middle" x="634" y="-350.68" font-family="Times,serif" font-size="14.00">Cristina Pereira</text>
<text text-anchor="middle" x="634" y="-335.68" font-family="Times,serif" font-size="14.00">967404803</text>
<text text-anchor="middle" x="634" y="-320.68" font-family="Times,serif" font-size="14.00">fb=0</text>
</g>
<!-- No_952713622&#45;&gt;No_967404803 -->
<g id="edge14" class="edge">
<title>No_952713622&#45;&gt;No_967404803</title>
<path fill="none" stroke="black" d="M570.35,-415.76C579.11,-405.39 588.86,-393.84 598.05,-382.95"/>
<polygon fill="black" stroke="black" points="600.85,-385.07 604.63,-375.17 595.5,-380.55 600.85,-385.07"/>
</g>
<!-- No_907184926 -->
<g id="node3" class="node">
<title>No_907184926</title>
<ellipse fill="none" stroke="black" cx="153" cy="-228.43" rx="98.99" ry="37.45"/>
<text text-anchor="middle" x="153" y="-239.73" font-family="Times,serif" font-size="14.00">Carlos Rodrigues</text>
<text text-anchor="middle" x="153" y="-224.73" font-family="Times,serif" font-size="14.00">907184926</text>
<text text-anchor="middle" x="153" y="-209.73" font-family="Times,serif" font-size="14.00">fb=1</text>
</g>
<!-- No_924719979&#45;&gt;No_907184926 -->
<g id="edge2" class="edge">
<title>No_924719979&#45;&gt;No_907184926</title>
<path fill="none" stroke="black" d="M343.02,-313.93C308.29,-298.49 263.04,-278.36 225.41,-261.63"/>
<polygon fill="black" stroke="black" points="226.57,-258.32 216.01,-257.45 223.73,-264.71 226.57,-258.32"/>
</g>
<!-- No_947225601 -->
<g id="node8" class="node">
<title>No_947225601</title>
<ellipse fill="none" stroke="black" cx="398" cy="-228.43" rx="76.24" ry="37.45"/>
<text text-anchor="middle" x="398" y="-239.73" font-family="Times,serif" font-size="14.00">Carla Coelho</text>
<text text-anchor="middle" x="398" y="-224.73" font-family="Times,serif" font-size="14.00">947225601</text>
<text text-anchor="middle" x="398" y="-209.73" font-family="Times,serif" font-size="14.00">fb=0</text>
</g>
<!-- No_924719979&#45;&gt;No_947225601 -->
<g id="edge7" class="edge">
<title>No_924719979&#45;&gt;No_947225601</title>
<path fill="none" stroke="black" d="M398,-301.8C398,-293.63 398,-284.85 398,-276.32"/>
<polygon fill="black" stroke="black" points="401.5,-276.1 398,-266.1 394.5,-276.1 401.5,-276.1"/>
</g>
<!-- NUL_0 -->
<g id="node4" class="node">
<title>NUL_0</title>
<polygon fill="none" stroke="black" points="44,-139.48 0,-139.48 0,-95.48 44,-95.48 44,-139.48"/>
<text text-anchor="middle" x="22" y="-113.78" font-family="Times,serif" font-size="14.00">null</text>
</g>
<!-- No_907184926&#45;&gt;NUL_0 -->
<g id="edge3" class="edge">
<title>No_907184926&#45;&gt;NUL_0</title>
<path fill="none" stroke="black" d="M104.39,-195.72C87.44,-183.76 68.74,-169.52 53,-154.95 50.5,-152.64 48,-150.13 45.58,-147.55"/>
<polygon fill="black" stroke="black" points="47.84,-144.83 38.56,-139.71 42.62,-149.49 47.84,-144.83"/>
</g>
<!-- No_920744859 -->
<g id="node5" class="node">
<title>No_920744859</title>
<ellipse fill="none" stroke="black" cx="153" cy="-117.48" rx="91.43" ry="37.45"/>
<text text-anchor="middle" x="153" y="-128.78" font-family="Times,serif" font-size="14.00">Cristina Freitas</text>
<text text-anchor="middle" x="153" y="-113.78" font-family="Times,serif" font-size="14.00">920744859</text>
<text text-anchor="middle" x="153" y="-98.78" font-family="Times,serif" font-size="14.00">fb=0</text>
</g>
<!-- No_907184926&#45;&gt;No_920744859 -->
<g id="edge4" class="edge">
<title>No_907184926&#45;&gt;No_920744859</title>
<path fill="none" stroke="black" d="M153,-190.85C153,-182.67 153,-173.89 153,-165.37"/>
<polygon fill="black" stroke="black" points="156.5,-165.15 153,-155.15 149.5,-165.15 156.5,-165.15"/>
</g>
<!-- NUL_1 -->
<g id="node6" class="node">
<title>NUL_1</title>
<polygon fill="none" stroke="black" points="144,-44 100,-44 100,0 144,0 144,-44"/>
<text text-anchor="middle" x="122" y="-18.3" font-family="Times,serif" font-size="14.00">null</text>
</g>
<!-- No_920744859&#45;&gt;NUL_1 -->
<g id="edge5" class="edge">
<title>No_920744859&#45;&gt;NUL_1</title>
<path fill="none" stroke="black" d="M140.93,-80.07C138.02,-71.3 134.94,-62.02 132.13,-53.55"/>
<polygon fill="black" stroke="black" points="135.45,-52.45 128.98,-44.06 128.81,-54.65 135.45,-52.45"/>
</g>
<!-- NUL_2 -->
<g id="node7" class="node">
<title>NUL_2</title>
<polygon fill="none" stroke="black" points="206,-44 162,-44 162,0 206,0 206,-44"/>
<text text-anchor="middle" x="184" y="-18.3" font-family="Times,serif" font-size="14.00">null</text>
</g>
<!-- No_920744859&#45;&gt;NUL_2 -->
<g id="edge6" class="edge">
<title>No_920744859&#45;&gt;NUL_2</title>
<path fill="none" stroke="black" d="M165.07,-80.07C167.98,-71.3 171.06,-62.02 173.87,-53.55"/>
<polygon fill="black" stroke="black" points="177.19,-54.65 177.02,-44.06 170.55,-52.45 177.19,-54.65"/>
</g>
<!-- No_938859996 -->
<g id="node9" class="node">
<title>No_938859996</title>
<ellipse fill="none" stroke="black" cx="337" cy="-117.48" rx="74.91" ry="37.45"/>
<text text-anchor="middle" x="337" y="-128.78" font-family="Times,serif" font-size="14.00">Carla Moura</text>
<text text-anchor="middle" x="337" y="-113.78" font-family="Times,serif" font-size="14.00">938859996</text>
<text text-anchor="middle" x="337" y="-98.78" font-family="Times,serif" font-size="14.00">fb=0</text>
</g>
<!-- No_947225601&#45;&gt;No_938859996 -->
<g id="edge8" class="edge">
<title>No_947225601&#45;&gt;No_938859996</title>
<path fill="none" stroke="black" d="M378.2,-192.06C372.92,-182.64 367.16,-172.34 361.66,-162.52"/>
<polygon fill="black" stroke="black" points="364.64,-160.69 356.71,-153.67 358.54,-164.11 364.64,-160.69"/>
</g>
<!-- No_951878546 -->
<g id="node12" class="node">
<title>No_951878546</title>
<ellipse fill="none" stroke="black" cx="512" cy="-117.48" rx="82.05" ry="37.45"/>
<text text-anchor="middle" x="512" y="-128.78" font-family="Times,serif" font-size="14.00">Carla Martins</text>
<text text-anchor="middle" x="512" y="-113.78" font-family="Times,serif" font-size="14.00">951878546</text>
<text text-anchor="middle" x="512" y="-98.78" font-family="Times,serif" font-size="14.00">fb=0</text>
</g>
<!-- No_947225601&#45;&gt;No_951878546 -->
<g id="edge11" class="edge">
<title>No_947225601&#45;&gt;No_951878546</title>
<path fill="none" stroke="black" d="M432.2,-194.74C444.04,-183.42 457.46,-170.61 469.86,-158.75"/>
<polygon fill="black" stroke="black" points="472.62,-160.96 477.43,-151.52 467.78,-155.9 472.62,-160.96"/>
</g>
<!-- NUL_3 -->
<g id="node10" class="node">
<title>NUL_3</title>
<polygon fill="none" stroke="black" points="341,-44 297,-44 297,0 341,0 341,-44"/>
<text text-anchor="middle" x="319" y="-18.3" font-family="Times,serif" font-size="14.00">null</text>
</g>
<!-- No_938859996&#45;&gt;NUL_3 -->
<g id="edge9" class="edge">
<title>No_938859996&#45;&gt;NUL_3</title>
<path fill="none" stroke="black" d="M329.99,-80.07C328.34,-71.49 326.59,-62.42 324.99,-54.1"/>
<polygon fill="black" stroke="black" points="328.38,-53.21 323.05,-44.06 321.51,-54.54 328.38,-53.21"/>
</g>
<!-- NUL_4 -->
<g id="node11" class="node">
<title>NUL_4</title>
<polygon fill="none" stroke="black" points="403,-44 359,-44 359,0 403,0 403,-44"/>
<text text-anchor="middle" x="381" y="-18.3" font-family="Times,serif" font-size="14.00">null</text>
</g>
<!-- No_938859996&#45;&gt;NUL_4 -->
<g id="edge10" class="edge">
<title>No_938859996&#45;&gt;NUL_4</title>
<path fill="none" stroke="black" d="M353.76,-80.87C358.04,-71.78 362.6,-62.09 366.74,-53.29"/>
<polygon fill="black" stroke="black" points="369.95,-54.7 371.04,-44.16 363.61,-51.72 369.95,-54.7"/>
</g>
<!-- NUL_5 -->
<g id="node13" class="node">
<title>NUL_5</title>
<polygon fill="none" stroke="black" points="489,-44 445,-44 445,0 489,0 489,-44"/>
<text text-anchor="middle" x="467" y="-18.3" font-family="Times,serif" font-size="14.00">null</text>
</g>
<!-- No_951878546&#45;&gt;NUL_5 -->
<g id="edge12" class="edge">
<title>No_951878546&#45;&gt;NUL_5</title>
<path fill="none" stroke="black" d="M494.73,-80.6C490.36,-71.53 485.72,-61.88 481.5,-53.12"/>
<polygon fill="black" stroke="black" points="484.62,-51.53 477.13,-44.04 478.31,-54.56 484.62,-51.53"/>
</g>
<!-- NUL_6 -->
<g id="node14" class="node">
<title>NUL_6</title>
<polygon fill="none" stroke="black" points="551,-44 507,-44 507,0 551,0 551,-44"/>
<text text-anchor="middle" x="529" y="-18.3" font-family="Times,serif" font-size="14.00">null</text>
</g>
<!-- No_951878546&#45;&gt;NUL_6 -->
<g id="edge13" class="edge">
<title>No_951878546&#45;&gt;NUL_6</title>
<path fill="none" stroke="black" d="M518.62,-80.07C520.18,-71.49 521.83,-62.42 523.34,-54.1"/>
<polygon fill="black" stroke="black" points="526.82,-54.52 525.17,-44.06 519.94,-53.27 526.82,-54.52"/>
</g>
<!-- No_964988636 -->
<g id="node16" class="node">
<title>No_964988636</title>
<ellipse fill="none" stroke="black" cx="634" cy="-228.43" rx="77.56" ry="37.45"/>
<text text-anchor="middle" x="634" y="-239.73" font-family="Times,serif" font-size="14.00">Carla Freitas</text>
<text text-anchor="middle" x="634" y="-224.73" font-family="Times,serif" font-size="14.00">964988636</text>
<text text-anchor="middle" x="634" y="-209.73" font-family="Times,serif" font-size="14.00">fb=0</text>
</g>
<!-- No_967404803&#45;&gt;No_964988636 -->
<g id="edge15" class="edge">
<title>No_967404803&#45;&gt;No_964988636</title>
<path fill="none" stroke="black" d="M634,-301.8C634,-293.63 634,-284.85 634,-276.32"/>
<polygon fill="black" stroke="black" points="637.5,-276.1 634,-266.1 630.5,-276.1 637.5,-276.1"/>
</g>
<!-- No_989872459 -->
<g id="node19" class="node">
<title>No_989872459</title>
<ellipse fill="none" stroke="black" cx="814" cy="-228.43" rx="84.29" ry="37.45"/>
<text text-anchor="middle" x="814" y="-239.73" font-family="Times,serif" font-size="14.00">Cristina Costa</text>
<text text-anchor="middle" x="814" y="-224.73" font-family="Times,serif" font-size="14.00">989872459</text>
<text text-anchor="middle" x="814" y="-209.73" font-family="Times,serif" font-size="14.00">fb=0</text>
</g>
<!-- No_967404803&#45;&gt;No_989872459 -->
<g id="edge18" class="edge">
<title>No_967404803&#45;&gt;No_989872459</title>
<path fill="none" stroke="black" d="M684.62,-307.74C706.93,-294.24 733.27,-278.3 756.34,-264.33"/>
<polygon fill="black" stroke="black" points="758.26,-267.26 765,-259.09 754.63,-261.27 758.26,-267.26"/>
</g>
<!-- NUL_7 -->
<g id="node17" class="node">
<title>NUL_7</title>
<polygon fill="none" stroke="black" points="656,-139.48 612,-139.48 612,-95.48 656,-95.48 656,-139.48"/>
<text text-anchor="middle" x="634" y="-113.78" font-family="Times,serif" font-size="14.00">null</text>
</g>
<!-- No_964988636&#45;&gt;NUL_7 -->
<g id="edge16" class="edge">
<title>No_964988636&#45;&gt;NUL_7</title>
<path fill="none" stroke="black" d="M634,-190.85C634,-177.52 634,-162.58 634,-149.75"/>
<polygon fill="black" stroke="black" points="637.5,-149.55 634,-139.55 630.5,-149.55 637.5,-149.55"/>
</g>
<!-- NUL_8 -->
<g id="node18" class="node">
<title>NUL_8</title>
<polygon fill="none" stroke="black" points="718,-139.48 674,-139.48 674,-95.48 718,-95.48 718,-139.48"/>
<text text-anchor="middle" x="696" y="-113.78" font-family="Times,serif" font-size="14.00">null</text>
</g>
<!-- No_964988636&#45;&gt;NUL_8 -->
<g id="edge17" class="edge">
<title>No_964988636&#45;&gt;NUL_8</title>
<path fill="none" stroke="black" d="M654.13,-192.06C662.12,-178.02 671.21,-162.05 678.87,-148.58"/>
<polygon fill="black" stroke="black" points="682.01,-150.13 683.92,-139.71 675.93,-146.67 682.01,-150.13"/>
</g>
<!-- NUL_9 -->
<g id="node20" class="node">
<title>NUL_9</title>
<polygon fill="none" stroke="black" points="808,-139.48 764,-139.48 764,-95.48 808,-95.48 808,-139.48"/>
<text text-anchor="middle" x="786" y="-113.78" font-family="Times,serif" font-size="14.00">null</text>
</g>
<!-- No_989872459&#45;&gt;NUL_9 -->
<g id="edge19" class="edge">
<title>No_989872459&#45;&gt;NUL_9</title>
<path fill="none" stroke="black" d="M804.68,-191.15C801.21,-177.67 797.32,-162.51 793.98,-149.53"/>
<polygon fill="black" stroke="black" points="797.33,-148.49 791.45,-139.67 790.55,-150.23 797.33,-148.49"/>
</g>
<!-- NUL_10 -->
<g id="node21" class="node">
<title>NUL_10</title>
<polygon fill="none" stroke="black" points="870,-139.48 826,-139.48 826,-95.48 870,-95.48 870,-139.48"/>
<text text-anchor="middle" x="848" y="-113.78" font-family="Times,serif" font-size="14.00">null</text>
</g>
<!-- No_989872459&#45;&gt;NUL_10 -->
<g id="edge20" class="edge">
<title>No_989872459&#45;&gt;NUL_10</title>
<path fill="none" stroke="black" d="M825.32,-191.15C829.53,-177.67 834.26,-162.51 838.31,-149.53"/>
<polygon fill="black" stroke="black" points="841.75,-150.26 841.39,-139.67 835.07,-148.18 841.75,-150.26"/>
</g>
</g>
</svg>
