<?xml version="1.0" encoding="UTF-8" standalone="no"?>
<!DOCTYPE svg PUBLIC "-//W3C//DTD SVG 1.1//EN"
 "http://www.w3.org/Graphics/SVG/1.1/DTD/svg11.dtd">
<!-- Generated by graphviz version 2.43.0 (0)
 -->
<!-- Title: BST Pages: 1 -->
<svg width="805pt" height="496pt"
 viewBox="0.00 0.00 804.95 495.81" xmlns="http://www.w3.org/2000/svg" xmlns:xlink="http://www.w3.org/1999/xlink">
<g id="graph0" class="graph" transform="scale(1 1) rotate(0) translate(4 491.81)">
<title>BST</title>
<polygon fill="white" stroke="transparent" points="-4,4 -4,-491.81 800.95,-491.81 800.95,4 -4,4"/>
<!-- No_985278999 -->
<g id="node1" class="node">
<title>No_985278999</title>
<ellipse fill="none" stroke="black" cx="437.95" cy="-450.34" rx="75.82" ry="37.45"/>
<text text-anchor="middle" x="437.95" y="-461.64" font-family="Times,serif" font-size="14.00">Acir Campos</text>
<text text-anchor="middle" x="437.95" y="-446.64" font-family="Times,serif" font-size="14.00">985278999</text>
<text text-anchor="middle" x="437.95" y="-431.64" font-family="Times,serif" font-size="14.00">fb=0</text>
</g>
<!-- No_965115082 -->
<g id="node2" class="node">
<title>No_965115082</title>
<ellipse fill="none" stroke="black" cx="341.95" cy="-339.38" rx="75.82" ry="37.45"/>
<text text-anchor="middle" x="341.95" y="-350.68" font-family="Times,serif" font-size="14.00">Ana Barbosa</text>
<text text-anchor="middle" x="341.95" y="-335.68" font-family="Times,serif" font-size="14.00">965115082</text>
<text text-anchor="middle" x="341.95" y="-320.68" font-family="Times,serif" font-size="14.00">fb=&#45;1</text>
</g>
<!-- No_985278999&#45;&gt;No_965115082 -->
<g id="edge1" class="edge">
<title>No_985278999&#45;&gt;No_965115082</title>
<path fill="none" stroke="black" d="M408.37,-415.76C398.88,-404.99 388.26,-392.93 378.34,-381.68"/>
<polygon fill="black" stroke="black" points="380.84,-379.23 371.61,-374.04 375.59,-383.86 380.84,-379.23"/>
</g>
<!-- No_994116870 -->
<g id="node11" class="node">
<title>No_994116870</title>
<ellipse fill="none" stroke="black" cx="534.95" cy="-339.38" rx="98.99" ry="37.45"/>
<text text-anchor="middle" x="534.95" y="-350.68" font-family="Times,serif" font-size="14.00">Alexandra Moura</text>
<text text-anchor="middle" x="534.95" y="-335.68" font-family="Times,serif" font-size="14.00">994116870</text>
<text text-anchor="middle" x="534.95" y="-320.68" font-family="Times,serif" font-size="14.00">fb=&#45;1</text>
</g>
<!-- No_985278999&#45;&gt;No_994116870 -->
<g id="edge10" class="edge">
<title>No_985278999&#45;&gt;No_994116870</title>
<path fill="none" stroke="black" d="M467.85,-415.76C477.08,-405.39 487.36,-393.84 497.05,-382.95"/>
<polygon fill="black" stroke="black" points="499.95,-384.97 503.98,-375.17 494.72,-380.31 499.95,-384.97"/>
</g>
<!-- No_960933790 -->
<g id="node3" class="node">
<title>No_960933790</title>
<ellipse fill="none" stroke="black" cx="167.95" cy="-228.43" rx="85.62" ry="37.45"/>
<text text-anchor="middle" x="167.95" y="-239.73" font-family="Times,serif" font-size="14.00">Andrea Santos</text>
<text text-anchor="middle" x="167.95" y="-224.73" font-family="Times,serif" font-size="14.00">960933790</text>
<text text-anchor="middle" x="167.95" y="-209.73" font-family="Times,serif" font-size="14.00">fb=&#45;1</text>
</g>
<!-- No_965115082&#45;&gt;No_960933790 -->
<g id="edge2" class="edge">
<title>No_965115082&#45;&gt;No_960933790</title>
<path fill="none" stroke="black" d="M295.78,-309.47C274,-295.83 247.8,-279.43 224.81,-265.03"/>
<polygon fill="black" stroke="black" points="226.5,-261.96 216.17,-259.62 222.78,-267.89 226.5,-261.96"/>
</g>
<!-- No_975960513 -->
<g id="node8" class="node">
<title>No_975960513</title>
<ellipse fill="none" stroke="black" cx="344.95" cy="-228.43" rx="73.58" ry="37.45"/>
<text text-anchor="middle" x="344.95" y="-239.73" font-family="Times,serif" font-size="14.00">Altair Souza</text>
<text text-anchor="middle" x="344.95" y="-224.73" font-family="Times,serif" font-size="14.00">975960513</text>
<text text-anchor="middle" x="344.95" y="-209.73" font-family="Times,serif" font-size="14.00">fb=0</text>
</g>
<!-- No_965115082&#45;&gt;No_975960513 -->
<g id="edge7" class="edge">
<title>No_965115082&#45;&gt;No_975960513</title>
<path fill="none" stroke="black" d="M342.96,-301.8C343.19,-293.63 343.43,-284.85 343.66,-276.32"/>
<polygon fill="black" stroke="black" points="347.17,-276.19 343.94,-266.1 340.17,-276 347.17,-276.19"/>
</g>
<!-- No_955838599 -->
<g id="node4" class="node">
<title>No_955838599</title>
<ellipse fill="none" stroke="black" cx="74.95" cy="-117.48" rx="74.91" ry="37.45"/>
<text text-anchor="middle" x="74.95" y="-128.78" font-family="Times,serif" font-size="14.00">Aline Santos</text>
<text text-anchor="middle" x="74.95" y="-113.78" font-family="Times,serif" font-size="14.00">955838599</text>
<text text-anchor="middle" x="74.95" y="-98.78" font-family="Times,serif" font-size="14.00">fb=0</text>
</g>
<!-- No_960933790&#45;&gt;No_955838599 -->
<g id="edge3" class="edge">
<title>No_960933790&#45;&gt;No_955838599</title>
<path fill="none" stroke="black" d="M138.53,-192.96C129.62,-182.52 119.74,-170.95 110.48,-160.1"/>
<polygon fill="black" stroke="black" points="113.02,-157.69 103.87,-152.35 107.7,-162.23 113.02,-157.69"/>
</g>
<!-- NUL_2 -->
<g id="node7" class="node">
<title>NUL_2</title>
<polygon fill="none" stroke="black" points="211.95,-139.48 167.95,-139.48 167.95,-95.48 211.95,-95.48 211.95,-139.48"/>
<text text-anchor="middle" x="189.95" y="-113.78" font-family="Times,serif" font-size="14.00">null</text>
</g>
<!-- No_960933790&#45;&gt;NUL_2 -->
<g id="edge6" class="edge">
<title>No_960933790&#45;&gt;NUL_2</title>
<path fill="none" stroke="black" d="M175.34,-190.85C178.06,-177.38 181.11,-162.28 183.72,-149.37"/>
<polygon fill="black" stroke="black" points="187.15,-150.05 185.7,-139.55 180.29,-148.66 187.15,-150.05"/>
</g>
<!-- NUL_0 -->
<g id="node5" class="node">
<title>NUL_0</title>
<polygon fill="none" stroke="black" points="65.95,-44 21.95,-44 21.95,0 65.95,0 65.95,-44"/>
<text text-anchor="middle" x="43.95" y="-18.3" font-family="Times,serif" font-size="14.00">null</text>
</g>
<!-- No_955838599&#45;&gt;NUL_0 -->
<g id="edge4" class="edge">
<title>No_955838599&#45;&gt;NUL_0</title>
<path fill="none" stroke="black" d="M62.97,-80.34C60.05,-71.55 56.96,-62.23 54.14,-53.72"/>
<polygon fill="black" stroke="black" points="57.45,-52.57 50.98,-44.18 50.8,-54.77 57.45,-52.57"/>
</g>
<!-- NUL_1 -->
<g id="node6" class="node">
<title>NUL_1</title>
<polygon fill="none" stroke="black" points="127.95,-44 83.95,-44 83.95,0 127.95,0 127.95,-44"/>
<text text-anchor="middle" x="105.95" y="-18.3" font-family="Times,serif" font-size="14.00">null</text>
</g>
<!-- No_955838599&#45;&gt;NUL_1 -->
<g id="edge5" class="edge">
<title>No_955838599&#45;&gt;NUL_1</title>
<path fill="none" stroke="black" d="M86.94,-80.34C89.85,-71.55 92.94,-62.23 95.77,-53.72"/>
<polygon fill="black" stroke="black" points="99.1,-54.77 98.93,-44.18 92.46,-52.57 99.1,-54.77"/>
</g>
<!-- NUL_3 -->
<g id="node9" class="node">
<title>NUL_3</title>
<polygon fill="none" stroke="black" points="306.95,-139.48 262.95,-139.48 262.95,-95.48 306.95,-95.48 306.95,-139.48"/>
<text text-anchor="middle" x="284.95" y="-113.78" font-family="Times,serif" font-size="14.00">null</text>
</g>
<!-- No_975960513&#45;&gt;NUL_3 -->
<g id="edge8" class="edge">
<title>No_975960513&#45;&gt;NUL_3</title>
<path fill="none" stroke="black" d="M325.47,-192.06C317.74,-178.02 308.95,-162.05 301.53,-148.58"/>
<polygon fill="black" stroke="black" points="304.54,-146.78 296.65,-139.71 298.41,-150.16 304.54,-146.78"/>
</g>
<!-- NUL_4 -->
<g id="node10" class="node">
<title>NUL_4</title>
<polygon fill="none" stroke="black" points="368.95,-139.48 324.95,-139.48 324.95,-95.48 368.95,-95.48 368.95,-139.48"/>
<text text-anchor="middle" x="346.95" y="-113.78" font-family="Times,serif" font-size="14.00">null</text>
</g>
<!-- No_975960513&#45;&gt;NUL_4 -->
<g id="edge9" class="edge">
<title>No_975960513&#45;&gt;NUL_4</title>
<path fill="none" stroke="black" d="M345.62,-190.85C345.87,-177.52 346.14,-162.58 346.38,-149.75"/>
<polygon fill="black" stroke="black" points="349.88,-149.62 346.57,-139.55 342.88,-149.49 349.88,-149.62"/>
</g>
<!-- No_987671978 -->
<g id="node12" class="node">
<title>No_987671978</title>
<ellipse fill="none" stroke="black" cx="531.95" cy="-228.43" rx="90.52" ry="37.45"/>
<text text-anchor="middle" x="531.95" y="-239.73" font-family="Times,serif" font-size="14.00">Adriana Pereira</text>
<text text-anchor="middle" x="531.95" y="-224.73" font-family="Times,serif" font-size="14.00">987671978</text>
<text text-anchor="middle" x="531.95" y="-209.73" font-family="Times,serif" font-size="14.00">fb=&#45;1</text>
</g>
<!-- No_994116870&#45;&gt;No_987671978 -->
<g id="edge11" class="edge">
<title>No_994116870&#45;&gt;No_987671978</title>
<path fill="none" stroke="black" d="M533.95,-301.8C533.72,-293.63 533.48,-284.85 533.24,-276.32"/>
<polygon fill="black" stroke="black" points="536.74,-276 532.96,-266.1 529.74,-276.19 536.74,-276"/>
</g>
<!-- No_997285865 -->
<g id="node17" class="node">
<title>No_997285865</title>
<ellipse fill="none" stroke="black" cx="714.95" cy="-228.43" rx="74.91" ry="37.45"/>
<text text-anchor="middle" x="714.95" y="-239.73" font-family="Times,serif" font-size="14.00">Almir Torres</text>
<text text-anchor="middle" x="714.95" y="-224.73" font-family="Times,serif" font-size="14.00">997285865</text>
<text text-anchor="middle" x="714.95" y="-209.73" font-family="Times,serif" font-size="14.00">fb=0</text>
</g>
<!-- No_994116870&#45;&gt;No_997285865 -->
<g id="edge16" class="edge">
<title>No_994116870&#45;&gt;No_997285865</title>
<path fill="none" stroke="black" d="M586.53,-307.16C609.29,-293.39 636.07,-277.18 659.28,-263.13"/>
<polygon fill="black" stroke="black" points="661.24,-266.03 667.98,-257.86 657.61,-260.05 661.24,-266.03"/>
</g>
<!-- No_986979432 -->
<g id="node13" class="node">
<title>No_986979432</title>
<ellipse fill="none" stroke="black" cx="500.95" cy="-117.48" rx="107.46" ry="37.45"/>
<text text-anchor="middle" x="500.95" y="-128.78" font-family="Times,serif" font-size="14.00">Américo Rodrigues</text>
<text text-anchor="middle" x="500.95" y="-113.78" font-family="Times,serif" font-size="14.00">986979432</text>
<text text-anchor="middle" x="500.95" y="-98.78" font-family="Times,serif" font-size="14.00">fb=0</text>
</g>
<!-- No_987671978&#45;&gt;No_986979432 -->
<g id="edge12" class="edge">
<title>No_987671978&#45;&gt;No_986979432</title>
<path fill="none" stroke="black" d="M521.63,-191.15C519.22,-182.69 516.63,-173.58 514.12,-164.76"/>
<polygon fill="black" stroke="black" points="517.44,-163.63 511.34,-154.97 510.71,-165.55 517.44,-163.63"/>
</g>
<!-- NUL_7 -->
<g id="node16" class="node">
<title>NUL_7</title>
<polygon fill="none" stroke="black" points="669.95,-139.48 625.95,-139.48 625.95,-95.48 669.95,-95.48 669.95,-139.48"/>
<text text-anchor="middle" x="647.95" y="-113.78" font-family="Times,serif" font-size="14.00">null</text>
</g>
<!-- No_987671978&#45;&gt;NUL_7 -->
<g id="edge15" class="edge">
<title>No_987671978&#45;&gt;NUL_7</title>
<path fill="none" stroke="black" d="M572.91,-194.78C587.28,-182.74 603.25,-168.68 616.95,-154.95 619.3,-152.6 621.67,-150.09 624,-147.54"/>
<polygon fill="black" stroke="black" points="626.82,-149.64 630.8,-139.82 621.57,-145.01 626.82,-149.64"/>
</g>
<!-- NUL_5 -->
<g id="node14" class="node">
<title>NUL_5</title>
<polygon fill="none" stroke="black" points="491.95,-44 447.95,-44 447.95,0 491.95,0 491.95,-44"/>
<text text-anchor="middle" x="469.95" y="-18.3" font-family="Times,serif" font-size="14.00">null</text>
</g>
<!-- No_986979432&#45;&gt;NUL_5 -->
<g id="edge13" class="edge">
<title>No_986979432&#45;&gt;NUL_5</title>
<path fill="none" stroke="black" d="M488.88,-80.07C485.97,-71.3 482.89,-62.02 480.08,-53.55"/>
<polygon fill="black" stroke="black" points="483.41,-52.45 476.94,-44.06 476.76,-54.65 483.41,-52.45"/>
</g>
<!-- NUL_6 -->
<g id="node15" class="node">
<title>NUL_6</title>
<polygon fill="none" stroke="black" points="553.95,-44 509.95,-44 509.95,0 553.95,0 553.95,-44"/>
<text text-anchor="middle" x="531.95" y="-18.3" font-family="Times,serif" font-size="14.00">null</text>
</g>
<!-- No_986979432&#45;&gt;NUL_6 -->
<g id="edge14" class="edge">
<title>No_986979432&#45;&gt;NUL_6</title>
<path fill="none" stroke="black" d="M513.03,-80.07C515.94,-71.3 519.01,-62.02 521.82,-53.55"/>
<polygon fill="black" stroke="black" points="525.14,-54.65 524.97,-44.06 518.5,-52.45 525.14,-54.65"/>
</g>
<!-- NUL_8 -->
<g id="node18" class="node">
<title>NUL_8</title>
<polygon fill="none" stroke="black" points="734.95,-139.48 690.95,-139.48 690.95,-95.48 734.95,-95.48 734.95,-139.48"/>
<text text-anchor="middle" x="712.95" y="-113.78" font-family="Times,serif" font-size="14.00">null</text>
</g>
<!-- No_997285865&#45;&gt;NUL_8 -->
<g id="edge17" class="edge">
<title>No_997285865&#45;&gt;NUL_8</title>
<path fill="none" stroke="black" d="M714.28,-190.85C714.04,-177.52 713.76,-162.58 713.53,-149.75"/>
<polygon fill="black" stroke="black" points="717.02,-149.49 713.34,-139.55 710.02,-149.62 717.02,-149.49"/>
</g>
<!-- NUL_9 -->
<g id="node19" class="node">
<title>NUL_9</title>
<polygon fill="none" stroke="black" points="796.95,-139.48 752.95,-139.48 752.95,-95.48 796.95,-95.48 796.95,-139.48"/>
<text text-anchor="middle" x="774.95" y="-113.78" font-family="Times,serif" font-size="14.00">null</text>
</g>
<!-- No_997285865&#45;&gt;NUL_9 -->
<g id="edge18" class="edge">
<title>No_997285865&#45;&gt;NUL_9</title>
<path fill="none" stroke="black" d="M734.43,-192.06C742.16,-178.02 750.96,-162.05 758.38,-148.58"/>
<polygon fill="black" stroke="black" points="761.5,-150.16 763.26,-139.71 755.37,-146.78 761.5,-150.16"/>
</g>
</g>
</svg>
