<?xml version="1.0" encoding="UTF-8" standalone="no"?>
<!DOCTYPE svg PUBLIC "-//W3C//DTD SVG 1.1//EN"
 "http://www.w3.org/Graphics/SVG/1.1/DTD/svg11.dtd">
<!-- Generated by graphviz version 2.43.0 (0)
 -->
<!-- Title: BST Pages: 1 -->
<svg width="1394pt" height="396pt"
 viewBox="0.00 0.00 1393.52 395.58" xmlns="http://www.w3.org/2000/svg" xmlns:xlink="http://www.w3.org/1999/xlink">
<g id="graph0" class="graph" transform="scale(1 1) rotate(0) translate(4 391.58)">
<title>BST</title>
<polygon fill="white" stroke="transparent" points="-4,4 -4,-391.58 1389.52,-391.58 1389.52,4 -4,4"/>
<!-- Alexandre Silva,992966968 [fb:&#45;1] -->
<g id="node1" class="node">
<title>Alexandre Silva,992966968 [fb:&#45;1]</title>
<ellipse fill="none" stroke="black" cx="824.83" cy="-369.58" rx="169.77" ry="18"/>
<text text-anchor="middle" x="824.83" y="-365.88" font-family="Times,serif" font-size="14.00">Alexandre Silva,992966968 [fb:&#45;1]</text>
</g>
<!-- Alexandre Coelho,958161132 [fb:&#45;1] -->
<g id="node2" class="node">
<title>Alexandre Coelho,958161132 [fb:&#45;1]</title>
<ellipse fill="none" stroke="black" cx="630.83" cy="-297.58" rx="178.97" ry="18"/>
<text text-anchor="middle" x="630.83" y="-293.88" font-family="Times,serif" font-size="14.00">Alexandre Coelho,958161132 [fb:&#45;1]</text>
</g>
<!-- Alexandre Silva,992966968 [fb:&#45;1]&#45;&gt;Alexandre Coelho,958161132 [fb:&#45;1] -->
<g id="edge1" class="edge">
<title>Alexandre Silva,992966968 [fb:&#45;1]&#45;&gt;Alexandre Coelho,958161132 [fb:&#45;1]</title>
<path fill="none" stroke="black" d="M779.35,-352.17C751.48,-342.12 715.61,-329.18 686.11,-318.53"/>
<polygon fill="black" stroke="black" points="686.96,-315.12 676.37,-315.01 684.59,-321.7 686.96,-315.12"/>
</g>
<!-- Alexandre Rodrigues,995433080 [fb:1] -->
<g id="node11" class="node">
<title>Alexandre Rodrigues,995433080 [fb:1]</title>
<ellipse fill="none" stroke="black" cx="1018.83" cy="-297.58" rx="191.17" ry="18"/>
<text text-anchor="middle" x="1018.83" y="-293.88" font-family="Times,serif" font-size="14.00">Alexandre Rodrigues,995433080 [fb:1]</text>
</g>
<!-- Alexandre Silva,992966968 [fb:&#45;1]&#45;&gt;Alexandre Rodrigues,995433080 [fb:1] -->
<g id="edge10" class="edge">
<title>Alexandre Silva,992966968 [fb:&#45;1]&#45;&gt;Alexandre Rodrigues,995433080 [fb:1]</title>
<path fill="none" stroke="black" d="M870.32,-352.17C898.09,-342.15 933.8,-329.27 963.24,-318.65"/>
<polygon fill="black" stroke="black" points="964.74,-321.82 972.96,-315.14 962.37,-315.24 964.74,-321.82"/>
</g>
<!-- Alexandre Rodrigues,957023242 [fb:&#45;1] -->
<g id="node3" class="node">
<title>Alexandre Rodrigues,957023242 [fb:&#45;1]</title>
<ellipse fill="none" stroke="black" cx="284.83" cy="-214.99" rx="194.17" ry="18"/>
<text text-anchor="middle" x="284.83" y="-211.29" font-family="Times,serif" font-size="14.00">Alexandre Rodrigues,957023242 [fb:&#45;1]</text>
</g>
<!-- Alexandre Coelho,958161132 [fb:&#45;1]&#45;&gt;Alexandre Rodrigues,957023242 [fb:&#45;1] -->
<g id="edge2" class="edge">
<title>Alexandre Coelho,958161132 [fb:&#45;1]&#45;&gt;Alexandre Rodrigues,957023242 [fb:&#45;1]</title>
<path fill="none" stroke="black" d="M563.3,-280.85C505.83,-267.47 423.25,-248.23 362.94,-234.18"/>
<polygon fill="black" stroke="black" points="363.62,-230.75 353.08,-231.89 362.03,-237.56 363.62,-230.75"/>
</g>
<!-- Alexandre Santos,958538289 [fb:0] -->
<g id="node8" class="node">
<title>Alexandre Santos,958538289 [fb:0]</title>
<ellipse fill="none" stroke="black" cx="672.83" cy="-214.99" rx="175.47" ry="18"/>
<text text-anchor="middle" x="672.83" y="-211.29" font-family="Times,serif" font-size="14.00">Alexandre Santos,958538289 [fb:0]</text>
</g>
<!-- Alexandre Coelho,958161132 [fb:&#45;1]&#45;&gt;Alexandre Santos,958538289 [fb:0] -->
<g id="edge7" class="edge">
<title>Alexandre Coelho,958161132 [fb:&#45;1]&#45;&gt;Alexandre Santos,958538289 [fb:0]</title>
<path fill="none" stroke="black" d="M639.74,-279.49C645.42,-268.59 652.89,-254.26 659.3,-241.97"/>
<polygon fill="black" stroke="black" points="662.42,-243.54 663.94,-233.06 656.22,-240.31 662.42,-243.54"/>
</g>
<!-- Alexandre Barros,950500446 [fb:0] -->
<g id="node4" class="node">
<title>Alexandre Barros,950500446 [fb:0]</title>
<ellipse fill="none" stroke="black" cx="174.83" cy="-121.79" rx="174.67" ry="18"/>
<text text-anchor="middle" x="174.83" y="-118.09" font-family="Times,serif" font-size="14.00">Alexandre Barros,950500446 [fb:0]</text>
</g>
<!-- Alexandre Rodrigues,957023242 [fb:&#45;1]&#45;&gt;Alexandre Barros,950500446 [fb:0] -->
<g id="edge3" class="edge">
<title>Alexandre Rodrigues,957023242 [fb:&#45;1]&#45;&gt;Alexandre Barros,950500446 [fb:0]</title>
<path fill="none" stroke="black" d="M264.4,-197.05C247.22,-182.81 222.48,-162.29 203.35,-146.43"/>
<polygon fill="black" stroke="black" points="205.46,-143.64 195.53,-139.95 201,-149.03 205.46,-143.64"/>
</g>
<!-- N2 -->
<g id="node7" class="node">
<title>N2</title>
<ellipse fill="none" stroke="black" cx="395.83" cy="-121.79" rx="28.7" ry="28.7"/>
<text text-anchor="middle" x="395.83" y="-118.09" font-family="Times,serif" font-size="14.00">null</text>
</g>
<!-- Alexandre Rodrigues,957023242 [fb:&#45;1]&#45;&gt;N2 -->
<g id="edge6" class="edge">
<title>Alexandre Rodrigues,957023242 [fb:&#45;1]&#45;&gt;N2</title>
<path fill="none" stroke="black" d="M305.45,-197.05C322.57,-182.99 347.13,-162.81 366.33,-147.03"/>
<polygon fill="black" stroke="black" points="368.68,-149.63 374.19,-140.58 364.24,-144.22 368.68,-149.63"/>
</g>
<!-- N0 -->
<g id="node5" class="node">
<title>N0</title>
<ellipse fill="none" stroke="black" cx="137.83" cy="-28.6" rx="28.7" ry="28.7"/>
<text text-anchor="middle" x="137.83" y="-24.9" font-family="Times,serif" font-size="14.00">null</text>
</g>
<!-- Alexandre Barros,950500446 [fb:0]&#45;&gt;N0 -->
<g id="edge4" class="edge">
<title>Alexandre Barros,950500446 [fb:0]&#45;&gt;N0</title>
<path fill="none" stroke="black" d="M167.88,-103.64C163.43,-92.68 157.5,-78.07 152.08,-64.72"/>
<polygon fill="black" stroke="black" points="155.26,-63.25 148.26,-55.3 148.78,-65.88 155.26,-63.25"/>
</g>
<!-- N1 -->
<g id="node6" class="node">
<title>N1</title>
<ellipse fill="none" stroke="black" cx="212.83" cy="-28.6" rx="28.7" ry="28.7"/>
<text text-anchor="middle" x="212.83" y="-24.9" font-family="Times,serif" font-size="14.00">null</text>
</g>
<!-- Alexandre Barros,950500446 [fb:0]&#45;&gt;N1 -->
<g id="edge5" class="edge">
<title>Alexandre Barros,950500446 [fb:0]&#45;&gt;N1</title>
<path fill="none" stroke="black" d="M181.98,-103.64C186.55,-92.68 192.64,-78.07 198.2,-64.72"/>
<polygon fill="black" stroke="black" points="201.51,-65.87 202.13,-55.3 195.05,-63.18 201.51,-65.87"/>
</g>
<!-- N3 -->
<g id="node9" class="node">
<title>N3</title>
<ellipse fill="none" stroke="black" cx="634.83" cy="-121.79" rx="28.7" ry="28.7"/>
<text text-anchor="middle" x="634.83" y="-118.09" font-family="Times,serif" font-size="14.00">null</text>
</g>
<!-- Alexandre Santos,958538289 [fb:0]&#45;&gt;N3 -->
<g id="edge8" class="edge">
<title>Alexandre Santos,958538289 [fb:0]&#45;&gt;N3</title>
<path fill="none" stroke="black" d="M665.69,-196.83C661.12,-185.87 655.03,-171.26 649.47,-157.92"/>
<polygon fill="black" stroke="black" points="652.62,-156.38 645.54,-148.49 646.16,-159.07 652.62,-156.38"/>
</g>
<!-- N4 -->
<g id="node10" class="node">
<title>N4</title>
<ellipse fill="none" stroke="black" cx="709.83" cy="-121.79" rx="28.7" ry="28.7"/>
<text text-anchor="middle" x="709.83" y="-118.09" font-family="Times,serif" font-size="14.00">null</text>
</g>
<!-- Alexandre Santos,958538289 [fb:0]&#45;&gt;N4 -->
<g id="edge9" class="edge">
<title>Alexandre Santos,958538289 [fb:0]&#45;&gt;N4</title>
<path fill="none" stroke="black" d="M679.79,-196.83C684.24,-185.87 690.17,-171.26 695.58,-157.92"/>
<polygon fill="black" stroke="black" points="698.89,-159.07 699.41,-148.49 692.41,-156.44 698.89,-159.07"/>
</g>
<!-- N5 -->
<g id="node12" class="node">
<title>N5</title>
<ellipse fill="none" stroke="black" cx="977.83" cy="-214.99" rx="28.7" ry="28.7"/>
<text text-anchor="middle" x="977.83" y="-211.29" font-family="Times,serif" font-size="14.00">null</text>
</g>
<!-- Alexandre Rodrigues,995433080 [fb:1]&#45;&gt;N5 -->
<g id="edge11" class="edge">
<title>Alexandre Rodrigues,995433080 [fb:1]&#45;&gt;N5</title>
<path fill="none" stroke="black" d="M1010.14,-279.49C1005.75,-270.86 1000.26,-260.07 995.06,-249.85"/>
<polygon fill="black" stroke="black" points="998.06,-248.03 990.41,-240.7 991.82,-251.2 998.06,-248.03"/>
</g>
<!-- Alexandre Campos,999956560 [fb:0] -->
<g id="node13" class="node">
<title>Alexandre Campos,999956560 [fb:0]</title>
<ellipse fill="none" stroke="black" cx="1204.83" cy="-214.99" rx="180.87" ry="18"/>
<text text-anchor="middle" x="1204.83" y="-211.29" font-family="Times,serif" font-size="14.00">Alexandre Campos,999956560 [fb:0]</text>
</g>
<!-- Alexandre Rodrigues,995433080 [fb:1]&#45;&gt;Alexandre Campos,999956560 [fb:0] -->
<g id="edge12" class="edge">
<title>Alexandre Rodrigues,995433080 [fb:1]&#45;&gt;Alexandre Campos,999956560 [fb:0]</title>
<path fill="none" stroke="black" d="M1057.37,-279.88C1086.3,-267.35 1126.09,-250.11 1157.04,-236.7"/>
<polygon fill="black" stroke="black" points="1158.56,-239.85 1166.34,-232.67 1155.78,-233.43 1158.56,-239.85"/>
</g>
<!-- N6 -->
<g id="node14" class="node">
<title>N6</title>
<ellipse fill="none" stroke="black" cx="1166.83" cy="-121.79" rx="28.7" ry="28.7"/>
<text text-anchor="middle" x="1166.83" y="-118.09" font-family="Times,serif" font-size="14.00">null</text>
</g>
<!-- Alexandre Campos,999956560 [fb:0]&#45;&gt;N6 -->
<g id="edge13" class="edge">
<title>Alexandre Campos,999956560 [fb:0]&#45;&gt;N6</title>
<path fill="none" stroke="black" d="M1197.69,-196.83C1193.12,-185.87 1187.03,-171.26 1181.47,-157.92"/>
<polygon fill="black" stroke="black" points="1184.62,-156.38 1177.54,-148.49 1178.16,-159.07 1184.62,-156.38"/>
</g>
<!-- N7 -->
<g id="node15" class="node">
<title>N7</title>
<ellipse fill="none" stroke="black" cx="1241.83" cy="-121.79" rx="28.7" ry="28.7"/>
<text text-anchor="middle" x="1241.83" y="-118.09" font-family="Times,serif" font-size="14.00">null</text>
</g>
<!-- Alexandre Campos,999956560 [fb:0]&#45;&gt;N7 -->
<g id="edge14" class="edge">
<title>Alexandre Campos,999956560 [fb:0]&#45;&gt;N7</title>
<path fill="none" stroke="black" d="M1211.79,-196.83C1216.24,-185.87 1222.17,-171.26 1227.58,-157.92"/>
<polygon fill="black" stroke="black" points="1230.89,-159.07 1231.41,-148.49 1224.41,-156.44 1230.89,-159.07"/>
</g>
</g>
</svg>
