<?xml version="1.0" encoding="UTF-8" standalone="no"?>
<!DOCTYPE svg PUBLIC "-//W3C//DTD SVG 1.1//EN"
 "http://www.w3.org/Graphics/SVG/1.1/DTD/svg11.dtd">
<!-- Generated by graphviz version 2.43.0 (0)
 -->
<!-- Title: BST Pages: 1 -->
<svg width="914pt" height="188pt"
 viewBox="0.00 0.00 914.42 188.00" xmlns="http://www.w3.org/2000/svg" xmlns:xlink="http://www.w3.org/1999/xlink">
<g id="graph0" class="graph" transform="scale(1 1) rotate(0) translate(4 184)">
<title>BST</title>
<polygon fill="white" stroke="transparent" points="-4,4 -4,-184 910.42,-184 910.42,4 -4,4"/>
<!-- Igor Campos,986007137 [fb:1] -->
<g id="node1" class="node">
<title>Igor Campos,986007137 [fb:1]</title>
<ellipse fill="none" stroke="black" cx="593.94" cy="-162" rx="153.27" ry="18"/>
<text text-anchor="middle" x="593.94" y="-158.3" font-family="Times,serif" font-size="14.00">Igor Campos,986007137 [fb:1]</text>
</g>
<!-- Igor Barbosa,968604846 [fb:&#45;1] -->
<g id="node2" class="node">
<title>Igor Barbosa,968604846 [fb:&#45;1]</title>
<ellipse fill="none" stroke="black" cx="431.94" cy="-90" rx="157.07" ry="18"/>
<text text-anchor="middle" x="431.94" y="-86.3" font-family="Times,serif" font-size="14.00">Igor Barbosa,968604846 [fb:&#45;1]</text>
</g>
<!-- Igor Campos,986007137 [fb:1]&#45;&gt;Igor Barbosa,968604846 [fb:&#45;1] -->
<g id="edge1" class="edge">
<title>Igor Campos,986007137 [fb:1]&#45;&gt;Igor Barbosa,968604846 [fb:&#45;1]</title>
<path fill="none" stroke="black" d="M555.55,-144.41C532.75,-134.56 503.65,-121.99 479.42,-111.52"/>
<polygon fill="black" stroke="black" points="480.62,-108.22 470.05,-107.47 477.84,-114.65 480.62,-108.22"/>
</g>
<!-- Igor Freitas,988375084 [fb:0] -->
<g id="node5" class="node">
<title>Igor Freitas,988375084 [fb:0]</title>
<ellipse fill="none" stroke="black" cx="756.94" cy="-90" rx="149.47" ry="18"/>
<text text-anchor="middle" x="756.94" y="-86.3" font-family="Times,serif" font-size="14.00">Igor Freitas,988375084 [fb:0]</text>
</g>
<!-- Igor Campos,986007137 [fb:1]&#45;&gt;Igor Freitas,988375084 [fb:0] -->
<g id="edge4" class="edge">
<title>Igor Campos,986007137 [fb:1]&#45;&gt;Igor Freitas,988375084 [fb:0]</title>
<path fill="none" stroke="black" d="M632.57,-144.41C655.5,-134.56 684.78,-121.99 709.16,-111.52"/>
<polygon fill="black" stroke="black" points="710.78,-114.63 718.59,-107.47 708.02,-108.2 710.78,-114.63"/>
</g>
<!-- Igor Farias,955554654 [fb:1] -->
<g id="node3" class="node">
<title>Igor Farias,955554654 [fb:1]</title>
<ellipse fill="none" stroke="black" cx="144.94" cy="-18" rx="144.87" ry="18"/>
<text text-anchor="middle" x="144.94" y="-14.3" font-family="Times,serif" font-size="14.00">Igor Farias,955554654 [fb:1]</text>
</g>
<!-- Igor Barbosa,968604846 [fb:&#45;1]&#45;&gt;Igor Farias,955554654 [fb:1] -->
<g id="edge2" class="edge">
<title>Igor Barbosa,968604846 [fb:&#45;1]&#45;&gt;Igor Farias,955554654 [fb:1]</title>
<path fill="none" stroke="black" d="M368.24,-73.46C323.63,-62.58 263.92,-48.02 217.47,-36.69"/>
<polygon fill="black" stroke="black" points="218.01,-33.22 207.47,-34.25 216.35,-40.02 218.01,-33.22"/>
</g>
<!-- Igor Silva,981366478 [fb:0] -->
<g id="node4" class="node">
<title>Igor Silva,981366478 [fb:0]</title>
<ellipse fill="none" stroke="black" cx="446.94" cy="-18" rx="139.18" ry="18"/>
<text text-anchor="middle" x="446.94" y="-14.3" font-family="Times,serif" font-size="14.00">Igor Silva,981366478 [fb:0]</text>
</g>
<!-- Igor Barbosa,968604846 [fb:&#45;1]&#45;&gt;Igor Silva,981366478 [fb:0] -->
<g id="edge3" class="edge">
<title>Igor Barbosa,968604846 [fb:&#45;1]&#45;&gt;Igor Silva,981366478 [fb:0]</title>
<path fill="none" stroke="black" d="M435.65,-71.7C437.3,-63.98 439.28,-54.71 441.13,-46.11"/>
<polygon fill="black" stroke="black" points="444.6,-46.62 443.27,-36.1 437.75,-45.15 444.6,-46.62"/>
</g>
<!-- Igor Silva,990889114 [fb:0] -->
<g id="node6" class="node">
<title>Igor Silva,990889114 [fb:0]</title>
<ellipse fill="none" stroke="black" cx="756.94" cy="-18" rx="139.18" ry="18"/>
<text text-anchor="middle" x="756.94" y="-14.3" font-family="Times,serif" font-size="14.00">Igor Silva,990889114 [fb:0]</text>
</g>
<!-- Igor Freitas,988375084 [fb:0]&#45;&gt;Igor Silva,990889114 [fb:0] -->
<g id="edge5" class="edge">
<title>Igor Freitas,988375084 [fb:0]&#45;&gt;Igor Silva,990889114 [fb:0]</title>
<path fill="none" stroke="black" d="M756.94,-71.7C756.94,-63.98 756.94,-54.71 756.94,-46.11"/>
<polygon fill="black" stroke="black" points="760.44,-46.1 756.94,-36.1 753.44,-46.1 760.44,-46.1"/>
</g>
</g>
</svg>
