<?xml version="1.0" encoding="UTF-8" standalone="no"?>
<!DOCTYPE svg PUBLIC "-//W3C//DTD SVG 1.1//EN"
 "http://www.w3.org/Graphics/SVG/1.1/DTD/svg11.dtd">
<!-- Generated by graphviz version 2.43.0 (0)
 -->
<!-- Title: BST Pages: 1 -->
<svg width="3251pt" height="468pt"
 viewBox="0.00 0.00 3251.38 467.58" xmlns="http://www.w3.org/2000/svg" xmlns:xlink="http://www.w3.org/1999/xlink">
<g id="graph0" class="graph" transform="scale(1 1) rotate(0) translate(4 463.58)">
<title>BST</title>
<polygon fill="white" stroke="transparent" points="-4,4 -4,-463.58 3247.38,-463.58 3247.38,4 -4,4"/>
<!-- Piettro Martins,969904009 [fb:0] -->
<g id="node1" class="node">
<title>Piettro Martins,969904009 [fb:0]</title>
<ellipse fill="none" stroke="black" cx="1167.6" cy="-441.58" rx="165.97" ry="18"/>
<text text-anchor="middle" x="1167.6" y="-437.88" font-family="Times,serif" font-size="14.00">Piettro Martins,969904009 [fb:0]</text>
</g>
<!-- Piettro Souza,961216424 [fb:&#45;1] -->
<g id="node2" class="node">
<title>Piettro Souza,961216424 [fb:&#45;1]</title>
<ellipse fill="none" stroke="black" cx="952.6" cy="-369.58" rx="159.77" ry="18"/>
<text text-anchor="middle" x="952.6" y="-365.88" font-family="Times,serif" font-size="14.00">Piettro Souza,961216424 [fb:&#45;1]</text>
</g>
<!-- Piettro Martins,969904009 [fb:0]&#45;&gt;Piettro Souza,961216424 [fb:&#45;1] -->
<g id="edge1" class="edge">
<title>Piettro Martins,969904009 [fb:0]&#45;&gt;Piettro Souza,961216424 [fb:&#45;1]</title>
<path fill="none" stroke="black" d="M1117.73,-424.35C1086.12,-414.06 1045.06,-400.69 1011.8,-389.86"/>
<polygon fill="black" stroke="black" points="1012.79,-386.5 1002.19,-386.73 1010.62,-393.16 1012.79,-386.5"/>
</g>
<!-- Piettro Barbosa,974394289 [fb:0] -->
<g id="node17" class="node">
<title>Piettro Barbosa,974394289 [fb:0]</title>
<ellipse fill="none" stroke="black" cx="1511.6" cy="-369.58" rx="167.07" ry="18"/>
<text text-anchor="middle" x="1511.6" y="-365.88" font-family="Times,serif" font-size="14.00">Piettro Barbosa,974394289 [fb:0]</text>
</g>
<!-- Piettro Martins,969904009 [fb:0]&#45;&gt;Piettro Barbosa,974394289 [fb:0] -->
<g id="edge16" class="edge">
<title>Piettro Martins,969904009 [fb:0]&#45;&gt;Piettro Barbosa,974394289 [fb:0]</title>
<path fill="none" stroke="black" d="M1241.82,-425.48C1296.32,-414.39 1370.43,-399.31 1427.19,-387.76"/>
<polygon fill="black" stroke="black" points="1428.11,-391.14 1437.21,-385.72 1426.72,-384.29 1428.11,-391.14"/>
</g>
<!-- Piettro Machado,954392832 [fb:&#45;1] -->
<g id="node3" class="node">
<title>Piettro Machado,954392832 [fb:&#45;1]</title>
<ellipse fill="none" stroke="black" cx="566.6" cy="-297.58" rx="174.37" ry="18"/>
<text text-anchor="middle" x="566.6" y="-293.88" font-family="Times,serif" font-size="14.00">Piettro Machado,954392832 [fb:&#45;1]</text>
</g>
<!-- Piettro Souza,961216424 [fb:&#45;1]&#45;&gt;Piettro Machado,954392832 [fb:&#45;1] -->
<g id="edge2" class="edge">
<title>Piettro Souza,961216424 [fb:&#45;1]&#45;&gt;Piettro Machado,954392832 [fb:&#45;1]</title>
<path fill="none" stroke="black" d="M872.15,-354C810.07,-342.74 724.11,-327.15 659.17,-315.37"/>
<polygon fill="black" stroke="black" points="659.4,-311.86 648.94,-313.52 658.15,-318.75 659.4,-311.86"/>
</g>
<!-- Piettro Silva,961893049 [fb:1] -->
<g id="node12" class="node">
<title>Piettro Silva,961893049 [fb:1]</title>
<ellipse fill="none" stroke="black" cx="952.6" cy="-297.58" rx="152.17" ry="18"/>
<text text-anchor="middle" x="952.6" y="-293.88" font-family="Times,serif" font-size="14.00">Piettro Silva,961893049 [fb:1]</text>
</g>
<!-- Piettro Souza,961216424 [fb:&#45;1]&#45;&gt;Piettro Silva,961893049 [fb:1] -->
<g id="edge11" class="edge">
<title>Piettro Souza,961216424 [fb:&#45;1]&#45;&gt;Piettro Silva,961893049 [fb:1]</title>
<path fill="none" stroke="black" d="M952.6,-351.28C952.6,-343.57 952.6,-334.3 952.6,-325.7"/>
<polygon fill="black" stroke="black" points="956.1,-325.69 952.6,-315.69 949.1,-325.69 956.1,-325.69"/>
</g>
<!-- Piettro Freitas,950186297 [fb:1] -->
<g id="node4" class="node">
<title>Piettro Freitas,950186297 [fb:1]</title>
<ellipse fill="none" stroke="black" cx="205.6" cy="-214.99" rx="162.47" ry="18"/>
<text text-anchor="middle" x="205.6" y="-211.29" font-family="Times,serif" font-size="14.00">Piettro Freitas,950186297 [fb:1]</text>
</g>
<!-- Piettro Machado,954392832 [fb:&#45;1]&#45;&gt;Piettro Freitas,950186297 [fb:1] -->
<g id="edge3" class="edge">
<title>Piettro Machado,954392832 [fb:&#45;1]&#45;&gt;Piettro Freitas,950186297 [fb:1]</title>
<path fill="none" stroke="black" d="M496.99,-281.04C436.12,-267.45 347.77,-247.73 284.33,-233.57"/>
<polygon fill="black" stroke="black" points="284.9,-230.11 274.38,-231.34 283.37,-236.94 284.9,-230.11"/>
</g>
<!-- Pamella Rodrigues,955173015 [fb:0] -->
<g id="node9" class="node">
<title>Pamella Rodrigues,955173015 [fb:0]</title>
<ellipse fill="none" stroke="black" cx="566.6" cy="-214.99" rx="180.87" ry="18"/>
<text text-anchor="middle" x="566.6" y="-211.29" font-family="Times,serif" font-size="14.00">Pamella Rodrigues,955173015 [fb:0]</text>
</g>
<!-- Piettro Machado,954392832 [fb:&#45;1]&#45;&gt;Pamella Rodrigues,955173015 [fb:0] -->
<g id="edge8" class="edge">
<title>Piettro Machado,954392832 [fb:&#45;1]&#45;&gt;Pamella Rodrigues,955173015 [fb:0]</title>
<path fill="none" stroke="black" d="M566.6,-279.49C566.6,-268.91 566.6,-255.1 566.6,-243.06"/>
<polygon fill="black" stroke="black" points="570.1,-243.06 566.6,-233.06 563.1,-243.06 570.1,-243.06"/>
</g>
<!-- N0 -->
<g id="node5" class="node">
<title>N0</title>
<ellipse fill="none" stroke="black" cx="28.6" cy="-121.79" rx="28.7" ry="28.7"/>
<text text-anchor="middle" x="28.6" y="-118.09" font-family="Times,serif" font-size="14.00">null</text>
</g>
<!-- Piettro Freitas,950186297 [fb:1]&#45;&gt;N0 -->
<g id="edge4" class="edge">
<title>Piettro Freitas,950186297 [fb:1]&#45;&gt;N0</title>
<path fill="none" stroke="black" d="M164.07,-197.55C135.87,-185.77 98.11,-168.79 66.6,-150.39 64.32,-149.06 62.01,-147.62 59.71,-146.13"/>
<polygon fill="black" stroke="black" points="61.24,-142.94 51.01,-140.19 57.29,-148.72 61.24,-142.94"/>
</g>
<!-- Pamella Pereira,950703803 [fb:0] -->
<g id="node6" class="node">
<title>Pamella Pereira,950703803 [fb:0]</title>
<ellipse fill="none" stroke="black" cx="242.6" cy="-121.79" rx="167.07" ry="18"/>
<text text-anchor="middle" x="242.6" y="-118.09" font-family="Times,serif" font-size="14.00">Pamella Pereira,950703803 [fb:0]</text>
</g>
<!-- Piettro Freitas,950186297 [fb:1]&#45;&gt;Pamella Pereira,950703803 [fb:0] -->
<g id="edge5" class="edge">
<title>Piettro Freitas,950186297 [fb:1]&#45;&gt;Pamella Pereira,950703803 [fb:0]</title>
<path fill="none" stroke="black" d="M212.56,-196.83C217.98,-183.46 225.62,-164.65 231.83,-149.33"/>
<polygon fill="black" stroke="black" points="235.15,-150.45 235.67,-139.87 228.67,-147.82 235.15,-150.45"/>
</g>
<!-- N1 -->
<g id="node7" class="node">
<title>N1</title>
<ellipse fill="none" stroke="black" cx="205.6" cy="-28.6" rx="28.7" ry="28.7"/>
<text text-anchor="middle" x="205.6" y="-24.9" font-family="Times,serif" font-size="14.00">null</text>
</g>
<!-- Pamella Pereira,950703803 [fb:0]&#45;&gt;N1 -->
<g id="edge6" class="edge">
<title>Pamella Pereira,950703803 [fb:0]&#45;&gt;N1</title>
<path fill="none" stroke="black" d="M235.64,-103.64C231.19,-92.68 225.26,-78.07 219.85,-64.72"/>
<polygon fill="black" stroke="black" points="223.03,-63.25 216.02,-55.3 216.54,-65.88 223.03,-63.25"/>
</g>
<!-- N2 -->
<g id="node8" class="node">
<title>N2</title>
<ellipse fill="none" stroke="black" cx="280.6" cy="-28.6" rx="28.7" ry="28.7"/>
<text text-anchor="middle" x="280.6" y="-24.9" font-family="Times,serif" font-size="14.00">null</text>
</g>
<!-- Pamella Pereira,950703803 [fb:0]&#45;&gt;N2 -->
<g id="edge7" class="edge">
<title>Pamella Pereira,950703803 [fb:0]&#45;&gt;N2</title>
<path fill="none" stroke="black" d="M249.74,-103.64C254.31,-92.68 260.4,-78.07 265.96,-64.72"/>
<polygon fill="black" stroke="black" points="269.27,-65.87 269.89,-55.3 262.81,-63.18 269.27,-65.87"/>
</g>
<!-- N3 -->
<g id="node10" class="node">
<title>N3</title>
<ellipse fill="none" stroke="black" cx="529.6" cy="-121.79" rx="28.7" ry="28.7"/>
<text text-anchor="middle" x="529.6" y="-118.09" font-family="Times,serif" font-size="14.00">null</text>
</g>
<!-- Pamella Rodrigues,955173015 [fb:0]&#45;&gt;N3 -->
<g id="edge9" class="edge">
<title>Pamella Rodrigues,955173015 [fb:0]&#45;&gt;N3</title>
<path fill="none" stroke="black" d="M559.64,-196.83C555.19,-185.87 549.26,-171.26 543.85,-157.92"/>
<polygon fill="black" stroke="black" points="547.03,-156.44 540.02,-148.49 540.54,-159.07 547.03,-156.44"/>
</g>
<!-- N4 -->
<g id="node11" class="node">
<title>N4</title>
<ellipse fill="none" stroke="black" cx="604.6" cy="-121.79" rx="28.7" ry="28.7"/>
<text text-anchor="middle" x="604.6" y="-118.09" font-family="Times,serif" font-size="14.00">null</text>
</g>
<!-- Pamella Rodrigues,955173015 [fb:0]&#45;&gt;N4 -->
<g id="edge10" class="edge">
<title>Pamella Rodrigues,955173015 [fb:0]&#45;&gt;N4</title>
<path fill="none" stroke="black" d="M573.74,-196.83C578.31,-185.87 584.4,-171.26 589.96,-157.92"/>
<polygon fill="black" stroke="black" points="593.27,-159.07 593.89,-148.49 586.81,-156.38 593.27,-159.07"/>
</g>
<!-- N5 -->
<g id="node13" class="node">
<title>N5</title>
<ellipse fill="none" stroke="black" cx="793.6" cy="-214.99" rx="28.7" ry="28.7"/>
<text text-anchor="middle" x="793.6" y="-211.29" font-family="Times,serif" font-size="14.00">null</text>
</g>
<!-- Piettro Silva,961893049 [fb:1]&#45;&gt;N5 -->
<g id="edge12" class="edge">
<title>Piettro Silva,961893049 [fb:1]&#45;&gt;N5</title>
<path fill="none" stroke="black" d="M909.23,-280.24C885.66,-270.71 856.37,-257.78 831.6,-243.58 829.31,-242.27 826.99,-240.85 824.69,-239.37"/>
<polygon fill="black" stroke="black" points="826.21,-236.17 815.97,-233.45 822.28,-241.96 826.21,-236.17"/>
</g>
<!-- Pamella Souza,969300271 [fb:0] -->
<g id="node14" class="node">
<title>Pamella Souza,969300271 [fb:0]</title>
<ellipse fill="none" stroke="black" cx="1001.6" cy="-214.99" rx="161.37" ry="18"/>
<text text-anchor="middle" x="1001.6" y="-211.29" font-family="Times,serif" font-size="14.00">Pamella Souza,969300271 [fb:0]</text>
</g>
<!-- Piettro Silva,961893049 [fb:1]&#45;&gt;Pamella Souza,969300271 [fb:0] -->
<g id="edge13" class="edge">
<title>Piettro Silva,961893049 [fb:1]&#45;&gt;Pamella Souza,969300271 [fb:0]</title>
<path fill="none" stroke="black" d="M962.99,-279.49C969.68,-268.49 978.5,-253.98 986.02,-241.61"/>
<polygon fill="black" stroke="black" points="989.02,-243.42 991.22,-233.06 983.04,-239.78 989.02,-243.42"/>
</g>
<!-- N6 -->
<g id="node15" class="node">
<title>N6</title>
<ellipse fill="none" stroke="black" cx="963.6" cy="-121.79" rx="28.7" ry="28.7"/>
<text text-anchor="middle" x="963.6" y="-118.09" font-family="Times,serif" font-size="14.00">null</text>
</g>
<!-- Pamella Souza,969300271 [fb:0]&#45;&gt;N6 -->
<g id="edge14" class="edge">
<title>Pamella Souza,969300271 [fb:0]&#45;&gt;N6</title>
<path fill="none" stroke="black" d="M994.45,-196.83C989.88,-185.87 983.79,-171.26 978.23,-157.92"/>
<polygon fill="black" stroke="black" points="981.38,-156.38 974.31,-148.49 974.92,-159.07 981.38,-156.38"/>
</g>
<!-- N7 -->
<g id="node16" class="node">
<title>N7</title>
<ellipse fill="none" stroke="black" cx="1038.6" cy="-121.79" rx="28.7" ry="28.7"/>
<text text-anchor="middle" x="1038.6" y="-118.09" font-family="Times,serif" font-size="14.00">null</text>
</g>
<!-- Pamella Souza,969300271 [fb:0]&#45;&gt;N7 -->
<g id="edge15" class="edge">
<title>Pamella Souza,969300271 [fb:0]&#45;&gt;N7</title>
<path fill="none" stroke="black" d="M1008.56,-196.83C1013,-185.87 1018.93,-171.26 1024.35,-157.92"/>
<polygon fill="black" stroke="black" points="1027.65,-159.07 1028.17,-148.49 1021.17,-156.44 1027.65,-159.07"/>
</g>
<!-- Pamella Barbosa,973123310 [fb:1] -->
<g id="node18" class="node">
<title>Pamella Barbosa,973123310 [fb:1]</title>
<ellipse fill="none" stroke="black" cx="1511.6" cy="-297.58" rx="171.67" ry="18"/>
<text text-anchor="middle" x="1511.6" y="-293.88" font-family="Times,serif" font-size="14.00">Pamella Barbosa,973123310 [fb:1]</text>
</g>
<!-- Piettro Barbosa,974394289 [fb:0]&#45;&gt;Pamella Barbosa,973123310 [fb:1] -->
<g id="edge17" class="edge">
<title>Piettro Barbosa,974394289 [fb:0]&#45;&gt;Pamella Barbosa,973123310 [fb:1]</title>
<path fill="none" stroke="black" d="M1511.6,-351.28C1511.6,-343.57 1511.6,-334.3 1511.6,-325.7"/>
<polygon fill="black" stroke="black" points="1515.1,-325.69 1511.6,-315.69 1508.1,-325.69 1515.1,-325.69"/>
</g>
<!-- Piettro Freitas,984763663 [fb:0] -->
<g id="node27" class="node">
<title>Piettro Freitas,984763663 [fb:0]</title>
<ellipse fill="none" stroke="black" cx="2207.6" cy="-297.58" rx="162.47" ry="18"/>
<text text-anchor="middle" x="2207.6" y="-293.88" font-family="Times,serif" font-size="14.00">Piettro Freitas,984763663 [fb:0]</text>
</g>
<!-- Piettro Barbosa,974394289 [fb:0]&#45;&gt;Piettro Freitas,984763663 [fb:0] -->
<g id="edge26" class="edge">
<title>Piettro Barbosa,974394289 [fb:0]&#45;&gt;Piettro Freitas,984763663 [fb:0]</title>
<path fill="none" stroke="black" d="M1629.27,-356.75C1754.76,-344.13 1952.77,-324.21 2081.42,-311.28"/>
<polygon fill="black" stroke="black" points="2082.12,-314.72 2091.72,-310.24 2081.42,-307.76 2082.12,-314.72"/>
</g>
<!-- Pamella Costa,972607915 [fb:0] -->
<g id="node19" class="node">
<title>Pamella Costa,972607915 [fb:0]</title>
<ellipse fill="none" stroke="black" cx="1340.6" cy="-214.99" rx="159.77" ry="18"/>
<text text-anchor="middle" x="1340.6" y="-211.29" font-family="Times,serif" font-size="14.00">Pamella Costa,972607915 [fb:0]</text>
</g>
<!-- Pamella Barbosa,973123310 [fb:1]&#45;&gt;Pamella Costa,972607915 [fb:0] -->
<g id="edge18" class="edge">
<title>Pamella Barbosa,973123310 [fb:1]&#45;&gt;Pamella Costa,972607915 [fb:0]</title>
<path fill="none" stroke="black" d="M1476.17,-279.88C1449.8,-267.46 1413.62,-250.41 1385.27,-237.04"/>
<polygon fill="black" stroke="black" points="1386.52,-233.76 1375.98,-232.67 1383.54,-240.1 1386.52,-233.76"/>
</g>
<!-- Pamella Santos,973283585 [fb:1] -->
<g id="node22" class="node">
<title>Pamella Santos,973283585 [fb:1]</title>
<ellipse fill="none" stroke="black" cx="1683.6" cy="-214.99" rx="165.17" ry="18"/>
<text text-anchor="middle" x="1683.6" y="-211.29" font-family="Times,serif" font-size="14.00">Pamella Santos,973283585 [fb:1]</text>
</g>
<!-- Pamella Barbosa,973123310 [fb:1]&#45;&gt;Pamella Santos,973283585 [fb:1] -->
<g id="edge21" class="edge">
<title>Pamella Barbosa,973123310 [fb:1]&#45;&gt;Pamella Santos,973283585 [fb:1]</title>
<path fill="none" stroke="black" d="M1547.24,-279.88C1573.76,-267.46 1610.14,-250.41 1638.66,-237.04"/>
<polygon fill="black" stroke="black" points="1640.43,-240.08 1648,-232.67 1637.46,-233.74 1640.43,-240.08"/>
</g>
<!-- N8 -->
<g id="node20" class="node">
<title>N8</title>
<ellipse fill="none" stroke="black" cx="1296.6" cy="-121.79" rx="28.7" ry="28.7"/>
<text text-anchor="middle" x="1296.6" y="-118.09" font-family="Times,serif" font-size="14.00">null</text>
</g>
<!-- Pamella Costa,972607915 [fb:0]&#45;&gt;N8 -->
<g id="edge19" class="edge">
<title>Pamella Costa,972607915 [fb:0]&#45;&gt;N8</title>
<path fill="none" stroke="black" d="M1332.32,-196.83C1326.9,-185.6 1319.63,-170.53 1313.06,-156.92"/>
<polygon fill="black" stroke="black" points="1316.16,-155.28 1308.66,-147.79 1309.85,-158.32 1316.16,-155.28"/>
</g>
<!-- N9 -->
<g id="node21" class="node">
<title>N9</title>
<ellipse fill="none" stroke="black" cx="1371.6" cy="-121.79" rx="28.7" ry="28.7"/>
<text text-anchor="middle" x="1371.6" y="-118.09" font-family="Times,serif" font-size="14.00">null</text>
</g>
<!-- Pamella Costa,972607915 [fb:0]&#45;&gt;N9 -->
<g id="edge20" class="edge">
<title>Pamella Costa,972607915 [fb:0]&#45;&gt;N9</title>
<path fill="none" stroke="black" d="M1346.43,-196.83C1350.06,-186.14 1354.88,-171.98 1359.32,-158.91"/>
<polygon fill="black" stroke="black" points="1362.72,-159.79 1362.62,-149.2 1356.09,-157.54 1362.72,-159.79"/>
</g>
<!-- N10 -->
<g id="node23" class="node">
<title>N10</title>
<ellipse fill="none" stroke="black" cx="1477.6" cy="-121.79" rx="28.7" ry="28.7"/>
<text text-anchor="middle" x="1477.6" y="-118.09" font-family="Times,serif" font-size="14.00">null</text>
</g>
<!-- Pamella Santos,973283585 [fb:1]&#45;&gt;N10 -->
<g id="edge22" class="edge">
<title>Pamella Santos,973283585 [fb:1]&#45;&gt;N10</title>
<path fill="none" stroke="black" d="M1630.18,-197.82C1596.35,-186.61 1552.23,-170.17 1515.6,-150.39 1513.27,-149.14 1510.93,-147.76 1508.61,-146.31"/>
<polygon fill="black" stroke="black" points="1510.12,-143.1 1499.86,-140.46 1506.23,-148.92 1510.12,-143.1"/>
</g>
<!-- Piettro Torres,973888400 [fb:0] -->
<g id="node24" class="node">
<title>Piettro Torres,973888400 [fb:0]</title>
<ellipse fill="none" stroke="black" cx="1683.6" cy="-121.79" rx="159.47" ry="18"/>
<text text-anchor="middle" x="1683.6" y="-118.09" font-family="Times,serif" font-size="14.00">Piettro Torres,973888400 [fb:0]</text>
</g>
<!-- Pamella Santos,973283585 [fb:1]&#45;&gt;Piettro Torres,973888400 [fb:0] -->
<g id="edge23" class="edge">
<title>Pamella Santos,973283585 [fb:1]&#45;&gt;Piettro Torres,973888400 [fb:0]</title>
<path fill="none" stroke="black" d="M1683.6,-196.83C1683.6,-183.71 1683.6,-165.36 1683.6,-150.21"/>
<polygon fill="black" stroke="black" points="1687.1,-149.87 1683.6,-139.87 1680.1,-149.87 1687.1,-149.87"/>
</g>
<!-- N11 -->
<g id="node25" class="node">
<title>N11</title>
<ellipse fill="none" stroke="black" cx="1645.6" cy="-28.6" rx="28.7" ry="28.7"/>
<text text-anchor="middle" x="1645.6" y="-24.9" font-family="Times,serif" font-size="14.00">null</text>
</g>
<!-- Piettro Torres,973888400 [fb:0]&#45;&gt;N11 -->
<g id="edge24" class="edge">
<title>Piettro Torres,973888400 [fb:0]&#45;&gt;N11</title>
<path fill="none" stroke="black" d="M1676.45,-103.64C1671.88,-92.68 1665.79,-78.07 1660.23,-64.72"/>
<polygon fill="black" stroke="black" points="1663.38,-63.18 1656.31,-55.3 1656.92,-65.87 1663.38,-63.18"/>
</g>
<!-- N12 -->
<g id="node26" class="node">
<title>N12</title>
<ellipse fill="none" stroke="black" cx="1720.6" cy="-28.6" rx="28.7" ry="28.7"/>
<text text-anchor="middle" x="1720.6" y="-24.9" font-family="Times,serif" font-size="14.00">null</text>
</g>
<!-- Piettro Torres,973888400 [fb:0]&#45;&gt;N12 -->
<g id="edge25" class="edge">
<title>Piettro Torres,973888400 [fb:0]&#45;&gt;N12</title>
<path fill="none" stroke="black" d="M1690.56,-103.64C1695,-92.68 1700.93,-78.07 1706.35,-64.72"/>
<polygon fill="black" stroke="black" points="1709.65,-65.88 1710.17,-55.3 1703.17,-63.25 1709.65,-65.88"/>
</g>
<!-- Piettro Freitas,977907210 [fb:0] -->
<g id="node28" class="node">
<title>Piettro Freitas,977907210 [fb:0]</title>
<ellipse fill="none" stroke="black" cx="2207.6" cy="-214.99" rx="162.47" ry="18"/>
<text text-anchor="middle" x="2207.6" y="-211.29" font-family="Times,serif" font-size="14.00">Piettro Freitas,977907210 [fb:0]</text>
</g>
<!-- Piettro Freitas,984763663 [fb:0]&#45;&gt;Piettro Freitas,977907210 [fb:0] -->
<g id="edge27" class="edge">
<title>Piettro Freitas,984763663 [fb:0]&#45;&gt;Piettro Freitas,977907210 [fb:0]</title>
<path fill="none" stroke="black" d="M2207.6,-279.49C2207.6,-268.91 2207.6,-255.1 2207.6,-243.06"/>
<polygon fill="black" stroke="black" points="2211.1,-243.06 2207.6,-233.06 2204.1,-243.06 2211.1,-243.06"/>
</g>
<!-- Piettro Souza,990452401 [fb:0] -->
<g id="node35" class="node">
<title>Piettro Souza,990452401 [fb:0]</title>
<ellipse fill="none" stroke="black" cx="2731.6" cy="-214.99" rx="157.07" ry="18"/>
<text text-anchor="middle" x="2731.6" y="-211.29" font-family="Times,serif" font-size="14.00">Piettro Souza,990452401 [fb:0]</text>
</g>
<!-- Piettro Freitas,984763663 [fb:0]&#45;&gt;Piettro Souza,990452401 [fb:0] -->
<g id="edge34" class="edge">
<title>Piettro Freitas,984763663 [fb:0]&#45;&gt;Piettro Souza,990452401 [fb:0]</title>
<path fill="none" stroke="black" d="M2298.27,-282.64C2391.21,-268.34 2535.36,-246.17 2631.56,-231.37"/>
<polygon fill="black" stroke="black" points="2632.24,-234.81 2641.59,-229.83 2631.18,-227.89 2632.24,-234.81"/>
</g>
<!-- Pamella Martins,975274044 [fb:0] -->
<g id="node29" class="node">
<title>Pamella Martins,975274044 [fb:0]</title>
<ellipse fill="none" stroke="black" cx="2031.6" cy="-121.79" rx="170.07" ry="18"/>
<text text-anchor="middle" x="2031.6" y="-118.09" font-family="Times,serif" font-size="14.00">Pamella Martins,975274044 [fb:0]</text>
</g>
<!-- Piettro Freitas,977907210 [fb:0]&#45;&gt;Pamella Martins,975274044 [fb:0] -->
<g id="edge28" class="edge">
<title>Piettro Freitas,977907210 [fb:0]&#45;&gt;Pamella Martins,975274044 [fb:0]</title>
<path fill="none" stroke="black" d="M2175.32,-197.26C2146.5,-182.33 2104.15,-160.39 2072.88,-144.19"/>
<polygon fill="black" stroke="black" points="2074.46,-141.06 2063.97,-139.57 2071.24,-147.28 2074.46,-141.06"/>
</g>
<!-- Pamella Moura,982357887 [fb:0] -->
<g id="node32" class="node">
<title>Pamella Moura,982357887 [fb:0]</title>
<ellipse fill="none" stroke="black" cx="2383.6" cy="-121.79" rx="163.57" ry="18"/>
<text text-anchor="middle" x="2383.6" y="-118.09" font-family="Times,serif" font-size="14.00">Pamella Moura,982357887 [fb:0]</text>
</g>
<!-- Piettro Freitas,977907210 [fb:0]&#45;&gt;Pamella Moura,982357887 [fb:0] -->
<g id="edge31" class="edge">
<title>Piettro Freitas,977907210 [fb:0]&#45;&gt;Pamella Moura,982357887 [fb:0]</title>
<path fill="none" stroke="black" d="M2239.88,-197.26C2268.69,-182.33 2311.04,-160.39 2342.31,-144.19"/>
<polygon fill="black" stroke="black" points="2343.95,-147.28 2351.22,-139.57 2340.73,-141.06 2343.95,-147.28"/>
</g>
<!-- N13 -->
<g id="node30" class="node">
<title>N13</title>
<ellipse fill="none" stroke="black" cx="1993.6" cy="-28.6" rx="28.7" ry="28.7"/>
<text text-anchor="middle" x="1993.6" y="-24.9" font-family="Times,serif" font-size="14.00">null</text>
</g>
<!-- Pamella Martins,975274044 [fb:0]&#45;&gt;N13 -->
<g id="edge29" class="edge">
<title>Pamella Martins,975274044 [fb:0]&#45;&gt;N13</title>
<path fill="none" stroke="black" d="M2024.45,-103.64C2019.88,-92.68 2013.79,-78.07 2008.23,-64.72"/>
<polygon fill="black" stroke="black" points="2011.38,-63.18 2004.31,-55.3 2004.92,-65.87 2011.38,-63.18"/>
</g>
<!-- N14 -->
<g id="node31" class="node">
<title>N14</title>
<ellipse fill="none" stroke="black" cx="2068.6" cy="-28.6" rx="28.7" ry="28.7"/>
<text text-anchor="middle" x="2068.6" y="-24.9" font-family="Times,serif" font-size="14.00">null</text>
</g>
<!-- Pamella Martins,975274044 [fb:0]&#45;&gt;N14 -->
<g id="edge30" class="edge">
<title>Pamella Martins,975274044 [fb:0]&#45;&gt;N14</title>
<path fill="none" stroke="black" d="M2038.56,-103.64C2043,-92.68 2048.93,-78.07 2054.35,-64.72"/>
<polygon fill="black" stroke="black" points="2057.65,-65.88 2058.17,-55.3 2051.17,-63.25 2057.65,-65.88"/>
</g>
<!-- N15 -->
<g id="node33" class="node">
<title>N15</title>
<ellipse fill="none" stroke="black" cx="2345.6" cy="-28.6" rx="28.7" ry="28.7"/>
<text text-anchor="middle" x="2345.6" y="-24.9" font-family="Times,serif" font-size="14.00">null</text>
</g>
<!-- Pamella Moura,982357887 [fb:0]&#45;&gt;N15 -->
<g id="edge32" class="edge">
<title>Pamella Moura,982357887 [fb:0]&#45;&gt;N15</title>
<path fill="none" stroke="black" d="M2376.45,-103.64C2371.88,-92.68 2365.79,-78.07 2360.23,-64.72"/>
<polygon fill="black" stroke="black" points="2363.38,-63.18 2356.31,-55.3 2356.92,-65.87 2363.38,-63.18"/>
</g>
<!-- N16 -->
<g id="node34" class="node">
<title>N16</title>
<ellipse fill="none" stroke="black" cx="2420.6" cy="-28.6" rx="28.7" ry="28.7"/>
<text text-anchor="middle" x="2420.6" y="-24.9" font-family="Times,serif" font-size="14.00">null</text>
</g>
<!-- Pamella Moura,982357887 [fb:0]&#45;&gt;N16 -->
<g id="edge33" class="edge">
<title>Pamella Moura,982357887 [fb:0]&#45;&gt;N16</title>
<path fill="none" stroke="black" d="M2390.56,-103.64C2395,-92.68 2400.93,-78.07 2406.35,-64.72"/>
<polygon fill="black" stroke="black" points="2409.65,-65.88 2410.17,-55.3 2403.17,-63.25 2409.65,-65.88"/>
</g>
<!-- Piettro Martins,990058019 [fb:0] -->
<g id="node36" class="node">
<title>Piettro Martins,990058019 [fb:0]</title>
<ellipse fill="none" stroke="black" cx="2731.6" cy="-121.79" rx="165.97" ry="18"/>
<text text-anchor="middle" x="2731.6" y="-118.09" font-family="Times,serif" font-size="14.00">Piettro Martins,990058019 [fb:0]</text>
</g>
<!-- Piettro Souza,990452401 [fb:0]&#45;&gt;Piettro Martins,990058019 [fb:0] -->
<g id="edge35" class="edge">
<title>Piettro Souza,990452401 [fb:0]&#45;&gt;Piettro Martins,990058019 [fb:0]</title>
<path fill="none" stroke="black" d="M2731.6,-196.83C2731.6,-183.71 2731.6,-165.36 2731.6,-150.21"/>
<polygon fill="black" stroke="black" points="2735.1,-149.87 2731.6,-139.87 2728.1,-149.87 2735.1,-149.87"/>
</g>
<!-- Pamella Moura,995006078 [fb:0] -->
<g id="node39" class="node">
<title>Pamella Moura,995006078 [fb:0]</title>
<ellipse fill="none" stroke="black" cx="3079.6" cy="-121.79" rx="163.57" ry="18"/>
<text text-anchor="middle" x="3079.6" y="-118.09" font-family="Times,serif" font-size="14.00">Pamella Moura,995006078 [fb:0]</text>
</g>
<!-- Piettro Souza,990452401 [fb:0]&#45;&gt;Pamella Moura,995006078 [fb:0] -->
<g id="edge38" class="edge">
<title>Piettro Souza,990452401 [fb:0]&#45;&gt;Pamella Moura,995006078 [fb:0]</title>
<path fill="none" stroke="black" d="M2791.42,-198.31C2851.93,-182.45 2945.41,-157.96 3009.38,-141.19"/>
<polygon fill="black" stroke="black" points="3010.6,-144.49 3019.39,-138.57 3008.83,-137.72 3010.6,-144.49"/>
</g>
<!-- N17 -->
<g id="node37" class="node">
<title>N17</title>
<ellipse fill="none" stroke="black" cx="2693.6" cy="-28.6" rx="28.7" ry="28.7"/>
<text text-anchor="middle" x="2693.6" y="-24.9" font-family="Times,serif" font-size="14.00">null</text>
</g>
<!-- Piettro Martins,990058019 [fb:0]&#45;&gt;N17 -->
<g id="edge36" class="edge">
<title>Piettro Martins,990058019 [fb:0]&#45;&gt;N17</title>
<path fill="none" stroke="black" d="M2724.45,-103.64C2719.88,-92.68 2713.79,-78.07 2708.23,-64.72"/>
<polygon fill="black" stroke="black" points="2711.38,-63.18 2704.31,-55.3 2704.92,-65.87 2711.38,-63.18"/>
</g>
<!-- N18 -->
<g id="node38" class="node">
<title>N18</title>
<ellipse fill="none" stroke="black" cx="2768.6" cy="-28.6" rx="28.7" ry="28.7"/>
<text text-anchor="middle" x="2768.6" y="-24.9" font-family="Times,serif" font-size="14.00">null</text>
</g>
<!-- Piettro Martins,990058019 [fb:0]&#45;&gt;N18 -->
<g id="edge37" class="edge">
<title>Piettro Martins,990058019 [fb:0]&#45;&gt;N18</title>
<path fill="none" stroke="black" d="M2738.56,-103.64C2743,-92.68 2748.93,-78.07 2754.35,-64.72"/>
<polygon fill="black" stroke="black" points="2757.65,-65.88 2758.17,-55.3 2751.17,-63.25 2757.65,-65.88"/>
</g>
<!-- N19 -->
<g id="node40" class="node">
<title>N19</title>
<ellipse fill="none" stroke="black" cx="3041.6" cy="-28.6" rx="28.7" ry="28.7"/>
<text text-anchor="middle" x="3041.6" y="-24.9" font-family="Times,serif" font-size="14.00">null</text>
</g>
<!-- Pamella Moura,995006078 [fb:0]&#45;&gt;N19 -->
<g id="edge39" class="edge">
<title>Pamella Moura,995006078 [fb:0]&#45;&gt;N19</title>
<path fill="none" stroke="black" d="M3072.45,-103.64C3067.88,-92.68 3061.79,-78.07 3056.23,-64.72"/>
<polygon fill="black" stroke="black" points="3059.38,-63.18 3052.31,-55.3 3052.92,-65.87 3059.38,-63.18"/>
</g>
<!-- N20 -->
<g id="node41" class="node">
<title>N20</title>
<ellipse fill="none" stroke="black" cx="3116.6" cy="-28.6" rx="28.7" ry="28.7"/>
<text text-anchor="middle" x="3116.6" y="-24.9" font-family="Times,serif" font-size="14.00">null</text>
</g>
<!-- Pamella Moura,995006078 [fb:0]&#45;&gt;N20 -->
<g id="edge40" class="edge">
<title>Pamella Moura,995006078 [fb:0]&#45;&gt;N20</title>
<path fill="none" stroke="black" d="M3086.56,-103.64C3091,-92.68 3096.93,-78.07 3102.35,-64.72"/>
<polygon fill="black" stroke="black" points="3105.65,-65.88 3106.17,-55.3 3099.17,-63.25 3105.65,-65.88"/>
</g>
</g>
</svg>
