<?xml version="1.0" encoding="UTF-8" standalone="no"?>
<!DOCTYPE svg PUBLIC "-//W3C//DTD SVG 1.1//EN"
 "http://www.w3.org/Graphics/SVG/1.1/DTD/svg11.dtd">
<!-- Generated by graphviz version 2.43.0 (0)
 -->
<!-- Title: BST Pages: 1 -->
<svg width="810pt" height="496pt"
 viewBox="0.00 0.00 809.91 495.81" xmlns="http://www.w3.org/2000/svg" xmlns:xlink="http://www.w3.org/1999/xlink">
<g id="graph0" class="graph" transform="scale(1 1) rotate(0) translate(4 491.81)">
<title>BST</title>
<polygon fill="white" stroke="transparent" points="-4,4 -4,-491.81 805.91,-491.81 805.91,4 -4,4"/>
<!-- No_987671978 -->
<g id="node1" class="node">
<title>No_987671978</title>
<ellipse fill="none" stroke="black" cx="526.95" cy="-450.34" rx="90.52" ry="37.45"/>
<text text-anchor="middle" x="526.95" y="-461.64" font-family="Times,serif" font-size="14.00">Adriana Pereira</text>
<text text-anchor="middle" x="526.95" y="-446.64" font-family="Times,serif" font-size="14.00">987671978</text>
<text text-anchor="middle" x="526.95" y="-431.64" font-family="Times,serif" font-size="14.00">fb=&#45;1</text>
</g>
<!-- No_975960513 -->
<g id="node2" class="node">
<title>No_975960513</title>
<ellipse fill="none" stroke="black" cx="431.95" cy="-339.38" rx="73.58" ry="37.45"/>
<text text-anchor="middle" x="431.95" y="-350.68" font-family="Times,serif" font-size="14.00">Altair Souza</text>
<text text-anchor="middle" x="431.95" y="-335.68" font-family="Times,serif" font-size="14.00">975960513</text>
<text text-anchor="middle" x="431.95" y="-320.68" font-family="Times,serif" font-size="14.00">fb=&#45;1</text>
</g>
<!-- No_987671978&#45;&gt;No_975960513 -->
<g id="edge1" class="edge">
<title>No_987671978&#45;&gt;No_975960513</title>
<path fill="none" stroke="black" d="M496.89,-414.86C487.71,-404.33 477.51,-392.63 467.97,-381.69"/>
<polygon fill="black" stroke="black" points="470.38,-379.12 461.17,-373.89 465.1,-383.73 470.38,-379.12"/>
</g>
<!-- No_994116870 -->
<g id="node15" class="node">
<title>No_994116870</title>
<ellipse fill="none" stroke="black" cx="622.95" cy="-339.38" rx="98.99" ry="37.45"/>
<text text-anchor="middle" x="622.95" y="-350.68" font-family="Times,serif" font-size="14.00">Alexandra Moura</text>
<text text-anchor="middle" x="622.95" y="-335.68" font-family="Times,serif" font-size="14.00">994116870</text>
<text text-anchor="middle" x="622.95" y="-320.68" font-family="Times,serif" font-size="14.00">fb=1</text>
</g>
<!-- No_987671978&#45;&gt;No_994116870 -->
<g id="edge14" class="edge">
<title>No_987671978&#45;&gt;No_994116870</title>
<path fill="none" stroke="black" d="M557.33,-414.86C566.26,-404.73 576.13,-393.52 585.45,-382.95"/>
<polygon fill="black" stroke="black" points="588.13,-385.2 592.12,-375.38 582.88,-380.57 588.13,-385.2"/>
</g>
<!-- No_960933790 -->
<g id="node3" class="node">
<title>No_960933790</title>
<ellipse fill="none" stroke="black" cx="231.95" cy="-228.43" rx="85.62" ry="37.45"/>
<text text-anchor="middle" x="231.95" y="-239.73" font-family="Times,serif" font-size="14.00">Andrea Santos</text>
<text text-anchor="middle" x="231.95" y="-224.73" font-family="Times,serif" font-size="14.00">960933790</text>
<text text-anchor="middle" x="231.95" y="-209.73" font-family="Times,serif" font-size="14.00">fb=1</text>
</g>
<!-- No_975960513&#45;&gt;No_960933790 -->
<g id="edge2" class="edge">
<title>No_975960513&#45;&gt;No_960933790</title>
<path fill="none" stroke="black" d="M382.52,-311.45C355.69,-296.84 322.28,-278.64 293.75,-263.09"/>
<polygon fill="black" stroke="black" points="295.13,-259.86 284.67,-258.15 291.78,-266.01 295.13,-259.86"/>
</g>
<!-- No_986979432 -->
<g id="node10" class="node">
<title>No_986979432</title>
<ellipse fill="none" stroke="black" cx="442.95" cy="-228.43" rx="107.46" ry="37.45"/>
<text text-anchor="middle" x="442.95" y="-239.73" font-family="Times,serif" font-size="14.00">Américo Rodrigues</text>
<text text-anchor="middle" x="442.95" y="-224.73" font-family="Times,serif" font-size="14.00">986979432</text>
<text text-anchor="middle" x="442.95" y="-209.73" font-family="Times,serif" font-size="14.00">fb=0</text>
</g>
<!-- No_975960513&#45;&gt;No_986979432 -->
<g id="edge9" class="edge">
<title>No_975960513&#45;&gt;No_986979432</title>
<path fill="none" stroke="black" d="M435.65,-301.8C436.47,-293.63 437.36,-284.85 438.22,-276.32"/>
<polygon fill="black" stroke="black" points="441.73,-276.4 439.25,-266.1 434.76,-275.7 441.73,-276.4"/>
</g>
<!-- No_955838599 -->
<g id="node4" class="node">
<title>No_955838599</title>
<ellipse fill="none" stroke="black" cx="74.95" cy="-117.48" rx="74.91" ry="37.45"/>
<text text-anchor="middle" x="74.95" y="-128.78" font-family="Times,serif" font-size="14.00">Aline Santos</text>
<text text-anchor="middle" x="74.95" y="-113.78" font-family="Times,serif" font-size="14.00">955838599</text>
<text text-anchor="middle" x="74.95" y="-98.78" font-family="Times,serif" font-size="14.00">fb=1</text>
</g>
<!-- No_960933790&#45;&gt;No_955838599 -->
<g id="edge3" class="edge">
<title>No_960933790&#45;&gt;No_955838599</title>
<path fill="none" stroke="black" d="M186.96,-196.21C168.01,-183.06 145.86,-167.68 126.28,-154.09"/>
<polygon fill="black" stroke="black" points="128.27,-151.22 118.06,-148.39 124.28,-156.97 128.27,-151.22"/>
</g>
<!-- No_965115082 -->
<g id="node7" class="node">
<title>No_965115082</title>
<ellipse fill="none" stroke="black" cx="243.95" cy="-117.48" rx="75.82" ry="37.45"/>
<text text-anchor="middle" x="243.95" y="-128.78" font-family="Times,serif" font-size="14.00">Ana Barbosa</text>
<text text-anchor="middle" x="243.95" y="-113.78" font-family="Times,serif" font-size="14.00">965115082</text>
<text text-anchor="middle" x="243.95" y="-98.78" font-family="Times,serif" font-size="14.00">fb=1</text>
</g>
<!-- No_960933790&#45;&gt;No_965115082 -->
<g id="edge6" class="edge">
<title>No_960933790&#45;&gt;No_965115082</title>
<path fill="none" stroke="black" d="M235.98,-190.85C236.88,-182.67 237.85,-173.89 238.79,-165.37"/>
<polygon fill="black" stroke="black" points="242.3,-165.47 239.91,-155.15 235.34,-164.71 242.3,-165.47"/>
</g>
<!-- NUL_0 -->
<g id="node5" class="node">
<title>NUL_0</title>
<polygon fill="none" stroke="black" points="65.95,-44 21.95,-44 21.95,0 65.95,0 65.95,-44"/>
<text text-anchor="middle" x="43.95" y="-18.3" font-family="Times,serif" font-size="14.00">null</text>
</g>
<!-- No_955838599&#45;&gt;NUL_0 -->
<g id="edge4" class="edge">
<title>No_955838599&#45;&gt;NUL_0</title>
<path fill="none" stroke="black" d="M62.97,-80.34C60.05,-71.55 56.96,-62.23 54.14,-53.72"/>
<polygon fill="black" stroke="black" points="57.45,-52.57 50.98,-44.18 50.8,-54.77 57.45,-52.57"/>
</g>
<!-- NUL_1 -->
<g id="node6" class="node">
<title>NUL_1</title>
<polygon fill="none" stroke="black" points="127.95,-44 83.95,-44 83.95,0 127.95,0 127.95,-44"/>
<text text-anchor="middle" x="105.95" y="-18.3" font-family="Times,serif" font-size="14.00">null</text>
</g>
<!-- No_955838599&#45;&gt;NUL_1 -->
<g id="edge5" class="edge">
<title>No_955838599&#45;&gt;NUL_1</title>
<path fill="none" stroke="black" d="M86.94,-80.34C89.85,-71.55 92.94,-62.23 95.77,-53.72"/>
<polygon fill="black" stroke="black" points="99.1,-54.77 98.93,-44.18 92.46,-52.57 99.1,-54.77"/>
</g>
<!-- NUL_2 -->
<g id="node8" class="node">
<title>NUL_2</title>
<polygon fill="none" stroke="black" points="255.95,-44 211.95,-44 211.95,0 255.95,0 255.95,-44"/>
<text text-anchor="middle" x="233.95" y="-18.3" font-family="Times,serif" font-size="14.00">null</text>
</g>
<!-- No_965115082&#45;&gt;NUL_2 -->
<g id="edge7" class="edge">
<title>No_965115082&#45;&gt;NUL_2</title>
<path fill="none" stroke="black" d="M240.03,-79.8C239.13,-71.41 238.19,-62.56 237.31,-54.41"/>
<polygon fill="black" stroke="black" points="240.77,-53.77 236.22,-44.2 233.8,-54.51 240.77,-53.77"/>
</g>
<!-- NUL_3 -->
<g id="node9" class="node">
<title>NUL_3</title>
<polygon fill="none" stroke="black" points="317.95,-44 273.95,-44 273.95,0 317.95,0 317.95,-44"/>
<text text-anchor="middle" x="295.95" y="-18.3" font-family="Times,serif" font-size="14.00">null</text>
</g>
<!-- No_965115082&#45;&gt;NUL_3 -->
<g id="edge8" class="edge">
<title>No_965115082&#45;&gt;NUL_3</title>
<path fill="none" stroke="black" d="M263.61,-81.14C268.78,-71.85 274.3,-61.93 279.29,-52.95"/>
<polygon fill="black" stroke="black" points="282.46,-54.45 284.26,-44.01 276.34,-51.05 282.46,-54.45"/>
</g>
<!-- No_985278999 -->
<g id="node11" class="node">
<title>No_985278999</title>
<ellipse fill="none" stroke="black" cx="431.95" cy="-117.48" rx="75.82" ry="37.45"/>
<text text-anchor="middle" x="431.95" y="-128.78" font-family="Times,serif" font-size="14.00">Acir Campos</text>
<text text-anchor="middle" x="431.95" y="-113.78" font-family="Times,serif" font-size="14.00">985278999</text>
<text text-anchor="middle" x="431.95" y="-98.78" font-family="Times,serif" font-size="14.00">fb=0</text>
</g>
<!-- No_986979432&#45;&gt;No_985278999 -->
<g id="edge10" class="edge">
<title>No_986979432&#45;&gt;No_985278999</title>
<path fill="none" stroke="black" d="M439.26,-190.85C438.43,-182.67 437.55,-173.89 436.69,-165.37"/>
<polygon fill="black" stroke="black" points="440.14,-164.75 435.66,-155.15 433.18,-165.45 440.14,-164.75"/>
</g>
<!-- NUL_6 -->
<g id="node14" class="node">
<title>NUL_6</title>
<polygon fill="none" stroke="black" points="569.95,-139.48 525.95,-139.48 525.95,-95.48 569.95,-95.48 569.95,-139.48"/>
<text text-anchor="middle" x="547.95" y="-113.78" font-family="Times,serif" font-size="14.00">null</text>
</g>
<!-- No_986979432&#45;&gt;NUL_6 -->
<g id="edge13" class="edge">
<title>No_986979432&#45;&gt;NUL_6</title>
<path fill="none" stroke="black" d="M479.37,-193.05C491.56,-181.21 505.06,-167.72 516.95,-154.95 519.22,-152.52 521.53,-149.96 523.83,-147.37"/>
<polygon fill="black" stroke="black" points="526.66,-149.44 530.57,-139.6 521.37,-144.85 526.66,-149.44"/>
</g>
<!-- NUL_4 -->
<g id="node12" class="node">
<title>NUL_4</title>
<polygon fill="none" stroke="black" points="401.95,-44 357.95,-44 357.95,0 401.95,0 401.95,-44"/>
<text text-anchor="middle" x="379.95" y="-18.3" font-family="Times,serif" font-size="14.00">null</text>
</g>
<!-- No_985278999&#45;&gt;NUL_4 -->
<g id="edge11" class="edge">
<title>No_985278999&#45;&gt;NUL_4</title>
<path fill="none" stroke="black" d="M412.29,-81.14C407.13,-71.85 401.61,-61.93 396.62,-52.95"/>
<polygon fill="black" stroke="black" points="399.56,-51.05 391.64,-44.01 393.45,-54.45 399.56,-51.05"/>
</g>
<!-- NUL_5 -->
<g id="node13" class="node">
<title>NUL_5</title>
<polygon fill="none" stroke="black" points="463.95,-44 419.95,-44 419.95,0 463.95,0 463.95,-44"/>
<text text-anchor="middle" x="441.95" y="-18.3" font-family="Times,serif" font-size="14.00">null</text>
</g>
<!-- No_985278999&#45;&gt;NUL_5 -->
<g id="edge12" class="edge">
<title>No_985278999&#45;&gt;NUL_5</title>
<path fill="none" stroke="black" d="M435.88,-79.8C436.77,-71.41 437.72,-62.56 438.59,-54.41"/>
<polygon fill="black" stroke="black" points="442.1,-54.51 439.69,-44.2 435.14,-53.77 442.1,-54.51"/>
</g>
<!-- NUL_7 -->
<g id="node16" class="node">
<title>NUL_7</title>
<polygon fill="none" stroke="black" points="633.95,-250.43 589.95,-250.43 589.95,-206.43 633.95,-206.43 633.95,-250.43"/>
<text text-anchor="middle" x="611.95" y="-224.73" font-family="Times,serif" font-size="14.00">null</text>
</g>
<!-- No_994116870&#45;&gt;NUL_7 -->
<g id="edge15" class="edge">
<title>No_994116870&#45;&gt;NUL_7</title>
<path fill="none" stroke="black" d="M619.26,-301.8C617.91,-288.47 616.41,-273.53 615.11,-260.7"/>
<polygon fill="black" stroke="black" points="618.57,-260.11 614.08,-250.51 611.6,-260.81 618.57,-260.11"/>
</g>
<!-- No_997285865 -->
<g id="node17" class="node">
<title>No_997285865</title>
<ellipse fill="none" stroke="black" cx="726.95" cy="-228.43" rx="74.91" ry="37.45"/>
<text text-anchor="middle" x="726.95" y="-239.73" font-family="Times,serif" font-size="14.00">Almir Torres</text>
<text text-anchor="middle" x="726.95" y="-224.73" font-family="Times,serif" font-size="14.00">997285865</text>
<text text-anchor="middle" x="726.95" y="-209.73" font-family="Times,serif" font-size="14.00">fb=0</text>
</g>
<!-- No_994116870&#45;&gt;No_997285865 -->
<g id="edge16" class="edge">
<title>No_994116870&#45;&gt;No_997285865</title>
<path fill="none" stroke="black" d="M655.86,-303.91C666.11,-293.17 677.51,-281.23 688.13,-270.11"/>
<polygon fill="black" stroke="black" points="690.95,-272.21 695.33,-262.56 685.89,-267.38 690.95,-272.21"/>
</g>
<!-- NUL_8 -->
<g id="node18" class="node">
<title>NUL_8</title>
<polygon fill="none" stroke="black" points="717.95,-139.48 673.95,-139.48 673.95,-95.48 717.95,-95.48 717.95,-139.48"/>
<text text-anchor="middle" x="695.95" y="-113.78" font-family="Times,serif" font-size="14.00">null</text>
</g>
<!-- No_997285865&#45;&gt;NUL_8 -->
<g id="edge17" class="edge">
<title>No_997285865&#45;&gt;NUL_8</title>
<path fill="none" stroke="black" d="M716.63,-191.15C712.79,-177.67 708.48,-162.51 704.79,-149.53"/>
<polygon fill="black" stroke="black" points="708.09,-148.33 701.98,-139.67 701.35,-150.25 708.09,-148.33"/>
</g>
<!-- NUL_9 -->
<g id="node19" class="node">
<title>NUL_9</title>
<polygon fill="none" stroke="black" points="779.95,-139.48 735.95,-139.48 735.95,-95.48 779.95,-95.48 779.95,-139.48"/>
<text text-anchor="middle" x="757.95" y="-113.78" font-family="Times,serif" font-size="14.00">null</text>
</g>
<!-- No_997285865&#45;&gt;NUL_9 -->
<g id="edge18" class="edge">
<title>No_997285865&#45;&gt;NUL_9</title>
<path fill="none" stroke="black" d="M737.28,-191.15C741.11,-177.67 745.43,-162.51 749.12,-149.53"/>
<polygon fill="black" stroke="black" points="752.55,-150.25 751.92,-139.67 745.82,-148.33 752.55,-150.25"/>
</g>
</g>
</svg>
