<?xml version="1.0" encoding="UTF-8" standalone="no"?>
<!DOCTYPE svg PUBLIC "-//W3C//DTD SVG 1.1//EN"
 "http://www.w3.org/Graphics/SVG/1.1/DTD/svg11.dtd">
<!-- Generated by graphviz version 2.43.0 (0)
 -->
<!-- Title: BST Pages: 1 -->
<svg width="242pt" height="274pt"
 viewBox="0.00 0.00 241.56 273.91" xmlns="http://www.w3.org/2000/svg" xmlns:xlink="http://www.w3.org/1999/xlink">
<g id="graph0" class="graph" transform="scale(1 1) rotate(0) translate(4 269.91)">
<title>BST</title>
<polygon fill="white" stroke="transparent" points="-4,4 -4,-269.91 237.56,-269.91 237.56,4 -4,4"/>
<!-- No_985278999 -->
<g id="node1" class="node">
<title>No_985278999</title>
<ellipse fill="none" stroke="black" cx="148.56" cy="-228.43" rx="75.82" ry="37.45"/>
<text text-anchor="middle" x="148.56" y="-239.73" font-family="Times,serif" font-size="14.00">Acir Campos</text>
<text text-anchor="middle" x="148.56" y="-224.73" font-family="Times,serif" font-size="14.00">985278999</text>
<text text-anchor="middle" x="148.56" y="-209.73" font-family="Times,serif" font-size="14.00">fb=&#45;1</text>
</g>
<!-- No_960933790 -->
<g id="node2" class="node">
<title>No_960933790</title>
<ellipse fill="none" stroke="black" cx="85.56" cy="-117.48" rx="85.62" ry="37.45"/>
<text text-anchor="middle" x="85.56" y="-128.78" font-family="Times,serif" font-size="14.00">Andrea Santos</text>
<text text-anchor="middle" x="85.56" y="-113.78" font-family="Times,serif" font-size="14.00">960933790</text>
<text text-anchor="middle" x="85.56" y="-98.78" font-family="Times,serif" font-size="14.00">fb=0</text>
</g>
<!-- No_985278999&#45;&gt;No_960933790 -->
<g id="edge1" class="edge">
<title>No_985278999&#45;&gt;No_960933790</title>
<path fill="none" stroke="black" d="M128.11,-192.06C122.71,-182.73 116.83,-172.55 111.2,-162.82"/>
<polygon fill="black" stroke="black" points="114.16,-160.95 106.13,-154.05 108.1,-164.46 114.16,-160.95"/>
</g>
<!-- NUL_2 -->
<g id="node5" class="node">
<title>NUL_2</title>
<polygon fill="none" stroke="black" points="233.56,-139.48 189.56,-139.48 189.56,-95.48 233.56,-95.48 233.56,-139.48"/>
<text text-anchor="middle" x="211.56" y="-113.78" font-family="Times,serif" font-size="14.00">null</text>
</g>
<!-- No_985278999&#45;&gt;NUL_2 -->
<g id="edge4" class="edge">
<title>No_985278999&#45;&gt;NUL_2</title>
<path fill="none" stroke="black" d="M169.01,-192.06C177.13,-178.02 186.37,-162.05 194.15,-148.58"/>
<polygon fill="black" stroke="black" points="197.31,-150.12 199.28,-139.71 191.25,-146.62 197.31,-150.12"/>
</g>
<!-- NUL_0 -->
<g id="node3" class="node">
<title>NUL_0</title>
<polygon fill="none" stroke="black" points="76.56,-44 32.56,-44 32.56,0 76.56,0 76.56,-44"/>
<text text-anchor="middle" x="54.56" y="-18.3" font-family="Times,serif" font-size="14.00">null</text>
</g>
<!-- No_960933790&#45;&gt;NUL_0 -->
<g id="edge2" class="edge">
<title>No_960933790&#45;&gt;NUL_0</title>
<path fill="none" stroke="black" d="M73.57,-80.34C70.66,-71.55 67.57,-62.23 64.75,-53.72"/>
<polygon fill="black" stroke="black" points="68.05,-52.57 61.58,-44.18 61.41,-54.77 68.05,-52.57"/>
</g>
<!-- NUL_1 -->
<g id="node4" class="node">
<title>NUL_1</title>
<polygon fill="none" stroke="black" points="138.56,-44 94.56,-44 94.56,0 138.56,0 138.56,-44"/>
<text text-anchor="middle" x="116.56" y="-18.3" font-family="Times,serif" font-size="14.00">null</text>
</g>
<!-- No_960933790&#45;&gt;NUL_1 -->
<g id="edge3" class="edge">
<title>No_960933790&#45;&gt;NUL_1</title>
<path fill="none" stroke="black" d="M97.55,-80.34C100.46,-71.55 103.55,-62.23 106.37,-53.72"/>
<polygon fill="black" stroke="black" points="109.71,-54.77 109.54,-44.18 103.07,-52.57 109.71,-54.77"/>
</g>
</g>
</svg>
