<?xml version="1.0" encoding="UTF-8" standalone="no"?>
<!DOCTYPE svg PUBLIC "-//W3C//DTD SVG 1.1//EN"
 "http://www.w3.org/Graphics/SVG/1.1/DTD/svg11.dtd">
<!-- Generated by graphviz version 2.43.0 (0)
 -->
<!-- Title: BST Pages: 1 -->
<svg width="2237pt" height="374pt"
 viewBox="0.00 0.00 2237.17 374.39" xmlns="http://www.w3.org/2000/svg" xmlns:xlink="http://www.w3.org/1999/xlink">
<g id="graph0" class="graph" transform="scale(1 1) rotate(0) translate(4 370.39)">
<title>BST</title>
<polygon fill="white" stroke="transparent" points="-4,4 -4,-370.39 2233.17,-370.39 2233.17,4 -4,4"/>
<!-- Vanessa Coelho,967230729 [fb:0] -->
<g id="node1" class="node">
<title>Vanessa Coelho,967230729 [fb:0]</title>
<ellipse fill="none" stroke="black" cx="1077.93" cy="-348.39" rx="166.27" ry="18"/>
<text text-anchor="middle" x="1077.93" y="-344.69" font-family="Times,serif" font-size="14.00">Vanessa Coelho,967230729 [fb:0]</text>
</g>
<!-- Vanessa Campos,957554329 [fb:0] -->
<g id="node2" class="node">
<title>Vanessa Campos,957554329 [fb:0]</title>
<ellipse fill="none" stroke="black" cx="894.93" cy="-276.39" rx="171.67" ry="18"/>
<text text-anchor="middle" x="894.93" y="-272.69" font-family="Times,serif" font-size="14.00">Vanessa Campos,957554329 [fb:0]</text>
</g>
<!-- Vanessa Coelho,967230729 [fb:0]&#45;&gt;Vanessa Campos,957554329 [fb:0] -->
<g id="edge1" class="edge">
<title>Vanessa Coelho,967230729 [fb:0]&#45;&gt;Vanessa Campos,957554329 [fb:0]</title>
<path fill="none" stroke="black" d="M1035.03,-330.98C1008.85,-320.96 975.2,-308.09 947.44,-297.47"/>
<polygon fill="black" stroke="black" points="948.48,-294.12 937.89,-293.82 945.98,-300.66 948.48,-294.12"/>
</g>
<!-- Vanessa Martins,992641688 [fb:0] -->
<g id="node15" class="node">
<title>Vanessa Martins,992641688 [fb:0]</title>
<ellipse fill="none" stroke="black" cx="1346.93" cy="-276.39" rx="170.87" ry="18"/>
<text text-anchor="middle" x="1346.93" y="-272.69" font-family="Times,serif" font-size="14.00">Vanessa Martins,992641688 [fb:0]</text>
</g>
<!-- Vanessa Coelho,967230729 [fb:0]&#45;&gt;Vanessa Martins,992641688 [fb:0] -->
<g id="edge14" class="edge">
<title>Vanessa Coelho,967230729 [fb:0]&#45;&gt;Vanessa Martins,992641688 [fb:0]</title>
<path fill="none" stroke="black" d="M1138.64,-331.59C1179.47,-320.97 1233.43,-306.93 1276.21,-295.79"/>
<polygon fill="black" stroke="black" points="1277.19,-299.16 1285.99,-293.25 1275.43,-292.38 1277.19,-299.16"/>
</g>
<!-- Vanessa Freitas,955355373 [fb:&#45;1] -->
<g id="node3" class="node">
<title>Vanessa Freitas,955355373 [fb:&#45;1]</title>
<ellipse fill="none" stroke="black" cx="388.93" cy="-204.39" rx="170.87" ry="18"/>
<text text-anchor="middle" x="388.93" y="-200.69" font-family="Times,serif" font-size="14.00">Vanessa Freitas,955355373 [fb:&#45;1]</text>
</g>
<!-- Vanessa Campos,957554329 [fb:0]&#45;&gt;Vanessa Freitas,955355373 [fb:&#45;1] -->
<g id="edge2" class="edge">
<title>Vanessa Campos,957554329 [fb:0]&#45;&gt;Vanessa Freitas,955355373 [fb:&#45;1]</title>
<path fill="none" stroke="black" d="M795.87,-261.69C710.27,-249.84 586.73,-232.75 498.26,-220.51"/>
<polygon fill="black" stroke="black" points="498.58,-217.02 488.19,-219.12 497.62,-223.96 498.58,-217.02"/>
</g>
<!-- Vanessa Rodrigues,960862516 [fb:0] -->
<g id="node8" class="node">
<title>Vanessa Rodrigues,960862516 [fb:0]</title>
<ellipse fill="none" stroke="black" cx="894.93" cy="-204.39" rx="181.97" ry="18"/>
<text text-anchor="middle" x="894.93" y="-200.69" font-family="Times,serif" font-size="14.00">Vanessa Rodrigues,960862516 [fb:0]</text>
</g>
<!-- Vanessa Campos,957554329 [fb:0]&#45;&gt;Vanessa Rodrigues,960862516 [fb:0] -->
<g id="edge7" class="edge">
<title>Vanessa Campos,957554329 [fb:0]&#45;&gt;Vanessa Rodrigues,960862516 [fb:0]</title>
<path fill="none" stroke="black" d="M894.93,-258.09C894.93,-250.37 894.93,-241.1 894.93,-232.5"/>
<polygon fill="black" stroke="black" points="898.43,-232.49 894.93,-222.49 891.43,-232.49 898.43,-232.49"/>
</g>
<!-- Vanessa Martins,952303299 [fb:0] -->
<g id="node4" class="node">
<title>Vanessa Martins,952303299 [fb:0]</title>
<ellipse fill="none" stroke="black" cx="170.93" cy="-121.79" rx="170.87" ry="18"/>
<text text-anchor="middle" x="170.93" y="-118.09" font-family="Times,serif" font-size="14.00">Vanessa Martins,952303299 [fb:0]</text>
</g>
<!-- Vanessa Freitas,955355373 [fb:&#45;1]&#45;&gt;Vanessa Martins,952303299 [fb:0] -->
<g id="edge3" class="edge">
<title>Vanessa Freitas,955355373 [fb:&#45;1]&#45;&gt;Vanessa Martins,952303299 [fb:0]</title>
<path fill="none" stroke="black" d="M344.56,-186.98C310.04,-174.22 262,-156.46 225.2,-142.86"/>
<polygon fill="black" stroke="black" points="226.22,-139.5 215.62,-139.31 223.79,-146.07 226.22,-139.5"/>
</g>
<!-- N2 -->
<g id="node7" class="node">
<title>N2</title>
<ellipse fill="none" stroke="black" cx="388.93" cy="-121.79" rx="28.7" ry="28.7"/>
<text text-anchor="middle" x="388.93" y="-118.09" font-family="Times,serif" font-size="14.00">null</text>
</g>
<!-- Vanessa Freitas,955355373 [fb:&#45;1]&#45;&gt;N2 -->
<g id="edge6" class="edge">
<title>Vanessa Freitas,955355373 [fb:&#45;1]&#45;&gt;N2</title>
<path fill="none" stroke="black" d="M388.93,-186.3C388.93,-178.86 388.93,-169.82 388.93,-160.92"/>
<polygon fill="black" stroke="black" points="392.43,-160.64 388.93,-150.64 385.43,-160.64 392.43,-160.64"/>
</g>
<!-- N0 -->
<g id="node5" class="node">
<title>N0</title>
<ellipse fill="none" stroke="black" cx="133.93" cy="-28.6" rx="28.7" ry="28.7"/>
<text text-anchor="middle" x="133.93" y="-24.9" font-family="Times,serif" font-size="14.00">null</text>
</g>
<!-- Vanessa Martins,952303299 [fb:0]&#45;&gt;N0 -->
<g id="edge4" class="edge">
<title>Vanessa Martins,952303299 [fb:0]&#45;&gt;N0</title>
<path fill="none" stroke="black" d="M163.98,-103.64C159.53,-92.68 153.6,-78.07 148.19,-64.72"/>
<polygon fill="black" stroke="black" points="151.36,-63.25 144.36,-55.3 144.88,-65.88 151.36,-63.25"/>
</g>
<!-- N1 -->
<g id="node6" class="node">
<title>N1</title>
<ellipse fill="none" stroke="black" cx="208.93" cy="-28.6" rx="28.7" ry="28.7"/>
<text text-anchor="middle" x="208.93" y="-24.9" font-family="Times,serif" font-size="14.00">null</text>
</g>
<!-- Vanessa Martins,952303299 [fb:0]&#45;&gt;N1 -->
<g id="edge5" class="edge">
<title>Vanessa Martins,952303299 [fb:0]&#45;&gt;N1</title>
<path fill="none" stroke="black" d="M178.08,-103.64C182.65,-92.68 188.74,-78.07 194.3,-64.72"/>
<polygon fill="black" stroke="black" points="197.61,-65.87 198.23,-55.3 191.15,-63.18 197.61,-65.87"/>
</g>
<!-- Vanessa Barros,958291947 [fb:0] -->
<g id="node9" class="node">
<title>Vanessa Barros,958291947 [fb:0]</title>
<ellipse fill="none" stroke="black" cx="600.93" cy="-121.79" rx="165.97" ry="18"/>
<text text-anchor="middle" x="600.93" y="-118.09" font-family="Times,serif" font-size="14.00">Vanessa Barros,958291947 [fb:0]</text>
</g>
<!-- Vanessa Rodrigues,960862516 [fb:0]&#45;&gt;Vanessa Barros,958291947 [fb:0] -->
<g id="edge8" class="edge">
<title>Vanessa Rodrigues,960862516 [fb:0]&#45;&gt;Vanessa Barros,958291947 [fb:0]</title>
<path fill="none" stroke="black" d="M836.15,-187.27C787.84,-174.03 719.36,-155.26 668.74,-141.38"/>
<polygon fill="black" stroke="black" points="669.44,-137.94 658.87,-138.67 667.59,-144.69 669.44,-137.94"/>
</g>
<!-- Vanessa Porto,966870911 [fb:0] -->
<g id="node12" class="node">
<title>Vanessa Porto,966870911 [fb:0]</title>
<ellipse fill="none" stroke="black" cx="943.93" cy="-121.79" rx="159.47" ry="18"/>
<text text-anchor="middle" x="943.93" y="-118.09" font-family="Times,serif" font-size="14.00">Vanessa Porto,966870911 [fb:0]</text>
</g>
<!-- Vanessa Rodrigues,960862516 [fb:0]&#45;&gt;Vanessa Porto,966870911 [fb:0] -->
<g id="edge11" class="edge">
<title>Vanessa Rodrigues,960862516 [fb:0]&#45;&gt;Vanessa Porto,966870911 [fb:0]</title>
<path fill="none" stroke="black" d="M905.33,-186.3C912.02,-175.29 920.84,-160.78 928.36,-148.41"/>
<polygon fill="black" stroke="black" points="931.35,-150.22 933.56,-139.86 925.37,-146.59 931.35,-150.22"/>
</g>
<!-- N3 -->
<g id="node10" class="node">
<title>N3</title>
<ellipse fill="none" stroke="black" cx="562.93" cy="-28.6" rx="28.7" ry="28.7"/>
<text text-anchor="middle" x="562.93" y="-24.9" font-family="Times,serif" font-size="14.00">null</text>
</g>
<!-- Vanessa Barros,958291947 [fb:0]&#45;&gt;N3 -->
<g id="edge9" class="edge">
<title>Vanessa Barros,958291947 [fb:0]&#45;&gt;N3</title>
<path fill="none" stroke="black" d="M593.79,-103.64C589.22,-92.68 583.13,-78.07 577.57,-64.72"/>
<polygon fill="black" stroke="black" points="580.72,-63.18 573.64,-55.3 574.26,-65.87 580.72,-63.18"/>
</g>
<!-- N4 -->
<g id="node11" class="node">
<title>N4</title>
<ellipse fill="none" stroke="black" cx="637.93" cy="-28.6" rx="28.7" ry="28.7"/>
<text text-anchor="middle" x="637.93" y="-24.9" font-family="Times,serif" font-size="14.00">null</text>
</g>
<!-- Vanessa Barros,958291947 [fb:0]&#45;&gt;N4 -->
<g id="edge10" class="edge">
<title>Vanessa Barros,958291947 [fb:0]&#45;&gt;N4</title>
<path fill="none" stroke="black" d="M607.89,-103.64C612.34,-92.68 618.27,-78.07 623.68,-64.72"/>
<polygon fill="black" stroke="black" points="626.99,-65.88 627.51,-55.3 620.51,-63.25 626.99,-65.88"/>
</g>
<!-- N5 -->
<g id="node13" class="node">
<title>N5</title>
<ellipse fill="none" stroke="black" cx="905.93" cy="-28.6" rx="28.7" ry="28.7"/>
<text text-anchor="middle" x="905.93" y="-24.9" font-family="Times,serif" font-size="14.00">null</text>
</g>
<!-- Vanessa Porto,966870911 [fb:0]&#45;&gt;N5 -->
<g id="edge12" class="edge">
<title>Vanessa Porto,966870911 [fb:0]&#45;&gt;N5</title>
<path fill="none" stroke="black" d="M936.79,-103.64C932.22,-92.68 926.13,-78.07 920.57,-64.72"/>
<polygon fill="black" stroke="black" points="923.72,-63.18 916.64,-55.3 917.26,-65.87 923.72,-63.18"/>
</g>
<!-- N6 -->
<g id="node14" class="node">
<title>N6</title>
<ellipse fill="none" stroke="black" cx="980.93" cy="-28.6" rx="28.7" ry="28.7"/>
<text text-anchor="middle" x="980.93" y="-24.9" font-family="Times,serif" font-size="14.00">null</text>
</g>
<!-- Vanessa Porto,966870911 [fb:0]&#45;&gt;N6 -->
<g id="edge13" class="edge">
<title>Vanessa Porto,966870911 [fb:0]&#45;&gt;N6</title>
<path fill="none" stroke="black" d="M950.89,-103.64C955.34,-92.68 961.27,-78.07 966.68,-64.72"/>
<polygon fill="black" stroke="black" points="969.99,-65.88 970.51,-55.3 963.51,-63.25 969.99,-65.88"/>
</g>
<!-- Vanessa Coelho,980269480 [fb:0] -->
<g id="node16" class="node">
<title>Vanessa Coelho,980269480 [fb:0]</title>
<ellipse fill="none" stroke="black" cx="1346.93" cy="-204.39" rx="166.27" ry="18"/>
<text text-anchor="middle" x="1346.93" y="-200.69" font-family="Times,serif" font-size="14.00">Vanessa Coelho,980269480 [fb:0]</text>
</g>
<!-- Vanessa Martins,992641688 [fb:0]&#45;&gt;Vanessa Coelho,980269480 [fb:0] -->
<g id="edge15" class="edge">
<title>Vanessa Martins,992641688 [fb:0]&#45;&gt;Vanessa Coelho,980269480 [fb:0]</title>
<path fill="none" stroke="black" d="M1346.93,-258.09C1346.93,-250.37 1346.93,-241.1 1346.93,-232.5"/>
<polygon fill="black" stroke="black" points="1350.43,-232.49 1346.93,-222.49 1343.43,-232.49 1350.43,-232.49"/>
</g>
<!-- Vanessa Barbosa,992931927 [fb:1] -->
<g id="node23" class="node">
<title>Vanessa Barbosa,992931927 [fb:1]</title>
<ellipse fill="none" stroke="black" cx="1863.93" cy="-204.39" rx="172.77" ry="18"/>
<text text-anchor="middle" x="1863.93" y="-200.69" font-family="Times,serif" font-size="14.00">Vanessa Barbosa,992931927 [fb:1]</text>
</g>
<!-- Vanessa Martins,992641688 [fb:0]&#45;&gt;Vanessa Barbosa,992931927 [fb:1] -->
<g id="edge22" class="edge">
<title>Vanessa Martins,992641688 [fb:0]&#45;&gt;Vanessa Barbosa,992931927 [fb:1]</title>
<path fill="none" stroke="black" d="M1447.23,-261.81C1534.97,-249.93 1662.22,-232.7 1752.99,-220.41"/>
<polygon fill="black" stroke="black" points="1753.6,-223.86 1763.04,-219.05 1752.66,-216.92 1753.6,-223.86"/>
</g>
<!-- Vanessa Machado,973329930 [fb:0] -->
<g id="node17" class="node">
<title>Vanessa Machado,973329930 [fb:0]</title>
<ellipse fill="none" stroke="black" cx="1297.93" cy="-121.79" rx="176.57" ry="18"/>
<text text-anchor="middle" x="1297.93" y="-118.09" font-family="Times,serif" font-size="14.00">Vanessa Machado,973329930 [fb:0]</text>
</g>
<!-- Vanessa Coelho,980269480 [fb:0]&#45;&gt;Vanessa Machado,973329930 [fb:0] -->
<g id="edge16" class="edge">
<title>Vanessa Coelho,980269480 [fb:0]&#45;&gt;Vanessa Machado,973329930 [fb:0]</title>
<path fill="none" stroke="black" d="M1336.54,-186.3C1329.85,-175.29 1321.03,-160.78 1313.51,-148.41"/>
<polygon fill="black" stroke="black" points="1316.5,-146.59 1308.31,-139.86 1310.52,-150.22 1316.5,-146.59"/>
</g>
<!-- Vanessa Souza,991132853 [fb:0] -->
<g id="node20" class="node">
<title>Vanessa Souza,991132853 [fb:0]</title>
<ellipse fill="none" stroke="black" cx="1654.93" cy="-121.79" rx="162.47" ry="18"/>
<text text-anchor="middle" x="1654.93" y="-118.09" font-family="Times,serif" font-size="14.00">Vanessa Souza,991132853 [fb:0]</text>
</g>
<!-- Vanessa Coelho,980269480 [fb:0]&#45;&gt;Vanessa Souza,991132853 [fb:0] -->
<g id="edge19" class="edge">
<title>Vanessa Coelho,980269480 [fb:0]&#45;&gt;Vanessa Souza,991132853 [fb:0]</title>
<path fill="none" stroke="black" d="M1407.42,-187.56C1458.38,-174.23 1531.33,-155.14 1584.84,-141.14"/>
<polygon fill="black" stroke="black" points="1585.8,-144.5 1594.59,-138.58 1584.03,-137.73 1585.8,-144.5"/>
</g>
<!-- N7 -->
<g id="node18" class="node">
<title>N7</title>
<ellipse fill="none" stroke="black" cx="1259.93" cy="-28.6" rx="28.7" ry="28.7"/>
<text text-anchor="middle" x="1259.93" y="-24.9" font-family="Times,serif" font-size="14.00">null</text>
</g>
<!-- Vanessa Machado,973329930 [fb:0]&#45;&gt;N7 -->
<g id="edge17" class="edge">
<title>Vanessa Machado,973329930 [fb:0]&#45;&gt;N7</title>
<path fill="none" stroke="black" d="M1290.79,-103.64C1286.22,-92.68 1280.13,-78.07 1274.57,-64.72"/>
<polygon fill="black" stroke="black" points="1277.72,-63.18 1270.64,-55.3 1271.26,-65.87 1277.72,-63.18"/>
</g>
<!-- N8 -->
<g id="node19" class="node">
<title>N8</title>
<ellipse fill="none" stroke="black" cx="1334.93" cy="-28.6" rx="28.7" ry="28.7"/>
<text text-anchor="middle" x="1334.93" y="-24.9" font-family="Times,serif" font-size="14.00">null</text>
</g>
<!-- Vanessa Machado,973329930 [fb:0]&#45;&gt;N8 -->
<g id="edge18" class="edge">
<title>Vanessa Machado,973329930 [fb:0]&#45;&gt;N8</title>
<path fill="none" stroke="black" d="M1304.89,-103.64C1309.34,-92.68 1315.27,-78.07 1320.68,-64.72"/>
<polygon fill="black" stroke="black" points="1323.99,-65.88 1324.51,-55.3 1317.51,-63.25 1323.99,-65.88"/>
</g>
<!-- N9 -->
<g id="node21" class="node">
<title>N9</title>
<ellipse fill="none" stroke="black" cx="1616.93" cy="-28.6" rx="28.7" ry="28.7"/>
<text text-anchor="middle" x="1616.93" y="-24.9" font-family="Times,serif" font-size="14.00">null</text>
</g>
<!-- Vanessa Souza,991132853 [fb:0]&#45;&gt;N9 -->
<g id="edge20" class="edge">
<title>Vanessa Souza,991132853 [fb:0]&#45;&gt;N9</title>
<path fill="none" stroke="black" d="M1647.79,-103.64C1643.22,-92.68 1637.13,-78.07 1631.57,-64.72"/>
<polygon fill="black" stroke="black" points="1634.72,-63.18 1627.64,-55.3 1628.26,-65.87 1634.72,-63.18"/>
</g>
<!-- N10 -->
<g id="node22" class="node">
<title>N10</title>
<ellipse fill="none" stroke="black" cx="1691.93" cy="-28.6" rx="28.7" ry="28.7"/>
<text text-anchor="middle" x="1691.93" y="-24.9" font-family="Times,serif" font-size="14.00">null</text>
</g>
<!-- Vanessa Souza,991132853 [fb:0]&#45;&gt;N10 -->
<g id="edge21" class="edge">
<title>Vanessa Souza,991132853 [fb:0]&#45;&gt;N10</title>
<path fill="none" stroke="black" d="M1661.89,-103.64C1666.34,-92.68 1672.27,-78.07 1677.68,-64.72"/>
<polygon fill="black" stroke="black" points="1680.99,-65.88 1681.51,-55.3 1674.51,-63.25 1680.99,-65.88"/>
</g>
<!-- N11 -->
<g id="node24" class="node">
<title>N11</title>
<ellipse fill="none" stroke="black" cx="1863.93" cy="-121.79" rx="28.7" ry="28.7"/>
<text text-anchor="middle" x="1863.93" y="-118.09" font-family="Times,serif" font-size="14.00">null</text>
</g>
<!-- Vanessa Barbosa,992931927 [fb:1]&#45;&gt;N11 -->
<g id="edge23" class="edge">
<title>Vanessa Barbosa,992931927 [fb:1]&#45;&gt;N11</title>
<path fill="none" stroke="black" d="M1863.93,-186.3C1863.93,-178.86 1863.93,-169.82 1863.93,-160.92"/>
<polygon fill="black" stroke="black" points="1867.43,-160.64 1863.93,-150.64 1860.43,-160.64 1867.43,-160.64"/>
</g>
<!-- Vanessa Porto,996290752 [fb:0] -->
<g id="node25" class="node">
<title>Vanessa Porto,996290752 [fb:0]</title>
<ellipse fill="none" stroke="black" cx="2069.93" cy="-121.79" rx="159.47" ry="18"/>
<text text-anchor="middle" x="2069.93" y="-118.09" font-family="Times,serif" font-size="14.00">Vanessa Porto,996290752 [fb:0]</text>
</g>
<!-- Vanessa Barbosa,992931927 [fb:1]&#45;&gt;Vanessa Porto,996290752 [fb:0] -->
<g id="edge24" class="edge">
<title>Vanessa Barbosa,992931927 [fb:1]&#45;&gt;Vanessa Porto,996290752 [fb:0]</title>
<path fill="none" stroke="black" d="M1906.12,-186.89C1938.61,-174.17 1983.69,-156.54 2018.33,-142.98"/>
<polygon fill="black" stroke="black" points="2019.77,-146.18 2027.81,-139.27 2017.22,-139.66 2019.77,-146.18"/>
</g>
<!-- N12 -->
<g id="node26" class="node">
<title>N12</title>
<ellipse fill="none" stroke="black" cx="2031.93" cy="-28.6" rx="28.7" ry="28.7"/>
<text text-anchor="middle" x="2031.93" y="-24.9" font-family="Times,serif" font-size="14.00">null</text>
</g>
<!-- Vanessa Porto,996290752 [fb:0]&#45;&gt;N12 -->
<g id="edge25" class="edge">
<title>Vanessa Porto,996290752 [fb:0]&#45;&gt;N12</title>
<path fill="none" stroke="black" d="M2062.79,-103.64C2058.22,-92.68 2052.13,-78.07 2046.57,-64.72"/>
<polygon fill="black" stroke="black" points="2049.72,-63.18 2042.64,-55.3 2043.26,-65.87 2049.72,-63.18"/>
</g>
<!-- N13 -->
<g id="node27" class="node">
<title>N13</title>
<ellipse fill="none" stroke="black" cx="2106.93" cy="-28.6" rx="28.7" ry="28.7"/>
<text text-anchor="middle" x="2106.93" y="-24.9" font-family="Times,serif" font-size="14.00">null</text>
</g>
<!-- Vanessa Porto,996290752 [fb:0]&#45;&gt;N13 -->
<g id="edge26" class="edge">
<title>Vanessa Porto,996290752 [fb:0]&#45;&gt;N13</title>
<path fill="none" stroke="black" d="M2076.89,-103.64C2081.34,-92.68 2087.27,-78.07 2092.68,-64.72"/>
<polygon fill="black" stroke="black" points="2095.99,-65.88 2096.51,-55.3 2089.51,-63.25 2095.99,-65.88"/>
</g>
</g>
</svg>
