<?xml version="1.0" encoding="UTF-8" standalone="no"?>
<!DOCTYPE svg PUBLIC "-//W3C//DTD SVG 1.1//EN"
 "http://www.w3.org/Graphics/SVG/1.1/DTD/svg11.dtd">
<!-- Generated by graphviz version 2.43.0 (0)
 -->
<!-- Title: BST Pages: 1 -->
<svg width="220pt" height="274pt"
 viewBox="0.00 0.00 219.95 273.91" xmlns="http://www.w3.org/2000/svg" xmlns:xlink="http://www.w3.org/1999/xlink">
<g id="graph0" class="graph" transform="scale(1 1) rotate(0) translate(4 269.91)">
<title>BST</title>
<polygon fill="white" stroke="transparent" points="-4,4 -4,-269.91 215.95,-269.91 215.95,4 -4,4"/>
<!-- No_980102864 -->
<g id="node1" class="node">
<title>No_980102864</title>
<ellipse fill="none" stroke="black" cx="131.95" cy="-228.43" rx="73.58" ry="37.45"/>
<text text-anchor="middle" x="131.95" y="-239.73" font-family="Times,serif" font-size="14.00">Yago Coelho</text>
<text text-anchor="middle" x="131.95" y="-224.73" font-family="Times,serif" font-size="14.00">980102864</text>
<text text-anchor="middle" x="131.95" y="-209.73" font-family="Times,serif" font-size="14.00">fb=&#45;1</text>
</g>
<!-- No_977141888 -->
<g id="node2" class="node">
<title>No_977141888</title>
<ellipse fill="none" stroke="black" cx="74.95" cy="-117.48" rx="74.91" ry="37.45"/>
<text text-anchor="middle" x="74.95" y="-128.78" font-family="Times,serif" font-size="14.00">Yago Freitas</text>
<text text-anchor="middle" x="74.95" y="-113.78" font-family="Times,serif" font-size="14.00">977141888</text>
<text text-anchor="middle" x="74.95" y="-98.78" font-family="Times,serif" font-size="14.00">fb=0</text>
</g>
<!-- No_980102864&#45;&gt;No_977141888 -->
<g id="edge1" class="edge">
<title>No_980102864&#45;&gt;No_977141888</title>
<path fill="none" stroke="black" d="M113.45,-192.06C108.62,-182.83 103.35,-172.76 98.31,-163.12"/>
<polygon fill="black" stroke="black" points="101.3,-161.28 93.56,-154.05 95.1,-164.53 101.3,-161.28"/>
</g>
<!-- NUL_2 -->
<g id="node5" class="node">
<title>NUL_2</title>
<polygon fill="none" stroke="black" points="211.95,-139.48 167.95,-139.48 167.95,-95.48 211.95,-95.48 211.95,-139.48"/>
<text text-anchor="middle" x="189.95" y="-113.78" font-family="Times,serif" font-size="14.00">null</text>
</g>
<!-- No_980102864&#45;&gt;NUL_2 -->
<g id="edge4" class="edge">
<title>No_980102864&#45;&gt;NUL_2</title>
<path fill="none" stroke="black" d="M150.78,-192.06C158.26,-178.02 166.76,-162.05 173.93,-148.58"/>
<polygon fill="black" stroke="black" points="177.04,-150.18 178.65,-139.71 170.86,-146.89 177.04,-150.18"/>
</g>
<!-- NUL_0 -->
<g id="node3" class="node">
<title>NUL_0</title>
<polygon fill="none" stroke="black" points="65.95,-44 21.95,-44 21.95,0 65.95,0 65.95,-44"/>
<text text-anchor="middle" x="43.95" y="-18.3" font-family="Times,serif" font-size="14.00">null</text>
</g>
<!-- No_977141888&#45;&gt;NUL_0 -->
<g id="edge2" class="edge">
<title>No_977141888&#45;&gt;NUL_0</title>
<path fill="none" stroke="black" d="M62.97,-80.34C60.05,-71.55 56.96,-62.23 54.14,-53.72"/>
<polygon fill="black" stroke="black" points="57.45,-52.57 50.98,-44.18 50.8,-54.77 57.45,-52.57"/>
</g>
<!-- NUL_1 -->
<g id="node4" class="node">
<title>NUL_1</title>
<polygon fill="none" stroke="black" points="127.95,-44 83.95,-44 83.95,0 127.95,0 127.95,-44"/>
<text text-anchor="middle" x="105.95" y="-18.3" font-family="Times,serif" font-size="14.00">null</text>
</g>
<!-- No_977141888&#45;&gt;NUL_1 -->
<g id="edge3" class="edge">
<title>No_977141888&#45;&gt;NUL_1</title>
<path fill="none" stroke="black" d="M86.94,-80.34C89.85,-71.55 92.94,-62.23 95.77,-53.72"/>
<polygon fill="black" stroke="black" points="99.1,-54.77 98.93,-44.18 92.46,-52.57 99.1,-54.77"/>
</g>
</g>
</svg>
