<?xml version="1.0" encoding="UTF-8" standalone="no"?>
<!DOCTYPE svg PUBLIC "-//W3C//DTD SVG 1.1//EN"
 "http://www.w3.org/Graphics/SVG/1.1/DTD/svg11.dtd">
<!-- Generated by graphviz version 2.43.0 (0)
 -->
<!-- Title: BST Pages: 1 -->
<svg width="1184pt" height="260pt"
 viewBox="0.00 0.00 1184.03 260.00" xmlns="http://www.w3.org/2000/svg" xmlns:xlink="http://www.w3.org/1999/xlink">
<g id="graph0" class="graph" transform="scale(1 1) rotate(0) translate(4 256)">
<title>BST</title>
<polygon fill="white" stroke="transparent" points="-4,4 -4,-256 1180.03,-256 1180.03,4 -4,4"/>
<!-- Roberto Martins,967828497 -->
<g id="node1" class="node">
<title>Roberto Martins,967828497</title>
<ellipse fill="none" stroke="black" cx="604.74" cy="-234" rx="142.97" ry="18"/>
<text text-anchor="middle" x="604.74" y="-230.3" font-family="Times,serif" font-size="14.00">Roberto Martins,967828497</text>
</g>
<!-- Roberto Barbosa,964163007 -->
<g id="node2" class="node">
<title>Roberto Barbosa,964163007</title>
<ellipse fill="none" stroke="black" cx="450.74" cy="-162" rx="144.07" ry="18"/>
<text text-anchor="middle" x="450.74" y="-158.3" font-family="Times,serif" font-size="14.00">Roberto Barbosa,964163007</text>
</g>
<!-- Roberto Martins,967828497&#45;&gt;Roberto Barbosa,964163007 -->
<g id="edge1" class="edge">
<title>Roberto Martins,967828497&#45;&gt;Roberto Barbosa,964163007</title>
<path fill="none" stroke="black" d="M568.24,-216.41C546.67,-206.6 519.16,-194.1 496.18,-183.66"/>
<polygon fill="black" stroke="black" points="497.52,-180.42 486.97,-179.47 494.63,-186.79 497.52,-180.42"/>
</g>
<!-- Roberto Barros,977964561 -->
<g id="node7" class="node">
<title>Roberto Barros,977964561</title>
<ellipse fill="none" stroke="black" cx="758.74" cy="-162" rx="137.58" ry="18"/>
<text text-anchor="middle" x="758.74" y="-158.3" font-family="Times,serif" font-size="14.00">Roberto Barros,977964561</text>
</g>
<!-- Roberto Martins,967828497&#45;&gt;Roberto Barros,977964561 -->
<g id="edge6" class="edge">
<title>Roberto Martins,967828497&#45;&gt;Roberto Barros,977964561</title>
<path fill="none" stroke="black" d="M641.23,-216.41C662.81,-206.6 690.32,-194.1 713.29,-183.66"/>
<polygon fill="black" stroke="black" points="714.85,-186.79 722.5,-179.47 711.95,-180.42 714.85,-186.79"/>
</g>
<!-- Roberto Freitas,952862350 -->
<g id="node3" class="node">
<title>Roberto Freitas,952862350</title>
<ellipse fill="none" stroke="black" cx="139.74" cy="-90" rx="139.98" ry="18"/>
<text text-anchor="middle" x="139.74" y="-86.3" font-family="Times,serif" font-size="14.00">Roberto Freitas,952862350</text>
</g>
<!-- Roberto Barbosa,964163007&#45;&gt;Roberto Freitas,952862350 -->
<g id="edge2" class="edge">
<title>Roberto Barbosa,964163007&#45;&gt;Roberto Freitas,952862350</title>
<path fill="none" stroke="black" d="M384.02,-145.98C334.66,-134.87 267.35,-119.72 215.88,-108.14"/>
<polygon fill="black" stroke="black" points="216.33,-104.65 205.81,-105.87 214.8,-111.48 216.33,-104.65"/>
</g>
<!-- Roberto Rodrigues,966669452 -->
<g id="node4" class="node">
<title>Roberto Rodrigues,966669452</title>
<ellipse fill="none" stroke="black" cx="450.74" cy="-90" rx="153.27" ry="18"/>
<text text-anchor="middle" x="450.74" y="-86.3" font-family="Times,serif" font-size="14.00">Roberto Rodrigues,966669452</text>
</g>
<!-- Roberto Barbosa,964163007&#45;&gt;Roberto Rodrigues,966669452 -->
<g id="edge3" class="edge">
<title>Roberto Barbosa,964163007&#45;&gt;Roberto Rodrigues,966669452</title>
<path fill="none" stroke="black" d="M450.74,-143.7C450.74,-135.98 450.74,-126.71 450.74,-118.11"/>
<polygon fill="black" stroke="black" points="454.24,-118.1 450.74,-108.1 447.24,-118.1 454.24,-118.1"/>
</g>
<!-- Roberto Machado,965381960 -->
<g id="node5" class="node">
<title>Roberto Machado,965381960</title>
<ellipse fill="none" stroke="black" cx="285.74" cy="-18" rx="148.37" ry="18"/>
<text text-anchor="middle" x="285.74" y="-14.3" font-family="Times,serif" font-size="14.00">Roberto Machado,965381960</text>
</g>
<!-- Roberto Rodrigues,966669452&#45;&gt;Roberto Machado,965381960 -->
<g id="edge4" class="edge">
<title>Roberto Rodrigues,966669452&#45;&gt;Roberto Machado,965381960</title>
<path fill="none" stroke="black" d="M411.63,-72.41C388.31,-62.52 358.52,-49.88 333.77,-39.38"/>
<polygon fill="black" stroke="black" points="335.13,-36.15 324.56,-35.47 332.4,-42.6 335.13,-36.15"/>
</g>
<!-- Roberto Machado,967003251 -->
<g id="node6" class="node">
<title>Roberto Machado,967003251</title>
<ellipse fill="none" stroke="black" cx="599.74" cy="-18" rx="148.37" ry="18"/>
<text text-anchor="middle" x="599.74" y="-14.3" font-family="Times,serif" font-size="14.00">Roberto Machado,967003251</text>
</g>
<!-- Roberto Rodrigues,966669452&#45;&gt;Roberto Machado,967003251 -->
<g id="edge5" class="edge">
<title>Roberto Rodrigues,966669452&#45;&gt;Roberto Machado,967003251</title>
<path fill="none" stroke="black" d="M486.05,-72.41C506.76,-62.68 533.11,-50.3 555.23,-39.91"/>
<polygon fill="black" stroke="black" points="556.86,-43.01 564.42,-35.59 553.88,-36.68 556.86,-43.01"/>
</g>
<!-- Roberto Moura,973079926 -->
<g id="node8" class="node">
<title>Roberto Moura,973079926</title>
<ellipse fill="none" stroke="black" cx="758.74" cy="-90" rx="136.48" ry="18"/>
<text text-anchor="middle" x="758.74" y="-86.3" font-family="Times,serif" font-size="14.00">Roberto Moura,973079926</text>
</g>
<!-- Roberto Barros,977964561&#45;&gt;Roberto Moura,973079926 -->
<g id="edge7" class="edge">
<title>Roberto Barros,977964561&#45;&gt;Roberto Moura,973079926</title>
<path fill="none" stroke="black" d="M758.74,-143.7C758.74,-135.98 758.74,-126.71 758.74,-118.11"/>
<polygon fill="black" stroke="black" points="762.24,-118.1 758.74,-108.1 755.24,-118.1 762.24,-118.1"/>
</g>
<!-- Roberto Porto,985464278 -->
<g id="node9" class="node">
<title>Roberto Porto,985464278</title>
<ellipse fill="none" stroke="black" cx="1044.74" cy="-90" rx="131.08" ry="18"/>
<text text-anchor="middle" x="1044.74" y="-86.3" font-family="Times,serif" font-size="14.00">Roberto Porto,985464278</text>
</g>
<!-- Roberto Barros,977964561&#45;&gt;Roberto Porto,985464278 -->
<g id="edge8" class="edge">
<title>Roberto Barros,977964561&#45;&gt;Roberto Porto,985464278</title>
<path fill="none" stroke="black" d="M820.44,-145.9C865.52,-134.87 926.72,-119.88 973.81,-108.36"/>
<polygon fill="black" stroke="black" points="974.75,-111.73 983.63,-105.96 973.09,-104.93 974.75,-111.73"/>
</g>
<!-- Roberto Alves,982365369 -->
<g id="node10" class="node">
<title>Roberto Alves,982365369</title>
<ellipse fill="none" stroke="black" cx="1044.74" cy="-18" rx="131.08" ry="18"/>
<text text-anchor="middle" x="1044.74" y="-14.3" font-family="Times,serif" font-size="14.00">Roberto Alves,982365369</text>
</g>
<!-- Roberto Porto,985464278&#45;&gt;Roberto Alves,982365369 -->
<g id="edge9" class="edge">
<title>Roberto Porto,985464278&#45;&gt;Roberto Alves,982365369</title>
<path fill="none" stroke="black" d="M1044.74,-71.7C1044.74,-63.98 1044.74,-54.71 1044.74,-46.11"/>
<polygon fill="black" stroke="black" points="1048.24,-46.1 1044.74,-36.1 1041.24,-46.1 1048.24,-46.1"/>
</g>
</g>
</svg>
