<?xml version="1.0" encoding="UTF-8" standalone="no"?>
<!DOCTYPE svg PUBLIC "-//W3C//DTD SVG 1.1//EN"
 "http://www.w3.org/Graphics/SVG/1.1/DTD/svg11.dtd">
<!-- Generated by graphviz version 2.43.0 (0)
 -->
<!-- Title: BST Pages: 1 -->
<svg width="1005pt" height="396pt"
 viewBox="0.00 0.00 1005.28 395.58" xmlns="http://www.w3.org/2000/svg" xmlns:xlink="http://www.w3.org/1999/xlink">
<g id="graph0" class="graph" transform="scale(1 1) rotate(0) translate(4 391.58)">
<title>BST</title>
<polygon fill="white" stroke="transparent" points="-4,4 -4,-391.58 1001.28,-391.58 1001.28,4 -4,4"/>
<!-- João Pereira,979323293 [fb:1] -->
<g id="node1" class="node">
<title>João Pereira,979323293 [fb:1]</title>
<ellipse fill="none" stroke="black" cx="381.6" cy="-369.58" rx="150.27" ry="18"/>
<text text-anchor="middle" x="381.6" y="-365.88" font-family="Times,serif" font-size="14.00">João Pereira,979323293 [fb:1]</text>
</g>
<!-- João Souza,970206539 [fb:1] -->
<g id="node2" class="node">
<title>João Souza,970206539 [fb:1]</title>
<ellipse fill="none" stroke="black" cx="221.6" cy="-297.58" rx="144.07" ry="18"/>
<text text-anchor="middle" x="221.6" y="-293.88" font-family="Times,serif" font-size="14.00">João Souza,970206539 [fb:1]</text>
</g>
<!-- João Pereira,979323293 [fb:1]&#45;&gt;João Souza,970206539 [fb:1] -->
<g id="edge1" class="edge">
<title>João Pereira,979323293 [fb:1]&#45;&gt;João Souza,970206539 [fb:1]</title>
<path fill="none" stroke="black" d="M343.68,-352C321.16,-342.14 292.43,-329.57 268.49,-319.1"/>
<polygon fill="black" stroke="black" points="269.81,-315.86 259.24,-315.05 267,-322.27 269.81,-315.86"/>
</g>
<!-- João Costa,989431090 [fb:&#45;1] -->
<g id="node7" class="node">
<title>João Costa,989431090 [fb:&#45;1]</title>
<ellipse fill="none" stroke="black" cx="541.6" cy="-297.58" rx="145.67" ry="18"/>
<text text-anchor="middle" x="541.6" y="-293.88" font-family="Times,serif" font-size="14.00">João Costa,989431090 [fb:&#45;1]</text>
</g>
<!-- João Pereira,979323293 [fb:1]&#45;&gt;João Costa,989431090 [fb:&#45;1] -->
<g id="edge6" class="edge">
<title>João Pereira,979323293 [fb:1]&#45;&gt;João Costa,989431090 [fb:&#45;1]</title>
<path fill="none" stroke="black" d="M419.52,-352C442.03,-342.14 470.77,-329.57 494.7,-319.1"/>
<polygon fill="black" stroke="black" points="496.19,-322.27 503.95,-315.05 493.39,-315.86 496.19,-322.27"/>
</g>
<!-- N0 -->
<g id="node3" class="node">
<title>N0</title>
<ellipse fill="none" stroke="black" cx="28.6" cy="-214.99" rx="28.7" ry="28.7"/>
<text text-anchor="middle" x="28.6" y="-211.29" font-family="Times,serif" font-size="14.00">null</text>
</g>
<!-- João Souza,970206539 [fb:1]&#45;&gt;N0 -->
<g id="edge2" class="edge">
<title>João Souza,970206539 [fb:1]&#45;&gt;N0</title>
<path fill="none" stroke="black" d="M162.02,-281.13C132.15,-272.21 95.98,-259.56 65.6,-243.58 63.3,-242.38 60.99,-241.03 58.72,-239.61"/>
<polygon fill="black" stroke="black" points="60.4,-236.52 50.15,-233.81 56.47,-242.32 60.4,-236.52"/>
</g>
<!-- João Moura,971483101 [fb:0] -->
<g id="node4" class="node">
<title>João Moura,971483101 [fb:0]</title>
<ellipse fill="none" stroke="black" cx="221.6" cy="-214.99" rx="146.77" ry="18"/>
<text text-anchor="middle" x="221.6" y="-211.29" font-family="Times,serif" font-size="14.00">João Moura,971483101 [fb:0]</text>
</g>
<!-- João Souza,970206539 [fb:1]&#45;&gt;João Moura,971483101 [fb:0] -->
<g id="edge3" class="edge">
<title>João Souza,970206539 [fb:1]&#45;&gt;João Moura,971483101 [fb:0]</title>
<path fill="none" stroke="black" d="M221.6,-279.49C221.6,-268.91 221.6,-255.1 221.6,-243.06"/>
<polygon fill="black" stroke="black" points="225.1,-243.06 221.6,-233.06 218.1,-243.06 225.1,-243.06"/>
</g>
<!-- N1 -->
<g id="node5" class="node">
<title>N1</title>
<ellipse fill="none" stroke="black" cx="184.6" cy="-121.79" rx="28.7" ry="28.7"/>
<text text-anchor="middle" x="184.6" y="-118.09" font-family="Times,serif" font-size="14.00">null</text>
</g>
<!-- João Moura,971483101 [fb:0]&#45;&gt;N1 -->
<g id="edge4" class="edge">
<title>João Moura,971483101 [fb:0]&#45;&gt;N1</title>
<path fill="none" stroke="black" d="M214.64,-196.83C210.19,-185.87 204.26,-171.26 198.85,-157.92"/>
<polygon fill="black" stroke="black" points="202.03,-156.44 195.02,-148.49 195.54,-159.07 202.03,-156.44"/>
</g>
<!-- N2 -->
<g id="node6" class="node">
<title>N2</title>
<ellipse fill="none" stroke="black" cx="259.6" cy="-121.79" rx="28.7" ry="28.7"/>
<text text-anchor="middle" x="259.6" y="-118.09" font-family="Times,serif" font-size="14.00">null</text>
</g>
<!-- João Moura,971483101 [fb:0]&#45;&gt;N2 -->
<g id="edge5" class="edge">
<title>João Moura,971483101 [fb:0]&#45;&gt;N2</title>
<path fill="none" stroke="black" d="M228.74,-196.83C233.31,-185.87 239.4,-171.26 244.96,-157.92"/>
<polygon fill="black" stroke="black" points="248.27,-159.07 248.89,-148.49 241.81,-156.38 248.27,-159.07"/>
</g>
<!-- João Barbosa,982990481 [fb:1] -->
<g id="node8" class="node">
<title>João Barbosa,982990481 [fb:1]</title>
<ellipse fill="none" stroke="black" cx="541.6" cy="-214.99" rx="154.87" ry="18"/>
<text text-anchor="middle" x="541.6" y="-211.29" font-family="Times,serif" font-size="14.00">João Barbosa,982990481 [fb:1]</text>
</g>
<!-- João Costa,989431090 [fb:&#45;1]&#45;&gt;João Barbosa,982990481 [fb:1] -->
<g id="edge7" class="edge">
<title>João Costa,989431090 [fb:&#45;1]&#45;&gt;João Barbosa,982990481 [fb:1]</title>
<path fill="none" stroke="black" d="M541.6,-279.49C541.6,-268.91 541.6,-255.1 541.6,-243.06"/>
<polygon fill="black" stroke="black" points="545.1,-243.06 541.6,-233.06 538.1,-243.06 545.1,-243.06"/>
</g>
<!-- João Alves,991124630 [fb:0] -->
<g id="node13" class="node">
<title>João Alves,991124630 [fb:0]</title>
<ellipse fill="none" stroke="black" cx="855.6" cy="-214.99" rx="141.88" ry="18"/>
<text text-anchor="middle" x="855.6" y="-211.29" font-family="Times,serif" font-size="14.00">João Alves,991124630 [fb:0]</text>
</g>
<!-- João Costa,989431090 [fb:&#45;1]&#45;&gt;João Alves,991124630 [fb:0] -->
<g id="edge12" class="edge">
<title>João Costa,989431090 [fb:&#45;1]&#45;&gt;João Alves,991124630 [fb:0]</title>
<path fill="none" stroke="black" d="M601.77,-281.14C654.35,-267.64 730.7,-248.05 785.92,-233.87"/>
<polygon fill="black" stroke="black" points="786.81,-237.26 795.63,-231.38 785.07,-230.48 786.81,-237.26"/>
</g>
<!-- N3 -->
<g id="node9" class="node">
<title>N3</title>
<ellipse fill="none" stroke="black" cx="420.6" cy="-121.79" rx="28.7" ry="28.7"/>
<text text-anchor="middle" x="420.6" y="-118.09" font-family="Times,serif" font-size="14.00">null</text>
</g>
<!-- João Barbosa,982990481 [fb:1]&#45;&gt;N3 -->
<g id="edge8" class="edge">
<title>João Barbosa,982990481 [fb:1]&#45;&gt;N3</title>
<path fill="none" stroke="black" d="M519.12,-197.05C499.94,-182.59 472.17,-161.66 451,-145.71"/>
<polygon fill="black" stroke="black" points="453.05,-142.86 442.95,-139.64 448.83,-148.45 453.05,-142.86"/>
</g>
<!-- João Torres,985127353 [fb:0] -->
<g id="node10" class="node">
<title>João Torres,985127353 [fb:0]</title>
<ellipse fill="none" stroke="black" cx="613.6" cy="-121.79" rx="146.47" ry="18"/>
<text text-anchor="middle" x="613.6" y="-118.09" font-family="Times,serif" font-size="14.00">João Torres,985127353 [fb:0]</text>
</g>
<!-- João Barbosa,982990481 [fb:1]&#45;&gt;João Torres,985127353 [fb:0] -->
<g id="edge9" class="edge">
<title>João Barbosa,982990481 [fb:1]&#45;&gt;João Torres,985127353 [fb:0]</title>
<path fill="none" stroke="black" d="M555.14,-196.83C566,-183.08 581.4,-163.57 593.67,-148.03"/>
<polygon fill="black" stroke="black" points="596.67,-149.89 600.12,-139.87 591.17,-145.55 596.67,-149.89"/>
</g>
<!-- N4 -->
<g id="node11" class="node">
<title>N4</title>
<ellipse fill="none" stroke="black" cx="576.6" cy="-28.6" rx="28.7" ry="28.7"/>
<text text-anchor="middle" x="576.6" y="-24.9" font-family="Times,serif" font-size="14.00">null</text>
</g>
<!-- João Torres,985127353 [fb:0]&#45;&gt;N4 -->
<g id="edge10" class="edge">
<title>João Torres,985127353 [fb:0]&#45;&gt;N4</title>
<path fill="none" stroke="black" d="M606.64,-103.64C602.19,-92.68 596.26,-78.07 590.85,-64.72"/>
<polygon fill="black" stroke="black" points="594.03,-63.25 587.02,-55.3 587.54,-65.88 594.03,-63.25"/>
</g>
<!-- N5 -->
<g id="node12" class="node">
<title>N5</title>
<ellipse fill="none" stroke="black" cx="651.6" cy="-28.6" rx="28.7" ry="28.7"/>
<text text-anchor="middle" x="651.6" y="-24.9" font-family="Times,serif" font-size="14.00">null</text>
</g>
<!-- João Torres,985127353 [fb:0]&#45;&gt;N5 -->
<g id="edge11" class="edge">
<title>João Torres,985127353 [fb:0]&#45;&gt;N5</title>
<path fill="none" stroke="black" d="M620.74,-103.64C625.31,-92.68 631.4,-78.07 636.96,-64.72"/>
<polygon fill="black" stroke="black" points="640.27,-65.87 640.89,-55.3 633.81,-63.18 640.27,-65.87"/>
</g>
<!-- N6 -->
<g id="node14" class="node">
<title>N6</title>
<ellipse fill="none" stroke="black" cx="817.6" cy="-121.79" rx="28.7" ry="28.7"/>
<text text-anchor="middle" x="817.6" y="-118.09" font-family="Times,serif" font-size="14.00">null</text>
</g>
<!-- João Alves,991124630 [fb:0]&#45;&gt;N6 -->
<g id="edge13" class="edge">
<title>João Alves,991124630 [fb:0]&#45;&gt;N6</title>
<path fill="none" stroke="black" d="M848.45,-196.83C843.88,-185.87 837.79,-171.26 832.23,-157.92"/>
<polygon fill="black" stroke="black" points="835.38,-156.38 828.31,-148.49 828.92,-159.07 835.38,-156.38"/>
</g>
<!-- N7 -->
<g id="node15" class="node">
<title>N7</title>
<ellipse fill="none" stroke="black" cx="892.6" cy="-121.79" rx="28.7" ry="28.7"/>
<text text-anchor="middle" x="892.6" y="-118.09" font-family="Times,serif" font-size="14.00">null</text>
</g>
<!-- João Alves,991124630 [fb:0]&#45;&gt;N7 -->
<g id="edge14" class="edge">
<title>João Alves,991124630 [fb:0]&#45;&gt;N7</title>
<path fill="none" stroke="black" d="M862.56,-196.83C867,-185.87 872.93,-171.26 878.35,-157.92"/>
<polygon fill="black" stroke="black" points="881.65,-159.07 882.17,-148.49 875.17,-156.44 881.65,-159.07"/>
</g>
</g>
</svg>
