<?xml version="1.0" encoding="UTF-8" standalone="no"?>
<!DOCTYPE svg PUBLIC "-//W3C//DTD SVG 1.1//EN"
 "http://www.w3.org/Graphics/SVG/1.1/DTD/svg11.dtd">
<!-- Generated by graphviz version 2.43.0 (0)
 -->
<!-- Title: BST Pages: 1 -->
<svg width="668pt" height="260pt"
 viewBox="0.00 0.00 667.97 260.00" xmlns="http://www.w3.org/2000/svg" xmlns:xlink="http://www.w3.org/1999/xlink">
<g id="graph0" class="graph" transform="scale(1 1) rotate(0) translate(4 256)">
<title>BST</title>
<polygon fill="white" stroke="transparent" points="-4,4 -4,-256 663.97,-256 663.97,4 -4,4"/>
<!-- Carlos Costa,976849055 [fb:0] -->
<g id="node1" class="node">
<title>Carlos Costa,976849055 [fb:0]</title>
<ellipse fill="none" stroke="black" cx="332.09" cy="-234" rx="153.27" ry="18"/>
<text text-anchor="middle" x="332.09" y="-230.3" font-family="Times,serif" font-size="14.00">Carlos Costa,976849055 [fb:0]</text>
</g>
<!-- Carlos Moura,973688088 [fb:0] -->
<g id="node2" class="node">
<title>Carlos Moura,973688088 [fb:0]</title>
<ellipse fill="none" stroke="black" cx="165.09" cy="-162" rx="157.07" ry="18"/>
<text text-anchor="middle" x="165.09" y="-158.3" font-family="Times,serif" font-size="14.00">Carlos Moura,973688088 [fb:0]</text>
</g>
<!-- Carlos Costa,976849055 [fb:0]&#45;&gt;Carlos Moura,973688088 [fb:0] -->
<g id="edge1" class="edge">
<title>Carlos Costa,976849055 [fb:0]&#45;&gt;Carlos Moura,973688088 [fb:0]</title>
<path fill="none" stroke="black" d="M292.93,-216.59C269.34,-206.7 239.09,-194.02 213.94,-183.48"/>
<polygon fill="black" stroke="black" points="215.15,-180.19 204.57,-179.55 212.44,-186.65 215.15,-180.19"/>
</g>
<!-- Carlos Freitas,990775211 [fb:0] -->
<g id="node5" class="node">
<title>Carlos Freitas,990775211 [fb:0]</title>
<ellipse fill="none" stroke="black" cx="500.09" cy="-162" rx="159.77" ry="18"/>
<text text-anchor="middle" x="500.09" y="-158.3" font-family="Times,serif" font-size="14.00">Carlos Freitas,990775211 [fb:0]</text>
</g>
<!-- Carlos Costa,976849055 [fb:0]&#45;&gt;Carlos Freitas,990775211 [fb:0] -->
<g id="edge4" class="edge">
<title>Carlos Costa,976849055 [fb:0]&#45;&gt;Carlos Freitas,990775211 [fb:0]</title>
<path fill="none" stroke="black" d="M371.47,-216.59C395.21,-206.7 425.64,-194.02 450.94,-183.48"/>
<polygon fill="black" stroke="black" points="452.48,-186.63 460.36,-179.55 449.78,-180.17 452.48,-186.63"/>
</g>
<!-- Carlos Torres,950852179 [fb:0] -->
<g id="node3" class="node">
<title>Carlos Torres,950852179 [fb:0]</title>
<ellipse fill="none" stroke="black" cx="165.09" cy="-90" rx="156.77" ry="18"/>
<text text-anchor="middle" x="165.09" y="-86.3" font-family="Times,serif" font-size="14.00">Carlos Torres,950852179 [fb:0]</text>
</g>
<!-- Carlos Moura,973688088 [fb:0]&#45;&gt;Carlos Torres,950852179 [fb:0] -->
<g id="edge2" class="edge">
<title>Carlos Moura,973688088 [fb:0]&#45;&gt;Carlos Torres,950852179 [fb:0]</title>
<path fill="none" stroke="black" d="M165.09,-143.7C165.09,-135.98 165.09,-126.71 165.09,-118.11"/>
<polygon fill="black" stroke="black" points="168.59,-118.1 165.09,-108.1 161.59,-118.1 168.59,-118.1"/>
</g>
<!-- Carlos Barbosa,971596197 [fb:0] -->
<g id="node4" class="node">
<title>Carlos Barbosa,971596197 [fb:0]</title>
<ellipse fill="none" stroke="black" cx="165.09" cy="-18" rx="165.17" ry="18"/>
<text text-anchor="middle" x="165.09" y="-14.3" font-family="Times,serif" font-size="14.00">Carlos Barbosa,971596197 [fb:0]</text>
</g>
<!-- Carlos Torres,950852179 [fb:0]&#45;&gt;Carlos Barbosa,971596197 [fb:0] -->
<g id="edge3" class="edge">
<title>Carlos Torres,950852179 [fb:0]&#45;&gt;Carlos Barbosa,971596197 [fb:0]</title>
<path fill="none" stroke="black" d="M165.09,-71.7C165.09,-63.98 165.09,-54.71 165.09,-46.11"/>
<polygon fill="black" stroke="black" points="168.59,-46.1 165.09,-36.1 161.59,-46.1 168.59,-46.1"/>
</g>
<!-- Carlos Coelho,991472947 [fb:0] -->
<g id="node6" class="node">
<title>Carlos Coelho,991472947 [fb:0]</title>
<ellipse fill="none" stroke="black" cx="500.09" cy="-90" rx="158.67" ry="18"/>
<text text-anchor="middle" x="500.09" y="-86.3" font-family="Times,serif" font-size="14.00">Carlos Coelho,991472947 [fb:0]</text>
</g>
<!-- Carlos Freitas,990775211 [fb:0]&#45;&gt;Carlos Coelho,991472947 [fb:0] -->
<g id="edge5" class="edge">
<title>Carlos Freitas,990775211 [fb:0]&#45;&gt;Carlos Coelho,991472947 [fb:0]</title>
<path fill="none" stroke="black" d="M500.09,-143.7C500.09,-135.98 500.09,-126.71 500.09,-118.11"/>
<polygon fill="black" stroke="black" points="503.59,-118.1 500.09,-108.1 496.59,-118.1 503.59,-118.1"/>
</g>
</g>
</svg>
