<?xml version="1.0" encoding="UTF-8" standalone="no"?>
<!DOCTYPE svg PUBLIC "-//W3C//DTD SVG 1.1//EN"
 "http://www.w3.org/Graphics/SVG/1.1/DTD/svg11.dtd">
<!-- Generated by graphviz version 2.43.0 (0)
 -->
<!-- Title: BST Pages: 1 -->
<svg width="469pt" height="385pt"
 viewBox="0.00 0.00 468.95 384.86" xmlns="http://www.w3.org/2000/svg" xmlns:xlink="http://www.w3.org/1999/xlink">
<g id="graph0" class="graph" transform="scale(1 1) rotate(0) translate(4 380.86)">
<title>BST</title>
<polygon fill="white" stroke="transparent" points="-4,4 -4,-380.86 464.95,-380.86 464.95,4 -4,4"/>
<!-- No_980733597 -->
<g id="node1" class="node">
<title>No_980733597</title>
<ellipse fill="none" stroke="black" cx="256.95" cy="-339.38" rx="69.09" ry="37.45"/>
<text text-anchor="middle" x="256.95" y="-350.68" font-family="Times,serif" font-size="14.00">Yago Costa</text>
<text text-anchor="middle" x="256.95" y="-335.68" font-family="Times,serif" font-size="14.00">980733597</text>
<text text-anchor="middle" x="256.95" y="-320.68" font-family="Times,serif" font-size="14.00">fb=0</text>
</g>
<!-- No_980460411 -->
<g id="node2" class="node">
<title>No_980460411</title>
<ellipse fill="none" stroke="black" cx="177.95" cy="-228.43" rx="69.09" ry="37.45"/>
<text text-anchor="middle" x="177.95" y="-239.73" font-family="Times,serif" font-size="14.00">Yago Souza</text>
<text text-anchor="middle" x="177.95" y="-224.73" font-family="Times,serif" font-size="14.00">980460411</text>
<text text-anchor="middle" x="177.95" y="-209.73" font-family="Times,serif" font-size="14.00">fb=&#45;1</text>
</g>
<!-- No_980733597&#45;&gt;No_980460411 -->
<g id="edge1" class="edge">
<title>No_980733597&#45;&gt;No_980460411</title>
<path fill="none" stroke="black" d="M232.17,-304.21C224.67,-293.86 216.35,-282.38 208.52,-271.58"/>
<polygon fill="black" stroke="black" points="211.35,-269.52 202.64,-263.48 205.68,-273.63 211.35,-269.52"/>
</g>
<!-- No_995110918 -->
<g id="node7" class="node">
<title>No_995110918</title>
<ellipse fill="none" stroke="black" cx="336.95" cy="-228.43" rx="71.34" ry="37.45"/>
<text text-anchor="middle" x="336.95" y="-239.73" font-family="Times,serif" font-size="14.00">Yago Moura</text>
<text text-anchor="middle" x="336.95" y="-224.73" font-family="Times,serif" font-size="14.00">995110918</text>
<text text-anchor="middle" x="336.95" y="-209.73" font-family="Times,serif" font-size="14.00">fb=&#45;1</text>
</g>
<!-- No_980733597&#45;&gt;No_995110918 -->
<g id="edge6" class="edge">
<title>No_980733597&#45;&gt;No_995110918</title>
<path fill="none" stroke="black" d="M282.05,-304.21C289.49,-294.06 297.75,-282.82 305.54,-272.21"/>
<polygon fill="black" stroke="black" points="308.58,-273.99 311.67,-263.86 302.93,-269.85 308.58,-273.99"/>
</g>
<!-- No_977141888 -->
<g id="node3" class="node">
<title>No_977141888</title>
<ellipse fill="none" stroke="black" cx="74.95" cy="-117.48" rx="74.91" ry="37.45"/>
<text text-anchor="middle" x="74.95" y="-128.78" font-family="Times,serif" font-size="14.00">Yago Freitas</text>
<text text-anchor="middle" x="74.95" y="-113.78" font-family="Times,serif" font-size="14.00">977141888</text>
<text text-anchor="middle" x="74.95" y="-98.78" font-family="Times,serif" font-size="14.00">fb=0</text>
</g>
<!-- No_980460411&#45;&gt;No_977141888 -->
<g id="edge2" class="edge">
<title>No_980460411&#45;&gt;No_977141888</title>
<path fill="none" stroke="black" d="M147.05,-194.74C136.55,-183.63 124.68,-171.08 113.65,-159.41"/>
<polygon fill="black" stroke="black" points="115.96,-156.76 106.55,-151.9 110.87,-161.57 115.96,-156.76"/>
</g>
<!-- NUL_2 -->
<g id="node6" class="node">
<title>NUL_2</title>
<polygon fill="none" stroke="black" points="211.95,-139.48 167.95,-139.48 167.95,-95.48 211.95,-95.48 211.95,-139.48"/>
<text text-anchor="middle" x="189.95" y="-113.78" font-family="Times,serif" font-size="14.00">null</text>
</g>
<!-- No_980460411&#45;&gt;NUL_2 -->
<g id="edge5" class="edge">
<title>No_980460411&#45;&gt;NUL_2</title>
<path fill="none" stroke="black" d="M181.98,-190.85C183.45,-177.52 185.1,-162.58 186.51,-149.75"/>
<polygon fill="black" stroke="black" points="190.02,-149.88 187.63,-139.55 183.06,-149.11 190.02,-149.88"/>
</g>
<!-- NUL_0 -->
<g id="node4" class="node">
<title>NUL_0</title>
<polygon fill="none" stroke="black" points="65.95,-44 21.95,-44 21.95,0 65.95,0 65.95,-44"/>
<text text-anchor="middle" x="43.95" y="-18.3" font-family="Times,serif" font-size="14.00">null</text>
</g>
<!-- No_977141888&#45;&gt;NUL_0 -->
<g id="edge3" class="edge">
<title>No_977141888&#45;&gt;NUL_0</title>
<path fill="none" stroke="black" d="M62.97,-80.34C60.05,-71.55 56.96,-62.23 54.14,-53.72"/>
<polygon fill="black" stroke="black" points="57.45,-52.57 50.98,-44.18 50.8,-54.77 57.45,-52.57"/>
</g>
<!-- NUL_1 -->
<g id="node5" class="node">
<title>NUL_1</title>
<polygon fill="none" stroke="black" points="127.95,-44 83.95,-44 83.95,0 127.95,0 127.95,-44"/>
<text text-anchor="middle" x="105.95" y="-18.3" font-family="Times,serif" font-size="14.00">null</text>
</g>
<!-- No_977141888&#45;&gt;NUL_1 -->
<g id="edge4" class="edge">
<title>No_977141888&#45;&gt;NUL_1</title>
<path fill="none" stroke="black" d="M86.94,-80.34C89.85,-71.55 92.94,-62.23 95.77,-53.72"/>
<polygon fill="black" stroke="black" points="99.1,-54.77 98.93,-44.18 92.46,-52.57 99.1,-54.77"/>
</g>
<!-- No_988932196 -->
<g id="node8" class="node">
<title>No_988932196</title>
<ellipse fill="none" stroke="black" cx="325.95" cy="-117.48" rx="72.66" ry="37.45"/>
<text text-anchor="middle" x="325.95" y="-128.78" font-family="Times,serif" font-size="14.00">Yago Barros</text>
<text text-anchor="middle" x="325.95" y="-113.78" font-family="Times,serif" font-size="14.00">988932196</text>
<text text-anchor="middle" x="325.95" y="-98.78" font-family="Times,serif" font-size="14.00">fb=0</text>
</g>
<!-- No_995110918&#45;&gt;No_988932196 -->
<g id="edge7" class="edge">
<title>No_995110918&#45;&gt;No_988932196</title>
<path fill="none" stroke="black" d="M333.26,-190.85C332.43,-182.67 331.55,-173.89 330.69,-165.37"/>
<polygon fill="black" stroke="black" points="334.14,-164.75 329.66,-155.15 327.18,-165.45 334.14,-164.75"/>
</g>
<!-- NUL_5 -->
<g id="node11" class="node">
<title>NUL_5</title>
<polygon fill="none" stroke="black" points="460.95,-139.48 416.95,-139.48 416.95,-95.48 460.95,-95.48 460.95,-139.48"/>
<text text-anchor="middle" x="438.95" y="-113.78" font-family="Times,serif" font-size="14.00">null</text>
</g>
<!-- No_995110918&#45;&gt;NUL_5 -->
<g id="edge10" class="edge">
<title>No_995110918&#45;&gt;NUL_5</title>
<path fill="none" stroke="black" d="M369.62,-195.07C381.84,-182.7 395.72,-168.35 407.95,-154.95 410.19,-152.5 412.49,-149.92 414.77,-147.32"/>
<polygon fill="black" stroke="black" points="417.61,-149.39 421.5,-139.53 412.31,-144.81 417.61,-149.39"/>
</g>
<!-- NUL_3 -->
<g id="node9" class="node">
<title>NUL_3</title>
<polygon fill="none" stroke="black" points="316.95,-44 272.95,-44 272.95,0 316.95,0 316.95,-44"/>
<text text-anchor="middle" x="294.95" y="-18.3" font-family="Times,serif" font-size="14.00">null</text>
</g>
<!-- No_988932196&#45;&gt;NUL_3 -->
<g id="edge8" class="edge">
<title>No_988932196&#45;&gt;NUL_3</title>
<path fill="none" stroke="black" d="M313.97,-80.34C311.05,-71.55 307.96,-62.23 305.14,-53.72"/>
<polygon fill="black" stroke="black" points="308.45,-52.57 301.98,-44.18 301.8,-54.77 308.45,-52.57"/>
</g>
<!-- NUL_4 -->
<g id="node10" class="node">
<title>NUL_4</title>
<polygon fill="none" stroke="black" points="378.95,-44 334.95,-44 334.95,0 378.95,0 378.95,-44"/>
<text text-anchor="middle" x="356.95" y="-18.3" font-family="Times,serif" font-size="14.00">null</text>
</g>
<!-- No_988932196&#45;&gt;NUL_4 -->
<g id="edge9" class="edge">
<title>No_988932196&#45;&gt;NUL_4</title>
<path fill="none" stroke="black" d="M337.94,-80.34C340.85,-71.55 343.94,-62.23 346.77,-53.72"/>
<polygon fill="black" stroke="black" points="350.1,-54.77 349.93,-44.18 343.46,-52.57 350.1,-54.77"/>
</g>
</g>
</svg>
