<?xml version="1.0" encoding="UTF-8" standalone="no"?>
<!DOCTYPE svg PUBLIC "-//W3C//DTD SVG 1.1//EN"
 "http://www.w3.org/Graphics/SVG/1.1/DTD/svg11.dtd">
<!-- Generated by graphviz version 2.43.0 (0)
 -->
<!-- Title: BST Pages: 1 -->
<svg width="973pt" height="607pt"
 viewBox="0.00 0.00 972.95 606.77" xmlns="http://www.w3.org/2000/svg" xmlns:xlink="http://www.w3.org/1999/xlink">
<g id="graph0" class="graph" transform="scale(1 1) rotate(0) translate(4 602.77)">
<title>BST</title>
<polygon fill="white" stroke="transparent" points="-4,4 -4,-602.77 968.95,-602.77 968.95,4 -4,4"/>
<!-- No_985278999 -->
<g id="node1" class="node">
<title>No_985278999</title>
<ellipse fill="none" stroke="black" cx="541.95" cy="-561.29" rx="75.82" ry="37.45"/>
<text text-anchor="middle" x="541.95" y="-572.59" font-family="Times,serif" font-size="14.00">Acir Campos</text>
<text text-anchor="middle" x="541.95" y="-557.59" font-family="Times,serif" font-size="14.00">985278999</text>
<text text-anchor="middle" x="541.95" y="-542.59" font-family="Times,serif" font-size="14.00">fb=&#45;1</text>
</g>
<!-- No_964642705 -->
<g id="node2" class="node">
<title>No_964642705</title>
<ellipse fill="none" stroke="black" cx="441.95" cy="-450.34" rx="78.48" ry="37.45"/>
<text text-anchor="middle" x="441.95" y="-461.64" font-family="Times,serif" font-size="14.00">Alícia Freitas</text>
<text text-anchor="middle" x="441.95" y="-446.64" font-family="Times,serif" font-size="14.00">964642705</text>
<text text-anchor="middle" x="441.95" y="-431.64" font-family="Times,serif" font-size="14.00">fb=1</text>
</g>
<!-- No_985278999&#45;&gt;No_964642705 -->
<g id="edge1" class="edge">
<title>No_985278999&#45;&gt;No_964642705</title>
<path fill="none" stroke="black" d="M511.13,-526.71C501.25,-515.94 490.19,-503.89 479.85,-492.63"/>
<polygon fill="black" stroke="black" points="482.18,-489.99 472.84,-484.99 477.03,-494.73 482.18,-489.99"/>
</g>
<!-- No_994116870 -->
<g id="node15" class="node">
<title>No_994116870</title>
<ellipse fill="none" stroke="black" cx="684.95" cy="-450.34" rx="98.99" ry="37.45"/>
<text text-anchor="middle" x="684.95" y="-461.64" font-family="Times,serif" font-size="14.00">Alexandra Moura</text>
<text text-anchor="middle" x="684.95" y="-446.64" font-family="Times,serif" font-size="14.00">994116870</text>
<text text-anchor="middle" x="684.95" y="-431.64" font-family="Times,serif" font-size="14.00">fb=&#45;1</text>
</g>
<!-- No_985278999&#45;&gt;No_994116870 -->
<g id="edge14" class="edge">
<title>No_985278999&#45;&gt;No_994116870</title>
<path fill="none" stroke="black" d="M582.55,-529.36C598.44,-517.25 616.86,-503.22 633.66,-490.42"/>
<polygon fill="black" stroke="black" points="635.92,-493.09 641.76,-484.25 631.68,-487.52 635.92,-493.09"/>
</g>
<!-- No_960933790 -->
<g id="node3" class="node">
<title>No_960933790</title>
<ellipse fill="none" stroke="black" cx="189.95" cy="-339.38" rx="85.62" ry="37.45"/>
<text text-anchor="middle" x="189.95" y="-350.68" font-family="Times,serif" font-size="14.00">Andrea Santos</text>
<text text-anchor="middle" x="189.95" y="-335.68" font-family="Times,serif" font-size="14.00">960933790</text>
<text text-anchor="middle" x="189.95" y="-320.68" font-family="Times,serif" font-size="14.00">fb=1</text>
</g>
<!-- No_964642705&#45;&gt;No_960933790 -->
<g id="edge2" class="edge">
<title>No_964642705&#45;&gt;No_960933790</title>
<path fill="none" stroke="black" d="M384.77,-424.61C347.53,-408.51 298.72,-387.41 259.28,-370.36"/>
<polygon fill="black" stroke="black" points="260.55,-367.09 249.98,-366.34 257.77,-373.52 260.55,-367.09"/>
</g>
<!-- No_967387182 -->
<g id="node8" class="node">
<title>No_967387182</title>
<ellipse fill="none" stroke="black" cx="441.95" cy="-339.38" rx="91.43" ry="37.45"/>
<text text-anchor="middle" x="441.95" y="-350.68" font-family="Times,serif" font-size="14.00">Alfredo Martins</text>
<text text-anchor="middle" x="441.95" y="-335.68" font-family="Times,serif" font-size="14.00">967387182</text>
<text text-anchor="middle" x="441.95" y="-320.68" font-family="Times,serif" font-size="14.00">fb=0</text>
</g>
<!-- No_964642705&#45;&gt;No_967387182 -->
<g id="edge7" class="edge">
<title>No_964642705&#45;&gt;No_967387182</title>
<path fill="none" stroke="black" d="M441.95,-412.75C441.95,-404.58 441.95,-395.8 441.95,-387.27"/>
<polygon fill="black" stroke="black" points="445.45,-387.06 441.95,-377.06 438.45,-387.06 445.45,-387.06"/>
</g>
<!-- No_955838599 -->
<g id="node4" class="node">
<title>No_955838599</title>
<ellipse fill="none" stroke="black" cx="74.95" cy="-228.43" rx="74.91" ry="37.45"/>
<text text-anchor="middle" x="74.95" y="-239.73" font-family="Times,serif" font-size="14.00">Aline Santos</text>
<text text-anchor="middle" x="74.95" y="-224.73" font-family="Times,serif" font-size="14.00">955838599</text>
<text text-anchor="middle" x="74.95" y="-209.73" font-family="Times,serif" font-size="14.00">fb=0</text>
</g>
<!-- No_960933790&#45;&gt;No_955838599 -->
<g id="edge3" class="edge">
<title>No_960933790&#45;&gt;No_955838599</title>
<path fill="none" stroke="black" d="M154.82,-305.1C142.9,-293.8 129.45,-281.07 117.04,-269.31"/>
<polygon fill="black" stroke="black" points="119.14,-266.47 109.47,-262.13 114.32,-271.55 119.14,-266.47"/>
</g>
<!-- NUL_2 -->
<g id="node7" class="node">
<title>NUL_2</title>
<polygon fill="none" stroke="black" points="211.95,-250.43 167.95,-250.43 167.95,-206.43 211.95,-206.43 211.95,-250.43"/>
<text text-anchor="middle" x="189.95" y="-224.73" font-family="Times,serif" font-size="14.00">null</text>
</g>
<!-- No_960933790&#45;&gt;NUL_2 -->
<g id="edge6" class="edge">
<title>No_960933790&#45;&gt;NUL_2</title>
<path fill="none" stroke="black" d="M189.95,-301.8C189.95,-288.47 189.95,-273.53 189.95,-260.7"/>
<polygon fill="black" stroke="black" points="193.45,-260.51 189.95,-250.51 186.45,-260.51 193.45,-260.51"/>
</g>
<!-- NUL_0 -->
<g id="node5" class="node">
<title>NUL_0</title>
<polygon fill="none" stroke="black" points="65.95,-139.48 21.95,-139.48 21.95,-95.48 65.95,-95.48 65.95,-139.48"/>
<text text-anchor="middle" x="43.95" y="-113.78" font-family="Times,serif" font-size="14.00">null</text>
</g>
<!-- No_955838599&#45;&gt;NUL_0 -->
<g id="edge4" class="edge">
<title>No_955838599&#45;&gt;NUL_0</title>
<path fill="none" stroke="black" d="M64.63,-191.15C60.79,-177.67 56.48,-162.51 52.79,-149.53"/>
<polygon fill="black" stroke="black" points="56.09,-148.33 49.98,-139.67 49.35,-150.25 56.09,-148.33"/>
</g>
<!-- NUL_1 -->
<g id="node6" class="node">
<title>NUL_1</title>
<polygon fill="none" stroke="black" points="127.95,-139.48 83.95,-139.48 83.95,-95.48 127.95,-95.48 127.95,-139.48"/>
<text text-anchor="middle" x="105.95" y="-113.78" font-family="Times,serif" font-size="14.00">null</text>
</g>
<!-- No_955838599&#45;&gt;NUL_1 -->
<g id="edge5" class="edge">
<title>No_955838599&#45;&gt;NUL_1</title>
<path fill="none" stroke="black" d="M85.28,-191.15C89.11,-177.67 93.43,-162.51 97.12,-149.53"/>
<polygon fill="black" stroke="black" points="100.55,-150.25 99.92,-139.67 93.82,-148.33 100.55,-150.25"/>
</g>
<!-- No_965115082 -->
<g id="node9" class="node">
<title>No_965115082</title>
<ellipse fill="none" stroke="black" cx="305.95" cy="-228.43" rx="75.82" ry="37.45"/>
<text text-anchor="middle" x="305.95" y="-239.73" font-family="Times,serif" font-size="14.00">Ana Barbosa</text>
<text text-anchor="middle" x="305.95" y="-224.73" font-family="Times,serif" font-size="14.00">965115082</text>
<text text-anchor="middle" x="305.95" y="-209.73" font-family="Times,serif" font-size="14.00">fb=0</text>
</g>
<!-- No_967387182&#45;&gt;No_965115082 -->
<g id="edge8" class="edge">
<title>No_967387182&#45;&gt;No_965115082</title>
<path fill="none" stroke="black" d="M401.15,-305.69C385.96,-293.52 368.6,-279.62 352.9,-267.04"/>
<polygon fill="black" stroke="black" points="354.86,-264.12 344.86,-260.6 350.48,-269.59 354.86,-264.12"/>
</g>
<!-- No_975960513 -->
<g id="node12" class="node">
<title>No_975960513</title>
<ellipse fill="none" stroke="black" cx="472.95" cy="-228.43" rx="73.58" ry="37.45"/>
<text text-anchor="middle" x="472.95" y="-239.73" font-family="Times,serif" font-size="14.00">Altair Souza</text>
<text text-anchor="middle" x="472.95" y="-224.73" font-family="Times,serif" font-size="14.00">975960513</text>
<text text-anchor="middle" x="472.95" y="-209.73" font-family="Times,serif" font-size="14.00">fb=0</text>
</g>
<!-- No_967387182&#45;&gt;No_975960513 -->
<g id="edge11" class="edge">
<title>No_967387182&#45;&gt;No_975960513</title>
<path fill="none" stroke="black" d="M452.28,-302.1C454.71,-293.56 457.33,-284.34 459.87,-275.43"/>
<polygon fill="black" stroke="black" points="463.31,-276.13 462.68,-265.55 456.57,-274.21 463.31,-276.13"/>
</g>
<!-- NUL_3 -->
<g id="node10" class="node">
<title>NUL_3</title>
<polygon fill="none" stroke="black" points="286.95,-139.48 242.95,-139.48 242.95,-95.48 286.95,-95.48 286.95,-139.48"/>
<text text-anchor="middle" x="264.95" y="-113.78" font-family="Times,serif" font-size="14.00">null</text>
</g>
<!-- No_965115082&#45;&gt;NUL_3 -->
<g id="edge9" class="edge">
<title>No_965115082&#45;&gt;NUL_3</title>
<path fill="none" stroke="black" d="M292.41,-191.45C287.28,-177.82 281.49,-162.43 276.56,-149.32"/>
<polygon fill="black" stroke="black" points="279.77,-147.92 272.97,-139.79 273.22,-150.39 279.77,-147.92"/>
</g>
<!-- NUL_4 -->
<g id="node11" class="node">
<title>NUL_4</title>
<polygon fill="none" stroke="black" points="348.95,-139.48 304.95,-139.48 304.95,-95.48 348.95,-95.48 348.95,-139.48"/>
<text text-anchor="middle" x="326.95" y="-113.78" font-family="Times,serif" font-size="14.00">null</text>
</g>
<!-- No_965115082&#45;&gt;NUL_4 -->
<g id="edge10" class="edge">
<title>No_965115082&#45;&gt;NUL_4</title>
<path fill="none" stroke="black" d="M313,-190.85C315.57,-177.52 318.45,-162.58 320.93,-149.75"/>
<polygon fill="black" stroke="black" points="324.43,-150.04 322.89,-139.55 317.56,-148.71 324.43,-150.04"/>
</g>
<!-- NUL_5 -->
<g id="node13" class="node">
<title>NUL_5</title>
<polygon fill="none" stroke="black" points="463.95,-139.48 419.95,-139.48 419.95,-95.48 463.95,-95.48 463.95,-139.48"/>
<text text-anchor="middle" x="441.95" y="-113.78" font-family="Times,serif" font-size="14.00">null</text>
</g>
<!-- No_975960513&#45;&gt;NUL_5 -->
<g id="edge12" class="edge">
<title>No_975960513&#45;&gt;NUL_5</title>
<path fill="none" stroke="black" d="M462.63,-191.15C458.79,-177.67 454.48,-162.51 450.79,-149.53"/>
<polygon fill="black" stroke="black" points="454.09,-148.33 447.98,-139.67 447.35,-150.25 454.09,-148.33"/>
</g>
<!-- NUL_6 -->
<g id="node14" class="node">
<title>NUL_6</title>
<polygon fill="none" stroke="black" points="525.95,-139.48 481.95,-139.48 481.95,-95.48 525.95,-95.48 525.95,-139.48"/>
<text text-anchor="middle" x="503.95" y="-113.78" font-family="Times,serif" font-size="14.00">null</text>
</g>
<!-- No_975960513&#45;&gt;NUL_6 -->
<g id="edge13" class="edge">
<title>No_975960513&#45;&gt;NUL_6</title>
<path fill="none" stroke="black" d="M483.28,-191.15C487.11,-177.67 491.43,-162.51 495.12,-149.53"/>
<polygon fill="black" stroke="black" points="498.55,-150.25 497.92,-139.67 491.82,-148.33 498.55,-150.25"/>
</g>
<!-- No_987671978 -->
<g id="node16" class="node">
<title>No_987671978</title>
<ellipse fill="none" stroke="black" cx="684.95" cy="-339.38" rx="90.52" ry="37.45"/>
<text text-anchor="middle" x="684.95" y="-350.68" font-family="Times,serif" font-size="14.00">Adriana Pereira</text>
<text text-anchor="middle" x="684.95" y="-335.68" font-family="Times,serif" font-size="14.00">987671978</text>
<text text-anchor="middle" x="684.95" y="-320.68" font-family="Times,serif" font-size="14.00">fb=&#45;1</text>
</g>
<!-- No_994116870&#45;&gt;No_987671978 -->
<g id="edge15" class="edge">
<title>No_994116870&#45;&gt;No_987671978</title>
<path fill="none" stroke="black" d="M684.95,-412.75C684.95,-404.58 684.95,-395.8 684.95,-387.27"/>
<polygon fill="black" stroke="black" points="688.45,-387.06 684.95,-377.06 681.45,-387.06 688.45,-387.06"/>
</g>
<!-- No_997285865 -->
<g id="node23" class="node">
<title>No_997285865</title>
<ellipse fill="none" stroke="black" cx="880.95" cy="-339.38" rx="74.91" ry="37.45"/>
<text text-anchor="middle" x="880.95" y="-350.68" font-family="Times,serif" font-size="14.00">Almir Torres</text>
<text text-anchor="middle" x="880.95" y="-335.68" font-family="Times,serif" font-size="14.00">997285865</text>
<text text-anchor="middle" x="880.95" y="-320.68" font-family="Times,serif" font-size="14.00">fb=0</text>
</g>
<!-- No_994116870&#45;&gt;No_997285865 -->
<g id="edge22" class="edge">
<title>No_994116870&#45;&gt;No_997285865</title>
<path fill="none" stroke="black" d="M739.55,-418.99C765.5,-404.56 796.54,-387.31 822.92,-372.64"/>
<polygon fill="black" stroke="black" points="824.63,-375.7 831.67,-367.78 821.23,-369.58 824.63,-375.7"/>
</g>
<!-- No_986979432 -->
<g id="node17" class="node">
<title>No_986979432</title>
<ellipse fill="none" stroke="black" cx="671.95" cy="-228.43" rx="107.46" ry="37.45"/>
<text text-anchor="middle" x="671.95" y="-239.73" font-family="Times,serif" font-size="14.00">Américo Rodrigues</text>
<text text-anchor="middle" x="671.95" y="-224.73" font-family="Times,serif" font-size="14.00">986979432</text>
<text text-anchor="middle" x="671.95" y="-209.73" font-family="Times,serif" font-size="14.00">fb=0</text>
</g>
<!-- No_987671978&#45;&gt;No_986979432 -->
<g id="edge16" class="edge">
<title>No_987671978&#45;&gt;No_986979432</title>
<path fill="none" stroke="black" d="M680.59,-301.8C679.6,-293.54 678.54,-284.65 677.51,-276.04"/>
<polygon fill="black" stroke="black" points="680.99,-275.62 676.33,-266.1 674.04,-276.45 680.99,-275.62"/>
</g>
<!-- NUL_10 -->
<g id="node22" class="node">
<title>NUL_10</title>
<polygon fill="none" stroke="black" points="840.95,-250.43 796.95,-250.43 796.95,-206.43 840.95,-206.43 840.95,-250.43"/>
<text text-anchor="middle" x="818.95" y="-224.73" font-family="Times,serif" font-size="14.00">null</text>
</g>
<!-- No_987671978&#45;&gt;NUL_10 -->
<g id="edge21" class="edge">
<title>No_987671978&#45;&gt;NUL_10</title>
<path fill="none" stroke="black" d="M733.78,-307.76C751.59,-295.64 771.4,-281.02 787.95,-265.91 790.47,-263.61 792.98,-261.11 795.41,-258.54"/>
<polygon fill="black" stroke="black" points="798.36,-260.49 802.43,-250.71 793.15,-255.82 798.36,-260.49"/>
</g>
<!-- NUL_7 -->
<g id="node18" class="node">
<title>NUL_7</title>
<polygon fill="none" stroke="black" points="655.95,-139.48 611.95,-139.48 611.95,-95.48 655.95,-95.48 655.95,-139.48"/>
<text text-anchor="middle" x="633.95" y="-113.78" font-family="Times,serif" font-size="14.00">null</text>
</g>
<!-- No_986979432&#45;&gt;NUL_7 -->
<g id="edge17" class="edge">
<title>No_986979432&#45;&gt;NUL_7</title>
<path fill="none" stroke="black" d="M659.3,-191.15C654.55,-177.54 649.21,-162.21 644.65,-149.15"/>
<polygon fill="black" stroke="black" points="647.94,-147.96 641.35,-139.67 641.33,-150.27 647.94,-147.96"/>
</g>
<!-- No_987340734 -->
<g id="node19" class="node">
<title>No_987340734</title>
<ellipse fill="none" stroke="black" cx="772.95" cy="-117.48" rx="98.99" ry="37.45"/>
<text text-anchor="middle" x="772.95" y="-128.78" font-family="Times,serif" font-size="14.00">Antônia Machado</text>
<text text-anchor="middle" x="772.95" y="-113.78" font-family="Times,serif" font-size="14.00">987340734</text>
<text text-anchor="middle" x="772.95" y="-98.78" font-family="Times,serif" font-size="14.00">fb=0</text>
</g>
<!-- No_986979432&#45;&gt;No_987340734 -->
<g id="edge18" class="edge">
<title>No_986979432&#45;&gt;No_987340734</title>
<path fill="none" stroke="black" d="M704.19,-192.66C713.57,-182.53 723.93,-171.36 733.69,-160.83"/>
<polygon fill="black" stroke="black" points="736.45,-163.01 740.68,-153.29 731.31,-158.25 736.45,-163.01"/>
</g>
<!-- NUL_8 -->
<g id="node20" class="node">
<title>NUL_8</title>
<polygon fill="none" stroke="black" points="763.95,-44 719.95,-44 719.95,0 763.95,0 763.95,-44"/>
<text text-anchor="middle" x="741.95" y="-18.3" font-family="Times,serif" font-size="14.00">null</text>
</g>
<!-- No_987340734&#45;&gt;NUL_8 -->
<g id="edge19" class="edge">
<title>No_987340734&#45;&gt;NUL_8</title>
<path fill="none" stroke="black" d="M760.88,-80.07C757.97,-71.3 754.89,-62.02 752.08,-53.55"/>
<polygon fill="black" stroke="black" points="755.41,-52.45 748.94,-44.06 748.76,-54.65 755.41,-52.45"/>
</g>
<!-- NUL_9 -->
<g id="node21" class="node">
<title>NUL_9</title>
<polygon fill="none" stroke="black" points="825.95,-44 781.95,-44 781.95,0 825.95,0 825.95,-44"/>
<text text-anchor="middle" x="803.95" y="-18.3" font-family="Times,serif" font-size="14.00">null</text>
</g>
<!-- No_987340734&#45;&gt;NUL_9 -->
<g id="edge20" class="edge">
<title>No_987340734&#45;&gt;NUL_9</title>
<path fill="none" stroke="black" d="M785.03,-80.07C787.94,-71.3 791.01,-62.02 793.82,-53.55"/>
<polygon fill="black" stroke="black" points="797.14,-54.65 796.97,-44.06 790.5,-52.45 797.14,-54.65"/>
</g>
<!-- NUL_11 -->
<g id="node24" class="node">
<title>NUL_11</title>
<polygon fill="none" stroke="black" points="902.95,-250.43 858.95,-250.43 858.95,-206.43 902.95,-206.43 902.95,-250.43"/>
<text text-anchor="middle" x="880.95" y="-224.73" font-family="Times,serif" font-size="14.00">null</text>
</g>
<!-- No_997285865&#45;&gt;NUL_11 -->
<g id="edge23" class="edge">
<title>No_997285865&#45;&gt;NUL_11</title>
<path fill="none" stroke="black" d="M880.95,-301.8C880.95,-288.47 880.95,-273.53 880.95,-260.7"/>
<polygon fill="black" stroke="black" points="884.45,-260.51 880.95,-250.51 877.45,-260.51 884.45,-260.51"/>
</g>
<!-- NUL_12 -->
<g id="node25" class="node">
<title>NUL_12</title>
<polygon fill="none" stroke="black" points="964.95,-250.43 920.95,-250.43 920.95,-206.43 964.95,-206.43 964.95,-250.43"/>
<text text-anchor="middle" x="942.95" y="-224.73" font-family="Times,serif" font-size="14.00">null</text>
</g>
<!-- No_997285865&#45;&gt;NUL_12 -->
<g id="edge24" class="edge">
<title>No_997285865&#45;&gt;NUL_12</title>
<path fill="none" stroke="black" d="M901.08,-303.01C909.07,-288.97 918.16,-273 925.82,-259.53"/>
<polygon fill="black" stroke="black" points="928.97,-261.09 930.87,-250.66 922.88,-257.62 928.97,-261.09"/>
</g>
</g>
</svg>
