<?xml version="1.0" encoding="UTF-8" standalone="no"?>
<!DOCTYPE svg PUBLIC "-//W3C//DTD SVG 1.1//EN"
 "http://www.w3.org/Graphics/SVG/1.1/DTD/svg11.dtd">
<!-- Generated by graphviz version 2.43.0 (0)
 -->
<!-- Title: BST Pages: 1 -->
<svg width="198pt" height="163pt"
 viewBox="0.00 0.00 197.50 162.95" xmlns="http://www.w3.org/2000/svg" xmlns:xlink="http://www.w3.org/1999/xlink">
<g id="graph0" class="graph" transform="scale(1 1) rotate(0) translate(4 158.95)">
<title>BST</title>
<polygon fill="white" stroke="transparent" points="-4,4 -4,-158.95 193.5,-158.95 193.5,4 -4,4"/>
<!-- No_977798643 -->
<g id="node1" class="node">
<title>No_977798643</title>
<ellipse fill="none" stroke="black" cx="94.75" cy="-117.48" rx="94.51" ry="37.45"/>
<text text-anchor="middle" x="94.75" y="-128.78" font-family="Times,serif" font-size="14.00">Roberto Martins</text>
<text text-anchor="middle" x="94.75" y="-113.78" font-family="Times,serif" font-size="14.00">977798643</text>
<text text-anchor="middle" x="94.75" y="-98.78" font-family="Times,serif" font-size="14.00">fb=0</text>
</g>
<!-- NUL_0 -->
<g id="node2" class="node">
<title>NUL_0</title>
<polygon fill="none" stroke="black" points="85.75,-44 41.75,-44 41.75,0 85.75,0 85.75,-44"/>
<text text-anchor="middle" x="63.75" y="-18.3" font-family="Times,serif" font-size="14.00">null</text>
</g>
<!-- No_977798643&#45;&gt;NUL_0 -->
<g id="edge1" class="edge">
<title>No_977798643&#45;&gt;NUL_0</title>
<path fill="none" stroke="black" d="M82.68,-80.07C79.77,-71.3 76.69,-62.02 73.88,-53.55"/>
<polygon fill="black" stroke="black" points="77.21,-52.45 70.74,-44.06 70.56,-54.65 77.21,-52.45"/>
</g>
<!-- NUL_1 -->
<g id="node3" class="node">
<title>NUL_1</title>
<polygon fill="none" stroke="black" points="147.75,-44 103.75,-44 103.75,0 147.75,0 147.75,-44"/>
<text text-anchor="middle" x="125.75" y="-18.3" font-family="Times,serif" font-size="14.00">null</text>
</g>
<!-- No_977798643&#45;&gt;NUL_1 -->
<g id="edge2" class="edge">
<title>No_977798643&#45;&gt;NUL_1</title>
<path fill="none" stroke="black" d="M106.83,-80.07C109.73,-71.3 112.81,-62.02 115.62,-53.55"/>
<polygon fill="black" stroke="black" points="118.94,-54.65 118.77,-44.06 112.3,-52.45 118.94,-54.65"/>
</g>
</g>
</svg>
