<?xml version="1.0" encoding="UTF-8" standalone="no"?>
<!DOCTYPE svg PUBLIC "-//W3C//DTD SVG 1.1//EN"
 "http://www.w3.org/Graphics/SVG/1.1/DTD/svg11.dtd">
<!-- Generated by graphviz version 2.43.0 (0)
 -->
<!-- Title: BST Pages: 1 -->
<svg width="720pt" height="607pt"
 viewBox="0.00 0.00 720.00 606.77" xmlns="http://www.w3.org/2000/svg" xmlns:xlink="http://www.w3.org/1999/xlink">
<g id="graph0" class="graph" transform="scale(1 1) rotate(0) translate(4 602.77)">
<title>BST</title>
<polygon fill="white" stroke="transparent" points="-4,4 -4,-602.77 716,-602.77 716,4 -4,4"/>
<!-- No_986979432 -->
<g id="node1" class="node">
<title>No_986979432</title>
<ellipse fill="none" stroke="black" cx="293" cy="-561.29" rx="107.46" ry="37.45"/>
<text text-anchor="middle" x="293" y="-572.59" font-family="Times,serif" font-size="14.00">Américo Rodrigues</text>
<text text-anchor="middle" x="293" y="-557.59" font-family="Times,serif" font-size="14.00">986979432</text>
<text text-anchor="middle" x="293" y="-542.59" font-family="Times,serif" font-size="14.00">fb=0</text>
</g>
<!-- No_985278999 -->
<g id="node2" class="node">
<title>No_985278999</title>
<ellipse fill="none" stroke="black" cx="201" cy="-450.34" rx="75.82" ry="37.45"/>
<text text-anchor="middle" x="201" y="-461.64" font-family="Times,serif" font-size="14.00">Acir Campos</text>
<text text-anchor="middle" x="201" y="-446.64" font-family="Times,serif" font-size="14.00">985278999</text>
<text text-anchor="middle" x="201" y="-431.64" font-family="Times,serif" font-size="14.00">fb=&#45;1</text>
</g>
<!-- No_986979432&#45;&gt;No_985278999 -->
<g id="edge1" class="edge">
<title>No_986979432&#45;&gt;No_985278999</title>
<path fill="none" stroke="black" d="M263.38,-525.22C254.76,-515 245.25,-503.75 236.32,-493.16"/>
<polygon fill="black" stroke="black" points="238.74,-490.61 229.62,-485.23 233.4,-495.13 238.74,-490.61"/>
</g>
<!-- No_987671978 -->
<g id="node13" class="node">
<title>No_987671978</title>
<ellipse fill="none" stroke="black" cx="385" cy="-450.34" rx="90.52" ry="37.45"/>
<text text-anchor="middle" x="385" y="-461.64" font-family="Times,serif" font-size="14.00">Adriana Pereira</text>
<text text-anchor="middle" x="385" y="-446.64" font-family="Times,serif" font-size="14.00">987671978</text>
<text text-anchor="middle" x="385" y="-431.64" font-family="Times,serif" font-size="14.00">fb=1</text>
</g>
<!-- No_986979432&#45;&gt;No_987671978 -->
<g id="edge12" class="edge">
<title>No_986979432&#45;&gt;No_987671978</title>
<path fill="none" stroke="black" d="M322.62,-525.22C331.07,-515.2 340.38,-504.18 349.16,-493.78"/>
<polygon fill="black" stroke="black" points="351.98,-495.87 355.75,-485.97 346.63,-491.35 351.98,-495.87"/>
</g>
<!-- No_960933790 -->
<g id="node3" class="node">
<title>No_960933790</title>
<ellipse fill="none" stroke="black" cx="87" cy="-339.38" rx="85.62" ry="37.45"/>
<text text-anchor="middle" x="87" y="-350.68" font-family="Times,serif" font-size="14.00">Andrea Santos</text>
<text text-anchor="middle" x="87" y="-335.68" font-family="Times,serif" font-size="14.00">960933790</text>
<text text-anchor="middle" x="87" y="-320.68" font-family="Times,serif" font-size="14.00">fb=0</text>
</g>
<!-- No_985278999&#45;&gt;No_960933790 -->
<g id="edge2" class="edge">
<title>No_985278999&#45;&gt;No_960933790</title>
<path fill="none" stroke="black" d="M166.8,-416.65C155.06,-405.43 141.79,-392.75 129.48,-380.99"/>
<polygon fill="black" stroke="black" points="131.62,-378.18 121.97,-373.8 126.78,-383.24 131.62,-378.18"/>
</g>
<!-- NUL_5 -->
<g id="node12" class="node">
<title>NUL_5</title>
<polygon fill="none" stroke="black" points="235,-361.38 191,-361.38 191,-317.38 235,-317.38 235,-361.38"/>
<text text-anchor="middle" x="213" y="-335.68" font-family="Times,serif" font-size="14.00">null</text>
</g>
<!-- No_985278999&#45;&gt;NUL_5 -->
<g id="edge11" class="edge">
<title>No_985278999&#45;&gt;NUL_5</title>
<path fill="none" stroke="black" d="M205.03,-412.75C206.5,-399.42 208.14,-384.49 209.56,-371.66"/>
<polygon fill="black" stroke="black" points="213.06,-371.78 210.68,-361.46 206.1,-371.02 213.06,-371.78"/>
</g>
<!-- NUL_0 -->
<g id="node4" class="node">
<title>NUL_0</title>
<polygon fill="none" stroke="black" points="44,-250.43 0,-250.43 0,-206.43 44,-206.43 44,-250.43"/>
<text text-anchor="middle" x="22" y="-224.73" font-family="Times,serif" font-size="14.00">null</text>
</g>
<!-- No_960933790&#45;&gt;NUL_0 -->
<g id="edge3" class="edge">
<title>No_960933790&#45;&gt;NUL_0</title>
<path fill="none" stroke="black" d="M65.9,-303.01C57.52,-288.97 47.99,-273 39.96,-259.53"/>
<polygon fill="black" stroke="black" points="42.8,-257.46 34.67,-250.66 36.79,-261.05 42.8,-257.46"/>
</g>
<!-- No_967387182 -->
<g id="node5" class="node">
<title>No_967387182</title>
<ellipse fill="none" stroke="black" cx="153" cy="-228.43" rx="91.43" ry="37.45"/>
<text text-anchor="middle" x="153" y="-239.73" font-family="Times,serif" font-size="14.00">Alfredo Martins</text>
<text text-anchor="middle" x="153" y="-224.73" font-family="Times,serif" font-size="14.00">967387182</text>
<text text-anchor="middle" x="153" y="-209.73" font-family="Times,serif" font-size="14.00">fb=0</text>
</g>
<!-- No_960933790&#45;&gt;No_967387182 -->
<g id="edge4" class="edge">
<title>No_960933790&#45;&gt;No_967387182</title>
<path fill="none" stroke="black" d="M108.43,-303.01C114.08,-293.68 120.24,-283.51 126.14,-273.77"/>
<polygon fill="black" stroke="black" points="129.27,-275.37 131.45,-265 123.28,-271.74 129.27,-275.37"/>
</g>
<!-- No_965115082 -->
<g id="node6" class="node">
<title>No_965115082</title>
<ellipse fill="none" stroke="black" cx="141" cy="-117.48" rx="75.82" ry="37.45"/>
<text text-anchor="middle" x="141" y="-128.78" font-family="Times,serif" font-size="14.00">Ana Barbosa</text>
<text text-anchor="middle" x="141" y="-113.78" font-family="Times,serif" font-size="14.00">965115082</text>
<text text-anchor="middle" x="141" y="-98.78" font-family="Times,serif" font-size="14.00">fb=0</text>
</g>
<!-- No_967387182&#45;&gt;No_965115082 -->
<g id="edge5" class="edge">
<title>No_967387182&#45;&gt;No_965115082</title>
<path fill="none" stroke="black" d="M148.97,-190.85C148.07,-182.67 147.1,-173.89 146.16,-165.37"/>
<polygon fill="black" stroke="black" points="149.61,-164.71 145.04,-155.15 142.65,-165.47 149.61,-164.71"/>
</g>
<!-- No_975960513 -->
<g id="node9" class="node">
<title>No_975960513</title>
<ellipse fill="none" stroke="black" cx="308" cy="-117.48" rx="73.58" ry="37.45"/>
<text text-anchor="middle" x="308" y="-128.78" font-family="Times,serif" font-size="14.00">Altair Souza</text>
<text text-anchor="middle" x="308" y="-113.78" font-family="Times,serif" font-size="14.00">975960513</text>
<text text-anchor="middle" x="308" y="-98.78" font-family="Times,serif" font-size="14.00">fb=0</text>
</g>
<!-- No_967387182&#45;&gt;No_975960513 -->
<g id="edge8" class="edge">
<title>No_967387182&#45;&gt;No_975960513</title>
<path fill="none" stroke="black" d="M198.25,-195.62C216.77,-182.6 238.29,-167.48 257.34,-154.09"/>
<polygon fill="black" stroke="black" points="259.45,-156.88 265.62,-148.27 255.42,-151.16 259.45,-156.88"/>
</g>
<!-- NUL_1 -->
<g id="node7" class="node">
<title>NUL_1</title>
<polygon fill="none" stroke="black" points="154,-44 110,-44 110,0 154,0 154,-44"/>
<text text-anchor="middle" x="132" y="-18.3" font-family="Times,serif" font-size="14.00">null</text>
</g>
<!-- No_965115082&#45;&gt;NUL_1 -->
<g id="edge6" class="edge">
<title>No_965115082&#45;&gt;NUL_1</title>
<path fill="none" stroke="black" d="M137.47,-79.8C136.66,-71.41 135.81,-62.56 135.02,-54.41"/>
<polygon fill="black" stroke="black" points="138.48,-53.82 134.04,-44.2 131.52,-54.49 138.48,-53.82"/>
</g>
<!-- NUL_2 -->
<g id="node8" class="node">
<title>NUL_2</title>
<polygon fill="none" stroke="black" points="216,-44 172,-44 172,0 216,0 216,-44"/>
<text text-anchor="middle" x="194" y="-18.3" font-family="Times,serif" font-size="14.00">null</text>
</g>
<!-- No_965115082&#45;&gt;NUL_2 -->
<g id="edge7" class="edge">
<title>No_965115082&#45;&gt;NUL_2</title>
<path fill="none" stroke="black" d="M161.04,-81.14C166.3,-71.85 171.93,-61.93 177.02,-52.95"/>
<polygon fill="black" stroke="black" points="180.2,-54.44 182.09,-44.01 174.11,-50.99 180.2,-54.44"/>
</g>
<!-- NUL_3 -->
<g id="node10" class="node">
<title>NUL_3</title>
<polygon fill="none" stroke="black" points="304,-44 260,-44 260,0 304,0 304,-44"/>
<text text-anchor="middle" x="282" y="-18.3" font-family="Times,serif" font-size="14.00">null</text>
</g>
<!-- No_975960513&#45;&gt;NUL_3 -->
<g id="edge9" class="edge">
<title>No_975960513&#45;&gt;NUL_3</title>
<path fill="none" stroke="black" d="M297.95,-80.34C295.53,-71.64 292.97,-62.43 290.62,-54"/>
<polygon fill="black" stroke="black" points="293.94,-52.88 287.89,-44.18 287.2,-54.75 293.94,-52.88"/>
</g>
<!-- NUL_4 -->
<g id="node11" class="node">
<title>NUL_4</title>
<polygon fill="none" stroke="black" points="366,-44 322,-44 322,0 366,0 366,-44"/>
<text text-anchor="middle" x="344" y="-18.3" font-family="Times,serif" font-size="14.00">null</text>
</g>
<!-- No_975960513&#45;&gt;NUL_4 -->
<g id="edge10" class="edge">
<title>No_975960513&#45;&gt;NUL_4</title>
<path fill="none" stroke="black" d="M321.82,-80.6C325.27,-71.63 328.95,-62.08 332.29,-53.4"/>
<polygon fill="black" stroke="black" points="335.57,-54.63 335.9,-44.04 329.04,-52.11 335.57,-54.63"/>
</g>
<!-- No_987340734 -->
<g id="node14" class="node">
<title>No_987340734</title>
<ellipse fill="none" stroke="black" cx="374" cy="-339.38" rx="98.99" ry="37.45"/>
<text text-anchor="middle" x="374" y="-350.68" font-family="Times,serif" font-size="14.00">Antônia Machado</text>
<text text-anchor="middle" x="374" y="-335.68" font-family="Times,serif" font-size="14.00">987340734</text>
<text text-anchor="middle" x="374" y="-320.68" font-family="Times,serif" font-size="14.00">fb=0</text>
</g>
<!-- No_987671978&#45;&gt;No_987340734 -->
<g id="edge13" class="edge">
<title>No_987671978&#45;&gt;No_987340734</title>
<path fill="none" stroke="black" d="M381.31,-412.75C380.48,-404.58 379.59,-395.8 378.73,-387.27"/>
<polygon fill="black" stroke="black" points="382.19,-386.65 377.7,-377.06 375.22,-387.36 382.19,-386.65"/>
</g>
<!-- No_997285865 -->
<g id="node17" class="node">
<title>No_997285865</title>
<ellipse fill="none" stroke="black" cx="566" cy="-339.38" rx="74.91" ry="37.45"/>
<text text-anchor="middle" x="566" y="-350.68" font-family="Times,serif" font-size="14.00">Almir Torres</text>
<text text-anchor="middle" x="566" y="-335.68" font-family="Times,serif" font-size="14.00">997285865</text>
<text text-anchor="middle" x="566" y="-320.68" font-family="Times,serif" font-size="14.00">fb=&#45;1</text>
</g>
<!-- No_987671978&#45;&gt;No_997285865 -->
<g id="edge16" class="edge">
<title>No_987671978&#45;&gt;No_997285865</title>
<path fill="none" stroke="black" d="M435.42,-418.99C458.71,-404.97 486.44,-388.28 510.34,-373.89"/>
<polygon fill="black" stroke="black" points="512.19,-376.86 518.96,-368.7 508.58,-370.86 512.19,-376.86"/>
</g>
<!-- NUL_6 -->
<g id="node15" class="node">
<title>NUL_6</title>
<polygon fill="none" stroke="black" points="350,-250.43 306,-250.43 306,-206.43 350,-206.43 350,-250.43"/>
<text text-anchor="middle" x="328" y="-224.73" font-family="Times,serif" font-size="14.00">null</text>
</g>
<!-- No_987340734&#45;&gt;NUL_6 -->
<g id="edge14" class="edge">
<title>No_987340734&#45;&gt;NUL_6</title>
<path fill="none" stroke="black" d="M358.68,-302.1C352.93,-288.49 346.46,-273.16 340.95,-260.1"/>
<polygon fill="black" stroke="black" points="344.06,-258.48 336.95,-250.63 337.61,-261.2 344.06,-258.48"/>
</g>
<!-- NUL_7 -->
<g id="node16" class="node">
<title>NUL_7</title>
<polygon fill="none" stroke="black" points="412,-250.43 368,-250.43 368,-206.43 412,-206.43 412,-250.43"/>
<text text-anchor="middle" x="390" y="-224.73" font-family="Times,serif" font-size="14.00">null</text>
</g>
<!-- No_987340734&#45;&gt;NUL_7 -->
<g id="edge15" class="edge">
<title>No_987340734&#45;&gt;NUL_7</title>
<path fill="none" stroke="black" d="M379.37,-301.8C381.33,-288.47 383.52,-273.53 385.41,-260.7"/>
<polygon fill="black" stroke="black" points="388.91,-260.91 386.9,-250.51 381.99,-259.89 388.91,-260.91"/>
</g>
<!-- No_994116870 -->
<g id="node18" class="node">
<title>No_994116870</title>
<ellipse fill="none" stroke="black" cx="551" cy="-228.43" rx="98.99" ry="37.45"/>
<text text-anchor="middle" x="551" y="-239.73" font-family="Times,serif" font-size="14.00">Alexandra Moura</text>
<text text-anchor="middle" x="551" y="-224.73" font-family="Times,serif" font-size="14.00">994116870</text>
<text text-anchor="middle" x="551" y="-209.73" font-family="Times,serif" font-size="14.00">fb=0</text>
</g>
<!-- No_997285865&#45;&gt;No_994116870 -->
<g id="edge17" class="edge">
<title>No_997285865&#45;&gt;No_994116870</title>
<path fill="none" stroke="black" d="M560.96,-301.8C559.83,-293.54 558.6,-284.65 557.42,-276.04"/>
<polygon fill="black" stroke="black" points="560.88,-275.53 556.05,-266.1 553.95,-276.49 560.88,-275.53"/>
</g>
<!-- NUL_10 -->
<g id="node21" class="node">
<title>NUL_10</title>
<polygon fill="none" stroke="black" points="712,-250.43 668,-250.43 668,-206.43 712,-206.43 712,-250.43"/>
<text text-anchor="middle" x="690" y="-224.73" font-family="Times,serif" font-size="14.00">null</text>
</g>
<!-- No_997285865&#45;&gt;NUL_10 -->
<g id="edge20" class="edge">
<title>No_997285865&#45;&gt;NUL_10</title>
<path fill="none" stroke="black" d="M608.24,-308.36C624.7,-295.93 643.34,-280.92 659,-265.91 661.46,-263.55 663.93,-261.01 666.34,-258.41"/>
<polygon fill="black" stroke="black" points="669.3,-260.34 673.32,-250.54 664.07,-255.7 669.3,-260.34"/>
</g>
<!-- NUL_8 -->
<g id="node19" class="node">
<title>NUL_8</title>
<polygon fill="none" stroke="black" points="522,-139.48 478,-139.48 478,-95.48 522,-95.48 522,-139.48"/>
<text text-anchor="middle" x="500" y="-113.78" font-family="Times,serif" font-size="14.00">null</text>
</g>
<!-- No_994116870&#45;&gt;NUL_8 -->
<g id="edge18" class="edge">
<title>No_994116870&#45;&gt;NUL_8</title>
<path fill="none" stroke="black" d="M534.16,-191.45C527.72,-177.69 520.43,-162.13 514.26,-148.93"/>
<polygon fill="black" stroke="black" points="517.39,-147.37 509.98,-139.79 511.05,-150.33 517.39,-147.37"/>
</g>
<!-- NUL_9 -->
<g id="node20" class="node">
<title>NUL_9</title>
<polygon fill="none" stroke="black" points="584,-139.48 540,-139.48 540,-95.48 584,-95.48 584,-139.48"/>
<text text-anchor="middle" x="562" y="-113.78" font-family="Times,serif" font-size="14.00">null</text>
</g>
<!-- No_994116870&#45;&gt;NUL_9 -->
<g id="edge19" class="edge">
<title>No_994116870&#45;&gt;NUL_9</title>
<path fill="none" stroke="black" d="M554.69,-190.85C556.04,-177.52 557.55,-162.58 558.84,-149.75"/>
<polygon fill="black" stroke="black" points="562.35,-149.86 559.87,-139.55 555.39,-149.15 562.35,-149.86"/>
</g>
</g>
</svg>
