<?xml version="1.0" encoding="UTF-8" standalone="no"?>
<!DOCTYPE svg PUBLIC "-//W3C//DTD SVG 1.1//EN"
 "http://www.w3.org/Graphics/SVG/1.1/DTD/svg11.dtd">
<!-- Generated by graphviz version 2.43.0 (0)
 -->
<!-- Title: BST Pages: 1 -->
<svg width="690pt" height="188pt"
 viewBox="0.00 0.00 690.12 188.00" xmlns="http://www.w3.org/2000/svg" xmlns:xlink="http://www.w3.org/1999/xlink">
<g id="graph0" class="graph" transform="scale(1 1) rotate(0) translate(4 184)">
<title>BST</title>
<polygon fill="white" stroke="transparent" points="-4,4 -4,-184 686.12,-184 686.12,4 -4,4"/>
<!-- Vanessa Campos,957554329 [fb:1] -->
<g id="node1" class="node">
<title>Vanessa Campos,957554329 [fb:1]</title>
<ellipse fill="none" stroke="black" cx="340.74" cy="-162" rx="171.67" ry="18"/>
<text text-anchor="middle" x="340.74" y="-158.3" font-family="Times,serif" font-size="14.00">Vanessa Campos,957554329 [fb:1]</text>
</g>
<!-- Vanessa Rodrigues,960862516 [fb:1] -->
<g id="node2" class="node">
<title>Vanessa Rodrigues,960862516 [fb:1]</title>
<ellipse fill="none" stroke="black" cx="340.74" cy="-90" rx="181.97" ry="18"/>
<text text-anchor="middle" x="340.74" y="-86.3" font-family="Times,serif" font-size="14.00">Vanessa Rodrigues,960862516 [fb:1]</text>
</g>
<!-- Vanessa Campos,957554329 [fb:1]&#45;&gt;Vanessa Rodrigues,960862516 [fb:1] -->
<g id="edge1" class="edge">
<title>Vanessa Campos,957554329 [fb:1]&#45;&gt;Vanessa Rodrigues,960862516 [fb:1]</title>
<path fill="none" stroke="black" d="M340.74,-143.7C340.74,-135.98 340.74,-126.71 340.74,-118.11"/>
<polygon fill="black" stroke="black" points="344.24,-118.1 340.74,-108.1 337.24,-118.1 344.24,-118.1"/>
</g>
<!-- Vanessa Barros,958291947 [fb:0] -->
<g id="node3" class="node">
<title>Vanessa Barros,958291947 [fb:0]</title>
<ellipse fill="none" stroke="black" cx="165.74" cy="-18" rx="165.97" ry="18"/>
<text text-anchor="middle" x="165.74" y="-14.3" font-family="Times,serif" font-size="14.00">Vanessa Barros,958291947 [fb:0]</text>
</g>
<!-- Vanessa Rodrigues,960862516 [fb:1]&#45;&gt;Vanessa Barros,958291947 [fb:0] -->
<g id="edge2" class="edge">
<title>Vanessa Rodrigues,960862516 [fb:1]&#45;&gt;Vanessa Barros,958291947 [fb:0]</title>
<path fill="none" stroke="black" d="M299.26,-72.41C274.42,-62.47 242.65,-49.77 216.34,-39.24"/>
<polygon fill="black" stroke="black" points="217.49,-35.93 206.91,-35.47 214.9,-42.43 217.49,-35.93"/>
</g>
<!-- Vanessa Coelho,966870911 [fb:0] -->
<g id="node4" class="node">
<title>Vanessa Coelho,966870911 [fb:0]</title>
<ellipse fill="none" stroke="black" cx="515.74" cy="-18" rx="166.27" ry="18"/>
<text text-anchor="middle" x="515.74" y="-14.3" font-family="Times,serif" font-size="14.00">Vanessa Coelho,966870911 [fb:0]</text>
</g>
<!-- Vanessa Rodrigues,960862516 [fb:1]&#45;&gt;Vanessa Coelho,966870911 [fb:0] -->
<g id="edge3" class="edge">
<title>Vanessa Rodrigues,960862516 [fb:1]&#45;&gt;Vanessa Coelho,966870911 [fb:0]</title>
<path fill="none" stroke="black" d="M382.21,-72.41C407.05,-62.47 438.82,-49.77 465.13,-39.24"/>
<polygon fill="black" stroke="black" points="466.58,-42.43 474.56,-35.47 463.98,-35.93 466.58,-42.43"/>
</g>
</g>
</svg>
