<?xml version="1.0" encoding="UTF-8" standalone="no"?>
<!DOCTYPE svg PUBLIC "-//W3C//DTD SVG 1.1//EN"
 "http://www.w3.org/Graphics/SVG/1.1/DTD/svg11.dtd">
<!-- Generated by graphviz version 2.43.0 (0)
 -->
<!-- Title: BST Pages: 1 -->
<svg width="2821pt" height="468pt"
 viewBox="0.00 0.00 2820.77 467.58" xmlns="http://www.w3.org/2000/svg" xmlns:xlink="http://www.w3.org/1999/xlink">
<g id="graph0" class="graph" transform="scale(1 1) rotate(0) translate(4 463.58)">
<title>BST</title>
<polygon fill="white" stroke="transparent" points="-4,4 -4,-463.58 2816.77,-463.58 2816.77,4 -4,4"/>
<!-- Washington Rodrigues,962840590 [fb:1] -->
<g id="node1" class="node">
<title>Washington Rodrigues,962840590 [fb:1]</title>
<ellipse fill="none" stroke="black" cx="1385.28" cy="-441.58" rx="198.76" ry="18"/>
<text text-anchor="middle" x="1385.28" y="-437.88" font-family="Times,serif" font-size="14.00">Washington Rodrigues,962840590 [fb:1]</text>
</g>
<!-- Washington Machado,955446445 [fb:0] -->
<g id="node2" class="node">
<title>Washington Machado,955446445 [fb:0]</title>
<ellipse fill="none" stroke="black" cx="1076.28" cy="-369.58" rx="193.87" ry="18"/>
<text text-anchor="middle" x="1076.28" y="-365.88" font-family="Times,serif" font-size="14.00">Washington Machado,955446445 [fb:0]</text>
</g>
<!-- Washington Rodrigues,962840590 [fb:1]&#45;&gt;Washington Machado,955446445 [fb:0] -->
<g id="edge1" class="edge">
<title>Washington Rodrigues,962840590 [fb:1]&#45;&gt;Washington Machado,955446445 [fb:0]</title>
<path fill="none" stroke="black" d="M1315.17,-424.7C1267.86,-413.98 1205.32,-399.82 1156.1,-388.67"/>
<polygon fill="black" stroke="black" points="1156.65,-385.2 1146.12,-386.41 1155.1,-392.03 1156.65,-385.2"/>
</g>
<!-- Washington Costa,974050329 [fb:1] -->
<g id="node17" class="node">
<title>Washington Costa,974050329 [fb:1]</title>
<ellipse fill="none" stroke="black" cx="1695.28" cy="-369.58" rx="178.17" ry="18"/>
<text text-anchor="middle" x="1695.28" y="-365.88" font-family="Times,serif" font-size="14.00">Washington Costa,974050329 [fb:1]</text>
</g>
<!-- Washington Rodrigues,962840590 [fb:1]&#45;&gt;Washington Costa,974050329 [fb:1] -->
<g id="edge16" class="edge">
<title>Washington Rodrigues,962840590 [fb:1]&#45;&gt;Washington Costa,974050329 [fb:1]</title>
<path fill="none" stroke="black" d="M1455.63,-424.7C1503.34,-413.93 1566.49,-399.67 1615.99,-388.49"/>
<polygon fill="black" stroke="black" points="1617.04,-391.84 1626.02,-386.23 1615.49,-385.01 1617.04,-391.84"/>
</g>
<!-- Washington Torres,954026800 [fb:0] -->
<g id="node3" class="node">
<title>Washington Torres,954026800 [fb:0]</title>
<ellipse fill="none" stroke="black" cx="573.28" cy="-297.58" rx="181.17" ry="18"/>
<text text-anchor="middle" x="573.28" y="-293.88" font-family="Times,serif" font-size="14.00">Washington Torres,954026800 [fb:0]</text>
</g>
<!-- Washington Machado,955446445 [fb:0]&#45;&gt;Washington Torres,954026800 [fb:0] -->
<g id="edge2" class="edge">
<title>Washington Machado,955446445 [fb:0]&#45;&gt;Washington Torres,954026800 [fb:0]</title>
<path fill="none" stroke="black" d="M973.58,-354.29C889.42,-342.58 770.55,-326.04 684.22,-314.02"/>
<polygon fill="black" stroke="black" points="684.51,-310.53 674.12,-312.62 683.55,-317.46 684.51,-310.53"/>
</g>
<!-- Washington Moura,961697749 [fb:0] -->
<g id="node10" class="node">
<title>Washington Moura,961697749 [fb:0]</title>
<ellipse fill="none" stroke="black" cx="1076.28" cy="-297.58" rx="181.97" ry="18"/>
<text text-anchor="middle" x="1076.28" y="-293.88" font-family="Times,serif" font-size="14.00">Washington Moura,961697749 [fb:0]</text>
</g>
<!-- Washington Machado,955446445 [fb:0]&#45;&gt;Washington Moura,961697749 [fb:0] -->
<g id="edge9" class="edge">
<title>Washington Machado,955446445 [fb:0]&#45;&gt;Washington Moura,961697749 [fb:0]</title>
<path fill="none" stroke="black" d="M1076.28,-351.28C1076.28,-343.57 1076.28,-334.3 1076.28,-325.7"/>
<polygon fill="black" stroke="black" points="1079.78,-325.69 1076.28,-315.69 1072.78,-325.69 1079.78,-325.69"/>
</g>
<!-- Washington Coelho,951300701 [fb:0] -->
<g id="node4" class="node">
<title>Washington Coelho,951300701 [fb:0]</title>
<ellipse fill="none" stroke="black" cx="183.28" cy="-214.99" rx="183.07" ry="18"/>
<text text-anchor="middle" x="183.28" y="-211.29" font-family="Times,serif" font-size="14.00">Washington Coelho,951300701 [fb:0]</text>
</g>
<!-- Washington Torres,954026800 [fb:0]&#45;&gt;Washington Coelho,951300701 [fb:0] -->
<g id="edge3" class="edge">
<title>Washington Torres,954026800 [fb:0]&#45;&gt;Washington Coelho,951300701 [fb:0]</title>
<path fill="none" stroke="black" d="M498.55,-281.14C432.67,-267.53 336.75,-247.7 268.03,-233.5"/>
<polygon fill="black" stroke="black" points="268.6,-230.04 258.1,-231.45 267.18,-236.9 268.6,-230.04"/>
</g>
<!-- Washington Campos,955012119 [fb:0] -->
<g id="node7" class="node">
<title>Washington Campos,955012119 [fb:0]</title>
<ellipse fill="none" stroke="black" cx="573.28" cy="-214.99" rx="188.47" ry="18"/>
<text text-anchor="middle" x="573.28" y="-211.29" font-family="Times,serif" font-size="14.00">Washington Campos,955012119 [fb:0]</text>
</g>
<!-- Washington Torres,954026800 [fb:0]&#45;&gt;Washington Campos,955012119 [fb:0] -->
<g id="edge6" class="edge">
<title>Washington Torres,954026800 [fb:0]&#45;&gt;Washington Campos,955012119 [fb:0]</title>
<path fill="none" stroke="black" d="M573.28,-279.49C573.28,-268.91 573.28,-255.1 573.28,-243.06"/>
<polygon fill="black" stroke="black" points="576.78,-243.06 573.28,-233.06 569.78,-243.06 576.78,-243.06"/>
</g>
<!-- N0 -->
<g id="node5" class="node">
<title>N0</title>
<ellipse fill="none" stroke="black" cx="146.28" cy="-121.79" rx="28.7" ry="28.7"/>
<text text-anchor="middle" x="146.28" y="-118.09" font-family="Times,serif" font-size="14.00">null</text>
</g>
<!-- Washington Coelho,951300701 [fb:0]&#45;&gt;N0 -->
<g id="edge4" class="edge">
<title>Washington Coelho,951300701 [fb:0]&#45;&gt;N0</title>
<path fill="none" stroke="black" d="M176.32,-196.83C171.88,-185.87 165.95,-171.26 160.53,-157.92"/>
<polygon fill="black" stroke="black" points="163.71,-156.44 156.71,-148.49 157.23,-159.07 163.71,-156.44"/>
</g>
<!-- N1 -->
<g id="node6" class="node">
<title>N1</title>
<ellipse fill="none" stroke="black" cx="221.28" cy="-121.79" rx="28.7" ry="28.7"/>
<text text-anchor="middle" x="221.28" y="-118.09" font-family="Times,serif" font-size="14.00">null</text>
</g>
<!-- Washington Coelho,951300701 [fb:0]&#45;&gt;N1 -->
<g id="edge5" class="edge">
<title>Washington Coelho,951300701 [fb:0]&#45;&gt;N1</title>
<path fill="none" stroke="black" d="M190.43,-196.83C195,-185.87 201.09,-171.26 206.65,-157.92"/>
<polygon fill="black" stroke="black" points="209.96,-159.07 210.58,-148.49 203.5,-156.38 209.96,-159.07"/>
</g>
<!-- N2 -->
<g id="node8" class="node">
<title>N2</title>
<ellipse fill="none" stroke="black" cx="535.28" cy="-121.79" rx="28.7" ry="28.7"/>
<text text-anchor="middle" x="535.28" y="-118.09" font-family="Times,serif" font-size="14.00">null</text>
</g>
<!-- Washington Campos,955012119 [fb:0]&#45;&gt;N2 -->
<g id="edge7" class="edge">
<title>Washington Campos,955012119 [fb:0]&#45;&gt;N2</title>
<path fill="none" stroke="black" d="M566.14,-196.83C561.57,-185.87 555.48,-171.26 549.92,-157.92"/>
<polygon fill="black" stroke="black" points="553.07,-156.38 545.99,-148.49 546.61,-159.07 553.07,-156.38"/>
</g>
<!-- N3 -->
<g id="node9" class="node">
<title>N3</title>
<ellipse fill="none" stroke="black" cx="610.28" cy="-121.79" rx="28.7" ry="28.7"/>
<text text-anchor="middle" x="610.28" y="-118.09" font-family="Times,serif" font-size="14.00">null</text>
</g>
<!-- Washington Campos,955012119 [fb:0]&#45;&gt;N3 -->
<g id="edge8" class="edge">
<title>Washington Campos,955012119 [fb:0]&#45;&gt;N3</title>
<path fill="none" stroke="black" d="M580.24,-196.83C584.69,-185.87 590.62,-171.26 596.03,-157.92"/>
<polygon fill="black" stroke="black" points="599.34,-159.07 599.86,-148.49 592.85,-156.44 599.34,-159.07"/>
</g>
<!-- Washington Barros,958678462 [fb:0] -->
<g id="node11" class="node">
<title>Washington Barros,958678462 [fb:0]</title>
<ellipse fill="none" stroke="black" cx="962.28" cy="-214.99" rx="182.77" ry="18"/>
<text text-anchor="middle" x="962.28" y="-211.29" font-family="Times,serif" font-size="14.00">Washington Barros,958678462 [fb:0]</text>
</g>
<!-- Washington Moura,961697749 [fb:0]&#45;&gt;Washington Barros,958678462 [fb:0] -->
<g id="edge10" class="edge">
<title>Washington Moura,961697749 [fb:0]&#45;&gt;Washington Barros,958678462 [fb:0]</title>
<path fill="none" stroke="black" d="M1052.39,-279.69C1035.67,-267.87 1013.13,-251.93 994.78,-238.96"/>
<polygon fill="black" stroke="black" points="996.34,-235.78 986.15,-232.86 992.3,-241.49 996.34,-235.78"/>
</g>
<!-- Washington Pereira,962181569 [fb:0] -->
<g id="node14" class="node">
<title>Washington Pereira,962181569 [fb:0]</title>
<ellipse fill="none" stroke="black" cx="1348.28" cy="-214.99" rx="185.47" ry="18"/>
<text text-anchor="middle" x="1348.28" y="-211.29" font-family="Times,serif" font-size="14.00">Washington Pereira,962181569 [fb:0]</text>
</g>
<!-- Washington Moura,961697749 [fb:0]&#45;&gt;Washington Pereira,962181569 [fb:0] -->
<g id="edge13" class="edge">
<title>Washington Moura,961697749 [fb:0]&#45;&gt;Washington Pereira,962181569 [fb:0]</title>
<path fill="none" stroke="black" d="M1131,-280.37C1175.03,-267.33 1237.01,-248.96 1283.51,-235.18"/>
<polygon fill="black" stroke="black" points="1284.6,-238.51 1293.19,-232.31 1282.61,-231.8 1284.6,-238.51"/>
</g>
<!-- N4 -->
<g id="node12" class="node">
<title>N4</title>
<ellipse fill="none" stroke="black" cx="924.28" cy="-121.79" rx="28.7" ry="28.7"/>
<text text-anchor="middle" x="924.28" y="-118.09" font-family="Times,serif" font-size="14.00">null</text>
</g>
<!-- Washington Barros,958678462 [fb:0]&#45;&gt;N4 -->
<g id="edge11" class="edge">
<title>Washington Barros,958678462 [fb:0]&#45;&gt;N4</title>
<path fill="none" stroke="black" d="M955.14,-196.83C950.57,-185.87 944.48,-171.26 938.92,-157.92"/>
<polygon fill="black" stroke="black" points="942.07,-156.38 934.99,-148.49 935.61,-159.07 942.07,-156.38"/>
</g>
<!-- N5 -->
<g id="node13" class="node">
<title>N5</title>
<ellipse fill="none" stroke="black" cx="999.28" cy="-121.79" rx="28.7" ry="28.7"/>
<text text-anchor="middle" x="999.28" y="-118.09" font-family="Times,serif" font-size="14.00">null</text>
</g>
<!-- Washington Barros,958678462 [fb:0]&#45;&gt;N5 -->
<g id="edge12" class="edge">
<title>Washington Barros,958678462 [fb:0]&#45;&gt;N5</title>
<path fill="none" stroke="black" d="M969.24,-196.83C973.69,-185.87 979.62,-171.26 985.03,-157.92"/>
<polygon fill="black" stroke="black" points="988.34,-159.07 988.86,-148.49 981.85,-156.44 988.34,-159.07"/>
</g>
<!-- N6 -->
<g id="node15" class="node">
<title>N6</title>
<ellipse fill="none" stroke="black" cx="1310.28" cy="-121.79" rx="28.7" ry="28.7"/>
<text text-anchor="middle" x="1310.28" y="-118.09" font-family="Times,serif" font-size="14.00">null</text>
</g>
<!-- Washington Pereira,962181569 [fb:0]&#45;&gt;N6 -->
<g id="edge14" class="edge">
<title>Washington Pereira,962181569 [fb:0]&#45;&gt;N6</title>
<path fill="none" stroke="black" d="M1341.14,-196.83C1336.57,-185.87 1330.48,-171.26 1324.92,-157.92"/>
<polygon fill="black" stroke="black" points="1328.07,-156.38 1320.99,-148.49 1321.61,-159.07 1328.07,-156.38"/>
</g>
<!-- N7 -->
<g id="node16" class="node">
<title>N7</title>
<ellipse fill="none" stroke="black" cx="1385.28" cy="-121.79" rx="28.7" ry="28.7"/>
<text text-anchor="middle" x="1385.28" y="-118.09" font-family="Times,serif" font-size="14.00">null</text>
</g>
<!-- Washington Pereira,962181569 [fb:0]&#45;&gt;N7 -->
<g id="edge15" class="edge">
<title>Washington Pereira,962181569 [fb:0]&#45;&gt;N7</title>
<path fill="none" stroke="black" d="M1355.24,-196.83C1359.69,-185.87 1365.62,-171.26 1371.03,-157.92"/>
<polygon fill="black" stroke="black" points="1374.34,-159.07 1374.86,-148.49 1367.85,-156.44 1374.34,-159.07"/>
</g>
<!-- Washington Santos,966945826 [fb:1] -->
<g id="node18" class="node">
<title>Washington Santos,966945826 [fb:1]</title>
<ellipse fill="none" stroke="black" cx="1695.28" cy="-297.58" rx="183.07" ry="18"/>
<text text-anchor="middle" x="1695.28" y="-293.88" font-family="Times,serif" font-size="14.00">Washington Santos,966945826 [fb:1]</text>
</g>
<!-- Washington Costa,974050329 [fb:1]&#45;&gt;Washington Santos,966945826 [fb:1] -->
<g id="edge17" class="edge">
<title>Washington Costa,974050329 [fb:1]&#45;&gt;Washington Santos,966945826 [fb:1]</title>
<path fill="none" stroke="black" d="M1695.28,-351.28C1695.28,-343.57 1695.28,-334.3 1695.28,-325.7"/>
<polygon fill="black" stroke="black" points="1698.78,-325.69 1695.28,-315.69 1691.78,-325.69 1698.78,-325.69"/>
</g>
<!-- Washington Rodrigues,986307423 [fb:&#45;1] -->
<g id="node23" class="node">
<title>Washington Rodrigues,986307423 [fb:&#45;1]</title>
<ellipse fill="none" stroke="black" cx="2215.28" cy="-297.58" rx="202.26" ry="18"/>
<text text-anchor="middle" x="2215.28" y="-293.88" font-family="Times,serif" font-size="14.00">Washington Rodrigues,986307423 [fb:&#45;1]</text>
</g>
<!-- Washington Costa,974050329 [fb:1]&#45;&gt;Washington Rodrigues,986307423 [fb:&#45;1] -->
<g id="edge22" class="edge">
<title>Washington Costa,974050329 [fb:1]&#45;&gt;Washington Rodrigues,986307423 [fb:&#45;1]</title>
<path fill="none" stroke="black" d="M1797.71,-354.8C1884.26,-343.15 2008.23,-326.46 2098.6,-314.29"/>
<polygon fill="black" stroke="black" points="2099.17,-317.75 2108.61,-312.94 2098.24,-310.81 2099.17,-317.75"/>
</g>
<!-- N8 -->
<g id="node19" class="node">
<title>N8</title>
<ellipse fill="none" stroke="black" cx="1580.28" cy="-214.99" rx="28.7" ry="28.7"/>
<text text-anchor="middle" x="1580.28" y="-211.29" font-family="Times,serif" font-size="14.00">null</text>
</g>
<!-- Washington Santos,966945826 [fb:1]&#45;&gt;N8 -->
<g id="edge18" class="edge">
<title>Washington Santos,966945826 [fb:1]&#45;&gt;N8</title>
<path fill="none" stroke="black" d="M1670.2,-279.56C1655.1,-269.24 1635.51,-255.77 1618.28,-243.58 1616.13,-242.06 1613.91,-240.48 1611.68,-238.88"/>
<polygon fill="black" stroke="black" points="1613.28,-235.72 1603.12,-232.72 1609.19,-241.4 1613.28,-235.72"/>
</g>
<!-- Washington Coelho,967521637 [fb:0] -->
<g id="node20" class="node">
<title>Washington Coelho,967521637 [fb:0]</title>
<ellipse fill="none" stroke="black" cx="1810.28" cy="-214.99" rx="183.07" ry="18"/>
<text text-anchor="middle" x="1810.28" y="-211.29" font-family="Times,serif" font-size="14.00">Washington Coelho,967521637 [fb:0]</text>
</g>
<!-- Washington Santos,966945826 [fb:1]&#45;&gt;Washington Coelho,967521637 [fb:0] -->
<g id="edge19" class="edge">
<title>Washington Santos,966945826 [fb:1]&#45;&gt;Washington Coelho,967521637 [fb:0]</title>
<path fill="none" stroke="black" d="M1719.39,-279.69C1736.41,-267.76 1759.41,-251.64 1778.01,-238.61"/>
<polygon fill="black" stroke="black" points="1780.03,-241.47 1786.21,-232.86 1776.01,-235.73 1780.03,-241.47"/>
</g>
<!-- N9 -->
<g id="node21" class="node">
<title>N9</title>
<ellipse fill="none" stroke="black" cx="1735.28" cy="-121.79" rx="28.7" ry="28.7"/>
<text text-anchor="middle" x="1735.28" y="-118.09" font-family="Times,serif" font-size="14.00">null</text>
</g>
<!-- Washington Coelho,967521637 [fb:0]&#45;&gt;N9 -->
<g id="edge20" class="edge">
<title>Washington Coelho,967521637 [fb:0]&#45;&gt;N9</title>
<path fill="none" stroke="black" d="M1796.18,-196.83C1785.87,-184.3 1771.63,-166.98 1759.51,-152.25"/>
<polygon fill="black" stroke="black" points="1762.09,-149.88 1753.03,-144.38 1756.68,-154.32 1762.09,-149.88"/>
</g>
<!-- N10 -->
<g id="node22" class="node">
<title>N10</title>
<ellipse fill="none" stroke="black" cx="1810.28" cy="-121.79" rx="28.7" ry="28.7"/>
<text text-anchor="middle" x="1810.28" y="-118.09" font-family="Times,serif" font-size="14.00">null</text>
</g>
<!-- Washington Coelho,967521637 [fb:0]&#45;&gt;N10 -->
<g id="edge21" class="edge">
<title>Washington Coelho,967521637 [fb:0]&#45;&gt;N10</title>
<path fill="none" stroke="black" d="M1810.28,-196.83C1810.28,-186.68 1810.28,-173.38 1810.28,-160.87"/>
<polygon fill="black" stroke="black" points="1813.78,-160.62 1810.28,-150.62 1806.78,-160.62 1813.78,-160.62"/>
</g>
<!-- Washington Farias,976087312 [fb:0] -->
<g id="node24" class="node">
<title>Washington Farias,976087312 [fb:0]</title>
<ellipse fill="none" stroke="black" cx="2215.28" cy="-214.99" rx="180.87" ry="18"/>
<text text-anchor="middle" x="2215.28" y="-211.29" font-family="Times,serif" font-size="14.00">Washington Farias,976087312 [fb:0]</text>
</g>
<!-- Washington Rodrigues,986307423 [fb:&#45;1]&#45;&gt;Washington Farias,976087312 [fb:0] -->
<g id="edge23" class="edge">
<title>Washington Rodrigues,986307423 [fb:&#45;1]&#45;&gt;Washington Farias,976087312 [fb:0]</title>
<path fill="none" stroke="black" d="M2215.28,-279.49C2215.28,-268.91 2215.28,-255.1 2215.28,-243.06"/>
<polygon fill="black" stroke="black" points="2218.78,-243.06 2215.28,-233.06 2211.78,-243.06 2218.78,-243.06"/>
</g>
<!-- Washington Martins,987735642 [fb:0] -->
<g id="node31" class="node">
<title>Washington Martins,987735642 [fb:0]</title>
<ellipse fill="none" stroke="black" cx="2624.28" cy="-214.99" rx="188.47" ry="18"/>
<text text-anchor="middle" x="2624.28" y="-211.29" font-family="Times,serif" font-size="14.00">Washington Martins,987735642 [fb:0]</text>
</g>
<!-- Washington Rodrigues,986307423 [fb:&#45;1]&#45;&gt;Washington Martins,987735642 [fb:0] -->
<g id="edge30" class="edge">
<title>Washington Rodrigues,986307423 [fb:&#45;1]&#45;&gt;Washington Martins,987735642 [fb:0]</title>
<path fill="none" stroke="black" d="M2294.63,-280.95C2363.96,-267.29 2464.48,-247.48 2536.27,-233.33"/>
<polygon fill="black" stroke="black" points="2537.07,-236.74 2546.2,-231.37 2535.71,-229.87 2537.07,-236.74"/>
</g>
<!-- Washington Alves,976017582 [fb:0] -->
<g id="node25" class="node">
<title>Washington Alves,976017582 [fb:0]</title>
<ellipse fill="none" stroke="black" cx="2033.28" cy="-121.79" rx="176.57" ry="18"/>
<text text-anchor="middle" x="2033.28" y="-118.09" font-family="Times,serif" font-size="14.00">Washington Alves,976017582 [fb:0]</text>
</g>
<!-- Washington Farias,976087312 [fb:0]&#45;&gt;Washington Alves,976017582 [fb:0] -->
<g id="edge24" class="edge">
<title>Washington Farias,976087312 [fb:0]&#45;&gt;Washington Alves,976017582 [fb:0]</title>
<path fill="none" stroke="black" d="M2181.9,-197.26C2152.11,-182.33 2108.31,-160.39 2075.98,-144.19"/>
<polygon fill="black" stroke="black" points="2077.27,-140.92 2066.76,-139.57 2074.13,-147.18 2077.27,-140.92"/>
</g>
<!-- Washington Silva,978326149 [fb:0] -->
<g id="node28" class="node">
<title>Washington Silva,978326149 [fb:0]</title>
<ellipse fill="none" stroke="black" cx="2403.28" cy="-121.79" rx="174.67" ry="18"/>
<text text-anchor="middle" x="2403.28" y="-118.09" font-family="Times,serif" font-size="14.00">Washington Silva,978326149 [fb:0]</text>
</g>
<!-- Washington Farias,976087312 [fb:0]&#45;&gt;Washington Silva,978326149 [fb:0] -->
<g id="edge27" class="edge">
<title>Washington Farias,976087312 [fb:0]&#45;&gt;Washington Silva,978326149 [fb:0]</title>
<path fill="none" stroke="black" d="M2249.77,-197.26C2280.68,-182.27 2326.17,-160.2 2359.61,-143.98"/>
<polygon fill="black" stroke="black" points="2361.23,-147.08 2368.7,-139.57 2358.18,-140.78 2361.23,-147.08"/>
</g>
<!-- N11 -->
<g id="node26" class="node">
<title>N11</title>
<ellipse fill="none" stroke="black" cx="1996.28" cy="-28.6" rx="28.7" ry="28.7"/>
<text text-anchor="middle" x="1996.28" y="-24.9" font-family="Times,serif" font-size="14.00">null</text>
</g>
<!-- Washington Alves,976017582 [fb:0]&#45;&gt;N11 -->
<g id="edge25" class="edge">
<title>Washington Alves,976017582 [fb:0]&#45;&gt;N11</title>
<path fill="none" stroke="black" d="M2026.32,-103.64C2021.88,-92.68 2015.95,-78.07 2010.53,-64.72"/>
<polygon fill="black" stroke="black" points="2013.71,-63.25 2006.71,-55.3 2007.23,-65.88 2013.71,-63.25"/>
</g>
<!-- N12 -->
<g id="node27" class="node">
<title>N12</title>
<ellipse fill="none" stroke="black" cx="2071.28" cy="-28.6" rx="28.7" ry="28.7"/>
<text text-anchor="middle" x="2071.28" y="-24.9" font-family="Times,serif" font-size="14.00">null</text>
</g>
<!-- Washington Alves,976017582 [fb:0]&#45;&gt;N12 -->
<g id="edge26" class="edge">
<title>Washington Alves,976017582 [fb:0]&#45;&gt;N12</title>
<path fill="none" stroke="black" d="M2040.43,-103.64C2045,-92.68 2051.09,-78.07 2056.65,-64.72"/>
<polygon fill="black" stroke="black" points="2059.96,-65.87 2060.58,-55.3 2053.5,-63.18 2059.96,-65.87"/>
</g>
<!-- N13 -->
<g id="node29" class="node">
<title>N13</title>
<ellipse fill="none" stroke="black" cx="2365.28" cy="-28.6" rx="28.7" ry="28.7"/>
<text text-anchor="middle" x="2365.28" y="-24.9" font-family="Times,serif" font-size="14.00">null</text>
</g>
<!-- Washington Silva,978326149 [fb:0]&#45;&gt;N13 -->
<g id="edge28" class="edge">
<title>Washington Silva,978326149 [fb:0]&#45;&gt;N13</title>
<path fill="none" stroke="black" d="M2396.14,-103.64C2391.57,-92.68 2385.48,-78.07 2379.92,-64.72"/>
<polygon fill="black" stroke="black" points="2383.07,-63.18 2375.99,-55.3 2376.61,-65.87 2383.07,-63.18"/>
</g>
<!-- N14 -->
<g id="node30" class="node">
<title>N14</title>
<ellipse fill="none" stroke="black" cx="2440.28" cy="-28.6" rx="28.7" ry="28.7"/>
<text text-anchor="middle" x="2440.28" y="-24.9" font-family="Times,serif" font-size="14.00">null</text>
</g>
<!-- Washington Silva,978326149 [fb:0]&#45;&gt;N14 -->
<g id="edge29" class="edge">
<title>Washington Silva,978326149 [fb:0]&#45;&gt;N14</title>
<path fill="none" stroke="black" d="M2410.24,-103.64C2414.69,-92.68 2420.62,-78.07 2426.03,-64.72"/>
<polygon fill="black" stroke="black" points="2429.34,-65.88 2429.86,-55.3 2422.85,-63.25 2429.34,-65.88"/>
</g>
<!-- N15 -->
<g id="node32" class="node">
<title>N15</title>
<ellipse fill="none" stroke="black" cx="2624.28" cy="-121.79" rx="28.7" ry="28.7"/>
<text text-anchor="middle" x="2624.28" y="-118.09" font-family="Times,serif" font-size="14.00">null</text>
</g>
<!-- Washington Martins,987735642 [fb:0]&#45;&gt;N15 -->
<g id="edge31" class="edge">
<title>Washington Martins,987735642 [fb:0]&#45;&gt;N15</title>
<path fill="none" stroke="black" d="M2624.28,-196.83C2624.28,-186.68 2624.28,-173.38 2624.28,-160.87"/>
<polygon fill="black" stroke="black" points="2627.78,-160.62 2624.28,-150.62 2620.78,-160.62 2627.78,-160.62"/>
</g>
<!-- N16 -->
<g id="node33" class="node">
<title>N16</title>
<ellipse fill="none" stroke="black" cx="2699.28" cy="-121.79" rx="28.7" ry="28.7"/>
<text text-anchor="middle" x="2699.28" y="-118.09" font-family="Times,serif" font-size="14.00">null</text>
</g>
<!-- Washington Martins,987735642 [fb:0]&#45;&gt;N16 -->
<g id="edge32" class="edge">
<title>Washington Martins,987735642 [fb:0]&#45;&gt;N16</title>
<path fill="none" stroke="black" d="M2638.39,-196.83C2648.7,-184.3 2662.94,-166.98 2675.06,-152.25"/>
<polygon fill="black" stroke="black" points="2677.88,-154.32 2681.53,-144.38 2672.48,-149.88 2677.88,-154.32"/>
</g>
</g>
</svg>
