<?xml version="1.0" encoding="UTF-8" standalone="no"?>
<!DOCTYPE svg PUBLIC "-//W3C//DTD SVG 1.1//EN"
 "http://www.w3.org/Graphics/SVG/1.1/DTD/svg11.dtd">
<!-- Generated by graphviz version 2.43.0 (0)
 -->
<!-- Title: BST Pages: 1 -->
<svg width="460pt" height="385pt"
 viewBox="0.00 0.00 460.30 384.86" xmlns="http://www.w3.org/2000/svg" xmlns:xlink="http://www.w3.org/1999/xlink">
<g id="graph0" class="graph" transform="scale(1 1) rotate(0) translate(4 380.86)">
<title>BST</title>
<polygon fill="white" stroke="transparent" points="-4,4 -4,-380.86 456.3,-380.86 456.3,4 -4,4"/>
<!-- No_982820241 -->
<g id="node1" class="node">
<title>No_982820241</title>
<ellipse fill="none" stroke="black" cx="299.3" cy="-339.38" rx="69.09" ry="37.45"/>
<text text-anchor="middle" x="299.3" y="-350.68" font-family="Times,serif" font-size="14.00">Igor Silva</text>
<text text-anchor="middle" x="299.3" y="-335.68" font-family="Times,serif" font-size="14.00">982820241</text>
<text text-anchor="middle" x="299.3" y="-320.68" font-family="Times,serif" font-size="14.00">fb=&#45;1</text>
</g>
<!-- No_978691066 -->
<g id="node2" class="node">
<title>No_978691066</title>
<ellipse fill="none" stroke="black" cx="221.3" cy="-228.43" rx="69.09" ry="37.45"/>
<text text-anchor="middle" x="221.3" y="-239.73" font-family="Times,serif" font-size="14.00">Igor Torres</text>
<text text-anchor="middle" x="221.3" y="-224.73" font-family="Times,serif" font-size="14.00">978691066</text>
<text text-anchor="middle" x="221.3" y="-209.73" font-family="Times,serif" font-size="14.00">fb=0</text>
</g>
<!-- No_982820241&#45;&gt;No_978691066 -->
<g id="edge1" class="edge">
<title>No_982820241&#45;&gt;No_978691066</title>
<path fill="none" stroke="black" d="M274.83,-304.21C267.57,-294.06 259.52,-282.82 251.92,-272.21"/>
<polygon fill="black" stroke="black" points="254.61,-269.95 245.94,-263.86 248.92,-274.03 254.61,-269.95"/>
</g>
<!-- No_986590593 -->
<g id="node9" class="node">
<title>No_986590593</title>
<ellipse fill="none" stroke="black" cx="378.3" cy="-228.43" rx="69.09" ry="37.45"/>
<text text-anchor="middle" x="378.3" y="-239.73" font-family="Times,serif" font-size="14.00">Igor Souza</text>
<text text-anchor="middle" x="378.3" y="-224.73" font-family="Times,serif" font-size="14.00">986590593</text>
<text text-anchor="middle" x="378.3" y="-209.73" font-family="Times,serif" font-size="14.00">fb=0</text>
</g>
<!-- No_982820241&#45;&gt;No_986590593 -->
<g id="edge8" class="edge">
<title>No_982820241&#45;&gt;No_986590593</title>
<path fill="none" stroke="black" d="M324.08,-304.21C331.58,-293.86 339.9,-282.38 347.73,-271.58"/>
<polygon fill="black" stroke="black" points="350.57,-273.63 353.61,-263.48 344.9,-269.52 350.57,-273.63"/>
</g>
<!-- No_951709707 -->
<g id="node3" class="node">
<title>No_951709707</title>
<ellipse fill="none" stroke="black" cx="69.3" cy="-117.48" rx="69.09" ry="37.45"/>
<text text-anchor="middle" x="69.3" y="-128.78" font-family="Times,serif" font-size="14.00">Igor Barros</text>
<text text-anchor="middle" x="69.3" y="-113.78" font-family="Times,serif" font-size="14.00">951709707</text>
<text text-anchor="middle" x="69.3" y="-98.78" font-family="Times,serif" font-size="14.00">fb=0</text>
</g>
<!-- No_978691066&#45;&gt;No_951709707 -->
<g id="edge2" class="edge">
<title>No_978691066&#45;&gt;No_951709707</title>
<path fill="none" stroke="black" d="M180.16,-197.95C161.16,-184.33 138.45,-168.04 118.54,-153.77"/>
<polygon fill="black" stroke="black" points="120.37,-150.78 110.2,-147.8 116.29,-156.47 120.37,-150.78"/>
</g>
<!-- No_978838552 -->
<g id="node6" class="node">
<title>No_978838552</title>
<ellipse fill="none" stroke="black" cx="232.3" cy="-117.48" rx="75.82" ry="37.45"/>
<text text-anchor="middle" x="232.3" y="-128.78" font-family="Times,serif" font-size="14.00">Igor Martins</text>
<text text-anchor="middle" x="232.3" y="-113.78" font-family="Times,serif" font-size="14.00">978838552</text>
<text text-anchor="middle" x="232.3" y="-98.78" font-family="Times,serif" font-size="14.00">fb=0</text>
</g>
<!-- No_978691066&#45;&gt;No_978838552 -->
<g id="edge5" class="edge">
<title>No_978691066&#45;&gt;No_978838552</title>
<path fill="none" stroke="black" d="M224.99,-190.85C225.82,-182.67 226.7,-173.89 227.56,-165.37"/>
<polygon fill="black" stroke="black" points="231.07,-165.45 228.59,-155.15 224.11,-164.75 231.07,-165.45"/>
</g>
<!-- NUL_0 -->
<g id="node4" class="node">
<title>NUL_0</title>
<polygon fill="none" stroke="black" points="80.3,-44 36.3,-44 36.3,0 80.3,0 80.3,-44"/>
<text text-anchor="middle" x="58.3" y="-18.3" font-family="Times,serif" font-size="14.00">null</text>
</g>
<!-- No_951709707&#45;&gt;NUL_0 -->
<g id="edge3" class="edge">
<title>No_951709707&#45;&gt;NUL_0</title>
<path fill="none" stroke="black" d="M65.01,-80.07C64,-71.49 62.94,-62.42 61.96,-54.1"/>
<polygon fill="black" stroke="black" points="65.42,-53.58 60.77,-44.06 58.47,-54.4 65.42,-53.58"/>
</g>
<!-- NUL_1 -->
<g id="node5" class="node">
<title>NUL_1</title>
<polygon fill="none" stroke="black" points="142.3,-44 98.3,-44 98.3,0 142.3,0 142.3,-44"/>
<text text-anchor="middle" x="120.3" y="-18.3" font-family="Times,serif" font-size="14.00">null</text>
</g>
<!-- No_951709707&#45;&gt;NUL_1 -->
<g id="edge4" class="edge">
<title>No_951709707&#45;&gt;NUL_1</title>
<path fill="none" stroke="black" d="M88.43,-81.4C93.51,-72.1 98.94,-62.14 103.86,-53.12"/>
<polygon fill="black" stroke="black" points="107.05,-54.59 108.77,-44.14 100.9,-51.24 107.05,-54.59"/>
</g>
<!-- NUL_2 -->
<g id="node7" class="node">
<title>NUL_2</title>
<polygon fill="none" stroke="black" points="229.3,-44 185.3,-44 185.3,0 229.3,0 229.3,-44"/>
<text text-anchor="middle" x="207.3" y="-18.3" font-family="Times,serif" font-size="14.00">null</text>
</g>
<!-- No_978838552&#45;&gt;NUL_2 -->
<g id="edge6" class="edge">
<title>No_978838552&#45;&gt;NUL_2</title>
<path fill="none" stroke="black" d="M222.56,-80.07C220.24,-71.39 217.79,-62.22 215.54,-53.83"/>
<polygon fill="black" stroke="black" points="218.89,-52.81 212.93,-44.06 212.13,-54.62 218.89,-52.81"/>
</g>
<!-- NUL_3 -->
<g id="node8" class="node">
<title>NUL_3</title>
<polygon fill="none" stroke="black" points="291.3,-44 247.3,-44 247.3,0 291.3,0 291.3,-44"/>
<text text-anchor="middle" x="269.3" y="-18.3" font-family="Times,serif" font-size="14.00">null</text>
</g>
<!-- No_978838552&#45;&gt;NUL_3 -->
<g id="edge7" class="edge">
<title>No_978838552&#45;&gt;NUL_3</title>
<path fill="none" stroke="black" d="M246.5,-80.6C250.05,-71.63 253.83,-62.08 257.26,-53.4"/>
<polygon fill="black" stroke="black" points="260.54,-54.62 260.97,-44.04 254.04,-52.05 260.54,-54.62"/>
</g>
<!-- NUL_4 -->
<g id="node10" class="node">
<title>NUL_4</title>
<polygon fill="none" stroke="black" points="390.3,-139.48 346.3,-139.48 346.3,-95.48 390.3,-95.48 390.3,-139.48"/>
<text text-anchor="middle" x="368.3" y="-113.78" font-family="Times,serif" font-size="14.00">null</text>
</g>
<!-- No_986590593&#45;&gt;NUL_4 -->
<g id="edge9" class="edge">
<title>No_986590593&#45;&gt;NUL_4</title>
<path fill="none" stroke="black" d="M374.94,-190.85C373.72,-177.52 372.34,-162.58 371.17,-149.75"/>
<polygon fill="black" stroke="black" points="374.63,-149.19 370.23,-139.55 367.66,-149.83 374.63,-149.19"/>
</g>
<!-- NUL_5 -->
<g id="node11" class="node">
<title>NUL_5</title>
<polygon fill="none" stroke="black" points="452.3,-139.48 408.3,-139.48 408.3,-95.48 452.3,-95.48 452.3,-139.48"/>
<text text-anchor="middle" x="430.3" y="-113.78" font-family="Times,serif" font-size="14.00">null</text>
</g>
<!-- No_986590593&#45;&gt;NUL_5 -->
<g id="edge10" class="edge">
<title>No_986590593&#45;&gt;NUL_5</title>
<path fill="none" stroke="black" d="M395.18,-192.06C401.81,-178.16 409.35,-162.36 415.74,-148.97"/>
<polygon fill="black" stroke="black" points="419.01,-150.24 420.16,-139.71 412.7,-147.23 419.01,-150.24"/>
</g>
</g>
</svg>
