<?xml version="1.0" encoding="UTF-8" standalone="no"?>
<!DOCTYPE svg PUBLIC "-//W3C//DTD SVG 1.1//EN"
 "http://www.w3.org/Graphics/SVG/1.1/DTD/svg11.dtd">
<!-- Generated by graphviz version 2.43.0 (0)
 -->
<!-- Title: BST Pages: 1 -->
<svg width="1079pt" height="607pt"
 viewBox="0.00 0.00 1078.91 606.77" xmlns="http://www.w3.org/2000/svg" xmlns:xlink="http://www.w3.org/1999/xlink">
<g id="graph0" class="graph" transform="scale(1 1) rotate(0) translate(4 602.77)">
<title>BST</title>
<polygon fill="white" stroke="transparent" points="-4,4 -4,-602.77 1074.91,-602.77 1074.91,4 -4,4"/>
<!-- No_985278999 -->
<g id="node1" class="node">
<title>No_985278999</title>
<ellipse fill="none" stroke="black" cx="543.95" cy="-561.29" rx="75.82" ry="37.45"/>
<text text-anchor="middle" x="543.95" y="-572.59" font-family="Times,serif" font-size="14.00">Acir Campos</text>
<text text-anchor="middle" x="543.95" y="-557.59" font-family="Times,serif" font-size="14.00">985278999</text>
<text text-anchor="middle" x="543.95" y="-542.59" font-family="Times,serif" font-size="14.00">fb=0</text>
</g>
<!-- No_964642705 -->
<g id="node2" class="node">
<title>No_964642705</title>
<ellipse fill="none" stroke="black" cx="443.95" cy="-450.34" rx="78.48" ry="37.45"/>
<text text-anchor="middle" x="443.95" y="-461.64" font-family="Times,serif" font-size="14.00">Alícia Freitas</text>
<text text-anchor="middle" x="443.95" y="-446.64" font-family="Times,serif" font-size="14.00">964642705</text>
<text text-anchor="middle" x="443.95" y="-431.64" font-family="Times,serif" font-size="14.00">fb=1</text>
</g>
<!-- No_985278999&#45;&gt;No_964642705 -->
<g id="edge1" class="edge">
<title>No_985278999&#45;&gt;No_964642705</title>
<path fill="none" stroke="black" d="M513.13,-526.71C503.25,-515.94 492.19,-503.89 481.85,-492.63"/>
<polygon fill="black" stroke="black" points="484.18,-489.99 474.84,-484.99 479.03,-494.73 484.18,-489.99"/>
</g>
<!-- No_994116870 -->
<g id="node15" class="node">
<title>No_994116870</title>
<ellipse fill="none" stroke="black" cx="686.95" cy="-450.34" rx="98.99" ry="37.45"/>
<text text-anchor="middle" x="686.95" y="-461.64" font-family="Times,serif" font-size="14.00">Alexandra Moura</text>
<text text-anchor="middle" x="686.95" y="-446.64" font-family="Times,serif" font-size="14.00">994116870</text>
<text text-anchor="middle" x="686.95" y="-431.64" font-family="Times,serif" font-size="14.00">fb=0</text>
</g>
<!-- No_985278999&#45;&gt;No_994116870 -->
<g id="edge14" class="edge">
<title>No_985278999&#45;&gt;No_994116870</title>
<path fill="none" stroke="black" d="M584.55,-529.36C600.44,-517.25 618.86,-503.22 635.66,-490.42"/>
<polygon fill="black" stroke="black" points="637.92,-493.09 643.76,-484.25 633.68,-487.52 637.92,-493.09"/>
</g>
<!-- No_960933790 -->
<g id="node3" class="node">
<title>No_960933790</title>
<ellipse fill="none" stroke="black" cx="189.95" cy="-339.38" rx="85.62" ry="37.45"/>
<text text-anchor="middle" x="189.95" y="-350.68" font-family="Times,serif" font-size="14.00">Andrea Santos</text>
<text text-anchor="middle" x="189.95" y="-335.68" font-family="Times,serif" font-size="14.00">960933790</text>
<text text-anchor="middle" x="189.95" y="-320.68" font-family="Times,serif" font-size="14.00">fb=1</text>
</g>
<!-- No_964642705&#45;&gt;No_960933790 -->
<g id="edge2" class="edge">
<title>No_964642705&#45;&gt;No_960933790</title>
<path fill="none" stroke="black" d="M386.32,-424.61C348.65,-408.45 299.23,-387.26 259.4,-370.17"/>
<polygon fill="black" stroke="black" points="260.58,-366.87 250.01,-366.15 257.82,-373.3 260.58,-366.87"/>
</g>
<!-- No_967387182 -->
<g id="node8" class="node">
<title>No_967387182</title>
<ellipse fill="none" stroke="black" cx="443.95" cy="-339.38" rx="91.43" ry="37.45"/>
<text text-anchor="middle" x="443.95" y="-350.68" font-family="Times,serif" font-size="14.00">Alfredo Martins</text>
<text text-anchor="middle" x="443.95" y="-335.68" font-family="Times,serif" font-size="14.00">967387182</text>
<text text-anchor="middle" x="443.95" y="-320.68" font-family="Times,serif" font-size="14.00">fb=0</text>
</g>
<!-- No_964642705&#45;&gt;No_967387182 -->
<g id="edge7" class="edge">
<title>No_964642705&#45;&gt;No_967387182</title>
<path fill="none" stroke="black" d="M443.95,-412.75C443.95,-404.58 443.95,-395.8 443.95,-387.27"/>
<polygon fill="black" stroke="black" points="447.45,-387.06 443.95,-377.06 440.45,-387.06 447.45,-387.06"/>
</g>
<!-- No_955838599 -->
<g id="node4" class="node">
<title>No_955838599</title>
<ellipse fill="none" stroke="black" cx="74.95" cy="-228.43" rx="74.91" ry="37.45"/>
<text text-anchor="middle" x="74.95" y="-239.73" font-family="Times,serif" font-size="14.00">Aline Santos</text>
<text text-anchor="middle" x="74.95" y="-224.73" font-family="Times,serif" font-size="14.00">955838599</text>
<text text-anchor="middle" x="74.95" y="-209.73" font-family="Times,serif" font-size="14.00">fb=0</text>
</g>
<!-- No_960933790&#45;&gt;No_955838599 -->
<g id="edge3" class="edge">
<title>No_960933790&#45;&gt;No_955838599</title>
<path fill="none" stroke="black" d="M154.82,-305.1C142.9,-293.8 129.45,-281.07 117.04,-269.31"/>
<polygon fill="black" stroke="black" points="119.14,-266.47 109.47,-262.13 114.32,-271.55 119.14,-266.47"/>
</g>
<!-- NUL_2 -->
<g id="node7" class="node">
<title>NUL_2</title>
<polygon fill="none" stroke="black" points="211.95,-250.43 167.95,-250.43 167.95,-206.43 211.95,-206.43 211.95,-250.43"/>
<text text-anchor="middle" x="189.95" y="-224.73" font-family="Times,serif" font-size="14.00">null</text>
</g>
<!-- No_960933790&#45;&gt;NUL_2 -->
<g id="edge6" class="edge">
<title>No_960933790&#45;&gt;NUL_2</title>
<path fill="none" stroke="black" d="M189.95,-301.8C189.95,-288.47 189.95,-273.53 189.95,-260.7"/>
<polygon fill="black" stroke="black" points="193.45,-260.51 189.95,-250.51 186.45,-260.51 193.45,-260.51"/>
</g>
<!-- NUL_0 -->
<g id="node5" class="node">
<title>NUL_0</title>
<polygon fill="none" stroke="black" points="65.95,-139.48 21.95,-139.48 21.95,-95.48 65.95,-95.48 65.95,-139.48"/>
<text text-anchor="middle" x="43.95" y="-113.78" font-family="Times,serif" font-size="14.00">null</text>
</g>
<!-- No_955838599&#45;&gt;NUL_0 -->
<g id="edge4" class="edge">
<title>No_955838599&#45;&gt;NUL_0</title>
<path fill="none" stroke="black" d="M64.63,-191.15C60.79,-177.67 56.48,-162.51 52.79,-149.53"/>
<polygon fill="black" stroke="black" points="56.09,-148.33 49.98,-139.67 49.35,-150.25 56.09,-148.33"/>
</g>
<!-- NUL_1 -->
<g id="node6" class="node">
<title>NUL_1</title>
<polygon fill="none" stroke="black" points="127.95,-139.48 83.95,-139.48 83.95,-95.48 127.95,-95.48 127.95,-139.48"/>
<text text-anchor="middle" x="105.95" y="-113.78" font-family="Times,serif" font-size="14.00">null</text>
</g>
<!-- No_955838599&#45;&gt;NUL_1 -->
<g id="edge5" class="edge">
<title>No_955838599&#45;&gt;NUL_1</title>
<path fill="none" stroke="black" d="M85.28,-191.15C89.11,-177.67 93.43,-162.51 97.12,-149.53"/>
<polygon fill="black" stroke="black" points="100.55,-150.25 99.92,-139.67 93.82,-148.33 100.55,-150.25"/>
</g>
<!-- No_965115082 -->
<g id="node9" class="node">
<title>No_965115082</title>
<ellipse fill="none" stroke="black" cx="305.95" cy="-228.43" rx="75.82" ry="37.45"/>
<text text-anchor="middle" x="305.95" y="-239.73" font-family="Times,serif" font-size="14.00">Ana Barbosa</text>
<text text-anchor="middle" x="305.95" y="-224.73" font-family="Times,serif" font-size="14.00">965115082</text>
<text text-anchor="middle" x="305.95" y="-209.73" font-family="Times,serif" font-size="14.00">fb=0</text>
</g>
<!-- No_967387182&#45;&gt;No_965115082 -->
<g id="edge8" class="edge">
<title>No_967387182&#45;&gt;No_965115082</title>
<path fill="none" stroke="black" d="M402.55,-305.69C387.13,-293.52 369.52,-279.62 353.59,-267.04"/>
<polygon fill="black" stroke="black" points="355.45,-264.05 345.44,-260.6 351.11,-269.55 355.45,-264.05"/>
</g>
<!-- No_975960513 -->
<g id="node12" class="node">
<title>No_975960513</title>
<ellipse fill="none" stroke="black" cx="472.95" cy="-228.43" rx="73.58" ry="37.45"/>
<text text-anchor="middle" x="472.95" y="-239.73" font-family="Times,serif" font-size="14.00">Altair Souza</text>
<text text-anchor="middle" x="472.95" y="-224.73" font-family="Times,serif" font-size="14.00">975960513</text>
<text text-anchor="middle" x="472.95" y="-209.73" font-family="Times,serif" font-size="14.00">fb=0</text>
</g>
<!-- No_967387182&#45;&gt;No_975960513 -->
<g id="edge11" class="edge">
<title>No_967387182&#45;&gt;No_975960513</title>
<path fill="none" stroke="black" d="M453.61,-302.1C455.86,-293.65 458.29,-284.53 460.64,-275.71"/>
<polygon fill="black" stroke="black" points="464.05,-276.49 463.24,-265.92 457.29,-274.69 464.05,-276.49"/>
</g>
<!-- NUL_3 -->
<g id="node10" class="node">
<title>NUL_3</title>
<polygon fill="none" stroke="black" points="286.95,-139.48 242.95,-139.48 242.95,-95.48 286.95,-95.48 286.95,-139.48"/>
<text text-anchor="middle" x="264.95" y="-113.78" font-family="Times,serif" font-size="14.00">null</text>
</g>
<!-- No_965115082&#45;&gt;NUL_3 -->
<g id="edge9" class="edge">
<title>No_965115082&#45;&gt;NUL_3</title>
<path fill="none" stroke="black" d="M292.41,-191.45C287.28,-177.82 281.49,-162.43 276.56,-149.32"/>
<polygon fill="black" stroke="black" points="279.77,-147.92 272.97,-139.79 273.22,-150.39 279.77,-147.92"/>
</g>
<!-- NUL_4 -->
<g id="node11" class="node">
<title>NUL_4</title>
<polygon fill="none" stroke="black" points="348.95,-139.48 304.95,-139.48 304.95,-95.48 348.95,-95.48 348.95,-139.48"/>
<text text-anchor="middle" x="326.95" y="-113.78" font-family="Times,serif" font-size="14.00">null</text>
</g>
<!-- No_965115082&#45;&gt;NUL_4 -->
<g id="edge10" class="edge">
<title>No_965115082&#45;&gt;NUL_4</title>
<path fill="none" stroke="black" d="M313,-190.85C315.57,-177.52 318.45,-162.58 320.93,-149.75"/>
<polygon fill="black" stroke="black" points="324.43,-150.04 322.89,-139.55 317.56,-148.71 324.43,-150.04"/>
</g>
<!-- NUL_5 -->
<g id="node13" class="node">
<title>NUL_5</title>
<polygon fill="none" stroke="black" points="463.95,-139.48 419.95,-139.48 419.95,-95.48 463.95,-95.48 463.95,-139.48"/>
<text text-anchor="middle" x="441.95" y="-113.78" font-family="Times,serif" font-size="14.00">null</text>
</g>
<!-- No_975960513&#45;&gt;NUL_5 -->
<g id="edge12" class="edge">
<title>No_975960513&#45;&gt;NUL_5</title>
<path fill="none" stroke="black" d="M462.63,-191.15C458.79,-177.67 454.48,-162.51 450.79,-149.53"/>
<polygon fill="black" stroke="black" points="454.09,-148.33 447.98,-139.67 447.35,-150.25 454.09,-148.33"/>
</g>
<!-- NUL_6 -->
<g id="node14" class="node">
<title>NUL_6</title>
<polygon fill="none" stroke="black" points="525.95,-139.48 481.95,-139.48 481.95,-95.48 525.95,-95.48 525.95,-139.48"/>
<text text-anchor="middle" x="503.95" y="-113.78" font-family="Times,serif" font-size="14.00">null</text>
</g>
<!-- No_975960513&#45;&gt;NUL_6 -->
<g id="edge13" class="edge">
<title>No_975960513&#45;&gt;NUL_6</title>
<path fill="none" stroke="black" d="M483.28,-191.15C487.11,-177.67 491.43,-162.51 495.12,-149.53"/>
<polygon fill="black" stroke="black" points="498.55,-150.25 497.92,-139.67 491.82,-148.33 498.55,-150.25"/>
</g>
<!-- No_987671978 -->
<g id="node16" class="node">
<title>No_987671978</title>
<ellipse fill="none" stroke="black" cx="686.95" cy="-339.38" rx="90.52" ry="37.45"/>
<text text-anchor="middle" x="686.95" y="-350.68" font-family="Times,serif" font-size="14.00">Adriana Pereira</text>
<text text-anchor="middle" x="686.95" y="-335.68" font-family="Times,serif" font-size="14.00">987671978</text>
<text text-anchor="middle" x="686.95" y="-320.68" font-family="Times,serif" font-size="14.00">fb=&#45;1</text>
</g>
<!-- No_994116870&#45;&gt;No_987671978 -->
<g id="edge15" class="edge">
<title>No_994116870&#45;&gt;No_987671978</title>
<path fill="none" stroke="black" d="M686.95,-412.75C686.95,-404.58 686.95,-395.8 686.95,-387.27"/>
<polygon fill="black" stroke="black" points="690.45,-387.06 686.95,-377.06 683.45,-387.06 690.45,-387.06"/>
</g>
<!-- No_996598918 -->
<g id="node23" class="node">
<title>No_996598918</title>
<ellipse fill="none" stroke="black" cx="880.95" cy="-339.38" rx="69.09" ry="37.45"/>
<text text-anchor="middle" x="880.95" y="-350.68" font-family="Times,serif" font-size="14.00">Ana Farias</text>
<text text-anchor="middle" x="880.95" y="-335.68" font-family="Times,serif" font-size="14.00">996598918</text>
<text text-anchor="middle" x="880.95" y="-320.68" font-family="Times,serif" font-size="14.00">fb=1</text>
</g>
<!-- No_994116870&#45;&gt;No_996598918 -->
<g id="edge22" class="edge">
<title>No_994116870&#45;&gt;No_996598918</title>
<path fill="none" stroke="black" d="M741.25,-418.84C767.33,-404.19 798.57,-386.65 824.88,-371.88"/>
<polygon fill="black" stroke="black" points="826.59,-374.93 833.6,-366.98 823.16,-368.82 826.59,-374.93"/>
</g>
<!-- No_986979432 -->
<g id="node17" class="node">
<title>No_986979432</title>
<ellipse fill="none" stroke="black" cx="671.95" cy="-228.43" rx="107.46" ry="37.45"/>
<text text-anchor="middle" x="671.95" y="-239.73" font-family="Times,serif" font-size="14.00">Américo Rodrigues</text>
<text text-anchor="middle" x="671.95" y="-224.73" font-family="Times,serif" font-size="14.00">986979432</text>
<text text-anchor="middle" x="671.95" y="-209.73" font-family="Times,serif" font-size="14.00">fb=0</text>
</g>
<!-- No_987671978&#45;&gt;No_986979432 -->
<g id="edge16" class="edge">
<title>No_987671978&#45;&gt;No_986979432</title>
<path fill="none" stroke="black" d="M681.92,-301.8C680.78,-293.54 679.56,-284.65 678.37,-276.04"/>
<polygon fill="black" stroke="black" points="681.83,-275.53 677,-266.1 674.9,-276.49 681.83,-275.53"/>
</g>
<!-- NUL_10 -->
<g id="node22" class="node">
<title>NUL_10</title>
<polygon fill="none" stroke="black" points="840.95,-250.43 796.95,-250.43 796.95,-206.43 840.95,-206.43 840.95,-250.43"/>
<text text-anchor="middle" x="818.95" y="-224.73" font-family="Times,serif" font-size="14.00">null</text>
</g>
<!-- No_987671978&#45;&gt;NUL_10 -->
<g id="edge21" class="edge">
<title>No_987671978&#45;&gt;NUL_10</title>
<path fill="none" stroke="black" d="M735.05,-307.45C752.44,-295.36 771.76,-280.82 787.95,-265.91 790.46,-263.6 792.96,-261.09 795.39,-258.51"/>
<polygon fill="black" stroke="black" points="798.34,-260.46 802.4,-250.68 793.13,-255.79 798.34,-260.46"/>
</g>
<!-- NUL_7 -->
<g id="node18" class="node">
<title>NUL_7</title>
<polygon fill="none" stroke="black" points="648.95,-139.48 604.95,-139.48 604.95,-95.48 648.95,-95.48 648.95,-139.48"/>
<text text-anchor="middle" x="626.95" y="-113.78" font-family="Times,serif" font-size="14.00">null</text>
</g>
<!-- No_986979432&#45;&gt;NUL_7 -->
<g id="edge17" class="edge">
<title>No_986979432&#45;&gt;NUL_7</title>
<path fill="none" stroke="black" d="M656.97,-191.15C651.35,-177.54 645.01,-162.21 639.62,-149.15"/>
<polygon fill="black" stroke="black" points="642.76,-147.58 635.71,-139.67 636.29,-150.25 642.76,-147.58"/>
</g>
<!-- No_987340734 -->
<g id="node19" class="node">
<title>No_987340734</title>
<ellipse fill="none" stroke="black" cx="765.95" cy="-117.48" rx="98.99" ry="37.45"/>
<text text-anchor="middle" x="765.95" y="-128.78" font-family="Times,serif" font-size="14.00">Antônia Machado</text>
<text text-anchor="middle" x="765.95" y="-113.78" font-family="Times,serif" font-size="14.00">987340734</text>
<text text-anchor="middle" x="765.95" y="-98.78" font-family="Times,serif" font-size="14.00">fb=0</text>
</g>
<!-- No_986979432&#45;&gt;No_987340734 -->
<g id="edge18" class="edge">
<title>No_986979432&#45;&gt;No_987340734</title>
<path fill="none" stroke="black" d="M702.21,-192.36C710.77,-182.44 720.17,-171.54 729.07,-161.23"/>
<polygon fill="black" stroke="black" points="731.87,-163.34 735.75,-153.48 726.57,-158.77 731.87,-163.34"/>
</g>
<!-- NUL_8 -->
<g id="node20" class="node">
<title>NUL_8</title>
<polygon fill="none" stroke="black" points="756.95,-44 712.95,-44 712.95,0 756.95,0 756.95,-44"/>
<text text-anchor="middle" x="734.95" y="-18.3" font-family="Times,serif" font-size="14.00">null</text>
</g>
<!-- No_987340734&#45;&gt;NUL_8 -->
<g id="edge19" class="edge">
<title>No_987340734&#45;&gt;NUL_8</title>
<path fill="none" stroke="black" d="M753.88,-80.07C750.97,-71.3 747.89,-62.02 745.08,-53.55"/>
<polygon fill="black" stroke="black" points="748.41,-52.45 741.94,-44.06 741.76,-54.65 748.41,-52.45"/>
</g>
<!-- NUL_9 -->
<g id="node21" class="node">
<title>NUL_9</title>
<polygon fill="none" stroke="black" points="818.95,-44 774.95,-44 774.95,0 818.95,0 818.95,-44"/>
<text text-anchor="middle" x="796.95" y="-18.3" font-family="Times,serif" font-size="14.00">null</text>
</g>
<!-- No_987340734&#45;&gt;NUL_9 -->
<g id="edge20" class="edge">
<title>No_987340734&#45;&gt;NUL_9</title>
<path fill="none" stroke="black" d="M778.03,-80.07C780.94,-71.3 784.01,-62.02 786.82,-53.55"/>
<polygon fill="black" stroke="black" points="790.14,-54.65 789.97,-44.06 783.5,-52.45 790.14,-54.65"/>
</g>
<!-- NUL_11 -->
<g id="node24" class="node">
<title>NUL_11</title>
<polygon fill="none" stroke="black" points="902.95,-250.43 858.95,-250.43 858.95,-206.43 902.95,-206.43 902.95,-250.43"/>
<text text-anchor="middle" x="880.95" y="-224.73" font-family="Times,serif" font-size="14.00">null</text>
</g>
<!-- No_996598918&#45;&gt;NUL_11 -->
<g id="edge23" class="edge">
<title>No_996598918&#45;&gt;NUL_11</title>
<path fill="none" stroke="black" d="M880.95,-301.8C880.95,-288.47 880.95,-273.53 880.95,-260.7"/>
<polygon fill="black" stroke="black" points="884.45,-260.51 880.95,-250.51 877.45,-260.51 884.45,-260.51"/>
</g>
<!-- No_997285865 -->
<g id="node25" class="node">
<title>No_997285865</title>
<ellipse fill="none" stroke="black" cx="995.95" cy="-228.43" rx="74.91" ry="37.45"/>
<text text-anchor="middle" x="995.95" y="-239.73" font-family="Times,serif" font-size="14.00">Almir Torres</text>
<text text-anchor="middle" x="995.95" y="-224.73" font-family="Times,serif" font-size="14.00">997285865</text>
<text text-anchor="middle" x="995.95" y="-209.73" font-family="Times,serif" font-size="14.00">fb=0</text>
</g>
<!-- No_996598918&#45;&gt;No_997285865 -->
<g id="edge24" class="edge">
<title>No_996598918&#45;&gt;No_997285865</title>
<path fill="none" stroke="black" d="M914.53,-306.58C926.94,-294.82 941.16,-281.34 954.22,-268.97"/>
<polygon fill="black" stroke="black" points="956.89,-271.26 961.74,-261.84 952.07,-266.18 956.89,-271.26"/>
</g>
<!-- NUL_12 -->
<g id="node26" class="node">
<title>NUL_12</title>
<polygon fill="none" stroke="black" points="986.95,-139.48 942.95,-139.48 942.95,-95.48 986.95,-95.48 986.95,-139.48"/>
<text text-anchor="middle" x="964.95" y="-113.78" font-family="Times,serif" font-size="14.00">null</text>
</g>
<!-- No_997285865&#45;&gt;NUL_12 -->
<g id="edge25" class="edge">
<title>No_997285865&#45;&gt;NUL_12</title>
<path fill="none" stroke="black" d="M985.63,-191.15C981.79,-177.67 977.48,-162.51 973.79,-149.53"/>
<polygon fill="black" stroke="black" points="977.09,-148.33 970.98,-139.67 970.35,-150.25 977.09,-148.33"/>
</g>
<!-- NUL_13 -->
<g id="node27" class="node">
<title>NUL_13</title>
<polygon fill="none" stroke="black" points="1048.95,-139.48 1004.95,-139.48 1004.95,-95.48 1048.95,-95.48 1048.95,-139.48"/>
<text text-anchor="middle" x="1026.95" y="-113.78" font-family="Times,serif" font-size="14.00">null</text>
</g>
<!-- No_997285865&#45;&gt;NUL_13 -->
<g id="edge26" class="edge">
<title>No_997285865&#45;&gt;NUL_13</title>
<path fill="none" stroke="black" d="M1006.28,-191.15C1010.11,-177.67 1014.43,-162.51 1018.12,-149.53"/>
<polygon fill="black" stroke="black" points="1021.55,-150.25 1020.92,-139.67 1014.82,-148.33 1021.55,-150.25"/>
</g>
</g>
</svg>
