<?xml version="1.0" encoding="UTF-8" standalone="no"?>
<!DOCTYPE svg PUBLIC "-//W3C//DTD SVG 1.1//EN"
 "http://www.w3.org/Graphics/SVG/1.1/DTD/svg11.dtd">
<!-- Generated by graphviz version 2.43.0 (0)
 -->
<!-- Title: BST Pages: 1 -->
<svg width="900pt" height="607pt"
 viewBox="0.00 0.00 899.95 606.77" xmlns="http://www.w3.org/2000/svg" xmlns:xlink="http://www.w3.org/1999/xlink">
<g id="graph0" class="graph" transform="scale(1 1) rotate(0) translate(4 602.77)">
<title>BST</title>
<polygon fill="white" stroke="transparent" points="-4,4 -4,-602.77 895.95,-602.77 895.95,4 -4,4"/>
<!-- No_985278999 -->
<g id="node1" class="node">
<title>No_985278999</title>
<ellipse fill="none" stroke="black" cx="501.95" cy="-561.29" rx="75.82" ry="37.45"/>
<text text-anchor="middle" x="501.95" y="-572.59" font-family="Times,serif" font-size="14.00">Acir Campos</text>
<text text-anchor="middle" x="501.95" y="-557.59" font-family="Times,serif" font-size="14.00">985278999</text>
<text text-anchor="middle" x="501.95" y="-542.59" font-family="Times,serif" font-size="14.00">fb=0</text>
</g>
<!-- No_965115082 -->
<g id="node2" class="node">
<title>No_965115082</title>
<ellipse fill="none" stroke="black" cx="385.95" cy="-450.34" rx="75.82" ry="37.45"/>
<text text-anchor="middle" x="385.95" y="-461.64" font-family="Times,serif" font-size="14.00">Ana Barbosa</text>
<text text-anchor="middle" x="385.95" y="-446.64" font-family="Times,serif" font-size="14.00">965115082</text>
<text text-anchor="middle" x="385.95" y="-431.64" font-family="Times,serif" font-size="14.00">fb=0</text>
</g>
<!-- No_985278999&#45;&gt;No_965115082 -->
<g id="edge1" class="edge">
<title>No_985278999&#45;&gt;No_965115082</title>
<path fill="none" stroke="black" d="M467.46,-527.9C455.07,-516.25 440.95,-502.99 427.99,-490.82"/>
<polygon fill="black" stroke="black" points="430.2,-488.09 420.51,-483.79 425.4,-493.19 430.2,-488.09"/>
</g>
<!-- No_994116870 -->
<g id="node13" class="node">
<title>No_994116870</title>
<ellipse fill="none" stroke="black" cx="611.95" cy="-450.34" rx="98.99" ry="37.45"/>
<text text-anchor="middle" x="611.95" y="-461.64" font-family="Times,serif" font-size="14.00">Alexandra Moura</text>
<text text-anchor="middle" x="611.95" y="-446.64" font-family="Times,serif" font-size="14.00">994116870</text>
<text text-anchor="middle" x="611.95" y="-431.64" font-family="Times,serif" font-size="14.00">fb=&#45;1</text>
</g>
<!-- No_985278999&#45;&gt;No_994116870 -->
<g id="edge12" class="edge">
<title>No_985278999&#45;&gt;No_994116870</title>
<path fill="none" stroke="black" d="M535.26,-527.3C546.15,-516.52 558.39,-504.39 569.85,-493.04"/>
<polygon fill="black" stroke="black" points="572.6,-495.24 577.24,-485.72 567.67,-490.27 572.6,-495.24"/>
</g>
<!-- No_960933790 -->
<g id="node3" class="node">
<title>No_960933790</title>
<ellipse fill="none" stroke="black" cx="189.95" cy="-339.38" rx="85.62" ry="37.45"/>
<text text-anchor="middle" x="189.95" y="-350.68" font-family="Times,serif" font-size="14.00">Andrea Santos</text>
<text text-anchor="middle" x="189.95" y="-335.68" font-family="Times,serif" font-size="14.00">960933790</text>
<text text-anchor="middle" x="189.95" y="-320.68" font-family="Times,serif" font-size="14.00">fb=1</text>
</g>
<!-- No_965115082&#45;&gt;No_960933790 -->
<g id="edge2" class="edge">
<title>No_965115082&#45;&gt;No_960933790</title>
<path fill="none" stroke="black" d="M336.49,-421.84C310.4,-407.34 278.16,-389.42 250.57,-374.08"/>
<polygon fill="black" stroke="black" points="252.24,-371 241.79,-369.2 248.83,-377.12 252.24,-371"/>
</g>
<!-- No_975960513 -->
<g id="node8" class="node">
<title>No_975960513</title>
<ellipse fill="none" stroke="black" cx="385.95" cy="-339.38" rx="73.58" ry="37.45"/>
<text text-anchor="middle" x="385.95" y="-350.68" font-family="Times,serif" font-size="14.00">Altair Souza</text>
<text text-anchor="middle" x="385.95" y="-335.68" font-family="Times,serif" font-size="14.00">975960513</text>
<text text-anchor="middle" x="385.95" y="-320.68" font-family="Times,serif" font-size="14.00">fb=&#45;1</text>
</g>
<!-- No_965115082&#45;&gt;No_975960513 -->
<g id="edge7" class="edge">
<title>No_965115082&#45;&gt;No_975960513</title>
<path fill="none" stroke="black" d="M385.95,-412.75C385.95,-404.58 385.95,-395.8 385.95,-387.27"/>
<polygon fill="black" stroke="black" points="389.45,-387.06 385.95,-377.06 382.45,-387.06 389.45,-387.06"/>
</g>
<!-- No_955838599 -->
<g id="node4" class="node">
<title>No_955838599</title>
<ellipse fill="none" stroke="black" cx="74.95" cy="-228.43" rx="74.91" ry="37.45"/>
<text text-anchor="middle" x="74.95" y="-239.73" font-family="Times,serif" font-size="14.00">Aline Santos</text>
<text text-anchor="middle" x="74.95" y="-224.73" font-family="Times,serif" font-size="14.00">955838599</text>
<text text-anchor="middle" x="74.95" y="-209.73" font-family="Times,serif" font-size="14.00">fb=0</text>
</g>
<!-- No_960933790&#45;&gt;No_955838599 -->
<g id="edge3" class="edge">
<title>No_960933790&#45;&gt;No_955838599</title>
<path fill="none" stroke="black" d="M154.82,-305.1C142.9,-293.8 129.45,-281.07 117.04,-269.31"/>
<polygon fill="black" stroke="black" points="119.14,-266.47 109.47,-262.13 114.32,-271.55 119.14,-266.47"/>
</g>
<!-- NUL_2 -->
<g id="node7" class="node">
<title>NUL_2</title>
<polygon fill="none" stroke="black" points="211.95,-250.43 167.95,-250.43 167.95,-206.43 211.95,-206.43 211.95,-250.43"/>
<text text-anchor="middle" x="189.95" y="-224.73" font-family="Times,serif" font-size="14.00">null</text>
</g>
<!-- No_960933790&#45;&gt;NUL_2 -->
<g id="edge6" class="edge">
<title>No_960933790&#45;&gt;NUL_2</title>
<path fill="none" stroke="black" d="M189.95,-301.8C189.95,-288.47 189.95,-273.53 189.95,-260.7"/>
<polygon fill="black" stroke="black" points="193.45,-260.51 189.95,-250.51 186.45,-260.51 193.45,-260.51"/>
</g>
<!-- NUL_0 -->
<g id="node5" class="node">
<title>NUL_0</title>
<polygon fill="none" stroke="black" points="65.95,-139.48 21.95,-139.48 21.95,-95.48 65.95,-95.48 65.95,-139.48"/>
<text text-anchor="middle" x="43.95" y="-113.78" font-family="Times,serif" font-size="14.00">null</text>
</g>
<!-- No_955838599&#45;&gt;NUL_0 -->
<g id="edge4" class="edge">
<title>No_955838599&#45;&gt;NUL_0</title>
<path fill="none" stroke="black" d="M64.63,-191.15C60.79,-177.67 56.48,-162.51 52.79,-149.53"/>
<polygon fill="black" stroke="black" points="56.09,-148.33 49.98,-139.67 49.35,-150.25 56.09,-148.33"/>
</g>
<!-- NUL_1 -->
<g id="node6" class="node">
<title>NUL_1</title>
<polygon fill="none" stroke="black" points="127.95,-139.48 83.95,-139.48 83.95,-95.48 127.95,-95.48 127.95,-139.48"/>
<text text-anchor="middle" x="105.95" y="-113.78" font-family="Times,serif" font-size="14.00">null</text>
</g>
<!-- No_955838599&#45;&gt;NUL_1 -->
<g id="edge5" class="edge">
<title>No_955838599&#45;&gt;NUL_1</title>
<path fill="none" stroke="black" d="M85.28,-191.15C89.11,-177.67 93.43,-162.51 97.12,-149.53"/>
<polygon fill="black" stroke="black" points="100.55,-150.25 99.92,-139.67 93.82,-148.33 100.55,-150.25"/>
</g>
<!-- No_967387182 -->
<g id="node9" class="node">
<title>No_967387182</title>
<ellipse fill="none" stroke="black" cx="320.95" cy="-228.43" rx="91.43" ry="37.45"/>
<text text-anchor="middle" x="320.95" y="-239.73" font-family="Times,serif" font-size="14.00">Alfredo Martins</text>
<text text-anchor="middle" x="320.95" y="-224.73" font-family="Times,serif" font-size="14.00">967387182</text>
<text text-anchor="middle" x="320.95" y="-209.73" font-family="Times,serif" font-size="14.00">fb=0</text>
</g>
<!-- No_975960513&#45;&gt;No_967387182 -->
<g id="edge8" class="edge">
<title>No_975960513&#45;&gt;No_967387182</title>
<path fill="none" stroke="black" d="M365.03,-303.31C359.46,-293.97 353.37,-283.77 347.54,-274"/>
<polygon fill="black" stroke="black" points="350.41,-271.98 342.28,-265.19 344.4,-275.57 350.41,-271.98"/>
</g>
<!-- NUL_5 -->
<g id="node12" class="node">
<title>NUL_5</title>
<polygon fill="none" stroke="black" points="473.95,-250.43 429.95,-250.43 429.95,-206.43 473.95,-206.43 473.95,-250.43"/>
<text text-anchor="middle" x="451.95" y="-224.73" font-family="Times,serif" font-size="14.00">null</text>
</g>
<!-- No_975960513&#45;&gt;NUL_5 -->
<g id="edge11" class="edge">
<title>No_975960513&#45;&gt;NUL_5</title>
<path fill="none" stroke="black" d="M407.2,-303.31C415.77,-289.16 425.56,-273 433.8,-259.4"/>
<polygon fill="black" stroke="black" points="437.03,-260.83 439.21,-250.46 431.04,-257.2 437.03,-260.83"/>
</g>
<!-- NUL_3 -->
<g id="node10" class="node">
<title>NUL_3</title>
<polygon fill="none" stroke="black" points="311.95,-139.48 267.95,-139.48 267.95,-95.48 311.95,-95.48 311.95,-139.48"/>
<text text-anchor="middle" x="289.95" y="-113.78" font-family="Times,serif" font-size="14.00">null</text>
</g>
<!-- No_967387182&#45;&gt;NUL_3 -->
<g id="edge9" class="edge">
<title>No_967387182&#45;&gt;NUL_3</title>
<path fill="none" stroke="black" d="M310.63,-191.15C306.79,-177.67 302.48,-162.51 298.79,-149.53"/>
<polygon fill="black" stroke="black" points="302.09,-148.33 295.98,-139.67 295.35,-150.25 302.09,-148.33"/>
</g>
<!-- NUL_4 -->
<g id="node11" class="node">
<title>NUL_4</title>
<polygon fill="none" stroke="black" points="373.95,-139.48 329.95,-139.48 329.95,-95.48 373.95,-95.48 373.95,-139.48"/>
<text text-anchor="middle" x="351.95" y="-113.78" font-family="Times,serif" font-size="14.00">null</text>
</g>
<!-- No_967387182&#45;&gt;NUL_4 -->
<g id="edge10" class="edge">
<title>No_967387182&#45;&gt;NUL_4</title>
<path fill="none" stroke="black" d="M331.28,-191.15C335.11,-177.67 339.43,-162.51 343.12,-149.53"/>
<polygon fill="black" stroke="black" points="346.55,-150.25 345.92,-139.67 339.82,-148.33 346.55,-150.25"/>
</g>
<!-- No_987671978 -->
<g id="node14" class="node">
<title>No_987671978</title>
<ellipse fill="none" stroke="black" cx="611.95" cy="-339.38" rx="90.52" ry="37.45"/>
<text text-anchor="middle" x="611.95" y="-350.68" font-family="Times,serif" font-size="14.00">Adriana Pereira</text>
<text text-anchor="middle" x="611.95" y="-335.68" font-family="Times,serif" font-size="14.00">987671978</text>
<text text-anchor="middle" x="611.95" y="-320.68" font-family="Times,serif" font-size="14.00">fb=&#45;1</text>
</g>
<!-- No_994116870&#45;&gt;No_987671978 -->
<g id="edge13" class="edge">
<title>No_994116870&#45;&gt;No_987671978</title>
<path fill="none" stroke="black" d="M611.95,-412.75C611.95,-404.58 611.95,-395.8 611.95,-387.27"/>
<polygon fill="black" stroke="black" points="615.45,-387.06 611.95,-377.06 608.45,-387.06 615.45,-387.06"/>
</g>
<!-- No_997285865 -->
<g id="node21" class="node">
<title>No_997285865</title>
<ellipse fill="none" stroke="black" cx="807.95" cy="-339.38" rx="74.91" ry="37.45"/>
<text text-anchor="middle" x="807.95" y="-350.68" font-family="Times,serif" font-size="14.00">Almir Torres</text>
<text text-anchor="middle" x="807.95" y="-335.68" font-family="Times,serif" font-size="14.00">997285865</text>
<text text-anchor="middle" x="807.95" y="-320.68" font-family="Times,serif" font-size="14.00">fb=0</text>
</g>
<!-- No_994116870&#45;&gt;No_997285865 -->
<g id="edge20" class="edge">
<title>No_994116870&#45;&gt;No_997285865</title>
<path fill="none" stroke="black" d="M666.55,-418.99C692.5,-404.56 723.54,-387.31 749.92,-372.64"/>
<polygon fill="black" stroke="black" points="751.63,-375.7 758.67,-367.78 748.23,-369.58 751.63,-375.7"/>
</g>
<!-- No_986979432 -->
<g id="node15" class="node">
<title>No_986979432</title>
<ellipse fill="none" stroke="black" cx="598.95" cy="-228.43" rx="107.46" ry="37.45"/>
<text text-anchor="middle" x="598.95" y="-239.73" font-family="Times,serif" font-size="14.00">Américo Rodrigues</text>
<text text-anchor="middle" x="598.95" y="-224.73" font-family="Times,serif" font-size="14.00">986979432</text>
<text text-anchor="middle" x="598.95" y="-209.73" font-family="Times,serif" font-size="14.00">fb=0</text>
</g>
<!-- No_987671978&#45;&gt;No_986979432 -->
<g id="edge14" class="edge">
<title>No_987671978&#45;&gt;No_986979432</title>
<path fill="none" stroke="black" d="M607.59,-301.8C606.6,-293.54 605.54,-284.65 604.51,-276.04"/>
<polygon fill="black" stroke="black" points="607.99,-275.62 603.33,-266.1 601.04,-276.45 607.99,-275.62"/>
</g>
<!-- NUL_9 -->
<g id="node20" class="node">
<title>NUL_9</title>
<polygon fill="none" stroke="black" points="767.95,-250.43 723.95,-250.43 723.95,-206.43 767.95,-206.43 767.95,-250.43"/>
<text text-anchor="middle" x="745.95" y="-224.73" font-family="Times,serif" font-size="14.00">null</text>
</g>
<!-- No_987671978&#45;&gt;NUL_9 -->
<g id="edge19" class="edge">
<title>No_987671978&#45;&gt;NUL_9</title>
<path fill="none" stroke="black" d="M660.78,-307.76C678.59,-295.64 698.4,-281.02 714.95,-265.91 717.47,-263.61 719.98,-261.11 722.41,-258.54"/>
<polygon fill="black" stroke="black" points="725.36,-260.49 729.43,-250.71 720.15,-255.82 725.36,-260.49"/>
</g>
<!-- NUL_6 -->
<g id="node16" class="node">
<title>NUL_6</title>
<polygon fill="none" stroke="black" points="550.95,-139.48 506.95,-139.48 506.95,-95.48 550.95,-95.48 550.95,-139.48"/>
<text text-anchor="middle" x="528.95" y="-113.78" font-family="Times,serif" font-size="14.00">null</text>
</g>
<!-- No_986979432&#45;&gt;NUL_6 -->
<g id="edge15" class="edge">
<title>No_986979432&#45;&gt;NUL_6</title>
<path fill="none" stroke="black" d="M576.03,-191.75C566.94,-177.6 556.61,-161.52 547.94,-148.03"/>
<polygon fill="black" stroke="black" points="550.87,-146.11 542.52,-139.59 544.98,-149.9 550.87,-146.11"/>
</g>
<!-- No_987340734 -->
<g id="node17" class="node">
<title>No_987340734</title>
<ellipse fill="none" stroke="black" cx="667.95" cy="-117.48" rx="98.99" ry="37.45"/>
<text text-anchor="middle" x="667.95" y="-128.78" font-family="Times,serif" font-size="14.00">Antônia Machado</text>
<text text-anchor="middle" x="667.95" y="-113.78" font-family="Times,serif" font-size="14.00">987340734</text>
<text text-anchor="middle" x="667.95" y="-98.78" font-family="Times,serif" font-size="14.00">fb=0</text>
</g>
<!-- No_986979432&#45;&gt;No_987340734 -->
<g id="edge16" class="edge">
<title>No_986979432&#45;&gt;No_987340734</title>
<path fill="none" stroke="black" d="M621.55,-191.75C627.38,-182.54 633.74,-172.5 639.82,-162.9"/>
<polygon fill="black" stroke="black" points="642.92,-164.55 645.31,-154.23 637,-160.81 642.92,-164.55"/>
</g>
<!-- NUL_7 -->
<g id="node18" class="node">
<title>NUL_7</title>
<polygon fill="none" stroke="black" points="658.95,-44 614.95,-44 614.95,0 658.95,0 658.95,-44"/>
<text text-anchor="middle" x="636.95" y="-18.3" font-family="Times,serif" font-size="14.00">null</text>
</g>
<!-- No_987340734&#45;&gt;NUL_7 -->
<g id="edge17" class="edge">
<title>No_987340734&#45;&gt;NUL_7</title>
<path fill="none" stroke="black" d="M655.88,-80.07C652.97,-71.3 649.89,-62.02 647.08,-53.55"/>
<polygon fill="black" stroke="black" points="650.41,-52.45 643.94,-44.06 643.76,-54.65 650.41,-52.45"/>
</g>
<!-- NUL_8 -->
<g id="node19" class="node">
<title>NUL_8</title>
<polygon fill="none" stroke="black" points="720.95,-44 676.95,-44 676.95,0 720.95,0 720.95,-44"/>
<text text-anchor="middle" x="698.95" y="-18.3" font-family="Times,serif" font-size="14.00">null</text>
</g>
<!-- No_987340734&#45;&gt;NUL_8 -->
<g id="edge18" class="edge">
<title>No_987340734&#45;&gt;NUL_8</title>
<path fill="none" stroke="black" d="M680.03,-80.07C682.94,-71.3 686.01,-62.02 688.82,-53.55"/>
<polygon fill="black" stroke="black" points="692.14,-54.65 691.97,-44.06 685.5,-52.45 692.14,-54.65"/>
</g>
<!-- NUL_10 -->
<g id="node22" class="node">
<title>NUL_10</title>
<polygon fill="none" stroke="black" points="829.95,-250.43 785.95,-250.43 785.95,-206.43 829.95,-206.43 829.95,-250.43"/>
<text text-anchor="middle" x="807.95" y="-224.73" font-family="Times,serif" font-size="14.00">null</text>
</g>
<!-- No_997285865&#45;&gt;NUL_10 -->
<g id="edge21" class="edge">
<title>No_997285865&#45;&gt;NUL_10</title>
<path fill="none" stroke="black" d="M807.95,-301.8C807.95,-288.47 807.95,-273.53 807.95,-260.7"/>
<polygon fill="black" stroke="black" points="811.45,-260.51 807.95,-250.51 804.45,-260.51 811.45,-260.51"/>
</g>
<!-- NUL_11 -->
<g id="node23" class="node">
<title>NUL_11</title>
<polygon fill="none" stroke="black" points="891.95,-250.43 847.95,-250.43 847.95,-206.43 891.95,-206.43 891.95,-250.43"/>
<text text-anchor="middle" x="869.95" y="-224.73" font-family="Times,serif" font-size="14.00">null</text>
</g>
<!-- No_997285865&#45;&gt;NUL_11 -->
<g id="edge22" class="edge">
<title>No_997285865&#45;&gt;NUL_11</title>
<path fill="none" stroke="black" d="M828.08,-303.01C836.07,-288.97 845.16,-273 852.82,-259.53"/>
<polygon fill="black" stroke="black" points="855.97,-261.09 857.87,-250.66 849.88,-257.62 855.97,-261.09"/>
</g>
</g>
</svg>
