<?xml version="1.0" encoding="UTF-8" standalone="no"?>
<!DOCTYPE svg PUBLIC "-//W3C//DTD SVG 1.1//EN"
 "http://www.w3.org/Graphics/SVG/1.1/DTD/svg11.dtd">
<!-- Generated by graphviz version 2.43.0 (0)
 -->
<!-- Title: BST Pages: 1 -->
<svg width="516pt" height="496pt"
 viewBox="0.00 0.00 516.00 495.81" xmlns="http://www.w3.org/2000/svg" xmlns:xlink="http://www.w3.org/1999/xlink">
<g id="graph0" class="graph" transform="scale(1 1) rotate(0) translate(4 491.81)">
<title>BST</title>
<polygon fill="white" stroke="transparent" points="-4,4 -4,-491.81 512,-491.81 512,4 -4,4"/>
<!-- No_985278999 -->
<g id="node1" class="node">
<title>No_985278999</title>
<ellipse fill="none" stroke="black" cx="238" cy="-450.34" rx="75.82" ry="37.45"/>
<text text-anchor="middle" x="238" y="-461.64" font-family="Times,serif" font-size="14.00">Acir Campos</text>
<text text-anchor="middle" x="238" y="-446.64" font-family="Times,serif" font-size="14.00">985278999</text>
<text text-anchor="middle" x="238" y="-431.64" font-family="Times,serif" font-size="14.00">fb=&#45;1</text>
</g>
<!-- No_955838599 -->
<g id="node2" class="node">
<title>No_955838599</title>
<ellipse fill="none" stroke="black" cx="138" cy="-339.38" rx="74.91" ry="37.45"/>
<text text-anchor="middle" x="138" y="-350.68" font-family="Times,serif" font-size="14.00">Aline Santos</text>
<text text-anchor="middle" x="138" y="-335.68" font-family="Times,serif" font-size="14.00">955838599</text>
<text text-anchor="middle" x="138" y="-320.68" font-family="Times,serif" font-size="14.00">fb=0</text>
</g>
<!-- No_985278999&#45;&gt;No_955838599 -->
<g id="edge1" class="edge">
<title>No_985278999&#45;&gt;No_955838599</title>
<path fill="none" stroke="black" d="M207.18,-415.76C197.11,-404.78 185.81,-392.47 175.31,-381.03"/>
<polygon fill="black" stroke="black" points="177.89,-378.66 168.55,-373.66 172.73,-383.4 177.89,-378.66"/>
</g>
<!-- No_1431789496 -->
<g id="node9" class="node">
<title>No_1431789496</title>
<ellipse fill="none" stroke="black" cx="339" cy="-339.38" rx="98.99" ry="37.45"/>
<text text-anchor="middle" x="339" y="-350.68" font-family="Times,serif" font-size="14.00">Alexandra Moura</text>
<text text-anchor="middle" x="339" y="-335.68" font-family="Times,serif" font-size="14.00">1431789496</text>
<text text-anchor="middle" x="339" y="-320.68" font-family="Times,serif" font-size="14.00">fb=&#45;1</text>
</g>
<!-- No_985278999&#45;&gt;No_1431789496 -->
<g id="edge8" class="edge">
<title>No_985278999&#45;&gt;No_1431789496</title>
<path fill="none" stroke="black" d="M268.85,-416.06C278.66,-405.48 289.63,-393.64 299.93,-382.52"/>
<polygon fill="black" stroke="black" points="302.71,-384.68 306.94,-374.97 297.57,-379.92 302.71,-384.68"/>
</g>
<!-- NUL_0 -->
<g id="node3" class="node">
<title>NUL_0</title>
<polygon fill="none" stroke="black" points="44,-250.43 0,-250.43 0,-206.43 44,-206.43 44,-250.43"/>
<text text-anchor="middle" x="22" y="-224.73" font-family="Times,serif" font-size="14.00">null</text>
</g>
<!-- No_955838599&#45;&gt;NUL_0 -->
<g id="edge2" class="edge">
<title>No_955838599&#45;&gt;NUL_0</title>
<path fill="none" stroke="black" d="M98.76,-307.17C83.95,-294.82 67.25,-280.18 53,-265.91 50.65,-263.55 48.28,-261.05 45.95,-258.49"/>
<polygon fill="black" stroke="black" points="48.39,-255.96 39.15,-250.77 43.14,-260.59 48.39,-255.96"/>
</g>
<!-- No_1431789736 -->
<g id="node4" class="node">
<title>No_1431789736</title>
<ellipse fill="none" stroke="black" cx="138" cy="-228.43" rx="75.82" ry="37.45"/>
<text text-anchor="middle" x="138" y="-239.73" font-family="Times,serif" font-size="14.00">Ana Barbosa</text>
<text text-anchor="middle" x="138" y="-224.73" font-family="Times,serif" font-size="14.00">1431789736</text>
<text text-anchor="middle" x="138" y="-209.73" font-family="Times,serif" font-size="14.00">fb=0</text>
</g>
<!-- No_955838599&#45;&gt;No_1431789736 -->
<g id="edge3" class="edge">
<title>No_955838599&#45;&gt;No_1431789736</title>
<path fill="none" stroke="black" d="M138,-301.8C138,-293.63 138,-284.85 138,-276.32"/>
<polygon fill="black" stroke="black" points="141.5,-276.1 138,-266.1 134.5,-276.1 141.5,-276.1"/>
</g>
<!-- NUL_1 -->
<g id="node5" class="node">
<title>NUL_1</title>
<polygon fill="none" stroke="black" points="90,-139.48 46,-139.48 46,-95.48 90,-95.48 90,-139.48"/>
<text text-anchor="middle" x="68" y="-113.78" font-family="Times,serif" font-size="14.00">null</text>
</g>
<!-- No_1431789736&#45;&gt;NUL_1 -->
<g id="edge4" class="edge">
<title>No_1431789736&#45;&gt;NUL_1</title>
<path fill="none" stroke="black" d="M115.47,-192.36C106.29,-178.07 95.79,-161.73 87.01,-148.06"/>
<polygon fill="black" stroke="black" points="89.86,-146.03 81.51,-139.51 83.97,-149.81 89.86,-146.03"/>
</g>
<!-- No_975960513 -->
<g id="node6" class="node">
<title>No_975960513</title>
<ellipse fill="none" stroke="black" cx="182" cy="-117.48" rx="73.58" ry="37.45"/>
<text text-anchor="middle" x="182" y="-128.78" font-family="Times,serif" font-size="14.00">Altair Souza</text>
<text text-anchor="middle" x="182" y="-113.78" font-family="Times,serif" font-size="14.00">975960513</text>
<text text-anchor="middle" x="182" y="-98.78" font-family="Times,serif" font-size="14.00">fb=0</text>
</g>
<!-- No_1431789736&#45;&gt;No_975960513 -->
<g id="edge5" class="edge">
<title>No_1431789736&#45;&gt;No_975960513</title>
<path fill="none" stroke="black" d="M152.53,-191.45C156.1,-182.62 159.96,-173.05 163.68,-163.84"/>
<polygon fill="black" stroke="black" points="166.99,-165 167.49,-154.42 160.5,-162.38 166.99,-165"/>
</g>
<!-- NUL_2 -->
<g id="node7" class="node">
<title>NUL_2</title>
<polygon fill="none" stroke="black" points="173,-44 129,-44 129,0 173,0 173,-44"/>
<text text-anchor="middle" x="151" y="-18.3" font-family="Times,serif" font-size="14.00">null</text>
</g>
<!-- No_975960513&#45;&gt;NUL_2 -->
<g id="edge6" class="edge">
<title>No_975960513&#45;&gt;NUL_2</title>
<path fill="none" stroke="black" d="M170.01,-80.34C167.1,-71.55 164.01,-62.23 161.19,-53.72"/>
<polygon fill="black" stroke="black" points="164.49,-52.57 158.02,-44.18 157.85,-54.77 164.49,-52.57"/>
</g>
<!-- NUL_3 -->
<g id="node8" class="node">
<title>NUL_3</title>
<polygon fill="none" stroke="black" points="235,-44 191,-44 191,0 235,0 235,-44"/>
<text text-anchor="middle" x="213" y="-18.3" font-family="Times,serif" font-size="14.00">null</text>
</g>
<!-- No_975960513&#45;&gt;NUL_3 -->
<g id="edge7" class="edge">
<title>No_975960513&#45;&gt;NUL_3</title>
<path fill="none" stroke="black" d="M193.99,-80.34C196.9,-71.55 199.99,-62.23 202.81,-53.72"/>
<polygon fill="black" stroke="black" points="206.15,-54.77 205.98,-44.18 199.51,-52.57 206.15,-54.77"/>
</g>
<!-- No_986979432 -->
<g id="node10" class="node">
<title>No_986979432</title>
<ellipse fill="none" stroke="black" cx="339" cy="-228.43" rx="107.46" ry="37.45"/>
<text text-anchor="middle" x="339" y="-239.73" font-family="Times,serif" font-size="14.00">Américo Rodrigues</text>
<text text-anchor="middle" x="339" y="-224.73" font-family="Times,serif" font-size="14.00">986979432</text>
<text text-anchor="middle" x="339" y="-209.73" font-family="Times,serif" font-size="14.00">fb=1</text>
</g>
<!-- No_1431789496&#45;&gt;No_986979432 -->
<g id="edge9" class="edge">
<title>No_1431789496&#45;&gt;No_986979432</title>
<path fill="none" stroke="black" d="M339,-301.8C339,-293.63 339,-284.85 339,-276.32"/>
<polygon fill="black" stroke="black" points="342.5,-276.1 339,-266.1 335.5,-276.1 342.5,-276.1"/>
</g>
<!-- NUL_6 -->
<g id="node13" class="node">
<title>NUL_6</title>
<polygon fill="none" stroke="black" points="508,-250.43 464,-250.43 464,-206.43 508,-206.43 508,-250.43"/>
<text text-anchor="middle" x="486" y="-224.73" font-family="Times,serif" font-size="14.00">null</text>
</g>
<!-- No_1431789496&#45;&gt;NUL_6 -->
<g id="edge12" class="edge">
<title>No_1431789496&#45;&gt;NUL_6</title>
<path fill="none" stroke="black" d="M394.82,-308.27C414.75,-296.32 436.76,-281.66 455,-265.91 457.81,-263.48 460.58,-260.79 463.24,-258.01"/>
<polygon fill="black" stroke="black" points="465.89,-260.3 469.98,-250.52 460.69,-255.61 465.89,-260.3"/>
</g>
<!-- NUL_4 -->
<g id="node11" class="node">
<title>NUL_4</title>
<polygon fill="none" stroke="black" points="330,-139.48 286,-139.48 286,-95.48 330,-95.48 330,-139.48"/>
<text text-anchor="middle" x="308" y="-113.78" font-family="Times,serif" font-size="14.00">null</text>
</g>
<!-- No_986979432&#45;&gt;NUL_4 -->
<g id="edge10" class="edge">
<title>No_986979432&#45;&gt;NUL_4</title>
<path fill="none" stroke="black" d="M328.59,-190.85C324.76,-177.38 320.46,-162.28 316.79,-149.37"/>
<polygon fill="black" stroke="black" points="320.1,-148.21 314,-139.55 313.37,-150.13 320.1,-148.21"/>
</g>
<!-- NUL_5 -->
<g id="node12" class="node">
<title>NUL_5</title>
<polygon fill="none" stroke="black" points="392,-139.48 348,-139.48 348,-95.48 392,-95.48 392,-139.48"/>
<text text-anchor="middle" x="370" y="-113.78" font-family="Times,serif" font-size="14.00">null</text>
</g>
<!-- No_986979432&#45;&gt;NUL_5 -->
<g id="edge11" class="edge">
<title>No_986979432&#45;&gt;NUL_5</title>
<path fill="none" stroke="black" d="M349.41,-190.85C353.24,-177.38 357.54,-162.28 361.21,-149.37"/>
<polygon fill="black" stroke="black" points="364.63,-150.13 364,-139.55 357.9,-148.21 364.63,-150.13"/>
</g>
</g>
</svg>
