<?xml version="1.0" encoding="UTF-8" standalone="no"?>
<!DOCTYPE svg PUBLIC "-//W3C//DTD SVG 1.1//EN"
 "http://www.w3.org/Graphics/SVG/1.1/DTD/svg11.dtd">
<!-- Generated by graphviz version 2.43.0 (0)
 -->
<!-- Title: BST Pages: 1 -->
<svg width="1347pt" height="607pt"
 viewBox="0.00 0.00 1347.02 606.77" xmlns="http://www.w3.org/2000/svg" xmlns:xlink="http://www.w3.org/1999/xlink">
<g id="graph0" class="graph" transform="scale(1 1) rotate(0) translate(4 602.77)">
<title>BST</title>
<polygon fill="white" stroke="transparent" points="-4,4 -4,-602.77 1343.02,-602.77 1343.02,4 -4,4"/>
<!-- No_975334063 -->
<g id="node1" class="node">
<title>No_975334063</title>
<ellipse fill="none" stroke="black" cx="713" cy="-561.29" rx="96.33" ry="37.45"/>
<text text-anchor="middle" x="713" y="-572.59" font-family="Times,serif" font-size="14.00">Pamella Barbosa</text>
<text text-anchor="middle" x="713" y="-557.59" font-family="Times,serif" font-size="14.00">975334063</text>
<text text-anchor="middle" x="713" y="-542.59" font-family="Times,serif" font-size="14.00">fb=0</text>
</g>
<!-- No_964769992 -->
<g id="node2" class="node">
<title>No_964769992</title>
<ellipse fill="none" stroke="black" cx="585" cy="-450.34" rx="77.15" ry="37.45"/>
<text text-anchor="middle" x="585" y="-461.64" font-family="Times,serif" font-size="14.00">Piettro Alves</text>
<text text-anchor="middle" x="585" y="-446.64" font-family="Times,serif" font-size="14.00">964769992</text>
<text text-anchor="middle" x="585" y="-431.64" font-family="Times,serif" font-size="14.00">fb=&#45;1</text>
</g>
<!-- No_975334063&#45;&gt;No_964769992 -->
<g id="edge1" class="edge">
<title>No_975334063&#45;&gt;No_964769992</title>
<path fill="none" stroke="black" d="M673.9,-527.01C660.13,-515.29 644.54,-502.01 630.3,-489.89"/>
<polygon fill="black" stroke="black" points="632.43,-487.11 622.54,-483.29 627.89,-492.44 632.43,-487.11"/>
</g>
<!-- No_996177799 -->
<g id="node19" class="node">
<title>No_996177799</title>
<ellipse fill="none" stroke="black" cx="876" cy="-450.34" rx="94.51" ry="37.45"/>
<text text-anchor="middle" x="876" y="-461.64" font-family="Times,serif" font-size="14.00">Patrícia Barbosa</text>
<text text-anchor="middle" x="876" y="-446.64" font-family="Times,serif" font-size="14.00">996177799</text>
<text text-anchor="middle" x="876" y="-431.64" font-family="Times,serif" font-size="14.00">fb=&#45;1</text>
</g>
<!-- No_975334063&#45;&gt;No_996177799 -->
<g id="edge18" class="edge">
<title>No_975334063&#45;&gt;No_996177799</title>
<path fill="none" stroke="black" d="M760.58,-528.48C779.25,-516.01 800.8,-501.6 820.19,-488.64"/>
<polygon fill="black" stroke="black" points="822.27,-491.46 828.64,-482.99 818.38,-485.64 822.27,-491.46"/>
</g>
<!-- No_954539034 -->
<g id="node3" class="node">
<title>No_954539034</title>
<ellipse fill="none" stroke="black" cx="359" cy="-339.38" rx="89.19" ry="37.45"/>
<text text-anchor="middle" x="359" y="-350.68" font-family="Times,serif" font-size="14.00">Pamella Santos</text>
<text text-anchor="middle" x="359" y="-335.68" font-family="Times,serif" font-size="14.00">954539034</text>
<text text-anchor="middle" x="359" y="-320.68" font-family="Times,serif" font-size="14.00">fb=0</text>
</g>
<!-- No_964769992&#45;&gt;No_954539034 -->
<g id="edge2" class="edge">
<title>No_964769992&#45;&gt;No_954539034</title>
<path fill="none" stroke="black" d="M531.15,-423.38C499.65,-408.19 459.6,-388.88 426.06,-372.71"/>
<polygon fill="black" stroke="black" points="427.31,-369.43 416.78,-368.24 424.27,-375.74 427.31,-369.43"/>
</g>
<!-- No_971638394 -->
<g id="node14" class="node">
<title>No_971638394</title>
<ellipse fill="none" stroke="black" cx="585" cy="-339.38" rx="78.48" ry="37.45"/>
<text text-anchor="middle" x="585" y="-350.68" font-family="Times,serif" font-size="14.00">Piettro Costa</text>
<text text-anchor="middle" x="585" y="-335.68" font-family="Times,serif" font-size="14.00">971638394</text>
<text text-anchor="middle" x="585" y="-320.68" font-family="Times,serif" font-size="14.00">fb=&#45;1</text>
</g>
<!-- No_964769992&#45;&gt;No_971638394 -->
<g id="edge13" class="edge">
<title>No_964769992&#45;&gt;No_971638394</title>
<path fill="none" stroke="black" d="M585,-412.75C585,-404.58 585,-395.8 585,-387.27"/>
<polygon fill="black" stroke="black" points="588.5,-387.06 585,-377.06 581.5,-387.06 588.5,-387.06"/>
</g>
<!-- No_952558952 -->
<g id="node4" class="node">
<title>No_952558952</title>
<ellipse fill="none" stroke="black" cx="153" cy="-228.43" rx="100.32" ry="37.45"/>
<text text-anchor="middle" x="153" y="-239.73" font-family="Times,serif" font-size="14.00">Pamella Machado</text>
<text text-anchor="middle" x="153" y="-224.73" font-family="Times,serif" font-size="14.00">952558952</text>
<text text-anchor="middle" x="153" y="-209.73" font-family="Times,serif" font-size="14.00">fb=1</text>
</g>
<!-- No_954539034&#45;&gt;No_952558952 -->
<g id="edge3" class="edge">
<title>No_954539034&#45;&gt;No_952558952</title>
<path fill="none" stroke="black" d="M304.61,-309.61C278.37,-295.74 246.67,-278.97 219.05,-264.37"/>
<polygon fill="black" stroke="black" points="220.34,-261.08 209.86,-259.5 217.06,-267.27 220.34,-261.08"/>
</g>
<!-- No_956420711 -->
<g id="node9" class="node">
<title>No_956420711</title>
<ellipse fill="none" stroke="black" cx="359" cy="-228.43" rx="87.86" ry="37.45"/>
<text text-anchor="middle" x="359" y="-239.73" font-family="Times,serif" font-size="14.00">Patrícia Barros</text>
<text text-anchor="middle" x="359" y="-224.73" font-family="Times,serif" font-size="14.00">956420711</text>
<text text-anchor="middle" x="359" y="-209.73" font-family="Times,serif" font-size="14.00">fb=&#45;1</text>
</g>
<!-- No_954539034&#45;&gt;No_956420711 -->
<g id="edge8" class="edge">
<title>No_954539034&#45;&gt;No_956420711</title>
<path fill="none" stroke="black" d="M359,-301.8C359,-293.63 359,-284.85 359,-276.32"/>
<polygon fill="black" stroke="black" points="362.5,-276.1 359,-266.1 355.5,-276.1 362.5,-276.1"/>
</g>
<!-- NUL_0 -->
<g id="node5" class="node">
<title>NUL_0</title>
<polygon fill="none" stroke="black" points="44,-139.48 0,-139.48 0,-95.48 44,-95.48 44,-139.48"/>
<text text-anchor="middle" x="22" y="-113.78" font-family="Times,serif" font-size="14.00">null</text>
</g>
<!-- No_952558952&#45;&gt;NUL_0 -->
<g id="edge4" class="edge">
<title>No_952558952&#45;&gt;NUL_0</title>
<path fill="none" stroke="black" d="M104.13,-195.54C87.25,-183.62 68.66,-169.45 53,-154.95 50.5,-152.64 48,-150.13 45.58,-147.55"/>
<polygon fill="black" stroke="black" points="47.84,-144.83 38.56,-139.71 42.62,-149.49 47.84,-144.83"/>
</g>
<!-- No_952776904 -->
<g id="node6" class="node">
<title>No_952776904</title>
<ellipse fill="none" stroke="black" cx="153" cy="-117.48" rx="90.52" ry="37.45"/>
<text text-anchor="middle" x="153" y="-128.78" font-family="Times,serif" font-size="14.00">Piettro Campos</text>
<text text-anchor="middle" x="153" y="-113.78" font-family="Times,serif" font-size="14.00">952776904</text>
<text text-anchor="middle" x="153" y="-98.78" font-family="Times,serif" font-size="14.00">fb=0</text>
</g>
<!-- No_952558952&#45;&gt;No_952776904 -->
<g id="edge5" class="edge">
<title>No_952558952&#45;&gt;No_952776904</title>
<path fill="none" stroke="black" d="M153,-190.85C153,-182.67 153,-173.89 153,-165.37"/>
<polygon fill="black" stroke="black" points="156.5,-165.15 153,-155.15 149.5,-165.15 156.5,-165.15"/>
</g>
<!-- NUL_1 -->
<g id="node7" class="node">
<title>NUL_1</title>
<polygon fill="none" stroke="black" points="144,-44 100,-44 100,0 144,0 144,-44"/>
<text text-anchor="middle" x="122" y="-18.3" font-family="Times,serif" font-size="14.00">null</text>
</g>
<!-- No_952776904&#45;&gt;NUL_1 -->
<g id="edge6" class="edge">
<title>No_952776904&#45;&gt;NUL_1</title>
<path fill="none" stroke="black" d="M140.93,-80.07C138.02,-71.3 134.94,-62.02 132.13,-53.55"/>
<polygon fill="black" stroke="black" points="135.45,-52.45 128.98,-44.06 128.81,-54.65 135.45,-52.45"/>
</g>
<!-- NUL_2 -->
<g id="node8" class="node">
<title>NUL_2</title>
<polygon fill="none" stroke="black" points="206,-44 162,-44 162,0 206,0 206,-44"/>
<text text-anchor="middle" x="184" y="-18.3" font-family="Times,serif" font-size="14.00">null</text>
</g>
<!-- No_952776904&#45;&gt;NUL_2 -->
<g id="edge7" class="edge">
<title>No_952776904&#45;&gt;NUL_2</title>
<path fill="none" stroke="black" d="M165.07,-80.07C167.98,-71.3 171.06,-62.02 173.87,-53.55"/>
<polygon fill="black" stroke="black" points="177.19,-54.65 177.02,-44.06 170.55,-52.45 177.19,-54.65"/>
</g>
<!-- No_955220744 -->
<g id="node10" class="node">
<title>No_955220744</title>
<ellipse fill="none" stroke="black" cx="356" cy="-117.48" rx="94.09" ry="37.45"/>
<text text-anchor="middle" x="356" y="-128.78" font-family="Times,serif" font-size="14.00">Patrícia Campos</text>
<text text-anchor="middle" x="356" y="-113.78" font-family="Times,serif" font-size="14.00">955220744</text>
<text text-anchor="middle" x="356" y="-98.78" font-family="Times,serif" font-size="14.00">fb=0</text>
</g>
<!-- No_956420711&#45;&gt;No_955220744 -->
<g id="edge9" class="edge">
<title>No_956420711&#45;&gt;No_955220744</title>
<path fill="none" stroke="black" d="M357.99,-190.85C357.77,-182.67 357.53,-173.89 357.29,-165.37"/>
<polygon fill="black" stroke="black" points="360.78,-165.05 357.01,-155.15 353.79,-165.24 360.78,-165.05"/>
</g>
<!-- NUL_5 -->
<g id="node13" class="node">
<title>NUL_5</title>
<polygon fill="none" stroke="black" points="512,-139.48 468,-139.48 468,-95.48 512,-95.48 512,-139.48"/>
<text text-anchor="middle" x="490" y="-113.78" font-family="Times,serif" font-size="14.00">null</text>
</g>
<!-- No_956420711&#45;&gt;NUL_5 -->
<g id="edge12" class="edge">
<title>No_956420711&#45;&gt;NUL_5</title>
<path fill="none" stroke="black" d="M406.09,-196.79C423.44,-184.62 442.79,-169.95 459,-154.95 461.5,-152.64 464,-150.13 466.42,-147.55"/>
<polygon fill="black" stroke="black" points="469.38,-149.49 473.44,-139.71 464.16,-144.83 469.38,-149.49"/>
</g>
<!-- NUL_3 -->
<g id="node11" class="node">
<title>NUL_3</title>
<polygon fill="none" stroke="black" points="347,-44 303,-44 303,0 347,0 347,-44"/>
<text text-anchor="middle" x="325" y="-18.3" font-family="Times,serif" font-size="14.00">null</text>
</g>
<!-- No_955220744&#45;&gt;NUL_3 -->
<g id="edge10" class="edge">
<title>No_955220744&#45;&gt;NUL_3</title>
<path fill="none" stroke="black" d="M343.93,-80.07C341.02,-71.3 337.94,-62.02 335.13,-53.55"/>
<polygon fill="black" stroke="black" points="338.45,-52.45 331.98,-44.06 331.81,-54.65 338.45,-52.45"/>
</g>
<!-- NUL_4 -->
<g id="node12" class="node">
<title>NUL_4</title>
<polygon fill="none" stroke="black" points="409,-44 365,-44 365,0 409,0 409,-44"/>
<text text-anchor="middle" x="387" y="-18.3" font-family="Times,serif" font-size="14.00">null</text>
</g>
<!-- No_955220744&#45;&gt;NUL_4 -->
<g id="edge11" class="edge">
<title>No_955220744&#45;&gt;NUL_4</title>
<path fill="none" stroke="black" d="M368.07,-80.07C370.98,-71.3 374.06,-62.02 376.87,-53.55"/>
<polygon fill="black" stroke="black" points="380.19,-54.65 380.02,-44.06 373.55,-52.45 380.19,-54.65"/>
</g>
<!-- No_968732973 -->
<g id="node15" class="node">
<title>No_968732973</title>
<ellipse fill="none" stroke="black" cx="552" cy="-228.43" rx="86.95" ry="37.45"/>
<text text-anchor="middle" x="552" y="-239.73" font-family="Times,serif" font-size="14.00">Pamella Torres</text>
<text text-anchor="middle" x="552" y="-224.73" font-family="Times,serif" font-size="14.00">968732973</text>
<text text-anchor="middle" x="552" y="-209.73" font-family="Times,serif" font-size="14.00">fb=0</text>
</g>
<!-- No_971638394&#45;&gt;No_968732973 -->
<g id="edge14" class="edge">
<title>No_971638394&#45;&gt;No_968732973</title>
<path fill="none" stroke="black" d="M574.01,-302.1C571.45,-293.65 568.69,-284.53 566.02,-275.71"/>
<polygon fill="black" stroke="black" points="569.3,-274.48 563.05,-265.92 562.6,-276.51 569.3,-274.48"/>
</g>
<!-- NUL_8 -->
<g id="node18" class="node">
<title>NUL_8</title>
<polygon fill="none" stroke="black" points="701,-250.43 657,-250.43 657,-206.43 701,-206.43 701,-250.43"/>
<text text-anchor="middle" x="679" y="-224.73" font-family="Times,serif" font-size="14.00">null</text>
</g>
<!-- No_971638394&#45;&gt;NUL_8 -->
<g id="edge17" class="edge">
<title>No_971638394&#45;&gt;NUL_8</title>
<path fill="none" stroke="black" d="M614.56,-304.53C625.14,-292.38 637.13,-278.55 648,-265.91 650.11,-263.45 652.3,-260.89 654.49,-258.33"/>
<polygon fill="black" stroke="black" points="657.19,-260.56 661.01,-250.68 651.86,-256.02 657.19,-260.56"/>
</g>
<!-- NUL_6 -->
<g id="node16" class="node">
<title>NUL_6</title>
<polygon fill="none" stroke="black" points="574,-139.48 530,-139.48 530,-95.48 574,-95.48 574,-139.48"/>
<text text-anchor="middle" x="552" y="-113.78" font-family="Times,serif" font-size="14.00">null</text>
</g>
<!-- No_968732973&#45;&gt;NUL_6 -->
<g id="edge15" class="edge">
<title>No_968732973&#45;&gt;NUL_6</title>
<path fill="none" stroke="black" d="M552,-190.85C552,-177.52 552,-162.58 552,-149.75"/>
<polygon fill="black" stroke="black" points="555.5,-149.55 552,-139.55 548.5,-149.55 555.5,-149.55"/>
</g>
<!-- NUL_7 -->
<g id="node17" class="node">
<title>NUL_7</title>
<polygon fill="none" stroke="black" points="636,-139.48 592,-139.48 592,-95.48 636,-95.48 636,-139.48"/>
<text text-anchor="middle" x="614" y="-113.78" font-family="Times,serif" font-size="14.00">null</text>
</g>
<!-- No_968732973&#45;&gt;NUL_7 -->
<g id="edge16" class="edge">
<title>No_968732973&#45;&gt;NUL_7</title>
<path fill="none" stroke="black" d="M572.3,-191.75C580.28,-177.74 589.33,-161.83 596.96,-148.42"/>
<polygon fill="black" stroke="black" points="600.08,-150.02 601.98,-139.59 594,-146.55 600.08,-150.02"/>
</g>
<!-- No_983397522 -->
<g id="node20" class="node">
<title>No_983397522</title>
<ellipse fill="none" stroke="black" cx="876" cy="-339.38" rx="88.28" ry="37.45"/>
<text text-anchor="middle" x="876" y="-350.68" font-family="Times,serif" font-size="14.00">Pamella Barros</text>
<text text-anchor="middle" x="876" y="-335.68" font-family="Times,serif" font-size="14.00">983397522</text>
<text text-anchor="middle" x="876" y="-320.68" font-family="Times,serif" font-size="14.00">fb=&#45;1</text>
</g>
<!-- No_996177799&#45;&gt;No_983397522 -->
<g id="edge19" class="edge">
<title>No_996177799&#45;&gt;No_983397522</title>
<path fill="none" stroke="black" d="M876,-412.75C876,-404.58 876,-395.8 876,-387.27"/>
<polygon fill="black" stroke="black" points="879.5,-387.06 876,-377.06 872.5,-387.06 879.5,-387.06"/>
</g>
<!-- No_998647415 -->
<g id="node29" class="node">
<title>No_998647415</title>
<ellipse fill="none" stroke="black" cx="1135" cy="-339.38" rx="84.29" ry="37.45"/>
<text text-anchor="middle" x="1135" y="-350.68" font-family="Times,serif" font-size="14.00">Piettro Santos</text>
<text text-anchor="middle" x="1135" y="-335.68" font-family="Times,serif" font-size="14.00">998647415</text>
<text text-anchor="middle" x="1135" y="-320.68" font-family="Times,serif" font-size="14.00">fb=1</text>
</g>
<!-- No_996177799&#45;&gt;No_998647415 -->
<g id="edge28" class="edge">
<title>No_996177799&#45;&gt;No_998647415</title>
<path fill="none" stroke="black" d="M939.69,-422.54C977.82,-406.5 1026.32,-386.1 1065.45,-369.64"/>
<polygon fill="black" stroke="black" points="1066.81,-372.86 1074.67,-365.76 1064.1,-366.41 1066.81,-372.86"/>
</g>
<!-- No_979381089 -->
<g id="node21" class="node">
<title>No_979381089</title>
<ellipse fill="none" stroke="black" cx="809" cy="-228.43" rx="89.61" ry="37.45"/>
<text text-anchor="middle" x="809" y="-239.73" font-family="Times,serif" font-size="14.00">Patrícia Freitas</text>
<text text-anchor="middle" x="809" y="-224.73" font-family="Times,serif" font-size="14.00">979381089</text>
<text text-anchor="middle" x="809" y="-209.73" font-family="Times,serif" font-size="14.00">fb=&#45;1</text>
</g>
<!-- No_983397522&#45;&gt;No_979381089 -->
<g id="edge20" class="edge">
<title>No_983397522&#45;&gt;No_979381089</title>
<path fill="none" stroke="black" d="M854.25,-303.01C848.51,-293.68 842.25,-283.51 836.27,-273.77"/>
<polygon fill="black" stroke="black" points="839.09,-271.68 830.87,-265 833.13,-275.35 839.09,-271.68"/>
</g>
<!-- No_993697423 -->
<g id="node26" class="node">
<title>No_993697423</title>
<ellipse fill="none" stroke="black" cx="1006" cy="-228.43" rx="89.19" ry="37.45"/>
<text text-anchor="middle" x="1006" y="-239.73" font-family="Times,serif" font-size="14.00">Pamella Coelho</text>
<text text-anchor="middle" x="1006" y="-224.73" font-family="Times,serif" font-size="14.00">993697423</text>
<text text-anchor="middle" x="1006" y="-209.73" font-family="Times,serif" font-size="14.00">fb=0</text>
</g>
<!-- No_983397522&#45;&gt;No_993697423 -->
<g id="edge25" class="edge">
<title>No_983397522&#45;&gt;No_993697423</title>
<path fill="none" stroke="black" d="M915,-305.69C928.76,-294.16 944.38,-281.08 958.74,-269.04"/>
<polygon fill="black" stroke="black" points="961.16,-271.58 966.57,-262.47 956.66,-266.21 961.16,-271.58"/>
</g>
<!-- No_976077024 -->
<g id="node22" class="node">
<title>No_976077024</title>
<ellipse fill="none" stroke="black" cx="773" cy="-117.48" rx="84.29" ry="37.45"/>
<text text-anchor="middle" x="773" y="-128.78" font-family="Times,serif" font-size="14.00">Piettro Coelho</text>
<text text-anchor="middle" x="773" y="-113.78" font-family="Times,serif" font-size="14.00">976077024</text>
<text text-anchor="middle" x="773" y="-98.78" font-family="Times,serif" font-size="14.00">fb=0</text>
</g>
<!-- No_979381089&#45;&gt;No_976077024 -->
<g id="edge21" class="edge">
<title>No_979381089&#45;&gt;No_976077024</title>
<path fill="none" stroke="black" d="M797.01,-191.15C794.16,-182.51 791.08,-173.19 788.1,-164.19"/>
<polygon fill="black" stroke="black" points="791.4,-163 784.94,-154.6 784.75,-165.19 791.4,-163"/>
</g>
<!-- NUL_11 -->
<g id="node25" class="node">
<title>NUL_11</title>
<polygon fill="none" stroke="black" points="919,-139.48 875,-139.48 875,-95.48 919,-95.48 919,-139.48"/>
<text text-anchor="middle" x="897" y="-113.78" font-family="Times,serif" font-size="14.00">null</text>
</g>
<!-- No_979381089&#45;&gt;NUL_11 -->
<g id="edge24" class="edge">
<title>No_979381089&#45;&gt;NUL_11</title>
<path fill="none" stroke="black" d="M837.09,-192.66C848.86,-178.08 862.39,-161.33 873.61,-147.44"/>
<polygon fill="black" stroke="black" points="876.36,-149.6 879.92,-139.63 870.91,-145.21 876.36,-149.6"/>
</g>
<!-- NUL_9 -->
<g id="node23" class="node">
<title>NUL_9</title>
<polygon fill="none" stroke="black" points="764,-44 720,-44 720,0 764,0 764,-44"/>
<text text-anchor="middle" x="742" y="-18.3" font-family="Times,serif" font-size="14.00">null</text>
</g>
<!-- No_976077024&#45;&gt;NUL_9 -->
<g id="edge22" class="edge">
<title>No_976077024&#45;&gt;NUL_9</title>
<path fill="none" stroke="black" d="M761.01,-80.34C758.1,-71.55 755.01,-62.23 752.19,-53.72"/>
<polygon fill="black" stroke="black" points="755.49,-52.57 749.02,-44.18 748.85,-54.77 755.49,-52.57"/>
</g>
<!-- NUL_10 -->
<g id="node24" class="node">
<title>NUL_10</title>
<polygon fill="none" stroke="black" points="826,-44 782,-44 782,0 826,0 826,-44"/>
<text text-anchor="middle" x="804" y="-18.3" font-family="Times,serif" font-size="14.00">null</text>
</g>
<!-- No_976077024&#45;&gt;NUL_10 -->
<g id="edge23" class="edge">
<title>No_976077024&#45;&gt;NUL_10</title>
<path fill="none" stroke="black" d="M784.99,-80.34C787.9,-71.55 790.99,-62.23 793.81,-53.72"/>
<polygon fill="black" stroke="black" points="797.15,-54.77 796.98,-44.18 790.51,-52.57 797.15,-54.77"/>
</g>
<!-- NUL_12 -->
<g id="node27" class="node">
<title>NUL_12</title>
<polygon fill="none" stroke="black" points="1005,-139.48 961,-139.48 961,-95.48 1005,-95.48 1005,-139.48"/>
<text text-anchor="middle" x="983" y="-113.78" font-family="Times,serif" font-size="14.00">null</text>
</g>
<!-- No_993697423&#45;&gt;NUL_12 -->
<g id="edge26" class="edge">
<title>No_993697423&#45;&gt;NUL_12</title>
<path fill="none" stroke="black" d="M998.28,-190.85C995.44,-177.38 992.25,-162.28 989.52,-149.37"/>
<polygon fill="black" stroke="black" points="992.94,-148.62 987.45,-139.55 986.09,-150.06 992.94,-148.62"/>
</g>
<!-- NUL_13 -->
<g id="node28" class="node">
<title>NUL_13</title>
<polygon fill="none" stroke="black" points="1067,-139.48 1023,-139.48 1023,-95.48 1067,-95.48 1067,-139.48"/>
<text text-anchor="middle" x="1045" y="-113.78" font-family="Times,serif" font-size="14.00">null</text>
</g>
<!-- No_993697423&#45;&gt;NUL_13 -->
<g id="edge27" class="edge">
<title>No_993697423&#45;&gt;NUL_13</title>
<path fill="none" stroke="black" d="M1018.99,-191.15C1023.86,-177.54 1029.35,-162.21 1034.02,-149.15"/>
<polygon fill="black" stroke="black" points="1037.34,-150.27 1037.41,-139.67 1030.75,-147.91 1037.34,-150.27"/>
</g>
<!-- NUL_14 -->
<g id="node30" class="node">
<title>NUL_14</title>
<polygon fill="none" stroke="black" points="1157,-250.43 1113,-250.43 1113,-206.43 1157,-206.43 1157,-250.43"/>
<text text-anchor="middle" x="1135" y="-224.73" font-family="Times,serif" font-size="14.00">null</text>
</g>
<!-- No_998647415&#45;&gt;NUL_14 -->
<g id="edge29" class="edge">
<title>No_998647415&#45;&gt;NUL_14</title>
<path fill="none" stroke="black" d="M1135,-301.8C1135,-288.47 1135,-273.53 1135,-260.7"/>
<polygon fill="black" stroke="black" points="1138.5,-260.51 1135,-250.51 1131.5,-260.51 1138.5,-260.51"/>
</g>
<!-- No_999073926 -->
<g id="node31" class="node">
<title>No_999073926</title>
<ellipse fill="none" stroke="black" cx="1257" cy="-228.43" rx="82.05" ry="37.45"/>
<text text-anchor="middle" x="1257" y="-239.73" font-family="Times,serif" font-size="14.00">Pamella Alves</text>
<text text-anchor="middle" x="1257" y="-224.73" font-family="Times,serif" font-size="14.00">999073926</text>
<text text-anchor="middle" x="1257" y="-209.73" font-family="Times,serif" font-size="14.00">fb=0</text>
</g>
<!-- No_998647415&#45;&gt;No_999073926 -->
<g id="edge30" class="edge">
<title>No_998647415&#45;&gt;No_999073926</title>
<path fill="none" stroke="black" d="M1171.94,-305.4C1184.72,-293.98 1199.17,-281.07 1212.5,-269.17"/>
<polygon fill="black" stroke="black" points="1215.06,-271.57 1220.19,-262.3 1210.4,-266.35 1215.06,-271.57"/>
</g>
<!-- NUL_15 -->
<g id="node32" class="node">
<title>NUL_15</title>
<polygon fill="none" stroke="black" points="1248,-139.48 1204,-139.48 1204,-95.48 1248,-95.48 1248,-139.48"/>
<text text-anchor="middle" x="1226" y="-113.78" font-family="Times,serif" font-size="14.00">null</text>
</g>
<!-- No_999073926&#45;&gt;NUL_15 -->
<g id="edge31" class="edge">
<title>No_999073926&#45;&gt;NUL_15</title>
<path fill="none" stroke="black" d="M1246.68,-191.15C1242.84,-177.67 1238.53,-162.51 1234.84,-149.53"/>
<polygon fill="black" stroke="black" points="1238.13,-148.33 1232.03,-139.67 1231.4,-150.25 1238.13,-148.33"/>
</g>
<!-- NUL_16 -->
<g id="node33" class="node">
<title>NUL_16</title>
<polygon fill="none" stroke="black" points="1310,-139.48 1266,-139.48 1266,-95.48 1310,-95.48 1310,-139.48"/>
<text text-anchor="middle" x="1288" y="-113.78" font-family="Times,serif" font-size="14.00">null</text>
</g>
<!-- No_999073926&#45;&gt;NUL_16 -->
<g id="edge32" class="edge">
<title>No_999073926&#45;&gt;NUL_16</title>
<path fill="none" stroke="black" d="M1267.32,-191.15C1271.16,-177.67 1275.47,-162.51 1279.16,-149.53"/>
<polygon fill="black" stroke="black" points="1282.6,-150.25 1281.97,-139.67 1275.87,-148.33 1282.6,-150.25"/>
</g>
</g>
</svg>
