<?xml version="1.0" encoding="UTF-8" standalone="no"?>
<!DOCTYPE svg PUBLIC "-//W3C//DTD SVG 1.1//EN"
 "http://www.w3.org/Graphics/SVG/1.1/DTD/svg11.dtd">
<!-- Generated by graphviz version 2.43.0 (0)
 -->
<!-- Title: BST Pages: 1 -->
<svg width="767pt" height="607pt"
 viewBox="0.00 0.00 766.90 606.77" xmlns="http://www.w3.org/2000/svg" xmlns:xlink="http://www.w3.org/1999/xlink">
<g id="graph0" class="graph" transform="scale(1 1) rotate(0) translate(4 602.77)">
<title>BST</title>
<polygon fill="white" stroke="transparent" points="-4,4 -4,-602.77 762.9,-602.77 762.9,4 -4,4"/>
<!-- No_953602884 -->
<g id="node1" class="node">
<title>No_953602884</title>
<ellipse fill="none" stroke="black" cx="274.9" cy="-561.29" rx="81.13" ry="37.45"/>
<text text-anchor="middle" x="274.9" y="-572.59" font-family="Times,serif" font-size="14.00">Luciana Alves</text>
<text text-anchor="middle" x="274.9" y="-557.59" font-family="Times,serif" font-size="14.00">953602884</text>
<text text-anchor="middle" x="274.9" y="-542.59" font-family="Times,serif" font-size="14.00">fb=2</text>
</g>
<!-- No_938237891 -->
<g id="node2" class="node">
<title>No_938237891</title>
<ellipse fill="none" stroke="black" cx="177.9" cy="-450.34" rx="90.52" ry="37.45"/>
<text text-anchor="middle" x="177.9" y="-461.64" font-family="Times,serif" font-size="14.00">Luciana Freitas</text>
<text text-anchor="middle" x="177.9" y="-446.64" font-family="Times,serif" font-size="14.00">938237891</text>
<text text-anchor="middle" x="177.9" y="-431.64" font-family="Times,serif" font-size="14.00">fb=&#45;1</text>
</g>
<!-- No_953602884&#45;&gt;No_938237891 -->
<g id="edge1" class="edge">
<title>No_953602884&#45;&gt;No_938237891</title>
<path fill="none" stroke="black" d="M244.74,-526.41C235.52,-516.06 225.27,-504.54 215.61,-493.69"/>
<polygon fill="black" stroke="black" points="217.98,-491.09 208.71,-485.94 212.75,-495.74 217.98,-491.09"/>
</g>
<!-- No_975118455 -->
<g id="node7" class="node">
<title>No_975118455</title>
<ellipse fill="none" stroke="black" cx="372.9" cy="-450.34" rx="86.95" ry="37.45"/>
<text text-anchor="middle" x="372.9" y="-461.64" font-family="Times,serif" font-size="14.00">Luciana Moura</text>
<text text-anchor="middle" x="372.9" y="-446.64" font-family="Times,serif" font-size="14.00">975118455</text>
<text text-anchor="middle" x="372.9" y="-431.64" font-family="Times,serif" font-size="14.00">fb=1</text>
</g>
<!-- No_953602884&#45;&gt;No_975118455 -->
<g id="edge6" class="edge">
<title>No_953602884&#45;&gt;No_975118455</title>
<path fill="none" stroke="black" d="M305.37,-526.41C314.87,-515.86 325.45,-504.09 335.37,-493.06"/>
<polygon fill="black" stroke="black" points="338.03,-495.34 342.11,-485.57 332.82,-490.66 338.03,-495.34"/>
</g>
<!-- No_915512455 -->
<g id="node3" class="node">
<title>No_915512455</title>
<ellipse fill="none" stroke="black" cx="79.9" cy="-339.38" rx="79.81" ry="37.45"/>
<text text-anchor="middle" x="79.9" y="-350.68" font-family="Times,serif" font-size="14.00">Luana Barros</text>
<text text-anchor="middle" x="79.9" y="-335.68" font-family="Times,serif" font-size="14.00">915512455</text>
<text text-anchor="middle" x="79.9" y="-320.68" font-family="Times,serif" font-size="14.00">fb=0</text>
</g>
<!-- No_938237891&#45;&gt;No_915512455 -->
<g id="edge2" class="edge">
<title>No_938237891&#45;&gt;No_915512455</title>
<path fill="none" stroke="black" d="M146.9,-414.86C137.51,-404.43 127.1,-392.86 117.34,-382.01"/>
<polygon fill="black" stroke="black" points="119.66,-379.35 110.37,-374.26 114.46,-384.04 119.66,-379.35"/>
</g>
<!-- NUL_2 -->
<g id="node6" class="node">
<title>NUL_2</title>
<polygon fill="none" stroke="black" points="221.9,-361.38 177.9,-361.38 177.9,-317.38 221.9,-317.38 221.9,-361.38"/>
<text text-anchor="middle" x="199.9" y="-335.68" font-family="Times,serif" font-size="14.00">null</text>
</g>
<!-- No_938237891&#45;&gt;NUL_2 -->
<g id="edge5" class="edge">
<title>No_938237891&#45;&gt;NUL_2</title>
<path fill="none" stroke="black" d="M185.29,-412.75C188.01,-399.29 191.06,-384.19 193.67,-371.27"/>
<polygon fill="black" stroke="black" points="197.1,-371.96 195.65,-361.46 190.24,-370.57 197.1,-371.96"/>
</g>
<!-- NUL_0 -->
<g id="node4" class="node">
<title>NUL_0</title>
<polygon fill="none" stroke="black" points="83.9,-250.43 39.9,-250.43 39.9,-206.43 83.9,-206.43 83.9,-250.43"/>
<text text-anchor="middle" x="61.9" y="-224.73" font-family="Times,serif" font-size="14.00">null</text>
</g>
<!-- No_915512455&#45;&gt;NUL_0 -->
<g id="edge3" class="edge">
<title>No_915512455&#45;&gt;NUL_0</title>
<path fill="none" stroke="black" d="M73.86,-301.8C71.66,-288.47 69.19,-273.53 67.07,-260.7"/>
<polygon fill="black" stroke="black" points="70.47,-259.8 65.39,-250.51 63.56,-260.94 70.47,-259.8"/>
</g>
<!-- NUL_1 -->
<g id="node5" class="node">
<title>NUL_1</title>
<polygon fill="none" stroke="black" points="145.9,-250.43 101.9,-250.43 101.9,-206.43 145.9,-206.43 145.9,-250.43"/>
<text text-anchor="middle" x="123.9" y="-224.73" font-family="Times,serif" font-size="14.00">null</text>
</g>
<!-- No_915512455&#45;&gt;NUL_1 -->
<g id="edge4" class="edge">
<title>No_915512455&#45;&gt;NUL_1</title>
<path fill="none" stroke="black" d="M94.43,-302.41C99.94,-288.77 106.15,-273.39 111.45,-260.27"/>
<polygon fill="black" stroke="black" points="114.8,-261.33 115.29,-250.75 108.3,-258.71 114.8,-261.33"/>
</g>
<!-- No_965784241 -->
<g id="node8" class="node">
<title>No_965784241</title>
<ellipse fill="none" stroke="black" cx="350.9" cy="-339.38" rx="92.76" ry="37.45"/>
<text text-anchor="middle" x="350.9" y="-350.68" font-family="Times,serif" font-size="14.00">Leonardo Souza</text>
<text text-anchor="middle" x="350.9" y="-335.68" font-family="Times,serif" font-size="14.00">965784241</text>
<text text-anchor="middle" x="350.9" y="-320.68" font-family="Times,serif" font-size="14.00">fb=1</text>
</g>
<!-- No_975118455&#45;&gt;No_965784241 -->
<g id="edge7" class="edge">
<title>No_975118455&#45;&gt;No_965784241</title>
<path fill="none" stroke="black" d="M365.52,-412.75C363.85,-404.49 362.05,-395.61 360.31,-386.99"/>
<polygon fill="black" stroke="black" points="363.72,-386.16 358.31,-377.06 356.86,-387.55 363.72,-386.16"/>
</g>
<!-- No_984484107 -->
<g id="node13" class="node">
<title>No_984484107</title>
<ellipse fill="none" stroke="black" cx="582.9" cy="-339.38" rx="70.01" ry="37.45"/>
<text text-anchor="middle" x="582.9" y="-350.68" font-family="Times,serif" font-size="14.00">Luiz Barros</text>
<text text-anchor="middle" x="582.9" y="-335.68" font-family="Times,serif" font-size="14.00">984484107</text>
<text text-anchor="middle" x="582.9" y="-320.68" font-family="Times,serif" font-size="14.00">fb=&#45;2</text>
</g>
<!-- No_975118455&#45;&gt;No_984484107 -->
<g id="edge12" class="edge">
<title>No_975118455&#45;&gt;No_984484107</title>
<path fill="none" stroke="black" d="M427.53,-420.99C457.27,-405.57 494.07,-386.47 524.39,-370.74"/>
<polygon fill="black" stroke="black" points="526.31,-373.69 533.57,-365.98 523.09,-367.48 526.31,-373.69"/>
</g>
<!-- NUL_3 -->
<g id="node9" class="node">
<title>NUL_3</title>
<polygon fill="none" stroke="black" points="232.9,-250.43 188.9,-250.43 188.9,-206.43 232.9,-206.43 232.9,-250.43"/>
<text text-anchor="middle" x="210.9" y="-224.73" font-family="Times,serif" font-size="14.00">null</text>
</g>
<!-- No_965784241&#45;&gt;NUL_3 -->
<g id="edge8" class="edge">
<title>No_965784241&#45;&gt;NUL_3</title>
<path fill="none" stroke="black" d="M299.11,-308.15C280.26,-296.08 259.31,-281.38 241.9,-265.91 239.36,-263.64 236.83,-261.17 234.38,-258.61"/>
<polygon fill="black" stroke="black" points="236.64,-255.88 227.34,-250.8 231.44,-260.57 236.64,-255.88"/>
</g>
<!-- No_971755003 -->
<g id="node10" class="node">
<title>No_971755003</title>
<ellipse fill="none" stroke="black" cx="350.9" cy="-228.43" rx="99.9" ry="37.45"/>
<text text-anchor="middle" x="350.9" y="-239.73" font-family="Times,serif" font-size="14.00">Luciana Machado</text>
<text text-anchor="middle" x="350.9" y="-224.73" font-family="Times,serif" font-size="14.00">971755003</text>
<text text-anchor="middle" x="350.9" y="-209.73" font-family="Times,serif" font-size="14.00">fb=0</text>
</g>
<!-- No_965784241&#45;&gt;No_971755003 -->
<g id="edge9" class="edge">
<title>No_965784241&#45;&gt;No_971755003</title>
<path fill="none" stroke="black" d="M350.9,-301.8C350.9,-293.63 350.9,-284.85 350.9,-276.32"/>
<polygon fill="black" stroke="black" points="354.4,-276.1 350.9,-266.1 347.4,-276.1 354.4,-276.1"/>
</g>
<!-- NUL_4 -->
<g id="node11" class="node">
<title>NUL_4</title>
<polygon fill="none" stroke="black" points="341.9,-139.48 297.9,-139.48 297.9,-95.48 341.9,-95.48 341.9,-139.48"/>
<text text-anchor="middle" x="319.9" y="-113.78" font-family="Times,serif" font-size="14.00">null</text>
</g>
<!-- No_971755003&#45;&gt;NUL_4 -->
<g id="edge10" class="edge">
<title>No_971755003&#45;&gt;NUL_4</title>
<path fill="none" stroke="black" d="M340.58,-191.15C336.74,-177.67 332.43,-162.51 328.74,-149.53"/>
<polygon fill="black" stroke="black" points="332.04,-148.33 325.93,-139.67 325.3,-150.25 332.04,-148.33"/>
</g>
<!-- NUL_5 -->
<g id="node12" class="node">
<title>NUL_5</title>
<polygon fill="none" stroke="black" points="403.9,-139.48 359.9,-139.48 359.9,-95.48 403.9,-95.48 403.9,-139.48"/>
<text text-anchor="middle" x="381.9" y="-113.78" font-family="Times,serif" font-size="14.00">null</text>
</g>
<!-- No_971755003&#45;&gt;NUL_5 -->
<g id="edge11" class="edge">
<title>No_971755003&#45;&gt;NUL_5</title>
<path fill="none" stroke="black" d="M361.23,-191.15C365.06,-177.67 369.38,-162.51 373.07,-149.53"/>
<polygon fill="black" stroke="black" points="376.5,-150.25 375.87,-139.67 369.77,-148.33 376.5,-150.25"/>
</g>
<!-- No_977186503 -->
<g id="node14" class="node">
<title>No_977186503</title>
<ellipse fill="none" stroke="black" cx="582.9" cy="-228.43" rx="113.69" ry="37.45"/>
<text text-anchor="middle" x="582.9" y="-239.73" font-family="Times,serif" font-size="14.00">Leonardo Rodrigues</text>
<text text-anchor="middle" x="582.9" y="-224.73" font-family="Times,serif" font-size="14.00">977186503</text>
<text text-anchor="middle" x="582.9" y="-209.73" font-family="Times,serif" font-size="14.00">fb=1</text>
</g>
<!-- No_984484107&#45;&gt;No_977186503 -->
<g id="edge13" class="edge">
<title>No_984484107&#45;&gt;No_977186503</title>
<path fill="none" stroke="black" d="M582.9,-301.8C582.9,-293.63 582.9,-284.85 582.9,-276.32"/>
<polygon fill="black" stroke="black" points="586.4,-276.1 582.9,-266.1 579.4,-276.1 586.4,-276.1"/>
</g>
<!-- NUL_9 -->
<g id="node19" class="node">
<title>NUL_9</title>
<polygon fill="none" stroke="black" points="758.9,-250.43 714.9,-250.43 714.9,-206.43 758.9,-206.43 758.9,-250.43"/>
<text text-anchor="middle" x="736.9" y="-224.73" font-family="Times,serif" font-size="14.00">null</text>
</g>
<!-- No_984484107&#45;&gt;NUL_9 -->
<g id="edge18" class="edge">
<title>No_984484107&#45;&gt;NUL_9</title>
<path fill="none" stroke="black" d="M633.59,-313.51C656.82,-300.89 684,-284.34 705.9,-265.91 708.74,-263.52 711.53,-260.86 714.2,-258.08"/>
<polygon fill="black" stroke="black" points="716.85,-260.38 720.96,-250.62 711.66,-255.68 716.85,-260.38"/>
</g>
<!-- NUL_6 -->
<g id="node15" class="node">
<title>NUL_6</title>
<polygon fill="none" stroke="black" points="545.9,-139.48 501.9,-139.48 501.9,-95.48 545.9,-95.48 545.9,-139.48"/>
<text text-anchor="middle" x="523.9" y="-113.78" font-family="Times,serif" font-size="14.00">null</text>
</g>
<!-- No_977186503&#45;&gt;NUL_6 -->
<g id="edge14" class="edge">
<title>No_977186503&#45;&gt;NUL_6</title>
<path fill="none" stroke="black" d="M563.42,-191.45C555.97,-177.69 547.54,-162.13 540.39,-148.93"/>
<polygon fill="black" stroke="black" points="543.29,-146.92 535.45,-139.79 537.13,-150.25 543.29,-146.92"/>
</g>
<!-- No_979089828 -->
<g id="node16" class="node">
<title>No_979089828</title>
<ellipse fill="none" stroke="black" cx="640.9" cy="-117.48" rx="77.15" ry="37.45"/>
<text text-anchor="middle" x="640.9" y="-128.78" font-family="Times,serif" font-size="14.00">Luana Farias</text>
<text text-anchor="middle" x="640.9" y="-113.78" font-family="Times,serif" font-size="14.00">979089828</text>
<text text-anchor="middle" x="640.9" y="-98.78" font-family="Times,serif" font-size="14.00">fb=0</text>
</g>
<!-- No_977186503&#45;&gt;No_979089828 -->
<g id="edge15" class="edge">
<title>No_977186503&#45;&gt;No_979089828</title>
<path fill="none" stroke="black" d="M602.06,-191.45C606.91,-182.34 612.17,-172.44 617.22,-162.97"/>
<polygon fill="black" stroke="black" points="620.36,-164.52 621.97,-154.04 614.18,-161.23 620.36,-164.52"/>
</g>
<!-- NUL_7 -->
<g id="node17" class="node">
<title>NUL_7</title>
<polygon fill="none" stroke="black" points="631.9,-44 587.9,-44 587.9,0 631.9,0 631.9,-44"/>
<text text-anchor="middle" x="609.9" y="-18.3" font-family="Times,serif" font-size="14.00">null</text>
</g>
<!-- No_979089828&#45;&gt;NUL_7 -->
<g id="edge16" class="edge">
<title>No_979089828&#45;&gt;NUL_7</title>
<path fill="none" stroke="black" d="M628.92,-80.34C626,-71.55 622.91,-62.23 620.09,-53.72"/>
<polygon fill="black" stroke="black" points="623.4,-52.57 616.93,-44.18 616.75,-54.77 623.4,-52.57"/>
</g>
<!-- NUL_8 -->
<g id="node18" class="node">
<title>NUL_8</title>
<polygon fill="none" stroke="black" points="693.9,-44 649.9,-44 649.9,0 693.9,0 693.9,-44"/>
<text text-anchor="middle" x="671.9" y="-18.3" font-family="Times,serif" font-size="14.00">null</text>
</g>
<!-- No_979089828&#45;&gt;NUL_8 -->
<g id="edge17" class="edge">
<title>No_979089828&#45;&gt;NUL_8</title>
<path fill="none" stroke="black" d="M652.89,-80.34C655.8,-71.55 658.89,-62.23 661.71,-53.72"/>
<polygon fill="black" stroke="black" points="665.05,-54.77 664.88,-44.18 658.41,-52.57 665.05,-54.77"/>
</g>
</g>
</svg>
