<?xml version="1.0" encoding="UTF-8" standalone="no"?>
<!DOCTYPE svg PUBLIC "-//W3C//DTD SVG 1.1//EN"
 "http://www.w3.org/Graphics/SVG/1.1/DTD/svg11.dtd">
<!-- Generated by graphviz version 2.43.0 (0)
 -->
<!-- Title: BST Pages: 1 -->
<svg width="891pt" height="260pt"
 viewBox="0.00 0.00 891.02 260.00" xmlns="http://www.w3.org/2000/svg" xmlns:xlink="http://www.w3.org/1999/xlink">
<g id="graph0" class="graph" transform="scale(1 1) rotate(0) translate(4 256)">
<title>BST</title>
<polygon fill="white" stroke="transparent" points="-4,4 -4,-256 887.02,-256 887.02,4 -4,4"/>
<!-- Piettro Martins,969904009 -->
<g id="node1" class="node">
<title>Piettro Martins,969904009</title>
<ellipse fill="none" stroke="black" cx="592.39" cy="-234" rx="137.58" ry="18"/>
<text text-anchor="middle" x="592.39" y="-230.3" font-family="Times,serif" font-size="14.00">Piettro Martins,969904009</text>
</g>
<!-- Piettro Souza,961216424 -->
<g id="node2" class="node">
<title>Piettro Souza,961216424</title>
<ellipse fill="none" stroke="black" cx="453.39" cy="-162" rx="129.18" ry="18"/>
<text text-anchor="middle" x="453.39" y="-158.3" font-family="Times,serif" font-size="14.00">Piettro Souza,961216424</text>
</g>
<!-- Piettro Martins,969904009&#45;&gt;Piettro Souza,961216424 -->
<g id="edge1" class="edge">
<title>Piettro Martins,969904009&#45;&gt;Piettro Souza,961216424</title>
<path fill="none" stroke="black" d="M559.45,-216.41C540.23,-206.73 515.8,-194.43 495.24,-184.08"/>
<polygon fill="black" stroke="black" points="496.6,-180.84 486.09,-179.47 493.45,-187.09 496.6,-180.84"/>
</g>
<!-- Pamella Costa,972607915 -->
<g id="node7" class="node">
<title>Pamella Costa,972607915</title>
<ellipse fill="none" stroke="black" cx="735.39" cy="-162" rx="131.88" ry="18"/>
<text text-anchor="middle" x="735.39" y="-158.3" font-family="Times,serif" font-size="14.00">Pamella Costa,972607915</text>
</g>
<!-- Piettro Martins,969904009&#45;&gt;Pamella Costa,972607915 -->
<g id="edge6" class="edge">
<title>Piettro Martins,969904009&#45;&gt;Pamella Costa,972607915</title>
<path fill="none" stroke="black" d="M626.28,-216.41C646.13,-206.69 671.4,-194.32 692.62,-183.94"/>
<polygon fill="black" stroke="black" points="694.3,-187.01 701.74,-179.47 691.22,-180.72 694.3,-187.01"/>
</g>
<!-- Piettro Machado,950186297 -->
<g id="node3" class="node">
<title>Piettro Machado,950186297</title>
<ellipse fill="none" stroke="black" cx="162.39" cy="-90" rx="143.77" ry="18"/>
<text text-anchor="middle" x="162.39" y="-86.3" font-family="Times,serif" font-size="14.00">Piettro Machado,950186297</text>
</g>
<!-- Piettro Souza,961216424&#45;&gt;Piettro Machado,950186297 -->
<g id="edge2" class="edge">
<title>Piettro Souza,961216424&#45;&gt;Piettro Machado,950186297</title>
<path fill="none" stroke="black" d="M391.67,-146.15C345.94,-135.15 283.46,-120.12 235.26,-108.53"/>
<polygon fill="black" stroke="black" points="236.06,-105.12 225.52,-106.19 234.42,-111.93 236.06,-105.12"/>
</g>
<!-- Piettro Silva,961893049 -->
<g id="node5" class="node">
<title>Piettro Silva,961893049</title>
<ellipse fill="none" stroke="black" cx="453.39" cy="-90" rx="124.28" ry="18"/>
<text text-anchor="middle" x="453.39" y="-86.3" font-family="Times,serif" font-size="14.00">Piettro Silva,961893049</text>
</g>
<!-- Piettro Souza,961216424&#45;&gt;Piettro Silva,961893049 -->
<g id="edge4" class="edge">
<title>Piettro Souza,961216424&#45;&gt;Piettro Silva,961893049</title>
<path fill="none" stroke="black" d="M453.39,-143.7C453.39,-135.98 453.39,-126.71 453.39,-118.11"/>
<polygon fill="black" stroke="black" points="456.89,-118.1 453.39,-108.1 449.89,-118.1 456.89,-118.1"/>
</g>
<!-- Pamella Rodrigues,955173015 -->
<g id="node4" class="node">
<title>Pamella Rodrigues,955173015</title>
<ellipse fill="none" stroke="black" cx="153.39" cy="-18" rx="153.27" ry="18"/>
<text text-anchor="middle" x="153.39" y="-14.3" font-family="Times,serif" font-size="14.00">Pamella Rodrigues,955173015</text>
</g>
<!-- Piettro Machado,950186297&#45;&gt;Pamella Rodrigues,955173015 -->
<g id="edge3" class="edge">
<title>Piettro Machado,950186297&#45;&gt;Pamella Rodrigues,955173015</title>
<path fill="none" stroke="black" d="M160.16,-71.7C159.17,-63.98 157.98,-54.71 156.87,-46.11"/>
<polygon fill="black" stroke="black" points="160.33,-45.58 155.59,-36.1 153.39,-46.47 160.33,-45.58"/>
</g>
<!-- Pamella Souza,969300271 -->
<g id="node6" class="node">
<title>Pamella Souza,969300271</title>
<ellipse fill="none" stroke="black" cx="458.39" cy="-18" rx="133.78" ry="18"/>
<text text-anchor="middle" x="458.39" y="-14.3" font-family="Times,serif" font-size="14.00">Pamella Souza,969300271</text>
</g>
<!-- Piettro Silva,961893049&#45;&gt;Pamella Souza,969300271 -->
<g id="edge5" class="edge">
<title>Piettro Silva,961893049&#45;&gt;Pamella Souza,969300271</title>
<path fill="none" stroke="black" d="M454.62,-71.7C455.17,-63.98 455.84,-54.71 456.45,-46.11"/>
<polygon fill="black" stroke="black" points="459.94,-46.33 457.16,-36.1 452.96,-45.83 459.94,-46.33"/>
</g>
<!-- Pamella Barbosa,973123310 -->
<g id="node8" class="node">
<title>Pamella Barbosa,973123310</title>
<ellipse fill="none" stroke="black" cx="739.39" cy="-90" rx="143.77" ry="18"/>
<text text-anchor="middle" x="739.39" y="-86.3" font-family="Times,serif" font-size="14.00">Pamella Barbosa,973123310</text>
</g>
<!-- Pamella Costa,972607915&#45;&gt;Pamella Barbosa,973123310 -->
<g id="edge7" class="edge">
<title>Pamella Costa,972607915&#45;&gt;Pamella Barbosa,973123310</title>
<path fill="none" stroke="black" d="M736.38,-143.7C736.82,-135.98 737.35,-126.71 737.84,-118.11"/>
<polygon fill="black" stroke="black" points="741.33,-118.29 738.41,-108.1 734.34,-117.89 741.33,-118.29"/>
</g>
</g>
</svg>
