<?xml version="1.0" encoding="UTF-8" standalone="no"?>
<!DOCTYPE svg PUBLIC "-//W3C//DTD SVG 1.1//EN"
 "http://www.w3.org/Graphics/SVG/1.1/DTD/svg11.dtd">
<!-- Generated by graphviz version 2.43.0 (0)
 -->
<!-- Title: BST Pages: 1 -->
<svg width="1188pt" height="404pt"
 viewBox="0.00 0.00 1187.67 404.00" xmlns="http://www.w3.org/2000/svg" xmlns:xlink="http://www.w3.org/1999/xlink">
<g id="graph0" class="graph" transform="scale(1 1) rotate(0) translate(4 400)">
<title>BST</title>
<polygon fill="white" stroke="transparent" points="-4,4 -4,-400 1183.67,-400 1183.67,4 -4,4"/>
<!-- Marcel Torres,961020719 [fb:&#45;1] -->
<g id="node1" class="node">
<title>Marcel Torres,961020719 [fb:&#45;1]</title>
<ellipse fill="none" stroke="black" cx="671.49" cy="-378" rx="161.67" ry="18"/>
<text text-anchor="middle" x="671.49" y="-374.3" font-family="Times,serif" font-size="14.00">Marcel Torres,961020719 [fb:&#45;1]</text>
</g>
<!-- Márcio Machado,952329784 [fb:&#45;1] -->
<g id="node2" class="node">
<title>Márcio Machado,952329784 [fb:&#45;1]</title>
<ellipse fill="none" stroke="black" cx="496.49" cy="-306" rx="174.37" ry="18"/>
<text text-anchor="middle" x="496.49" y="-302.3" font-family="Times,serif" font-size="14.00">Márcio Machado,952329784 [fb:&#45;1]</text>
</g>
<!-- Marcel Torres,961020719 [fb:&#45;1]&#45;&gt;Márcio Machado,952329784 [fb:&#45;1] -->
<g id="edge1" class="edge">
<title>Marcel Torres,961020719 [fb:&#45;1]&#45;&gt;Márcio Machado,952329784 [fb:&#45;1]</title>
<path fill="none" stroke="black" d="M630.01,-360.41C605.26,-350.51 573.63,-337.86 547.37,-327.35"/>
<polygon fill="black" stroke="black" points="548.55,-324.06 537.96,-323.59 545.95,-330.55 548.55,-324.06"/>
</g>
<!-- Márcio Moura,972426994 [fb:0] -->
<g id="node6" class="node">
<title>Márcio Moura,972426994 [fb:0]</title>
<ellipse fill="none" stroke="black" cx="847.49" cy="-306" rx="159.47" ry="18"/>
<text text-anchor="middle" x="847.49" y="-302.3" font-family="Times,serif" font-size="14.00">Márcio Moura,972426994 [fb:0]</text>
</g>
<!-- Marcel Torres,961020719 [fb:&#45;1]&#45;&gt;Márcio Moura,972426994 [fb:0] -->
<g id="edge5" class="edge">
<title>Marcel Torres,961020719 [fb:&#45;1]&#45;&gt;Márcio Moura,972426994 [fb:0]</title>
<path fill="none" stroke="black" d="M712.75,-360.59C737.82,-350.62 770.01,-337.82 796.64,-327.22"/>
<polygon fill="black" stroke="black" points="798.18,-330.38 806.18,-323.43 795.59,-323.87 798.18,-330.38"/>
</g>
<!-- Marcel Freitas,950313546 [fb:1] -->
<g id="node3" class="node">
<title>Marcel Freitas,950313546 [fb:1]</title>
<ellipse fill="none" stroke="black" cx="162.49" cy="-234" rx="162.47" ry="18"/>
<text text-anchor="middle" x="162.49" y="-230.3" font-family="Times,serif" font-size="14.00">Marcel Freitas,950313546 [fb:1]</text>
</g>
<!-- Márcio Machado,952329784 [fb:&#45;1]&#45;&gt;Marcel Freitas,950313546 [fb:1] -->
<g id="edge2" class="edge">
<title>Márcio Machado,952329784 [fb:&#45;1]&#45;&gt;Marcel Freitas,950313546 [fb:1]</title>
<path fill="none" stroke="black" d="M423.19,-289.64C370.49,-278.59 299.39,-263.69 244.75,-252.24"/>
<polygon fill="black" stroke="black" points="245.26,-248.77 234.75,-250.15 243.82,-255.62 245.26,-248.77"/>
</g>
<!-- Márcio Coelho,958939859 [fb:0] -->
<g id="node5" class="node">
<title>Márcio Coelho,958939859 [fb:0]</title>
<ellipse fill="none" stroke="black" cx="504.49" cy="-234" rx="161.37" ry="18"/>
<text text-anchor="middle" x="504.49" y="-230.3" font-family="Times,serif" font-size="14.00">Márcio Coelho,958939859 [fb:0]</text>
</g>
<!-- Márcio Machado,952329784 [fb:&#45;1]&#45;&gt;Márcio Coelho,958939859 [fb:0] -->
<g id="edge4" class="edge">
<title>Márcio Machado,952329784 [fb:&#45;1]&#45;&gt;Márcio Coelho,958939859 [fb:0]</title>
<path fill="none" stroke="black" d="M498.46,-287.7C499.34,-279.98 500.4,-270.71 501.39,-262.11"/>
<polygon fill="black" stroke="black" points="504.87,-262.44 502.53,-252.1 497.92,-261.64 504.87,-262.44"/>
</g>
<!-- Marcel Souza,951425568 [fb:0] -->
<g id="node4" class="node">
<title>Marcel Souza,951425568 [fb:0]</title>
<ellipse fill="none" stroke="black" cx="162.49" cy="-162" rx="157.07" ry="18"/>
<text text-anchor="middle" x="162.49" y="-158.3" font-family="Times,serif" font-size="14.00">Marcel Souza,951425568 [fb:0]</text>
</g>
<!-- Marcel Freitas,950313546 [fb:1]&#45;&gt;Marcel Souza,951425568 [fb:0] -->
<g id="edge3" class="edge">
<title>Marcel Freitas,950313546 [fb:1]&#45;&gt;Marcel Souza,951425568 [fb:0]</title>
<path fill="none" stroke="black" d="M162.49,-215.7C162.49,-207.98 162.49,-198.71 162.49,-190.11"/>
<polygon fill="black" stroke="black" points="165.99,-190.1 162.49,-180.1 158.99,-190.1 165.99,-190.1"/>
</g>
<!-- Márcio Porto,975279080 [fb:&#45;1] -->
<g id="node7" class="node">
<title>Márcio Porto,975279080 [fb:&#45;1]</title>
<ellipse fill="none" stroke="black" cx="847.49" cy="-234" rx="157.07" ry="18"/>
<text text-anchor="middle" x="847.49" y="-230.3" font-family="Times,serif" font-size="14.00">Márcio Porto,975279080 [fb:&#45;1]</text>
</g>
<!-- Márcio Moura,972426994 [fb:0]&#45;&gt;Márcio Porto,975279080 [fb:&#45;1] -->
<g id="edge6" class="edge">
<title>Márcio Moura,972426994 [fb:0]&#45;&gt;Márcio Porto,975279080 [fb:&#45;1]</title>
<path fill="none" stroke="black" d="M847.49,-287.7C847.49,-279.98 847.49,-270.71 847.49,-262.11"/>
<polygon fill="black" stroke="black" points="850.99,-262.1 847.49,-252.1 843.99,-262.1 850.99,-262.1"/>
</g>
<!-- Márcio Porto,989927453 [fb:&#45;1] -->
<g id="node8" class="node">
<title>Márcio Porto,989927453 [fb:&#45;1]</title>
<ellipse fill="none" stroke="black" cx="847.49" cy="-162" rx="157.07" ry="18"/>
<text text-anchor="middle" x="847.49" y="-158.3" font-family="Times,serif" font-size="14.00">Márcio Porto,989927453 [fb:&#45;1]</text>
</g>
<!-- Márcio Porto,975279080 [fb:&#45;1]&#45;&gt;Márcio Porto,989927453 [fb:&#45;1] -->
<g id="edge7" class="edge">
<title>Márcio Porto,975279080 [fb:&#45;1]&#45;&gt;Márcio Porto,989927453 [fb:&#45;1]</title>
<path fill="none" stroke="black" d="M847.49,-215.7C847.49,-207.98 847.49,-198.71 847.49,-190.11"/>
<polygon fill="black" stroke="black" points="850.99,-190.1 847.49,-180.1 843.99,-190.1 850.99,-190.1"/>
</g>
<!-- Marcel Pereira,981304370 [fb:0] -->
<g id="node9" class="node">
<title>Marcel Pereira,981304370 [fb:0]</title>
<ellipse fill="none" stroke="black" cx="676.49" cy="-90" rx="163.27" ry="18"/>
<text text-anchor="middle" x="676.49" y="-86.3" font-family="Times,serif" font-size="14.00">Marcel Pereira,981304370 [fb:0]</text>
</g>
<!-- Márcio Porto,989927453 [fb:&#45;1]&#45;&gt;Marcel Pereira,981304370 [fb:0] -->
<g id="edge8" class="edge">
<title>Márcio Porto,989927453 [fb:&#45;1]&#45;&gt;Marcel Pereira,981304370 [fb:0]</title>
<path fill="none" stroke="black" d="M807.39,-144.59C783.23,-134.7 752.26,-122.02 726.51,-111.48"/>
<polygon fill="black" stroke="black" points="727.5,-108.1 716.92,-107.55 724.85,-114.58 727.5,-108.1"/>
</g>
<!-- Marcel Santos,996988455 [fb:1] -->
<g id="node10" class="node">
<title>Marcel Santos,996988455 [fb:1]</title>
<ellipse fill="none" stroke="black" cx="1018.49" cy="-90" rx="161.37" ry="18"/>
<text text-anchor="middle" x="1018.49" y="-86.3" font-family="Times,serif" font-size="14.00">Marcel Santos,996988455 [fb:1]</text>
</g>
<!-- Márcio Porto,989927453 [fb:&#45;1]&#45;&gt;Marcel Santos,996988455 [fb:1] -->
<g id="edge9" class="edge">
<title>Márcio Porto,989927453 [fb:&#45;1]&#45;&gt;Marcel Santos,996988455 [fb:1]</title>
<path fill="none" stroke="black" d="M887.58,-144.59C911.74,-134.7 942.71,-122.02 968.46,-111.48"/>
<polygon fill="black" stroke="black" points="970.12,-114.58 978.05,-107.55 967.47,-108.1 970.12,-114.58"/>
</g>
<!-- Márcio Alves,999529510 [fb:0] -->
<g id="node11" class="node">
<title>Márcio Alves,999529510 [fb:0]</title>
<ellipse fill="none" stroke="black" cx="1018.49" cy="-18" rx="154.07" ry="18"/>
<text text-anchor="middle" x="1018.49" y="-14.3" font-family="Times,serif" font-size="14.00">Márcio Alves,999529510 [fb:0]</text>
</g>
<!-- Marcel Santos,996988455 [fb:1]&#45;&gt;Márcio Alves,999529510 [fb:0] -->
<g id="edge10" class="edge">
<title>Marcel Santos,996988455 [fb:1]&#45;&gt;Márcio Alves,999529510 [fb:0]</title>
<path fill="none" stroke="black" d="M1018.49,-71.7C1018.49,-63.98 1018.49,-54.71 1018.49,-46.11"/>
<polygon fill="black" stroke="black" points="1021.99,-46.1 1018.49,-36.1 1014.99,-46.1 1021.99,-46.1"/>
</g>
</g>
</svg>
