<?xml version="1.0" encoding="UTF-8" standalone="no"?>
<!DOCTYPE svg PUBLIC "-//W3C//DTD SVG 1.1//EN"
 "http://www.w3.org/Graphics/SVG/1.1/DTD/svg11.dtd">
<!-- Generated by graphviz version 2.43.0 (0)
 -->
<!-- Title: BST Pages: 1 -->
<svg width="295pt" height="607pt"
 viewBox="0.00 0.00 294.56 606.77" xmlns="http://www.w3.org/2000/svg" xmlns:xlink="http://www.w3.org/1999/xlink">
<g id="graph0" class="graph" transform="scale(1 1) rotate(0) translate(4 602.77)">
<title>BST</title>
<polygon fill="white" stroke="transparent" points="-4,4 -4,-602.77 290.56,-602.77 290.56,4 -4,4"/>
<!-- No_997285865 -->
<g id="node1" class="node">
<title>No_997285865</title>
<ellipse fill="none" stroke="black" cx="206.56" cy="-561.29" rx="74.91" ry="37.45"/>
<text text-anchor="middle" x="206.56" y="-572.59" font-family="Times,serif" font-size="14.00">Almir Torres</text>
<text text-anchor="middle" x="206.56" y="-557.59" font-family="Times,serif" font-size="14.00">997285865</text>
<text text-anchor="middle" x="206.56" y="-542.59" font-family="Times,serif" font-size="14.00">fb=&#45;1</text>
</g>
<!-- No_985278999 -->
<g id="node2" class="node">
<title>No_985278999</title>
<ellipse fill="none" stroke="black" cx="148.56" cy="-450.34" rx="75.82" ry="37.45"/>
<text text-anchor="middle" x="148.56" y="-461.64" font-family="Times,serif" font-size="14.00">Acir Campos</text>
<text text-anchor="middle" x="148.56" y="-446.64" font-family="Times,serif" font-size="14.00">985278999</text>
<text text-anchor="middle" x="148.56" y="-431.64" font-family="Times,serif" font-size="14.00">fb=&#45;1</text>
</g>
<!-- No_997285865&#45;&gt;No_985278999 -->
<g id="edge1" class="edge">
<title>No_997285865&#45;&gt;No_985278999</title>
<path fill="none" stroke="black" d="M187.73,-524.92C182.82,-515.69 177.46,-505.62 172.32,-495.98"/>
<polygon fill="black" stroke="black" points="175.28,-494.09 167.49,-486.91 169.1,-497.38 175.28,-494.09"/>
</g>
<!-- NUL_5 -->
<g id="node11" class="node">
<title>NUL_5</title>
<polygon fill="none" stroke="black" points="286.56,-472.34 242.56,-472.34 242.56,-428.34 286.56,-428.34 286.56,-472.34"/>
<text text-anchor="middle" x="264.56" y="-446.64" font-family="Times,serif" font-size="14.00">null</text>
</g>
<!-- No_997285865&#45;&gt;NUL_5 -->
<g id="edge10" class="edge">
<title>No_997285865&#45;&gt;NUL_5</title>
<path fill="none" stroke="black" d="M225.39,-524.92C232.86,-510.88 241.36,-494.91 248.53,-481.44"/>
<polygon fill="black" stroke="black" points="251.65,-483.04 253.26,-472.57 245.47,-479.75 251.65,-483.04"/>
</g>
<!-- No_960933790 -->
<g id="node3" class="node">
<title>No_960933790</title>
<ellipse fill="none" stroke="black" cx="85.56" cy="-339.38" rx="85.62" ry="37.45"/>
<text text-anchor="middle" x="85.56" y="-350.68" font-family="Times,serif" font-size="14.00">Andrea Santos</text>
<text text-anchor="middle" x="85.56" y="-335.68" font-family="Times,serif" font-size="14.00">960933790</text>
<text text-anchor="middle" x="85.56" y="-320.68" font-family="Times,serif" font-size="14.00">fb=0</text>
</g>
<!-- No_985278999&#45;&gt;No_960933790 -->
<g id="edge2" class="edge">
<title>No_985278999&#45;&gt;No_960933790</title>
<path fill="none" stroke="black" d="M128.11,-413.96C122.71,-404.64 116.83,-394.46 111.2,-384.73"/>
<polygon fill="black" stroke="black" points="114.16,-382.86 106.13,-375.95 108.1,-386.36 114.16,-382.86"/>
</g>
<!-- NUL_4 -->
<g id="node10" class="node">
<title>NUL_4</title>
<polygon fill="none" stroke="black" points="233.56,-361.38 189.56,-361.38 189.56,-317.38 233.56,-317.38 233.56,-361.38"/>
<text text-anchor="middle" x="211.56" y="-335.68" font-family="Times,serif" font-size="14.00">null</text>
</g>
<!-- No_985278999&#45;&gt;NUL_4 -->
<g id="edge9" class="edge">
<title>No_985278999&#45;&gt;NUL_4</title>
<path fill="none" stroke="black" d="M169.01,-413.96C177.13,-399.93 186.37,-383.96 194.15,-370.49"/>
<polygon fill="black" stroke="black" points="197.31,-372.03 199.28,-361.62 191.25,-368.52 197.31,-372.03"/>
</g>
<!-- NUL_0 -->
<g id="node4" class="node">
<title>NUL_0</title>
<polygon fill="none" stroke="black" points="50.56,-250.43 6.56,-250.43 6.56,-206.43 50.56,-206.43 50.56,-250.43"/>
<text text-anchor="middle" x="28.56" y="-224.73" font-family="Times,serif" font-size="14.00">null</text>
</g>
<!-- No_960933790&#45;&gt;NUL_0 -->
<g id="edge3" class="edge">
<title>No_960933790&#45;&gt;NUL_0</title>
<path fill="none" stroke="black" d="M66.9,-302.71C59.63,-288.82 51.4,-273.08 44.43,-259.76"/>
<polygon fill="black" stroke="black" points="47.34,-257.78 39.61,-250.55 41.14,-261.03 47.34,-257.78"/>
</g>
<!-- No_975960513 -->
<g id="node5" class="node">
<title>No_975960513</title>
<ellipse fill="none" stroke="black" cx="142.56" cy="-228.43" rx="73.58" ry="37.45"/>
<text text-anchor="middle" x="142.56" y="-239.73" font-family="Times,serif" font-size="14.00">Altair Souza</text>
<text text-anchor="middle" x="142.56" y="-224.73" font-family="Times,serif" font-size="14.00">975960513</text>
<text text-anchor="middle" x="142.56" y="-209.73" font-family="Times,serif" font-size="14.00">fb=&#45;1</text>
</g>
<!-- No_960933790&#45;&gt;No_975960513 -->
<g id="edge4" class="edge">
<title>No_960933790&#45;&gt;No_975960513</title>
<path fill="none" stroke="black" d="M104.22,-302.71C109.05,-293.49 114.3,-283.45 119.32,-273.85"/>
<polygon fill="black" stroke="black" points="122.51,-275.3 124.05,-264.81 116.31,-272.05 122.51,-275.3"/>
</g>
<!-- No_965115082 -->
<g id="node6" class="node">
<title>No_965115082</title>
<ellipse fill="none" stroke="black" cx="84.56" cy="-117.48" rx="75.82" ry="37.45"/>
<text text-anchor="middle" x="84.56" y="-128.78" font-family="Times,serif" font-size="14.00">Ana Barbosa</text>
<text text-anchor="middle" x="84.56" y="-113.78" font-family="Times,serif" font-size="14.00">965115082</text>
<text text-anchor="middle" x="84.56" y="-98.78" font-family="Times,serif" font-size="14.00">fb=0</text>
</g>
<!-- No_975960513&#45;&gt;No_965115082 -->
<g id="edge5" class="edge">
<title>No_975960513&#45;&gt;No_965115082</title>
<path fill="none" stroke="black" d="M123.73,-192.06C118.82,-182.83 113.46,-172.76 108.32,-163.12"/>
<polygon fill="black" stroke="black" points="111.28,-161.23 103.49,-154.05 105.1,-164.52 111.28,-161.23"/>
</g>
<!-- NUL_3 -->
<g id="node9" class="node">
<title>NUL_3</title>
<polygon fill="none" stroke="black" points="222.56,-139.48 178.56,-139.48 178.56,-95.48 222.56,-95.48 222.56,-139.48"/>
<text text-anchor="middle" x="200.56" y="-113.78" font-family="Times,serif" font-size="14.00">null</text>
</g>
<!-- No_975960513&#45;&gt;NUL_3 -->
<g id="edge8" class="edge">
<title>No_975960513&#45;&gt;NUL_3</title>
<path fill="none" stroke="black" d="M161.39,-192.06C168.86,-178.02 177.36,-162.05 184.53,-148.58"/>
<polygon fill="black" stroke="black" points="187.65,-150.18 189.26,-139.71 181.47,-146.89 187.65,-150.18"/>
</g>
<!-- NUL_1 -->
<g id="node7" class="node">
<title>NUL_1</title>
<polygon fill="none" stroke="black" points="75.56,-44 31.56,-44 31.56,0 75.56,0 75.56,-44"/>
<text text-anchor="middle" x="53.56" y="-18.3" font-family="Times,serif" font-size="14.00">null</text>
</g>
<!-- No_965115082&#45;&gt;NUL_1 -->
<g id="edge6" class="edge">
<title>No_965115082&#45;&gt;NUL_1</title>
<path fill="none" stroke="black" d="M72.57,-80.34C69.66,-71.55 66.57,-62.23 63.75,-53.72"/>
<polygon fill="black" stroke="black" points="67.05,-52.57 60.58,-44.18 60.41,-54.77 67.05,-52.57"/>
</g>
<!-- NUL_2 -->
<g id="node8" class="node">
<title>NUL_2</title>
<polygon fill="none" stroke="black" points="137.56,-44 93.56,-44 93.56,0 137.56,0 137.56,-44"/>
<text text-anchor="middle" x="115.56" y="-18.3" font-family="Times,serif" font-size="14.00">null</text>
</g>
<!-- No_965115082&#45;&gt;NUL_2 -->
<g id="edge7" class="edge">
<title>No_965115082&#45;&gt;NUL_2</title>
<path fill="none" stroke="black" d="M96.55,-80.34C99.46,-71.55 102.55,-62.23 105.37,-53.72"/>
<polygon fill="black" stroke="black" points="108.71,-54.77 108.54,-44.18 102.07,-52.57 108.71,-54.77"/>
</g>
</g>
</svg>
