<?xml version="1.0" encoding="UTF-8" standalone="no"?>
<!DOCTYPE svg PUBLIC "-//W3C//DTD SVG 1.1//EN"
 "http://www.w3.org/Graphics/SVG/1.1/DTD/svg11.dtd">
<!-- Generated by graphviz version 2.43.0 (0)
 -->
<!-- Title: BST Pages: 1 -->
<svg width="868pt" height="607pt"
 viewBox="0.00 0.00 867.95 606.77" xmlns="http://www.w3.org/2000/svg" xmlns:xlink="http://www.w3.org/1999/xlink">
<g id="graph0" class="graph" transform="scale(1 1) rotate(0) translate(4 602.77)">
<title>BST</title>
<polygon fill="white" stroke="transparent" points="-4,4 -4,-602.77 863.95,-602.77 863.95,4 -4,4"/>
<!-- No_987671978 -->
<g id="node1" class="node">
<title>No_987671978</title>
<ellipse fill="none" stroke="black" cx="564.95" cy="-561.29" rx="90.52" ry="37.45"/>
<text text-anchor="middle" x="564.95" y="-572.59" font-family="Times,serif" font-size="14.00">Adriana Pereira</text>
<text text-anchor="middle" x="564.95" y="-557.59" font-family="Times,serif" font-size="14.00">987671978</text>
<text text-anchor="middle" x="564.95" y="-542.59" font-family="Times,serif" font-size="14.00">fb=0</text>
</g>
<!-- No_975960513 -->
<g id="node2" class="node">
<title>No_975960513</title>
<ellipse fill="none" stroke="black" cx="469.95" cy="-450.34" rx="73.58" ry="37.45"/>
<text text-anchor="middle" x="469.95" y="-461.64" font-family="Times,serif" font-size="14.00">Altair Souza</text>
<text text-anchor="middle" x="469.95" y="-446.64" font-family="Times,serif" font-size="14.00">975960513</text>
<text text-anchor="middle" x="469.95" y="-431.64" font-family="Times,serif" font-size="14.00">fb=0</text>
</g>
<!-- No_987671978&#45;&gt;No_975960513 -->
<g id="edge1" class="edge">
<title>No_987671978&#45;&gt;No_975960513</title>
<path fill="none" stroke="black" d="M534.89,-525.82C525.71,-515.28 515.51,-503.59 505.97,-492.65"/>
<polygon fill="black" stroke="black" points="508.38,-490.08 499.17,-484.84 503.1,-494.68 508.38,-490.08"/>
</g>
<!-- No_994116870 -->
<g id="node19" class="node">
<title>No_994116870</title>
<ellipse fill="none" stroke="black" cx="660.95" cy="-450.34" rx="98.99" ry="37.45"/>
<text text-anchor="middle" x="660.95" y="-461.64" font-family="Times,serif" font-size="14.00">Alexandra Moura</text>
<text text-anchor="middle" x="660.95" y="-446.64" font-family="Times,serif" font-size="14.00">994116870</text>
<text text-anchor="middle" x="660.95" y="-431.64" font-family="Times,serif" font-size="14.00">fb=1</text>
</g>
<!-- No_987671978&#45;&gt;No_994116870 -->
<g id="edge18" class="edge">
<title>No_987671978&#45;&gt;No_994116870</title>
<path fill="none" stroke="black" d="M595.33,-525.82C604.26,-515.68 614.13,-504.48 623.45,-493.9"/>
<polygon fill="black" stroke="black" points="626.13,-496.15 630.12,-486.33 620.88,-491.52 626.13,-496.15"/>
</g>
<!-- No_960933790 -->
<g id="node3" class="node">
<title>No_960933790</title>
<ellipse fill="none" stroke="black" cx="258.95" cy="-339.38" rx="85.62" ry="37.45"/>
<text text-anchor="middle" x="258.95" y="-350.68" font-family="Times,serif" font-size="14.00">Andrea Santos</text>
<text text-anchor="middle" x="258.95" y="-335.68" font-family="Times,serif" font-size="14.00">960933790</text>
<text text-anchor="middle" x="258.95" y="-320.68" font-family="Times,serif" font-size="14.00">fb=0</text>
</g>
<!-- No_975960513&#45;&gt;No_960933790 -->
<g id="edge2" class="edge">
<title>No_975960513&#45;&gt;No_960933790</title>
<path fill="none" stroke="black" d="M419.15,-423.1C390.07,-408.09 353.33,-389.11 322.37,-373.13"/>
<polygon fill="black" stroke="black" points="323.87,-369.97 313.38,-368.49 320.66,-376.19 323.87,-369.97"/>
</g>
<!-- No_986979432 -->
<g id="node12" class="node">
<title>No_986979432</title>
<ellipse fill="none" stroke="black" cx="469.95" cy="-339.38" rx="107.46" ry="37.45"/>
<text text-anchor="middle" x="469.95" y="-350.68" font-family="Times,serif" font-size="14.00">Américo Rodrigues</text>
<text text-anchor="middle" x="469.95" y="-335.68" font-family="Times,serif" font-size="14.00">986979432</text>
<text text-anchor="middle" x="469.95" y="-320.68" font-family="Times,serif" font-size="14.00">fb=&#45;1</text>
</g>
<!-- No_975960513&#45;&gt;No_986979432 -->
<g id="edge11" class="edge">
<title>No_975960513&#45;&gt;No_986979432</title>
<path fill="none" stroke="black" d="M469.95,-412.75C469.95,-404.58 469.95,-395.8 469.95,-387.27"/>
<polygon fill="black" stroke="black" points="473.45,-387.06 469.95,-377.06 466.45,-387.06 473.45,-387.06"/>
</g>
<!-- No_955838599 -->
<g id="node4" class="node">
<title>No_955838599</title>
<ellipse fill="none" stroke="black" cx="74.95" cy="-228.43" rx="74.91" ry="37.45"/>
<text text-anchor="middle" x="74.95" y="-239.73" font-family="Times,serif" font-size="14.00">Aline Santos</text>
<text text-anchor="middle" x="74.95" y="-224.73" font-family="Times,serif" font-size="14.00">955838599</text>
<text text-anchor="middle" x="74.95" y="-209.73" font-family="Times,serif" font-size="14.00">fb=1</text>
</g>
<!-- No_960933790&#45;&gt;No_955838599 -->
<g id="edge3" class="edge">
<title>No_960933790&#45;&gt;No_955838599</title>
<path fill="none" stroke="black" d="M209.16,-308.9C185.07,-294.64 156.06,-277.46 131.18,-262.72"/>
<polygon fill="black" stroke="black" points="132.95,-259.71 122.57,-257.62 129.39,-265.73 132.95,-259.71"/>
</g>
<!-- No_967387182 -->
<g id="node7" class="node">
<title>No_967387182</title>
<ellipse fill="none" stroke="black" cx="258.95" cy="-228.43" rx="91.43" ry="37.45"/>
<text text-anchor="middle" x="258.95" y="-239.73" font-family="Times,serif" font-size="14.00">Alfredo Martins</text>
<text text-anchor="middle" x="258.95" y="-224.73" font-family="Times,serif" font-size="14.00">967387182</text>
<text text-anchor="middle" x="258.95" y="-209.73" font-family="Times,serif" font-size="14.00">fb=0</text>
</g>
<!-- No_960933790&#45;&gt;No_967387182 -->
<g id="edge6" class="edge">
<title>No_960933790&#45;&gt;No_967387182</title>
<path fill="none" stroke="black" d="M258.95,-301.8C258.95,-293.63 258.95,-284.85 258.95,-276.32"/>
<polygon fill="black" stroke="black" points="262.45,-276.1 258.95,-266.1 255.45,-276.1 262.45,-276.1"/>
</g>
<!-- NUL_0 -->
<g id="node5" class="node">
<title>NUL_0</title>
<polygon fill="none" stroke="black" points="65.95,-139.48 21.95,-139.48 21.95,-95.48 65.95,-95.48 65.95,-139.48"/>
<text text-anchor="middle" x="43.95" y="-113.78" font-family="Times,serif" font-size="14.00">null</text>
</g>
<!-- No_955838599&#45;&gt;NUL_0 -->
<g id="edge4" class="edge">
<title>No_955838599&#45;&gt;NUL_0</title>
<path fill="none" stroke="black" d="M64.63,-191.15C60.79,-177.67 56.48,-162.51 52.79,-149.53"/>
<polygon fill="black" stroke="black" points="56.09,-148.33 49.98,-139.67 49.35,-150.25 56.09,-148.33"/>
</g>
<!-- NUL_1 -->
<g id="node6" class="node">
<title>NUL_1</title>
<polygon fill="none" stroke="black" points="127.95,-139.48 83.95,-139.48 83.95,-95.48 127.95,-95.48 127.95,-139.48"/>
<text text-anchor="middle" x="105.95" y="-113.78" font-family="Times,serif" font-size="14.00">null</text>
</g>
<!-- No_955838599&#45;&gt;NUL_1 -->
<g id="edge5" class="edge">
<title>No_955838599&#45;&gt;NUL_1</title>
<path fill="none" stroke="black" d="M85.28,-191.15C89.11,-177.67 93.43,-162.51 97.12,-149.53"/>
<polygon fill="black" stroke="black" points="100.55,-150.25 99.92,-139.67 93.82,-148.33 100.55,-150.25"/>
</g>
<!-- No_965115082 -->
<g id="node8" class="node">
<title>No_965115082</title>
<ellipse fill="none" stroke="black" cx="240.95" cy="-117.48" rx="75.82" ry="37.45"/>
<text text-anchor="middle" x="240.95" y="-128.78" font-family="Times,serif" font-size="14.00">Ana Barbosa</text>
<text text-anchor="middle" x="240.95" y="-113.78" font-family="Times,serif" font-size="14.00">965115082</text>
<text text-anchor="middle" x="240.95" y="-98.78" font-family="Times,serif" font-size="14.00">fb=0</text>
</g>
<!-- No_967387182&#45;&gt;No_965115082 -->
<g id="edge7" class="edge">
<title>No_967387182&#45;&gt;No_965115082</title>
<path fill="none" stroke="black" d="M252.91,-190.85C251.54,-182.58 250.08,-173.7 248.65,-165.09"/>
<polygon fill="black" stroke="black" points="252.1,-164.44 247.01,-155.15 245.19,-165.59 252.1,-164.44"/>
</g>
<!-- NUL_4 -->
<g id="node11" class="node">
<title>NUL_4</title>
<polygon fill="none" stroke="black" points="378.95,-139.48 334.95,-139.48 334.95,-95.48 378.95,-95.48 378.95,-139.48"/>
<text text-anchor="middle" x="356.95" y="-113.78" font-family="Times,serif" font-size="14.00">null</text>
</g>
<!-- No_967387182&#45;&gt;NUL_4 -->
<g id="edge10" class="edge">
<title>No_967387182&#45;&gt;NUL_4</title>
<path fill="none" stroke="black" d="M291.29,-193.05C302.38,-181.09 314.81,-167.52 325.95,-154.95 328.1,-152.53 330.32,-149.99 332.53,-147.44"/>
<polygon fill="black" stroke="black" points="335.21,-149.69 339.07,-139.82 329.9,-145.13 335.21,-149.69"/>
</g>
<!-- NUL_2 -->
<g id="node9" class="node">
<title>NUL_2</title>
<polygon fill="none" stroke="black" points="231.95,-44 187.95,-44 187.95,0 231.95,0 231.95,-44"/>
<text text-anchor="middle" x="209.95" y="-18.3" font-family="Times,serif" font-size="14.00">null</text>
</g>
<!-- No_965115082&#45;&gt;NUL_2 -->
<g id="edge8" class="edge">
<title>No_965115082&#45;&gt;NUL_2</title>
<path fill="none" stroke="black" d="M228.97,-80.34C226.05,-71.55 222.96,-62.23 220.14,-53.72"/>
<polygon fill="black" stroke="black" points="223.45,-52.57 216.98,-44.18 216.8,-54.77 223.45,-52.57"/>
</g>
<!-- NUL_3 -->
<g id="node10" class="node">
<title>NUL_3</title>
<polygon fill="none" stroke="black" points="293.95,-44 249.95,-44 249.95,0 293.95,0 293.95,-44"/>
<text text-anchor="middle" x="271.95" y="-18.3" font-family="Times,serif" font-size="14.00">null</text>
</g>
<!-- No_965115082&#45;&gt;NUL_3 -->
<g id="edge9" class="edge">
<title>No_965115082&#45;&gt;NUL_3</title>
<path fill="none" stroke="black" d="M252.94,-80.34C255.85,-71.55 258.94,-62.23 261.77,-53.72"/>
<polygon fill="black" stroke="black" points="265.1,-54.77 264.93,-44.18 258.46,-52.57 265.1,-54.77"/>
</g>
<!-- No_985278999 -->
<g id="node13" class="node">
<title>No_985278999</title>
<ellipse fill="none" stroke="black" cx="443.95" cy="-228.43" rx="75.82" ry="37.45"/>
<text text-anchor="middle" x="443.95" y="-239.73" font-family="Times,serif" font-size="14.00">Acir Campos</text>
<text text-anchor="middle" x="443.95" y="-224.73" font-family="Times,serif" font-size="14.00">985278999</text>
<text text-anchor="middle" x="443.95" y="-209.73" font-family="Times,serif" font-size="14.00">fb=0</text>
</g>
<!-- No_986979432&#45;&gt;No_985278999 -->
<g id="edge12" class="edge">
<title>No_986979432&#45;&gt;No_985278999</title>
<path fill="none" stroke="black" d="M461.22,-301.8C459.21,-293.36 457.04,-284.27 454.94,-275.48"/>
<polygon fill="black" stroke="black" points="458.34,-274.65 452.62,-265.73 451.53,-276.27 458.34,-274.65"/>
</g>
<!-- No_987340734 -->
<g id="node16" class="node">
<title>No_987340734</title>
<ellipse fill="none" stroke="black" cx="636.95" cy="-228.43" rx="98.99" ry="37.45"/>
<text text-anchor="middle" x="636.95" y="-239.73" font-family="Times,serif" font-size="14.00">Antônia Machado</text>
<text text-anchor="middle" x="636.95" y="-224.73" font-family="Times,serif" font-size="14.00">987340734</text>
<text text-anchor="middle" x="636.95" y="-209.73" font-family="Times,serif" font-size="14.00">fb=0</text>
</g>
<!-- No_986979432&#45;&gt;No_987340734 -->
<g id="edge15" class="edge">
<title>No_986979432&#45;&gt;No_987340734</title>
<path fill="none" stroke="black" d="M519.61,-305.99C538.53,-293.64 560.26,-279.47 579.82,-266.7"/>
<polygon fill="black" stroke="black" points="581.89,-269.53 588.35,-261.14 578.07,-263.67 581.89,-269.53"/>
</g>
<!-- NUL_5 -->
<g id="node14" class="node">
<title>NUL_5</title>
<polygon fill="none" stroke="black" points="453.95,-139.48 409.95,-139.48 409.95,-95.48 453.95,-95.48 453.95,-139.48"/>
<text text-anchor="middle" x="431.95" y="-113.78" font-family="Times,serif" font-size="14.00">null</text>
</g>
<!-- No_985278999&#45;&gt;NUL_5 -->
<g id="edge13" class="edge">
<title>No_985278999&#45;&gt;NUL_5</title>
<path fill="none" stroke="black" d="M439.92,-190.85C438.46,-177.52 436.81,-162.58 435.4,-149.75"/>
<polygon fill="black" stroke="black" points="438.85,-149.11 434.27,-139.55 431.89,-149.88 438.85,-149.11"/>
</g>
<!-- NUL_6 -->
<g id="node15" class="node">
<title>NUL_6</title>
<polygon fill="none" stroke="black" points="515.95,-139.48 471.95,-139.48 471.95,-95.48 515.95,-95.48 515.95,-139.48"/>
<text text-anchor="middle" x="493.95" y="-113.78" font-family="Times,serif" font-size="14.00">null</text>
</g>
<!-- No_985278999&#45;&gt;NUL_6 -->
<g id="edge14" class="edge">
<title>No_985278999&#45;&gt;NUL_6</title>
<path fill="none" stroke="black" d="M460.33,-191.75C466.7,-177.87 473.92,-162.13 480.03,-148.81"/>
<polygon fill="black" stroke="black" points="483.27,-150.14 484.26,-139.59 476.91,-147.22 483.27,-150.14"/>
</g>
<!-- NUL_7 -->
<g id="node17" class="node">
<title>NUL_7</title>
<polygon fill="none" stroke="black" points="627.95,-139.48 583.95,-139.48 583.95,-95.48 627.95,-95.48 627.95,-139.48"/>
<text text-anchor="middle" x="605.95" y="-113.78" font-family="Times,serif" font-size="14.00">null</text>
</g>
<!-- No_987340734&#45;&gt;NUL_7 -->
<g id="edge16" class="edge">
<title>No_987340734&#45;&gt;NUL_7</title>
<path fill="none" stroke="black" d="M626.63,-191.15C622.79,-177.67 618.48,-162.51 614.79,-149.53"/>
<polygon fill="black" stroke="black" points="618.09,-148.33 611.98,-139.67 611.35,-150.25 618.09,-148.33"/>
</g>
<!-- NUL_8 -->
<g id="node18" class="node">
<title>NUL_8</title>
<polygon fill="none" stroke="black" points="689.95,-139.48 645.95,-139.48 645.95,-95.48 689.95,-95.48 689.95,-139.48"/>
<text text-anchor="middle" x="667.95" y="-113.78" font-family="Times,serif" font-size="14.00">null</text>
</g>
<!-- No_987340734&#45;&gt;NUL_8 -->
<g id="edge17" class="edge">
<title>No_987340734&#45;&gt;NUL_8</title>
<path fill="none" stroke="black" d="M647.28,-191.15C651.11,-177.67 655.43,-162.51 659.12,-149.53"/>
<polygon fill="black" stroke="black" points="662.55,-150.25 661.92,-139.67 655.82,-148.33 662.55,-150.25"/>
</g>
<!-- NUL_9 -->
<g id="node20" class="node">
<title>NUL_9</title>
<polygon fill="none" stroke="black" points="682.95,-361.38 638.95,-361.38 638.95,-317.38 682.95,-317.38 682.95,-361.38"/>
<text text-anchor="middle" x="660.95" y="-335.68" font-family="Times,serif" font-size="14.00">null</text>
</g>
<!-- No_994116870&#45;&gt;NUL_9 -->
<g id="edge19" class="edge">
<title>No_994116870&#45;&gt;NUL_9</title>
<path fill="none" stroke="black" d="M660.95,-412.75C660.95,-399.42 660.95,-384.49 660.95,-371.66"/>
<polygon fill="black" stroke="black" points="664.45,-371.46 660.95,-361.46 657.45,-371.46 664.45,-371.46"/>
</g>
<!-- No_997285865 -->
<g id="node21" class="node">
<title>No_997285865</title>
<ellipse fill="none" stroke="black" cx="775.95" cy="-339.38" rx="74.91" ry="37.45"/>
<text text-anchor="middle" x="775.95" y="-350.68" font-family="Times,serif" font-size="14.00">Almir Torres</text>
<text text-anchor="middle" x="775.95" y="-335.68" font-family="Times,serif" font-size="14.00">997285865</text>
<text text-anchor="middle" x="775.95" y="-320.68" font-family="Times,serif" font-size="14.00">fb=0</text>
</g>
<!-- No_994116870&#45;&gt;No_997285865 -->
<g id="edge20" class="edge">
<title>No_994116870&#45;&gt;No_997285865</title>
<path fill="none" stroke="black" d="M697.02,-415.16C708.81,-404 721.99,-391.51 734.16,-379.98"/>
<polygon fill="black" stroke="black" points="736.73,-382.37 741.58,-372.95 731.91,-377.29 736.73,-382.37"/>
</g>
<!-- NUL_10 -->
<g id="node22" class="node">
<title>NUL_10</title>
<polygon fill="none" stroke="black" points="797.95,-250.43 753.95,-250.43 753.95,-206.43 797.95,-206.43 797.95,-250.43"/>
<text text-anchor="middle" x="775.95" y="-224.73" font-family="Times,serif" font-size="14.00">null</text>
</g>
<!-- No_997285865&#45;&gt;NUL_10 -->
<g id="edge21" class="edge">
<title>No_997285865&#45;&gt;NUL_10</title>
<path fill="none" stroke="black" d="M775.95,-301.8C775.95,-288.47 775.95,-273.53 775.95,-260.7"/>
<polygon fill="black" stroke="black" points="779.45,-260.51 775.95,-250.51 772.45,-260.51 779.45,-260.51"/>
</g>
<!-- NUL_11 -->
<g id="node23" class="node">
<title>NUL_11</title>
<polygon fill="none" stroke="black" points="859.95,-250.43 815.95,-250.43 815.95,-206.43 859.95,-206.43 859.95,-250.43"/>
<text text-anchor="middle" x="837.95" y="-224.73" font-family="Times,serif" font-size="14.00">null</text>
</g>
<!-- No_997285865&#45;&gt;NUL_11 -->
<g id="edge22" class="edge">
<title>No_997285865&#45;&gt;NUL_11</title>
<path fill="none" stroke="black" d="M796.08,-303.01C804.07,-288.97 813.16,-273 820.82,-259.53"/>
<polygon fill="black" stroke="black" points="823.97,-261.09 825.87,-250.66 817.88,-257.62 823.97,-261.09"/>
</g>
</g>
</svg>
