<?xml version="1.0" encoding="UTF-8" standalone="no"?>
<!DOCTYPE svg PUBLIC "-//W3C//DTD SVG 1.1//EN"
 "http://www.w3.org/Graphics/SVG/1.1/DTD/svg11.dtd">
<!-- Generated by graphviz version 2.43.0 (0)
 -->
<!-- Title: BST Pages: 1 -->
<svg width="595pt" height="188pt"
 viewBox="0.00 0.00 595.27 188.00" xmlns="http://www.w3.org/2000/svg" xmlns:xlink="http://www.w3.org/1999/xlink">
<g id="graph0" class="graph" transform="scale(1 1) rotate(0) translate(4 184)">
<title>BST</title>
<polygon fill="white" stroke="transparent" points="-4,4 -4,-184 591.27,-184 591.27,4 -4,4"/>
<!-- Vanessa Freitas,955355373 -->
<g id="node1" class="node">
<title>Vanessa Freitas,955355373</title>
<ellipse fill="none" stroke="black" cx="293.64" cy="-162" rx="139.98" ry="18"/>
<text text-anchor="middle" x="293.64" y="-158.3" font-family="Times,serif" font-size="14.00">Vanessa Freitas,955355373</text>
</g>
<!-- Vanessa Martins,952303299 -->
<g id="node2" class="node">
<title>Vanessa Martins,952303299</title>
<ellipse fill="none" stroke="black" cx="143.64" cy="-90" rx="143.77" ry="18"/>
<text text-anchor="middle" x="143.64" y="-86.3" font-family="Times,serif" font-size="14.00">Vanessa Martins,952303299</text>
</g>
<!-- Vanessa Freitas,955355373&#45;&gt;Vanessa Martins,952303299 -->
<g id="edge1" class="edge">
<title>Vanessa Freitas,955355373&#45;&gt;Vanessa Martins,952303299</title>
<path fill="none" stroke="black" d="M258.09,-144.41C237.17,-134.65 210.52,-122.21 188.2,-111.8"/>
<polygon fill="black" stroke="black" points="189.47,-108.53 178.93,-107.47 186.51,-114.87 189.47,-108.53"/>
</g>
<!-- Vanessa Coelho,957554329 -->
<g id="node3" class="node">
<title>Vanessa Coelho,957554329</title>
<ellipse fill="none" stroke="black" cx="443.64" cy="-90" rx="138.38" ry="18"/>
<text text-anchor="middle" x="443.64" y="-86.3" font-family="Times,serif" font-size="14.00">Vanessa Coelho,957554329</text>
</g>
<!-- Vanessa Freitas,955355373&#45;&gt;Vanessa Coelho,957554329 -->
<g id="edge2" class="edge">
<title>Vanessa Freitas,955355373&#45;&gt;Vanessa Coelho,957554329</title>
<path fill="none" stroke="black" d="M329.19,-144.41C350.11,-134.65 376.76,-122.21 399.07,-111.8"/>
<polygon fill="black" stroke="black" points="400.76,-114.87 408.34,-107.47 397.8,-108.53 400.76,-114.87"/>
</g>
<!-- Vanessa Martins,996290752 -->
<g id="node4" class="node">
<title>Vanessa Martins,996290752</title>
<ellipse fill="none" stroke="black" cx="443.64" cy="-18" rx="143.77" ry="18"/>
<text text-anchor="middle" x="443.64" y="-14.3" font-family="Times,serif" font-size="14.00">Vanessa Martins,996290752</text>
</g>
<!-- Vanessa Coelho,957554329&#45;&gt;Vanessa Martins,996290752 -->
<g id="edge3" class="edge">
<title>Vanessa Coelho,957554329&#45;&gt;Vanessa Martins,996290752</title>
<path fill="none" stroke="black" d="M443.64,-71.7C443.64,-63.98 443.64,-54.71 443.64,-46.11"/>
<polygon fill="black" stroke="black" points="447.14,-46.1 443.64,-36.1 440.14,-46.1 447.14,-46.1"/>
</g>
</g>
</svg>
