<?xml version="1.0" encoding="UTF-8" standalone="no"?>
<!DOCTYPE svg PUBLIC "-//W3C//DTD SVG 1.1//EN"
 "http://www.w3.org/Graphics/SVG/1.1/DTD/svg11.dtd">
<!-- Generated by graphviz version 2.43.0 (0)
 -->
<!-- Title: BST Pages: 1 -->
<svg width="494pt" height="188pt"
 viewBox="0.00 0.00 493.58 188.00" xmlns="http://www.w3.org/2000/svg" xmlns:xlink="http://www.w3.org/1999/xlink">
<g id="graph0" class="graph" transform="scale(1 1) rotate(0) translate(4 184)">
<title>BST</title>
<polygon fill="white" stroke="transparent" points="-4,4 -4,-184 489.58,-184 489.58,4 -4,4"/>
<!-- Igor Campos,964632491 -->
<g id="node1" class="node">
<title>Igor Campos,964632491</title>
<ellipse fill="none" stroke="black" cx="243.59" cy="-162" rx="125.38" ry="18"/>
<text text-anchor="middle" x="243.59" y="-158.3" font-family="Times,serif" font-size="14.00">Igor Campos,964632491</text>
</g>
<!-- Igor Barros,961029324 -->
<g id="node2" class="node">
<title>Igor Barros,961029324</title>
<ellipse fill="none" stroke="black" cx="119.59" cy="-90" rx="119.68" ry="18"/>
<text text-anchor="middle" x="119.59" y="-86.3" font-family="Times,serif" font-size="14.00">Igor Barros,961029324</text>
</g>
<!-- Igor Campos,964632491&#45;&gt;Igor Barros,961029324 -->
<g id="edge1" class="edge">
<title>Igor Campos,964632491&#45;&gt;Igor Barros,961029324</title>
<path fill="none" stroke="black" d="M214.2,-144.41C197.37,-134.91 176.05,-122.88 157.92,-112.64"/>
<polygon fill="black" stroke="black" points="159.19,-109.34 148.76,-107.47 155.75,-115.43 159.19,-109.34"/>
</g>
<!-- Igor Silva,989918743 -->
<g id="node3" class="node">
<title>Igor Silva,989918743</title>
<ellipse fill="none" stroke="black" cx="368.59" cy="-90" rx="111.28" ry="18"/>
<text text-anchor="middle" x="368.59" y="-86.3" font-family="Times,serif" font-size="14.00">Igor Silva,989918743</text>
</g>
<!-- Igor Campos,964632491&#45;&gt;Igor Silva,989918743 -->
<g id="edge2" class="edge">
<title>Igor Campos,964632491&#45;&gt;Igor Silva,989918743</title>
<path fill="none" stroke="black" d="M273.21,-144.41C290.34,-134.82 312.06,-122.65 330.45,-112.36"/>
<polygon fill="black" stroke="black" points="332.16,-115.41 339.18,-107.47 328.74,-109.3 332.16,-115.41"/>
</g>
<!-- Igor Farias,997734597 -->
<g id="node4" class="node">
<title>Igor Farias,997734597</title>
<ellipse fill="none" stroke="black" cx="368.59" cy="-18" rx="116.98" ry="18"/>
<text text-anchor="middle" x="368.59" y="-14.3" font-family="Times,serif" font-size="14.00">Igor Farias,997734597</text>
</g>
<!-- Igor Silva,989918743&#45;&gt;Igor Farias,997734597 -->
<g id="edge3" class="edge">
<title>Igor Silva,989918743&#45;&gt;Igor Farias,997734597</title>
<path fill="none" stroke="black" d="M368.59,-71.7C368.59,-63.98 368.59,-54.71 368.59,-46.11"/>
<polygon fill="black" stroke="black" points="372.09,-46.1 368.59,-36.1 365.09,-46.1 372.09,-46.1"/>
</g>
</g>
</svg>
