<?xml version="1.0" encoding="UTF-8" standalone="no"?>
<!DOCTYPE svg PUBLIC "-//W3C//DTD SVG 1.1//EN"
 "http://www.w3.org/Graphics/SVG/1.1/DTD/svg11.dtd">
<!-- Generated by graphviz version 2.43.0 (0)
 -->
<!-- Title: BST Pages: 1 -->
<svg width="382pt" height="274pt"
 viewBox="0.00 0.00 382.19 273.91" xmlns="http://www.w3.org/2000/svg" xmlns:xlink="http://www.w3.org/1999/xlink">
<g id="graph0" class="graph" transform="scale(1 1) rotate(0) translate(4 269.91)">
<title>BST</title>
<polygon fill="white" stroke="transparent" points="-4,4 -4,-269.91 378.19,-269.91 378.19,4 -4,4"/>
<!-- No_979669469 -->
<g id="node1" class="node">
<title>No_979669469</title>
<ellipse fill="none" stroke="black" cx="180.73" cy="-228.43" rx="88.28" ry="37.45"/>
<text text-anchor="middle" x="180.73" y="-239.73" font-family="Times,serif" font-size="14.00">Vanessa Moura</text>
<text text-anchor="middle" x="180.73" y="-224.73" font-family="Times,serif" font-size="14.00">979669469</text>
<text text-anchor="middle" x="180.73" y="-209.73" font-family="Times,serif" font-size="14.00">fb=0</text>
</g>
<!-- No_970130538 -->
<g id="node2" class="node">
<title>No_970130538</title>
<ellipse fill="none" stroke="black" cx="82.73" cy="-117.48" rx="82.96" ry="37.45"/>
<text text-anchor="middle" x="82.73" y="-128.78" font-family="Times,serif" font-size="14.00">Vanessa Porto</text>
<text text-anchor="middle" x="82.73" y="-113.78" font-family="Times,serif" font-size="14.00">970130538</text>
<text text-anchor="middle" x="82.73" y="-98.78" font-family="Times,serif" font-size="14.00">fb=0</text>
</g>
<!-- No_979669469&#45;&gt;No_970130538 -->
<g id="edge1" class="edge">
<title>No_979669469&#45;&gt;No_970130538</title>
<path fill="none" stroke="black" d="M149.99,-193.26C140.51,-182.71 129.95,-170.98 120.07,-159.99"/>
<polygon fill="black" stroke="black" points="122.65,-157.62 113.36,-152.53 117.45,-162.31 122.65,-157.62"/>
</g>
<!-- No_988544965 -->
<g id="node5" class="node">
<title>No_988544965</title>
<ellipse fill="none" stroke="black" cx="278.73" cy="-117.48" rx="95.42" ry="37.45"/>
<text text-anchor="middle" x="278.73" y="-128.78" font-family="Times,serif" font-size="14.00">Vanessa Martins</text>
<text text-anchor="middle" x="278.73" y="-113.78" font-family="Times,serif" font-size="14.00">988544965</text>
<text text-anchor="middle" x="278.73" y="-98.78" font-family="Times,serif" font-size="14.00">fb=0</text>
</g>
<!-- No_979669469&#45;&gt;No_988544965 -->
<g id="edge4" class="edge">
<title>No_979669469&#45;&gt;No_988544965</title>
<path fill="none" stroke="black" d="M211.47,-193.26C220.69,-183.01 230.91,-171.65 240.54,-160.94"/>
<polygon fill="black" stroke="black" points="243.34,-163.06 247.43,-153.28 238.14,-158.37 243.34,-163.06"/>
</g>
<!-- NUL_0 -->
<g id="node3" class="node">
<title>NUL_0</title>
<polygon fill="none" stroke="black" points="73.73,-44 29.73,-44 29.73,0 73.73,0 73.73,-44"/>
<text text-anchor="middle" x="51.73" y="-18.3" font-family="Times,serif" font-size="14.00">null</text>
</g>
<!-- No_970130538&#45;&gt;NUL_0 -->
<g id="edge2" class="edge">
<title>No_970130538&#45;&gt;NUL_0</title>
<path fill="none" stroke="black" d="M70.75,-80.34C67.83,-71.55 64.74,-62.23 61.92,-53.72"/>
<polygon fill="black" stroke="black" points="65.23,-52.57 58.76,-44.18 58.58,-54.77 65.23,-52.57"/>
</g>
<!-- NUL_1 -->
<g id="node4" class="node">
<title>NUL_1</title>
<polygon fill="none" stroke="black" points="135.73,-44 91.73,-44 91.73,0 135.73,0 135.73,-44"/>
<text text-anchor="middle" x="113.73" y="-18.3" font-family="Times,serif" font-size="14.00">null</text>
</g>
<!-- No_970130538&#45;&gt;NUL_1 -->
<g id="edge3" class="edge">
<title>No_970130538&#45;&gt;NUL_1</title>
<path fill="none" stroke="black" d="M94.72,-80.34C97.63,-71.55 100.72,-62.23 103.54,-53.72"/>
<polygon fill="black" stroke="black" points="106.88,-54.77 106.71,-44.18 100.24,-52.57 106.88,-54.77"/>
</g>
<!-- NUL_2 -->
<g id="node6" class="node">
<title>NUL_2</title>
<polygon fill="none" stroke="black" points="269.73,-44 225.73,-44 225.73,0 269.73,0 269.73,-44"/>
<text text-anchor="middle" x="247.73" y="-18.3" font-family="Times,serif" font-size="14.00">null</text>
</g>
<!-- No_988544965&#45;&gt;NUL_2 -->
<g id="edge5" class="edge">
<title>No_988544965&#45;&gt;NUL_2</title>
<path fill="none" stroke="black" d="M266.66,-80.07C263.75,-71.3 260.67,-62.02 257.86,-53.55"/>
<polygon fill="black" stroke="black" points="261.18,-52.45 254.71,-44.06 254.54,-54.65 261.18,-52.45"/>
</g>
<!-- NUL_3 -->
<g id="node7" class="node">
<title>NUL_3</title>
<polygon fill="none" stroke="black" points="331.73,-44 287.73,-44 287.73,0 331.73,0 331.73,-44"/>
<text text-anchor="middle" x="309.73" y="-18.3" font-family="Times,serif" font-size="14.00">null</text>
</g>
<!-- No_988544965&#45;&gt;NUL_3 -->
<g id="edge6" class="edge">
<title>No_988544965&#45;&gt;NUL_3</title>
<path fill="none" stroke="black" d="M290.81,-80.07C293.71,-71.3 296.79,-62.02 299.6,-53.55"/>
<polygon fill="black" stroke="black" points="302.92,-54.65 302.75,-44.06 296.28,-52.45 302.92,-54.65"/>
</g>
</g>
</svg>
