<?xml version="1.0" encoding="UTF-8" standalone="no"?>
<!DOCTYPE svg PUBLIC "-//W3C//DTD SVG 1.1//EN"
 "http://www.w3.org/Graphics/SVG/1.1/DTD/svg11.dtd">
<!-- Generated by graphviz version 2.43.0 (0)
 -->
<!-- Title: BST Pages: 1 -->
<svg width="516pt" height="385pt"
 viewBox="0.00 0.00 516.00 384.86" xmlns="http://www.w3.org/2000/svg" xmlns:xlink="http://www.w3.org/1999/xlink">
<g id="graph0" class="graph" transform="scale(1 1) rotate(0) translate(4 380.86)">
<title>BST</title>
<polygon fill="white" stroke="transparent" points="-4,4 -4,-380.86 512,-380.86 512,4 -4,4"/>
<!-- No_975960513 -->
<g id="node1" class="node">
<title>No_975960513</title>
<ellipse fill="none" stroke="black" cx="238" cy="-339.38" rx="73.58" ry="37.45"/>
<text text-anchor="middle" x="238" y="-350.68" font-family="Times,serif" font-size="14.00">Altair Souza</text>
<text text-anchor="middle" x="238" y="-335.68" font-family="Times,serif" font-size="14.00">975960513</text>
<text text-anchor="middle" x="238" y="-320.68" font-family="Times,serif" font-size="14.00">fb=1</text>
</g>
<!-- No_955838599 -->
<g id="node2" class="node">
<title>No_955838599</title>
<ellipse fill="none" stroke="black" cx="138" cy="-228.43" rx="74.91" ry="37.45"/>
<text text-anchor="middle" x="138" y="-239.73" font-family="Times,serif" font-size="14.00">Aline Santos</text>
<text text-anchor="middle" x="138" y="-224.73" font-family="Times,serif" font-size="14.00">955838599</text>
<text text-anchor="middle" x="138" y="-209.73" font-family="Times,serif" font-size="14.00">fb=0</text>
</g>
<!-- No_975960513&#45;&gt;No_955838599 -->
<g id="edge1" class="edge">
<title>No_975960513&#45;&gt;No_955838599</title>
<path fill="none" stroke="black" d="M207.45,-305.1C197.37,-294.12 186.04,-281.77 175.5,-270.28"/>
<polygon fill="black" stroke="black" points="178.04,-267.88 168.7,-262.88 172.89,-272.62 178.04,-267.88"/>
</g>
<!-- No_1431789496 -->
<g id="node7" class="node">
<title>No_1431789496</title>
<ellipse fill="none" stroke="black" cx="339" cy="-228.43" rx="98.99" ry="37.45"/>
<text text-anchor="middle" x="339" y="-239.73" font-family="Times,serif" font-size="14.00">Alexandra Moura</text>
<text text-anchor="middle" x="339" y="-224.73" font-family="Times,serif" font-size="14.00">1431789496</text>
<text text-anchor="middle" x="339" y="-209.73" font-family="Times,serif" font-size="14.00">fb=&#45;1</text>
</g>
<!-- No_975960513&#45;&gt;No_1431789496 -->
<g id="edge6" class="edge">
<title>No_975960513&#45;&gt;No_1431789496</title>
<path fill="none" stroke="black" d="M268.85,-305.1C278.66,-294.53 289.63,-282.69 299.93,-271.57"/>
<polygon fill="black" stroke="black" points="302.71,-273.73 306.94,-264.02 297.57,-268.97 302.71,-273.73"/>
</g>
<!-- NUL_0 -->
<g id="node3" class="node">
<title>NUL_0</title>
<polygon fill="none" stroke="black" points="44,-139.48 0,-139.48 0,-95.48 44,-95.48 44,-139.48"/>
<text text-anchor="middle" x="22" y="-113.78" font-family="Times,serif" font-size="14.00">null</text>
</g>
<!-- No_955838599&#45;&gt;NUL_0 -->
<g id="edge2" class="edge">
<title>No_955838599&#45;&gt;NUL_0</title>
<path fill="none" stroke="black" d="M98.76,-196.21C83.95,-183.86 67.25,-169.23 53,-154.95 50.65,-152.6 48.28,-150.09 45.95,-147.54"/>
<polygon fill="black" stroke="black" points="48.39,-145.01 39.15,-139.82 43.14,-149.64 48.39,-145.01"/>
</g>
<!-- No_1431789736 -->
<g id="node4" class="node">
<title>No_1431789736</title>
<ellipse fill="none" stroke="black" cx="138" cy="-117.48" rx="75.82" ry="37.45"/>
<text text-anchor="middle" x="138" y="-128.78" font-family="Times,serif" font-size="14.00">Ana Barbosa</text>
<text text-anchor="middle" x="138" y="-113.78" font-family="Times,serif" font-size="14.00">1431789736</text>
<text text-anchor="middle" x="138" y="-98.78" font-family="Times,serif" font-size="14.00">fb=0</text>
</g>
<!-- No_955838599&#45;&gt;No_1431789736 -->
<g id="edge3" class="edge">
<title>No_955838599&#45;&gt;No_1431789736</title>
<path fill="none" stroke="black" d="M138,-190.85C138,-182.67 138,-173.89 138,-165.37"/>
<polygon fill="black" stroke="black" points="141.5,-165.15 138,-155.15 134.5,-165.15 141.5,-165.15"/>
</g>
<!-- NUL_1 -->
<g id="node5" class="node">
<title>NUL_1</title>
<polygon fill="none" stroke="black" points="129,-44 85,-44 85,0 129,0 129,-44"/>
<text text-anchor="middle" x="107" y="-18.3" font-family="Times,serif" font-size="14.00">null</text>
</g>
<!-- No_1431789736&#45;&gt;NUL_1 -->
<g id="edge4" class="edge">
<title>No_1431789736&#45;&gt;NUL_1</title>
<path fill="none" stroke="black" d="M126.01,-80.34C123.1,-71.55 120.01,-62.23 117.19,-53.72"/>
<polygon fill="black" stroke="black" points="120.49,-52.57 114.02,-44.18 113.85,-54.77 120.49,-52.57"/>
</g>
<!-- NUL_2 -->
<g id="node6" class="node">
<title>NUL_2</title>
<polygon fill="none" stroke="black" points="191,-44 147,-44 147,0 191,0 191,-44"/>
<text text-anchor="middle" x="169" y="-18.3" font-family="Times,serif" font-size="14.00">null</text>
</g>
<!-- No_1431789736&#45;&gt;NUL_2 -->
<g id="edge5" class="edge">
<title>No_1431789736&#45;&gt;NUL_2</title>
<path fill="none" stroke="black" d="M149.99,-80.34C152.9,-71.55 155.99,-62.23 158.81,-53.72"/>
<polygon fill="black" stroke="black" points="162.15,-54.77 161.98,-44.18 155.51,-52.57 162.15,-54.77"/>
</g>
<!-- No_986979432 -->
<g id="node8" class="node">
<title>No_986979432</title>
<ellipse fill="none" stroke="black" cx="339" cy="-117.48" rx="107.46" ry="37.45"/>
<text text-anchor="middle" x="339" y="-128.78" font-family="Times,serif" font-size="14.00">Américo Rodrigues</text>
<text text-anchor="middle" x="339" y="-113.78" font-family="Times,serif" font-size="14.00">986979432</text>
<text text-anchor="middle" x="339" y="-98.78" font-family="Times,serif" font-size="14.00">fb=1</text>
</g>
<!-- No_1431789496&#45;&gt;No_986979432 -->
<g id="edge7" class="edge">
<title>No_1431789496&#45;&gt;No_986979432</title>
<path fill="none" stroke="black" d="M339,-190.85C339,-182.67 339,-173.89 339,-165.37"/>
<polygon fill="black" stroke="black" points="342.5,-165.15 339,-155.15 335.5,-165.15 342.5,-165.15"/>
</g>
<!-- NUL_5 -->
<g id="node11" class="node">
<title>NUL_5</title>
<polygon fill="none" stroke="black" points="508,-139.48 464,-139.48 464,-95.48 508,-95.48 508,-139.48"/>
<text text-anchor="middle" x="486" y="-113.78" font-family="Times,serif" font-size="14.00">null</text>
</g>
<!-- No_1431789496&#45;&gt;NUL_5 -->
<g id="edge10" class="edge">
<title>No_1431789496&#45;&gt;NUL_5</title>
<path fill="none" stroke="black" d="M394.82,-197.31C414.75,-185.36 436.76,-170.71 455,-154.95 457.81,-152.53 460.58,-149.84 463.24,-147.06"/>
<polygon fill="black" stroke="black" points="465.89,-149.34 469.98,-139.57 460.69,-144.66 465.89,-149.34"/>
</g>
<!-- NUL_3 -->
<g id="node9" class="node">
<title>NUL_3</title>
<polygon fill="none" stroke="black" points="330,-44 286,-44 286,0 330,0 330,-44"/>
<text text-anchor="middle" x="308" y="-18.3" font-family="Times,serif" font-size="14.00">null</text>
</g>
<!-- No_986979432&#45;&gt;NUL_3 -->
<g id="edge8" class="edge">
<title>No_986979432&#45;&gt;NUL_3</title>
<path fill="none" stroke="black" d="M326.93,-80.07C324.02,-71.3 320.94,-62.02 318.13,-53.55"/>
<polygon fill="black" stroke="black" points="321.45,-52.45 314.98,-44.06 314.81,-54.65 321.45,-52.45"/>
</g>
<!-- NUL_4 -->
<g id="node10" class="node">
<title>NUL_4</title>
<polygon fill="none" stroke="black" points="392,-44 348,-44 348,0 392,0 392,-44"/>
<text text-anchor="middle" x="370" y="-18.3" font-family="Times,serif" font-size="14.00">null</text>
</g>
<!-- No_986979432&#45;&gt;NUL_4 -->
<g id="edge9" class="edge">
<title>No_986979432&#45;&gt;NUL_4</title>
<path fill="none" stroke="black" d="M351.07,-80.07C353.98,-71.3 357.06,-62.02 359.87,-53.55"/>
<polygon fill="black" stroke="black" points="363.19,-54.65 363.02,-44.06 356.55,-52.45 363.19,-54.65"/>
</g>
</g>
</svg>
