<?xml version="1.0" encoding="UTF-8" standalone="no"?>
<!DOCTYPE svg PUBLIC "-//W3C//DTD SVG 1.1//EN"
 "http://www.w3.org/Graphics/SVG/1.1/DTD/svg11.dtd">
<!-- Generated by graphviz version 2.43.0 (0)
 -->
<!-- Title: BST Pages: 1 -->
<svg width="295pt" height="496pt"
 viewBox="0.00 0.00 294.56 495.81" xmlns="http://www.w3.org/2000/svg" xmlns:xlink="http://www.w3.org/1999/xlink">
<g id="graph0" class="graph" transform="scale(1 1) rotate(0) translate(4 491.81)">
<title>BST</title>
<polygon fill="white" stroke="transparent" points="-4,4 -4,-491.81 290.56,-491.81 290.56,4 -4,4"/>
<!-- No_997285865 -->
<g id="node1" class="node">
<title>No_997285865</title>
<ellipse fill="none" stroke="black" cx="206.56" cy="-450.34" rx="74.91" ry="37.45"/>
<text text-anchor="middle" x="206.56" y="-461.64" font-family="Times,serif" font-size="14.00">Almir Torres</text>
<text text-anchor="middle" x="206.56" y="-446.64" font-family="Times,serif" font-size="14.00">997285865</text>
<text text-anchor="middle" x="206.56" y="-431.64" font-family="Times,serif" font-size="14.00">fb=&#45;1</text>
</g>
<!-- No_985278999 -->
<g id="node2" class="node">
<title>No_985278999</title>
<ellipse fill="none" stroke="black" cx="148.56" cy="-339.38" rx="75.82" ry="37.45"/>
<text text-anchor="middle" x="148.56" y="-350.68" font-family="Times,serif" font-size="14.00">Acir Campos</text>
<text text-anchor="middle" x="148.56" y="-335.68" font-family="Times,serif" font-size="14.00">985278999</text>
<text text-anchor="middle" x="148.56" y="-320.68" font-family="Times,serif" font-size="14.00">fb=0</text>
</g>
<!-- No_997285865&#45;&gt;No_985278999 -->
<g id="edge1" class="edge">
<title>No_997285865&#45;&gt;No_985278999</title>
<path fill="none" stroke="black" d="M187.73,-413.96C182.82,-404.73 177.46,-394.67 172.32,-385.03"/>
<polygon fill="black" stroke="black" points="175.28,-383.14 167.49,-375.95 169.1,-386.42 175.28,-383.14"/>
</g>
<!-- NUL_4 -->
<g id="node9" class="node">
<title>NUL_4</title>
<polygon fill="none" stroke="black" points="286.56,-361.38 242.56,-361.38 242.56,-317.38 286.56,-317.38 286.56,-361.38"/>
<text text-anchor="middle" x="264.56" y="-335.68" font-family="Times,serif" font-size="14.00">null</text>
</g>
<!-- No_997285865&#45;&gt;NUL_4 -->
<g id="edge8" class="edge">
<title>No_997285865&#45;&gt;NUL_4</title>
<path fill="none" stroke="black" d="M225.39,-413.96C232.86,-399.93 241.36,-383.96 248.53,-370.49"/>
<polygon fill="black" stroke="black" points="251.65,-372.09 253.26,-361.62 245.47,-368.8 251.65,-372.09"/>
</g>
<!-- No_960933790 -->
<g id="node3" class="node">
<title>No_960933790</title>
<ellipse fill="none" stroke="black" cx="85.56" cy="-228.43" rx="85.62" ry="37.45"/>
<text text-anchor="middle" x="85.56" y="-239.73" font-family="Times,serif" font-size="14.00">Andrea Santos</text>
<text text-anchor="middle" x="85.56" y="-224.73" font-family="Times,serif" font-size="14.00">960933790</text>
<text text-anchor="middle" x="85.56" y="-209.73" font-family="Times,serif" font-size="14.00">fb=&#45;1</text>
</g>
<!-- No_985278999&#45;&gt;No_960933790 -->
<g id="edge2" class="edge">
<title>No_985278999&#45;&gt;No_960933790</title>
<path fill="none" stroke="black" d="M128.11,-303.01C122.71,-293.68 116.83,-283.51 111.2,-273.77"/>
<polygon fill="black" stroke="black" points="114.16,-271.9 106.13,-265 108.1,-275.41 114.16,-271.9"/>
</g>
<!-- NUL_3 -->
<g id="node8" class="node">
<title>NUL_3</title>
<polygon fill="none" stroke="black" points="233.56,-250.43 189.56,-250.43 189.56,-206.43 233.56,-206.43 233.56,-250.43"/>
<text text-anchor="middle" x="211.56" y="-224.73" font-family="Times,serif" font-size="14.00">null</text>
</g>
<!-- No_985278999&#45;&gt;NUL_3 -->
<g id="edge7" class="edge">
<title>No_985278999&#45;&gt;NUL_3</title>
<path fill="none" stroke="black" d="M169.01,-303.01C177.13,-288.97 186.37,-273 194.15,-259.53"/>
<polygon fill="black" stroke="black" points="197.31,-261.07 199.28,-250.66 191.25,-257.57 197.31,-261.07"/>
</g>
<!-- NUL_0 -->
<g id="node4" class="node">
<title>NUL_0</title>
<polygon fill="none" stroke="black" points="49.56,-139.48 5.56,-139.48 5.56,-95.48 49.56,-95.48 49.56,-139.48"/>
<text text-anchor="middle" x="27.56" y="-113.78" font-family="Times,serif" font-size="14.00">null</text>
</g>
<!-- No_960933790&#45;&gt;NUL_0 -->
<g id="edge3" class="edge">
<title>No_960933790&#45;&gt;NUL_0</title>
<path fill="none" stroke="black" d="M66.57,-191.75C59.18,-177.87 50.8,-162.13 43.71,-148.81"/>
<polygon fill="black" stroke="black" points="46.59,-146.78 38.8,-139.59 40.41,-150.06 46.59,-146.78"/>
</g>
<!-- No_965115082 -->
<g id="node5" class="node">
<title>No_965115082</title>
<ellipse fill="none" stroke="black" cx="143.56" cy="-117.48" rx="75.82" ry="37.45"/>
<text text-anchor="middle" x="143.56" y="-128.78" font-family="Times,serif" font-size="14.00">Ana Barbosa</text>
<text text-anchor="middle" x="143.56" y="-113.78" font-family="Times,serif" font-size="14.00">965115082</text>
<text text-anchor="middle" x="143.56" y="-98.78" font-family="Times,serif" font-size="14.00">fb=0</text>
</g>
<!-- No_960933790&#45;&gt;No_965115082 -->
<g id="edge4" class="edge">
<title>No_960933790&#45;&gt;No_965115082</title>
<path fill="none" stroke="black" d="M104.55,-191.75C109.46,-182.54 114.8,-172.5 119.91,-162.9"/>
<polygon fill="black" stroke="black" points="123.11,-164.33 124.72,-153.86 116.94,-161.04 123.11,-164.33"/>
</g>
<!-- NUL_1 -->
<g id="node6" class="node">
<title>NUL_1</title>
<polygon fill="none" stroke="black" points="134.56,-44 90.56,-44 90.56,0 134.56,0 134.56,-44"/>
<text text-anchor="middle" x="112.56" y="-18.3" font-family="Times,serif" font-size="14.00">null</text>
</g>
<!-- No_965115082&#45;&gt;NUL_1 -->
<g id="edge5" class="edge">
<title>No_965115082&#45;&gt;NUL_1</title>
<path fill="none" stroke="black" d="M131.57,-80.34C128.66,-71.55 125.57,-62.23 122.75,-53.72"/>
<polygon fill="black" stroke="black" points="126.05,-52.57 119.58,-44.18 119.41,-54.77 126.05,-52.57"/>
</g>
<!-- NUL_2 -->
<g id="node7" class="node">
<title>NUL_2</title>
<polygon fill="none" stroke="black" points="196.56,-44 152.56,-44 152.56,0 196.56,0 196.56,-44"/>
<text text-anchor="middle" x="174.56" y="-18.3" font-family="Times,serif" font-size="14.00">null</text>
</g>
<!-- No_965115082&#45;&gt;NUL_2 -->
<g id="edge6" class="edge">
<title>No_965115082&#45;&gt;NUL_2</title>
<path fill="none" stroke="black" d="M155.55,-80.34C158.46,-71.55 161.55,-62.23 164.37,-53.72"/>
<polygon fill="black" stroke="black" points="167.71,-54.77 167.54,-44.18 161.07,-52.57 167.71,-54.77"/>
</g>
</g>
</svg>
