<?xml version="1.0" encoding="UTF-8" standalone="no"?>
<!DOCTYPE svg PUBLIC "-//W3C//DTD SVG 1.1//EN"
 "http://www.w3.org/Graphics/SVG/1.1/DTD/svg11.dtd">
<!-- Generated by graphviz version 2.43.0 (0)
 -->
<!-- Title: BST Pages: 1 -->
<svg width="1498pt" height="607pt"
 viewBox="0.00 0.00 1497.91 606.77" xmlns="http://www.w3.org/2000/svg" xmlns:xlink="http://www.w3.org/1999/xlink">
<g id="graph0" class="graph" transform="scale(1 1) rotate(0) translate(4 602.77)">
<title>BST</title>
<polygon fill="white" stroke="transparent" points="-4,4 -4,-602.77 1493.91,-602.77 1493.91,4 -4,4"/>
<!-- No_982632579 -->
<g id="node1" class="node">
<title>No_982632579</title>
<ellipse fill="none" stroke="black" cx="665.95" cy="-561.29" rx="69.09" ry="37.45"/>
<text text-anchor="middle" x="665.95" y="-572.59" font-family="Times,serif" font-size="14.00">Abel Costa</text>
<text text-anchor="middle" x="665.95" y="-557.59" font-family="Times,serif" font-size="14.00">982632579</text>
<text text-anchor="middle" x="665.95" y="-542.59" font-family="Times,serif" font-size="14.00">fb=1</text>
</g>
<!-- No_964642705 -->
<g id="node2" class="node">
<title>No_964642705</title>
<ellipse fill="none" stroke="black" cx="561.95" cy="-450.34" rx="78.48" ry="37.45"/>
<text text-anchor="middle" x="561.95" y="-461.64" font-family="Times,serif" font-size="14.00">Alícia Freitas</text>
<text text-anchor="middle" x="561.95" y="-446.64" font-family="Times,serif" font-size="14.00">964642705</text>
<text text-anchor="middle" x="561.95" y="-431.64" font-family="Times,serif" font-size="14.00">fb=0</text>
</g>
<!-- No_982632579&#45;&gt;No_964642705 -->
<g id="edge1" class="edge">
<title>No_982632579&#45;&gt;No_964642705</title>
<path fill="none" stroke="black" d="M634.75,-527.6C624.15,-516.49 612.17,-503.94 601.03,-492.27"/>
<polygon fill="black" stroke="black" points="603.29,-489.57 593.85,-484.76 598.23,-494.41 603.29,-489.57"/>
</g>
<!-- No_992883178 -->
<g id="node17" class="node">
<title>No_992883178</title>
<ellipse fill="none" stroke="black" cx="836.95" cy="-450.34" rx="107.46" ry="37.45"/>
<text text-anchor="middle" x="836.95" y="-461.64" font-family="Times,serif" font-size="14.00">Alexandre Barbosa</text>
<text text-anchor="middle" x="836.95" y="-446.64" font-family="Times,serif" font-size="14.00">992883178</text>
<text text-anchor="middle" x="836.95" y="-431.64" font-family="Times,serif" font-size="14.00">fb=&#45;1</text>
</g>
<!-- No_982632579&#45;&gt;No_992883178 -->
<g id="edge16" class="edge">
<title>No_982632579&#45;&gt;No_992883178</title>
<path fill="none" stroke="black" d="M709.99,-532.23C730.61,-519.1 755.47,-503.26 777.71,-489.09"/>
<polygon fill="black" stroke="black" points="779.85,-491.87 786.41,-483.54 776.09,-485.96 779.85,-491.87"/>
</g>
<!-- No_960933788 -->
<g id="node3" class="node">
<title>No_960933788</title>
<ellipse fill="none" stroke="black" cx="253.95" cy="-339.38" rx="92.76" ry="37.45"/>
<text text-anchor="middle" x="253.95" y="-350.68" font-family="Times,serif" font-size="14.00">Alberto Campos</text>
<text text-anchor="middle" x="253.95" y="-335.68" font-family="Times,serif" font-size="14.00">960933788</text>
<text text-anchor="middle" x="253.95" y="-320.68" font-family="Times,serif" font-size="14.00">fb=0</text>
</g>
<!-- No_964642705&#45;&gt;No_960933788 -->
<g id="edge2" class="edge">
<title>No_964642705&#45;&gt;No_960933788</title>
<path fill="none" stroke="black" d="M499.62,-427.29C451.31,-410.2 384.05,-386.41 332.13,-368.04"/>
<polygon fill="black" stroke="black" points="333.21,-364.71 322.62,-364.67 330.88,-371.31 333.21,-364.71"/>
</g>
<!-- No_967387182 -->
<g id="node10" class="node">
<title>No_967387182</title>
<ellipse fill="none" stroke="black" cx="561.95" cy="-339.38" rx="91.43" ry="37.45"/>
<text text-anchor="middle" x="561.95" y="-350.68" font-family="Times,serif" font-size="14.00">Alfredo Martins</text>
<text text-anchor="middle" x="561.95" y="-335.68" font-family="Times,serif" font-size="14.00">967387182</text>
<text text-anchor="middle" x="561.95" y="-320.68" font-family="Times,serif" font-size="14.00">fb=0</text>
</g>
<!-- No_964642705&#45;&gt;No_967387182 -->
<g id="edge9" class="edge">
<title>No_964642705&#45;&gt;No_967387182</title>
<path fill="none" stroke="black" d="M561.95,-412.75C561.95,-404.58 561.95,-395.8 561.95,-387.27"/>
<polygon fill="black" stroke="black" points="565.45,-387.06 561.95,-377.06 558.45,-387.06 565.45,-387.06"/>
</g>
<!-- No_955838599 -->
<g id="node4" class="node">
<title>No_955838599</title>
<ellipse fill="none" stroke="black" cx="74.95" cy="-228.43" rx="74.91" ry="37.45"/>
<text text-anchor="middle" x="74.95" y="-239.73" font-family="Times,serif" font-size="14.00">Aline Santos</text>
<text text-anchor="middle" x="74.95" y="-224.73" font-family="Times,serif" font-size="14.00">955838599</text>
<text text-anchor="middle" x="74.95" y="-209.73" font-family="Times,serif" font-size="14.00">fb=0</text>
</g>
<!-- No_960933788&#45;&gt;No_955838599 -->
<g id="edge3" class="edge">
<title>No_960933788&#45;&gt;No_955838599</title>
<path fill="none" stroke="black" d="M203.62,-307.74C180.88,-293.9 153.94,-277.5 130.6,-263.3"/>
<polygon fill="black" stroke="black" points="132.21,-260.18 121.84,-257.97 128.57,-266.16 132.21,-260.18"/>
</g>
<!-- No_960933790 -->
<g id="node7" class="node">
<title>No_960933790</title>
<ellipse fill="none" stroke="black" cx="253.95" cy="-228.43" rx="85.62" ry="37.45"/>
<text text-anchor="middle" x="253.95" y="-239.73" font-family="Times,serif" font-size="14.00">Andrea Santos</text>
<text text-anchor="middle" x="253.95" y="-224.73" font-family="Times,serif" font-size="14.00">960933790</text>
<text text-anchor="middle" x="253.95" y="-209.73" font-family="Times,serif" font-size="14.00">fb=0</text>
</g>
<!-- No_960933788&#45;&gt;No_960933790 -->
<g id="edge6" class="edge">
<title>No_960933788&#45;&gt;No_960933790</title>
<path fill="none" stroke="black" d="M253.95,-301.8C253.95,-293.63 253.95,-284.85 253.95,-276.32"/>
<polygon fill="black" stroke="black" points="257.45,-276.1 253.95,-266.1 250.45,-276.1 257.45,-276.1"/>
</g>
<!-- NUL_0 -->
<g id="node5" class="node">
<title>NUL_0</title>
<polygon fill="none" stroke="black" points="65.95,-139.48 21.95,-139.48 21.95,-95.48 65.95,-95.48 65.95,-139.48"/>
<text text-anchor="middle" x="43.95" y="-113.78" font-family="Times,serif" font-size="14.00">null</text>
</g>
<!-- No_955838599&#45;&gt;NUL_0 -->
<g id="edge4" class="edge">
<title>No_955838599&#45;&gt;NUL_0</title>
<path fill="none" stroke="black" d="M64.63,-191.15C60.79,-177.67 56.48,-162.51 52.79,-149.53"/>
<polygon fill="black" stroke="black" points="56.09,-148.33 49.98,-139.67 49.35,-150.25 56.09,-148.33"/>
</g>
<!-- NUL_1 -->
<g id="node6" class="node">
<title>NUL_1</title>
<polygon fill="none" stroke="black" points="127.95,-139.48 83.95,-139.48 83.95,-95.48 127.95,-95.48 127.95,-139.48"/>
<text text-anchor="middle" x="105.95" y="-113.78" font-family="Times,serif" font-size="14.00">null</text>
</g>
<!-- No_955838599&#45;&gt;NUL_1 -->
<g id="edge5" class="edge">
<title>No_955838599&#45;&gt;NUL_1</title>
<path fill="none" stroke="black" d="M85.28,-191.15C89.11,-177.67 93.43,-162.51 97.12,-149.53"/>
<polygon fill="black" stroke="black" points="100.55,-150.25 99.92,-139.67 93.82,-148.33 100.55,-150.25"/>
</g>
<!-- NUL_2 -->
<g id="node8" class="node">
<title>NUL_2</title>
<polygon fill="none" stroke="black" points="258.95,-139.48 214.95,-139.48 214.95,-95.48 258.95,-95.48 258.95,-139.48"/>
<text text-anchor="middle" x="236.95" y="-113.78" font-family="Times,serif" font-size="14.00">null</text>
</g>
<!-- No_960933790&#45;&gt;NUL_2 -->
<g id="edge7" class="edge">
<title>No_960933790&#45;&gt;NUL_2</title>
<path fill="none" stroke="black" d="M248.25,-190.85C246.17,-177.52 243.83,-162.58 241.83,-149.75"/>
<polygon fill="black" stroke="black" points="245.24,-148.9 240.24,-139.55 238.33,-149.97 245.24,-148.9"/>
</g>
<!-- NUL_3 -->
<g id="node9" class="node">
<title>NUL_3</title>
<polygon fill="none" stroke="black" points="320.95,-139.48 276.95,-139.48 276.95,-95.48 320.95,-95.48 320.95,-139.48"/>
<text text-anchor="middle" x="298.95" y="-113.78" font-family="Times,serif" font-size="14.00">null</text>
</g>
<!-- No_960933790&#45;&gt;NUL_3 -->
<g id="edge8" class="edge">
<title>No_960933790&#45;&gt;NUL_3</title>
<path fill="none" stroke="black" d="M268.81,-191.45C274.44,-177.82 280.8,-162.43 286.22,-149.32"/>
<polygon fill="black" stroke="black" points="289.57,-150.37 290.15,-139.79 283.1,-147.7 289.57,-150.37"/>
</g>
<!-- No_965115082 -->
<g id="node11" class="node">
<title>No_965115082</title>
<ellipse fill="none" stroke="black" cx="432.95" cy="-228.43" rx="75.82" ry="37.45"/>
<text text-anchor="middle" x="432.95" y="-239.73" font-family="Times,serif" font-size="14.00">Ana Barbosa</text>
<text text-anchor="middle" x="432.95" y="-224.73" font-family="Times,serif" font-size="14.00">965115082</text>
<text text-anchor="middle" x="432.95" y="-209.73" font-family="Times,serif" font-size="14.00">fb=0</text>
</g>
<!-- No_967387182&#45;&gt;No_965115082 -->
<g id="edge10" class="edge">
<title>No_967387182&#45;&gt;No_965115082</title>
<path fill="none" stroke="black" d="M522.9,-305.4C508.88,-293.56 492.96,-280.11 478.44,-267.85"/>
<polygon fill="black" stroke="black" points="480.45,-264.96 470.55,-261.18 475.93,-270.31 480.45,-264.96"/>
</g>
<!-- No_975960513 -->
<g id="node14" class="node">
<title>No_975960513</title>
<ellipse fill="none" stroke="black" cx="599.95" cy="-228.43" rx="73.58" ry="37.45"/>
<text text-anchor="middle" x="599.95" y="-239.73" font-family="Times,serif" font-size="14.00">Altair Souza</text>
<text text-anchor="middle" x="599.95" y="-224.73" font-family="Times,serif" font-size="14.00">975960513</text>
<text text-anchor="middle" x="599.95" y="-209.73" font-family="Times,serif" font-size="14.00">fb=0</text>
</g>
<!-- No_967387182&#45;&gt;No_975960513 -->
<g id="edge13" class="edge">
<title>No_967387182&#45;&gt;No_975960513</title>
<path fill="none" stroke="black" d="M574.61,-302.1C577.62,-293.47 580.87,-284.14 584.01,-275.14"/>
<polygon fill="black" stroke="black" points="587.37,-276.15 587.36,-265.55 580.76,-273.84 587.37,-276.15"/>
</g>
<!-- NUL_4 -->
<g id="node12" class="node">
<title>NUL_4</title>
<polygon fill="none" stroke="black" points="409.95,-139.48 365.95,-139.48 365.95,-95.48 409.95,-95.48 409.95,-139.48"/>
<text text-anchor="middle" x="387.95" y="-113.78" font-family="Times,serif" font-size="14.00">null</text>
</g>
<!-- No_965115082&#45;&gt;NUL_4 -->
<g id="edge11" class="edge">
<title>No_965115082&#45;&gt;NUL_4</title>
<path fill="none" stroke="black" d="M418.09,-191.45C412.46,-177.82 406.11,-162.43 400.69,-149.32"/>
<polygon fill="black" stroke="black" points="403.81,-147.7 396.76,-139.79 397.34,-150.37 403.81,-147.7"/>
</g>
<!-- NUL_5 -->
<g id="node13" class="node">
<title>NUL_5</title>
<polygon fill="none" stroke="black" points="471.95,-139.48 427.95,-139.48 427.95,-95.48 471.95,-95.48 471.95,-139.48"/>
<text text-anchor="middle" x="449.95" y="-113.78" font-family="Times,serif" font-size="14.00">null</text>
</g>
<!-- No_965115082&#45;&gt;NUL_5 -->
<g id="edge12" class="edge">
<title>No_965115082&#45;&gt;NUL_5</title>
<path fill="none" stroke="black" d="M438.66,-190.85C440.74,-177.52 443.07,-162.58 445.07,-149.75"/>
<polygon fill="black" stroke="black" points="448.58,-149.97 446.66,-139.55 441.66,-148.9 448.58,-149.97"/>
</g>
<!-- NUL_6 -->
<g id="node15" class="node">
<title>NUL_6</title>
<polygon fill="none" stroke="black" points="574.95,-139.48 530.95,-139.48 530.95,-95.48 574.95,-95.48 574.95,-139.48"/>
<text text-anchor="middle" x="552.95" y="-113.78" font-family="Times,serif" font-size="14.00">null</text>
</g>
<!-- No_975960513&#45;&gt;NUL_6 -->
<g id="edge14" class="edge">
<title>No_975960513&#45;&gt;NUL_6</title>
<path fill="none" stroke="black" d="M584.56,-191.75C578.57,-177.87 571.78,-162.13 566.04,-148.81"/>
<polygon fill="black" stroke="black" points="569.24,-147.39 562.06,-139.59 562.81,-150.16 569.24,-147.39"/>
</g>
<!-- NUL_7 -->
<g id="node16" class="node">
<title>NUL_7</title>
<polygon fill="none" stroke="black" points="636.95,-139.48 592.95,-139.48 592.95,-95.48 636.95,-95.48 636.95,-139.48"/>
<text text-anchor="middle" x="614.95" y="-113.78" font-family="Times,serif" font-size="14.00">null</text>
</g>
<!-- No_975960513&#45;&gt;NUL_7 -->
<g id="edge15" class="edge">
<title>No_975960513&#45;&gt;NUL_7</title>
<path fill="none" stroke="black" d="M604.99,-190.85C606.83,-177.52 608.88,-162.58 610.65,-149.75"/>
<polygon fill="black" stroke="black" points="614.15,-149.94 612.05,-139.55 607.22,-148.98 614.15,-149.94"/>
</g>
<!-- No_987340734 -->
<g id="node18" class="node">
<title>No_987340734</title>
<ellipse fill="none" stroke="black" cx="836.95" cy="-339.38" rx="98.99" ry="37.45"/>
<text text-anchor="middle" x="836.95" y="-350.68" font-family="Times,serif" font-size="14.00">Antônia Machado</text>
<text text-anchor="middle" x="836.95" y="-335.68" font-family="Times,serif" font-size="14.00">987340734</text>
<text text-anchor="middle" x="836.95" y="-320.68" font-family="Times,serif" font-size="14.00">fb=&#45;1</text>
</g>
<!-- No_992883178&#45;&gt;No_987340734 -->
<g id="edge17" class="edge">
<title>No_992883178&#45;&gt;No_987340734</title>
<path fill="none" stroke="black" d="M836.95,-412.75C836.95,-404.58 836.95,-395.8 836.95,-387.27"/>
<polygon fill="black" stroke="black" points="840.45,-387.06 836.95,-377.06 833.45,-387.06 840.45,-387.06"/>
</g>
<!-- No_996598918 -->
<g id="node27" class="node">
<title>No_996598918</title>
<ellipse fill="none" stroke="black" cx="1222.95" cy="-339.38" rx="69.09" ry="37.45"/>
<text text-anchor="middle" x="1222.95" y="-350.68" font-family="Times,serif" font-size="14.00">Ana Farias</text>
<text text-anchor="middle" x="1222.95" y="-335.68" font-family="Times,serif" font-size="14.00">996598918</text>
<text text-anchor="middle" x="1222.95" y="-320.68" font-family="Times,serif" font-size="14.00">fb=0</text>
</g>
<!-- No_992883178&#45;&gt;No_996598918 -->
<g id="edge26" class="edge">
<title>No_992883178&#45;&gt;No_996598918</title>
<path fill="none" stroke="black" d="M919.29,-426.1C988.57,-406.54 1086.61,-378.87 1152.36,-360.31"/>
<polygon fill="black" stroke="black" points="1153.55,-363.61 1162.22,-357.53 1151.65,-356.87 1153.55,-363.61"/>
</g>
<!-- No_986979432 -->
<g id="node19" class="node">
<title>No_986979432</title>
<ellipse fill="none" stroke="black" cx="798.95" cy="-228.43" rx="107.46" ry="37.45"/>
<text text-anchor="middle" x="798.95" y="-239.73" font-family="Times,serif" font-size="14.00">Américo Rodrigues</text>
<text text-anchor="middle" x="798.95" y="-224.73" font-family="Times,serif" font-size="14.00">986979432</text>
<text text-anchor="middle" x="798.95" y="-209.73" font-family="Times,serif" font-size="14.00">fb=&#45;1</text>
</g>
<!-- No_987340734&#45;&gt;No_986979432 -->
<g id="edge18" class="edge">
<title>No_987340734&#45;&gt;No_986979432</title>
<path fill="none" stroke="black" d="M824.3,-302.1C821.32,-293.56 818.1,-284.34 814.99,-275.42"/>
<polygon fill="black" stroke="black" points="818.28,-274.21 811.68,-265.92 811.67,-276.52 818.28,-274.21"/>
</g>
<!-- No_987671978 -->
<g id="node24" class="node">
<title>No_987671978</title>
<ellipse fill="none" stroke="black" cx="1014.95" cy="-228.43" rx="90.52" ry="37.45"/>
<text text-anchor="middle" x="1014.95" y="-239.73" font-family="Times,serif" font-size="14.00">Adriana Pereira</text>
<text text-anchor="middle" x="1014.95" y="-224.73" font-family="Times,serif" font-size="14.00">987671978</text>
<text text-anchor="middle" x="1014.95" y="-209.73" font-family="Times,serif" font-size="14.00">fb=0</text>
</g>
<!-- No_987340734&#45;&gt;No_987671978 -->
<g id="edge23" class="edge">
<title>No_987340734&#45;&gt;No_987671978</title>
<path fill="none" stroke="black" d="M887.96,-307.16C909.36,-294.06 934.38,-278.75 956.52,-265.2"/>
<polygon fill="black" stroke="black" points="958.47,-268.11 965.17,-259.9 954.81,-262.14 958.47,-268.11"/>
</g>
<!-- No_985278999 -->
<g id="node20" class="node">
<title>No_985278999</title>
<ellipse fill="none" stroke="black" cx="771.95" cy="-117.48" rx="75.82" ry="37.45"/>
<text text-anchor="middle" x="771.95" y="-128.78" font-family="Times,serif" font-size="14.00">Acir Campos</text>
<text text-anchor="middle" x="771.95" y="-113.78" font-family="Times,serif" font-size="14.00">985278999</text>
<text text-anchor="middle" x="771.95" y="-98.78" font-family="Times,serif" font-size="14.00">fb=0</text>
</g>
<!-- No_986979432&#45;&gt;No_985278999 -->
<g id="edge19" class="edge">
<title>No_986979432&#45;&gt;No_985278999</title>
<path fill="none" stroke="black" d="M789.89,-190.85C787.79,-182.4 785.54,-173.31 783.36,-164.52"/>
<polygon fill="black" stroke="black" points="786.75,-163.64 780.95,-154.78 779.96,-165.33 786.75,-163.64"/>
</g>
<!-- NUL_10 -->
<g id="node23" class="node">
<title>NUL_10</title>
<polygon fill="none" stroke="black" points="909.95,-139.48 865.95,-139.48 865.95,-95.48 909.95,-95.48 909.95,-139.48"/>
<text text-anchor="middle" x="887.95" y="-113.78" font-family="Times,serif" font-size="14.00">null</text>
</g>
<!-- No_986979432&#45;&gt;NUL_10 -->
<g id="edge22" class="edge">
<title>No_986979432&#45;&gt;NUL_10</title>
<path fill="none" stroke="black" d="M827.85,-192.06C839.53,-177.75 852.86,-161.43 863.99,-147.81"/>
<polygon fill="black" stroke="black" points="866.99,-149.67 870.61,-139.71 861.57,-145.24 866.99,-149.67"/>
</g>
<!-- NUL_8 -->
<g id="node21" class="node">
<title>NUL_8</title>
<polygon fill="none" stroke="black" points="762.95,-44 718.95,-44 718.95,0 762.95,0 762.95,-44"/>
<text text-anchor="middle" x="740.95" y="-18.3" font-family="Times,serif" font-size="14.00">null</text>
</g>
<!-- No_985278999&#45;&gt;NUL_8 -->
<g id="edge20" class="edge">
<title>No_985278999&#45;&gt;NUL_8</title>
<path fill="none" stroke="black" d="M759.97,-80.34C757.05,-71.55 753.96,-62.23 751.14,-53.72"/>
<polygon fill="black" stroke="black" points="754.45,-52.57 747.98,-44.18 747.8,-54.77 754.45,-52.57"/>
</g>
<!-- NUL_9 -->
<g id="node22" class="node">
<title>NUL_9</title>
<polygon fill="none" stroke="black" points="824.95,-44 780.95,-44 780.95,0 824.95,0 824.95,-44"/>
<text text-anchor="middle" x="802.95" y="-18.3" font-family="Times,serif" font-size="14.00">null</text>
</g>
<!-- No_985278999&#45;&gt;NUL_9 -->
<g id="edge21" class="edge">
<title>No_985278999&#45;&gt;NUL_9</title>
<path fill="none" stroke="black" d="M783.94,-80.34C786.85,-71.55 789.94,-62.23 792.77,-53.72"/>
<polygon fill="black" stroke="black" points="796.1,-54.77 795.93,-44.18 789.46,-52.57 796.1,-54.77"/>
</g>
<!-- NUL_11 -->
<g id="node25" class="node">
<title>NUL_11</title>
<polygon fill="none" stroke="black" points="1000.95,-139.48 956.95,-139.48 956.95,-95.48 1000.95,-95.48 1000.95,-139.48"/>
<text text-anchor="middle" x="978.95" y="-113.78" font-family="Times,serif" font-size="14.00">null</text>
</g>
<!-- No_987671978&#45;&gt;NUL_11 -->
<g id="edge24" class="edge">
<title>No_987671978&#45;&gt;NUL_11</title>
<path fill="none" stroke="black" d="M1002.97,-191.15C998.51,-177.67 993.5,-162.51 989.22,-149.53"/>
<polygon fill="black" stroke="black" points="992.42,-148.07 985.96,-139.67 985.77,-150.27 992.42,-148.07"/>
</g>
<!-- NUL_12 -->
<g id="node26" class="node">
<title>NUL_12</title>
<polygon fill="none" stroke="black" points="1062.95,-139.48 1018.95,-139.48 1018.95,-95.48 1062.95,-95.48 1062.95,-139.48"/>
<text text-anchor="middle" x="1040.95" y="-113.78" font-family="Times,serif" font-size="14.00">null</text>
</g>
<!-- No_987671978&#45;&gt;NUL_12 -->
<g id="edge25" class="edge">
<title>No_987671978&#45;&gt;NUL_12</title>
<path fill="none" stroke="black" d="M1023.68,-190.85C1026.9,-177.38 1030.5,-162.28 1033.58,-149.37"/>
<polygon fill="black" stroke="black" points="1037.01,-150.09 1035.92,-139.55 1030.2,-148.47 1037.01,-150.09"/>
</g>
<!-- No_994116870 -->
<g id="node28" class="node">
<title>No_994116870</title>
<ellipse fill="none" stroke="black" cx="1222.95" cy="-228.43" rx="98.99" ry="37.45"/>
<text text-anchor="middle" x="1222.95" y="-239.73" font-family="Times,serif" font-size="14.00">Alexandra Moura</text>
<text text-anchor="middle" x="1222.95" y="-224.73" font-family="Times,serif" font-size="14.00">994116870</text>
<text text-anchor="middle" x="1222.95" y="-209.73" font-family="Times,serif" font-size="14.00">fb=0</text>
</g>
<!-- No_996598918&#45;&gt;No_994116870 -->
<g id="edge27" class="edge">
<title>No_996598918&#45;&gt;No_994116870</title>
<path fill="none" stroke="black" d="M1222.95,-301.8C1222.95,-293.63 1222.95,-284.85 1222.95,-276.32"/>
<polygon fill="black" stroke="black" points="1226.45,-276.1 1222.95,-266.1 1219.45,-276.1 1226.45,-276.1"/>
</g>
<!-- No_997285865 -->
<g id="node31" class="node">
<title>No_997285865</title>
<ellipse fill="none" stroke="black" cx="1414.95" cy="-228.43" rx="74.91" ry="37.45"/>
<text text-anchor="middle" x="1414.95" y="-239.73" font-family="Times,serif" font-size="14.00">Almir Torres</text>
<text text-anchor="middle" x="1414.95" y="-224.73" font-family="Times,serif" font-size="14.00">997285865</text>
<text text-anchor="middle" x="1414.95" y="-209.73" font-family="Times,serif" font-size="14.00">fb=0</text>
</g>
<!-- No_996598918&#45;&gt;No_997285865 -->
<g id="edge30" class="edge">
<title>No_996598918&#45;&gt;No_997285865</title>
<path fill="none" stroke="black" d="M1269.92,-311.73C1296.27,-296.78 1329.35,-278.01 1357.26,-262.17"/>
<polygon fill="black" stroke="black" points="1359.16,-265.12 1366.13,-257.14 1355.7,-259.03 1359.16,-265.12"/>
</g>
<!-- NUL_13 -->
<g id="node29" class="node">
<title>NUL_13</title>
<polygon fill="none" stroke="black" points="1213.95,-139.48 1169.95,-139.48 1169.95,-95.48 1213.95,-95.48 1213.95,-139.48"/>
<text text-anchor="middle" x="1191.95" y="-113.78" font-family="Times,serif" font-size="14.00">null</text>
</g>
<!-- No_994116870&#45;&gt;NUL_13 -->
<g id="edge28" class="edge">
<title>No_994116870&#45;&gt;NUL_13</title>
<path fill="none" stroke="black" d="M1212.63,-191.15C1208.79,-177.67 1204.48,-162.51 1200.79,-149.53"/>
<polygon fill="black" stroke="black" points="1204.09,-148.33 1197.98,-139.67 1197.35,-150.25 1204.09,-148.33"/>
</g>
<!-- NUL_14 -->
<g id="node30" class="node">
<title>NUL_14</title>
<polygon fill="none" stroke="black" points="1275.95,-139.48 1231.95,-139.48 1231.95,-95.48 1275.95,-95.48 1275.95,-139.48"/>
<text text-anchor="middle" x="1253.95" y="-113.78" font-family="Times,serif" font-size="14.00">null</text>
</g>
<!-- No_994116870&#45;&gt;NUL_14 -->
<g id="edge29" class="edge">
<title>No_994116870&#45;&gt;NUL_14</title>
<path fill="none" stroke="black" d="M1233.28,-191.15C1237.11,-177.67 1241.43,-162.51 1245.12,-149.53"/>
<polygon fill="black" stroke="black" points="1248.55,-150.25 1247.92,-139.67 1241.82,-148.33 1248.55,-150.25"/>
</g>
<!-- NUL_15 -->
<g id="node32" class="node">
<title>NUL_15</title>
<polygon fill="none" stroke="black" points="1405.95,-139.48 1361.95,-139.48 1361.95,-95.48 1405.95,-95.48 1405.95,-139.48"/>
<text text-anchor="middle" x="1383.95" y="-113.78" font-family="Times,serif" font-size="14.00">null</text>
</g>
<!-- No_997285865&#45;&gt;NUL_15 -->
<g id="edge31" class="edge">
<title>No_997285865&#45;&gt;NUL_15</title>
<path fill="none" stroke="black" d="M1404.63,-191.15C1400.79,-177.67 1396.48,-162.51 1392.79,-149.53"/>
<polygon fill="black" stroke="black" points="1396.09,-148.33 1389.98,-139.67 1389.35,-150.25 1396.09,-148.33"/>
</g>
<!-- NUL_16 -->
<g id="node33" class="node">
<title>NUL_16</title>
<polygon fill="none" stroke="black" points="1467.95,-139.48 1423.95,-139.48 1423.95,-95.48 1467.95,-95.48 1467.95,-139.48"/>
<text text-anchor="middle" x="1445.95" y="-113.78" font-family="Times,serif" font-size="14.00">null</text>
</g>
<!-- No_997285865&#45;&gt;NUL_16 -->
<g id="edge32" class="edge">
<title>No_997285865&#45;&gt;NUL_16</title>
<path fill="none" stroke="black" d="M1425.28,-191.15C1429.11,-177.67 1433.43,-162.51 1437.12,-149.53"/>
<polygon fill="black" stroke="black" points="1440.55,-150.25 1439.92,-139.67 1433.82,-148.33 1440.55,-150.25"/>
</g>
</g>
</svg>
