<?xml version="1.0" encoding="UTF-8" standalone="no"?>
<!DOCTYPE svg PUBLIC "-//W3C//DTD SVG 1.1//EN"
 "http://www.w3.org/Graphics/SVG/1.1/DTD/svg11.dtd">
<!-- Generated by graphviz version 2.43.0 (0)
 -->
<!-- Title: BST Pages: 1 -->
<svg width="384pt" height="385pt"
 viewBox="0.00 0.00 383.95 384.86" xmlns="http://www.w3.org/2000/svg" xmlns:xlink="http://www.w3.org/1999/xlink">
<g id="graph0" class="graph" transform="scale(1 1) rotate(0) translate(4 380.86)">
<title>BST</title>
<polygon fill="white" stroke="transparent" points="-4,4 -4,-380.86 379.95,-380.86 379.95,4 -4,4"/>
<!-- No_985278999 -->
<g id="node1" class="node">
<title>No_985278999</title>
<ellipse fill="none" stroke="black" cx="211" cy="-339.38" rx="75.82" ry="37.45"/>
<text text-anchor="middle" x="211" y="-350.68" font-family="Times,serif" font-size="14.00">Acir Campos</text>
<text text-anchor="middle" x="211" y="-335.68" font-family="Times,serif" font-size="14.00">985278999</text>
<text text-anchor="middle" x="211" y="-320.68" font-family="Times,serif" font-size="14.00">fb=&#45;1</text>
</g>
<!-- No_960933790 -->
<g id="node2" class="node">
<title>No_960933790</title>
<ellipse fill="none" stroke="black" cx="122" cy="-228.43" rx="85.62" ry="37.45"/>
<text text-anchor="middle" x="122" y="-239.73" font-family="Times,serif" font-size="14.00">Andrea Santos</text>
<text text-anchor="middle" x="122" y="-224.73" font-family="Times,serif" font-size="14.00">960933790</text>
<text text-anchor="middle" x="122" y="-209.73" font-family="Times,serif" font-size="14.00">fb=1</text>
</g>
<!-- No_985278999&#45;&gt;No_960933790 -->
<g id="edge1" class="edge">
<title>No_985278999&#45;&gt;No_960933790</title>
<path fill="none" stroke="black" d="M183.08,-304.21C174.72,-293.96 165.43,-282.6 156.69,-271.89"/>
<polygon fill="black" stroke="black" points="159.16,-269.39 150.12,-263.86 153.74,-273.82 159.16,-269.39"/>
</g>
<!-- No_997285865 -->
<g id="node7" class="node">
<title>No_997285865</title>
<ellipse fill="none" stroke="black" cx="301" cy="-228.43" rx="74.91" ry="37.45"/>
<text text-anchor="middle" x="301" y="-239.73" font-family="Times,serif" font-size="14.00">Almir Torres</text>
<text text-anchor="middle" x="301" y="-224.73" font-family="Times,serif" font-size="14.00">997285865</text>
<text text-anchor="middle" x="301" y="-209.73" font-family="Times,serif" font-size="14.00">fb=0</text>
</g>
<!-- No_985278999&#45;&gt;No_997285865 -->
<g id="edge6" class="edge">
<title>No_985278999&#45;&gt;No_997285865</title>
<path fill="none" stroke="black" d="M238.98,-304.51C247.7,-293.95 257.42,-282.18 266.53,-271.16"/>
<polygon fill="black" stroke="black" points="269.36,-273.22 273.03,-263.29 263.97,-268.77 269.36,-273.22"/>
</g>
<!-- NUL_0 -->
<g id="node3" class="node">
<title>NUL_0</title>
<polygon fill="none" stroke="black" points="44,-139.48 0,-139.48 0,-95.48 44,-95.48 44,-139.48"/>
<text text-anchor="middle" x="22" y="-113.78" font-family="Times,serif" font-size="14.00">null</text>
</g>
<!-- No_960933790&#45;&gt;NUL_0 -->
<g id="edge2" class="edge">
<title>No_960933790&#45;&gt;NUL_0</title>
<path fill="none" stroke="black" d="M88.96,-193.51C77.43,-181.48 64.5,-167.74 53,-154.95 50.78,-152.48 48.49,-149.89 46.22,-147.28"/>
<polygon fill="black" stroke="black" points="48.68,-144.78 39.5,-139.48 43.38,-149.35 48.68,-144.78"/>
</g>
<!-- No_965115082 -->
<g id="node4" class="node">
<title>No_965115082</title>
<ellipse fill="none" stroke="black" cx="138" cy="-117.48" rx="75.82" ry="37.45"/>
<text text-anchor="middle" x="138" y="-128.78" font-family="Times,serif" font-size="14.00">Ana Barbosa</text>
<text text-anchor="middle" x="138" y="-113.78" font-family="Times,serif" font-size="14.00">965115082</text>
<text text-anchor="middle" x="138" y="-98.78" font-family="Times,serif" font-size="14.00">fb=0</text>
</g>
<!-- No_960933790&#45;&gt;No_965115082 -->
<g id="edge3" class="edge">
<title>No_960933790&#45;&gt;No_965115082</title>
<path fill="none" stroke="black" d="M127.37,-190.85C128.59,-182.58 129.89,-173.7 131.16,-165.09"/>
<polygon fill="black" stroke="black" points="134.62,-165.55 132.61,-155.15 127.7,-164.53 134.62,-165.55"/>
</g>
<!-- NUL_1 -->
<g id="node5" class="node">
<title>NUL_1</title>
<polygon fill="none" stroke="black" points="129,-44 85,-44 85,0 129,0 129,-44"/>
<text text-anchor="middle" x="107" y="-18.3" font-family="Times,serif" font-size="14.00">null</text>
</g>
<!-- No_965115082&#45;&gt;NUL_1 -->
<g id="edge4" class="edge">
<title>No_965115082&#45;&gt;NUL_1</title>
<path fill="none" stroke="black" d="M126.01,-80.34C123.1,-71.55 120.01,-62.23 117.19,-53.72"/>
<polygon fill="black" stroke="black" points="120.49,-52.57 114.02,-44.18 113.85,-54.77 120.49,-52.57"/>
</g>
<!-- NUL_2 -->
<g id="node6" class="node">
<title>NUL_2</title>
<polygon fill="none" stroke="black" points="191,-44 147,-44 147,0 191,0 191,-44"/>
<text text-anchor="middle" x="169" y="-18.3" font-family="Times,serif" font-size="14.00">null</text>
</g>
<!-- No_965115082&#45;&gt;NUL_2 -->
<g id="edge5" class="edge">
<title>No_965115082&#45;&gt;NUL_2</title>
<path fill="none" stroke="black" d="M149.99,-80.34C152.9,-71.55 155.99,-62.23 158.81,-53.72"/>
<polygon fill="black" stroke="black" points="162.15,-54.77 161.98,-44.18 155.51,-52.57 162.15,-54.77"/>
</g>
<!-- NUL_3 -->
<g id="node8" class="node">
<title>NUL_3</title>
<polygon fill="none" stroke="black" points="307,-139.48 263,-139.48 263,-95.48 307,-95.48 307,-139.48"/>
<text text-anchor="middle" x="285" y="-113.78" font-family="Times,serif" font-size="14.00">null</text>
</g>
<!-- No_997285865&#45;&gt;NUL_3 -->
<g id="edge7" class="edge">
<title>No_997285865&#45;&gt;NUL_3</title>
<path fill="none" stroke="black" d="M295.63,-190.85C293.67,-177.52 291.48,-162.58 289.59,-149.75"/>
<polygon fill="black" stroke="black" points="293.01,-148.94 288.1,-139.55 286.09,-149.96 293.01,-148.94"/>
</g>
<!-- NUL_4 -->
<g id="node9" class="node">
<title>NUL_4</title>
<polygon fill="none" stroke="black" points="369,-139.48 325,-139.48 325,-95.48 369,-95.48 369,-139.48"/>
<text text-anchor="middle" x="347" y="-113.78" font-family="Times,serif" font-size="14.00">null</text>
</g>
<!-- No_997285865&#45;&gt;NUL_4 -->
<g id="edge8" class="edge">
<title>No_997285865&#45;&gt;NUL_4</title>
<path fill="none" stroke="black" d="M316.19,-191.45C321.95,-177.82 328.44,-162.43 333.98,-149.32"/>
<polygon fill="black" stroke="black" points="337.33,-150.37 338,-139.79 330.89,-147.64 337.33,-150.37"/>
</g>
</g>
</svg>
