<?xml version="1.0" encoding="UTF-8" standalone="no"?>
<!DOCTYPE svg PUBLIC "-//W3C//DTD SVG 1.1//EN"
 "http://www.w3.org/Graphics/SVG/1.1/DTD/svg11.dtd">
<!-- Generated by graphviz version 2.43.0 (0)
 -->
<!-- Title: BST Pages: 1 -->
<svg width="501pt" height="385pt"
 viewBox="0.00 0.00 500.51 384.86" xmlns="http://www.w3.org/2000/svg" xmlns:xlink="http://www.w3.org/1999/xlink">
<g id="graph0" class="graph" transform="scale(1 1) rotate(0) translate(4 380.86)">
<title>BST</title>
<polygon fill="white" stroke="transparent" points="-4,4 -4,-380.86 496.51,-380.86 496.51,4 -4,4"/>
<!-- No_985278999 -->
<g id="node1" class="node">
<title>No_985278999</title>
<ellipse fill="none" stroke="black" cx="332.56" cy="-339.38" rx="75.82" ry="37.45"/>
<text text-anchor="middle" x="332.56" y="-350.68" font-family="Times,serif" font-size="14.00">Acir Campos</text>
<text text-anchor="middle" x="332.56" y="-335.68" font-family="Times,serif" font-size="14.00">985278999</text>
<text text-anchor="middle" x="332.56" y="-320.68" font-family="Times,serif" font-size="14.00">fb=&#45;1</text>
</g>
<!-- No_965115082 -->
<g id="node2" class="node">
<title>No_965115082</title>
<ellipse fill="none" stroke="black" cx="248.56" cy="-228.43" rx="75.82" ry="37.45"/>
<text text-anchor="middle" x="248.56" y="-239.73" font-family="Times,serif" font-size="14.00">Ana Barbosa</text>
<text text-anchor="middle" x="248.56" y="-224.73" font-family="Times,serif" font-size="14.00">965115082</text>
<text text-anchor="middle" x="248.56" y="-209.73" font-family="Times,serif" font-size="14.00">fb=0</text>
</g>
<!-- No_985278999&#45;&gt;No_965115082 -->
<g id="edge1" class="edge">
<title>No_985278999&#45;&gt;No_965115082</title>
<path fill="none" stroke="black" d="M306.21,-304.21C298.31,-293.96 289.55,-282.6 281.3,-271.89"/>
<polygon fill="black" stroke="black" points="283.98,-269.64 275.1,-263.86 278.44,-273.91 283.98,-269.64"/>
</g>
<!-- No_997285865 -->
<g id="node9" class="node">
<title>No_997285865</title>
<ellipse fill="none" stroke="black" cx="417.56" cy="-228.43" rx="74.91" ry="37.45"/>
<text text-anchor="middle" x="417.56" y="-239.73" font-family="Times,serif" font-size="14.00">Almir Torres</text>
<text text-anchor="middle" x="417.56" y="-224.73" font-family="Times,serif" font-size="14.00">997285865</text>
<text text-anchor="middle" x="417.56" y="-209.73" font-family="Times,serif" font-size="14.00">fb=0</text>
</g>
<!-- No_985278999&#45;&gt;No_997285865 -->
<g id="edge8" class="edge">
<title>No_985278999&#45;&gt;No_997285865</title>
<path fill="none" stroke="black" d="M359.22,-304.21C367.29,-293.86 376.25,-282.38 384.68,-271.58"/>
<polygon fill="black" stroke="black" points="387.6,-273.52 390.99,-263.48 382.08,-269.21 387.6,-273.52"/>
</g>
<!-- No_960933790 -->
<g id="node3" class="node">
<title>No_960933790</title>
<ellipse fill="none" stroke="black" cx="85.56" cy="-117.48" rx="85.62" ry="37.45"/>
<text text-anchor="middle" x="85.56" y="-128.78" font-family="Times,serif" font-size="14.00">Andrea Santos</text>
<text text-anchor="middle" x="85.56" y="-113.78" font-family="Times,serif" font-size="14.00">960933790</text>
<text text-anchor="middle" x="85.56" y="-98.78" font-family="Times,serif" font-size="14.00">fb=0</text>
</g>
<!-- No_965115082&#45;&gt;No_960933790 -->
<g id="edge2" class="edge">
<title>No_965115082&#45;&gt;No_960933790</title>
<path fill="none" stroke="black" d="M204.45,-197.95C184.56,-184.65 160.88,-168.82 139.91,-154.81"/>
<polygon fill="black" stroke="black" points="141.67,-151.77 131.41,-149.13 137.78,-157.59 141.67,-151.77"/>
</g>
<!-- No_975960513 -->
<g id="node6" class="node">
<title>No_975960513</title>
<ellipse fill="none" stroke="black" cx="262.56" cy="-117.48" rx="73.58" ry="37.45"/>
<text text-anchor="middle" x="262.56" y="-128.78" font-family="Times,serif" font-size="14.00">Altair Souza</text>
<text text-anchor="middle" x="262.56" y="-113.78" font-family="Times,serif" font-size="14.00">975960513</text>
<text text-anchor="middle" x="262.56" y="-98.78" font-family="Times,serif" font-size="14.00">fb=0</text>
</g>
<!-- No_965115082&#45;&gt;No_975960513 -->
<g id="edge5" class="edge">
<title>No_965115082&#45;&gt;No_975960513</title>
<path fill="none" stroke="black" d="M253.26,-190.85C254.32,-182.58 255.46,-173.7 256.57,-165.09"/>
<polygon fill="black" stroke="black" points="260.04,-165.51 257.85,-155.15 253.1,-164.62 260.04,-165.51"/>
</g>
<!-- NUL_0 -->
<g id="node4" class="node">
<title>NUL_0</title>
<polygon fill="none" stroke="black" points="103.56,-44 59.56,-44 59.56,0 103.56,0 103.56,-44"/>
<text text-anchor="middle" x="81.56" y="-18.3" font-family="Times,serif" font-size="14.00">null</text>
</g>
<!-- No_960933790&#45;&gt;NUL_0 -->
<g id="edge3" class="edge">
<title>No_960933790&#45;&gt;NUL_0</title>
<path fill="none" stroke="black" d="M83.99,-79.8C83.63,-71.41 83.25,-62.56 82.9,-54.41"/>
<polygon fill="black" stroke="black" points="86.39,-54.04 82.47,-44.2 79.4,-54.34 86.39,-54.04"/>
</g>
<!-- NUL_1 -->
<g id="node5" class="node">
<title>NUL_1</title>
<polygon fill="none" stroke="black" points="165.56,-44 121.56,-44 121.56,0 165.56,0 165.56,-44"/>
<text text-anchor="middle" x="143.56" y="-18.3" font-family="Times,serif" font-size="14.00">null</text>
</g>
<!-- No_960933790&#45;&gt;NUL_1 -->
<g id="edge4" class="edge">
<title>No_960933790&#45;&gt;NUL_1</title>
<path fill="none" stroke="black" d="M107.49,-81.14C113.31,-71.75 119.54,-61.72 125.15,-52.67"/>
<polygon fill="black" stroke="black" points="128.22,-54.36 130.52,-44.01 122.28,-50.66 128.22,-54.36"/>
</g>
<!-- NUL_2 -->
<g id="node7" class="node">
<title>NUL_2</title>
<polygon fill="none" stroke="black" points="255.56,-44 211.56,-44 211.56,0 255.56,0 255.56,-44"/>
<text text-anchor="middle" x="233.56" y="-18.3" font-family="Times,serif" font-size="14.00">null</text>
</g>
<!-- No_975960513&#45;&gt;NUL_2 -->
<g id="edge6" class="edge">
<title>No_975960513&#45;&gt;NUL_2</title>
<path fill="none" stroke="black" d="M251.35,-80.34C248.65,-71.64 245.79,-62.43 243.18,-54"/>
<polygon fill="black" stroke="black" points="246.44,-52.7 240.13,-44.18 239.75,-54.77 246.44,-52.7"/>
</g>
<!-- NUL_3 -->
<g id="node8" class="node">
<title>NUL_3</title>
<polygon fill="none" stroke="black" points="317.56,-44 273.56,-44 273.56,0 317.56,0 317.56,-44"/>
<text text-anchor="middle" x="295.56" y="-18.3" font-family="Times,serif" font-size="14.00">null</text>
</g>
<!-- No_975960513&#45;&gt;NUL_3 -->
<g id="edge7" class="edge">
<title>No_975960513&#45;&gt;NUL_3</title>
<path fill="none" stroke="black" d="M275.32,-80.34C278.42,-71.55 281.71,-62.23 284.71,-53.72"/>
<polygon fill="black" stroke="black" points="288.05,-54.78 288.08,-44.18 281.45,-52.45 288.05,-54.78"/>
</g>
<!-- NUL_4 -->
<g id="node10" class="node">
<title>NUL_4</title>
<polygon fill="none" stroke="black" points="425.56,-139.48 381.56,-139.48 381.56,-95.48 425.56,-95.48 425.56,-139.48"/>
<text text-anchor="middle" x="403.56" y="-113.78" font-family="Times,serif" font-size="14.00">null</text>
</g>
<!-- No_997285865&#45;&gt;NUL_4 -->
<g id="edge9" class="edge">
<title>No_997285865&#45;&gt;NUL_4</title>
<path fill="none" stroke="black" d="M412.86,-190.85C411.15,-177.52 409.23,-162.58 407.58,-149.75"/>
<polygon fill="black" stroke="black" points="411.01,-149.03 406.27,-139.55 404.07,-149.92 411.01,-149.03"/>
</g>
<!-- NUL_5 -->
<g id="node11" class="node">
<title>NUL_5</title>
<polygon fill="none" stroke="black" points="487.56,-139.48 443.56,-139.48 443.56,-95.48 487.56,-95.48 487.56,-139.48"/>
<text text-anchor="middle" x="465.56" y="-113.78" font-family="Times,serif" font-size="14.00">null</text>
</g>
<!-- No_997285865&#45;&gt;NUL_5 -->
<g id="edge10" class="edge">
<title>No_997285865&#45;&gt;NUL_5</title>
<path fill="none" stroke="black" d="M433.28,-191.75C439.39,-177.87 446.33,-162.13 452.2,-148.81"/>
<polygon fill="black" stroke="black" points="455.43,-150.16 456.26,-139.59 449.02,-147.33 455.43,-150.16"/>
</g>
</g>
</svg>
