<?xml version="1.0" encoding="UTF-8" standalone="no"?>
<!DOCTYPE svg PUBLIC "-//W3C//DTD SVG 1.1//EN"
 "http://www.w3.org/Graphics/SVG/1.1/DTD/svg11.dtd">
<!-- Generated by graphviz version 2.43.0 (0)
 -->
<!-- Title: BST Pages: 1 -->
<svg width="650pt" height="385pt"
 viewBox="0.00 0.00 649.61 384.86" xmlns="http://www.w3.org/2000/svg" xmlns:xlink="http://www.w3.org/1999/xlink">
<g id="graph0" class="graph" transform="scale(1 1) rotate(0) translate(4 380.86)">
<title>BST</title>
<polygon fill="white" stroke="transparent" points="-4,4 -4,-380.86 645.61,-380.86 645.61,4 -4,4"/>
<!-- No_988849962 -->
<g id="node1" class="node">
<title>No_988849962</title>
<ellipse fill="none" stroke="black" cx="371.46" cy="-339.38" rx="81.13" ry="37.45"/>
<text text-anchor="middle" x="371.46" y="-350.68" font-family="Times,serif" font-size="14.00">Márcio Farias</text>
<text text-anchor="middle" x="371.46" y="-335.68" font-family="Times,serif" font-size="14.00">988849962</text>
<text text-anchor="middle" x="371.46" y="-320.68" font-family="Times,serif" font-size="14.00">fb=0</text>
</g>
<!-- No_968336573 -->
<g id="node2" class="node">
<title>No_968336573</title>
<ellipse fill="none" stroke="black" cx="269.46" cy="-228.43" rx="101.23" ry="37.45"/>
<text text-anchor="middle" x="269.46" y="-239.73" font-family="Times,serif" font-size="14.00">Marcela Machado</text>
<text text-anchor="middle" x="269.46" y="-224.73" font-family="Times,serif" font-size="14.00">968336573</text>
<text text-anchor="middle" x="269.46" y="-209.73" font-family="Times,serif" font-size="14.00">fb=0</text>
</g>
<!-- No_988849962&#45;&gt;No_968336573 -->
<g id="edge1" class="edge">
<title>No_988849962&#45;&gt;No_968336573</title>
<path fill="none" stroke="black" d="M340.02,-304.8C330.23,-294.34 319.29,-282.66 309.01,-271.68"/>
<polygon fill="black" stroke="black" points="311.41,-269.12 302.03,-264.22 306.3,-273.91 311.41,-269.12"/>
</g>
<!-- No_991118371 -->
<g id="node9" class="node">
<title>No_991118371</title>
<ellipse fill="none" stroke="black" cx="474.46" cy="-228.43" rx="86.03" ry="37.45"/>
<text text-anchor="middle" x="474.46" y="-239.73" font-family="Times,serif" font-size="14.00">Márcio Freitas</text>
<text text-anchor="middle" x="474.46" y="-224.73" font-family="Times,serif" font-size="14.00">991118371</text>
<text text-anchor="middle" x="474.46" y="-209.73" font-family="Times,serif" font-size="14.00">fb=1</text>
</g>
<!-- No_988849962&#45;&gt;No_991118371 -->
<g id="edge8" class="edge">
<title>No_988849962&#45;&gt;No_991118371</title>
<path fill="none" stroke="black" d="M403.2,-304.8C413.29,-294.14 424.57,-282.21 435.12,-271.04"/>
<polygon fill="black" stroke="black" points="437.96,-273.13 442.29,-263.46 432.87,-268.32 437.96,-273.13"/>
</g>
<!-- No_954558732 -->
<g id="node3" class="node">
<title>No_954558732</title>
<ellipse fill="none" stroke="black" cx="95.46" cy="-117.48" rx="95.42" ry="37.45"/>
<text text-anchor="middle" x="95.46" y="-128.78" font-family="Times,serif" font-size="14.00">Marcela Martins</text>
<text text-anchor="middle" x="95.46" y="-113.78" font-family="Times,serif" font-size="14.00">954558732</text>
<text text-anchor="middle" x="95.46" y="-98.78" font-family="Times,serif" font-size="14.00">fb=0</text>
</g>
<!-- No_968336573&#45;&gt;No_954558732 -->
<g id="edge2" class="edge">
<title>No_968336573&#45;&gt;No_954558732</title>
<path fill="none" stroke="black" d="M219.13,-195.92C198.67,-183.1 174.89,-168.21 153.68,-154.93"/>
<polygon fill="black" stroke="black" points="155.41,-151.88 145.07,-149.54 151.69,-157.82 155.41,-151.88"/>
</g>
<!-- No_975271088 -->
<g id="node6" class="node">
<title>No_975271088</title>
<ellipse fill="none" stroke="black" cx="290.46" cy="-117.48" rx="82.05" ry="37.45"/>
<text text-anchor="middle" x="290.46" y="-128.78" font-family="Times,serif" font-size="14.00">Márcio Torres</text>
<text text-anchor="middle" x="290.46" y="-113.78" font-family="Times,serif" font-size="14.00">975271088</text>
<text text-anchor="middle" x="290.46" y="-98.78" font-family="Times,serif" font-size="14.00">fb=0</text>
</g>
<!-- No_968336573&#45;&gt;No_975271088 -->
<g id="edge5" class="edge">
<title>No_968336573&#45;&gt;No_975271088</title>
<path fill="none" stroke="black" d="M276.51,-190.85C278.1,-182.58 279.82,-173.7 281.48,-165.09"/>
<polygon fill="black" stroke="black" points="284.94,-165.63 283.39,-155.15 278.06,-164.31 284.94,-165.63"/>
</g>
<!-- NUL_0 -->
<g id="node4" class="node">
<title>NUL_0</title>
<polygon fill="none" stroke="black" points="86.46,-44 42.46,-44 42.46,0 86.46,0 86.46,-44"/>
<text text-anchor="middle" x="64.46" y="-18.3" font-family="Times,serif" font-size="14.00">null</text>
</g>
<!-- No_954558732&#45;&gt;NUL_0 -->
<g id="edge3" class="edge">
<title>No_954558732&#45;&gt;NUL_0</title>
<path fill="none" stroke="black" d="M83.39,-80.07C80.48,-71.3 77.4,-62.02 74.59,-53.55"/>
<polygon fill="black" stroke="black" points="77.91,-52.45 71.44,-44.06 71.27,-54.65 77.91,-52.45"/>
</g>
<!-- NUL_1 -->
<g id="node5" class="node">
<title>NUL_1</title>
<polygon fill="none" stroke="black" points="148.46,-44 104.46,-44 104.46,0 148.46,0 148.46,-44"/>
<text text-anchor="middle" x="126.46" y="-18.3" font-family="Times,serif" font-size="14.00">null</text>
</g>
<!-- No_954558732&#45;&gt;NUL_1 -->
<g id="edge4" class="edge">
<title>No_954558732&#45;&gt;NUL_1</title>
<path fill="none" stroke="black" d="M107.53,-80.07C110.44,-71.3 113.52,-62.02 116.33,-53.55"/>
<polygon fill="black" stroke="black" points="119.65,-54.65 119.48,-44.06 113.01,-52.45 119.65,-54.65"/>
</g>
<!-- NUL_2 -->
<g id="node7" class="node">
<title>NUL_2</title>
<polygon fill="none" stroke="black" points="281.46,-44 237.46,-44 237.46,0 281.46,0 281.46,-44"/>
<text text-anchor="middle" x="259.46" y="-18.3" font-family="Times,serif" font-size="14.00">null</text>
</g>
<!-- No_975271088&#45;&gt;NUL_2 -->
<g id="edge6" class="edge">
<title>No_975271088&#45;&gt;NUL_2</title>
<path fill="none" stroke="black" d="M278.47,-80.34C275.56,-71.55 272.47,-62.23 269.65,-53.72"/>
<polygon fill="black" stroke="black" points="272.95,-52.57 266.48,-44.18 266.31,-54.77 272.95,-52.57"/>
</g>
<!-- NUL_3 -->
<g id="node8" class="node">
<title>NUL_3</title>
<polygon fill="none" stroke="black" points="343.46,-44 299.46,-44 299.46,0 343.46,0 343.46,-44"/>
<text text-anchor="middle" x="321.46" y="-18.3" font-family="Times,serif" font-size="14.00">null</text>
</g>
<!-- No_975271088&#45;&gt;NUL_3 -->
<g id="edge7" class="edge">
<title>No_975271088&#45;&gt;NUL_3</title>
<path fill="none" stroke="black" d="M302.44,-80.34C305.36,-71.55 308.45,-62.23 311.27,-53.72"/>
<polygon fill="black" stroke="black" points="314.61,-54.77 314.44,-44.18 307.97,-52.57 314.61,-54.77"/>
</g>
<!-- NUL_4 -->
<g id="node10" class="node">
<title>NUL_4</title>
<polygon fill="none" stroke="black" points="455.46,-139.48 411.46,-139.48 411.46,-95.48 455.46,-95.48 455.46,-139.48"/>
<text text-anchor="middle" x="433.46" y="-113.78" font-family="Times,serif" font-size="14.00">null</text>
</g>
<!-- No_991118371&#45;&gt;NUL_4 -->
<g id="edge9" class="edge">
<title>No_991118371&#45;&gt;NUL_4</title>
<path fill="none" stroke="black" d="M460.81,-191.15C455.68,-177.54 449.92,-162.21 445,-149.15"/>
<polygon fill="black" stroke="black" points="448.23,-147.8 441.44,-139.67 441.68,-150.27 448.23,-147.8"/>
</g>
<!-- No_998930304 -->
<g id="node11" class="node">
<title>No_998930304</title>
<ellipse fill="none" stroke="black" cx="557.46" cy="-117.48" rx="84.29" ry="37.45"/>
<text text-anchor="middle" x="557.46" y="-128.78" font-family="Times,serif" font-size="14.00">Marcel Coelho</text>
<text text-anchor="middle" x="557.46" y="-113.78" font-family="Times,serif" font-size="14.00">998930304</text>
<text text-anchor="middle" x="557.46" y="-98.78" font-family="Times,serif" font-size="14.00">fb=0</text>
</g>
<!-- No_991118371&#45;&gt;No_998930304 -->
<g id="edge10" class="edge">
<title>No_991118371&#45;&gt;No_998930304</title>
<path fill="none" stroke="black" d="M500.95,-192.66C508.51,-182.73 516.84,-171.8 524.73,-161.44"/>
<polygon fill="black" stroke="black" points="527.66,-163.37 530.94,-153.29 522.09,-159.13 527.66,-163.37"/>
</g>
<!-- NUL_5 -->
<g id="node12" class="node">
<title>NUL_5</title>
<polygon fill="none" stroke="black" points="548.46,-44 504.46,-44 504.46,0 548.46,0 548.46,-44"/>
<text text-anchor="middle" x="526.46" y="-18.3" font-family="Times,serif" font-size="14.00">null</text>
</g>
<!-- No_998930304&#45;&gt;NUL_5 -->
<g id="edge11" class="edge">
<title>No_998930304&#45;&gt;NUL_5</title>
<path fill="none" stroke="black" d="M545.47,-80.34C542.56,-71.55 539.47,-62.23 536.65,-53.72"/>
<polygon fill="black" stroke="black" points="539.95,-52.57 533.48,-44.18 533.31,-54.77 539.95,-52.57"/>
</g>
<!-- NUL_6 -->
<g id="node13" class="node">
<title>NUL_6</title>
<polygon fill="none" stroke="black" points="610.46,-44 566.46,-44 566.46,0 610.46,0 610.46,-44"/>
<text text-anchor="middle" x="588.46" y="-18.3" font-family="Times,serif" font-size="14.00">null</text>
</g>
<!-- No_998930304&#45;&gt;NUL_6 -->
<g id="edge12" class="edge">
<title>No_998930304&#45;&gt;NUL_6</title>
<path fill="none" stroke="black" d="M569.44,-80.34C572.36,-71.55 575.45,-62.23 578.27,-53.72"/>
<polygon fill="black" stroke="black" points="581.61,-54.77 581.44,-44.18 574.97,-52.57 581.61,-54.77"/>
</g>
</g>
</svg>
