<?xml version="1.0" encoding="UTF-8" standalone="no"?>
<!DOCTYPE svg PUBLIC "-//W3C//DTD SVG 1.1//EN"
 "http://www.w3.org/Graphics/SVG/1.1/DTD/svg11.dtd">
<!-- Generated by graphviz version 2.43.0 (0)
 -->
<!-- Title: BST Pages: 1 -->
<svg width="1345pt" height="496pt"
 viewBox="0.00 0.00 1344.95 495.81" xmlns="http://www.w3.org/2000/svg" xmlns:xlink="http://www.w3.org/1999/xlink">
<g id="graph0" class="graph" transform="scale(1 1) rotate(0) translate(4 491.81)">
<title>BST</title>
<polygon fill="white" stroke="transparent" points="-4,4 -4,-491.81 1340.95,-491.81 1340.95,4 -4,4"/>
<!-- No_982632579 -->
<g id="node1" class="node">
<title>No_982632579</title>
<ellipse fill="none" stroke="black" cx="549" cy="-450.34" rx="69.09" ry="37.45"/>
<text text-anchor="middle" x="549" y="-461.64" font-family="Times,serif" font-size="14.00">Abel Costa</text>
<text text-anchor="middle" x="549" y="-446.64" font-family="Times,serif" font-size="14.00">982632579</text>
<text text-anchor="middle" x="549" y="-431.64" font-family="Times,serif" font-size="14.00">fb=1</text>
</g>
<!-- No_964642705 -->
<g id="node2" class="node">
<title>No_964642705</title>
<ellipse fill="none" stroke="black" cx="441" cy="-339.38" rx="78.48" ry="37.45"/>
<text text-anchor="middle" x="441" y="-350.68" font-family="Times,serif" font-size="14.00">Alícia Freitas</text>
<text text-anchor="middle" x="441" y="-335.68" font-family="Times,serif" font-size="14.00">964642705</text>
<text text-anchor="middle" x="441" y="-320.68" font-family="Times,serif" font-size="14.00">fb=0</text>
</g>
<!-- No_982632579&#45;&gt;No_964642705 -->
<g id="edge1" class="edge">
<title>No_982632579&#45;&gt;No_964642705</title>
<path fill="none" stroke="black" d="M516.89,-416.94C505.66,-405.62 492.92,-392.76 481.12,-380.86"/>
<polygon fill="black" stroke="black" points="483.45,-378.23 473.92,-373.6 478.48,-383.16 483.45,-378.23"/>
</g>
<!-- No_987671978 -->
<g id="node15" class="node">
<title>No_987671978</title>
<ellipse fill="none" stroke="black" cx="714" cy="-339.38" rx="90.52" ry="37.45"/>
<text text-anchor="middle" x="714" y="-350.68" font-family="Times,serif" font-size="14.00">Adriana Pereira</text>
<text text-anchor="middle" x="714" y="-335.68" font-family="Times,serif" font-size="14.00">987671978</text>
<text text-anchor="middle" x="714" y="-320.68" font-family="Times,serif" font-size="14.00">fb=0</text>
</g>
<!-- No_982632579&#45;&gt;No_987671978 -->
<g id="edge14" class="edge">
<title>No_982632579&#45;&gt;No_987671978</title>
<path fill="none" stroke="black" d="M592.35,-420.71C612.58,-407.35 636.9,-391.29 658.46,-377.06"/>
<polygon fill="black" stroke="black" points="660.47,-379.93 666.88,-371.5 656.61,-374.09 660.47,-379.93"/>
</g>
<!-- No_955838599 -->
<g id="node3" class="node">
<title>No_955838599</title>
<ellipse fill="none" stroke="black" cx="148" cy="-228.43" rx="74.91" ry="37.45"/>
<text text-anchor="middle" x="148" y="-239.73" font-family="Times,serif" font-size="14.00">Aline Santos</text>
<text text-anchor="middle" x="148" y="-224.73" font-family="Times,serif" font-size="14.00">955838599</text>
<text text-anchor="middle" x="148" y="-209.73" font-family="Times,serif" font-size="14.00">fb=0</text>
</g>
<!-- No_964642705&#45;&gt;No_955838599 -->
<g id="edge2" class="edge">
<title>No_964642705&#45;&gt;No_955838599</title>
<path fill="none" stroke="black" d="M379.93,-315.68C332.45,-298.02 266.56,-273.52 217.14,-255.14"/>
<polygon fill="black" stroke="black" points="218.08,-251.75 207.48,-251.55 215.64,-258.32 218.08,-251.75"/>
</g>
<!-- No_967387182 -->
<g id="node8" class="node">
<title>No_967387182</title>
<ellipse fill="none" stroke="black" cx="441" cy="-228.43" rx="91.43" ry="37.45"/>
<text text-anchor="middle" x="441" y="-239.73" font-family="Times,serif" font-size="14.00">Alfredo Martins</text>
<text text-anchor="middle" x="441" y="-224.73" font-family="Times,serif" font-size="14.00">967387182</text>
<text text-anchor="middle" x="441" y="-209.73" font-family="Times,serif" font-size="14.00">fb=0</text>
</g>
<!-- No_964642705&#45;&gt;No_967387182 -->
<g id="edge7" class="edge">
<title>No_964642705&#45;&gt;No_967387182</title>
<path fill="none" stroke="black" d="M441,-301.8C441,-293.63 441,-284.85 441,-276.32"/>
<polygon fill="black" stroke="black" points="444.5,-276.1 441,-266.1 437.5,-276.1 444.5,-276.1"/>
</g>
<!-- NUL_0 -->
<g id="node4" class="node">
<title>NUL_0</title>
<polygon fill="none" stroke="black" points="44,-139.48 0,-139.48 0,-95.48 44,-95.48 44,-139.48"/>
<text text-anchor="middle" x="22" y="-113.78" font-family="Times,serif" font-size="14.00">null</text>
</g>
<!-- No_955838599&#45;&gt;NUL_0 -->
<g id="edge3" class="edge">
<title>No_955838599&#45;&gt;NUL_0</title>
<path fill="none" stroke="black" d="M104.81,-197.53C87.98,-185.11 68.95,-170.09 53,-154.95 50.53,-152.61 48.05,-150.08 45.64,-147.48"/>
<polygon fill="black" stroke="black" points="47.91,-144.77 38.64,-139.62 42.68,-149.42 47.91,-144.77"/>
</g>
<!-- No_960933790 -->
<g id="node5" class="node">
<title>No_960933790</title>
<ellipse fill="none" stroke="black" cx="148" cy="-117.48" rx="85.62" ry="37.45"/>
<text text-anchor="middle" x="148" y="-128.78" font-family="Times,serif" font-size="14.00">Andrea Santos</text>
<text text-anchor="middle" x="148" y="-113.78" font-family="Times,serif" font-size="14.00">960933790</text>
<text text-anchor="middle" x="148" y="-98.78" font-family="Times,serif" font-size="14.00">fb=0</text>
</g>
<!-- No_955838599&#45;&gt;No_960933790 -->
<g id="edge4" class="edge">
<title>No_955838599&#45;&gt;No_960933790</title>
<path fill="none" stroke="black" d="M148,-190.85C148,-182.67 148,-173.89 148,-165.37"/>
<polygon fill="black" stroke="black" points="151.5,-165.15 148,-155.15 144.5,-165.15 151.5,-165.15"/>
</g>
<!-- NUL_1 -->
<g id="node6" class="node">
<title>NUL_1</title>
<polygon fill="none" stroke="black" points="139,-44 95,-44 95,0 139,0 139,-44"/>
<text text-anchor="middle" x="117" y="-18.3" font-family="Times,serif" font-size="14.00">null</text>
</g>
<!-- No_960933790&#45;&gt;NUL_1 -->
<g id="edge5" class="edge">
<title>No_960933790&#45;&gt;NUL_1</title>
<path fill="none" stroke="black" d="M136.01,-80.34C133.1,-71.55 130.01,-62.23 127.19,-53.72"/>
<polygon fill="black" stroke="black" points="130.49,-52.57 124.02,-44.18 123.85,-54.77 130.49,-52.57"/>
</g>
<!-- NUL_2 -->
<g id="node7" class="node">
<title>NUL_2</title>
<polygon fill="none" stroke="black" points="201,-44 157,-44 157,0 201,0 201,-44"/>
<text text-anchor="middle" x="179" y="-18.3" font-family="Times,serif" font-size="14.00">null</text>
</g>
<!-- No_960933790&#45;&gt;NUL_2 -->
<g id="edge6" class="edge">
<title>No_960933790&#45;&gt;NUL_2</title>
<path fill="none" stroke="black" d="M159.99,-80.34C162.9,-71.55 165.99,-62.23 168.81,-53.72"/>
<polygon fill="black" stroke="black" points="172.15,-54.77 171.98,-44.18 165.51,-52.57 172.15,-54.77"/>
</g>
<!-- No_965115082 -->
<g id="node9" class="node">
<title>No_965115082</title>
<ellipse fill="none" stroke="black" cx="327" cy="-117.48" rx="75.82" ry="37.45"/>
<text text-anchor="middle" x="327" y="-128.78" font-family="Times,serif" font-size="14.00">Ana Barbosa</text>
<text text-anchor="middle" x="327" y="-113.78" font-family="Times,serif" font-size="14.00">965115082</text>
<text text-anchor="middle" x="327" y="-98.78" font-family="Times,serif" font-size="14.00">fb=0</text>
</g>
<!-- No_967387182&#45;&gt;No_965115082 -->
<g id="edge8" class="edge">
<title>No_967387182&#45;&gt;No_965115082</title>
<path fill="none" stroke="black" d="M405.55,-193.55C393.86,-182.38 380.75,-169.85 368.64,-158.28"/>
<polygon fill="black" stroke="black" points="370.9,-155.59 361.25,-151.21 366.06,-160.65 370.9,-155.59"/>
</g>
<!-- No_975960513 -->
<g id="node12" class="node">
<title>No_975960513</title>
<ellipse fill="none" stroke="black" cx="494" cy="-117.48" rx="73.58" ry="37.45"/>
<text text-anchor="middle" x="494" y="-128.78" font-family="Times,serif" font-size="14.00">Altair Souza</text>
<text text-anchor="middle" x="494" y="-113.78" font-family="Times,serif" font-size="14.00">975960513</text>
<text text-anchor="middle" x="494" y="-98.78" font-family="Times,serif" font-size="14.00">fb=0</text>
</g>
<!-- No_967387182&#45;&gt;No_975960513 -->
<g id="edge11" class="edge">
<title>No_967387182&#45;&gt;No_975960513</title>
<path fill="none" stroke="black" d="M458.5,-191.45C462.89,-182.43 467.65,-172.65 472.22,-163.26"/>
<polygon fill="black" stroke="black" points="475.47,-164.57 476.7,-154.04 469.18,-161.51 475.47,-164.57"/>
</g>
<!-- NUL_3 -->
<g id="node10" class="node">
<title>NUL_3</title>
<polygon fill="none" stroke="black" points="330,-44 286,-44 286,0 330,0 330,-44"/>
<text text-anchor="middle" x="308" y="-18.3" font-family="Times,serif" font-size="14.00">null</text>
</g>
<!-- No_965115082&#45;&gt;NUL_3 -->
<g id="edge9" class="edge">
<title>No_965115082&#45;&gt;NUL_3</title>
<path fill="none" stroke="black" d="M319.6,-80.07C317.86,-71.49 316.01,-62.42 314.32,-54.1"/>
<polygon fill="black" stroke="black" points="317.7,-53.16 312.28,-44.06 310.84,-54.55 317.7,-53.16"/>
</g>
<!-- NUL_4 -->
<g id="node11" class="node">
<title>NUL_4</title>
<polygon fill="none" stroke="black" points="392,-44 348,-44 348,0 392,0 392,-44"/>
<text text-anchor="middle" x="370" y="-18.3" font-family="Times,serif" font-size="14.00">null</text>
</g>
<!-- No_965115082&#45;&gt;NUL_4 -->
<g id="edge10" class="edge">
<title>No_965115082&#45;&gt;NUL_4</title>
<path fill="none" stroke="black" d="M343.38,-80.87C347.56,-71.78 352.02,-62.09 356.07,-53.29"/>
<polygon fill="black" stroke="black" points="359.27,-54.71 360.27,-44.16 352.91,-51.78 359.27,-54.71"/>
</g>
<!-- NUL_5 -->
<g id="node13" class="node">
<title>NUL_5</title>
<polygon fill="none" stroke="black" points="472,-44 428,-44 428,0 472,0 472,-44"/>
<text text-anchor="middle" x="450" y="-18.3" font-family="Times,serif" font-size="14.00">null</text>
</g>
<!-- No_975960513&#45;&gt;NUL_5 -->
<g id="edge12" class="edge">
<title>No_975960513&#45;&gt;NUL_5</title>
<path fill="none" stroke="black" d="M477.24,-80.87C472.96,-71.78 468.4,-62.09 464.26,-53.29"/>
<polygon fill="black" stroke="black" points="467.39,-51.72 459.96,-44.16 461.05,-54.7 467.39,-51.72"/>
</g>
<!-- NUL_6 -->
<g id="node14" class="node">
<title>NUL_6</title>
<polygon fill="none" stroke="black" points="534,-44 490,-44 490,0 534,0 534,-44"/>
<text text-anchor="middle" x="512" y="-18.3" font-family="Times,serif" font-size="14.00">null</text>
</g>
<!-- No_975960513&#45;&gt;NUL_6 -->
<g id="edge13" class="edge">
<title>No_975960513&#45;&gt;NUL_6</title>
<path fill="none" stroke="black" d="M501.01,-80.07C502.66,-71.49 504.41,-62.42 506.01,-54.1"/>
<polygon fill="black" stroke="black" points="509.49,-54.54 507.95,-44.06 502.62,-53.21 509.49,-54.54"/>
</g>
<!-- No_986979432 -->
<g id="node16" class="node">
<title>No_986979432</title>
<ellipse fill="none" stroke="black" cx="714" cy="-228.43" rx="107.46" ry="37.45"/>
<text text-anchor="middle" x="714" y="-239.73" font-family="Times,serif" font-size="14.00">Américo Rodrigues</text>
<text text-anchor="middle" x="714" y="-224.73" font-family="Times,serif" font-size="14.00">986979432</text>
<text text-anchor="middle" x="714" y="-209.73" font-family="Times,serif" font-size="14.00">fb=&#45;1</text>
</g>
<!-- No_987671978&#45;&gt;No_986979432 -->
<g id="edge15" class="edge">
<title>No_987671978&#45;&gt;No_986979432</title>
<path fill="none" stroke="black" d="M714,-301.8C714,-293.63 714,-284.85 714,-276.32"/>
<polygon fill="black" stroke="black" points="717.5,-276.1 714,-266.1 710.5,-276.1 717.5,-276.1"/>
</g>
<!-- No_996598918 -->
<g id="node23" class="node">
<title>No_996598918</title>
<ellipse fill="none" stroke="black" cx="1070" cy="-228.43" rx="69.09" ry="37.45"/>
<text text-anchor="middle" x="1070" y="-239.73" font-family="Times,serif" font-size="14.00">Ana Farias</text>
<text text-anchor="middle" x="1070" y="-224.73" font-family="Times,serif" font-size="14.00">996598918</text>
<text text-anchor="middle" x="1070" y="-209.73" font-family="Times,serif" font-size="14.00">fb=0</text>
</g>
<!-- No_987671978&#45;&gt;No_996598918 -->
<g id="edge22" class="edge">
<title>No_987671978&#45;&gt;No_996598918</title>
<path fill="none" stroke="black" d="M786.04,-316.33C848.72,-297.15 938.96,-269.54 1000.79,-250.61"/>
<polygon fill="black" stroke="black" points="1001.92,-253.93 1010.46,-247.65 999.87,-247.23 1001.92,-253.93"/>
</g>
<!-- No_985278999 -->
<g id="node17" class="node">
<title>No_985278999</title>
<ellipse fill="none" stroke="black" cx="661" cy="-117.48" rx="75.82" ry="37.45"/>
<text text-anchor="middle" x="661" y="-128.78" font-family="Times,serif" font-size="14.00">Acir Campos</text>
<text text-anchor="middle" x="661" y="-113.78" font-family="Times,serif" font-size="14.00">985278999</text>
<text text-anchor="middle" x="661" y="-98.78" font-family="Times,serif" font-size="14.00">fb=0</text>
</g>
<!-- No_986979432&#45;&gt;No_985278999 -->
<g id="edge16" class="edge">
<title>No_986979432&#45;&gt;No_985278999</title>
<path fill="none" stroke="black" d="M696.5,-191.45C692.11,-182.43 687.35,-172.65 682.78,-163.26"/>
<polygon fill="black" stroke="black" points="685.82,-161.51 678.3,-154.04 679.53,-164.57 685.82,-161.51"/>
</g>
<!-- No_987340734 -->
<g id="node20" class="node">
<title>No_987340734</title>
<ellipse fill="none" stroke="black" cx="854" cy="-117.48" rx="98.99" ry="37.45"/>
<text text-anchor="middle" x="854" y="-128.78" font-family="Times,serif" font-size="14.00">Antônia Machado</text>
<text text-anchor="middle" x="854" y="-113.78" font-family="Times,serif" font-size="14.00">987340734</text>
<text text-anchor="middle" x="854" y="-98.78" font-family="Times,serif" font-size="14.00">fb=0</text>
</g>
<!-- No_986979432&#45;&gt;No_987340734 -->
<g id="edge19" class="edge">
<title>No_986979432&#45;&gt;No_987340734</title>
<path fill="none" stroke="black" d="M757.15,-193.85C771.79,-182.46 788.28,-169.62 803.45,-157.82"/>
<polygon fill="black" stroke="black" points="805.97,-160.29 811.72,-151.38 801.68,-154.76 805.97,-160.29"/>
</g>
<!-- NUL_7 -->
<g id="node18" class="node">
<title>NUL_7</title>
<polygon fill="none" stroke="black" points="652,-44 608,-44 608,0 652,0 652,-44"/>
<text text-anchor="middle" x="630" y="-18.3" font-family="Times,serif" font-size="14.00">null</text>
</g>
<!-- No_985278999&#45;&gt;NUL_7 -->
<g id="edge17" class="edge">
<title>No_985278999&#45;&gt;NUL_7</title>
<path fill="none" stroke="black" d="M649.01,-80.34C646.1,-71.55 643.01,-62.23 640.19,-53.72"/>
<polygon fill="black" stroke="black" points="643.49,-52.57 637.02,-44.18 636.85,-54.77 643.49,-52.57"/>
</g>
<!-- NUL_8 -->
<g id="node19" class="node">
<title>NUL_8</title>
<polygon fill="none" stroke="black" points="714,-44 670,-44 670,0 714,0 714,-44"/>
<text text-anchor="middle" x="692" y="-18.3" font-family="Times,serif" font-size="14.00">null</text>
</g>
<!-- No_985278999&#45;&gt;NUL_8 -->
<g id="edge18" class="edge">
<title>No_985278999&#45;&gt;NUL_8</title>
<path fill="none" stroke="black" d="M672.99,-80.34C675.9,-71.55 678.99,-62.23 681.81,-53.72"/>
<polygon fill="black" stroke="black" points="685.15,-54.77 684.98,-44.18 678.51,-52.57 685.15,-54.77"/>
</g>
<!-- NUL_9 -->
<g id="node21" class="node">
<title>NUL_9</title>
<polygon fill="none" stroke="black" points="845,-44 801,-44 801,0 845,0 845,-44"/>
<text text-anchor="middle" x="823" y="-18.3" font-family="Times,serif" font-size="14.00">null</text>
</g>
<!-- No_987340734&#45;&gt;NUL_9 -->
<g id="edge20" class="edge">
<title>No_987340734&#45;&gt;NUL_9</title>
<path fill="none" stroke="black" d="M841.93,-80.07C839.02,-71.3 835.94,-62.02 833.13,-53.55"/>
<polygon fill="black" stroke="black" points="836.45,-52.45 829.98,-44.06 829.81,-54.65 836.45,-52.45"/>
</g>
<!-- NUL_10 -->
<g id="node22" class="node">
<title>NUL_10</title>
<polygon fill="none" stroke="black" points="907,-44 863,-44 863,0 907,0 907,-44"/>
<text text-anchor="middle" x="885" y="-18.3" font-family="Times,serif" font-size="14.00">null</text>
</g>
<!-- No_987340734&#45;&gt;NUL_10 -->
<g id="edge21" class="edge">
<title>No_987340734&#45;&gt;NUL_10</title>
<path fill="none" stroke="black" d="M866.07,-80.07C868.98,-71.3 872.06,-62.02 874.87,-53.55"/>
<polygon fill="black" stroke="black" points="878.19,-54.65 878.02,-44.06 871.55,-52.45 878.19,-54.65"/>
</g>
<!-- No_994116870 -->
<g id="node24" class="node">
<title>No_994116870</title>
<ellipse fill="none" stroke="black" cx="1070" cy="-117.48" rx="98.99" ry="37.45"/>
<text text-anchor="middle" x="1070" y="-128.78" font-family="Times,serif" font-size="14.00">Alexandra Moura</text>
<text text-anchor="middle" x="1070" y="-113.78" font-family="Times,serif" font-size="14.00">994116870</text>
<text text-anchor="middle" x="1070" y="-98.78" font-family="Times,serif" font-size="14.00">fb=0</text>
</g>
<!-- No_996598918&#45;&gt;No_994116870 -->
<g id="edge23" class="edge">
<title>No_996598918&#45;&gt;No_994116870</title>
<path fill="none" stroke="black" d="M1070,-190.85C1070,-182.67 1070,-173.89 1070,-165.37"/>
<polygon fill="black" stroke="black" points="1073.5,-165.15 1070,-155.15 1066.5,-165.15 1073.5,-165.15"/>
</g>
<!-- No_997285865 -->
<g id="node27" class="node">
<title>No_997285865</title>
<ellipse fill="none" stroke="black" cx="1262" cy="-117.48" rx="74.91" ry="37.45"/>
<text text-anchor="middle" x="1262" y="-128.78" font-family="Times,serif" font-size="14.00">Almir Torres</text>
<text text-anchor="middle" x="1262" y="-113.78" font-family="Times,serif" font-size="14.00">997285865</text>
<text text-anchor="middle" x="1262" y="-98.78" font-family="Times,serif" font-size="14.00">fb=0</text>
</g>
<!-- No_996598918&#45;&gt;No_997285865 -->
<g id="edge26" class="edge">
<title>No_996598918&#45;&gt;No_997285865</title>
<path fill="none" stroke="black" d="M1116.97,-200.78C1143.31,-185.83 1176.4,-167.05 1204.31,-151.21"/>
<polygon fill="black" stroke="black" points="1206.21,-154.16 1213.17,-146.18 1202.75,-148.07 1206.21,-154.16"/>
</g>
<!-- NUL_11 -->
<g id="node25" class="node">
<title>NUL_11</title>
<polygon fill="none" stroke="black" points="1061,-44 1017,-44 1017,0 1061,0 1061,-44"/>
<text text-anchor="middle" x="1039" y="-18.3" font-family="Times,serif" font-size="14.00">null</text>
</g>
<!-- No_994116870&#45;&gt;NUL_11 -->
<g id="edge24" class="edge">
<title>No_994116870&#45;&gt;NUL_11</title>
<path fill="none" stroke="black" d="M1057.93,-80.07C1055.02,-71.3 1051.94,-62.02 1049.13,-53.55"/>
<polygon fill="black" stroke="black" points="1052.45,-52.45 1045.98,-44.06 1045.81,-54.65 1052.45,-52.45"/>
</g>
<!-- NUL_12 -->
<g id="node26" class="node">
<title>NUL_12</title>
<polygon fill="none" stroke="black" points="1123,-44 1079,-44 1079,0 1123,0 1123,-44"/>
<text text-anchor="middle" x="1101" y="-18.3" font-family="Times,serif" font-size="14.00">null</text>
</g>
<!-- No_994116870&#45;&gt;NUL_12 -->
<g id="edge25" class="edge">
<title>No_994116870&#45;&gt;NUL_12</title>
<path fill="none" stroke="black" d="M1082.07,-80.07C1084.98,-71.3 1088.06,-62.02 1090.87,-53.55"/>
<polygon fill="black" stroke="black" points="1094.19,-54.65 1094.02,-44.06 1087.55,-52.45 1094.19,-54.65"/>
</g>
<!-- NUL_13 -->
<g id="node28" class="node">
<title>NUL_13</title>
<polygon fill="none" stroke="black" points="1253,-44 1209,-44 1209,0 1253,0 1253,-44"/>
<text text-anchor="middle" x="1231" y="-18.3" font-family="Times,serif" font-size="14.00">null</text>
</g>
<!-- No_997285865&#45;&gt;NUL_13 -->
<g id="edge27" class="edge">
<title>No_997285865&#45;&gt;NUL_13</title>
<path fill="none" stroke="black" d="M1250.01,-80.34C1247.1,-71.55 1244.01,-62.23 1241.19,-53.72"/>
<polygon fill="black" stroke="black" points="1244.49,-52.57 1238.02,-44.18 1237.85,-54.77 1244.49,-52.57"/>
</g>
<!-- NUL_14 -->
<g id="node29" class="node">
<title>NUL_14</title>
<polygon fill="none" stroke="black" points="1315,-44 1271,-44 1271,0 1315,0 1315,-44"/>
<text text-anchor="middle" x="1293" y="-18.3" font-family="Times,serif" font-size="14.00">null</text>
</g>
<!-- No_997285865&#45;&gt;NUL_14 -->
<g id="edge28" class="edge">
<title>No_997285865&#45;&gt;NUL_14</title>
<path fill="none" stroke="black" d="M1273.99,-80.34C1276.9,-71.55 1279.99,-62.23 1282.81,-53.72"/>
<polygon fill="black" stroke="black" points="1286.15,-54.77 1285.98,-44.18 1279.51,-52.57 1286.15,-54.77"/>
</g>
</g>
</svg>
