<?xml version="1.0" encoding="UTF-8" standalone="no"?>
<!DOCTYPE svg PUBLIC "-//W3C//DTD SVG 1.1//EN"
 "http://www.w3.org/Graphics/SVG/1.1/DTD/svg11.dtd">
<!-- Generated by graphviz version 2.43.0 (0)
 -->
<!-- Title: BST Pages: 1 -->
<svg width="640pt" height="607pt"
 viewBox="0.00 0.00 639.51 606.77" xmlns="http://www.w3.org/2000/svg" xmlns:xlink="http://www.w3.org/1999/xlink">
<g id="graph0" class="graph" transform="scale(1 1) rotate(0) translate(4 602.77)">
<title>BST</title>
<polygon fill="white" stroke="transparent" points="-4,4 -4,-602.77 635.51,-602.77 635.51,4 -4,4"/>
<!-- No_986979432 -->
<g id="node1" class="node">
<title>No_986979432</title>
<ellipse fill="none" stroke="black" cx="291.56" cy="-561.29" rx="107.46" ry="37.45"/>
<text text-anchor="middle" x="291.56" y="-572.59" font-family="Times,serif" font-size="14.00">Américo Rodrigues</text>
<text text-anchor="middle" x="291.56" y="-557.59" font-family="Times,serif" font-size="14.00">986979432</text>
<text text-anchor="middle" x="291.56" y="-542.59" font-family="Times,serif" font-size="14.00">fb=0</text>
</g>
<!-- No_985278999 -->
<g id="node2" class="node">
<title>No_985278999</title>
<ellipse fill="none" stroke="black" cx="195.56" cy="-450.34" rx="75.82" ry="37.45"/>
<text text-anchor="middle" x="195.56" y="-461.64" font-family="Times,serif" font-size="14.00">Acir Campos</text>
<text text-anchor="middle" x="195.56" y="-446.64" font-family="Times,serif" font-size="14.00">985278999</text>
<text text-anchor="middle" x="195.56" y="-431.64" font-family="Times,serif" font-size="14.00">fb=&#45;1</text>
</g>
<!-- No_986979432&#45;&gt;No_985278999 -->
<g id="edge1" class="edge">
<title>No_986979432&#45;&gt;No_985278999</title>
<path fill="none" stroke="black" d="M260.66,-525.22C251.48,-514.8 241.35,-503.3 231.87,-492.54"/>
<polygon fill="black" stroke="black" points="234.33,-490.05 225.1,-484.86 229.08,-494.68 234.33,-490.05"/>
</g>
<!-- No_994116870 -->
<g id="node11" class="node">
<title>No_994116870</title>
<ellipse fill="none" stroke="black" cx="388.56" cy="-450.34" rx="98.99" ry="37.45"/>
<text text-anchor="middle" x="388.56" y="-461.64" font-family="Times,serif" font-size="14.00">Alexandra Moura</text>
<text text-anchor="middle" x="388.56" y="-446.64" font-family="Times,serif" font-size="14.00">994116870</text>
<text text-anchor="middle" x="388.56" y="-431.64" font-family="Times,serif" font-size="14.00">fb=0</text>
</g>
<!-- No_986979432&#45;&gt;No_994116870 -->
<g id="edge10" class="edge">
<title>No_986979432&#45;&gt;No_994116870</title>
<path fill="none" stroke="black" d="M322.79,-525.22C331.79,-515.1 341.7,-503.97 351.05,-493.47"/>
<polygon fill="black" stroke="black" points="353.69,-495.77 357.72,-485.97 348.46,-491.11 353.69,-495.77"/>
</g>
<!-- No_960933790 -->
<g id="node3" class="node">
<title>No_960933790</title>
<ellipse fill="none" stroke="black" cx="85.56" cy="-339.38" rx="85.62" ry="37.45"/>
<text text-anchor="middle" x="85.56" y="-350.68" font-family="Times,serif" font-size="14.00">Andrea Santos</text>
<text text-anchor="middle" x="85.56" y="-335.68" font-family="Times,serif" font-size="14.00">960933790</text>
<text text-anchor="middle" x="85.56" y="-320.68" font-family="Times,serif" font-size="14.00">fb=0</text>
</g>
<!-- No_985278999&#45;&gt;No_960933790 -->
<g id="edge2" class="edge">
<title>No_985278999&#45;&gt;No_960933790</title>
<path fill="none" stroke="black" d="M162.26,-416.35C151.05,-405.25 138.41,-392.73 126.68,-381.11"/>
<polygon fill="black" stroke="black" points="129.08,-378.56 119.51,-374.01 124.15,-383.53 129.08,-378.56"/>
</g>
<!-- NUL_4 -->
<g id="node10" class="node">
<title>NUL_4</title>
<polygon fill="none" stroke="black" points="233.56,-361.38 189.56,-361.38 189.56,-317.38 233.56,-317.38 233.56,-361.38"/>
<text text-anchor="middle" x="211.56" y="-335.68" font-family="Times,serif" font-size="14.00">null</text>
</g>
<!-- No_985278999&#45;&gt;NUL_4 -->
<g id="edge9" class="edge">
<title>No_985278999&#45;&gt;NUL_4</title>
<path fill="none" stroke="black" d="M200.93,-412.75C202.89,-399.42 205.08,-384.49 206.97,-371.66"/>
<polygon fill="black" stroke="black" points="210.47,-371.86 208.46,-361.46 203.55,-370.85 210.47,-371.86"/>
</g>
<!-- NUL_0 -->
<g id="node4" class="node">
<title>NUL_0</title>
<polygon fill="none" stroke="black" points="50.56,-250.43 6.56,-250.43 6.56,-206.43 50.56,-206.43 50.56,-250.43"/>
<text text-anchor="middle" x="28.56" y="-224.73" font-family="Times,serif" font-size="14.00">null</text>
</g>
<!-- No_960933790&#45;&gt;NUL_0 -->
<g id="edge3" class="edge">
<title>No_960933790&#45;&gt;NUL_0</title>
<path fill="none" stroke="black" d="M66.9,-302.71C59.63,-288.82 51.4,-273.08 44.43,-259.76"/>
<polygon fill="black" stroke="black" points="47.34,-257.78 39.61,-250.55 41.14,-261.03 47.34,-257.78"/>
</g>
<!-- No_975960513 -->
<g id="node5" class="node">
<title>No_975960513</title>
<ellipse fill="none" stroke="black" cx="142.56" cy="-228.43" rx="73.58" ry="37.45"/>
<text text-anchor="middle" x="142.56" y="-239.73" font-family="Times,serif" font-size="14.00">Altair Souza</text>
<text text-anchor="middle" x="142.56" y="-224.73" font-family="Times,serif" font-size="14.00">975960513</text>
<text text-anchor="middle" x="142.56" y="-209.73" font-family="Times,serif" font-size="14.00">fb=&#45;1</text>
</g>
<!-- No_960933790&#45;&gt;No_975960513 -->
<g id="edge4" class="edge">
<title>No_960933790&#45;&gt;No_975960513</title>
<path fill="none" stroke="black" d="M104.22,-302.71C109.05,-293.49 114.3,-283.45 119.32,-273.85"/>
<polygon fill="black" stroke="black" points="122.51,-275.3 124.05,-264.81 116.31,-272.05 122.51,-275.3"/>
</g>
<!-- No_965115082 -->
<g id="node6" class="node">
<title>No_965115082</title>
<ellipse fill="none" stroke="black" cx="84.56" cy="-117.48" rx="75.82" ry="37.45"/>
<text text-anchor="middle" x="84.56" y="-128.78" font-family="Times,serif" font-size="14.00">Ana Barbosa</text>
<text text-anchor="middle" x="84.56" y="-113.78" font-family="Times,serif" font-size="14.00">965115082</text>
<text text-anchor="middle" x="84.56" y="-98.78" font-family="Times,serif" font-size="14.00">fb=0</text>
</g>
<!-- No_975960513&#45;&gt;No_965115082 -->
<g id="edge5" class="edge">
<title>No_975960513&#45;&gt;No_965115082</title>
<path fill="none" stroke="black" d="M123.73,-192.06C118.82,-182.83 113.46,-172.76 108.32,-163.12"/>
<polygon fill="black" stroke="black" points="111.28,-161.23 103.49,-154.05 105.1,-164.52 111.28,-161.23"/>
</g>
<!-- NUL_3 -->
<g id="node9" class="node">
<title>NUL_3</title>
<polygon fill="none" stroke="black" points="222.56,-139.48 178.56,-139.48 178.56,-95.48 222.56,-95.48 222.56,-139.48"/>
<text text-anchor="middle" x="200.56" y="-113.78" font-family="Times,serif" font-size="14.00">null</text>
</g>
<!-- No_975960513&#45;&gt;NUL_3 -->
<g id="edge8" class="edge">
<title>No_975960513&#45;&gt;NUL_3</title>
<path fill="none" stroke="black" d="M161.39,-192.06C168.86,-178.02 177.36,-162.05 184.53,-148.58"/>
<polygon fill="black" stroke="black" points="187.65,-150.18 189.26,-139.71 181.47,-146.89 187.65,-150.18"/>
</g>
<!-- NUL_1 -->
<g id="node7" class="node">
<title>NUL_1</title>
<polygon fill="none" stroke="black" points="75.56,-44 31.56,-44 31.56,0 75.56,0 75.56,-44"/>
<text text-anchor="middle" x="53.56" y="-18.3" font-family="Times,serif" font-size="14.00">null</text>
</g>
<!-- No_965115082&#45;&gt;NUL_1 -->
<g id="edge6" class="edge">
<title>No_965115082&#45;&gt;NUL_1</title>
<path fill="none" stroke="black" d="M72.57,-80.34C69.66,-71.55 66.57,-62.23 63.75,-53.72"/>
<polygon fill="black" stroke="black" points="67.05,-52.57 60.58,-44.18 60.41,-54.77 67.05,-52.57"/>
</g>
<!-- NUL_2 -->
<g id="node8" class="node">
<title>NUL_2</title>
<polygon fill="none" stroke="black" points="137.56,-44 93.56,-44 93.56,0 137.56,0 137.56,-44"/>
<text text-anchor="middle" x="115.56" y="-18.3" font-family="Times,serif" font-size="14.00">null</text>
</g>
<!-- No_965115082&#45;&gt;NUL_2 -->
<g id="edge7" class="edge">
<title>No_965115082&#45;&gt;NUL_2</title>
<path fill="none" stroke="black" d="M96.55,-80.34C99.46,-71.55 102.55,-62.23 105.37,-53.72"/>
<polygon fill="black" stroke="black" points="108.71,-54.77 108.54,-44.18 102.07,-52.57 108.71,-54.77"/>
</g>
<!-- No_987671978 -->
<g id="node12" class="node">
<title>No_987671978</title>
<ellipse fill="none" stroke="black" cx="373.56" cy="-339.38" rx="90.52" ry="37.45"/>
<text text-anchor="middle" x="373.56" y="-350.68" font-family="Times,serif" font-size="14.00">Adriana Pereira</text>
<text text-anchor="middle" x="373.56" y="-335.68" font-family="Times,serif" font-size="14.00">987671978</text>
<text text-anchor="middle" x="373.56" y="-320.68" font-family="Times,serif" font-size="14.00">fb=0</text>
</g>
<!-- No_994116870&#45;&gt;No_987671978 -->
<g id="edge11" class="edge">
<title>No_994116870&#45;&gt;No_987671978</title>
<path fill="none" stroke="black" d="M383.52,-412.75C382.39,-404.49 381.16,-395.61 379.98,-386.99"/>
<polygon fill="black" stroke="black" points="383.44,-386.48 378.61,-377.06 376.51,-387.44 383.44,-386.48"/>
</g>
<!-- No_997285865 -->
<g id="node15" class="node">
<title>No_997285865</title>
<ellipse fill="none" stroke="black" cx="556.56" cy="-339.38" rx="74.91" ry="37.45"/>
<text text-anchor="middle" x="556.56" y="-350.68" font-family="Times,serif" font-size="14.00">Almir Torres</text>
<text text-anchor="middle" x="556.56" y="-335.68" font-family="Times,serif" font-size="14.00">997285865</text>
<text text-anchor="middle" x="556.56" y="-320.68" font-family="Times,serif" font-size="14.00">fb=0</text>
</g>
<!-- No_994116870&#45;&gt;No_997285865 -->
<g id="edge14" class="edge">
<title>No_994116870&#45;&gt;No_997285865</title>
<path fill="none" stroke="black" d="M437.6,-417.53C458.2,-404.17 482.22,-388.6 503.25,-374.95"/>
<polygon fill="black" stroke="black" points="505.28,-377.81 511.76,-369.44 501.47,-371.94 505.28,-377.81"/>
</g>
<!-- NUL_5 -->
<g id="node13" class="node">
<title>NUL_5</title>
<polygon fill="none" stroke="black" points="379.56,-250.43 335.56,-250.43 335.56,-206.43 379.56,-206.43 379.56,-250.43"/>
<text text-anchor="middle" x="357.56" y="-224.73" font-family="Times,serif" font-size="14.00">null</text>
</g>
<!-- No_987671978&#45;&gt;NUL_5 -->
<g id="edge12" class="edge">
<title>No_987671978&#45;&gt;NUL_5</title>
<path fill="none" stroke="black" d="M368.19,-301.8C366.23,-288.47 364.04,-273.53 362.15,-260.7"/>
<polygon fill="black" stroke="black" points="365.57,-259.89 360.66,-250.51 358.65,-260.91 365.57,-259.89"/>
</g>
<!-- NUL_6 -->
<g id="node14" class="node">
<title>NUL_6</title>
<polygon fill="none" stroke="black" points="441.56,-250.43 397.56,-250.43 397.56,-206.43 441.56,-206.43 441.56,-250.43"/>
<text text-anchor="middle" x="419.56" y="-224.73" font-family="Times,serif" font-size="14.00">null</text>
</g>
<!-- No_987671978&#45;&gt;NUL_6 -->
<g id="edge13" class="edge">
<title>No_987671978&#45;&gt;NUL_6</title>
<path fill="none" stroke="black" d="M388.75,-302.41C394.51,-288.77 401,-273.39 406.54,-260.27"/>
<polygon fill="black" stroke="black" points="409.89,-261.32 410.56,-250.75 403.45,-258.6 409.89,-261.32"/>
</g>
<!-- NUL_7 -->
<g id="node16" class="node">
<title>NUL_7</title>
<polygon fill="none" stroke="black" points="532.56,-250.43 488.56,-250.43 488.56,-206.43 532.56,-206.43 532.56,-250.43"/>
<text text-anchor="middle" x="510.56" y="-224.73" font-family="Times,serif" font-size="14.00">null</text>
</g>
<!-- No_997285865&#45;&gt;NUL_7 -->
<g id="edge15" class="edge">
<title>No_997285865&#45;&gt;NUL_7</title>
<path fill="none" stroke="black" d="M541.37,-302.41C535.61,-288.77 529.12,-273.39 523.58,-260.27"/>
<polygon fill="black" stroke="black" points="526.67,-258.6 519.56,-250.75 520.22,-261.32 526.67,-258.6"/>
</g>
<!-- NUL_8 -->
<g id="node17" class="node">
<title>NUL_8</title>
<polygon fill="none" stroke="black" points="594.56,-250.43 550.56,-250.43 550.56,-206.43 594.56,-206.43 594.56,-250.43"/>
<text text-anchor="middle" x="572.56" y="-224.73" font-family="Times,serif" font-size="14.00">null</text>
</g>
<!-- No_997285865&#45;&gt;NUL_8 -->
<g id="edge16" class="edge">
<title>No_997285865&#45;&gt;NUL_8</title>
<path fill="none" stroke="black" d="M561.93,-301.8C563.89,-288.47 566.08,-273.53 567.97,-260.7"/>
<polygon fill="black" stroke="black" points="571.47,-260.91 569.46,-250.51 564.55,-259.89 571.47,-260.91"/>
</g>
</g>
</svg>
