<?xml version="1.0" encoding="UTF-8" standalone="no"?>
<!DOCTYPE svg PUBLIC "-//W3C//DTD SVG 1.1//EN"
 "http://www.w3.org/Graphics/SVG/1.1/DTD/svg11.dtd">
<!-- Generated by graphviz version 2.43.0 (0)
 -->
<!-- Title: BST Pages: 1 -->
<svg width="571pt" height="496pt"
 viewBox="0.00 0.00 570.91 495.81" xmlns="http://www.w3.org/2000/svg" xmlns:xlink="http://www.w3.org/1999/xlink">
<g id="graph0" class="graph" transform="scale(1 1) rotate(0) translate(4 491.81)">
<title>BST</title>
<polygon fill="white" stroke="transparent" points="-4,4 -4,-491.81 566.91,-491.81 566.91,4 -4,4"/>
<!-- No_975960513 -->
<g id="node1" class="node">
<title>No_975960513</title>
<ellipse fill="none" stroke="black" cx="314.95" cy="-450.34" rx="73.58" ry="37.45"/>
<text text-anchor="middle" x="314.95" y="-461.64" font-family="Times,serif" font-size="14.00">Altair Souza</text>
<text text-anchor="middle" x="314.95" y="-446.64" font-family="Times,serif" font-size="14.00">975960513</text>
<text text-anchor="middle" x="314.95" y="-431.64" font-family="Times,serif" font-size="14.00">fb=0</text>
</g>
<!-- No_965115082 -->
<g id="node2" class="node">
<title>No_965115082</title>
<ellipse fill="none" stroke="black" cx="230.95" cy="-339.38" rx="75.82" ry="37.45"/>
<text text-anchor="middle" x="230.95" y="-350.68" font-family="Times,serif" font-size="14.00">Ana Barbosa</text>
<text text-anchor="middle" x="230.95" y="-335.68" font-family="Times,serif" font-size="14.00">965115082</text>
<text text-anchor="middle" x="230.95" y="-320.68" font-family="Times,serif" font-size="14.00">fb=&#45;1</text>
</g>
<!-- No_975960513&#45;&gt;No_965115082 -->
<g id="edge1" class="edge">
<title>No_975960513&#45;&gt;No_965115082</title>
<path fill="none" stroke="black" d="M288.61,-415.16C280.71,-404.92 271.95,-393.56 263.69,-382.84"/>
<polygon fill="black" stroke="black" points="266.37,-380.59 257.5,-374.81 260.83,-384.87 266.37,-380.59"/>
</g>
<!-- No_985278999 -->
<g id="node9" class="node">
<title>No_985278999</title>
<ellipse fill="none" stroke="black" cx="399.95" cy="-339.38" rx="75.82" ry="37.45"/>
<text text-anchor="middle" x="399.95" y="-350.68" font-family="Times,serif" font-size="14.00">Acir Campos</text>
<text text-anchor="middle" x="399.95" y="-335.68" font-family="Times,serif" font-size="14.00">985278999</text>
<text text-anchor="middle" x="399.95" y="-320.68" font-family="Times,serif" font-size="14.00">fb=1</text>
</g>
<!-- No_975960513&#45;&gt;No_985278999 -->
<g id="edge8" class="edge">
<title>No_975960513&#45;&gt;No_985278999</title>
<path fill="none" stroke="black" d="M341.61,-415.16C349.61,-404.92 358.47,-393.56 366.83,-382.84"/>
<polygon fill="black" stroke="black" points="369.7,-384.85 373.09,-374.81 364.18,-380.54 369.7,-384.85"/>
</g>
<!-- No_960933790 -->
<g id="node3" class="node">
<title>No_960933790</title>
<ellipse fill="none" stroke="black" cx="131.95" cy="-228.43" rx="85.62" ry="37.45"/>
<text text-anchor="middle" x="131.95" y="-239.73" font-family="Times,serif" font-size="14.00">Andrea Santos</text>
<text text-anchor="middle" x="131.95" y="-224.73" font-family="Times,serif" font-size="14.00">960933790</text>
<text text-anchor="middle" x="131.95" y="-209.73" font-family="Times,serif" font-size="14.00">fb=&#45;1</text>
</g>
<!-- No_965115082&#45;&gt;No_960933790 -->
<g id="edge2" class="edge">
<title>No_965115082&#45;&gt;No_960933790</title>
<path fill="none" stroke="black" d="M200.44,-304.8C190.75,-294.14 179.91,-282.21 169.77,-271.04"/>
<polygon fill="black" stroke="black" points="172.19,-268.51 162.88,-263.46 167.01,-273.22 172.19,-268.51"/>
</g>
<!-- NUL_3 -->
<g id="node8" class="node">
<title>NUL_3</title>
<polygon fill="none" stroke="black" points="279.95,-250.43 235.95,-250.43 235.95,-206.43 279.95,-206.43 279.95,-250.43"/>
<text text-anchor="middle" x="257.95" y="-224.73" font-family="Times,serif" font-size="14.00">null</text>
</g>
<!-- No_965115082&#45;&gt;NUL_3 -->
<g id="edge7" class="edge">
<title>No_965115082&#45;&gt;NUL_3</title>
<path fill="none" stroke="black" d="M239.94,-302.1C243.28,-288.62 247.04,-273.46 250.26,-260.49"/>
<polygon fill="black" stroke="black" points="253.69,-261.18 252.7,-250.63 246.9,-259.49 253.69,-261.18"/>
</g>
<!-- No_955838599 -->
<g id="node4" class="node">
<title>No_955838599</title>
<ellipse fill="none" stroke="black" cx="74.95" cy="-117.48" rx="74.91" ry="37.45"/>
<text text-anchor="middle" x="74.95" y="-128.78" font-family="Times,serif" font-size="14.00">Aline Santos</text>
<text text-anchor="middle" x="74.95" y="-113.78" font-family="Times,serif" font-size="14.00">955838599</text>
<text text-anchor="middle" x="74.95" y="-98.78" font-family="Times,serif" font-size="14.00">fb=0</text>
</g>
<!-- No_960933790&#45;&gt;No_955838599 -->
<g id="edge3" class="edge">
<title>No_960933790&#45;&gt;No_955838599</title>
<path fill="none" stroke="black" d="M113.29,-191.75C108.47,-182.54 103.22,-172.5 98.19,-162.9"/>
<polygon fill="black" stroke="black" points="101.2,-161.1 93.46,-153.86 95,-164.34 101.2,-161.1"/>
</g>
<!-- NUL_2 -->
<g id="node7" class="node">
<title>NUL_2</title>
<polygon fill="none" stroke="black" points="211.95,-139.48 167.95,-139.48 167.95,-95.48 211.95,-95.48 211.95,-139.48"/>
<text text-anchor="middle" x="189.95" y="-113.78" font-family="Times,serif" font-size="14.00">null</text>
</g>
<!-- No_960933790&#45;&gt;NUL_2 -->
<g id="edge6" class="edge">
<title>No_960933790&#45;&gt;NUL_2</title>
<path fill="none" stroke="black" d="M150.94,-191.75C158.34,-177.87 166.71,-162.13 173.81,-148.81"/>
<polygon fill="black" stroke="black" points="177.1,-150.06 178.71,-139.59 170.92,-146.78 177.1,-150.06"/>
</g>
<!-- NUL_0 -->
<g id="node5" class="node">
<title>NUL_0</title>
<polygon fill="none" stroke="black" points="65.95,-44 21.95,-44 21.95,0 65.95,0 65.95,-44"/>
<text text-anchor="middle" x="43.95" y="-18.3" font-family="Times,serif" font-size="14.00">null</text>
</g>
<!-- No_955838599&#45;&gt;NUL_0 -->
<g id="edge4" class="edge">
<title>No_955838599&#45;&gt;NUL_0</title>
<path fill="none" stroke="black" d="M62.97,-80.34C60.05,-71.55 56.96,-62.23 54.14,-53.72"/>
<polygon fill="black" stroke="black" points="57.45,-52.57 50.98,-44.18 50.8,-54.77 57.45,-52.57"/>
</g>
<!-- NUL_1 -->
<g id="node6" class="node">
<title>NUL_1</title>
<polygon fill="none" stroke="black" points="127.95,-44 83.95,-44 83.95,0 127.95,0 127.95,-44"/>
<text text-anchor="middle" x="105.95" y="-18.3" font-family="Times,serif" font-size="14.00">null</text>
</g>
<!-- No_955838599&#45;&gt;NUL_1 -->
<g id="edge5" class="edge">
<title>No_955838599&#45;&gt;NUL_1</title>
<path fill="none" stroke="black" d="M86.94,-80.34C89.85,-71.55 92.94,-62.23 95.77,-53.72"/>
<polygon fill="black" stroke="black" points="99.1,-54.77 98.93,-44.18 92.46,-52.57 99.1,-54.77"/>
</g>
<!-- NUL_4 -->
<g id="node10" class="node">
<title>NUL_4</title>
<polygon fill="none" stroke="black" points="394.95,-250.43 350.95,-250.43 350.95,-206.43 394.95,-206.43 394.95,-250.43"/>
<text text-anchor="middle" x="372.95" y="-224.73" font-family="Times,serif" font-size="14.00">null</text>
</g>
<!-- No_985278999&#45;&gt;NUL_4 -->
<g id="edge9" class="edge">
<title>No_985278999&#45;&gt;NUL_4</title>
<path fill="none" stroke="black" d="M390.96,-302.1C387.62,-288.62 383.86,-273.46 380.65,-260.49"/>
<polygon fill="black" stroke="black" points="384.01,-259.49 378.21,-250.63 377.21,-261.18 384.01,-259.49"/>
</g>
<!-- No_997285865 -->
<g id="node11" class="node">
<title>No_997285865</title>
<ellipse fill="none" stroke="black" cx="487.95" cy="-228.43" rx="74.91" ry="37.45"/>
<text text-anchor="middle" x="487.95" y="-239.73" font-family="Times,serif" font-size="14.00">Almir Torres</text>
<text text-anchor="middle" x="487.95" y="-224.73" font-family="Times,serif" font-size="14.00">997285865</text>
<text text-anchor="middle" x="487.95" y="-209.73" font-family="Times,serif" font-size="14.00">fb=0</text>
</g>
<!-- No_985278999&#45;&gt;No_997285865 -->
<g id="edge10" class="edge">
<title>No_985278999&#45;&gt;No_997285865</title>
<path fill="none" stroke="black" d="M427.56,-304.21C435.91,-293.86 445.19,-282.38 453.91,-271.58"/>
<polygon fill="black" stroke="black" points="456.89,-273.46 460.45,-263.48 451.44,-269.06 456.89,-273.46"/>
</g>
<!-- NUL_5 -->
<g id="node12" class="node">
<title>NUL_5</title>
<polygon fill="none" stroke="black" points="478.95,-139.48 434.95,-139.48 434.95,-95.48 478.95,-95.48 478.95,-139.48"/>
<text text-anchor="middle" x="456.95" y="-113.78" font-family="Times,serif" font-size="14.00">null</text>
</g>
<!-- No_997285865&#45;&gt;NUL_5 -->
<g id="edge11" class="edge">
<title>No_997285865&#45;&gt;NUL_5</title>
<path fill="none" stroke="black" d="M477.63,-191.15C473.79,-177.67 469.48,-162.51 465.79,-149.53"/>
<polygon fill="black" stroke="black" points="469.09,-148.33 462.98,-139.67 462.35,-150.25 469.09,-148.33"/>
</g>
<!-- NUL_6 -->
<g id="node13" class="node">
<title>NUL_6</title>
<polygon fill="none" stroke="black" points="540.95,-139.48 496.95,-139.48 496.95,-95.48 540.95,-95.48 540.95,-139.48"/>
<text text-anchor="middle" x="518.95" y="-113.78" font-family="Times,serif" font-size="14.00">null</text>
</g>
<!-- No_997285865&#45;&gt;NUL_6 -->
<g id="edge12" class="edge">
<title>No_997285865&#45;&gt;NUL_6</title>
<path fill="none" stroke="black" d="M498.28,-191.15C502.11,-177.67 506.43,-162.51 510.12,-149.53"/>
<polygon fill="black" stroke="black" points="513.55,-150.25 512.92,-139.67 506.82,-148.33 513.55,-150.25"/>
</g>
</g>
</svg>
