<?xml version="1.0" encoding="UTF-8" standalone="no"?>
<!DOCTYPE svg PUBLIC "-//W3C//DTD SVG 1.1//EN"
 "http://www.w3.org/Graphics/SVG/1.1/DTD/svg11.dtd">
<!-- Generated by graphviz version 2.43.0 (0)
 -->
<!-- Title: BST Pages: 1 -->
<svg width="734pt" height="496pt"
 viewBox="0.00 0.00 734.05 495.81" xmlns="http://www.w3.org/2000/svg" xmlns:xlink="http://www.w3.org/1999/xlink">
<g id="graph0" class="graph" transform="scale(1 1) rotate(0) translate(4 491.81)">
<title>BST</title>
<polygon fill="white" stroke="transparent" points="-4,4 -4,-491.81 730.05,-491.81 730.05,4 -4,4"/>
<!-- No_968336573 -->
<g id="node1" class="node">
<title>No_968336573</title>
<ellipse fill="none" stroke="black" cx="369.73" cy="-450.34" rx="101.23" ry="37.45"/>
<text text-anchor="middle" x="369.73" y="-461.64" font-family="Times,serif" font-size="14.00">Marcela Machado</text>
<text text-anchor="middle" x="369.73" y="-446.64" font-family="Times,serif" font-size="14.00">968336573</text>
<text text-anchor="middle" x="369.73" y="-431.64" font-family="Times,serif" font-size="14.00">fb=1</text>
</g>
<!-- No_958585943 -->
<g id="node2" class="node">
<title>No_958585943</title>
<ellipse fill="none" stroke="black" cx="274.73" cy="-339.38" rx="86.03" ry="37.45"/>
<text text-anchor="middle" x="274.73" y="-350.68" font-family="Times,serif" font-size="14.00">Marcela Souza</text>
<text text-anchor="middle" x="274.73" y="-335.68" font-family="Times,serif" font-size="14.00">958585943</text>
<text text-anchor="middle" x="274.73" y="-320.68" font-family="Times,serif" font-size="14.00">fb=0</text>
</g>
<!-- No_968336573&#45;&gt;No_958585943 -->
<g id="edge1" class="edge">
<title>No_968336573&#45;&gt;No_958585943</title>
<path fill="none" stroke="black" d="M339.41,-414.56C330.5,-404.34 320.65,-393.05 311.39,-382.42"/>
<polygon fill="black" stroke="black" points="313.97,-380.06 304.76,-374.83 308.7,-384.66 313.97,-380.06"/>
</g>
<!-- No_986571570 -->
<g id="node9" class="node">
<title>No_986571570</title>
<ellipse fill="none" stroke="black" cx="464.73" cy="-339.38" rx="84.29" ry="37.45"/>
<text text-anchor="middle" x="464.73" y="-350.68" font-family="Times,serif" font-size="14.00">M치rcio Barros</text>
<text text-anchor="middle" x="464.73" y="-335.68" font-family="Times,serif" font-size="14.00">986571570</text>
<text text-anchor="middle" x="464.73" y="-320.68" font-family="Times,serif" font-size="14.00">fb=&#45;1</text>
</g>
<!-- No_968336573&#45;&gt;No_986571570 -->
<g id="edge8" class="edge">
<title>No_968336573&#45;&gt;No_986571570</title>
<path fill="none" stroke="black" d="M400.05,-414.56C409.05,-404.24 419.01,-392.83 428.35,-382.11"/>
<polygon fill="black" stroke="black" points="431.09,-384.29 435.02,-374.45 425.81,-379.69 431.09,-384.29"/>
</g>
<!-- No_956811157 -->
<g id="node3" class="node">
<title>No_956811157</title>
<ellipse fill="none" stroke="black" cx="82.73" cy="-228.43" rx="82.96" ry="37.45"/>
<text text-anchor="middle" x="82.73" y="-239.73" font-family="Times,serif" font-size="14.00">M치rcio Moura</text>
<text text-anchor="middle" x="82.73" y="-224.73" font-family="Times,serif" font-size="14.00">956811157</text>
<text text-anchor="middle" x="82.73" y="-209.73" font-family="Times,serif" font-size="14.00">fb=0</text>
</g>
<!-- No_958585943&#45;&gt;No_956811157 -->
<g id="edge2" class="edge">
<title>No_958585943&#45;&gt;No_956811157</title>
<path fill="none" stroke="black" d="M223.28,-309.19C198.34,-295.03 168.24,-277.96 142.31,-263.24"/>
<polygon fill="black" stroke="black" points="143.75,-260.03 133.33,-258.14 140.3,-266.12 143.75,-260.03"/>
</g>
<!-- No_964103284 -->
<g id="node6" class="node">
<title>No_964103284</title>
<ellipse fill="none" stroke="black" cx="274.73" cy="-228.43" rx="91.43" ry="37.45"/>
<text text-anchor="middle" x="274.73" y="-239.73" font-family="Times,serif" font-size="14.00">Mariana Santos</text>
<text text-anchor="middle" x="274.73" y="-224.73" font-family="Times,serif" font-size="14.00">964103284</text>
<text text-anchor="middle" x="274.73" y="-209.73" font-family="Times,serif" font-size="14.00">fb=0</text>
</g>
<!-- No_958585943&#45;&gt;No_964103284 -->
<g id="edge5" class="edge">
<title>No_958585943&#45;&gt;No_964103284</title>
<path fill="none" stroke="black" d="M274.73,-301.8C274.73,-293.63 274.73,-284.85 274.73,-276.32"/>
<polygon fill="black" stroke="black" points="278.23,-276.1 274.73,-266.1 271.23,-276.1 278.23,-276.1"/>
</g>
<!-- NUL_0 -->
<g id="node4" class="node">
<title>NUL_0</title>
<polygon fill="none" stroke="black" points="73.73,-139.48 29.73,-139.48 29.73,-95.48 73.73,-95.48 73.73,-139.48"/>
<text text-anchor="middle" x="51.73" y="-113.78" font-family="Times,serif" font-size="14.00">null</text>
</g>
<!-- No_956811157&#45;&gt;NUL_0 -->
<g id="edge3" class="edge">
<title>No_956811157&#45;&gt;NUL_0</title>
<path fill="none" stroke="black" d="M72.41,-191.15C68.57,-177.67 64.26,-162.51 60.57,-149.53"/>
<polygon fill="black" stroke="black" points="63.87,-148.33 57.76,-139.67 57.13,-150.25 63.87,-148.33"/>
</g>
<!-- NUL_1 -->
<g id="node5" class="node">
<title>NUL_1</title>
<polygon fill="none" stroke="black" points="135.73,-139.48 91.73,-139.48 91.73,-95.48 135.73,-95.48 135.73,-139.48"/>
<text text-anchor="middle" x="113.73" y="-113.78" font-family="Times,serif" font-size="14.00">null</text>
</g>
<!-- No_956811157&#45;&gt;NUL_1 -->
<g id="edge4" class="edge">
<title>No_956811157&#45;&gt;NUL_1</title>
<path fill="none" stroke="black" d="M93.05,-191.15C96.89,-177.67 101.2,-162.51 104.89,-149.53"/>
<polygon fill="black" stroke="black" points="108.33,-150.25 107.7,-139.67 101.6,-148.33 108.33,-150.25"/>
</g>
<!-- NUL_2 -->
<g id="node7" class="node">
<title>NUL_2</title>
<polygon fill="none" stroke="black" points="238.73,-139.48 194.73,-139.48 194.73,-95.48 238.73,-95.48 238.73,-139.48"/>
<text text-anchor="middle" x="216.73" y="-113.78" font-family="Times,serif" font-size="14.00">null</text>
</g>
<!-- No_964103284&#45;&gt;NUL_2 -->
<g id="edge6" class="edge">
<title>No_964103284&#45;&gt;NUL_2</title>
<path fill="none" stroke="black" d="M255.74,-191.75C248.35,-177.87 239.97,-162.13 232.88,-148.81"/>
<polygon fill="black" stroke="black" points="235.76,-146.78 227.97,-139.59 229.58,-150.06 235.76,-146.78"/>
</g>
<!-- NUL_3 -->
<g id="node8" class="node">
<title>NUL_3</title>
<polygon fill="none" stroke="black" points="300.73,-139.48 256.73,-139.48 256.73,-95.48 300.73,-95.48 300.73,-139.48"/>
<text text-anchor="middle" x="278.73" y="-113.78" font-family="Times,serif" font-size="14.00">null</text>
</g>
<!-- No_964103284&#45;&gt;NUL_3 -->
<g id="edge7" class="edge">
<title>No_964103284&#45;&gt;NUL_3</title>
<path fill="none" stroke="black" d="M276.07,-190.85C276.56,-177.52 277.11,-162.58 277.58,-149.75"/>
<polygon fill="black" stroke="black" points="281.09,-149.68 277.96,-139.55 274.09,-149.42 281.09,-149.68"/>
</g>
<!-- No_969897409 -->
<g id="node10" class="node">
<title>No_969897409</title>
<ellipse fill="none" stroke="black" cx="464.73" cy="-228.43" rx="80.72" ry="37.45"/>
<text text-anchor="middle" x="464.73" y="-239.73" font-family="Times,serif" font-size="14.00">Marcela Silva</text>
<text text-anchor="middle" x="464.73" y="-224.73" font-family="Times,serif" font-size="14.00">969897409</text>
<text text-anchor="middle" x="464.73" y="-209.73" font-family="Times,serif" font-size="14.00">fb=1</text>
</g>
<!-- No_986571570&#45;&gt;No_969897409 -->
<g id="edge9" class="edge">
<title>No_986571570&#45;&gt;No_969897409</title>
<path fill="none" stroke="black" d="M464.73,-301.8C464.73,-293.63 464.73,-284.85 464.73,-276.32"/>
<polygon fill="black" stroke="black" points="468.23,-276.1 464.73,-266.1 461.23,-276.1 468.23,-276.1"/>
</g>
<!-- No_988849962 -->
<g id="node15" class="node">
<title>No_988849962</title>
<ellipse fill="none" stroke="black" cx="644.73" cy="-228.43" rx="81.13" ry="37.45"/>
<text text-anchor="middle" x="644.73" y="-239.73" font-family="Times,serif" font-size="14.00">M치rcio Farias</text>
<text text-anchor="middle" x="644.73" y="-224.73" font-family="Times,serif" font-size="14.00">988849962</text>
<text text-anchor="middle" x="644.73" y="-209.73" font-family="Times,serif" font-size="14.00">fb=0</text>
</g>
<!-- No_986571570&#45;&gt;No_988849962 -->
<g id="edge14" class="edge">
<title>No_986571570&#45;&gt;No_988849962</title>
<path fill="none" stroke="black" d="M513.92,-308.61C536.72,-294.81 563.96,-278.32 587.67,-263.97"/>
<polygon fill="black" stroke="black" points="589.49,-266.96 596.23,-258.79 585.86,-260.97 589.49,-266.96"/>
</g>
<!-- NUL_4 -->
<g id="node11" class="node">
<title>NUL_4</title>
<polygon fill="none" stroke="black" points="381.73,-139.48 337.73,-139.48 337.73,-95.48 381.73,-95.48 381.73,-139.48"/>
<text text-anchor="middle" x="359.73" y="-113.78" font-family="Times,serif" font-size="14.00">null</text>
</g>
<!-- No_969897409&#45;&gt;NUL_4 -->
<g id="edge10" class="edge">
<title>No_969897409&#45;&gt;NUL_4</title>
<path fill="none" stroke="black" d="M429.82,-194.51C417.24,-182.33 403.11,-168.24 390.73,-154.95 388.47,-152.52 386.15,-149.96 383.86,-147.37"/>
<polygon fill="black" stroke="black" points="386.31,-144.85 377.11,-139.6 381.03,-149.44 386.31,-144.85"/>
</g>
<!-- No_970297615 -->
<g id="node12" class="node">
<title>No_970297615</title>
<ellipse fill="none" stroke="black" cx="479.73" cy="-117.48" rx="79.81" ry="37.45"/>
<text text-anchor="middle" x="479.73" y="-128.78" font-family="Times,serif" font-size="14.00">M치rcio Souza</text>
<text text-anchor="middle" x="479.73" y="-113.78" font-family="Times,serif" font-size="14.00">970297615</text>
<text text-anchor="middle" x="479.73" y="-98.78" font-family="Times,serif" font-size="14.00">fb=0</text>
</g>
<!-- No_969897409&#45;&gt;No_970297615 -->
<g id="edge11" class="edge">
<title>No_969897409&#45;&gt;No_970297615</title>
<path fill="none" stroke="black" d="M469.77,-190.85C470.91,-182.58 472.13,-173.7 473.31,-165.09"/>
<polygon fill="black" stroke="black" points="476.79,-165.53 474.68,-155.15 469.85,-164.58 476.79,-165.53"/>
</g>
<!-- NUL_5 -->
<g id="node13" class="node">
<title>NUL_5</title>
<polygon fill="none" stroke="black" points="470.73,-44 426.73,-44 426.73,0 470.73,0 470.73,-44"/>
<text text-anchor="middle" x="448.73" y="-18.3" font-family="Times,serif" font-size="14.00">null</text>
</g>
<!-- No_970297615&#45;&gt;NUL_5 -->
<g id="edge12" class="edge">
<title>No_970297615&#45;&gt;NUL_5</title>
<path fill="none" stroke="black" d="M467.75,-80.34C464.83,-71.55 461.74,-62.23 458.92,-53.72"/>
<polygon fill="black" stroke="black" points="462.23,-52.57 455.76,-44.18 455.58,-54.77 462.23,-52.57"/>
</g>
<!-- NUL_6 -->
<g id="node14" class="node">
<title>NUL_6</title>
<polygon fill="none" stroke="black" points="532.73,-44 488.73,-44 488.73,0 532.73,0 532.73,-44"/>
<text text-anchor="middle" x="510.73" y="-18.3" font-family="Times,serif" font-size="14.00">null</text>
</g>
<!-- No_970297615&#45;&gt;NUL_6 -->
<g id="edge13" class="edge">
<title>No_970297615&#45;&gt;NUL_6</title>
<path fill="none" stroke="black" d="M491.72,-80.34C494.63,-71.55 497.72,-62.23 500.54,-53.72"/>
<polygon fill="black" stroke="black" points="503.88,-54.77 503.71,-44.18 497.24,-52.57 503.88,-54.77"/>
</g>
<!-- NUL_7 -->
<g id="node16" class="node">
<title>NUL_7</title>
<polygon fill="none" stroke="black" points="651.73,-139.48 607.73,-139.48 607.73,-95.48 651.73,-95.48 651.73,-139.48"/>
<text text-anchor="middle" x="629.73" y="-113.78" font-family="Times,serif" font-size="14.00">null</text>
</g>
<!-- No_988849962&#45;&gt;NUL_7 -->
<g id="edge15" class="edge">
<title>No_988849962&#45;&gt;NUL_7</title>
<path fill="none" stroke="black" d="M639.69,-190.85C637.86,-177.52 635.8,-162.58 634.04,-149.75"/>
<polygon fill="black" stroke="black" points="637.46,-148.98 632.63,-139.55 630.53,-149.94 637.46,-148.98"/>
</g>
<!-- NUL_8 -->
<g id="node17" class="node">
<title>NUL_8</title>
<polygon fill="none" stroke="black" points="713.73,-139.48 669.73,-139.48 669.73,-95.48 713.73,-95.48 713.73,-139.48"/>
<text text-anchor="middle" x="691.73" y="-113.78" font-family="Times,serif" font-size="14.00">null</text>
</g>
<!-- No_988849962&#45;&gt;NUL_8 -->
<g id="edge16" class="edge">
<title>No_988849962&#45;&gt;NUL_8</title>
<path fill="none" stroke="black" d="M660.25,-191.45C666.13,-177.82 672.77,-162.43 678.43,-149.32"/>
<polygon fill="black" stroke="black" points="681.79,-150.36 682.54,-139.79 675.36,-147.59 681.79,-150.36"/>
</g>
</g>
</svg>
