<?xml version="1.0" encoding="UTF-8" standalone="no"?>
<!DOCTYPE svg PUBLIC "-//W3C//DTD SVG 1.1//EN"
 "http://www.w3.org/Graphics/SVG/1.1/DTD/svg11.dtd">
<!-- Generated by graphviz version 2.43.0 (0)
 -->
<!-- Title: BST Pages: 1 -->
<svg width="193pt" height="163pt"
 viewBox="0.00 0.00 193.26 162.95" xmlns="http://www.w3.org/2000/svg" xmlns:xlink="http://www.w3.org/1999/xlink">
<g id="graph0" class="graph" transform="scale(1 1) rotate(0) translate(4 158.95)">
<title>BST</title>
<polygon fill="white" stroke="transparent" points="-4,4 -4,-158.95 189.26,-158.95 189.26,4 -4,4"/>
<!-- No_958755122 -->
<g id="node1" class="node">
<title>No_958755122</title>
<ellipse fill="none" stroke="black" cx="92.63" cy="-117.48" rx="92.76" ry="37.45"/>
<text text-anchor="middle" x="92.63" y="-128.78" font-family="Times,serif" font-size="14.00">Vanessa Pereira</text>
<text text-anchor="middle" x="92.63" y="-113.78" font-family="Times,serif" font-size="14.00">958755122</text>
<text text-anchor="middle" x="92.63" y="-98.78" font-family="Times,serif" font-size="14.00">fb=0</text>
</g>
<!-- NUL_0 -->
<g id="node2" class="node">
<title>NUL_0</title>
<polygon fill="none" stroke="black" points="83.63,-44 39.63,-44 39.63,0 83.63,0 83.63,-44"/>
<text text-anchor="middle" x="61.63" y="-18.3" font-family="Times,serif" font-size="14.00">null</text>
</g>
<!-- No_958755122&#45;&gt;NUL_0 -->
<g id="edge1" class="edge">
<title>No_958755122&#45;&gt;NUL_0</title>
<path fill="none" stroke="black" d="M80.56,-80.07C77.65,-71.3 74.57,-62.02 71.76,-53.55"/>
<polygon fill="black" stroke="black" points="75.08,-52.45 68.61,-44.06 68.44,-54.65 75.08,-52.45"/>
</g>
<!-- NUL_1 -->
<g id="node3" class="node">
<title>NUL_1</title>
<polygon fill="none" stroke="black" points="145.63,-44 101.63,-44 101.63,0 145.63,0 145.63,-44"/>
<text text-anchor="middle" x="123.63" y="-18.3" font-family="Times,serif" font-size="14.00">null</text>
</g>
<!-- No_958755122&#45;&gt;NUL_1 -->
<g id="edge2" class="edge">
<title>No_958755122&#45;&gt;NUL_1</title>
<path fill="none" stroke="black" d="M104.71,-80.07C107.61,-71.3 110.69,-62.02 113.5,-53.55"/>
<polygon fill="black" stroke="black" points="116.82,-54.65 116.65,-44.06 110.18,-52.45 116.82,-54.65"/>
</g>
</g>
</svg>
