<?xml version="1.0" encoding="UTF-8" standalone="no"?>
<!DOCTYPE svg PUBLIC "-//W3C//DTD SVG 1.1//EN"
 "http://www.w3.org/Graphics/SVG/1.1/DTD/svg11.dtd">
<!-- Generated by graphviz version 2.43.0 (0)
 -->
<!-- Title: BST Pages: 1 -->
<svg width="585pt" height="385pt"
 viewBox="0.00 0.00 584.91 384.86" xmlns="http://www.w3.org/2000/svg" xmlns:xlink="http://www.w3.org/1999/xlink">
<g id="graph0" class="graph" transform="scale(1 1) rotate(0) translate(4 380.86)">
<title>BST</title>
<polygon fill="white" stroke="transparent" points="-4,4 -4,-380.86 580.91,-380.86 580.91,4 -4,4"/>
<!-- No_965115082 -->
<g id="node1" class="node">
<title>No_965115082</title>
<ellipse fill="none" stroke="black" cx="261.95" cy="-339.38" rx="75.82" ry="37.45"/>
<text text-anchor="middle" x="261.95" y="-350.68" font-family="Times,serif" font-size="14.00">Ana Barbosa</text>
<text text-anchor="middle" x="261.95" y="-335.68" font-family="Times,serif" font-size="14.00">965115082</text>
<text text-anchor="middle" x="261.95" y="-320.68" font-family="Times,serif" font-size="14.00">fb=0</text>
</g>
<!-- No_960933790 -->
<g id="node2" class="node">
<title>No_960933790</title>
<ellipse fill="none" stroke="black" cx="172.95" cy="-228.43" rx="85.62" ry="37.45"/>
<text text-anchor="middle" x="172.95" y="-239.73" font-family="Times,serif" font-size="14.00">Andrea Santos</text>
<text text-anchor="middle" x="172.95" y="-224.73" font-family="Times,serif" font-size="14.00">960933790</text>
<text text-anchor="middle" x="172.95" y="-209.73" font-family="Times,serif" font-size="14.00">fb=&#45;1</text>
</g>
<!-- No_965115082&#45;&gt;No_960933790 -->
<g id="edge1" class="edge">
<title>No_965115082&#45;&gt;No_960933790</title>
<path fill="none" stroke="black" d="M234.04,-304.21C225.67,-293.96 216.39,-282.6 207.64,-271.89"/>
<polygon fill="black" stroke="black" points="210.11,-269.39 201.08,-263.86 204.69,-273.82 210.11,-269.39"/>
</g>
<!-- No_985278999 -->
<g id="node7" class="node">
<title>No_985278999</title>
<ellipse fill="none" stroke="black" cx="351.95" cy="-228.43" rx="75.82" ry="37.45"/>
<text text-anchor="middle" x="351.95" y="-239.73" font-family="Times,serif" font-size="14.00">Acir Campos</text>
<text text-anchor="middle" x="351.95" y="-224.73" font-family="Times,serif" font-size="14.00">985278999</text>
<text text-anchor="middle" x="351.95" y="-209.73" font-family="Times,serif" font-size="14.00">fb=0</text>
</g>
<!-- No_965115082&#45;&gt;No_985278999 -->
<g id="edge6" class="edge">
<title>No_965115082&#45;&gt;No_985278999</title>
<path fill="none" stroke="black" d="M289.94,-304.51C298.66,-293.95 308.38,-282.18 317.49,-271.16"/>
<polygon fill="black" stroke="black" points="320.32,-273.22 323.99,-263.29 314.92,-268.77 320.32,-273.22"/>
</g>
<!-- No_955838599 -->
<g id="node3" class="node">
<title>No_955838599</title>
<ellipse fill="none" stroke="black" cx="74.95" cy="-117.48" rx="74.91" ry="37.45"/>
<text text-anchor="middle" x="74.95" y="-128.78" font-family="Times,serif" font-size="14.00">Aline Santos</text>
<text text-anchor="middle" x="74.95" y="-113.78" font-family="Times,serif" font-size="14.00">955838599</text>
<text text-anchor="middle" x="74.95" y="-98.78" font-family="Times,serif" font-size="14.00">fb=0</text>
</g>
<!-- No_960933790&#45;&gt;No_955838599 -->
<g id="edge2" class="edge">
<title>No_960933790&#45;&gt;No_955838599</title>
<path fill="none" stroke="black" d="M142.21,-193.26C132.64,-182.61 121.97,-170.75 112.01,-159.68"/>
<polygon fill="black" stroke="black" points="114.54,-157.25 105.25,-152.16 109.33,-161.93 114.54,-157.25"/>
</g>
<!-- NUL_2 -->
<g id="node6" class="node">
<title>NUL_2</title>
<polygon fill="none" stroke="black" points="211.95,-139.48 167.95,-139.48 167.95,-95.48 211.95,-95.48 211.95,-139.48"/>
<text text-anchor="middle" x="189.95" y="-113.78" font-family="Times,serif" font-size="14.00">null</text>
</g>
<!-- No_960933790&#45;&gt;NUL_2 -->
<g id="edge5" class="edge">
<title>No_960933790&#45;&gt;NUL_2</title>
<path fill="none" stroke="black" d="M178.66,-190.85C180.74,-177.52 183.07,-162.58 185.07,-149.75"/>
<polygon fill="black" stroke="black" points="188.58,-149.97 186.66,-139.55 181.66,-148.9 188.58,-149.97"/>
</g>
<!-- NUL_0 -->
<g id="node4" class="node">
<title>NUL_0</title>
<polygon fill="none" stroke="black" points="65.95,-44 21.95,-44 21.95,0 65.95,0 65.95,-44"/>
<text text-anchor="middle" x="43.95" y="-18.3" font-family="Times,serif" font-size="14.00">null</text>
</g>
<!-- No_955838599&#45;&gt;NUL_0 -->
<g id="edge3" class="edge">
<title>No_955838599&#45;&gt;NUL_0</title>
<path fill="none" stroke="black" d="M62.97,-80.34C60.05,-71.55 56.96,-62.23 54.14,-53.72"/>
<polygon fill="black" stroke="black" points="57.45,-52.57 50.98,-44.18 50.8,-54.77 57.45,-52.57"/>
</g>
<!-- NUL_1 -->
<g id="node5" class="node">
<title>NUL_1</title>
<polygon fill="none" stroke="black" points="127.95,-44 83.95,-44 83.95,0 127.95,0 127.95,-44"/>
<text text-anchor="middle" x="105.95" y="-18.3" font-family="Times,serif" font-size="14.00">null</text>
</g>
<!-- No_955838599&#45;&gt;NUL_1 -->
<g id="edge4" class="edge">
<title>No_955838599&#45;&gt;NUL_1</title>
<path fill="none" stroke="black" d="M86.94,-80.34C89.85,-71.55 92.94,-62.23 95.77,-53.72"/>
<polygon fill="black" stroke="black" points="99.1,-54.77 98.93,-44.18 92.46,-52.57 99.1,-54.77"/>
</g>
<!-- No_975960513 -->
<g id="node8" class="node">
<title>No_975960513</title>
<ellipse fill="none" stroke="black" cx="335.95" cy="-117.48" rx="73.58" ry="37.45"/>
<text text-anchor="middle" x="335.95" y="-128.78" font-family="Times,serif" font-size="14.00">Altair Souza</text>
<text text-anchor="middle" x="335.95" y="-113.78" font-family="Times,serif" font-size="14.00">975960513</text>
<text text-anchor="middle" x="335.95" y="-98.78" font-family="Times,serif" font-size="14.00">fb=0</text>
</g>
<!-- No_985278999&#45;&gt;No_975960513 -->
<g id="edge7" class="edge">
<title>No_985278999&#45;&gt;No_975960513</title>
<path fill="none" stroke="black" d="M346.58,-190.85C345.37,-182.58 344.06,-173.7 342.8,-165.09"/>
<polygon fill="black" stroke="black" points="346.25,-164.53 341.34,-155.15 339.33,-165.55 346.25,-164.53"/>
</g>
<!-- No_997285865 -->
<g id="node11" class="node">
<title>No_997285865</title>
<ellipse fill="none" stroke="black" cx="501.95" cy="-117.48" rx="74.91" ry="37.45"/>
<text text-anchor="middle" x="501.95" y="-128.78" font-family="Times,serif" font-size="14.00">Almir Torres</text>
<text text-anchor="middle" x="501.95" y="-113.78" font-family="Times,serif" font-size="14.00">997285865</text>
<text text-anchor="middle" x="501.95" y="-98.78" font-family="Times,serif" font-size="14.00">fb=0</text>
</g>
<!-- No_985278999&#45;&gt;No_997285865 -->
<g id="edge10" class="edge">
<title>No_985278999&#45;&gt;No_997285865</title>
<path fill="none" stroke="black" d="M393.74,-197.08C411.78,-183.97 433.05,-168.53 451.93,-154.81"/>
<polygon fill="black" stroke="black" points="454.1,-157.56 460.13,-148.85 449.99,-151.9 454.1,-157.56"/>
</g>
<!-- NUL_3 -->
<g id="node9" class="node">
<title>NUL_3</title>
<polygon fill="none" stroke="black" points="326.95,-44 282.95,-44 282.95,0 326.95,0 326.95,-44"/>
<text text-anchor="middle" x="304.95" y="-18.3" font-family="Times,serif" font-size="14.00">null</text>
</g>
<!-- No_975960513&#45;&gt;NUL_3 -->
<g id="edge8" class="edge">
<title>No_975960513&#45;&gt;NUL_3</title>
<path fill="none" stroke="black" d="M323.97,-80.34C321.05,-71.55 317.96,-62.23 315.14,-53.72"/>
<polygon fill="black" stroke="black" points="318.45,-52.57 311.98,-44.18 311.8,-54.77 318.45,-52.57"/>
</g>
<!-- NUL_4 -->
<g id="node10" class="node">
<title>NUL_4</title>
<polygon fill="none" stroke="black" points="388.95,-44 344.95,-44 344.95,0 388.95,0 388.95,-44"/>
<text text-anchor="middle" x="366.95" y="-18.3" font-family="Times,serif" font-size="14.00">null</text>
</g>
<!-- No_975960513&#45;&gt;NUL_4 -->
<g id="edge9" class="edge">
<title>No_975960513&#45;&gt;NUL_4</title>
<path fill="none" stroke="black" d="M347.94,-80.34C350.85,-71.55 353.94,-62.23 356.77,-53.72"/>
<polygon fill="black" stroke="black" points="360.1,-54.77 359.93,-44.18 353.46,-52.57 360.1,-54.77"/>
</g>
<!-- NUL_5 -->
<g id="node12" class="node">
<title>NUL_5</title>
<polygon fill="none" stroke="black" points="492.95,-44 448.95,-44 448.95,0 492.95,0 492.95,-44"/>
<text text-anchor="middle" x="470.95" y="-18.3" font-family="Times,serif" font-size="14.00">null</text>
</g>
<!-- No_997285865&#45;&gt;NUL_5 -->
<g id="edge11" class="edge">
<title>No_997285865&#45;&gt;NUL_5</title>
<path fill="none" stroke="black" d="M489.97,-80.34C487.05,-71.55 483.96,-62.23 481.14,-53.72"/>
<polygon fill="black" stroke="black" points="484.45,-52.57 477.98,-44.18 477.8,-54.77 484.45,-52.57"/>
</g>
<!-- NUL_6 -->
<g id="node13" class="node">
<title>NUL_6</title>
<polygon fill="none" stroke="black" points="554.95,-44 510.95,-44 510.95,0 554.95,0 554.95,-44"/>
<text text-anchor="middle" x="532.95" y="-18.3" font-family="Times,serif" font-size="14.00">null</text>
</g>
<!-- No_997285865&#45;&gt;NUL_6 -->
<g id="edge12" class="edge">
<title>No_997285865&#45;&gt;NUL_6</title>
<path fill="none" stroke="black" d="M513.94,-80.34C516.85,-71.55 519.94,-62.23 522.77,-53.72"/>
<polygon fill="black" stroke="black" points="526.1,-54.77 525.93,-44.18 519.46,-52.57 526.1,-54.77"/>
</g>
</g>
</svg>
