<?xml version="1.0" encoding="UTF-8" standalone="no"?>
<!DOCTYPE svg PUBLIC "-//W3C//DTD SVG 1.1//EN"
 "http://www.w3.org/Graphics/SVG/1.1/DTD/svg11.dtd">
<!-- Generated by graphviz version 2.43.0 (0)
 -->
<!-- Title: BST Pages: 1 -->
<svg width="1232pt" height="332pt"
 viewBox="0.00 0.00 1232.42 332.00" xmlns="http://www.w3.org/2000/svg" xmlns:xlink="http://www.w3.org/1999/xlink">
<g id="graph0" class="graph" transform="scale(1 1) rotate(0) translate(4 328)">
<title>BST</title>
<polygon fill="white" stroke="transparent" points="-4,4 -4,-328 1228.42,-328 1228.42,4 -4,4"/>
<!-- Roberto Rodrigues,966669452 [fb:0] -->
<g id="node1" class="node">
<title>Roberto Rodrigues,966669452 [fb:0]</title>
<ellipse fill="none" stroke="black" cx="361.13" cy="-306" rx="181.17" ry="18"/>
<text text-anchor="middle" x="361.13" y="-302.3" font-family="Times,serif" font-size="14.00">Roberto Rodrigues,966669452 [fb:0]</text>
</g>
<!-- Roberto Barbosa,964163007 [fb:0] -->
<g id="node2" class="node">
<title>Roberto Barbosa,964163007 [fb:0]</title>
<ellipse fill="none" stroke="black" cx="181.13" cy="-234" rx="172.47" ry="18"/>
<text text-anchor="middle" x="181.13" y="-230.3" font-family="Times,serif" font-size="14.00">Roberto Barbosa,964163007 [fb:0]</text>
</g>
<!-- Roberto Rodrigues,966669452 [fb:0]&#45;&gt;Roberto Barbosa,964163007 [fb:0] -->
<g id="edge1" class="edge">
<title>Roberto Rodrigues,966669452 [fb:0]&#45;&gt;Roberto Barbosa,964163007 [fb:0]</title>
<path fill="none" stroke="black" d="M318.48,-288.41C292.81,-278.43 259.96,-265.65 232.82,-255.1"/>
<polygon fill="black" stroke="black" points="234.07,-251.83 223.49,-251.47 231.54,-258.36 234.07,-251.83"/>
</g>
<!-- Roberto Martins,967828497 [fb:0] -->
<g id="node4" class="node">
<title>Roberto Martins,967828497 [fb:0]</title>
<ellipse fill="none" stroke="black" cx="546.13" cy="-234" rx="170.87" ry="18"/>
<text text-anchor="middle" x="546.13" y="-230.3" font-family="Times,serif" font-size="14.00">Roberto Martins,967828497 [fb:0]</text>
</g>
<!-- Roberto Rodrigues,966669452 [fb:0]&#45;&gt;Roberto Martins,967828497 [fb:0] -->
<g id="edge3" class="edge">
<title>Roberto Rodrigues,966669452 [fb:0]&#45;&gt;Roberto Martins,967828497 [fb:0]</title>
<path fill="none" stroke="black" d="M404.98,-288.41C431.36,-278.43 465.12,-265.65 493.01,-255.1"/>
<polygon fill="black" stroke="black" points="494.49,-258.28 502.61,-251.47 492.02,-251.74 494.49,-258.28"/>
</g>
<!-- Roberto Machado,965381960 [fb:0] -->
<g id="node3" class="node">
<title>Roberto Machado,965381960 [fb:0]</title>
<ellipse fill="none" stroke="black" cx="176.13" cy="-162" rx="176.27" ry="18"/>
<text text-anchor="middle" x="176.13" y="-158.3" font-family="Times,serif" font-size="14.00">Roberto Machado,965381960 [fb:0]</text>
</g>
<!-- Roberto Barbosa,964163007 [fb:0]&#45;&gt;Roberto Machado,965381960 [fb:0] -->
<g id="edge2" class="edge">
<title>Roberto Barbosa,964163007 [fb:0]&#45;&gt;Roberto Machado,965381960 [fb:0]</title>
<path fill="none" stroke="black" d="M179.9,-215.7C179.35,-207.98 178.69,-198.71 178.07,-190.11"/>
<polygon fill="black" stroke="black" points="181.56,-189.83 177.36,-180.1 174.58,-190.33 181.56,-189.83"/>
</g>
<!-- Roberto Machado,967003251 [fb:0] -->
<g id="node5" class="node">
<title>Roberto Machado,967003251 [fb:0]</title>
<ellipse fill="none" stroke="black" cx="546.13" cy="-162" rx="176.27" ry="18"/>
<text text-anchor="middle" x="546.13" y="-158.3" font-family="Times,serif" font-size="14.00">Roberto Machado,967003251 [fb:0]</text>
</g>
<!-- Roberto Martins,967828497 [fb:0]&#45;&gt;Roberto Machado,967003251 [fb:0] -->
<g id="edge4" class="edge">
<title>Roberto Martins,967828497 [fb:0]&#45;&gt;Roberto Machado,967003251 [fb:0]</title>
<path fill="none" stroke="black" d="M546.13,-215.7C546.13,-207.98 546.13,-198.71 546.13,-190.11"/>
<polygon fill="black" stroke="black" points="549.63,-190.1 546.13,-180.1 542.63,-190.1 549.63,-190.1"/>
</g>
<!-- Roberto Alves,978053544 [fb:1] -->
<g id="node6" class="node">
<title>Roberto Alves,978053544 [fb:1]</title>
<ellipse fill="none" stroke="black" cx="899.13" cy="-162" rx="159.47" ry="18"/>
<text text-anchor="middle" x="899.13" y="-158.3" font-family="Times,serif" font-size="14.00">Roberto Alves,978053544 [fb:1]</text>
</g>
<!-- Roberto Martins,967828497 [fb:0]&#45;&gt;Roberto Alves,978053544 [fb:1] -->
<g id="edge5" class="edge">
<title>Roberto Martins,967828497 [fb:0]&#45;&gt;Roberto Alves,978053544 [fb:1]</title>
<path fill="none" stroke="black" d="M622.73,-217.81C679.09,-206.64 755.7,-191.44 813.98,-179.89"/>
<polygon fill="black" stroke="black" points="814.77,-183.3 823.9,-177.92 813.41,-176.43 814.77,-183.3"/>
</g>
<!-- Roberto Porto,990366818 [fb:1] -->
<g id="node7" class="node">
<title>Roberto Porto,990366818 [fb:1]</title>
<ellipse fill="none" stroke="black" cx="899.13" cy="-90" rx="159.47" ry="18"/>
<text text-anchor="middle" x="899.13" y="-86.3" font-family="Times,serif" font-size="14.00">Roberto Porto,990366818 [fb:1]</text>
</g>
<!-- Roberto Alves,978053544 [fb:1]&#45;&gt;Roberto Porto,990366818 [fb:1] -->
<g id="edge6" class="edge">
<title>Roberto Alves,978053544 [fb:1]&#45;&gt;Roberto Porto,990366818 [fb:1]</title>
<path fill="none" stroke="black" d="M899.13,-143.7C899.13,-135.98 899.13,-126.71 899.13,-118.11"/>
<polygon fill="black" stroke="black" points="902.63,-118.1 899.13,-108.1 895.63,-118.1 902.63,-118.1"/>
</g>
<!-- Roberto Alves,985464278 [fb:0] -->
<g id="node8" class="node">
<title>Roberto Alves,985464278 [fb:0]</title>
<ellipse fill="none" stroke="black" cx="732.13" cy="-18" rx="159.47" ry="18"/>
<text text-anchor="middle" x="732.13" y="-14.3" font-family="Times,serif" font-size="14.00">Roberto Alves,985464278 [fb:0]</text>
</g>
<!-- Roberto Porto,990366818 [fb:1]&#45;&gt;Roberto Alves,985464278 [fb:0] -->
<g id="edge7" class="edge">
<title>Roberto Porto,990366818 [fb:1]&#45;&gt;Roberto Alves,985464278 [fb:0]</title>
<path fill="none" stroke="black" d="M859.56,-72.41C835.95,-62.52 805.8,-49.88 780.75,-39.38"/>
<polygon fill="black" stroke="black" points="782,-36.11 771.43,-35.47 779.3,-42.56 782,-36.11"/>
</g>
<!-- Roberto Silva,998535597 [fb:0] -->
<g id="node9" class="node">
<title>Roberto Silva,998535597 [fb:0]</title>
<ellipse fill="none" stroke="black" cx="1067.13" cy="-18" rx="157.07" ry="18"/>
<text text-anchor="middle" x="1067.13" y="-14.3" font-family="Times,serif" font-size="14.00">Roberto Silva,998535597 [fb:0]</text>
</g>
<!-- Roberto Porto,990366818 [fb:1]&#45;&gt;Roberto Silva,998535597 [fb:0] -->
<g id="edge8" class="edge">
<title>Roberto Porto,990366818 [fb:1]&#45;&gt;Roberto Silva,998535597 [fb:0]</title>
<path fill="none" stroke="black" d="M938.95,-72.41C962.69,-62.52 993.03,-49.88 1018.23,-39.38"/>
<polygon fill="black" stroke="black" points="1019.72,-42.55 1027.61,-35.47 1017.03,-36.09 1019.72,-42.55"/>
</g>
</g>
</svg>
