<?xml version="1.0" encoding="UTF-8" standalone="no"?>
<!DOCTYPE svg PUBLIC "-//W3C//DTD SVG 1.1//EN"
 "http://www.w3.org/Graphics/SVG/1.1/DTD/svg11.dtd">
<!-- Generated by graphviz version 2.43.0 (0)
 -->
<!-- Title: BST Pages: 1 -->
<svg width="3031pt" height="476pt"
 viewBox="0.00 0.00 3031.12 476.00" xmlns="http://www.w3.org/2000/svg" xmlns:xlink="http://www.w3.org/1999/xlink">
<g id="graph0" class="graph" transform="scale(1 1) rotate(0) translate(4 472)">
<title>BST</title>
<polygon fill="white" stroke="transparent" points="-4,4 -4,-472 3027.12,-472 3027.12,4 -4,4"/>
<!-- Lucas Barros,963599401 [fb:1] -->
<g id="node1" class="node">
<title>Lucas Barros,963599401 [fb:1]</title>
<ellipse fill="none" stroke="black" cx="1329.44" cy="-450" rx="155.17" ry="18"/>
<text text-anchor="middle" x="1329.44" y="-446.3" font-family="Times,serif" font-size="14.00">Lucas Barros,963599401 [fb:1]</text>
</g>
<!-- Luciano Barbosa,957188337 [fb:0] -->
<g id="node2" class="node">
<title>Luciano Barbosa,957188337 [fb:0]</title>
<ellipse fill="none" stroke="black" cx="1001.44" cy="-378" rx="170.87" ry="18"/>
<text text-anchor="middle" x="1001.44" y="-374.3" font-family="Times,serif" font-size="14.00">Luciano Barbosa,957188337 [fb:0]</text>
</g>
<!-- Lucas Barros,963599401 [fb:1]&#45;&gt;Luciano Barbosa,957188337 [fb:0] -->
<g id="edge1" class="edge">
<title>Lucas Barros,963599401 [fb:1]&#45;&gt;Luciano Barbosa,957188337 [fb:0]</title>
<path fill="none" stroke="black" d="M1258.67,-433.9C1207.17,-422.91 1137.29,-407.99 1083.37,-396.49"/>
<polygon fill="black" stroke="black" points="1084,-393.04 1073.49,-394.38 1082.54,-399.89 1084,-393.04"/>
</g>
<!-- Luciano Alves,972414839 [fb:0] -->
<g id="node9" class="node">
<title>Luciano Alves,972414839 [fb:0]</title>
<ellipse fill="none" stroke="black" cx="1679.44" cy="-378" rx="157.87" ry="18"/>
<text text-anchor="middle" x="1679.44" y="-374.3" font-family="Times,serif" font-size="14.00">Luciano Alves,972414839 [fb:0]</text>
</g>
<!-- Lucas Barros,963599401 [fb:1]&#45;&gt;Luciano Alves,972414839 [fb:0] -->
<g id="edge8" class="edge">
<title>Lucas Barros,963599401 [fb:1]&#45;&gt;Luciano Alves,972414839 [fb:0]</title>
<path fill="none" stroke="black" d="M1403.66,-434.15C1459.72,-422.94 1536.69,-407.55 1595.08,-395.87"/>
<polygon fill="black" stroke="black" points="1595.9,-399.28 1605.02,-393.88 1594.52,-392.41 1595.9,-399.28"/>
</g>
<!-- Luiz Torres,951046172 [fb:&#45;1] -->
<g id="node3" class="node">
<title>Luiz Torres,951046172 [fb:&#45;1]</title>
<ellipse fill="none" stroke="black" cx="494.44" cy="-306" rx="149.47" ry="18"/>
<text text-anchor="middle" x="494.44" y="-302.3" font-family="Times,serif" font-size="14.00">Luiz Torres,951046172 [fb:&#45;1]</text>
</g>
<!-- Luciano Barbosa,957188337 [fb:0]&#45;&gt;Luiz Torres,951046172 [fb:&#45;1] -->
<g id="edge2" class="edge">
<title>Luciano Barbosa,957188337 [fb:0]&#45;&gt;Luiz Torres,951046172 [fb:&#45;1]</title>
<path fill="none" stroke="black" d="M902.18,-363.3C814.74,-351.22 687.8,-333.7 598.86,-321.42"/>
<polygon fill="black" stroke="black" points="599.13,-317.92 588.74,-320.02 598.17,-324.86 599.13,-317.92"/>
</g>
<!-- Leonardo Moura,960603618 [fb:1] -->
<g id="node6" class="node">
<title>Leonardo Moura,960603618 [fb:1]</title>
<ellipse fill="none" stroke="black" cx="1001.44" cy="-306" rx="170.87" ry="18"/>
<text text-anchor="middle" x="1001.44" y="-302.3" font-family="Times,serif" font-size="14.00">Leonardo Moura,960603618 [fb:1]</text>
</g>
<!-- Luciano Barbosa,957188337 [fb:0]&#45;&gt;Leonardo Moura,960603618 [fb:1] -->
<g id="edge5" class="edge">
<title>Luciano Barbosa,957188337 [fb:0]&#45;&gt;Leonardo Moura,960603618 [fb:1]</title>
<path fill="none" stroke="black" d="M1001.44,-359.7C1001.44,-351.98 1001.44,-342.71 1001.44,-334.11"/>
<polygon fill="black" stroke="black" points="1004.94,-334.1 1001.44,-324.1 997.94,-334.1 1004.94,-334.1"/>
</g>
<!-- Lucas Souza,950457848 [fb:0] -->
<g id="node4" class="node">
<title>Lucas Souza,950457848 [fb:0]</title>
<ellipse fill="none" stroke="black" cx="151.44" cy="-234" rx="151.37" ry="18"/>
<text text-anchor="middle" x="151.44" y="-230.3" font-family="Times,serif" font-size="14.00">Lucas Souza,950457848 [fb:0]</text>
</g>
<!-- Luiz Torres,951046172 [fb:&#45;1]&#45;&gt;Lucas Souza,950457848 [fb:0] -->
<g id="edge3" class="edge">
<title>Luiz Torres,951046172 [fb:&#45;1]&#45;&gt;Lucas Souza,950457848 [fb:0]</title>
<path fill="none" stroke="black" d="M422.11,-290.24C367.23,-279.04 291.7,-263.63 234.37,-251.93"/>
<polygon fill="black" stroke="black" points="234.75,-248.43 224.25,-249.86 233.35,-255.29 234.75,-248.43"/>
</g>
<!-- Leonardo Moura,952737448 [fb:&#45;1] -->
<g id="node5" class="node">
<title>Leonardo Moura,952737448 [fb:&#45;1]</title>
<ellipse fill="none" stroke="black" cx="494.44" cy="-234" rx="173.57" ry="18"/>
<text text-anchor="middle" x="494.44" y="-230.3" font-family="Times,serif" font-size="14.00">Leonardo Moura,952737448 [fb:&#45;1]</text>
</g>
<!-- Luiz Torres,951046172 [fb:&#45;1]&#45;&gt;Leonardo Moura,952737448 [fb:&#45;1] -->
<g id="edge4" class="edge">
<title>Luiz Torres,951046172 [fb:&#45;1]&#45;&gt;Leonardo Moura,952737448 [fb:&#45;1]</title>
<path fill="none" stroke="black" d="M494.44,-287.7C494.44,-279.98 494.44,-270.71 494.44,-262.11"/>
<polygon fill="black" stroke="black" points="497.94,-262.1 494.44,-252.1 490.94,-262.1 497.94,-262.1"/>
</g>
<!-- Luciano Alves,957445164 [fb:&#45;1] -->
<g id="node7" class="node">
<title>Luciano Alves,957445164 [fb:&#45;1]</title>
<ellipse fill="none" stroke="black" cx="847.44" cy="-234" rx="161.37" ry="18"/>
<text text-anchor="middle" x="847.44" y="-230.3" font-family="Times,serif" font-size="14.00">Luciano Alves,957445164 [fb:&#45;1]</text>
</g>
<!-- Leonardo Moura,960603618 [fb:1]&#45;&gt;Luciano Alves,957445164 [fb:&#45;1] -->
<g id="edge6" class="edge">
<title>Leonardo Moura,960603618 [fb:1]&#45;&gt;Luciano Alves,957445164 [fb:&#45;1]</title>
<path fill="none" stroke="black" d="M964.94,-288.41C943.44,-278.64 916.06,-266.19 893.13,-255.77"/>
<polygon fill="black" stroke="black" points="894.49,-252.54 883.94,-251.59 891.59,-258.92 894.49,-252.54"/>
</g>
<!-- Lucas Porto,963044256 [fb:0] -->
<g id="node8" class="node">
<title>Lucas Porto,963044256 [fb:0]</title>
<ellipse fill="none" stroke="black" cx="1175.44" cy="-234" rx="148.67" ry="18"/>
<text text-anchor="middle" x="1175.44" y="-230.3" font-family="Times,serif" font-size="14.00">Lucas Porto,963044256 [fb:0]</text>
</g>
<!-- Leonardo Moura,960603618 [fb:1]&#45;&gt;Lucas Porto,963044256 [fb:0] -->
<g id="edge7" class="edge">
<title>Leonardo Moura,960603618 [fb:1]&#45;&gt;Lucas Porto,963044256 [fb:0]</title>
<path fill="none" stroke="black" d="M1042.67,-288.41C1067.46,-278.44 1099.19,-265.67 1125.41,-255.13"/>
<polygon fill="black" stroke="black" points="1126.83,-258.33 1134.8,-251.35 1124.21,-251.83 1126.83,-258.33"/>
</g>
<!-- Lucas Alves,965676688 [fb:&#45;1] -->
<g id="node10" class="node">
<title>Lucas Alves,965676688 [fb:&#45;1]</title>
<ellipse fill="none" stroke="black" cx="1679.44" cy="-306" rx="151.37" ry="18"/>
<text text-anchor="middle" x="1679.44" y="-302.3" font-family="Times,serif" font-size="14.00">Lucas Alves,965676688 [fb:&#45;1]</text>
</g>
<!-- Luciano Alves,972414839 [fb:0]&#45;&gt;Lucas Alves,965676688 [fb:&#45;1] -->
<g id="edge9" class="edge">
<title>Luciano Alves,972414839 [fb:0]&#45;&gt;Lucas Alves,965676688 [fb:&#45;1]</title>
<path fill="none" stroke="black" d="M1679.44,-359.7C1679.44,-351.98 1679.44,-342.71 1679.44,-334.11"/>
<polygon fill="black" stroke="black" points="1682.94,-334.1 1679.44,-324.1 1675.94,-334.1 1682.94,-334.1"/>
</g>
<!-- Luciano Campos,988896876 [fb:0] -->
<g id="node14" class="node">
<title>Luciano Campos,988896876 [fb:0]</title>
<ellipse fill="none" stroke="black" cx="2373.44" cy="-306" rx="170.07" ry="18"/>
<text text-anchor="middle" x="2373.44" y="-302.3" font-family="Times,serif" font-size="14.00">Luciano Campos,988896876 [fb:0]</text>
</g>
<!-- Luciano Alves,972414839 [fb:0]&#45;&gt;Luciano Campos,988896876 [fb:0] -->
<g id="edge13" class="edge">
<title>Luciano Alves,972414839 [fb:0]&#45;&gt;Luciano Campos,988896876 [fb:0]</title>
<path fill="none" stroke="black" d="M1793.26,-365.52C1917.31,-353.01 2115.36,-333.03 2244.92,-319.96"/>
<polygon fill="black" stroke="black" points="2245.3,-323.44 2254.9,-318.96 2244.6,-316.48 2245.3,-323.44"/>
</g>
<!-- Lucas Campos,964925108 [fb:0] -->
<g id="node11" class="node">
<title>Lucas Campos,964925108 [fb:0]</title>
<ellipse fill="none" stroke="black" cx="1503.44" cy="-234" rx="161.37" ry="18"/>
<text text-anchor="middle" x="1503.44" y="-230.3" font-family="Times,serif" font-size="14.00">Lucas Campos,964925108 [fb:0]</text>
</g>
<!-- Lucas Alves,965676688 [fb:&#45;1]&#45;&gt;Lucas Campos,964925108 [fb:0] -->
<g id="edge10" class="edge">
<title>Lucas Alves,965676688 [fb:&#45;1]&#45;&gt;Lucas Campos,964925108 [fb:0]</title>
<path fill="none" stroke="black" d="M1638.17,-288.59C1613.11,-278.62 1580.91,-265.82 1554.28,-255.22"/>
<polygon fill="black" stroke="black" points="1555.33,-251.87 1544.75,-251.43 1552.75,-258.38 1555.33,-251.87"/>
</g>
<!-- Luciano Barbosa,971641435 [fb:&#45;1] -->
<g id="node12" class="node">
<title>Luciano Barbosa,971641435 [fb:&#45;1]</title>
<ellipse fill="none" stroke="black" cx="1856.44" cy="-234" rx="174.37" ry="18"/>
<text text-anchor="middle" x="1856.44" y="-230.3" font-family="Times,serif" font-size="14.00">Luciano Barbosa,971641435 [fb:&#45;1]</text>
</g>
<!-- Lucas Alves,965676688 [fb:&#45;1]&#45;&gt;Luciano Barbosa,971641435 [fb:&#45;1] -->
<g id="edge11" class="edge">
<title>Lucas Alves,965676688 [fb:&#45;1]&#45;&gt;Luciano Barbosa,971641435 [fb:&#45;1]</title>
<path fill="none" stroke="black" d="M1720.94,-288.59C1746.05,-278.65 1778.28,-265.91 1805.01,-255.34"/>
<polygon fill="black" stroke="black" points="1806.57,-258.48 1814.58,-251.55 1804,-251.97 1806.57,-258.48"/>
</g>
<!-- Luciano Rodrigues,966049029 [fb:0] -->
<g id="node13" class="node">
<title>Luciano Rodrigues,966049029 [fb:0]</title>
<ellipse fill="none" stroke="black" cx="1808.44" cy="-162" rx="180.87" ry="18"/>
<text text-anchor="middle" x="1808.44" y="-158.3" font-family="Times,serif" font-size="14.00">Luciano Rodrigues,966049029 [fb:0]</text>
</g>
<!-- Luciano Barbosa,971641435 [fb:&#45;1]&#45;&gt;Luciano Rodrigues,966049029 [fb:0] -->
<g id="edge12" class="edge">
<title>Luciano Barbosa,971641435 [fb:&#45;1]&#45;&gt;Luciano Rodrigues,966049029 [fb:0]</title>
<path fill="none" stroke="black" d="M1844.57,-215.7C1838.93,-207.47 1832.08,-197.48 1825.87,-188.42"/>
<polygon fill="black" stroke="black" points="1828.71,-186.37 1820.17,-180.1 1822.93,-190.33 1828.71,-186.37"/>
</g>
<!-- Luciano Moura,980828374 [fb:0] -->
<g id="node15" class="node">
<title>Luciano Moura,980828374 [fb:0]</title>
<ellipse fill="none" stroke="black" cx="2373.44" cy="-234" rx="163.27" ry="18"/>
<text text-anchor="middle" x="2373.44" y="-230.3" font-family="Times,serif" font-size="14.00">Luciano Moura,980828374 [fb:0]</text>
</g>
<!-- Luciano Campos,988896876 [fb:0]&#45;&gt;Luciano Moura,980828374 [fb:0] -->
<g id="edge14" class="edge">
<title>Luciano Campos,988896876 [fb:0]&#45;&gt;Luciano Moura,980828374 [fb:0]</title>
<path fill="none" stroke="black" d="M2373.44,-287.7C2373.44,-279.98 2373.44,-270.71 2373.44,-262.11"/>
<polygon fill="black" stroke="black" points="2376.94,-262.1 2373.44,-252.1 2369.94,-262.1 2376.94,-262.1"/>
</g>
<!-- Luiz Silva,990920197 [fb:&#45;1] -->
<g id="node18" class="node">
<title>Luiz Silva,990920197 [fb:&#45;1]</title>
<ellipse fill="none" stroke="black" cx="2793.44" cy="-234" rx="142.17" ry="18"/>
<text text-anchor="middle" x="2793.44" y="-230.3" font-family="Times,serif" font-size="14.00">Luiz Silva,990920197 [fb:&#45;1]</text>
</g>
<!-- Luciano Campos,988896876 [fb:0]&#45;&gt;Luiz Silva,990920197 [fb:&#45;1] -->
<g id="edge17" class="edge">
<title>Luciano Campos,988896876 [fb:0]&#45;&gt;Luiz Silva,990920197 [fb:&#45;1]</title>
<path fill="none" stroke="black" d="M2460.46,-290.5C2530.8,-278.77 2629.55,-262.31 2701.23,-250.37"/>
<polygon fill="black" stroke="black" points="2701.88,-253.81 2711.16,-248.71 2700.73,-246.9 2701.88,-253.81"/>
</g>
<!-- Lucas Torres,976149330 [fb:1] -->
<g id="node16" class="node">
<title>Lucas Torres,976149330 [fb:1]</title>
<ellipse fill="none" stroke="black" cx="2160.44" cy="-162" rx="153.27" ry="18"/>
<text text-anchor="middle" x="2160.44" y="-158.3" font-family="Times,serif" font-size="14.00">Lucas Torres,976149330 [fb:1]</text>
</g>
<!-- Luciano Moura,980828374 [fb:0]&#45;&gt;Lucas Torres,976149330 [fb:1] -->
<g id="edge15" class="edge">
<title>Luciano Moura,980828374 [fb:0]&#45;&gt;Lucas Torres,976149330 [fb:1]</title>
<path fill="none" stroke="black" d="M2324.03,-216.76C2292.72,-206.47 2252.04,-193.11 2219.09,-182.28"/>
<polygon fill="black" stroke="black" points="2220.16,-178.94 2209.57,-179.15 2217.98,-185.59 2220.16,-178.94"/>
</g>
<!-- Luciano Silva,987763914 [fb:0] -->
<g id="node17" class="node">
<title>Luciano Silva,987763914 [fb:0]</title>
<ellipse fill="none" stroke="black" cx="2487.44" cy="-162" rx="155.97" ry="18"/>
<text text-anchor="middle" x="2487.44" y="-158.3" font-family="Times,serif" font-size="14.00">Luciano Silva,987763914 [fb:0]</text>
</g>
<!-- Luciano Moura,980828374 [fb:0]&#45;&gt;Luciano Silva,987763914 [fb:0] -->
<g id="edge16" class="edge">
<title>Luciano Moura,980828374 [fb:0]&#45;&gt;Luciano Silva,987763914 [fb:0]</title>
<path fill="none" stroke="black" d="M2400.74,-216.23C2415.86,-206.95 2434.84,-195.29 2451.19,-185.26"/>
<polygon fill="black" stroke="black" points="2453.27,-188.09 2459.96,-179.87 2449.61,-182.12 2453.27,-188.09"/>
</g>
<!-- Luciano Rodrigues,993487643 [fb:0] -->
<g id="node19" class="node">
<title>Luciano Rodrigues,993487643 [fb:0]</title>
<ellipse fill="none" stroke="black" cx="2842.44" cy="-162" rx="180.87" ry="18"/>
<text text-anchor="middle" x="2842.44" y="-158.3" font-family="Times,serif" font-size="14.00">Luciano Rodrigues,993487643 [fb:0]</text>
</g>
<!-- Luiz Silva,990920197 [fb:&#45;1]&#45;&gt;Luciano Rodrigues,993487643 [fb:0] -->
<g id="edge18" class="edge">
<title>Luiz Silva,990920197 [fb:&#45;1]&#45;&gt;Luciano Rodrigues,993487643 [fb:0]</title>
<path fill="none" stroke="black" d="M2805.3,-216.05C2811.05,-207.84 2818.08,-197.79 2824.47,-188.66"/>
<polygon fill="black" stroke="black" points="2827.48,-190.47 2830.34,-180.28 2821.74,-186.46 2827.48,-190.47"/>
</g>
<!-- Leonardo Coelho,994743486 [fb:1] -->
<g id="node20" class="node">
<title>Leonardo Coelho,994743486 [fb:1]</title>
<ellipse fill="none" stroke="black" cx="2842.44" cy="-90" rx="172.47" ry="18"/>
<text text-anchor="middle" x="2842.44" y="-86.3" font-family="Times,serif" font-size="14.00">Leonardo Coelho,994743486 [fb:1]</text>
</g>
<!-- Luciano Rodrigues,993487643 [fb:0]&#45;&gt;Leonardo Coelho,994743486 [fb:1] -->
<g id="edge19" class="edge">
<title>Luciano Rodrigues,993487643 [fb:0]&#45;&gt;Leonardo Coelho,994743486 [fb:1]</title>
<path fill="none" stroke="black" d="M2842.44,-143.7C2842.44,-135.98 2842.44,-126.71 2842.44,-118.11"/>
<polygon fill="black" stroke="black" points="2845.94,-118.1 2842.44,-108.1 2838.94,-118.1 2845.94,-118.1"/>
</g>
<!-- Luiz Silva,996877113 [fb:0] -->
<g id="node21" class="node">
<title>Luiz Silva,996877113 [fb:0]</title>
<ellipse fill="none" stroke="black" cx="2842.44" cy="-18" rx="139.98" ry="18"/>
<text text-anchor="middle" x="2842.44" y="-14.3" font-family="Times,serif" font-size="14.00">Luiz Silva,996877113 [fb:0]</text>
</g>
<!-- Leonardo Coelho,994743486 [fb:1]&#45;&gt;Luiz Silva,996877113 [fb:0] -->
<g id="edge20" class="edge">
<title>Leonardo Coelho,994743486 [fb:1]&#45;&gt;Luiz Silva,996877113 [fb:0]</title>
<path fill="none" stroke="black" d="M2842.44,-71.7C2842.44,-63.98 2842.44,-54.71 2842.44,-46.11"/>
<polygon fill="black" stroke="black" points="2845.94,-46.1 2842.44,-36.1 2838.94,-46.1 2845.94,-46.1"/>
</g>
</g>
</svg>
