<?xml version="1.0" encoding="UTF-8" standalone="no"?>
<!DOCTYPE svg PUBLIC "-//W3C//DTD SVG 1.1//EN"
 "http://www.w3.org/Graphics/SVG/1.1/DTD/svg11.dtd">
<!-- Generated by graphviz version 2.43.0 (0)
 -->
<!-- Title: BST Pages: 1 -->
<svg width="1246pt" height="374pt"
 viewBox="0.00 0.00 1246.12 374.39" xmlns="http://www.w3.org/2000/svg" xmlns:xlink="http://www.w3.org/1999/xlink">
<g id="graph0" class="graph" transform="scale(1 1) rotate(0) translate(4 370.39)">
<title>BST</title>
<polygon fill="white" stroke="transparent" points="-4,4 -4,-370.39 1242.12,-370.39 1242.12,4 -4,4"/>
<!-- Yago Barbosa,976786212 [fb:&#45;1] -->
<g id="node1" class="node">
<title>Yago Barbosa,976786212 [fb:&#45;1]</title>
<ellipse fill="none" stroke="black" cx="624.54" cy="-348.39" rx="159.77" ry="18"/>
<text text-anchor="middle" x="624.54" y="-344.69" font-family="Times,serif" font-size="14.00">Yago Barbosa,976786212 [fb:&#45;1]</text>
</g>
<!-- Yago Costa,970946418 [fb:1] -->
<g id="node2" class="node">
<title>Yago Costa,970946418 [fb:1]</title>
<ellipse fill="none" stroke="black" cx="466.54" cy="-276.39" rx="145.67" ry="18"/>
<text text-anchor="middle" x="466.54" y="-272.69" font-family="Times,serif" font-size="14.00">Yago Costa,970946418 [fb:1]</text>
</g>
<!-- Yago Barbosa,976786212 [fb:&#45;1]&#45;&gt;Yago Costa,970946418 [fb:1] -->
<g id="edge1" class="edge">
<title>Yago Barbosa,976786212 [fb:&#45;1]&#45;&gt;Yago Costa,970946418 [fb:1]</title>
<path fill="none" stroke="black" d="M587.09,-330.8C564.96,-320.99 536.73,-308.49 513.16,-298.05"/>
<polygon fill="black" stroke="black" points="514.27,-294.71 503.71,-293.86 511.44,-301.11 514.27,-294.71"/>
</g>
<!-- Yago Santos,980740362 [fb:0] -->
<g id="node11" class="node">
<title>Yago Santos,980740362 [fb:0]</title>
<ellipse fill="none" stroke="black" cx="783.54" cy="-276.39" rx="150.57" ry="18"/>
<text text-anchor="middle" x="783.54" y="-272.69" font-family="Times,serif" font-size="14.00">Yago Santos,980740362 [fb:0]</text>
</g>
<!-- Yago Barbosa,976786212 [fb:&#45;1]&#45;&gt;Yago Santos,980740362 [fb:0] -->
<g id="edge10" class="edge">
<title>Yago Barbosa,976786212 [fb:&#45;1]&#45;&gt;Yago Santos,980740362 [fb:0]</title>
<path fill="none" stroke="black" d="M662.22,-330.8C684.59,-320.95 713.15,-308.38 736.93,-297.91"/>
<polygon fill="black" stroke="black" points="738.38,-301.09 746.13,-293.86 735.56,-294.69 738.38,-301.09"/>
</g>
<!-- Yago Farias,953720569 [fb:0] -->
<g id="node3" class="node">
<title>Yago Farias,953720569 [fb:0]</title>
<ellipse fill="none" stroke="black" cx="147.54" cy="-204.39" rx="147.57" ry="18"/>
<text text-anchor="middle" x="147.54" y="-200.69" font-family="Times,serif" font-size="14.00">Yago Farias,953720569 [fb:0]</text>
</g>
<!-- Yago Costa,970946418 [fb:1]&#45;&gt;Yago Farias,953720569 [fb:0] -->
<g id="edge2" class="edge">
<title>Yago Costa,970946418 [fb:1]&#45;&gt;Yago Farias,953720569 [fb:0]</title>
<path fill="none" stroke="black" d="M398.49,-260.46C347.87,-249.35 278.68,-234.17 225.77,-222.56"/>
<polygon fill="black" stroke="black" points="226.27,-219.08 215.75,-220.36 224.77,-225.92 226.27,-219.08"/>
</g>
<!-- Yago Coelho,974069061 [fb:&#45;1] -->
<g id="node6" class="node">
<title>Yago Coelho,974069061 [fb:&#45;1]</title>
<ellipse fill="none" stroke="black" cx="466.54" cy="-204.39" rx="153.27" ry="18"/>
<text text-anchor="middle" x="466.54" y="-200.69" font-family="Times,serif" font-size="14.00">Yago Coelho,974069061 [fb:&#45;1]</text>
</g>
<!-- Yago Costa,970946418 [fb:1]&#45;&gt;Yago Coelho,974069061 [fb:&#45;1] -->
<g id="edge5" class="edge">
<title>Yago Costa,970946418 [fb:1]&#45;&gt;Yago Coelho,974069061 [fb:&#45;1]</title>
<path fill="none" stroke="black" d="M466.54,-258.09C466.54,-250.37 466.54,-241.1 466.54,-232.5"/>
<polygon fill="black" stroke="black" points="470.04,-232.49 466.54,-222.49 463.04,-232.49 470.04,-232.49"/>
</g>
<!-- N0 -->
<g id="node4" class="node">
<title>N0</title>
<ellipse fill="none" stroke="black" cx="110.54" cy="-121.79" rx="28.7" ry="28.7"/>
<text text-anchor="middle" x="110.54" y="-118.09" font-family="Times,serif" font-size="14.00">null</text>
</g>
<!-- Yago Farias,953720569 [fb:0]&#45;&gt;N0 -->
<g id="edge3" class="edge">
<title>Yago Farias,953720569 [fb:0]&#45;&gt;N0</title>
<path fill="none" stroke="black" d="M139.69,-186.3C135.83,-177.89 131.04,-167.45 126.46,-157.47"/>
<polygon fill="black" stroke="black" points="129.52,-155.76 122.17,-148.13 123.16,-158.68 129.52,-155.76"/>
</g>
<!-- N1 -->
<g id="node5" class="node">
<title>N1</title>
<ellipse fill="none" stroke="black" cx="185.54" cy="-121.79" rx="28.7" ry="28.7"/>
<text text-anchor="middle" x="185.54" y="-118.09" font-family="Times,serif" font-size="14.00">null</text>
</g>
<!-- Yago Farias,953720569 [fb:0]&#45;&gt;N1 -->
<g id="edge4" class="edge">
<title>Yago Farias,953720569 [fb:0]&#45;&gt;N1</title>
<path fill="none" stroke="black" d="M155.6,-186.3C159.56,-177.89 164.48,-167.45 169.19,-157.47"/>
<polygon fill="black" stroke="black" points="172.49,-158.67 173.59,-148.13 166.16,-155.68 172.49,-158.67"/>
</g>
<!-- Yago Costa,973031060 [fb:0] -->
<g id="node7" class="node">
<title>Yago Costa,973031060 [fb:0]</title>
<ellipse fill="none" stroke="black" cx="437.54" cy="-121.79" rx="145.67" ry="18"/>
<text text-anchor="middle" x="437.54" y="-118.09" font-family="Times,serif" font-size="14.00">Yago Costa,973031060 [fb:0]</text>
</g>
<!-- Yago Coelho,974069061 [fb:&#45;1]&#45;&gt;Yago Costa,973031060 [fb:0] -->
<g id="edge6" class="edge">
<title>Yago Coelho,974069061 [fb:&#45;1]&#45;&gt;Yago Costa,973031060 [fb:0]</title>
<path fill="none" stroke="black" d="M460.39,-186.3C456.54,-175.61 451.51,-161.62 447.15,-149.5"/>
<polygon fill="black" stroke="black" points="450.36,-148.08 443.68,-139.86 443.77,-150.45 450.36,-148.08"/>
</g>
<!-- N4 -->
<g id="node10" class="node">
<title>N4</title>
<ellipse fill="none" stroke="black" cx="629.54" cy="-121.79" rx="28.7" ry="28.7"/>
<text text-anchor="middle" x="629.54" y="-118.09" font-family="Times,serif" font-size="14.00">null</text>
</g>
<!-- Yago Coelho,974069061 [fb:&#45;1]&#45;&gt;N4 -->
<g id="edge9" class="edge">
<title>Yago Coelho,974069061 [fb:&#45;1]&#45;&gt;N4</title>
<path fill="none" stroke="black" d="M512.41,-187.19C536.88,-177.79 567.1,-164.94 592.54,-150.39 594.73,-149.14 596.94,-147.77 599.14,-146.35"/>
<polygon fill="black" stroke="black" points="601.19,-149.19 607.43,-140.63 597.21,-143.42 601.19,-149.19"/>
</g>
<!-- N2 -->
<g id="node8" class="node">
<title>N2</title>
<ellipse fill="none" stroke="black" cx="400.54" cy="-28.6" rx="28.7" ry="28.7"/>
<text text-anchor="middle" x="400.54" y="-24.9" font-family="Times,serif" font-size="14.00">null</text>
</g>
<!-- Yago Costa,973031060 [fb:0]&#45;&gt;N2 -->
<g id="edge7" class="edge">
<title>Yago Costa,973031060 [fb:0]&#45;&gt;N2</title>
<path fill="none" stroke="black" d="M430.58,-103.64C426.13,-92.68 420.2,-78.07 414.79,-64.72"/>
<polygon fill="black" stroke="black" points="417.97,-63.25 410.96,-55.3 411.48,-65.88 417.97,-63.25"/>
</g>
<!-- N3 -->
<g id="node9" class="node">
<title>N3</title>
<ellipse fill="none" stroke="black" cx="475.54" cy="-28.6" rx="28.7" ry="28.7"/>
<text text-anchor="middle" x="475.54" y="-24.9" font-family="Times,serif" font-size="14.00">null</text>
</g>
<!-- Yago Costa,973031060 [fb:0]&#45;&gt;N3 -->
<g id="edge8" class="edge">
<title>Yago Costa,973031060 [fb:0]&#45;&gt;N3</title>
<path fill="none" stroke="black" d="M444.68,-103.64C449.25,-92.68 455.34,-78.07 460.9,-64.72"/>
<polygon fill="black" stroke="black" points="464.21,-65.87 464.83,-55.3 457.75,-63.18 464.21,-65.87"/>
</g>
<!-- Yago Costa,977426233 [fb:0] -->
<g id="node12" class="node">
<title>Yago Costa,977426233 [fb:0]</title>
<ellipse fill="none" stroke="black" cx="783.54" cy="-204.39" rx="145.67" ry="18"/>
<text text-anchor="middle" x="783.54" y="-200.69" font-family="Times,serif" font-size="14.00">Yago Costa,977426233 [fb:0]</text>
</g>
<!-- Yago Santos,980740362 [fb:0]&#45;&gt;Yago Costa,977426233 [fb:0] -->
<g id="edge11" class="edge">
<title>Yago Santos,980740362 [fb:0]&#45;&gt;Yago Costa,977426233 [fb:0]</title>
<path fill="none" stroke="black" d="M783.54,-258.09C783.54,-250.37 783.54,-241.1 783.54,-232.5"/>
<polygon fill="black" stroke="black" points="787.04,-232.49 783.54,-222.49 780.04,-232.49 787.04,-232.49"/>
</g>
<!-- Yago Costa,994390255 [fb:0] -->
<g id="node15" class="node">
<title>Yago Costa,994390255 [fb:0]</title>
<ellipse fill="none" stroke="black" cx="1092.54" cy="-204.39" rx="145.67" ry="18"/>
<text text-anchor="middle" x="1092.54" y="-200.69" font-family="Times,serif" font-size="14.00">Yago Costa,994390255 [fb:0]</text>
</g>
<!-- Yago Santos,980740362 [fb:0]&#45;&gt;Yago Costa,994390255 [fb:0] -->
<g id="edge14" class="edge">
<title>Yago Santos,980740362 [fb:0]&#45;&gt;Yago Costa,994390255 [fb:0]</title>
<path fill="none" stroke="black" d="M850.59,-260.2C899.34,-249.16 965.42,-234.19 1016.21,-222.68"/>
<polygon fill="black" stroke="black" points="1017.17,-226.05 1026.15,-220.43 1015.62,-219.22 1017.17,-226.05"/>
</g>
<!-- N5 -->
<g id="node13" class="node">
<title>N5</title>
<ellipse fill="none" stroke="black" cx="736.54" cy="-121.79" rx="28.7" ry="28.7"/>
<text text-anchor="middle" x="736.54" y="-118.09" font-family="Times,serif" font-size="14.00">null</text>
</g>
<!-- Yago Costa,977426233 [fb:0]&#45;&gt;N5 -->
<g id="edge12" class="edge">
<title>Yago Costa,977426233 [fb:0]&#45;&gt;N5</title>
<path fill="none" stroke="black" d="M773.57,-186.3C768.4,-177.43 761.91,-166.3 755.81,-155.84"/>
<polygon fill="black" stroke="black" points="758.65,-153.77 750.59,-146.89 752.6,-157.29 758.65,-153.77"/>
</g>
<!-- N6 -->
<g id="node14" class="node">
<title>N6</title>
<ellipse fill="none" stroke="black" cx="811.54" cy="-121.79" rx="28.7" ry="28.7"/>
<text text-anchor="middle" x="811.54" y="-118.09" font-family="Times,serif" font-size="14.00">null</text>
</g>
<!-- Yago Costa,977426233 [fb:0]&#45;&gt;N6 -->
<g id="edge13" class="edge">
<title>Yago Costa,977426233 [fb:0]&#45;&gt;N6</title>
<path fill="none" stroke="black" d="M789.47,-186.3C792.29,-178.19 795.77,-168.18 799.13,-158.52"/>
<polygon fill="black" stroke="black" points="802.43,-159.66 802.41,-149.06 795.82,-157.36 802.43,-159.66"/>
</g>
<!-- N7 -->
<g id="node16" class="node">
<title>N7</title>
<ellipse fill="none" stroke="black" cx="1054.54" cy="-121.79" rx="28.7" ry="28.7"/>
<text text-anchor="middle" x="1054.54" y="-118.09" font-family="Times,serif" font-size="14.00">null</text>
</g>
<!-- Yago Costa,994390255 [fb:0]&#45;&gt;N7 -->
<g id="edge15" class="edge">
<title>Yago Costa,994390255 [fb:0]&#45;&gt;N7</title>
<path fill="none" stroke="black" d="M1084.48,-186.3C1080.52,-177.89 1075.59,-167.45 1070.89,-157.47"/>
<polygon fill="black" stroke="black" points="1073.91,-155.68 1066.48,-148.13 1067.58,-158.67 1073.91,-155.68"/>
</g>
<!-- N8 -->
<g id="node17" class="node">
<title>N8</title>
<ellipse fill="none" stroke="black" cx="1129.54" cy="-121.79" rx="28.7" ry="28.7"/>
<text text-anchor="middle" x="1129.54" y="-118.09" font-family="Times,serif" font-size="14.00">null</text>
</g>
<!-- Yago Costa,994390255 [fb:0]&#45;&gt;N8 -->
<g id="edge16" class="edge">
<title>Yago Costa,994390255 [fb:0]&#45;&gt;N8</title>
<path fill="none" stroke="black" d="M1100.38,-186.3C1104.24,-177.89 1109.04,-167.45 1113.62,-157.47"/>
<polygon fill="black" stroke="black" points="1116.91,-158.68 1117.91,-148.13 1110.55,-155.76 1116.91,-158.68"/>
</g>
</g>
</svg>
