<?xml version="1.0" encoding="UTF-8" standalone="no"?>
<!DOCTYPE svg PUBLIC "-//W3C//DTD SVG 1.1//EN"
 "http://www.w3.org/Graphics/SVG/1.1/DTD/svg11.dtd">
<!-- Generated by graphviz version 2.43.0 (0)
 -->
<!-- Title: BST Pages: 1 -->
<svg width="640pt" height="607pt"
 viewBox="0.00 0.00 639.51 606.77" xmlns="http://www.w3.org/2000/svg" xmlns:xlink="http://www.w3.org/1999/xlink">
<g id="graph0" class="graph" transform="scale(1 1) rotate(0) translate(4 602.77)">
<title>BST</title>
<polygon fill="white" stroke="transparent" points="-4,4 -4,-602.77 635.51,-602.77 635.51,4 -4,4"/>
<!-- No_986979432 -->
<g id="node1" class="node">
<title>No_986979432</title>
<ellipse fill="none" stroke="black" cx="291.56" cy="-561.29" rx="107.46" ry="37.45"/>
<text text-anchor="middle" x="291.56" y="-572.59" font-family="Times,serif" font-size="14.00">Américo Rodrigues</text>
<text text-anchor="middle" x="291.56" y="-557.59" font-family="Times,serif" font-size="14.00">986979432</text>
<text text-anchor="middle" x="291.56" y="-542.59" font-family="Times,serif" font-size="14.00">fb=0</text>
</g>
<!-- No_985278999 -->
<g id="node2" class="node">
<title>No_985278999</title>
<ellipse fill="none" stroke="black" cx="195.56" cy="-450.34" rx="75.82" ry="37.45"/>
<text text-anchor="middle" x="195.56" y="-461.64" font-family="Times,serif" font-size="14.00">Acir Campos</text>
<text text-anchor="middle" x="195.56" y="-446.64" font-family="Times,serif" font-size="14.00">985278999</text>
<text text-anchor="middle" x="195.56" y="-431.64" font-family="Times,serif" font-size="14.00">fb=&#45;1</text>
</g>
<!-- No_986979432&#45;&gt;No_985278999 -->
<g id="edge1" class="edge">
<title>No_986979432&#45;&gt;No_985278999</title>
<path fill="none" stroke="black" d="M260.66,-525.22C251.48,-514.8 241.35,-503.3 231.87,-492.54"/>
<polygon fill="black" stroke="black" points="234.33,-490.05 225.1,-484.86 229.08,-494.68 234.33,-490.05"/>
</g>
<!-- No_994116870 -->
<g id="node13" class="node">
<title>No_994116870</title>
<ellipse fill="none" stroke="black" cx="388.56" cy="-450.34" rx="98.99" ry="37.45"/>
<text text-anchor="middle" x="388.56" y="-461.64" font-family="Times,serif" font-size="14.00">Alexandra Moura</text>
<text text-anchor="middle" x="388.56" y="-446.64" font-family="Times,serif" font-size="14.00">994116870</text>
<text text-anchor="middle" x="388.56" y="-431.64" font-family="Times,serif" font-size="14.00">fb=0</text>
</g>
<!-- No_986979432&#45;&gt;No_994116870 -->
<g id="edge12" class="edge">
<title>No_986979432&#45;&gt;No_994116870</title>
<path fill="none" stroke="black" d="M322.79,-525.22C331.79,-515.1 341.7,-503.97 351.05,-493.47"/>
<polygon fill="black" stroke="black" points="353.69,-495.77 357.72,-485.97 348.46,-491.11 353.69,-495.77"/>
</g>
<!-- No_960933790 -->
<g id="node3" class="node">
<title>No_960933790</title>
<ellipse fill="none" stroke="black" cx="85.56" cy="-339.38" rx="85.62" ry="37.45"/>
<text text-anchor="middle" x="85.56" y="-350.68" font-family="Times,serif" font-size="14.00">Andrea Santos</text>
<text text-anchor="middle" x="85.56" y="-335.68" font-family="Times,serif" font-size="14.00">960933790</text>
<text text-anchor="middle" x="85.56" y="-320.68" font-family="Times,serif" font-size="14.00">fb=0</text>
</g>
<!-- No_985278999&#45;&gt;No_960933790 -->
<g id="edge2" class="edge">
<title>No_985278999&#45;&gt;No_960933790</title>
<path fill="none" stroke="black" d="M162.26,-416.35C151.05,-405.25 138.41,-392.73 126.68,-381.11"/>
<polygon fill="black" stroke="black" points="129.08,-378.56 119.51,-374.01 124.15,-383.53 129.08,-378.56"/>
</g>
<!-- NUL_5 -->
<g id="node12" class="node">
<title>NUL_5</title>
<polygon fill="none" stroke="black" points="233.56,-361.38 189.56,-361.38 189.56,-317.38 233.56,-317.38 233.56,-361.38"/>
<text text-anchor="middle" x="211.56" y="-335.68" font-family="Times,serif" font-size="14.00">null</text>
</g>
<!-- No_985278999&#45;&gt;NUL_5 -->
<g id="edge11" class="edge">
<title>No_985278999&#45;&gt;NUL_5</title>
<path fill="none" stroke="black" d="M200.93,-412.75C202.89,-399.42 205.08,-384.49 206.97,-371.66"/>
<polygon fill="black" stroke="black" points="210.47,-371.86 208.46,-361.46 203.55,-370.85 210.47,-371.86"/>
</g>
<!-- NUL_0 -->
<g id="node4" class="node">
<title>NUL_0</title>
<polygon fill="none" stroke="black" points="54.56,-250.43 10.56,-250.43 10.56,-206.43 54.56,-206.43 54.56,-250.43"/>
<text text-anchor="middle" x="32.56" y="-224.73" font-family="Times,serif" font-size="14.00">null</text>
</g>
<!-- No_960933790&#45;&gt;NUL_0 -->
<g id="edge3" class="edge">
<title>No_960933790&#45;&gt;NUL_0</title>
<path fill="none" stroke="black" d="M68.06,-302.41C61.36,-288.64 53.8,-273.09 47.37,-259.88"/>
<polygon fill="black" stroke="black" points="50.45,-258.21 42.93,-250.75 44.16,-261.27 50.45,-258.21"/>
</g>
<!-- No_967387182 -->
<g id="node5" class="node">
<title>No_967387182</title>
<ellipse fill="none" stroke="black" cx="163.56" cy="-228.43" rx="91.43" ry="37.45"/>
<text text-anchor="middle" x="163.56" y="-239.73" font-family="Times,serif" font-size="14.00">Alfredo Martins</text>
<text text-anchor="middle" x="163.56" y="-224.73" font-family="Times,serif" font-size="14.00">967387182</text>
<text text-anchor="middle" x="163.56" y="-209.73" font-family="Times,serif" font-size="14.00">fb=0</text>
</g>
<!-- No_960933790&#45;&gt;No_967387182 -->
<g id="edge4" class="edge">
<title>No_960933790&#45;&gt;No_967387182</title>
<path fill="none" stroke="black" d="M110.67,-303.31C117.56,-293.69 125.11,-283.14 132.3,-273.09"/>
<polygon fill="black" stroke="black" points="135.26,-274.98 138.23,-264.81 129.56,-270.9 135.26,-274.98"/>
</g>
<!-- No_965115082 -->
<g id="node6" class="node">
<title>No_965115082</title>
<ellipse fill="none" stroke="black" cx="80.56" cy="-117.48" rx="75.82" ry="37.45"/>
<text text-anchor="middle" x="80.56" y="-128.78" font-family="Times,serif" font-size="14.00">Ana Barbosa</text>
<text text-anchor="middle" x="80.56" y="-113.78" font-family="Times,serif" font-size="14.00">965115082</text>
<text text-anchor="middle" x="80.56" y="-98.78" font-family="Times,serif" font-size="14.00">fb=0</text>
</g>
<!-- No_967387182&#45;&gt;No_965115082 -->
<g id="edge5" class="edge">
<title>No_967387182&#45;&gt;No_965115082</title>
<path fill="none" stroke="black" d="M136.84,-192.36C129.21,-182.34 120.82,-171.32 112.89,-160.92"/>
<polygon fill="black" stroke="black" points="115.51,-158.57 106.66,-152.74 109.94,-162.82 115.51,-158.57"/>
</g>
<!-- No_975960513 -->
<g id="node9" class="node">
<title>No_975960513</title>
<ellipse fill="none" stroke="black" cx="247.56" cy="-117.48" rx="73.58" ry="37.45"/>
<text text-anchor="middle" x="247.56" y="-128.78" font-family="Times,serif" font-size="14.00">Altair Souza</text>
<text text-anchor="middle" x="247.56" y="-113.78" font-family="Times,serif" font-size="14.00">975960513</text>
<text text-anchor="middle" x="247.56" y="-98.78" font-family="Times,serif" font-size="14.00">fb=0</text>
</g>
<!-- No_967387182&#45;&gt;No_975960513 -->
<g id="edge8" class="edge">
<title>No_967387182&#45;&gt;No_975960513</title>
<path fill="none" stroke="black" d="M190.6,-192.36C198.32,-182.34 206.82,-171.32 214.84,-160.92"/>
<polygon fill="black" stroke="black" points="217.81,-162.8 221.14,-152.74 212.27,-158.52 217.81,-162.8"/>
</g>
<!-- NUL_1 -->
<g id="node7" class="node">
<title>NUL_1</title>
<polygon fill="none" stroke="black" points="93.56,-44 49.56,-44 49.56,0 93.56,0 93.56,-44"/>
<text text-anchor="middle" x="71.56" y="-18.3" font-family="Times,serif" font-size="14.00">null</text>
</g>
<!-- No_965115082&#45;&gt;NUL_1 -->
<g id="edge6" class="edge">
<title>No_965115082&#45;&gt;NUL_1</title>
<path fill="none" stroke="black" d="M77.03,-79.8C76.22,-71.41 75.37,-62.56 74.58,-54.41"/>
<polygon fill="black" stroke="black" points="78.04,-53.82 73.6,-44.2 71.08,-54.49 78.04,-53.82"/>
</g>
<!-- NUL_2 -->
<g id="node8" class="node">
<title>NUL_2</title>
<polygon fill="none" stroke="black" points="155.56,-44 111.56,-44 111.56,0 155.56,0 155.56,-44"/>
<text text-anchor="middle" x="133.56" y="-18.3" font-family="Times,serif" font-size="14.00">null</text>
</g>
<!-- No_965115082&#45;&gt;NUL_2 -->
<g id="edge7" class="edge">
<title>No_965115082&#45;&gt;NUL_2</title>
<path fill="none" stroke="black" d="M100.6,-81.14C105.86,-71.85 111.49,-61.93 116.58,-52.95"/>
<polygon fill="black" stroke="black" points="119.76,-54.44 121.65,-44.01 113.67,-50.99 119.76,-54.44"/>
</g>
<!-- NUL_3 -->
<g id="node10" class="node">
<title>NUL_3</title>
<polygon fill="none" stroke="black" points="243.56,-44 199.56,-44 199.56,0 243.56,0 243.56,-44"/>
<text text-anchor="middle" x="221.56" y="-18.3" font-family="Times,serif" font-size="14.00">null</text>
</g>
<!-- No_975960513&#45;&gt;NUL_3 -->
<g id="edge9" class="edge">
<title>No_975960513&#45;&gt;NUL_3</title>
<path fill="none" stroke="black" d="M237.51,-80.34C235.09,-71.64 232.53,-62.43 230.18,-54"/>
<polygon fill="black" stroke="black" points="233.5,-52.88 227.45,-44.18 226.76,-54.75 233.5,-52.88"/>
</g>
<!-- NUL_4 -->
<g id="node11" class="node">
<title>NUL_4</title>
<polygon fill="none" stroke="black" points="305.56,-44 261.56,-44 261.56,0 305.56,0 305.56,-44"/>
<text text-anchor="middle" x="283.56" y="-18.3" font-family="Times,serif" font-size="14.00">null</text>
</g>
<!-- No_975960513&#45;&gt;NUL_4 -->
<g id="edge10" class="edge">
<title>No_975960513&#45;&gt;NUL_4</title>
<path fill="none" stroke="black" d="M261.38,-80.6C264.83,-71.63 268.51,-62.08 271.85,-53.4"/>
<polygon fill="black" stroke="black" points="275.13,-54.63 275.46,-44.04 268.6,-52.11 275.13,-54.63"/>
</g>
<!-- No_987671978 -->
<g id="node14" class="node">
<title>No_987671978</title>
<ellipse fill="none" stroke="black" cx="373.56" cy="-339.38" rx="90.52" ry="37.45"/>
<text text-anchor="middle" x="373.56" y="-350.68" font-family="Times,serif" font-size="14.00">Adriana Pereira</text>
<text text-anchor="middle" x="373.56" y="-335.68" font-family="Times,serif" font-size="14.00">987671978</text>
<text text-anchor="middle" x="373.56" y="-320.68" font-family="Times,serif" font-size="14.00">fb=0</text>
</g>
<!-- No_994116870&#45;&gt;No_987671978 -->
<g id="edge13" class="edge">
<title>No_994116870&#45;&gt;No_987671978</title>
<path fill="none" stroke="black" d="M383.52,-412.75C382.39,-404.49 381.16,-395.61 379.98,-386.99"/>
<polygon fill="black" stroke="black" points="383.44,-386.48 378.61,-377.06 376.51,-387.44 383.44,-386.48"/>
</g>
<!-- No_997285865 -->
<g id="node17" class="node">
<title>No_997285865</title>
<ellipse fill="none" stroke="black" cx="556.56" cy="-339.38" rx="74.91" ry="37.45"/>
<text text-anchor="middle" x="556.56" y="-350.68" font-family="Times,serif" font-size="14.00">Almir Torres</text>
<text text-anchor="middle" x="556.56" y="-335.68" font-family="Times,serif" font-size="14.00">997285865</text>
<text text-anchor="middle" x="556.56" y="-320.68" font-family="Times,serif" font-size="14.00">fb=0</text>
</g>
<!-- No_994116870&#45;&gt;No_997285865 -->
<g id="edge16" class="edge">
<title>No_994116870&#45;&gt;No_997285865</title>
<path fill="none" stroke="black" d="M437.6,-417.53C458.2,-404.17 482.22,-388.6 503.25,-374.95"/>
<polygon fill="black" stroke="black" points="505.28,-377.81 511.76,-369.44 501.47,-371.94 505.28,-377.81"/>
</g>
<!-- NUL_6 -->
<g id="node15" class="node">
<title>NUL_6</title>
<polygon fill="none" stroke="black" points="379.56,-250.43 335.56,-250.43 335.56,-206.43 379.56,-206.43 379.56,-250.43"/>
<text text-anchor="middle" x="357.56" y="-224.73" font-family="Times,serif" font-size="14.00">null</text>
</g>
<!-- No_987671978&#45;&gt;NUL_6 -->
<g id="edge14" class="edge">
<title>No_987671978&#45;&gt;NUL_6</title>
<path fill="none" stroke="black" d="M368.19,-301.8C366.23,-288.47 364.04,-273.53 362.15,-260.7"/>
<polygon fill="black" stroke="black" points="365.57,-259.89 360.66,-250.51 358.65,-260.91 365.57,-259.89"/>
</g>
<!-- NUL_7 -->
<g id="node16" class="node">
<title>NUL_7</title>
<polygon fill="none" stroke="black" points="441.56,-250.43 397.56,-250.43 397.56,-206.43 441.56,-206.43 441.56,-250.43"/>
<text text-anchor="middle" x="419.56" y="-224.73" font-family="Times,serif" font-size="14.00">null</text>
</g>
<!-- No_987671978&#45;&gt;NUL_7 -->
<g id="edge15" class="edge">
<title>No_987671978&#45;&gt;NUL_7</title>
<path fill="none" stroke="black" d="M388.75,-302.41C394.51,-288.77 401,-273.39 406.54,-260.27"/>
<polygon fill="black" stroke="black" points="409.89,-261.32 410.56,-250.75 403.45,-258.6 409.89,-261.32"/>
</g>
<!-- NUL_8 -->
<g id="node18" class="node">
<title>NUL_8</title>
<polygon fill="none" stroke="black" points="532.56,-250.43 488.56,-250.43 488.56,-206.43 532.56,-206.43 532.56,-250.43"/>
<text text-anchor="middle" x="510.56" y="-224.73" font-family="Times,serif" font-size="14.00">null</text>
</g>
<!-- No_997285865&#45;&gt;NUL_8 -->
<g id="edge17" class="edge">
<title>No_997285865&#45;&gt;NUL_8</title>
<path fill="none" stroke="black" d="M541.37,-302.41C535.61,-288.77 529.12,-273.39 523.58,-260.27"/>
<polygon fill="black" stroke="black" points="526.67,-258.6 519.56,-250.75 520.22,-261.32 526.67,-258.6"/>
</g>
<!-- NUL_9 -->
<g id="node19" class="node">
<title>NUL_9</title>
<polygon fill="none" stroke="black" points="594.56,-250.43 550.56,-250.43 550.56,-206.43 594.56,-206.43 594.56,-250.43"/>
<text text-anchor="middle" x="572.56" y="-224.73" font-family="Times,serif" font-size="14.00">null</text>
</g>
<!-- No_997285865&#45;&gt;NUL_9 -->
<g id="edge18" class="edge">
<title>No_997285865&#45;&gt;NUL_9</title>
<path fill="none" stroke="black" d="M561.93,-301.8C563.89,-288.47 566.08,-273.53 567.97,-260.7"/>
<polygon fill="black" stroke="black" points="571.47,-260.91 569.46,-250.51 564.55,-259.89 571.47,-260.91"/>
</g>
</g>
</svg>
