<?xml version="1.0" encoding="UTF-8" standalone="no"?>
<!DOCTYPE svg PUBLIC "-//W3C//DTD SVG 1.1//EN"
 "http://www.w3.org/Graphics/SVG/1.1/DTD/svg11.dtd">
<!-- Generated by graphviz version 2.43.0 (0)
 -->
<!-- Title: BST Pages: 1 -->
<svg width="774pt" height="496pt"
 viewBox="0.00 0.00 773.92 495.81" xmlns="http://www.w3.org/2000/svg" xmlns:xlink="http://www.w3.org/1999/xlink">
<g id="graph0" class="graph" transform="scale(1 1) rotate(0) translate(4 491.81)">
<title>BST</title>
<polygon fill="white" stroke="transparent" points="-4,4 -4,-491.81 769.92,-491.81 769.92,4 -4,4"/>
<!-- No_957757463 -->
<g id="node1" class="node">
<title>No_957757463</title>
<ellipse fill="none" stroke="black" cx="465.99" cy="-450.34" rx="106.55" ry="37.45"/>
<text text-anchor="middle" x="465.99" y="-461.64" font-family="Times,serif" font-size="14.00">Cristina Rodrigues</text>
<text text-anchor="middle" x="465.99" y="-446.64" font-family="Times,serif" font-size="14.00">957757463</text>
<text text-anchor="middle" x="465.99" y="-431.64" font-family="Times,serif" font-size="14.00">fb=&#45;1</text>
</g>
<!-- No_923055633 -->
<g id="node2" class="node">
<title>No_923055633</title>
<ellipse fill="none" stroke="black" cx="372.99" cy="-339.38" rx="87.86" ry="37.45"/>
<text text-anchor="middle" x="372.99" y="-350.68" font-family="Times,serif" font-size="14.00">Cristina Torres</text>
<text text-anchor="middle" x="372.99" y="-335.68" font-family="Times,serif" font-size="14.00">923055633</text>
<text text-anchor="middle" x="372.99" y="-320.68" font-family="Times,serif" font-size="14.00">fb=0</text>
</g>
<!-- No_957757463&#45;&gt;No_923055633 -->
<g id="edge1" class="edge">
<title>No_957757463&#45;&gt;No_923055633</title>
<path fill="none" stroke="black" d="M436.06,-414.26C427.51,-404.25 418.1,-393.23 409.22,-382.83"/>
<polygon fill="black" stroke="black" points="411.71,-380.35 402.56,-375.02 406.39,-384.9 411.71,-380.35"/>
</g>
<!-- No_962434215 -->
<g id="node13" class="node">
<title>No_962434215</title>
<ellipse fill="none" stroke="black" cx="559.99" cy="-339.38" rx="81.13" ry="37.45"/>
<text text-anchor="middle" x="559.99" y="-350.68" font-family="Times,serif" font-size="14.00">Carlos Barros</text>
<text text-anchor="middle" x="559.99" y="-335.68" font-family="Times,serif" font-size="14.00">962434215</text>
<text text-anchor="middle" x="559.99" y="-320.68" font-family="Times,serif" font-size="14.00">fb=1</text>
</g>
<!-- No_957757463&#45;&gt;No_962434215 -->
<g id="edge12" class="edge">
<title>No_957757463&#45;&gt;No_962434215</title>
<path fill="none" stroke="black" d="M496.25,-414.26C504.98,-404.15 514.59,-393.01 523.64,-382.52"/>
<polygon fill="black" stroke="black" points="526.55,-384.5 530.43,-374.65 521.25,-379.93 526.55,-384.5"/>
</g>
<!-- No_920744859 -->
<g id="node3" class="node">
<title>No_920744859</title>
<ellipse fill="none" stroke="black" cx="206.99" cy="-228.43" rx="91.43" ry="37.45"/>
<text text-anchor="middle" x="206.99" y="-239.73" font-family="Times,serif" font-size="14.00">Cristina Freitas</text>
<text text-anchor="middle" x="206.99" y="-224.73" font-family="Times,serif" font-size="14.00">920744859</text>
<text text-anchor="middle" x="206.99" y="-209.73" font-family="Times,serif" font-size="14.00">fb=&#45;1</text>
</g>
<!-- No_923055633&#45;&gt;No_920744859 -->
<g id="edge2" class="edge">
<title>No_923055633&#45;&gt;No_920744859</title>
<path fill="none" stroke="black" d="M325.87,-307.45C306.33,-294.63 283.5,-279.64 263.1,-266.26"/>
<polygon fill="black" stroke="black" points="264.81,-263.19 254.53,-260.63 260.97,-269.04 264.81,-263.19"/>
</g>
<!-- No_938859996 -->
<g id="node8" class="node">
<title>No_938859996</title>
<ellipse fill="none" stroke="black" cx="390.99" cy="-228.43" rx="74.91" ry="37.45"/>
<text text-anchor="middle" x="390.99" y="-239.73" font-family="Times,serif" font-size="14.00">Carla Moura</text>
<text text-anchor="middle" x="390.99" y="-224.73" font-family="Times,serif" font-size="14.00">938859996</text>
<text text-anchor="middle" x="390.99" y="-209.73" font-family="Times,serif" font-size="14.00">fb=1</text>
</g>
<!-- No_923055633&#45;&gt;No_938859996 -->
<g id="edge7" class="edge">
<title>No_923055633&#45;&gt;No_938859996</title>
<path fill="none" stroke="black" d="M379.04,-301.8C380.4,-293.54 381.87,-284.65 383.29,-276.04"/>
<polygon fill="black" stroke="black" points="386.76,-276.54 384.94,-266.1 379.85,-275.4 386.76,-276.54"/>
</g>
<!-- No_907184926 -->
<g id="node4" class="node">
<title>No_907184926</title>
<ellipse fill="none" stroke="black" cx="98.99" cy="-117.48" rx="98.99" ry="37.45"/>
<text text-anchor="middle" x="98.99" y="-128.78" font-family="Times,serif" font-size="14.00">Carlos Rodrigues</text>
<text text-anchor="middle" x="98.99" y="-113.78" font-family="Times,serif" font-size="14.00">907184926</text>
<text text-anchor="middle" x="98.99" y="-98.78" font-family="Times,serif" font-size="14.00">fb=0</text>
</g>
<!-- No_920744859&#45;&gt;No_907184926 -->
<g id="edge3" class="edge">
<title>No_920744859&#45;&gt;No_907184926</title>
<path fill="none" stroke="black" d="M173.42,-193.55C162.85,-182.9 151.06,-171 140.04,-159.88"/>
<polygon fill="black" stroke="black" points="142.45,-157.35 132.93,-152.71 137.48,-162.27 142.45,-157.35"/>
</g>
<!-- NUL_2 -->
<g id="node7" class="node">
<title>NUL_2</title>
<polygon fill="none" stroke="black" points="259.99,-139.48 215.99,-139.48 215.99,-95.48 259.99,-95.48 259.99,-139.48"/>
<text text-anchor="middle" x="237.99" y="-113.78" font-family="Times,serif" font-size="14.00">null</text>
</g>
<!-- No_920744859&#45;&gt;NUL_2 -->
<g id="edge6" class="edge">
<title>No_920744859&#45;&gt;NUL_2</title>
<path fill="none" stroke="black" d="M217.32,-191.15C221.15,-177.67 225.47,-162.51 229.16,-149.53"/>
<polygon fill="black" stroke="black" points="232.59,-150.25 231.96,-139.67 225.86,-148.33 232.59,-150.25"/>
</g>
<!-- NUL_0 -->
<g id="node5" class="node">
<title>NUL_0</title>
<polygon fill="none" stroke="black" points="89.99,-44 45.99,-44 45.99,0 89.99,0 89.99,-44"/>
<text text-anchor="middle" x="67.99" y="-18.3" font-family="Times,serif" font-size="14.00">null</text>
</g>
<!-- No_907184926&#45;&gt;NUL_0 -->
<g id="edge4" class="edge">
<title>No_907184926&#45;&gt;NUL_0</title>
<path fill="none" stroke="black" d="M86.92,-80.07C84.01,-71.3 80.94,-62.02 78.13,-53.55"/>
<polygon fill="black" stroke="black" points="81.45,-52.45 74.98,-44.06 74.8,-54.65 81.45,-52.45"/>
</g>
<!-- NUL_1 -->
<g id="node6" class="node">
<title>NUL_1</title>
<polygon fill="none" stroke="black" points="151.99,-44 107.99,-44 107.99,0 151.99,0 151.99,-44"/>
<text text-anchor="middle" x="129.99" y="-18.3" font-family="Times,serif" font-size="14.00">null</text>
</g>
<!-- No_907184926&#45;&gt;NUL_1 -->
<g id="edge5" class="edge">
<title>No_907184926&#45;&gt;NUL_1</title>
<path fill="none" stroke="black" d="M111.07,-80.07C113.98,-71.3 117.05,-62.02 119.86,-53.55"/>
<polygon fill="black" stroke="black" points="123.19,-54.65 123.01,-44.06 116.54,-52.45 123.19,-54.65"/>
</g>
<!-- NUL_3 -->
<g id="node9" class="node">
<title>NUL_3</title>
<polygon fill="none" stroke="black" points="382.99,-139.48 338.99,-139.48 338.99,-95.48 382.99,-95.48 382.99,-139.48"/>
<text text-anchor="middle" x="360.99" y="-113.78" font-family="Times,serif" font-size="14.00">null</text>
</g>
<!-- No_938859996&#45;&gt;NUL_3 -->
<g id="edge8" class="edge">
<title>No_938859996&#45;&gt;NUL_3</title>
<path fill="none" stroke="black" d="M381.01,-191.15C377.29,-177.67 373.12,-162.51 369.55,-149.53"/>
<polygon fill="black" stroke="black" points="372.86,-148.39 366.83,-139.67 366.11,-150.24 372.86,-148.39"/>
</g>
<!-- No_947225601 -->
<g id="node10" class="node">
<title>No_947225601</title>
<ellipse fill="none" stroke="black" cx="476.99" cy="-117.48" rx="76.24" ry="37.45"/>
<text text-anchor="middle" x="476.99" y="-128.78" font-family="Times,serif" font-size="14.00">Carla Coelho</text>
<text text-anchor="middle" x="476.99" y="-113.78" font-family="Times,serif" font-size="14.00">947225601</text>
<text text-anchor="middle" x="476.99" y="-98.78" font-family="Times,serif" font-size="14.00">fb=0</text>
</g>
<!-- No_938859996&#45;&gt;No_947225601 -->
<g id="edge9" class="edge">
<title>No_938859996&#45;&gt;No_947225601</title>
<path fill="none" stroke="black" d="M417.97,-193.26C426.06,-183.01 435.02,-171.65 443.48,-160.94"/>
<polygon fill="black" stroke="black" points="446.37,-162.92 449.82,-152.9 440.88,-158.59 446.37,-162.92"/>
</g>
<!-- NUL_4 -->
<g id="node11" class="node">
<title>NUL_4</title>
<polygon fill="none" stroke="black" points="467.99,-44 423.99,-44 423.99,0 467.99,0 467.99,-44"/>
<text text-anchor="middle" x="445.99" y="-18.3" font-family="Times,serif" font-size="14.00">null</text>
</g>
<!-- No_947225601&#45;&gt;NUL_4 -->
<g id="edge10" class="edge">
<title>No_947225601&#45;&gt;NUL_4</title>
<path fill="none" stroke="black" d="M465.01,-80.34C462.09,-71.55 459.01,-62.23 456.18,-53.72"/>
<polygon fill="black" stroke="black" points="459.49,-52.57 453.02,-44.18 452.85,-54.77 459.49,-52.57"/>
</g>
<!-- NUL_5 -->
<g id="node12" class="node">
<title>NUL_5</title>
<polygon fill="none" stroke="black" points="529.99,-44 485.99,-44 485.99,0 529.99,0 529.99,-44"/>
<text text-anchor="middle" x="507.99" y="-18.3" font-family="Times,serif" font-size="14.00">null</text>
</g>
<!-- No_947225601&#45;&gt;NUL_5 -->
<g id="edge11" class="edge">
<title>No_947225601&#45;&gt;NUL_5</title>
<path fill="none" stroke="black" d="M488.98,-80.34C491.89,-71.55 494.98,-62.23 497.81,-53.72"/>
<polygon fill="black" stroke="black" points="501.14,-54.77 500.97,-44.18 494.5,-52.57 501.14,-54.77"/>
</g>
<!-- NUL_6 -->
<g id="node14" class="node">
<title>NUL_6</title>
<polygon fill="none" stroke="black" points="563.99,-250.43 519.99,-250.43 519.99,-206.43 563.99,-206.43 563.99,-250.43"/>
<text text-anchor="middle" x="541.99" y="-224.73" font-family="Times,serif" font-size="14.00">null</text>
</g>
<!-- No_962434215&#45;&gt;NUL_6 -->
<g id="edge13" class="edge">
<title>No_962434215&#45;&gt;NUL_6</title>
<path fill="none" stroke="black" d="M553.95,-301.8C551.75,-288.47 549.28,-273.53 547.16,-260.7"/>
<polygon fill="black" stroke="black" points="550.56,-259.8 545.48,-250.51 543.65,-260.94 550.56,-259.8"/>
</g>
<!-- No_967404803 -->
<g id="node15" class="node">
<title>No_967404803</title>
<ellipse fill="none" stroke="black" cx="673.99" cy="-228.43" rx="91.85" ry="37.45"/>
<text text-anchor="middle" x="673.99" y="-239.73" font-family="Times,serif" font-size="14.00">Cristina Pereira</text>
<text text-anchor="middle" x="673.99" y="-224.73" font-family="Times,serif" font-size="14.00">967404803</text>
<text text-anchor="middle" x="673.99" y="-209.73" font-family="Times,serif" font-size="14.00">fb=0</text>
</g>
<!-- No_962434215&#45;&gt;No_967404803 -->
<g id="edge14" class="edge">
<title>No_962434215&#45;&gt;No_967404803</title>
<path fill="none" stroke="black" d="M594.51,-305.4C606.12,-294.3 619.22,-281.78 631.38,-270.16"/>
<polygon fill="black" stroke="black" points="634,-272.5 638.81,-263.06 629.16,-267.44 634,-272.5"/>
</g>
<!-- NUL_7 -->
<g id="node16" class="node">
<title>NUL_7</title>
<polygon fill="none" stroke="black" points="664.99,-139.48 620.99,-139.48 620.99,-95.48 664.99,-95.48 664.99,-139.48"/>
<text text-anchor="middle" x="642.99" y="-113.78" font-family="Times,serif" font-size="14.00">null</text>
</g>
<!-- No_967404803&#45;&gt;NUL_7 -->
<g id="edge15" class="edge">
<title>No_967404803&#45;&gt;NUL_7</title>
<path fill="none" stroke="black" d="M663.67,-191.15C659.84,-177.67 655.52,-162.51 651.83,-149.53"/>
<polygon fill="black" stroke="black" points="655.13,-148.33 649.03,-139.67 648.4,-150.25 655.13,-148.33"/>
</g>
<!-- NUL_8 -->
<g id="node17" class="node">
<title>NUL_8</title>
<polygon fill="none" stroke="black" points="726.99,-139.48 682.99,-139.48 682.99,-95.48 726.99,-95.48 726.99,-139.48"/>
<text text-anchor="middle" x="704.99" y="-113.78" font-family="Times,serif" font-size="14.00">null</text>
</g>
<!-- No_967404803&#45;&gt;NUL_8 -->
<g id="edge16" class="edge">
<title>No_967404803&#45;&gt;NUL_8</title>
<path fill="none" stroke="black" d="M684.32,-191.15C688.15,-177.67 692.47,-162.51 696.16,-149.53"/>
<polygon fill="black" stroke="black" points="699.59,-150.25 698.96,-139.67 692.86,-148.33 699.59,-150.25"/>
</g>
</g>
</svg>
