<?xml version="1.0" encoding="UTF-8" standalone="no"?>
<!DOCTYPE svg PUBLIC "-//W3C//DTD SVG 1.1//EN"
 "http://www.w3.org/Graphics/SVG/1.1/DTD/svg11.dtd">
<!-- Generated by graphviz version 2.43.0 (0)
 -->
<!-- Title: BST Pages: 1 -->
<svg width="152pt" height="163pt"
 viewBox="0.00 0.00 152.25 162.95" xmlns="http://www.w3.org/2000/svg" xmlns:xlink="http://www.w3.org/1999/xlink">
<g id="graph0" class="graph" transform="scale(1 1) rotate(0) translate(4 158.95)">
<title>BST</title>
<polygon fill="white" stroke="transparent" points="-4,4 -4,-158.95 148.25,-158.95 148.25,4 -4,4"/>
<!-- No_986809136 -->
<g id="node1" class="node">
<title>No_986809136</title>
<ellipse fill="none" stroke="black" cx="72.12" cy="-117.48" rx="72.25" ry="37.45"/>
<text text-anchor="middle" x="72.12" y="-128.78" font-family="Times,serif" font-size="14.00">Nice Santos</text>
<text text-anchor="middle" x="72.12" y="-113.78" font-family="Times,serif" font-size="14.00">986809136</text>
<text text-anchor="middle" x="72.12" y="-98.78" font-family="Times,serif" font-size="14.00">fb=0</text>
</g>
<!-- NUL_0 -->
<g id="node2" class="node">
<title>NUL_0</title>
<polygon fill="none" stroke="black" points="63.12,-44 19.12,-44 19.12,0 63.12,0 63.12,-44"/>
<text text-anchor="middle" x="41.12" y="-18.3" font-family="Times,serif" font-size="14.00">null</text>
</g>
<!-- No_986809136&#45;&gt;NUL_0 -->
<g id="edge1" class="edge">
<title>No_986809136&#45;&gt;NUL_0</title>
<path fill="none" stroke="black" d="M60.14,-80.34C57.22,-71.55 54.14,-62.23 51.31,-53.72"/>
<polygon fill="black" stroke="black" points="54.62,-52.57 48.15,-44.18 47.98,-54.77 54.62,-52.57"/>
</g>
<!-- NUL_1 -->
<g id="node3" class="node">
<title>NUL_1</title>
<polygon fill="none" stroke="black" points="125.12,-44 81.12,-44 81.12,0 125.12,0 125.12,-44"/>
<text text-anchor="middle" x="103.12" y="-18.3" font-family="Times,serif" font-size="14.00">null</text>
</g>
<!-- No_986809136&#45;&gt;NUL_1 -->
<g id="edge2" class="edge">
<title>No_986809136&#45;&gt;NUL_1</title>
<path fill="none" stroke="black" d="M84.11,-80.34C87.02,-71.55 90.11,-62.23 92.94,-53.72"/>
<polygon fill="black" stroke="black" points="96.27,-54.77 96.1,-44.18 89.63,-52.57 96.27,-54.77"/>
</g>
</g>
</svg>
