<?xml version="1.0" encoding="UTF-8" standalone="no"?>
<!DOCTYPE svg PUBLIC "-//W3C//DTD SVG 1.1//EN"
 "http://www.w3.org/Graphics/SVG/1.1/DTD/svg11.dtd">
<!-- Generated by graphviz version 2.43.0 (0)
 -->
<!-- Title: BST Pages: 1 -->
<svg width="939pt" height="607pt"
 viewBox="0.00 0.00 939.00 606.77" xmlns="http://www.w3.org/2000/svg" xmlns:xlink="http://www.w3.org/1999/xlink">
<g id="graph0" class="graph" transform="scale(1 1) rotate(0) translate(4 602.77)">
<title>BST</title>
<polygon fill="white" stroke="transparent" points="-4,4 -4,-602.77 935,-602.77 935,4 -4,4"/>
<!-- No_987671978 -->
<g id="node1" class="node">
<title>No_987671978</title>
<ellipse fill="none" stroke="black" cx="636" cy="-561.29" rx="90.52" ry="37.45"/>
<text text-anchor="middle" x="636" y="-572.59" font-family="Times,serif" font-size="14.00">Adriana Pereira</text>
<text text-anchor="middle" x="636" y="-557.59" font-family="Times,serif" font-size="14.00">987671978</text>
<text text-anchor="middle" x="636" y="-542.59" font-family="Times,serif" font-size="14.00">fb=0</text>
</g>
<!-- No_975960513 -->
<g id="node2" class="node">
<title>No_975960513</title>
<ellipse fill="none" stroke="black" cx="537" cy="-450.34" rx="73.58" ry="37.45"/>
<text text-anchor="middle" x="537" y="-461.64" font-family="Times,serif" font-size="14.00">Altair Souza</text>
<text text-anchor="middle" x="537" y="-446.64" font-family="Times,serif" font-size="14.00">975960513</text>
<text text-anchor="middle" x="537" y="-431.64" font-family="Times,serif" font-size="14.00">fb=0</text>
</g>
<!-- No_987671978&#45;&gt;No_975960513 -->
<g id="edge1" class="edge">
<title>No_987671978&#45;&gt;No_975960513</title>
<path fill="none" stroke="black" d="M604.68,-525.82C595.01,-515.18 584.27,-503.36 574.25,-492.33"/>
<polygon fill="black" stroke="black" points="576.76,-489.89 567.44,-484.84 571.58,-494.6 576.76,-489.89"/>
</g>
<!-- No_994116870 -->
<g id="node21" class="node">
<title>No_994116870</title>
<ellipse fill="none" stroke="black" cx="730" cy="-450.34" rx="98.99" ry="37.45"/>
<text text-anchor="middle" x="730" y="-461.64" font-family="Times,serif" font-size="14.00">Alexandra Moura</text>
<text text-anchor="middle" x="730" y="-446.64" font-family="Times,serif" font-size="14.00">994116870</text>
<text text-anchor="middle" x="730" y="-431.64" font-family="Times,serif" font-size="14.00">fb=1</text>
</g>
<!-- No_987671978&#45;&gt;No_994116870 -->
<g id="edge20" class="edge">
<title>No_987671978&#45;&gt;No_994116870</title>
<path fill="none" stroke="black" d="M665.74,-525.82C674.4,-515.78 683.97,-504.69 693.01,-494.21"/>
<polygon fill="black" stroke="black" points="695.92,-496.19 699.81,-486.33 690.62,-491.62 695.92,-496.19"/>
</g>
<!-- No_964642705 -->
<g id="node3" class="node">
<title>No_964642705</title>
<ellipse fill="none" stroke="black" cx="330" cy="-339.38" rx="78.48" ry="37.45"/>
<text text-anchor="middle" x="330" y="-350.68" font-family="Times,serif" font-size="14.00">Alícia Freitas</text>
<text text-anchor="middle" x="330" y="-335.68" font-family="Times,serif" font-size="14.00">964642705</text>
<text text-anchor="middle" x="330" y="-320.68" font-family="Times,serif" font-size="14.00">fb=&#45;1</text>
</g>
<!-- No_975960513&#45;&gt;No_964642705 -->
<g id="edge2" class="edge">
<title>No_975960513&#45;&gt;No_964642705</title>
<path fill="none" stroke="black" d="M486.63,-422.82C457.89,-407.7 421.65,-388.62 391.27,-372.63"/>
<polygon fill="black" stroke="black" points="392.52,-369.34 382.04,-367.78 389.26,-375.53 392.52,-369.34"/>
</g>
<!-- No_986979432 -->
<g id="node14" class="node">
<title>No_986979432</title>
<ellipse fill="none" stroke="black" cx="537" cy="-339.38" rx="107.46" ry="37.45"/>
<text text-anchor="middle" x="537" y="-350.68" font-family="Times,serif" font-size="14.00">Américo Rodrigues</text>
<text text-anchor="middle" x="537" y="-335.68" font-family="Times,serif" font-size="14.00">986979432</text>
<text text-anchor="middle" x="537" y="-320.68" font-family="Times,serif" font-size="14.00">fb=&#45;1</text>
</g>
<!-- No_975960513&#45;&gt;No_986979432 -->
<g id="edge13" class="edge">
<title>No_975960513&#45;&gt;No_986979432</title>
<path fill="none" stroke="black" d="M537,-412.75C537,-404.58 537,-395.8 537,-387.27"/>
<polygon fill="black" stroke="black" points="540.5,-387.06 537,-377.06 533.5,-387.06 540.5,-387.06"/>
</g>
<!-- No_955838599 -->
<g id="node4" class="node">
<title>No_955838599</title>
<ellipse fill="none" stroke="black" cx="146" cy="-228.43" rx="74.91" ry="37.45"/>
<text text-anchor="middle" x="146" y="-239.73" font-family="Times,serif" font-size="14.00">Aline Santos</text>
<text text-anchor="middle" x="146" y="-224.73" font-family="Times,serif" font-size="14.00">955838599</text>
<text text-anchor="middle" x="146" y="-209.73" font-family="Times,serif" font-size="14.00">fb=1</text>
</g>
<!-- No_964642705&#45;&gt;No_955838599 -->
<g id="edge3" class="edge">
<title>No_964642705&#45;&gt;No_955838599</title>
<path fill="none" stroke="black" d="M281.66,-309.76C257.27,-295.32 227.56,-277.73 202.17,-262.69"/>
<polygon fill="black" stroke="black" points="203.77,-259.57 193.38,-257.49 200.21,-265.59 203.77,-259.57"/>
</g>
<!-- No_967387182 -->
<g id="node9" class="node">
<title>No_967387182</title>
<ellipse fill="none" stroke="black" cx="330" cy="-228.43" rx="91.43" ry="37.45"/>
<text text-anchor="middle" x="330" y="-239.73" font-family="Times,serif" font-size="14.00">Alfredo Martins</text>
<text text-anchor="middle" x="330" y="-224.73" font-family="Times,serif" font-size="14.00">967387182</text>
<text text-anchor="middle" x="330" y="-209.73" font-family="Times,serif" font-size="14.00">fb=0</text>
</g>
<!-- No_964642705&#45;&gt;No_967387182 -->
<g id="edge8" class="edge">
<title>No_964642705&#45;&gt;No_967387182</title>
<path fill="none" stroke="black" d="M330,-301.8C330,-293.63 330,-284.85 330,-276.32"/>
<polygon fill="black" stroke="black" points="333.5,-276.1 330,-266.1 326.5,-276.1 333.5,-276.1"/>
</g>
<!-- NUL_0 -->
<g id="node5" class="node">
<title>NUL_0</title>
<polygon fill="none" stroke="black" points="44,-139.48 0,-139.48 0,-95.48 44,-95.48 44,-139.48"/>
<text text-anchor="middle" x="22" y="-113.78" font-family="Times,serif" font-size="14.00">null</text>
</g>
<!-- No_955838599&#45;&gt;NUL_0 -->
<g id="edge4" class="edge">
<title>No_955838599&#45;&gt;NUL_0</title>
<path fill="none" stroke="black" d="M103.76,-197.4C87.3,-184.97 68.66,-169.97 53,-154.95 50.54,-152.6 48.07,-150.06 45.66,-147.46"/>
<polygon fill="black" stroke="black" points="47.93,-144.74 38.68,-139.59 42.7,-149.39 47.93,-144.74"/>
</g>
<!-- No_960933790 -->
<g id="node6" class="node">
<title>No_960933790</title>
<ellipse fill="none" stroke="black" cx="148" cy="-117.48" rx="85.62" ry="37.45"/>
<text text-anchor="middle" x="148" y="-128.78" font-family="Times,serif" font-size="14.00">Andrea Santos</text>
<text text-anchor="middle" x="148" y="-113.78" font-family="Times,serif" font-size="14.00">960933790</text>
<text text-anchor="middle" x="148" y="-98.78" font-family="Times,serif" font-size="14.00">fb=0</text>
</g>
<!-- No_955838599&#45;&gt;No_960933790 -->
<g id="edge5" class="edge">
<title>No_955838599&#45;&gt;No_960933790</title>
<path fill="none" stroke="black" d="M146.67,-190.85C146.82,-182.67 146.98,-173.89 147.14,-165.37"/>
<polygon fill="black" stroke="black" points="150.64,-165.21 147.33,-155.15 143.64,-165.08 150.64,-165.21"/>
</g>
<!-- NUL_1 -->
<g id="node7" class="node">
<title>NUL_1</title>
<polygon fill="none" stroke="black" points="154,-44 110,-44 110,0 154,0 154,-44"/>
<text text-anchor="middle" x="132" y="-18.3" font-family="Times,serif" font-size="14.00">null</text>
</g>
<!-- No_960933790&#45;&gt;NUL_1 -->
<g id="edge6" class="edge">
<title>No_960933790&#45;&gt;NUL_1</title>
<path fill="none" stroke="black" d="M141.77,-80.07C140.3,-71.49 138.75,-62.42 137.32,-54.1"/>
<polygon fill="black" stroke="black" points="140.74,-53.32 135.6,-44.06 133.84,-54.5 140.74,-53.32"/>
</g>
<!-- NUL_2 -->
<g id="node8" class="node">
<title>NUL_2</title>
<polygon fill="none" stroke="black" points="216,-44 172,-44 172,0 216,0 216,-44"/>
<text text-anchor="middle" x="194" y="-18.3" font-family="Times,serif" font-size="14.00">null</text>
</g>
<!-- No_960933790&#45;&gt;NUL_2 -->
<g id="edge7" class="edge">
<title>No_960933790&#45;&gt;NUL_2</title>
<path fill="none" stroke="black" d="M165.65,-80.6C170.12,-71.53 174.87,-61.88 179.18,-53.12"/>
<polygon fill="black" stroke="black" points="182.37,-54.55 183.65,-44.04 176.09,-51.46 182.37,-54.55"/>
</g>
<!-- No_965115082 -->
<g id="node10" class="node">
<title>No_965115082</title>
<ellipse fill="none" stroke="black" cx="329" cy="-117.48" rx="75.82" ry="37.45"/>
<text text-anchor="middle" x="329" y="-128.78" font-family="Times,serif" font-size="14.00">Ana Barbosa</text>
<text text-anchor="middle" x="329" y="-113.78" font-family="Times,serif" font-size="14.00">965115082</text>
<text text-anchor="middle" x="329" y="-98.78" font-family="Times,serif" font-size="14.00">fb=0</text>
</g>
<!-- No_967387182&#45;&gt;No_965115082 -->
<g id="edge9" class="edge">
<title>No_967387182&#45;&gt;No_965115082</title>
<path fill="none" stroke="black" d="M329.66,-190.85C329.59,-182.67 329.51,-173.89 329.43,-165.37"/>
<polygon fill="black" stroke="black" points="332.93,-165.12 329.34,-155.15 325.93,-165.18 332.93,-165.12"/>
</g>
<!-- NUL_5 -->
<g id="node13" class="node">
<title>NUL_5</title>
<polygon fill="none" stroke="black" points="467,-139.48 423,-139.48 423,-95.48 467,-95.48 467,-139.48"/>
<text text-anchor="middle" x="445" y="-113.78" font-family="Times,serif" font-size="14.00">null</text>
</g>
<!-- No_967387182&#45;&gt;NUL_5 -->
<g id="edge12" class="edge">
<title>No_967387182&#45;&gt;NUL_5</title>
<path fill="none" stroke="black" d="M370.45,-194.72C384.65,-182.67 400.43,-168.62 414,-154.95 416.34,-152.59 418.71,-150.08 421.04,-147.52"/>
<polygon fill="black" stroke="black" points="423.85,-149.62 427.83,-139.8 418.6,-144.99 423.85,-149.62"/>
</g>
<!-- NUL_3 -->
<g id="node11" class="node">
<title>NUL_3</title>
<polygon fill="none" stroke="black" points="305,-44 261,-44 261,0 305,0 305,-44"/>
<text text-anchor="middle" x="283" y="-18.3" font-family="Times,serif" font-size="14.00">null</text>
</g>
<!-- No_965115082&#45;&gt;NUL_3 -->
<g id="edge10" class="edge">
<title>No_965115082&#45;&gt;NUL_3</title>
<path fill="none" stroke="black" d="M311.48,-80.87C307,-71.78 302.23,-62.09 297.9,-53.29"/>
<polygon fill="black" stroke="black" points="300.97,-51.59 293.41,-44.16 294.69,-54.68 300.97,-51.59"/>
</g>
<!-- NUL_4 -->
<g id="node12" class="node">
<title>NUL_4</title>
<polygon fill="none" stroke="black" points="367,-44 323,-44 323,0 367,0 367,-44"/>
<text text-anchor="middle" x="345" y="-18.3" font-family="Times,serif" font-size="14.00">null</text>
</g>
<!-- No_965115082&#45;&gt;NUL_4 -->
<g id="edge11" class="edge">
<title>No_965115082&#45;&gt;NUL_4</title>
<path fill="none" stroke="black" d="M335.23,-80.07C336.7,-71.49 338.25,-62.42 339.68,-54.1"/>
<polygon fill="black" stroke="black" points="343.16,-54.5 341.4,-44.06 336.26,-53.32 343.16,-54.5"/>
</g>
<!-- No_985278999 -->
<g id="node15" class="node">
<title>No_985278999</title>
<ellipse fill="none" stroke="black" cx="515" cy="-228.43" rx="75.82" ry="37.45"/>
<text text-anchor="middle" x="515" y="-239.73" font-family="Times,serif" font-size="14.00">Acir Campos</text>
<text text-anchor="middle" x="515" y="-224.73" font-family="Times,serif" font-size="14.00">985278999</text>
<text text-anchor="middle" x="515" y="-209.73" font-family="Times,serif" font-size="14.00">fb=0</text>
</g>
<!-- No_986979432&#45;&gt;No_985278999 -->
<g id="edge14" class="edge">
<title>No_986979432&#45;&gt;No_985278999</title>
<path fill="none" stroke="black" d="M529.61,-301.8C527.93,-293.45 526.11,-284.46 524.36,-275.76"/>
<polygon fill="black" stroke="black" points="527.74,-274.84 522.33,-265.73 520.88,-276.23 527.74,-274.84"/>
</g>
<!-- No_987340734 -->
<g id="node18" class="node">
<title>No_987340734</title>
<ellipse fill="none" stroke="black" cx="708" cy="-228.43" rx="98.99" ry="37.45"/>
<text text-anchor="middle" x="708" y="-239.73" font-family="Times,serif" font-size="14.00">Antônia Machado</text>
<text text-anchor="middle" x="708" y="-224.73" font-family="Times,serif" font-size="14.00">987340734</text>
<text text-anchor="middle" x="708" y="-209.73" font-family="Times,serif" font-size="14.00">fb=0</text>
</g>
<!-- No_986979432&#45;&gt;No_987340734 -->
<g id="edge17" class="edge">
<title>No_986979432&#45;&gt;No_987340734</title>
<path fill="none" stroke="black" d="M587.84,-305.99C607.4,-293.53 629.86,-279.22 650.04,-266.36"/>
<polygon fill="black" stroke="black" points="651.98,-269.28 658.53,-260.95 648.22,-263.37 651.98,-269.28"/>
</g>
<!-- NUL_6 -->
<g id="node16" class="node">
<title>NUL_6</title>
<polygon fill="none" stroke="black" points="533,-139.48 489,-139.48 489,-95.48 533,-95.48 533,-139.48"/>
<text text-anchor="middle" x="511" y="-113.78" font-family="Times,serif" font-size="14.00">null</text>
</g>
<!-- No_985278999&#45;&gt;NUL_6 -->
<g id="edge15" class="edge">
<title>No_985278999&#45;&gt;NUL_6</title>
<path fill="none" stroke="black" d="M513.66,-190.85C513.17,-177.52 512.62,-162.58 512.15,-149.75"/>
<polygon fill="black" stroke="black" points="515.64,-149.42 511.77,-139.55 508.64,-149.68 515.64,-149.42"/>
</g>
<!-- NUL_7 -->
<g id="node17" class="node">
<title>NUL_7</title>
<polygon fill="none" stroke="black" points="595,-139.48 551,-139.48 551,-95.48 595,-95.48 595,-139.48"/>
<text text-anchor="middle" x="573" y="-113.78" font-family="Times,serif" font-size="14.00">null</text>
</g>
<!-- No_985278999&#45;&gt;NUL_7 -->
<g id="edge16" class="edge">
<title>No_985278999&#45;&gt;NUL_7</title>
<path fill="none" stroke="black" d="M533.83,-192.06C541.3,-178.02 549.8,-162.05 556.97,-148.58"/>
<polygon fill="black" stroke="black" points="560.09,-150.18 561.7,-139.71 553.91,-146.89 560.09,-150.18"/>
</g>
<!-- NUL_8 -->
<g id="node19" class="node">
<title>NUL_8</title>
<polygon fill="none" stroke="black" points="699,-139.48 655,-139.48 655,-95.48 699,-95.48 699,-139.48"/>
<text text-anchor="middle" x="677" y="-113.78" font-family="Times,serif" font-size="14.00">null</text>
</g>
<!-- No_987340734&#45;&gt;NUL_8 -->
<g id="edge18" class="edge">
<title>No_987340734&#45;&gt;NUL_8</title>
<path fill="none" stroke="black" d="M697.68,-191.15C693.84,-177.67 689.53,-162.51 685.84,-149.53"/>
<polygon fill="black" stroke="black" points="689.13,-148.33 683.03,-139.67 682.4,-150.25 689.13,-148.33"/>
</g>
<!-- NUL_9 -->
<g id="node20" class="node">
<title>NUL_9</title>
<polygon fill="none" stroke="black" points="761,-139.48 717,-139.48 717,-95.48 761,-95.48 761,-139.48"/>
<text text-anchor="middle" x="739" y="-113.78" font-family="Times,serif" font-size="14.00">null</text>
</g>
<!-- No_987340734&#45;&gt;NUL_9 -->
<g id="edge19" class="edge">
<title>No_987340734&#45;&gt;NUL_9</title>
<path fill="none" stroke="black" d="M718.32,-191.15C722.16,-177.67 726.47,-162.51 730.16,-149.53"/>
<polygon fill="black" stroke="black" points="733.6,-150.25 732.97,-139.67 726.87,-148.33 733.6,-150.25"/>
</g>
<!-- NUL_10 -->
<g id="node22" class="node">
<title>NUL_10</title>
<polygon fill="none" stroke="black" points="752,-361.38 708,-361.38 708,-317.38 752,-317.38 752,-361.38"/>
<text text-anchor="middle" x="730" y="-335.68" font-family="Times,serif" font-size="14.00">null</text>
</g>
<!-- No_994116870&#45;&gt;NUL_10 -->
<g id="edge21" class="edge">
<title>No_994116870&#45;&gt;NUL_10</title>
<path fill="none" stroke="black" d="M730,-412.75C730,-399.42 730,-384.49 730,-371.66"/>
<polygon fill="black" stroke="black" points="733.5,-371.46 730,-361.46 726.5,-371.46 733.5,-371.46"/>
</g>
<!-- No_997285865 -->
<g id="node23" class="node">
<title>No_997285865</title>
<ellipse fill="none" stroke="black" cx="847" cy="-339.38" rx="74.91" ry="37.45"/>
<text text-anchor="middle" x="847" y="-350.68" font-family="Times,serif" font-size="14.00">Almir Torres</text>
<text text-anchor="middle" x="847" y="-335.68" font-family="Times,serif" font-size="14.00">997285865</text>
<text text-anchor="middle" x="847" y="-320.68" font-family="Times,serif" font-size="14.00">fb=0</text>
</g>
<!-- No_994116870&#45;&gt;No_997285865 -->
<g id="edge22" class="edge">
<title>No_994116870&#45;&gt;No_997285865</title>
<path fill="none" stroke="black" d="M766.38,-415.46C778.49,-404.18 792.08,-391.52 804.61,-379.86"/>
<polygon fill="black" stroke="black" points="807.31,-382.12 812.25,-372.75 802.54,-377 807.31,-382.12"/>
</g>
<!-- NUL_11 -->
<g id="node24" class="node">
<title>NUL_11</title>
<polygon fill="none" stroke="black" points="869,-250.43 825,-250.43 825,-206.43 869,-206.43 869,-250.43"/>
<text text-anchor="middle" x="847" y="-224.73" font-family="Times,serif" font-size="14.00">null</text>
</g>
<!-- No_997285865&#45;&gt;NUL_11 -->
<g id="edge23" class="edge">
<title>No_997285865&#45;&gt;NUL_11</title>
<path fill="none" stroke="black" d="M847,-301.8C847,-288.47 847,-273.53 847,-260.7"/>
<polygon fill="black" stroke="black" points="850.5,-260.51 847,-250.51 843.5,-260.51 850.5,-260.51"/>
</g>
<!-- NUL_12 -->
<g id="node25" class="node">
<title>NUL_12</title>
<polygon fill="none" stroke="black" points="931,-250.43 887,-250.43 887,-206.43 931,-206.43 931,-250.43"/>
<text text-anchor="middle" x="909" y="-224.73" font-family="Times,serif" font-size="14.00">null</text>
</g>
<!-- No_997285865&#45;&gt;NUL_12 -->
<g id="edge24" class="edge">
<title>No_997285865&#45;&gt;NUL_12</title>
<path fill="none" stroke="black" d="M867.13,-303.01C875.12,-288.97 884.21,-273 891.87,-259.53"/>
<polygon fill="black" stroke="black" points="895.01,-261.09 896.92,-250.66 888.93,-257.62 895.01,-261.09"/>
</g>
</g>
</svg>
