<?xml version="1.0" encoding="UTF-8" standalone="no"?>
<!DOCTYPE svg PUBLIC "-//W3C//DTD SVG 1.1//EN"
 "http://www.w3.org/Graphics/SVG/1.1/DTD/svg11.dtd">
<!-- Generated by graphviz version 2.43.0 (0)
 -->
<!-- Title: BST Pages: 1 -->
<svg width="714pt" height="496pt"
 viewBox="0.00 0.00 713.95 495.81" xmlns="http://www.w3.org/2000/svg" xmlns:xlink="http://www.w3.org/1999/xlink">
<g id="graph0" class="graph" transform="scale(1 1) rotate(0) translate(4 491.81)">
<title>BST</title>
<polygon fill="white" stroke="transparent" points="-4,4 -4,-491.81 709.95,-491.81 709.95,4 -4,4"/>
<!-- No_985278999 -->
<g id="node1" class="node">
<title>No_985278999</title>
<ellipse fill="none" stroke="black" cx="436.95" cy="-450.34" rx="75.82" ry="37.45"/>
<text text-anchor="middle" x="436.95" y="-461.64" font-family="Times,serif" font-size="14.00">Acir Campos</text>
<text text-anchor="middle" x="436.95" y="-446.64" font-family="Times,serif" font-size="14.00">985278999</text>
<text text-anchor="middle" x="436.95" y="-431.64" font-family="Times,serif" font-size="14.00">fb=&#45;1</text>
</g>
<!-- No_965115082 -->
<g id="node2" class="node">
<title>No_965115082</title>
<ellipse fill="none" stroke="black" cx="337.95" cy="-339.38" rx="75.82" ry="37.45"/>
<text text-anchor="middle" x="337.95" y="-350.68" font-family="Times,serif" font-size="14.00">Ana Barbosa</text>
<text text-anchor="middle" x="337.95" y="-335.68" font-family="Times,serif" font-size="14.00">965115082</text>
<text text-anchor="middle" x="337.95" y="-320.68" font-family="Times,serif" font-size="14.00">fb=&#45;1</text>
</g>
<!-- No_985278999&#45;&gt;No_965115082 -->
<g id="edge1" class="edge">
<title>No_985278999&#45;&gt;No_965115082</title>
<path fill="none" stroke="black" d="M406.44,-415.76C396.66,-404.99 385.7,-392.93 375.48,-381.68"/>
<polygon fill="black" stroke="black" points="377.85,-379.09 368.53,-374.04 372.67,-383.79 377.85,-379.09"/>
</g>
<!-- No_997285865 -->
<g id="node11" class="node">
<title>No_997285865</title>
<ellipse fill="none" stroke="black" cx="536.95" cy="-339.38" rx="74.91" ry="37.45"/>
<text text-anchor="middle" x="536.95" y="-350.68" font-family="Times,serif" font-size="14.00">Almir Torres</text>
<text text-anchor="middle" x="536.95" y="-335.68" font-family="Times,serif" font-size="14.00">997285865</text>
<text text-anchor="middle" x="536.95" y="-320.68" font-family="Times,serif" font-size="14.00">fb=&#45;1</text>
</g>
<!-- No_985278999&#45;&gt;No_997285865 -->
<g id="edge10" class="edge">
<title>No_985278999&#45;&gt;No_997285865</title>
<path fill="none" stroke="black" d="M467.77,-415.76C477.85,-404.78 489.15,-392.47 499.64,-381.03"/>
<polygon fill="black" stroke="black" points="502.22,-383.4 506.41,-373.66 497.07,-378.66 502.22,-383.4"/>
</g>
<!-- No_960933790 -->
<g id="node3" class="node">
<title>No_960933790</title>
<ellipse fill="none" stroke="black" cx="160.95" cy="-228.43" rx="85.62" ry="37.45"/>
<text text-anchor="middle" x="160.95" y="-239.73" font-family="Times,serif" font-size="14.00">Andrea Santos</text>
<text text-anchor="middle" x="160.95" y="-224.73" font-family="Times,serif" font-size="14.00">960933790</text>
<text text-anchor="middle" x="160.95" y="-209.73" font-family="Times,serif" font-size="14.00">fb=&#45;1</text>
</g>
<!-- No_965115082&#45;&gt;No_960933790 -->
<g id="edge2" class="edge">
<title>No_965115082&#45;&gt;No_960933790</title>
<path fill="none" stroke="black" d="M291.45,-309.76C269.01,-295.94 241.88,-279.24 218.18,-264.66"/>
<polygon fill="black" stroke="black" points="219.97,-261.65 209.62,-259.39 216.3,-267.61 219.97,-261.65"/>
</g>
<!-- No_975960513 -->
<g id="node8" class="node">
<title>No_975960513</title>
<ellipse fill="none" stroke="black" cx="337.95" cy="-228.43" rx="73.58" ry="37.45"/>
<text text-anchor="middle" x="337.95" y="-239.73" font-family="Times,serif" font-size="14.00">Altair Souza</text>
<text text-anchor="middle" x="337.95" y="-224.73" font-family="Times,serif" font-size="14.00">975960513</text>
<text text-anchor="middle" x="337.95" y="-209.73" font-family="Times,serif" font-size="14.00">fb=0</text>
</g>
<!-- No_965115082&#45;&gt;No_975960513 -->
<g id="edge7" class="edge">
<title>No_965115082&#45;&gt;No_975960513</title>
<path fill="none" stroke="black" d="M337.95,-301.8C337.95,-293.63 337.95,-284.85 337.95,-276.32"/>
<polygon fill="black" stroke="black" points="341.45,-276.1 337.95,-266.1 334.45,-276.1 341.45,-276.1"/>
</g>
<!-- No_955838599 -->
<g id="node4" class="node">
<title>No_955838599</title>
<ellipse fill="none" stroke="black" cx="74.95" cy="-117.48" rx="74.91" ry="37.45"/>
<text text-anchor="middle" x="74.95" y="-128.78" font-family="Times,serif" font-size="14.00">Aline Santos</text>
<text text-anchor="middle" x="74.95" y="-113.78" font-family="Times,serif" font-size="14.00">955838599</text>
<text text-anchor="middle" x="74.95" y="-98.78" font-family="Times,serif" font-size="14.00">fb=0</text>
</g>
<!-- No_960933790&#45;&gt;No_955838599 -->
<g id="edge3" class="edge">
<title>No_960933790&#45;&gt;No_955838599</title>
<path fill="none" stroke="black" d="M133.51,-192.66C125.44,-182.43 116.52,-171.14 108.13,-160.51"/>
<polygon fill="black" stroke="black" points="110.79,-158.23 101.85,-152.55 105.29,-162.57 110.79,-158.23"/>
</g>
<!-- NUL_2 -->
<g id="node7" class="node">
<title>NUL_2</title>
<polygon fill="none" stroke="black" points="211.95,-139.48 167.95,-139.48 167.95,-95.48 211.95,-95.48 211.95,-139.48"/>
<text text-anchor="middle" x="189.95" y="-113.78" font-family="Times,serif" font-size="14.00">null</text>
</g>
<!-- No_960933790&#45;&gt;NUL_2 -->
<g id="edge6" class="edge">
<title>No_960933790&#45;&gt;NUL_2</title>
<path fill="none" stroke="black" d="M170.61,-191.15C174.2,-177.67 178.23,-162.51 181.69,-149.53"/>
<polygon fill="black" stroke="black" points="185.12,-150.24 184.31,-139.67 178.36,-148.44 185.12,-150.24"/>
</g>
<!-- NUL_0 -->
<g id="node5" class="node">
<title>NUL_0</title>
<polygon fill="none" stroke="black" points="65.95,-44 21.95,-44 21.95,0 65.95,0 65.95,-44"/>
<text text-anchor="middle" x="43.95" y="-18.3" font-family="Times,serif" font-size="14.00">null</text>
</g>
<!-- No_955838599&#45;&gt;NUL_0 -->
<g id="edge4" class="edge">
<title>No_955838599&#45;&gt;NUL_0</title>
<path fill="none" stroke="black" d="M62.97,-80.34C60.05,-71.55 56.96,-62.23 54.14,-53.72"/>
<polygon fill="black" stroke="black" points="57.45,-52.57 50.98,-44.18 50.8,-54.77 57.45,-52.57"/>
</g>
<!-- NUL_1 -->
<g id="node6" class="node">
<title>NUL_1</title>
<polygon fill="none" stroke="black" points="127.95,-44 83.95,-44 83.95,0 127.95,0 127.95,-44"/>
<text text-anchor="middle" x="105.95" y="-18.3" font-family="Times,serif" font-size="14.00">null</text>
</g>
<!-- No_955838599&#45;&gt;NUL_1 -->
<g id="edge5" class="edge">
<title>No_955838599&#45;&gt;NUL_1</title>
<path fill="none" stroke="black" d="M86.94,-80.34C89.85,-71.55 92.94,-62.23 95.77,-53.72"/>
<polygon fill="black" stroke="black" points="99.1,-54.77 98.93,-44.18 92.46,-52.57 99.1,-54.77"/>
</g>
<!-- NUL_3 -->
<g id="node9" class="node">
<title>NUL_3</title>
<polygon fill="none" stroke="black" points="330.95,-139.48 286.95,-139.48 286.95,-95.48 330.95,-95.48 330.95,-139.48"/>
<text text-anchor="middle" x="308.95" y="-113.78" font-family="Times,serif" font-size="14.00">null</text>
</g>
<!-- No_975960513&#45;&gt;NUL_3 -->
<g id="edge8" class="edge">
<title>No_975960513&#45;&gt;NUL_3</title>
<path fill="none" stroke="black" d="M328.3,-191.15C324.71,-177.67 320.67,-162.51 317.22,-149.53"/>
<polygon fill="black" stroke="black" points="320.55,-148.44 314.6,-139.67 313.79,-150.24 320.55,-148.44"/>
</g>
<!-- NUL_4 -->
<g id="node10" class="node">
<title>NUL_4</title>
<polygon fill="none" stroke="black" points="392.95,-139.48 348.95,-139.48 348.95,-95.48 392.95,-95.48 392.95,-139.48"/>
<text text-anchor="middle" x="370.95" y="-113.78" font-family="Times,serif" font-size="14.00">null</text>
</g>
<!-- No_975960513&#45;&gt;NUL_4 -->
<g id="edge9" class="edge">
<title>No_975960513&#45;&gt;NUL_4</title>
<path fill="none" stroke="black" d="M348.94,-191.15C353.03,-177.67 357.62,-162.51 361.55,-149.53"/>
<polygon fill="black" stroke="black" points="364.98,-150.26 364.53,-139.67 358.28,-148.23 364.98,-150.26"/>
</g>
<!-- No_986979432 -->
<g id="node12" class="node">
<title>No_986979432</title>
<ellipse fill="none" stroke="black" cx="536.95" cy="-228.43" rx="107.46" ry="37.45"/>
<text text-anchor="middle" x="536.95" y="-239.73" font-family="Times,serif" font-size="14.00">Américo Rodrigues</text>
<text text-anchor="middle" x="536.95" y="-224.73" font-family="Times,serif" font-size="14.00">986979432</text>
<text text-anchor="middle" x="536.95" y="-209.73" font-family="Times,serif" font-size="14.00">fb=0</text>
</g>
<!-- No_997285865&#45;&gt;No_986979432 -->
<g id="edge11" class="edge">
<title>No_997285865&#45;&gt;No_986979432</title>
<path fill="none" stroke="black" d="M536.95,-301.8C536.95,-293.63 536.95,-284.85 536.95,-276.32"/>
<polygon fill="black" stroke="black" points="540.45,-276.1 536.95,-266.1 533.45,-276.1 540.45,-276.1"/>
</g>
<!-- NUL_7 -->
<g id="node15" class="node">
<title>NUL_7</title>
<polygon fill="none" stroke="black" points="705.95,-250.43 661.95,-250.43 661.95,-206.43 705.95,-206.43 705.95,-250.43"/>
<text text-anchor="middle" x="683.95" y="-224.73" font-family="Times,serif" font-size="14.00">null</text>
</g>
<!-- No_997285865&#45;&gt;NUL_7 -->
<g id="edge14" class="edge">
<title>No_997285865&#45;&gt;NUL_7</title>
<path fill="none" stroke="black" d="M587.24,-311.55C608.55,-299.05 633.01,-283.14 652.95,-265.91 655.76,-263.48 658.53,-260.79 661.19,-258.01"/>
<polygon fill="black" stroke="black" points="663.84,-260.3 667.93,-250.52 658.64,-255.61 663.84,-260.3"/>
</g>
<!-- NUL_5 -->
<g id="node13" class="node">
<title>NUL_5</title>
<polygon fill="none" stroke="black" points="527.95,-139.48 483.95,-139.48 483.95,-95.48 527.95,-95.48 527.95,-139.48"/>
<text text-anchor="middle" x="505.95" y="-113.78" font-family="Times,serif" font-size="14.00">null</text>
</g>
<!-- No_986979432&#45;&gt;NUL_5 -->
<g id="edge12" class="edge">
<title>No_986979432&#45;&gt;NUL_5</title>
<path fill="none" stroke="black" d="M526.54,-190.85C522.71,-177.38 518.42,-162.28 514.74,-149.37"/>
<polygon fill="black" stroke="black" points="518.05,-148.21 511.95,-139.55 511.32,-150.13 518.05,-148.21"/>
</g>
<!-- NUL_6 -->
<g id="node14" class="node">
<title>NUL_6</title>
<polygon fill="none" stroke="black" points="589.95,-139.48 545.95,-139.48 545.95,-95.48 589.95,-95.48 589.95,-139.48"/>
<text text-anchor="middle" x="567.95" y="-113.78" font-family="Times,serif" font-size="14.00">null</text>
</g>
<!-- No_986979432&#45;&gt;NUL_6 -->
<g id="edge13" class="edge">
<title>No_986979432&#45;&gt;NUL_6</title>
<path fill="none" stroke="black" d="M547.36,-190.85C551.19,-177.38 555.49,-162.28 559.16,-149.37"/>
<polygon fill="black" stroke="black" points="562.59,-150.13 561.96,-139.55 555.85,-148.21 562.59,-150.13"/>
</g>
</g>
</svg>
