<?xml version="1.0" encoding="UTF-8" standalone="no"?>
<!DOCTYPE svg PUBLIC "-//W3C//DTD SVG 1.1//EN"
 "http://www.w3.org/Graphics/SVG/1.1/DTD/svg11.dtd">
<!-- Generated by graphviz version 2.43.0 (0)
 -->
<!-- Title: BST Pages: 1 -->
<svg width="694pt" height="260pt"
 viewBox="0.00 0.00 694.07 260.00" xmlns="http://www.w3.org/2000/svg" xmlns:xlink="http://www.w3.org/1999/xlink">
<g id="graph0" class="graph" transform="scale(1 1) rotate(0) translate(4 256)">
<title>BST</title>
<polygon fill="white" stroke="transparent" points="-4,4 -4,-256 690.07,-256 690.07,4 -4,4"/>
<!-- Pamella Martins,974394289 [fb:0] -->
<g id="node1" class="node">
<title>Pamella Martins,974394289 [fb:0]</title>
<ellipse fill="none" stroke="black" cx="347.58" cy="-234" rx="170.07" ry="18"/>
<text text-anchor="middle" x="347.58" y="-230.3" font-family="Times,serif" font-size="14.00">Pamella Martins,974394289 [fb:0]</text>
</g>
<!-- Pamella Barbosa,973123310 [fb:1] -->
<g id="node2" class="node">
<title>Pamella Barbosa,973123310 [fb:1]</title>
<ellipse fill="none" stroke="black" cx="171.58" cy="-162" rx="171.67" ry="18"/>
<text text-anchor="middle" x="171.58" y="-158.3" font-family="Times,serif" font-size="14.00">Pamella Barbosa,973123310 [fb:1]</text>
</g>
<!-- Pamella Martins,974394289 [fb:0]&#45;&gt;Pamella Barbosa,973123310 [fb:1] -->
<g id="edge1" class="edge">
<title>Pamella Martins,974394289 [fb:0]&#45;&gt;Pamella Barbosa,973123310 [fb:1]</title>
<path fill="none" stroke="black" d="M305.88,-216.41C280.89,-206.47 248.94,-193.77 222.47,-183.24"/>
<polygon fill="black" stroke="black" points="223.58,-179.91 212.99,-179.47 220.99,-186.42 223.58,-179.91"/>
</g>
<!-- Piettro Freitas,977907210 [fb:1] -->
<g id="node3" class="node">
<title>Piettro Freitas,977907210 [fb:1]</title>
<ellipse fill="none" stroke="black" cx="523.58" cy="-162" rx="162.47" ry="18"/>
<text text-anchor="middle" x="523.58" y="-158.3" font-family="Times,serif" font-size="14.00">Piettro Freitas,977907210 [fb:1]</text>
</g>
<!-- Pamella Martins,974394289 [fb:0]&#45;&gt;Piettro Freitas,977907210 [fb:1] -->
<g id="edge2" class="edge">
<title>Pamella Martins,974394289 [fb:0]&#45;&gt;Piettro Freitas,977907210 [fb:1]</title>
<path fill="none" stroke="black" d="M389.29,-216.41C414.28,-206.47 446.23,-193.77 472.7,-183.24"/>
<polygon fill="black" stroke="black" points="474.18,-186.42 482.17,-179.47 471.59,-179.91 474.18,-186.42"/>
</g>
<!-- Piettro Freitas,982357887 [fb:0] -->
<g id="node4" class="node">
<title>Piettro Freitas,982357887 [fb:0]</title>
<ellipse fill="none" stroke="black" cx="523.58" cy="-90" rx="162.47" ry="18"/>
<text text-anchor="middle" x="523.58" y="-86.3" font-family="Times,serif" font-size="14.00">Piettro Freitas,982357887 [fb:0]</text>
</g>
<!-- Piettro Freitas,977907210 [fb:1]&#45;&gt;Piettro Freitas,982357887 [fb:0] -->
<g id="edge3" class="edge">
<title>Piettro Freitas,977907210 [fb:1]&#45;&gt;Piettro Freitas,982357887 [fb:0]</title>
<path fill="none" stroke="black" d="M523.58,-143.7C523.58,-135.98 523.58,-126.71 523.58,-118.11"/>
<polygon fill="black" stroke="black" points="527.08,-118.1 523.58,-108.1 520.08,-118.1 527.08,-118.1"/>
</g>
<!-- Piettro Souza,990058019 [fb:&#45;1] -->
<g id="node5" class="node">
<title>Piettro Souza,990058019 [fb:&#45;1]</title>
<ellipse fill="none" stroke="black" cx="523.58" cy="-18" rx="159.77" ry="18"/>
<text text-anchor="middle" x="523.58" y="-14.3" font-family="Times,serif" font-size="14.00">Piettro Souza,990058019 [fb:&#45;1]</text>
</g>
<!-- Piettro Freitas,982357887 [fb:0]&#45;&gt;Piettro Souza,990058019 [fb:&#45;1] -->
<g id="edge4" class="edge">
<title>Piettro Freitas,982357887 [fb:0]&#45;&gt;Piettro Souza,990058019 [fb:&#45;1]</title>
<path fill="none" stroke="black" d="M523.58,-71.7C523.58,-63.98 523.58,-54.71 523.58,-46.11"/>
<polygon fill="black" stroke="black" points="527.08,-46.1 523.58,-36.1 520.08,-46.1 527.08,-46.1"/>
</g>
</g>
</svg>
