<?xml version="1.0" encoding="UTF-8" standalone="no"?>
<!DOCTYPE svg PUBLIC "-//W3C//DTD SVG 1.1//EN"
 "http://www.w3.org/Graphics/SVG/1.1/DTD/svg11.dtd">
<!-- Generated by graphviz version 2.43.0 (0)
 -->
<!-- Title: BST Pages: 1 -->
<svg width="2781pt" height="468pt"
 viewBox="0.00 0.00 2781.27 467.58" xmlns="http://www.w3.org/2000/svg" xmlns:xlink="http://www.w3.org/1999/xlink">
<g id="graph0" class="graph" transform="scale(1 1) rotate(0) translate(4 463.58)">
<title>BST</title>
<polygon fill="white" stroke="transparent" points="-4,4 -4,-463.58 2777.27,-463.58 2777.27,4 -4,4"/>
<!-- Igor Campos,986007137 [fb:&#45;1] -->
<g id="node1" class="node">
<title>Igor Campos,986007137 [fb:&#45;1]</title>
<ellipse fill="none" stroke="black" cx="1661.74" cy="-441.58" rx="155.97" ry="18"/>
<text text-anchor="middle" x="1661.74" y="-437.88" font-family="Times,serif" font-size="14.00">Igor Campos,986007137 [fb:&#45;1]</text>
</g>
<!-- Igor Farias,964632491 [fb:0] -->
<g id="node2" class="node">
<title>Igor Farias,964632491 [fb:0]</title>
<ellipse fill="none" stroke="black" cx="1246.74" cy="-369.58" rx="144.87" ry="18"/>
<text text-anchor="middle" x="1246.74" y="-365.88" font-family="Times,serif" font-size="14.00">Igor Farias,964632491 [fb:0]</text>
</g>
<!-- Igor Campos,986007137 [fb:&#45;1]&#45;&gt;Igor Farias,964632491 [fb:0] -->
<g id="edge1" class="edge">
<title>Igor Campos,986007137 [fb:&#45;1]&#45;&gt;Igor Farias,964632491 [fb:0]</title>
<path fill="none" stroke="black" d="M1577.51,-426.38C1508.26,-414.7 1410.3,-398.17 1338.96,-386.14"/>
<polygon fill="black" stroke="black" points="1339.52,-382.69 1329.08,-384.47 1338.36,-389.59 1339.52,-382.69"/>
</g>
<!-- Igor Silva,990889114 [fb:0] -->
<g id="node27" class="node">
<title>Igor Silva,990889114 [fb:0]</title>
<ellipse fill="none" stroke="black" cx="1955.74" cy="-369.58" rx="139.18" ry="18"/>
<text text-anchor="middle" x="1955.74" y="-365.88" font-family="Times,serif" font-size="14.00">Igor Silva,990889114 [fb:0]</text>
</g>
<!-- Igor Campos,986007137 [fb:&#45;1]&#45;&gt;Igor Silva,990889114 [fb:0] -->
<g id="edge26" class="edge">
<title>Igor Campos,986007137 [fb:&#45;1]&#45;&gt;Igor Silva,990889114 [fb:0]</title>
<path fill="none" stroke="black" d="M1726.62,-425.14C1772.72,-414.16 1834.68,-399.41 1882.54,-388.01"/>
<polygon fill="black" stroke="black" points="1883.62,-391.35 1892.53,-385.63 1881.99,-384.54 1883.62,-391.35"/>
</g>
<!-- Igor Machado,961029324 [fb:&#45;1] -->
<g id="node3" class="node">
<title>Igor Machado,961029324 [fb:&#45;1]</title>
<ellipse fill="none" stroke="black" cx="763.74" cy="-297.58" rx="161.37" ry="18"/>
<text text-anchor="middle" x="763.74" y="-293.88" font-family="Times,serif" font-size="14.00">Igor Machado,961029324 [fb:&#45;1]</text>
</g>
<!-- Igor Farias,964632491 [fb:0]&#45;&gt;Igor Machado,961029324 [fb:&#45;1] -->
<g id="edge2" class="edge">
<title>Igor Farias,964632491 [fb:0]&#45;&gt;Igor Machado,961029324 [fb:&#45;1]</title>
<path fill="none" stroke="black" d="M1156.45,-355.5C1074.64,-343.64 954.08,-326.17 868.15,-313.72"/>
<polygon fill="black" stroke="black" points="868.51,-310.23 858.11,-312.26 867.51,-317.16 868.51,-310.23"/>
</g>
<!-- Igor Silva,970521913 [fb:0] -->
<g id="node14" class="node">
<title>Igor Silva,970521913 [fb:0]</title>
<ellipse fill="none" stroke="black" cx="1246.74" cy="-297.58" rx="139.18" ry="18"/>
<text text-anchor="middle" x="1246.74" y="-293.88" font-family="Times,serif" font-size="14.00">Igor Silva,970521913 [fb:0]</text>
</g>
<!-- Igor Farias,964632491 [fb:0]&#45;&gt;Igor Silva,970521913 [fb:0] -->
<g id="edge13" class="edge">
<title>Igor Farias,964632491 [fb:0]&#45;&gt;Igor Silva,970521913 [fb:0]</title>
<path fill="none" stroke="black" d="M1246.74,-351.28C1246.74,-343.57 1246.74,-334.3 1246.74,-325.7"/>
<polygon fill="black" stroke="black" points="1250.24,-325.69 1246.74,-315.69 1243.24,-325.69 1250.24,-325.69"/>
</g>
<!-- Igor Pereira,958453647 [fb:0] -->
<g id="node4" class="node">
<title>Igor Pereira,958453647 [fb:0]</title>
<ellipse fill="none" stroke="black" cx="448.74" cy="-214.99" rx="149.47" ry="18"/>
<text text-anchor="middle" x="448.74" y="-211.29" font-family="Times,serif" font-size="14.00">Igor Pereira,958453647 [fb:0]</text>
</g>
<!-- Igor Machado,961029324 [fb:&#45;1]&#45;&gt;Igor Pereira,958453647 [fb:0] -->
<g id="edge3" class="edge">
<title>Igor Machado,961029324 [fb:&#45;1]&#45;&gt;Igor Pereira,958453647 [fb:0]</title>
<path fill="none" stroke="black" d="M702.25,-280.85C649.75,-267.42 574.22,-248.1 519.27,-234.03"/>
<polygon fill="black" stroke="black" points="519.82,-230.56 509.26,-231.47 518.08,-237.34 519.82,-230.56"/>
</g>
<!-- Igor Barros,961429726 [fb:0] -->
<g id="node11" class="node">
<title>Igor Barros,961429726 [fb:0]</title>
<ellipse fill="none" stroke="black" cx="763.74" cy="-214.99" rx="147.57" ry="18"/>
<text text-anchor="middle" x="763.74" y="-211.29" font-family="Times,serif" font-size="14.00">Igor Barros,961429726 [fb:0]</text>
</g>
<!-- Igor Machado,961029324 [fb:&#45;1]&#45;&gt;Igor Barros,961429726 [fb:0] -->
<g id="edge10" class="edge">
<title>Igor Machado,961029324 [fb:&#45;1]&#45;&gt;Igor Barros,961429726 [fb:0]</title>
<path fill="none" stroke="black" d="M763.74,-279.49C763.74,-268.91 763.74,-255.1 763.74,-243.06"/>
<polygon fill="black" stroke="black" points="767.24,-243.06 763.74,-233.06 760.24,-243.06 767.24,-243.06"/>
</g>
<!-- Igor Martins,955554654 [fb:0] -->
<g id="node5" class="node">
<title>Igor Martins,955554654 [fb:0]</title>
<ellipse fill="none" stroke="black" cx="152.74" cy="-121.79" rx="152.97" ry="18"/>
<text text-anchor="middle" x="152.74" y="-118.09" font-family="Times,serif" font-size="14.00">Igor Martins,955554654 [fb:0]</text>
</g>
<!-- Igor Pereira,958453647 [fb:0]&#45;&gt;Igor Martins,955554654 [fb:0] -->
<g id="edge4" class="edge">
<title>Igor Pereira,958453647 [fb:0]&#45;&gt;Igor Martins,955554654 [fb:0]</title>
<path fill="none" stroke="black" d="M396.84,-198C345.95,-182.32 268.37,-158.42 214.37,-141.78"/>
<polygon fill="black" stroke="black" points="215.16,-138.36 204.57,-138.76 213.1,-145.05 215.16,-138.36"/>
</g>
<!-- Igor Freitas,958680634 [fb:0] -->
<g id="node8" class="node">
<title>Igor Freitas,958680634 [fb:0]</title>
<ellipse fill="none" stroke="black" cx="472.74" cy="-121.79" rx="149.47" ry="18"/>
<text text-anchor="middle" x="472.74" y="-118.09" font-family="Times,serif" font-size="14.00">Igor Freitas,958680634 [fb:0]</text>
</g>
<!-- Igor Pereira,958453647 [fb:0]&#45;&gt;Igor Freitas,958680634 [fb:0] -->
<g id="edge7" class="edge">
<title>Igor Pereira,958453647 [fb:0]&#45;&gt;Igor Freitas,958680634 [fb:0]</title>
<path fill="none" stroke="black" d="M453.25,-196.83C456.74,-183.59 461.63,-165.01 465.64,-149.77"/>
<polygon fill="black" stroke="black" points="469.08,-150.43 468.24,-139.87 462.31,-148.65 469.08,-150.43"/>
</g>
<!-- N0 -->
<g id="node6" class="node">
<title>N0</title>
<ellipse fill="none" stroke="black" cx="115.74" cy="-28.6" rx="28.7" ry="28.7"/>
<text text-anchor="middle" x="115.74" y="-24.9" font-family="Times,serif" font-size="14.00">null</text>
</g>
<!-- Igor Martins,955554654 [fb:0]&#45;&gt;N0 -->
<g id="edge5" class="edge">
<title>Igor Martins,955554654 [fb:0]&#45;&gt;N0</title>
<path fill="none" stroke="black" d="M145.78,-103.64C141.33,-92.68 135.4,-78.07 129.99,-64.72"/>
<polygon fill="black" stroke="black" points="133.17,-63.25 126.16,-55.3 126.68,-65.88 133.17,-63.25"/>
</g>
<!-- N1 -->
<g id="node7" class="node">
<title>N1</title>
<ellipse fill="none" stroke="black" cx="190.74" cy="-28.6" rx="28.7" ry="28.7"/>
<text text-anchor="middle" x="190.74" y="-24.9" font-family="Times,serif" font-size="14.00">null</text>
</g>
<!-- Igor Martins,955554654 [fb:0]&#45;&gt;N1 -->
<g id="edge6" class="edge">
<title>Igor Martins,955554654 [fb:0]&#45;&gt;N1</title>
<path fill="none" stroke="black" d="M159.88,-103.64C164.45,-92.68 170.54,-78.07 176.1,-64.72"/>
<polygon fill="black" stroke="black" points="179.41,-65.87 180.03,-55.3 172.95,-63.18 179.41,-65.87"/>
</g>
<!-- N2 -->
<g id="node9" class="node">
<title>N2</title>
<ellipse fill="none" stroke="black" cx="434.74" cy="-28.6" rx="28.7" ry="28.7"/>
<text text-anchor="middle" x="434.74" y="-24.9" font-family="Times,serif" font-size="14.00">null</text>
</g>
<!-- Igor Freitas,958680634 [fb:0]&#45;&gt;N2 -->
<g id="edge8" class="edge">
<title>Igor Freitas,958680634 [fb:0]&#45;&gt;N2</title>
<path fill="none" stroke="black" d="M465.59,-103.64C461.02,-92.68 454.93,-78.07 449.37,-64.72"/>
<polygon fill="black" stroke="black" points="452.52,-63.18 445.44,-55.3 446.06,-65.87 452.52,-63.18"/>
</g>
<!-- N3 -->
<g id="node10" class="node">
<title>N3</title>
<ellipse fill="none" stroke="black" cx="509.74" cy="-28.6" rx="28.7" ry="28.7"/>
<text text-anchor="middle" x="509.74" y="-24.9" font-family="Times,serif" font-size="14.00">null</text>
</g>
<!-- Igor Freitas,958680634 [fb:0]&#45;&gt;N3 -->
<g id="edge9" class="edge">
<title>Igor Freitas,958680634 [fb:0]&#45;&gt;N3</title>
<path fill="none" stroke="black" d="M479.7,-103.64C484.14,-92.68 490.07,-78.07 495.49,-64.72"/>
<polygon fill="black" stroke="black" points="498.79,-65.88 499.31,-55.3 492.31,-63.25 498.79,-65.88"/>
</g>
<!-- N4 -->
<g id="node12" class="node">
<title>N4</title>
<ellipse fill="none" stroke="black" cx="715.74" cy="-121.79" rx="28.7" ry="28.7"/>
<text text-anchor="middle" x="715.74" y="-118.09" font-family="Times,serif" font-size="14.00">null</text>
</g>
<!-- Igor Barros,961429726 [fb:0]&#45;&gt;N4 -->
<g id="edge11" class="edge">
<title>Igor Barros,961429726 [fb:0]&#45;&gt;N4</title>
<path fill="none" stroke="black" d="M754.71,-196.83C748.75,-185.52 740.74,-170.3 733.54,-156.61"/>
<polygon fill="black" stroke="black" points="736.47,-154.66 728.71,-147.44 730.27,-157.92 736.47,-154.66"/>
</g>
<!-- N5 -->
<g id="node13" class="node">
<title>N5</title>
<ellipse fill="none" stroke="black" cx="790.74" cy="-121.79" rx="28.7" ry="28.7"/>
<text text-anchor="middle" x="790.74" y="-118.09" font-family="Times,serif" font-size="14.00">null</text>
</g>
<!-- Igor Barros,961429726 [fb:0]&#45;&gt;N5 -->
<g id="edge12" class="edge">
<title>Igor Barros,961429726 [fb:0]&#45;&gt;N5</title>
<path fill="none" stroke="black" d="M768.81,-196.83C771.96,-186.23 776.11,-172.2 779.95,-159.21"/>
<polygon fill="black" stroke="black" points="783.33,-160.13 782.81,-149.55 776.62,-158.15 783.33,-160.13"/>
</g>
<!-- Igor Barbosa,968604846 [fb:1] -->
<g id="node15" class="node">
<title>Igor Barbosa,968604846 [fb:1]</title>
<ellipse fill="none" stroke="black" cx="1083.74" cy="-214.99" rx="154.07" ry="18"/>
<text text-anchor="middle" x="1083.74" y="-211.29" font-family="Times,serif" font-size="14.00">Igor Barbosa,968604846 [fb:1]</text>
</g>
<!-- Igor Silva,970521913 [fb:0]&#45;&gt;Igor Barbosa,968604846 [fb:1] -->
<g id="edge14" class="edge">
<title>Igor Silva,970521913 [fb:0]&#45;&gt;Igor Barbosa,968604846 [fb:1]</title>
<path fill="none" stroke="black" d="M1213.36,-280.08C1188.28,-267.68 1153.73,-250.6 1126.61,-237.19"/>
<polygon fill="black" stroke="black" points="1127.87,-233.9 1117.35,-232.61 1124.76,-240.18 1127.87,-233.9"/>
</g>
<!-- Igor Barbosa,978011719 [fb:0] -->
<g id="node20" class="node">
<title>Igor Barbosa,978011719 [fb:0]</title>
<ellipse fill="none" stroke="black" cx="1409.74" cy="-214.99" rx="154.07" ry="18"/>
<text text-anchor="middle" x="1409.74" y="-211.29" font-family="Times,serif" font-size="14.00">Igor Barbosa,978011719 [fb:0]</text>
</g>
<!-- Igor Silva,970521913 [fb:0]&#45;&gt;Igor Barbosa,978011719 [fb:0] -->
<g id="edge19" class="edge">
<title>Igor Silva,970521913 [fb:0]&#45;&gt;Igor Barbosa,978011719 [fb:0]</title>
<path fill="none" stroke="black" d="M1280.12,-280.08C1305.19,-267.68 1339.74,-250.6 1366.87,-237.19"/>
<polygon fill="black" stroke="black" points="1368.71,-240.18 1376.12,-232.61 1365.61,-233.9 1368.71,-240.18"/>
</g>
<!-- N6 -->
<g id="node16" class="node">
<title>N6</title>
<ellipse fill="none" stroke="black" cx="889.74" cy="-121.79" rx="28.7" ry="28.7"/>
<text text-anchor="middle" x="889.74" y="-118.09" font-family="Times,serif" font-size="14.00">null</text>
</g>
<!-- Igor Barbosa,968604846 [fb:1]&#45;&gt;N6 -->
<g id="edge15" class="edge">
<title>Igor Barbosa,968604846 [fb:1]&#45;&gt;N6</title>
<path fill="none" stroke="black" d="M1034.85,-197.85C1003.1,-186.49 961.33,-169.87 926.74,-150.39 924.54,-149.15 922.32,-147.8 920.12,-146.38"/>
<polygon fill="black" stroke="black" points="922.04,-143.45 911.81,-140.68 918.08,-149.22 922.04,-143.45"/>
</g>
<!-- Igor Santos,968818010 [fb:0] -->
<g id="node17" class="node">
<title>Igor Santos,968818010 [fb:0]</title>
<ellipse fill="none" stroke="black" cx="1083.74" cy="-121.79" rx="147.57" ry="18"/>
<text text-anchor="middle" x="1083.74" y="-118.09" font-family="Times,serif" font-size="14.00">Igor Santos,968818010 [fb:0]</text>
</g>
<!-- Igor Barbosa,968604846 [fb:1]&#45;&gt;Igor Santos,968818010 [fb:0] -->
<g id="edge16" class="edge">
<title>Igor Barbosa,968604846 [fb:1]&#45;&gt;Igor Santos,968818010 [fb:0]</title>
<path fill="none" stroke="black" d="M1083.74,-196.83C1083.74,-183.71 1083.74,-165.36 1083.74,-150.21"/>
<polygon fill="black" stroke="black" points="1087.24,-149.87 1083.74,-139.87 1080.24,-149.87 1087.24,-149.87"/>
</g>
<!-- N7 -->
<g id="node18" class="node">
<title>N7</title>
<ellipse fill="none" stroke="black" cx="1045.74" cy="-28.6" rx="28.7" ry="28.7"/>
<text text-anchor="middle" x="1045.74" y="-24.9" font-family="Times,serif" font-size="14.00">null</text>
</g>
<!-- Igor Santos,968818010 [fb:0]&#45;&gt;N7 -->
<g id="edge17" class="edge">
<title>Igor Santos,968818010 [fb:0]&#45;&gt;N7</title>
<path fill="none" stroke="black" d="M1076.59,-103.64C1072.02,-92.68 1065.93,-78.07 1060.37,-64.72"/>
<polygon fill="black" stroke="black" points="1063.52,-63.18 1056.44,-55.3 1057.06,-65.87 1063.52,-63.18"/>
</g>
<!-- N8 -->
<g id="node19" class="node">
<title>N8</title>
<ellipse fill="none" stroke="black" cx="1120.74" cy="-28.6" rx="28.7" ry="28.7"/>
<text text-anchor="middle" x="1120.74" y="-24.9" font-family="Times,serif" font-size="14.00">null</text>
</g>
<!-- Igor Santos,968818010 [fb:0]&#45;&gt;N8 -->
<g id="edge18" class="edge">
<title>Igor Santos,968818010 [fb:0]&#45;&gt;N8</title>
<path fill="none" stroke="black" d="M1090.7,-103.64C1095.14,-92.68 1101.07,-78.07 1106.49,-64.72"/>
<polygon fill="black" stroke="black" points="1109.79,-65.88 1110.31,-55.3 1103.31,-63.25 1109.79,-65.88"/>
</g>
<!-- Igor Martins,976707879 [fb:0] -->
<g id="node21" class="node">
<title>Igor Martins,976707879 [fb:0]</title>
<ellipse fill="none" stroke="black" cx="1401.74" cy="-121.79" rx="152.97" ry="18"/>
<text text-anchor="middle" x="1401.74" y="-118.09" font-family="Times,serif" font-size="14.00">Igor Martins,976707879 [fb:0]</text>
</g>
<!-- Igor Barbosa,978011719 [fb:0]&#45;&gt;Igor Martins,976707879 [fb:0] -->
<g id="edge20" class="edge">
<title>Igor Barbosa,978011719 [fb:0]&#45;&gt;Igor Martins,976707879 [fb:0]</title>
<path fill="none" stroke="black" d="M1408.23,-196.83C1407.08,-183.71 1405.47,-165.36 1404.14,-150.21"/>
<polygon fill="black" stroke="black" points="1407.6,-149.52 1403.23,-139.87 1400.62,-150.14 1407.6,-149.52"/>
</g>
<!-- Igor Barros,981366478 [fb:0] -->
<g id="node24" class="node">
<title>Igor Barros,981366478 [fb:0]</title>
<ellipse fill="none" stroke="black" cx="1719.74" cy="-121.79" rx="147.57" ry="18"/>
<text text-anchor="middle" x="1719.74" y="-118.09" font-family="Times,serif" font-size="14.00">Igor Barros,981366478 [fb:0]</text>
</g>
<!-- Igor Barbosa,978011719 [fb:0]&#45;&gt;Igor Barros,981366478 [fb:0] -->
<g id="edge23" class="edge">
<title>Igor Barbosa,978011719 [fb:0]&#45;&gt;Igor Barros,981366478 [fb:0]</title>
<path fill="none" stroke="black" d="M1463.73,-198.1C1517.33,-182.34 1599.46,-158.18 1656.17,-141.49"/>
<polygon fill="black" stroke="black" points="1657.49,-144.75 1666.1,-138.57 1655.52,-138.04 1657.49,-144.75"/>
</g>
<!-- N9 -->
<g id="node22" class="node">
<title>N9</title>
<ellipse fill="none" stroke="black" cx="1363.74" cy="-28.6" rx="28.7" ry="28.7"/>
<text text-anchor="middle" x="1363.74" y="-24.9" font-family="Times,serif" font-size="14.00">null</text>
</g>
<!-- Igor Martins,976707879 [fb:0]&#45;&gt;N9 -->
<g id="edge21" class="edge">
<title>Igor Martins,976707879 [fb:0]&#45;&gt;N9</title>
<path fill="none" stroke="black" d="M1394.59,-103.64C1390.02,-92.68 1383.93,-78.07 1378.37,-64.72"/>
<polygon fill="black" stroke="black" points="1381.52,-63.18 1374.44,-55.3 1375.06,-65.87 1381.52,-63.18"/>
</g>
<!-- N10 -->
<g id="node23" class="node">
<title>N10</title>
<ellipse fill="none" stroke="black" cx="1438.74" cy="-28.6" rx="28.7" ry="28.7"/>
<text text-anchor="middle" x="1438.74" y="-24.9" font-family="Times,serif" font-size="14.00">null</text>
</g>
<!-- Igor Martins,976707879 [fb:0]&#45;&gt;N10 -->
<g id="edge22" class="edge">
<title>Igor Martins,976707879 [fb:0]&#45;&gt;N10</title>
<path fill="none" stroke="black" d="M1408.7,-103.64C1413.14,-92.68 1419.07,-78.07 1424.49,-64.72"/>
<polygon fill="black" stroke="black" points="1427.79,-65.88 1428.31,-55.3 1421.31,-63.25 1427.79,-65.88"/>
</g>
<!-- N11 -->
<g id="node25" class="node">
<title>N11</title>
<ellipse fill="none" stroke="black" cx="1681.74" cy="-28.6" rx="28.7" ry="28.7"/>
<text text-anchor="middle" x="1681.74" y="-24.9" font-family="Times,serif" font-size="14.00">null</text>
</g>
<!-- Igor Barros,981366478 [fb:0]&#45;&gt;N11 -->
<g id="edge24" class="edge">
<title>Igor Barros,981366478 [fb:0]&#45;&gt;N11</title>
<path fill="none" stroke="black" d="M1712.59,-103.64C1708.02,-92.68 1701.93,-78.07 1696.37,-64.72"/>
<polygon fill="black" stroke="black" points="1699.52,-63.18 1692.44,-55.3 1693.06,-65.87 1699.52,-63.18"/>
</g>
<!-- N12 -->
<g id="node26" class="node">
<title>N12</title>
<ellipse fill="none" stroke="black" cx="1756.74" cy="-28.6" rx="28.7" ry="28.7"/>
<text text-anchor="middle" x="1756.74" y="-24.9" font-family="Times,serif" font-size="14.00">null</text>
</g>
<!-- Igor Barros,981366478 [fb:0]&#45;&gt;N12 -->
<g id="edge25" class="edge">
<title>Igor Barros,981366478 [fb:0]&#45;&gt;N12</title>
<path fill="none" stroke="black" d="M1726.7,-103.64C1731.14,-92.68 1737.07,-78.07 1742.49,-64.72"/>
<polygon fill="black" stroke="black" points="1745.79,-65.88 1746.31,-55.3 1739.31,-63.25 1745.79,-65.88"/>
</g>
<!-- Igor Freitas,989918743 [fb:&#45;1] -->
<g id="node28" class="node">
<title>Igor Freitas,989918743 [fb:&#45;1]</title>
<ellipse fill="none" stroke="black" cx="1955.74" cy="-297.58" rx="152.17" ry="18"/>
<text text-anchor="middle" x="1955.74" y="-293.88" font-family="Times,serif" font-size="14.00">Igor Freitas,989918743 [fb:&#45;1]</text>
</g>
<!-- Igor Silva,990889114 [fb:0]&#45;&gt;Igor Freitas,989918743 [fb:&#45;1] -->
<g id="edge27" class="edge">
<title>Igor Silva,990889114 [fb:0]&#45;&gt;Igor Freitas,989918743 [fb:&#45;1]</title>
<path fill="none" stroke="black" d="M1955.74,-351.28C1955.74,-343.57 1955.74,-334.3 1955.74,-325.7"/>
<polygon fill="black" stroke="black" points="1959.24,-325.69 1955.74,-315.69 1952.24,-325.69 1959.24,-325.69"/>
</g>
<!-- Igor Farias,992854722 [fb:0] -->
<g id="node33" class="node">
<title>Igor Farias,992854722 [fb:0]</title>
<ellipse fill="none" stroke="black" cx="2312.74" cy="-297.58" rx="144.87" ry="18"/>
<text text-anchor="middle" x="2312.74" y="-293.88" font-family="Times,serif" font-size="14.00">Igor Farias,992854722 [fb:0]</text>
</g>
<!-- Igor Silva,990889114 [fb:0]&#45;&gt;Igor Farias,992854722 [fb:0] -->
<g id="edge32" class="edge">
<title>Igor Silva,990889114 [fb:0]&#45;&gt;Igor Farias,992854722 [fb:0]</title>
<path fill="none" stroke="black" d="M2028.84,-354.25C2086.91,-342.86 2168.16,-326.93 2228.87,-315.03"/>
<polygon fill="black" stroke="black" points="2229.67,-318.44 2238.81,-313.08 2228.32,-311.57 2229.67,-318.44"/>
</g>
<!-- Igor Machado,988375084 [fb:0] -->
<g id="node29" class="node">
<title>Igor Machado,988375084 [fb:0]</title>
<ellipse fill="none" stroke="black" cx="1913.74" cy="-214.99" rx="157.87" ry="18"/>
<text text-anchor="middle" x="1913.74" y="-211.29" font-family="Times,serif" font-size="14.00">Igor Machado,988375084 [fb:0]</text>
</g>
<!-- Igor Freitas,989918743 [fb:&#45;1]&#45;&gt;Igor Machado,988375084 [fb:0] -->
<g id="edge28" class="edge">
<title>Igor Freitas,989918743 [fb:&#45;1]&#45;&gt;Igor Machado,988375084 [fb:0]</title>
<path fill="none" stroke="black" d="M1946.83,-279.49C1941.15,-268.59 1933.68,-254.26 1927.27,-241.97"/>
<polygon fill="black" stroke="black" points="1930.36,-240.31 1922.63,-233.06 1924.15,-243.54 1930.36,-240.31"/>
</g>
<!-- N15 -->
<g id="node32" class="node">
<title>N15</title>
<ellipse fill="none" stroke="black" cx="2118.74" cy="-214.99" rx="28.7" ry="28.7"/>
<text text-anchor="middle" x="2118.74" y="-211.29" font-family="Times,serif" font-size="14.00">null</text>
</g>
<!-- Igor Freitas,989918743 [fb:&#45;1]&#45;&gt;N15 -->
<g id="edge31" class="edge">
<title>Igor Freitas,989918743 [fb:&#45;1]&#45;&gt;N15</title>
<path fill="none" stroke="black" d="M2000.87,-280.32C2025.17,-270.85 2055.29,-257.97 2080.74,-243.58 2083.03,-242.29 2085.36,-240.87 2087.67,-239.4"/>
<polygon fill="black" stroke="black" points="2090.07,-242 2096.39,-233.5 2086.15,-236.2 2090.07,-242"/>
</g>
<!-- N13 -->
<g id="node30" class="node">
<title>N13</title>
<ellipse fill="none" stroke="black" cx="1913.74" cy="-121.79" rx="28.7" ry="28.7"/>
<text text-anchor="middle" x="1913.74" y="-118.09" font-family="Times,serif" font-size="14.00">null</text>
</g>
<!-- Igor Machado,988375084 [fb:0]&#45;&gt;N13 -->
<g id="edge29" class="edge">
<title>Igor Machado,988375084 [fb:0]&#45;&gt;N13</title>
<path fill="none" stroke="black" d="M1913.74,-196.83C1913.74,-186.68 1913.74,-173.38 1913.74,-160.87"/>
<polygon fill="black" stroke="black" points="1917.24,-160.62 1913.74,-150.62 1910.24,-160.62 1917.24,-160.62"/>
</g>
<!-- N14 -->
<g id="node31" class="node">
<title>N14</title>
<ellipse fill="none" stroke="black" cx="1988.74" cy="-121.79" rx="28.7" ry="28.7"/>
<text text-anchor="middle" x="1988.74" y="-118.09" font-family="Times,serif" font-size="14.00">null</text>
</g>
<!-- Igor Machado,988375084 [fb:0]&#45;&gt;N14 -->
<g id="edge30" class="edge">
<title>Igor Machado,988375084 [fb:0]&#45;&gt;N14</title>
<path fill="none" stroke="black" d="M1927.84,-196.83C1938.15,-184.3 1952.39,-166.98 1964.51,-152.25"/>
<polygon fill="black" stroke="black" points="1967.34,-154.32 1970.99,-144.38 1961.93,-149.88 1967.34,-154.32"/>
</g>
<!-- Igor Coelho,991478182 [fb:0] -->
<g id="node34" class="node">
<title>Igor Coelho,991478182 [fb:0]</title>
<ellipse fill="none" stroke="black" cx="2312.74" cy="-214.99" rx="147.57" ry="18"/>
<text text-anchor="middle" x="2312.74" y="-211.29" font-family="Times,serif" font-size="14.00">Igor Coelho,991478182 [fb:0]</text>
</g>
<!-- Igor Farias,992854722 [fb:0]&#45;&gt;Igor Coelho,991478182 [fb:0] -->
<g id="edge33" class="edge">
<title>Igor Farias,992854722 [fb:0]&#45;&gt;Igor Coelho,991478182 [fb:0]</title>
<path fill="none" stroke="black" d="M2312.74,-279.49C2312.74,-268.91 2312.74,-255.1 2312.74,-243.06"/>
<polygon fill="black" stroke="black" points="2316.24,-243.06 2312.74,-233.06 2309.24,-243.06 2316.24,-243.06"/>
</g>
<!-- Igor Santos,997734597 [fb:0] -->
<g id="node37" class="node">
<title>Igor Santos,997734597 [fb:0]</title>
<ellipse fill="none" stroke="black" cx="2625.74" cy="-214.99" rx="147.57" ry="18"/>
<text text-anchor="middle" x="2625.74" y="-211.29" font-family="Times,serif" font-size="14.00">Igor Santos,997734597 [fb:0]</text>
</g>
<!-- Igor Farias,992854722 [fb:0]&#45;&gt;Igor Santos,997734597 [fb:0] -->
<g id="edge36" class="edge">
<title>Igor Farias,992854722 [fb:0]&#45;&gt;Igor Santos,997734597 [fb:0]</title>
<path fill="none" stroke="black" d="M2372.72,-281.14C2424.94,-267.69 2500.68,-248.19 2555.68,-234.03"/>
<polygon fill="black" stroke="black" points="2556.88,-237.33 2565.69,-231.45 2555.14,-230.55 2556.88,-237.33"/>
</g>
<!-- N16 -->
<g id="node35" class="node">
<title>N16</title>
<ellipse fill="none" stroke="black" cx="2275.74" cy="-121.79" rx="28.7" ry="28.7"/>
<text text-anchor="middle" x="2275.74" y="-118.09" font-family="Times,serif" font-size="14.00">null</text>
</g>
<!-- Igor Coelho,991478182 [fb:0]&#45;&gt;N16 -->
<g id="edge34" class="edge">
<title>Igor Coelho,991478182 [fb:0]&#45;&gt;N16</title>
<path fill="none" stroke="black" d="M2305.78,-196.83C2301.33,-185.87 2295.4,-171.26 2289.99,-157.92"/>
<polygon fill="black" stroke="black" points="2293.17,-156.44 2286.16,-148.49 2286.68,-159.07 2293.17,-156.44"/>
</g>
<!-- N17 -->
<g id="node36" class="node">
<title>N17</title>
<ellipse fill="none" stroke="black" cx="2350.74" cy="-121.79" rx="28.7" ry="28.7"/>
<text text-anchor="middle" x="2350.74" y="-118.09" font-family="Times,serif" font-size="14.00">null</text>
</g>
<!-- Igor Coelho,991478182 [fb:0]&#45;&gt;N17 -->
<g id="edge35" class="edge">
<title>Igor Coelho,991478182 [fb:0]&#45;&gt;N17</title>
<path fill="none" stroke="black" d="M2319.88,-196.83C2324.45,-185.87 2330.54,-171.26 2336.1,-157.92"/>
<polygon fill="black" stroke="black" points="2339.41,-159.07 2340.03,-148.49 2332.95,-156.38 2339.41,-159.07"/>
</g>
<!-- N18 -->
<g id="node38" class="node">
<title>N18</title>
<ellipse fill="none" stroke="black" cx="2587.74" cy="-121.79" rx="28.7" ry="28.7"/>
<text text-anchor="middle" x="2587.74" y="-118.09" font-family="Times,serif" font-size="14.00">null</text>
</g>
<!-- Igor Santos,997734597 [fb:0]&#45;&gt;N18 -->
<g id="edge37" class="edge">
<title>Igor Santos,997734597 [fb:0]&#45;&gt;N18</title>
<path fill="none" stroke="black" d="M2618.59,-196.83C2614.02,-185.87 2607.93,-171.26 2602.37,-157.92"/>
<polygon fill="black" stroke="black" points="2605.52,-156.38 2598.44,-148.49 2599.06,-159.07 2605.52,-156.38"/>
</g>
<!-- N19 -->
<g id="node39" class="node">
<title>N19</title>
<ellipse fill="none" stroke="black" cx="2662.74" cy="-121.79" rx="28.7" ry="28.7"/>
<text text-anchor="middle" x="2662.74" y="-118.09" font-family="Times,serif" font-size="14.00">null</text>
</g>
<!-- Igor Santos,997734597 [fb:0]&#45;&gt;N19 -->
<g id="edge38" class="edge">
<title>Igor Santos,997734597 [fb:0]&#45;&gt;N19</title>
<path fill="none" stroke="black" d="M2632.7,-196.83C2637.14,-185.87 2643.07,-171.26 2648.49,-157.92"/>
<polygon fill="black" stroke="black" points="2651.79,-159.07 2652.31,-148.49 2645.31,-156.44 2651.79,-159.07"/>
</g>
</g>
</svg>
