<?xml version="1.0" encoding="UTF-8" standalone="no"?>
<!DOCTYPE svg PUBLIC "-//W3C//DTD SVG 1.1//EN"
 "http://www.w3.org/Graphics/SVG/1.1/DTD/svg11.dtd">
<!-- Generated by graphviz version 2.43.0 (0)
 -->
<!-- Title: BST Pages: 1 -->
<svg width="523pt" height="607pt"
 viewBox="0.00 0.00 522.56 606.77" xmlns="http://www.w3.org/2000/svg" xmlns:xlink="http://www.w3.org/1999/xlink">
<g id="graph0" class="graph" transform="scale(1 1) rotate(0) translate(4 602.77)">
<title>BST</title>
<polygon fill="white" stroke="transparent" points="-4,4 -4,-602.77 518.56,-602.77 518.56,4 -4,4"/>
<!-- No_986979432 -->
<g id="node1" class="node">
<title>No_986979432</title>
<ellipse fill="none" stroke="black" cx="285.56" cy="-561.29" rx="107.46" ry="37.45"/>
<text text-anchor="middle" x="285.56" y="-572.59" font-family="Times,serif" font-size="14.00">Américo Rodrigues</text>
<text text-anchor="middle" x="285.56" y="-557.59" font-family="Times,serif" font-size="14.00">986979432</text>
<text text-anchor="middle" x="285.56" y="-542.59" font-family="Times,serif" font-size="14.00">fb=0</text>
</g>
<!-- No_985278999 -->
<g id="node2" class="node">
<title>No_985278999</title>
<ellipse fill="none" stroke="black" cx="201.56" cy="-450.34" rx="75.82" ry="37.45"/>
<text text-anchor="middle" x="201.56" y="-461.64" font-family="Times,serif" font-size="14.00">Acir Campos</text>
<text text-anchor="middle" x="201.56" y="-446.64" font-family="Times,serif" font-size="14.00">985278999</text>
<text text-anchor="middle" x="201.56" y="-431.64" font-family="Times,serif" font-size="14.00">fb=&#45;1</text>
</g>
<!-- No_986979432&#45;&gt;No_985278999 -->
<g id="edge1" class="edge">
<title>No_986979432&#45;&gt;No_985278999</title>
<path fill="none" stroke="black" d="M258.29,-524.92C250.65,-515.01 242.27,-504.14 234.35,-493.87"/>
<polygon fill="black" stroke="black" points="237,-491.57 228.12,-485.79 231.46,-495.85 237,-491.57"/>
</g>
<!-- No_997285865 -->
<g id="node11" class="node">
<title>No_997285865</title>
<ellipse fill="none" stroke="black" cx="370.56" cy="-450.34" rx="74.91" ry="37.45"/>
<text text-anchor="middle" x="370.56" y="-461.64" font-family="Times,serif" font-size="14.00">Almir Torres</text>
<text text-anchor="middle" x="370.56" y="-446.64" font-family="Times,serif" font-size="14.00">997285865</text>
<text text-anchor="middle" x="370.56" y="-431.64" font-family="Times,serif" font-size="14.00">fb=&#45;1</text>
</g>
<!-- No_986979432&#45;&gt;No_997285865 -->
<g id="edge10" class="edge">
<title>No_986979432&#45;&gt;No_997285865</title>
<path fill="none" stroke="black" d="M313.16,-524.92C320.96,-514.91 329.53,-503.93 337.61,-493.57"/>
<polygon fill="black" stroke="black" points="340.58,-495.46 343.97,-485.42 335.06,-491.15 340.58,-495.46"/>
</g>
<!-- No_960933790 -->
<g id="node3" class="node">
<title>No_960933790</title>
<ellipse fill="none" stroke="black" cx="85.56" cy="-339.38" rx="85.62" ry="37.45"/>
<text text-anchor="middle" x="85.56" y="-350.68" font-family="Times,serif" font-size="14.00">Andrea Santos</text>
<text text-anchor="middle" x="85.56" y="-335.68" font-family="Times,serif" font-size="14.00">960933790</text>
<text text-anchor="middle" x="85.56" y="-320.68" font-family="Times,serif" font-size="14.00">fb=0</text>
</g>
<!-- No_985278999&#45;&gt;No_960933790 -->
<g id="edge2" class="edge">
<title>No_985278999&#45;&gt;No_960933790</title>
<path fill="none" stroke="black" d="M167.07,-416.94C154.9,-405.51 141.07,-392.52 128.3,-380.52"/>
<polygon fill="black" stroke="black" points="130.61,-377.89 120.92,-373.6 125.81,-382.99 130.61,-377.89"/>
</g>
<!-- NUL_4 -->
<g id="node10" class="node">
<title>NUL_4</title>
<polygon fill="none" stroke="black" points="233.56,-361.38 189.56,-361.38 189.56,-317.38 233.56,-317.38 233.56,-361.38"/>
<text text-anchor="middle" x="211.56" y="-335.68" font-family="Times,serif" font-size="14.00">null</text>
</g>
<!-- No_985278999&#45;&gt;NUL_4 -->
<g id="edge9" class="edge">
<title>No_985278999&#45;&gt;NUL_4</title>
<path fill="none" stroke="black" d="M204.92,-412.75C206.14,-399.42 207.51,-384.49 208.69,-371.66"/>
<polygon fill="black" stroke="black" points="212.2,-371.74 209.63,-361.46 205.23,-371.1 212.2,-371.74"/>
</g>
<!-- NUL_0 -->
<g id="node4" class="node">
<title>NUL_0</title>
<polygon fill="none" stroke="black" points="91.56,-250.43 47.56,-250.43 47.56,-206.43 91.56,-206.43 91.56,-250.43"/>
<text text-anchor="middle" x="69.56" y="-224.73" font-family="Times,serif" font-size="14.00">null</text>
</g>
<!-- No_960933790&#45;&gt;NUL_0 -->
<g id="edge3" class="edge">
<title>No_960933790&#45;&gt;NUL_0</title>
<path fill="none" stroke="black" d="M80.19,-301.8C78.23,-288.47 76.04,-273.53 74.15,-260.7"/>
<polygon fill="black" stroke="black" points="77.57,-259.89 72.66,-250.51 70.65,-260.91 77.57,-259.89"/>
</g>
<!-- No_975960513 -->
<g id="node5" class="node">
<title>No_975960513</title>
<ellipse fill="none" stroke="black" cx="183.56" cy="-228.43" rx="73.58" ry="37.45"/>
<text text-anchor="middle" x="183.56" y="-239.73" font-family="Times,serif" font-size="14.00">Altair Souza</text>
<text text-anchor="middle" x="183.56" y="-224.73" font-family="Times,serif" font-size="14.00">975960513</text>
<text text-anchor="middle" x="183.56" y="-209.73" font-family="Times,serif" font-size="14.00">fb=&#45;1</text>
</g>
<!-- No_960933790&#45;&gt;No_975960513 -->
<g id="edge4" class="edge">
<title>No_960933790&#45;&gt;No_975960513</title>
<path fill="none" stroke="black" d="M116.3,-304.21C125.97,-293.46 136.74,-281.48 146.79,-270.31"/>
<polygon fill="black" stroke="black" points="149.52,-272.51 153.6,-262.74 144.31,-267.83 149.52,-272.51"/>
</g>
<!-- No_965115082 -->
<g id="node6" class="node">
<title>No_965115082</title>
<ellipse fill="none" stroke="black" cx="125.56" cy="-117.48" rx="75.82" ry="37.45"/>
<text text-anchor="middle" x="125.56" y="-128.78" font-family="Times,serif" font-size="14.00">Ana Barbosa</text>
<text text-anchor="middle" x="125.56" y="-113.78" font-family="Times,serif" font-size="14.00">965115082</text>
<text text-anchor="middle" x="125.56" y="-98.78" font-family="Times,serif" font-size="14.00">fb=0</text>
</g>
<!-- No_975960513&#45;&gt;No_965115082 -->
<g id="edge5" class="edge">
<title>No_975960513&#45;&gt;No_965115082</title>
<path fill="none" stroke="black" d="M164.73,-192.06C159.82,-182.83 154.46,-172.76 149.32,-163.12"/>
<polygon fill="black" stroke="black" points="152.28,-161.23 144.49,-154.05 146.1,-164.52 152.28,-161.23"/>
</g>
<!-- NUL_3 -->
<g id="node9" class="node">
<title>NUL_3</title>
<polygon fill="none" stroke="black" points="263.56,-139.48 219.56,-139.48 219.56,-95.48 263.56,-95.48 263.56,-139.48"/>
<text text-anchor="middle" x="241.56" y="-113.78" font-family="Times,serif" font-size="14.00">null</text>
</g>
<!-- No_975960513&#45;&gt;NUL_3 -->
<g id="edge8" class="edge">
<title>No_975960513&#45;&gt;NUL_3</title>
<path fill="none" stroke="black" d="M202.39,-192.06C209.86,-178.02 218.36,-162.05 225.53,-148.58"/>
<polygon fill="black" stroke="black" points="228.65,-150.18 230.26,-139.71 222.47,-146.89 228.65,-150.18"/>
</g>
<!-- NUL_1 -->
<g id="node7" class="node">
<title>NUL_1</title>
<polygon fill="none" stroke="black" points="116.56,-44 72.56,-44 72.56,0 116.56,0 116.56,-44"/>
<text text-anchor="middle" x="94.56" y="-18.3" font-family="Times,serif" font-size="14.00">null</text>
</g>
<!-- No_965115082&#45;&gt;NUL_1 -->
<g id="edge6" class="edge">
<title>No_965115082&#45;&gt;NUL_1</title>
<path fill="none" stroke="black" d="M113.57,-80.34C110.66,-71.55 107.57,-62.23 104.75,-53.72"/>
<polygon fill="black" stroke="black" points="108.05,-52.57 101.58,-44.18 101.41,-54.77 108.05,-52.57"/>
</g>
<!-- NUL_2 -->
<g id="node8" class="node">
<title>NUL_2</title>
<polygon fill="none" stroke="black" points="178.56,-44 134.56,-44 134.56,0 178.56,0 178.56,-44"/>
<text text-anchor="middle" x="156.56" y="-18.3" font-family="Times,serif" font-size="14.00">null</text>
</g>
<!-- No_965115082&#45;&gt;NUL_2 -->
<g id="edge7" class="edge">
<title>No_965115082&#45;&gt;NUL_2</title>
<path fill="none" stroke="black" d="M137.55,-80.34C140.46,-71.55 143.55,-62.23 146.37,-53.72"/>
<polygon fill="black" stroke="black" points="149.71,-54.77 149.54,-44.18 143.07,-52.57 149.71,-54.77"/>
</g>
<!-- No_987671978 -->
<g id="node12" class="node">
<title>No_987671978</title>
<ellipse fill="none" stroke="black" cx="361.56" cy="-339.38" rx="90.52" ry="37.45"/>
<text text-anchor="middle" x="361.56" y="-350.68" font-family="Times,serif" font-size="14.00">Adriana Pereira</text>
<text text-anchor="middle" x="361.56" y="-335.68" font-family="Times,serif" font-size="14.00">987671978</text>
<text text-anchor="middle" x="361.56" y="-320.68" font-family="Times,serif" font-size="14.00">fb=0</text>
</g>
<!-- No_997285865&#45;&gt;No_987671978 -->
<g id="edge11" class="edge">
<title>No_997285865&#45;&gt;No_987671978</title>
<path fill="none" stroke="black" d="M367.54,-412.75C366.86,-404.58 366.14,-395.8 365.43,-387.27"/>
<polygon fill="black" stroke="black" points="368.9,-386.73 364.59,-377.06 361.92,-387.31 368.9,-386.73"/>
</g>
<!-- NUL_7 -->
<g id="node15" class="node">
<title>NUL_7</title>
<polygon fill="none" stroke="black" points="514.56,-361.38 470.56,-361.38 470.56,-317.38 514.56,-317.38 514.56,-361.38"/>
<text text-anchor="middle" x="492.56" y="-335.68" font-family="Times,serif" font-size="14.00">null</text>
</g>
<!-- No_997285865&#45;&gt;NUL_7 -->
<g id="edge14" class="edge">
<title>No_997285865&#45;&gt;NUL_7</title>
<path fill="none" stroke="black" d="M412.29,-418.84C428.28,-406.46 446.33,-391.61 461.56,-376.86 464.01,-374.49 466.47,-371.94 468.87,-369.34"/>
<polygon fill="black" stroke="black" points="471.84,-371.26 475.85,-361.46 466.6,-366.62 471.84,-371.26"/>
</g>
<!-- NUL_5 -->
<g id="node13" class="node">
<title>NUL_5</title>
<polygon fill="none" stroke="black" points="341.56,-250.43 297.56,-250.43 297.56,-206.43 341.56,-206.43 341.56,-250.43"/>
<text text-anchor="middle" x="319.56" y="-224.73" font-family="Times,serif" font-size="14.00">null</text>
</g>
<!-- No_987671978&#45;&gt;NUL_5 -->
<g id="edge12" class="edge">
<title>No_987671978&#45;&gt;NUL_5</title>
<path fill="none" stroke="black" d="M347.57,-302.1C342.33,-288.49 336.42,-273.16 331.38,-260.1"/>
<polygon fill="black" stroke="black" points="334.59,-258.7 327.73,-250.63 328.06,-261.22 334.59,-258.7"/>
</g>
<!-- NUL_6 -->
<g id="node14" class="node">
<title>NUL_6</title>
<polygon fill="none" stroke="black" points="403.56,-250.43 359.56,-250.43 359.56,-206.43 403.56,-206.43 403.56,-250.43"/>
<text text-anchor="middle" x="381.56" y="-224.73" font-family="Times,serif" font-size="14.00">null</text>
</g>
<!-- No_987671978&#45;&gt;NUL_6 -->
<g id="edge13" class="edge">
<title>No_987671978&#45;&gt;NUL_6</title>
<path fill="none" stroke="black" d="M368.28,-301.8C370.72,-288.47 373.46,-273.53 375.82,-260.7"/>
<polygon fill="black" stroke="black" points="379.33,-260.98 377.69,-250.51 372.44,-259.71 379.33,-260.98"/>
</g>
</g>
</svg>
