<?xml version="1.0" encoding="UTF-8" standalone="no"?>
<!DOCTYPE svg PUBLIC "-//W3C//DTD SVG 1.1//EN"
 "http://www.w3.org/Graphics/SVG/1.1/DTD/svg11.dtd">
<!-- Generated by graphviz version 2.43.0 (0)
 -->
<!-- Title: BST Pages: 1 -->
<svg width="830pt" height="607pt"
 viewBox="0.00 0.00 829.91 606.77" xmlns="http://www.w3.org/2000/svg" xmlns:xlink="http://www.w3.org/1999/xlink">
<g id="graph0" class="graph" transform="scale(1 1) rotate(0) translate(4 602.77)">
<title>BST</title>
<polygon fill="white" stroke="transparent" points="-4,4 -4,-602.77 825.91,-602.77 825.91,4 -4,4"/>
<!-- No_987671978 -->
<g id="node1" class="node">
<title>No_987671978</title>
<ellipse fill="none" stroke="black" cx="546.95" cy="-561.29" rx="90.52" ry="37.45"/>
<text text-anchor="middle" x="546.95" y="-572.59" font-family="Times,serif" font-size="14.00">Adriana Pereira</text>
<text text-anchor="middle" x="546.95" y="-557.59" font-family="Times,serif" font-size="14.00">987671978</text>
<text text-anchor="middle" x="546.95" y="-542.59" font-family="Times,serif" font-size="14.00">fb=0</text>
</g>
<!-- No_975960513 -->
<g id="node2" class="node">
<title>No_975960513</title>
<ellipse fill="none" stroke="black" cx="451.95" cy="-450.34" rx="73.58" ry="37.45"/>
<text text-anchor="middle" x="451.95" y="-461.64" font-family="Times,serif" font-size="14.00">Altair Souza</text>
<text text-anchor="middle" x="451.95" y="-446.64" font-family="Times,serif" font-size="14.00">975960513</text>
<text text-anchor="middle" x="451.95" y="-431.64" font-family="Times,serif" font-size="14.00">fb=0</text>
</g>
<!-- No_987671978&#45;&gt;No_975960513 -->
<g id="edge1" class="edge">
<title>No_987671978&#45;&gt;No_975960513</title>
<path fill="none" stroke="black" d="M516.89,-525.82C507.71,-515.28 497.51,-503.59 487.97,-492.65"/>
<polygon fill="black" stroke="black" points="490.38,-490.08 481.17,-484.84 485.1,-494.68 490.38,-490.08"/>
</g>
<!-- No_994116870 -->
<g id="node17" class="node">
<title>No_994116870</title>
<ellipse fill="none" stroke="black" cx="642.95" cy="-450.34" rx="98.99" ry="37.45"/>
<text text-anchor="middle" x="642.95" y="-461.64" font-family="Times,serif" font-size="14.00">Alexandra Moura</text>
<text text-anchor="middle" x="642.95" y="-446.64" font-family="Times,serif" font-size="14.00">994116870</text>
<text text-anchor="middle" x="642.95" y="-431.64" font-family="Times,serif" font-size="14.00">fb=1</text>
</g>
<!-- No_987671978&#45;&gt;No_994116870 -->
<g id="edge16" class="edge">
<title>No_987671978&#45;&gt;No_994116870</title>
<path fill="none" stroke="black" d="M577.33,-525.82C586.26,-515.68 596.13,-504.48 605.45,-493.9"/>
<polygon fill="black" stroke="black" points="608.13,-496.15 612.12,-486.33 602.88,-491.52 608.13,-496.15"/>
</g>
<!-- No_960933790 -->
<g id="node3" class="node">
<title>No_960933790</title>
<ellipse fill="none" stroke="black" cx="251.95" cy="-339.38" rx="85.62" ry="37.45"/>
<text text-anchor="middle" x="251.95" y="-350.68" font-family="Times,serif" font-size="14.00">Andrea Santos</text>
<text text-anchor="middle" x="251.95" y="-335.68" font-family="Times,serif" font-size="14.00">960933790</text>
<text text-anchor="middle" x="251.95" y="-320.68" font-family="Times,serif" font-size="14.00">fb=0</text>
</g>
<!-- No_975960513&#45;&gt;No_960933790 -->
<g id="edge2" class="edge">
<title>No_975960513&#45;&gt;No_960933790</title>
<path fill="none" stroke="black" d="M402.52,-422.4C375.69,-407.79 342.28,-389.59 313.75,-374.05"/>
<polygon fill="black" stroke="black" points="315.13,-370.81 304.67,-369.1 311.78,-376.96 315.13,-370.81"/>
</g>
<!-- No_986979432 -->
<g id="node12" class="node">
<title>No_986979432</title>
<ellipse fill="none" stroke="black" cx="462.95" cy="-339.38" rx="107.46" ry="37.45"/>
<text text-anchor="middle" x="462.95" y="-350.68" font-family="Times,serif" font-size="14.00">Américo Rodrigues</text>
<text text-anchor="middle" x="462.95" y="-335.68" font-family="Times,serif" font-size="14.00">986979432</text>
<text text-anchor="middle" x="462.95" y="-320.68" font-family="Times,serif" font-size="14.00">fb=0</text>
</g>
<!-- No_975960513&#45;&gt;No_986979432 -->
<g id="edge11" class="edge">
<title>No_975960513&#45;&gt;No_986979432</title>
<path fill="none" stroke="black" d="M455.65,-412.75C456.47,-404.58 457.36,-395.8 458.22,-387.27"/>
<polygon fill="black" stroke="black" points="461.73,-387.36 459.25,-377.06 454.76,-386.65 461.73,-387.36"/>
</g>
<!-- No_955838599 -->
<g id="node4" class="node">
<title>No_955838599</title>
<ellipse fill="none" stroke="black" cx="74.95" cy="-228.43" rx="74.91" ry="37.45"/>
<text text-anchor="middle" x="74.95" y="-239.73" font-family="Times,serif" font-size="14.00">Aline Santos</text>
<text text-anchor="middle" x="74.95" y="-224.73" font-family="Times,serif" font-size="14.00">955838599</text>
<text text-anchor="middle" x="74.95" y="-209.73" font-family="Times,serif" font-size="14.00">fb=1</text>
</g>
<!-- No_960933790&#45;&gt;No_955838599 -->
<g id="edge3" class="edge">
<title>No_960933790&#45;&gt;No_955838599</title>
<path fill="none" stroke="black" d="M203.12,-308.32C180.53,-294.42 153.58,-277.83 130.25,-263.47"/>
<polygon fill="black" stroke="black" points="131.85,-260.34 121.5,-258.08 128.18,-266.3 131.85,-260.34"/>
</g>
<!-- No_967387182 -->
<g id="node7" class="node">
<title>No_967387182</title>
<ellipse fill="none" stroke="black" cx="258.95" cy="-228.43" rx="91.43" ry="37.45"/>
<text text-anchor="middle" x="258.95" y="-239.73" font-family="Times,serif" font-size="14.00">Alfredo Martins</text>
<text text-anchor="middle" x="258.95" y="-224.73" font-family="Times,serif" font-size="14.00">967387182</text>
<text text-anchor="middle" x="258.95" y="-209.73" font-family="Times,serif" font-size="14.00">fb=0</text>
</g>
<!-- No_960933790&#45;&gt;No_967387182 -->
<g id="edge6" class="edge">
<title>No_960933790&#45;&gt;No_967387182</title>
<path fill="none" stroke="black" d="M254.3,-301.8C254.83,-293.63 255.39,-284.85 255.94,-276.32"/>
<polygon fill="black" stroke="black" points="259.45,-276.31 256.6,-266.1 252.46,-275.86 259.45,-276.31"/>
</g>
<!-- NUL_0 -->
<g id="node5" class="node">
<title>NUL_0</title>
<polygon fill="none" stroke="black" points="72.95,-139.48 28.95,-139.48 28.95,-95.48 72.95,-95.48 72.95,-139.48"/>
<text text-anchor="middle" x="50.95" y="-113.78" font-family="Times,serif" font-size="14.00">null</text>
</g>
<!-- No_955838599&#45;&gt;NUL_0 -->
<g id="edge4" class="edge">
<title>No_955838599&#45;&gt;NUL_0</title>
<path fill="none" stroke="black" d="M66.96,-191.15C63.99,-177.67 60.65,-162.51 57.79,-149.53"/>
<polygon fill="black" stroke="black" points="61.19,-148.69 55.62,-139.67 54.36,-150.19 61.19,-148.69"/>
</g>
<!-- NUL_1 -->
<g id="node6" class="node">
<title>NUL_1</title>
<polygon fill="none" stroke="black" points="134.95,-139.48 90.95,-139.48 90.95,-95.48 134.95,-95.48 134.95,-139.48"/>
<text text-anchor="middle" x="112.95" y="-113.78" font-family="Times,serif" font-size="14.00">null</text>
</g>
<!-- No_955838599&#45;&gt;NUL_1 -->
<g id="edge5" class="edge">
<title>No_955838599&#45;&gt;NUL_1</title>
<path fill="none" stroke="black" d="M87.5,-191.45C92.26,-177.82 97.62,-162.43 102.2,-149.32"/>
<polygon fill="black" stroke="black" points="105.53,-150.39 105.52,-139.79 98.92,-148.08 105.53,-150.39"/>
</g>
<!-- No_965115082 -->
<g id="node8" class="node">
<title>No_965115082</title>
<ellipse fill="none" stroke="black" cx="243.95" cy="-117.48" rx="75.82" ry="37.45"/>
<text text-anchor="middle" x="243.95" y="-128.78" font-family="Times,serif" font-size="14.00">Ana Barbosa</text>
<text text-anchor="middle" x="243.95" y="-113.78" font-family="Times,serif" font-size="14.00">965115082</text>
<text text-anchor="middle" x="243.95" y="-98.78" font-family="Times,serif" font-size="14.00">fb=0</text>
</g>
<!-- No_967387182&#45;&gt;No_965115082 -->
<g id="edge7" class="edge">
<title>No_967387182&#45;&gt;No_965115082</title>
<path fill="none" stroke="black" d="M253.92,-190.85C252.78,-182.58 251.56,-173.7 250.37,-165.09"/>
<polygon fill="black" stroke="black" points="253.83,-164.58 249,-155.15 246.9,-165.53 253.83,-164.58"/>
</g>
<!-- NUL_4 -->
<g id="node11" class="node">
<title>NUL_4</title>
<polygon fill="none" stroke="black" points="381.95,-139.48 337.95,-139.48 337.95,-95.48 381.95,-95.48 381.95,-139.48"/>
<text text-anchor="middle" x="359.95" y="-113.78" font-family="Times,serif" font-size="14.00">null</text>
</g>
<!-- No_967387182&#45;&gt;NUL_4 -->
<g id="edge10" class="edge">
<title>No_967387182&#45;&gt;NUL_4</title>
<path fill="none" stroke="black" d="M292.52,-193.57C304.22,-181.53 317.32,-167.79 328.95,-154.95 331.19,-152.49 333.48,-149.91 335.75,-147.3"/>
<polygon fill="black" stroke="black" points="338.59,-149.37 342.47,-139.51 333.29,-144.79 338.59,-149.37"/>
</g>
<!-- NUL_2 -->
<g id="node9" class="node">
<title>NUL_2</title>
<polygon fill="none" stroke="black" points="234.95,-44 190.95,-44 190.95,0 234.95,0 234.95,-44"/>
<text text-anchor="middle" x="212.95" y="-18.3" font-family="Times,serif" font-size="14.00">null</text>
</g>
<!-- No_965115082&#45;&gt;NUL_2 -->
<g id="edge8" class="edge">
<title>No_965115082&#45;&gt;NUL_2</title>
<path fill="none" stroke="black" d="M231.97,-80.34C229.05,-71.55 225.96,-62.23 223.14,-53.72"/>
<polygon fill="black" stroke="black" points="226.45,-52.57 219.98,-44.18 219.8,-54.77 226.45,-52.57"/>
</g>
<!-- NUL_3 -->
<g id="node10" class="node">
<title>NUL_3</title>
<polygon fill="none" stroke="black" points="296.95,-44 252.95,-44 252.95,0 296.95,0 296.95,-44"/>
<text text-anchor="middle" x="274.95" y="-18.3" font-family="Times,serif" font-size="14.00">null</text>
</g>
<!-- No_965115082&#45;&gt;NUL_3 -->
<g id="edge9" class="edge">
<title>No_965115082&#45;&gt;NUL_3</title>
<path fill="none" stroke="black" d="M255.94,-80.34C258.85,-71.55 261.94,-62.23 264.77,-53.72"/>
<polygon fill="black" stroke="black" points="268.1,-54.77 267.93,-44.18 261.46,-52.57 268.1,-54.77"/>
</g>
<!-- No_985278999 -->
<g id="node13" class="node">
<title>No_985278999</title>
<ellipse fill="none" stroke="black" cx="456.95" cy="-228.43" rx="75.82" ry="37.45"/>
<text text-anchor="middle" x="456.95" y="-239.73" font-family="Times,serif" font-size="14.00">Acir Campos</text>
<text text-anchor="middle" x="456.95" y="-224.73" font-family="Times,serif" font-size="14.00">985278999</text>
<text text-anchor="middle" x="456.95" y="-209.73" font-family="Times,serif" font-size="14.00">fb=0</text>
</g>
<!-- No_986979432&#45;&gt;No_985278999 -->
<g id="edge12" class="edge">
<title>No_986979432&#45;&gt;No_985278999</title>
<path fill="none" stroke="black" d="M460.94,-301.8C460.49,-293.63 460.01,-284.85 459.54,-276.32"/>
<polygon fill="black" stroke="black" points="463.02,-275.89 458.97,-266.1 456.03,-276.28 463.02,-275.89"/>
</g>
<!-- NUL_7 -->
<g id="node16" class="node">
<title>NUL_7</title>
<polygon fill="none" stroke="black" points="594.95,-250.43 550.95,-250.43 550.95,-206.43 594.95,-206.43 594.95,-250.43"/>
<text text-anchor="middle" x="572.95" y="-224.73" font-family="Times,serif" font-size="14.00">null</text>
</g>
<!-- No_986979432&#45;&gt;NUL_7 -->
<g id="edge15" class="edge">
<title>No_986979432&#45;&gt;NUL_7</title>
<path fill="none" stroke="black" d="M502.03,-304.29C515.06,-292.47 529.43,-278.91 541.95,-265.91 544.26,-263.51 546.6,-260.97 548.91,-258.4"/>
<polygon fill="black" stroke="black" points="551.73,-260.49 555.68,-250.65 546.46,-255.88 551.73,-260.49"/>
</g>
<!-- NUL_5 -->
<g id="node14" class="node">
<title>NUL_5</title>
<polygon fill="none" stroke="black" points="454.95,-139.48 410.95,-139.48 410.95,-95.48 454.95,-95.48 454.95,-139.48"/>
<text text-anchor="middle" x="432.95" y="-113.78" font-family="Times,serif" font-size="14.00">null</text>
</g>
<!-- No_985278999&#45;&gt;NUL_5 -->
<g id="edge13" class="edge">
<title>No_985278999&#45;&gt;NUL_5</title>
<path fill="none" stroke="black" d="M448.96,-191.15C445.99,-177.67 442.65,-162.51 439.79,-149.53"/>
<polygon fill="black" stroke="black" points="443.19,-148.69 437.62,-139.67 436.36,-150.19 443.19,-148.69"/>
</g>
<!-- NUL_6 -->
<g id="node15" class="node">
<title>NUL_6</title>
<polygon fill="none" stroke="black" points="516.95,-139.48 472.95,-139.48 472.95,-95.48 516.95,-95.48 516.95,-139.48"/>
<text text-anchor="middle" x="494.95" y="-113.78" font-family="Times,serif" font-size="14.00">null</text>
</g>
<!-- No_985278999&#45;&gt;NUL_6 -->
<g id="edge14" class="edge">
<title>No_985278999&#45;&gt;NUL_6</title>
<path fill="none" stroke="black" d="M469.5,-191.45C474.26,-177.82 479.62,-162.43 484.2,-149.32"/>
<polygon fill="black" stroke="black" points="487.53,-150.39 487.52,-139.79 480.92,-148.08 487.53,-150.39"/>
</g>
<!-- NUL_8 -->
<g id="node18" class="node">
<title>NUL_8</title>
<polygon fill="none" stroke="black" points="653.95,-361.38 609.95,-361.38 609.95,-317.38 653.95,-317.38 653.95,-361.38"/>
<text text-anchor="middle" x="631.95" y="-335.68" font-family="Times,serif" font-size="14.00">null</text>
</g>
<!-- No_994116870&#45;&gt;NUL_8 -->
<g id="edge17" class="edge">
<title>No_994116870&#45;&gt;NUL_8</title>
<path fill="none" stroke="black" d="M639.26,-412.75C637.91,-399.42 636.41,-384.49 635.11,-371.66"/>
<polygon fill="black" stroke="black" points="638.57,-371.06 634.08,-361.46 631.6,-371.76 638.57,-371.06"/>
</g>
<!-- No_997285865 -->
<g id="node19" class="node">
<title>No_997285865</title>
<ellipse fill="none" stroke="black" cx="746.95" cy="-339.38" rx="74.91" ry="37.45"/>
<text text-anchor="middle" x="746.95" y="-350.68" font-family="Times,serif" font-size="14.00">Almir Torres</text>
<text text-anchor="middle" x="746.95" y="-335.68" font-family="Times,serif" font-size="14.00">997285865</text>
<text text-anchor="middle" x="746.95" y="-320.68" font-family="Times,serif" font-size="14.00">fb=0</text>
</g>
<!-- No_994116870&#45;&gt;No_997285865 -->
<g id="edge18" class="edge">
<title>No_994116870&#45;&gt;No_997285865</title>
<path fill="none" stroke="black" d="M675.86,-414.86C686.11,-404.12 697.51,-392.18 708.13,-381.06"/>
<polygon fill="black" stroke="black" points="710.95,-383.17 715.33,-373.52 705.89,-378.33 710.95,-383.17"/>
</g>
<!-- NUL_9 -->
<g id="node20" class="node">
<title>NUL_9</title>
<polygon fill="none" stroke="black" points="737.95,-250.43 693.95,-250.43 693.95,-206.43 737.95,-206.43 737.95,-250.43"/>
<text text-anchor="middle" x="715.95" y="-224.73" font-family="Times,serif" font-size="14.00">null</text>
</g>
<!-- No_997285865&#45;&gt;NUL_9 -->
<g id="edge19" class="edge">
<title>No_997285865&#45;&gt;NUL_9</title>
<path fill="none" stroke="black" d="M736.63,-302.1C732.79,-288.62 728.48,-273.46 724.79,-260.49"/>
<polygon fill="black" stroke="black" points="728.09,-259.29 721.98,-250.63 721.35,-261.2 728.09,-259.29"/>
</g>
<!-- NUL_10 -->
<g id="node21" class="node">
<title>NUL_10</title>
<polygon fill="none" stroke="black" points="799.95,-250.43 755.95,-250.43 755.95,-206.43 799.95,-206.43 799.95,-250.43"/>
<text text-anchor="middle" x="777.95" y="-224.73" font-family="Times,serif" font-size="14.00">null</text>
</g>
<!-- No_997285865&#45;&gt;NUL_10 -->
<g id="edge20" class="edge">
<title>No_997285865&#45;&gt;NUL_10</title>
<path fill="none" stroke="black" d="M757.28,-302.1C761.11,-288.62 765.43,-273.46 769.12,-260.49"/>
<polygon fill="black" stroke="black" points="772.55,-261.2 771.92,-250.63 765.82,-259.29 772.55,-261.2"/>
</g>
</g>
</svg>
