<?xml version="1.0" encoding="UTF-8" standalone="no"?>
<!DOCTYPE svg PUBLIC "-//W3C//DTD SVG 1.1//EN"
 "http://www.w3.org/Graphics/SVG/1.1/DTD/svg11.dtd">
<!-- Generated by graphviz version 2.43.0 (0)
 -->
<!-- Title: BST Pages: 1 -->
<svg width="623pt" height="496pt"
 viewBox="0.00 0.00 622.95 495.81" xmlns="http://www.w3.org/2000/svg" xmlns:xlink="http://www.w3.org/1999/xlink">
<g id="graph0" class="graph" transform="scale(1 1) rotate(0) translate(4 491.81)">
<title>BST</title>
<polygon fill="white" stroke="transparent" points="-4,4 -4,-491.81 618.95,-491.81 618.95,4 -4,4"/>
<!-- No_985278999 -->
<g id="node1" class="node">
<title>No_985278999</title>
<ellipse fill="none" stroke="black" cx="343.95" cy="-450.34" rx="75.82" ry="37.45"/>
<text text-anchor="middle" x="343.95" y="-461.64" font-family="Times,serif" font-size="14.00">Acir Campos</text>
<text text-anchor="middle" x="343.95" y="-446.64" font-family="Times,serif" font-size="14.00">985278999</text>
<text text-anchor="middle" x="343.95" y="-431.64" font-family="Times,serif" font-size="14.00">fb=&#45;1</text>
</g>
<!-- No_960933790 -->
<g id="node2" class="node">
<title>No_960933790</title>
<ellipse fill="none" stroke="black" cx="242.95" cy="-339.38" rx="85.62" ry="37.45"/>
<text text-anchor="middle" x="242.95" y="-350.68" font-family="Times,serif" font-size="14.00">Andrea Santos</text>
<text text-anchor="middle" x="242.95" y="-335.68" font-family="Times,serif" font-size="14.00">960933790</text>
<text text-anchor="middle" x="242.95" y="-320.68" font-family="Times,serif" font-size="14.00">fb=0</text>
</g>
<!-- No_985278999&#45;&gt;No_960933790 -->
<g id="edge1" class="edge">
<title>No_985278999&#45;&gt;No_960933790</title>
<path fill="none" stroke="black" d="M313.1,-416.06C303.2,-405.38 292.11,-393.41 281.72,-382.2"/>
<polygon fill="black" stroke="black" points="284.03,-379.54 274.66,-374.59 278.9,-384.3 284.03,-379.54"/>
</g>
<!-- No_1431789496 -->
<g id="node11" class="node">
<title>No_1431789496</title>
<ellipse fill="none" stroke="black" cx="445.95" cy="-339.38" rx="98.99" ry="37.45"/>
<text text-anchor="middle" x="445.95" y="-350.68" font-family="Times,serif" font-size="14.00">Alexandra Moura</text>
<text text-anchor="middle" x="445.95" y="-335.68" font-family="Times,serif" font-size="14.00">1431789496</text>
<text text-anchor="middle" x="445.95" y="-320.68" font-family="Times,serif" font-size="14.00">fb=&#45;1</text>
</g>
<!-- No_985278999&#45;&gt;No_1431789496 -->
<g id="edge10" class="edge">
<title>No_985278999&#45;&gt;No_1431789496</title>
<path fill="none" stroke="black" d="M375.11,-416.06C385.01,-405.48 396.1,-393.64 406.5,-382.52"/>
<polygon fill="black" stroke="black" points="409.3,-384.66 413.57,-374.97 404.19,-379.88 409.3,-384.66"/>
</g>
<!-- No_955838599 -->
<g id="node3" class="node">
<title>No_955838599</title>
<ellipse fill="none" stroke="black" cx="74.95" cy="-228.43" rx="74.91" ry="37.45"/>
<text text-anchor="middle" x="74.95" y="-239.73" font-family="Times,serif" font-size="14.00">Aline Santos</text>
<text text-anchor="middle" x="74.95" y="-224.73" font-family="Times,serif" font-size="14.00">955838599</text>
<text text-anchor="middle" x="74.95" y="-209.73" font-family="Times,serif" font-size="14.00">fb=0</text>
</g>
<!-- No_960933790&#45;&gt;No_955838599 -->
<g id="edge2" class="edge">
<title>No_960933790&#45;&gt;No_955838599</title>
<path fill="none" stroke="black" d="M195.71,-307.74C174.72,-294.13 149.91,-278.04 128.26,-264"/>
<polygon fill="black" stroke="black" points="130.12,-261.03 119.82,-258.53 126.31,-266.91 130.12,-261.03"/>
</g>
<!-- No_965115082 -->
<g id="node6" class="node">
<title>No_965115082</title>
<ellipse fill="none" stroke="black" cx="243.95" cy="-228.43" rx="75.82" ry="37.45"/>
<text text-anchor="middle" x="243.95" y="-239.73" font-family="Times,serif" font-size="14.00">Ana Barbosa</text>
<text text-anchor="middle" x="243.95" y="-224.73" font-family="Times,serif" font-size="14.00">965115082</text>
<text text-anchor="middle" x="243.95" y="-209.73" font-family="Times,serif" font-size="14.00">fb=0</text>
</g>
<!-- No_960933790&#45;&gt;No_965115082 -->
<g id="edge5" class="edge">
<title>No_960933790&#45;&gt;No_965115082</title>
<path fill="none" stroke="black" d="M243.29,-301.8C243.36,-293.63 243.44,-284.85 243.52,-276.32"/>
<polygon fill="black" stroke="black" points="247.02,-276.13 243.62,-266.1 240.03,-276.07 247.02,-276.13"/>
</g>
<!-- NUL_0 -->
<g id="node4" class="node">
<title>NUL_0</title>
<polygon fill="none" stroke="black" points="74.95,-139.48 30.95,-139.48 30.95,-95.48 74.95,-95.48 74.95,-139.48"/>
<text text-anchor="middle" x="52.95" y="-113.78" font-family="Times,serif" font-size="14.00">null</text>
</g>
<!-- No_955838599&#45;&gt;NUL_0 -->
<g id="edge3" class="edge">
<title>No_955838599&#45;&gt;NUL_0</title>
<path fill="none" stroke="black" d="M67.57,-190.85C64.85,-177.38 61.8,-162.28 59.19,-149.37"/>
<polygon fill="black" stroke="black" points="62.62,-148.66 57.21,-139.55 55.76,-150.05 62.62,-148.66"/>
</g>
<!-- NUL_1 -->
<g id="node5" class="node">
<title>NUL_1</title>
<polygon fill="none" stroke="black" points="136.95,-139.48 92.95,-139.48 92.95,-95.48 136.95,-95.48 136.95,-139.48"/>
<text text-anchor="middle" x="114.95" y="-113.78" font-family="Times,serif" font-size="14.00">null</text>
</g>
<!-- No_955838599&#45;&gt;NUL_1 -->
<g id="edge4" class="edge">
<title>No_955838599&#45;&gt;NUL_1</title>
<path fill="none" stroke="black" d="M88.16,-191.45C93.17,-177.82 98.82,-162.43 103.63,-149.32"/>
<polygon fill="black" stroke="black" points="106.97,-150.39 107.13,-139.79 100.4,-147.97 106.97,-150.39"/>
</g>
<!-- NUL_2 -->
<g id="node7" class="node">
<title>NUL_2</title>
<polygon fill="none" stroke="black" points="218.95,-139.48 174.95,-139.48 174.95,-95.48 218.95,-95.48 218.95,-139.48"/>
<text text-anchor="middle" x="196.95" y="-113.78" font-family="Times,serif" font-size="14.00">null</text>
</g>
<!-- No_965115082&#45;&gt;NUL_2 -->
<g id="edge6" class="edge">
<title>No_965115082&#45;&gt;NUL_2</title>
<path fill="none" stroke="black" d="M228.43,-191.45C222.55,-177.82 215.92,-162.43 210.26,-149.32"/>
<polygon fill="black" stroke="black" points="213.32,-147.59 206.15,-139.79 206.9,-150.36 213.32,-147.59"/>
</g>
<!-- No_975960513 -->
<g id="node8" class="node">
<title>No_975960513</title>
<ellipse fill="none" stroke="black" cx="310.95" cy="-117.48" rx="73.58" ry="37.45"/>
<text text-anchor="middle" x="310.95" y="-128.78" font-family="Times,serif" font-size="14.00">Altair Souza</text>
<text text-anchor="middle" x="310.95" y="-113.78" font-family="Times,serif" font-size="14.00">975960513</text>
<text text-anchor="middle" x="310.95" y="-98.78" font-family="Times,serif" font-size="14.00">fb=0</text>
</g>
<!-- No_965115082&#45;&gt;No_975960513 -->
<g id="edge7" class="edge">
<title>No_965115082&#45;&gt;No_975960513</title>
<path fill="none" stroke="black" d="M265.52,-192.36C271.44,-182.73 277.93,-172.18 284.1,-162.14"/>
<polygon fill="black" stroke="black" points="287.17,-163.84 289.43,-153.48 281.21,-160.17 287.17,-163.84"/>
</g>
<!-- NUL_3 -->
<g id="node9" class="node">
<title>NUL_3</title>
<polygon fill="none" stroke="black" points="301.95,-44 257.95,-44 257.95,0 301.95,0 301.95,-44"/>
<text text-anchor="middle" x="279.95" y="-18.3" font-family="Times,serif" font-size="14.00">null</text>
</g>
<!-- No_975960513&#45;&gt;NUL_3 -->
<g id="edge8" class="edge">
<title>No_975960513&#45;&gt;NUL_3</title>
<path fill="none" stroke="black" d="M298.97,-80.34C296.05,-71.55 292.96,-62.23 290.14,-53.72"/>
<polygon fill="black" stroke="black" points="293.45,-52.57 286.98,-44.18 286.8,-54.77 293.45,-52.57"/>
</g>
<!-- NUL_4 -->
<g id="node10" class="node">
<title>NUL_4</title>
<polygon fill="none" stroke="black" points="363.95,-44 319.95,-44 319.95,0 363.95,0 363.95,-44"/>
<text text-anchor="middle" x="341.95" y="-18.3" font-family="Times,serif" font-size="14.00">null</text>
</g>
<!-- No_975960513&#45;&gt;NUL_4 -->
<g id="edge9" class="edge">
<title>No_975960513&#45;&gt;NUL_4</title>
<path fill="none" stroke="black" d="M322.94,-80.34C325.85,-71.55 328.94,-62.23 331.77,-53.72"/>
<polygon fill="black" stroke="black" points="335.1,-54.77 334.93,-44.18 328.46,-52.57 335.1,-54.77"/>
</g>
<!-- No_986979432 -->
<g id="node12" class="node">
<title>No_986979432</title>
<ellipse fill="none" stroke="black" cx="445.95" cy="-228.43" rx="107.46" ry="37.45"/>
<text text-anchor="middle" x="445.95" y="-239.73" font-family="Times,serif" font-size="14.00">Américo Rodrigues</text>
<text text-anchor="middle" x="445.95" y="-224.73" font-family="Times,serif" font-size="14.00">986979432</text>
<text text-anchor="middle" x="445.95" y="-209.73" font-family="Times,serif" font-size="14.00">fb=1</text>
</g>
<!-- No_1431789496&#45;&gt;No_986979432 -->
<g id="edge11" class="edge">
<title>No_1431789496&#45;&gt;No_986979432</title>
<path fill="none" stroke="black" d="M445.95,-301.8C445.95,-293.63 445.95,-284.85 445.95,-276.32"/>
<polygon fill="black" stroke="black" points="449.45,-276.1 445.95,-266.1 442.45,-276.1 449.45,-276.1"/>
</g>
<!-- NUL_7 -->
<g id="node15" class="node">
<title>NUL_7</title>
<polygon fill="none" stroke="black" points="614.95,-250.43 570.95,-250.43 570.95,-206.43 614.95,-206.43 614.95,-250.43"/>
<text text-anchor="middle" x="592.95" y="-224.73" font-family="Times,serif" font-size="14.00">null</text>
</g>
<!-- No_1431789496&#45;&gt;NUL_7 -->
<g id="edge14" class="edge">
<title>No_1431789496&#45;&gt;NUL_7</title>
<path fill="none" stroke="black" d="M501.78,-308.27C521.7,-296.32 543.71,-281.66 561.95,-265.91 564.76,-263.48 567.53,-260.79 570.19,-258.01"/>
<polygon fill="black" stroke="black" points="572.84,-260.3 576.93,-250.52 567.64,-255.61 572.84,-260.3"/>
</g>
<!-- NUL_5 -->
<g id="node13" class="node">
<title>NUL_5</title>
<polygon fill="none" stroke="black" points="456.95,-139.48 412.95,-139.48 412.95,-95.48 456.95,-95.48 456.95,-139.48"/>
<text text-anchor="middle" x="434.95" y="-113.78" font-family="Times,serif" font-size="14.00">null</text>
</g>
<!-- No_986979432&#45;&gt;NUL_5 -->
<g id="edge12" class="edge">
<title>No_986979432&#45;&gt;NUL_5</title>
<path fill="none" stroke="black" d="M442.26,-190.85C440.91,-177.52 439.41,-162.58 438.11,-149.75"/>
<polygon fill="black" stroke="black" points="441.57,-149.15 437.08,-139.55 434.6,-149.86 441.57,-149.15"/>
</g>
<!-- NUL_6 -->
<g id="node14" class="node">
<title>NUL_6</title>
<polygon fill="none" stroke="black" points="518.95,-139.48 474.95,-139.48 474.95,-95.48 518.95,-95.48 518.95,-139.48"/>
<text text-anchor="middle" x="496.95" y="-113.78" font-family="Times,serif" font-size="14.00">null</text>
</g>
<!-- No_986979432&#45;&gt;NUL_6 -->
<g id="edge13" class="edge">
<title>No_986979432&#45;&gt;NUL_6</title>
<path fill="none" stroke="black" d="M462.94,-191.15C469.37,-177.4 476.62,-161.91 482.77,-148.77"/>
<polygon fill="black" stroke="black" points="485.96,-150.21 487.03,-139.67 479.62,-147.25 485.96,-150.21"/>
</g>
</g>
</svg>
