<?xml version="1.0" encoding="UTF-8" standalone="no"?>
<!DOCTYPE svg PUBLIC "-//W3C//DTD SVG 1.1//EN"
 "http://www.w3.org/Graphics/SVG/1.1/DTD/svg11.dtd">
<!-- Generated by graphviz version 2.43.0 (0)
 -->
<!-- Title: BST Pages: 1 -->
<svg width="365pt" height="385pt"
 viewBox="0.00 0.00 365.01 384.86" xmlns="http://www.w3.org/2000/svg" xmlns:xlink="http://www.w3.org/1999/xlink">
<g id="graph0" class="graph" transform="scale(1 1) rotate(0) translate(4 380.86)">
<title>BST</title>
<polygon fill="white" stroke="transparent" points="-4,4 -4,-380.86 361.01,-380.86 361.01,4 -4,4"/>
<!-- No_976828152 -->
<g id="node1" class="node">
<title>No_976828152</title>
<ellipse fill="none" stroke="black" cx="255.89" cy="-339.38" rx="101.23" ry="37.45"/>
<text text-anchor="middle" x="255.89" y="-350.68" font-family="Times,serif" font-size="14.00">Washington Porto</text>
<text text-anchor="middle" x="255.89" y="-335.68" font-family="Times,serif" font-size="14.00">976828152</text>
<text text-anchor="middle" x="255.89" y="-320.68" font-family="Times,serif" font-size="14.00">fb=&#45;2</text>
</g>
<!-- No_958334016 -->
<g id="node2" class="node">
<title>No_958334016</title>
<ellipse fill="none" stroke="black" cx="182.89" cy="-228.43" rx="107.46" ry="37.45"/>
<text text-anchor="middle" x="182.89" y="-239.73" font-family="Times,serif" font-size="14.00">Washington Moura</text>
<text text-anchor="middle" x="182.89" y="-224.73" font-family="Times,serif" font-size="14.00">958334016</text>
<text text-anchor="middle" x="182.89" y="-209.73" font-family="Times,serif" font-size="14.00">fb=&#45;1</text>
</g>
<!-- No_976828152&#45;&gt;No_958334016 -->
<g id="edge1" class="edge">
<title>No_976828152&#45;&gt;No_958334016</title>
<path fill="none" stroke="black" d="M231.99,-302.71C225.75,-293.4 218.95,-283.25 212.46,-273.55"/>
<polygon fill="black" stroke="black" points="215.33,-271.54 206.85,-265.19 209.51,-275.44 215.33,-271.54"/>
</g>
<!-- NUL_3 -->
<g id="node7" class="node">
<title>NUL_3</title>
<polygon fill="none" stroke="black" points="351.89,-250.43 307.89,-250.43 307.89,-206.43 351.89,-206.43 351.89,-250.43"/>
<text text-anchor="middle" x="329.89" y="-224.73" font-family="Times,serif" font-size="14.00">null</text>
</g>
<!-- No_976828152&#45;&gt;NUL_3 -->
<g id="edge6" class="edge">
<title>No_976828152&#45;&gt;NUL_3</title>
<path fill="none" stroke="black" d="M280.12,-302.71C289.74,-288.56 300.66,-272.47 309.82,-258.99"/>
<polygon fill="black" stroke="black" points="312.83,-260.79 315.55,-250.55 307.04,-256.85 312.83,-260.79"/>
</g>
<!-- No_950435059 -->
<g id="node3" class="node">
<title>No_950435059</title>
<ellipse fill="none" stroke="black" cx="108.89" cy="-117.48" rx="108.79" ry="37.45"/>
<text text-anchor="middle" x="108.89" y="-128.78" font-family="Times,serif" font-size="14.00">Washington Coelho</text>
<text text-anchor="middle" x="108.89" y="-113.78" font-family="Times,serif" font-size="14.00">950435059</text>
<text text-anchor="middle" x="108.89" y="-98.78" font-family="Times,serif" font-size="14.00">fb=0</text>
</g>
<!-- No_958334016&#45;&gt;No_950435059 -->
<g id="edge2" class="edge">
<title>No_958334016&#45;&gt;No_950435059</title>
<path fill="none" stroke="black" d="M158.66,-191.75C152.34,-182.44 145.45,-172.29 138.86,-162.6"/>
<polygon fill="black" stroke="black" points="141.69,-160.54 133.18,-154.23 135.9,-164.47 141.69,-160.54"/>
</g>
<!-- NUL_2 -->
<g id="node6" class="node">
<title>NUL_2</title>
<polygon fill="none" stroke="black" points="279.89,-139.48 235.89,-139.48 235.89,-95.48 279.89,-95.48 279.89,-139.48"/>
<text text-anchor="middle" x="257.89" y="-113.78" font-family="Times,serif" font-size="14.00">null</text>
</g>
<!-- No_958334016&#45;&gt;NUL_2 -->
<g id="edge5" class="edge">
<title>No_958334016&#45;&gt;NUL_2</title>
<path fill="none" stroke="black" d="M207.45,-191.75C217.19,-177.6 228.27,-161.52 237.55,-148.03"/>
<polygon fill="black" stroke="black" points="240.57,-149.81 243.36,-139.59 234.81,-145.85 240.57,-149.81"/>
</g>
<!-- NUL_0 -->
<g id="node4" class="node">
<title>NUL_0</title>
<polygon fill="none" stroke="black" points="99.89,-44 55.89,-44 55.89,0 99.89,0 99.89,-44"/>
<text text-anchor="middle" x="77.89" y="-18.3" font-family="Times,serif" font-size="14.00">null</text>
</g>
<!-- No_950435059&#45;&gt;NUL_0 -->
<g id="edge3" class="edge">
<title>No_950435059&#45;&gt;NUL_0</title>
<path fill="none" stroke="black" d="M96.82,-80.07C93.91,-71.3 90.83,-62.02 88.03,-53.55"/>
<polygon fill="black" stroke="black" points="91.35,-52.45 84.88,-44.06 84.7,-54.65 91.35,-52.45"/>
</g>
<!-- NUL_1 -->
<g id="node5" class="node">
<title>NUL_1</title>
<polygon fill="none" stroke="black" points="161.89,-44 117.89,-44 117.89,0 161.89,0 161.89,-44"/>
<text text-anchor="middle" x="139.89" y="-18.3" font-family="Times,serif" font-size="14.00">null</text>
</g>
<!-- No_950435059&#45;&gt;NUL_1 -->
<g id="edge4" class="edge">
<title>No_950435059&#45;&gt;NUL_1</title>
<path fill="none" stroke="black" d="M120.97,-80.07C123.88,-71.3 126.95,-62.02 129.76,-53.55"/>
<polygon fill="black" stroke="black" points="133.09,-54.65 132.91,-44.06 126.44,-52.45 133.09,-54.65"/>
</g>
</g>
</svg>
