<?xml version="1.0" encoding="UTF-8" standalone="no"?>
<!DOCTYPE svg PUBLIC "-//W3C//DTD SVG 1.1//EN"
 "http://www.w3.org/Graphics/SVG/1.1/DTD/svg11.dtd">
<!-- Generated by graphviz version 2.43.0 (0)
 -->
<!-- Title: BST Pages: 1 -->
<svg width="776pt" height="496pt"
 viewBox="0.00 0.00 775.95 495.81" xmlns="http://www.w3.org/2000/svg" xmlns:xlink="http://www.w3.org/1999/xlink">
<g id="graph0" class="graph" transform="scale(1 1) rotate(0) translate(4 491.81)">
<title>BST</title>
<polygon fill="white" stroke="transparent" points="-4,4 -4,-491.81 771.95,-491.81 771.95,4 -4,4"/>
<!-- No_985278999 -->
<g id="node1" class="node">
<title>No_985278999</title>
<ellipse fill="none" stroke="black" cx="343.95" cy="-450.34" rx="75.82" ry="37.45"/>
<text text-anchor="middle" x="343.95" y="-461.64" font-family="Times,serif" font-size="14.00">Acir Campos</text>
<text text-anchor="middle" x="343.95" y="-446.64" font-family="Times,serif" font-size="14.00">985278999</text>
<text text-anchor="middle" x="343.95" y="-431.64" font-family="Times,serif" font-size="14.00">fb=&#45;1</text>
</g>
<!-- No_960933790 -->
<g id="node2" class="node">
<title>No_960933790</title>
<ellipse fill="none" stroke="black" cx="243.95" cy="-339.38" rx="85.62" ry="37.45"/>
<text text-anchor="middle" x="243.95" y="-350.68" font-family="Times,serif" font-size="14.00">Andrea Santos</text>
<text text-anchor="middle" x="243.95" y="-335.68" font-family="Times,serif" font-size="14.00">960933790</text>
<text text-anchor="middle" x="243.95" y="-320.68" font-family="Times,serif" font-size="14.00">fb=0</text>
</g>
<!-- No_985278999&#45;&gt;No_960933790 -->
<g id="edge1" class="edge">
<title>No_985278999&#45;&gt;No_960933790</title>
<path fill="none" stroke="black" d="M313.13,-415.76C303.34,-405.09 292.39,-393.16 282.15,-382"/>
<polygon fill="black" stroke="black" points="284.53,-379.42 275.19,-374.41 279.37,-384.15 284.53,-379.42"/>
</g>
<!-- No_987671978 -->
<g id="node11" class="node">
<title>No_987671978</title>
<ellipse fill="none" stroke="black" cx="444.95" cy="-339.38" rx="90.52" ry="37.45"/>
<text text-anchor="middle" x="444.95" y="-350.68" font-family="Times,serif" font-size="14.00">Adriana Pereira</text>
<text text-anchor="middle" x="444.95" y="-335.68" font-family="Times,serif" font-size="14.00">987671978</text>
<text text-anchor="middle" x="444.95" y="-320.68" font-family="Times,serif" font-size="14.00">fb=1</text>
</g>
<!-- No_985278999&#45;&gt;No_987671978 -->
<g id="edge10" class="edge">
<title>No_985278999&#45;&gt;No_987671978</title>
<path fill="none" stroke="black" d="M374.81,-416.06C384.7,-405.38 395.8,-393.41 406.19,-382.2"/>
<polygon fill="black" stroke="black" points="409.01,-384.3 413.24,-374.59 403.88,-379.54 409.01,-384.3"/>
</g>
<!-- No_955838599 -->
<g id="node3" class="node">
<title>No_955838599</title>
<ellipse fill="none" stroke="black" cx="74.95" cy="-228.43" rx="74.91" ry="37.45"/>
<text text-anchor="middle" x="74.95" y="-239.73" font-family="Times,serif" font-size="14.00">Aline Santos</text>
<text text-anchor="middle" x="74.95" y="-224.73" font-family="Times,serif" font-size="14.00">955838599</text>
<text text-anchor="middle" x="74.95" y="-209.73" font-family="Times,serif" font-size="14.00">fb=0</text>
</g>
<!-- No_960933790&#45;&gt;No_955838599 -->
<g id="edge2" class="edge">
<title>No_960933790&#45;&gt;No_955838599</title>
<path fill="none" stroke="black" d="M196.88,-308.03C175.67,-294.36 150.51,-278.14 128.58,-264"/>
<polygon fill="black" stroke="black" points="130.33,-260.97 120.03,-258.49 126.54,-266.85 130.33,-260.97"/>
</g>
<!-- No_965115082 -->
<g id="node6" class="node">
<title>No_965115082</title>
<ellipse fill="none" stroke="black" cx="243.95" cy="-228.43" rx="75.82" ry="37.45"/>
<text text-anchor="middle" x="243.95" y="-239.73" font-family="Times,serif" font-size="14.00">Ana Barbosa</text>
<text text-anchor="middle" x="243.95" y="-224.73" font-family="Times,serif" font-size="14.00">965115082</text>
<text text-anchor="middle" x="243.95" y="-209.73" font-family="Times,serif" font-size="14.00">fb=0</text>
</g>
<!-- No_960933790&#45;&gt;No_965115082 -->
<g id="edge5" class="edge">
<title>No_960933790&#45;&gt;No_965115082</title>
<path fill="none" stroke="black" d="M243.95,-301.8C243.95,-293.63 243.95,-284.85 243.95,-276.32"/>
<polygon fill="black" stroke="black" points="247.45,-276.1 243.95,-266.1 240.45,-276.1 247.45,-276.1"/>
</g>
<!-- NUL_0 -->
<g id="node4" class="node">
<title>NUL_0</title>
<polygon fill="none" stroke="black" points="65.95,-139.48 21.95,-139.48 21.95,-95.48 65.95,-95.48 65.95,-139.48"/>
<text text-anchor="middle" x="43.95" y="-113.78" font-family="Times,serif" font-size="14.00">null</text>
</g>
<!-- No_955838599&#45;&gt;NUL_0 -->
<g id="edge3" class="edge">
<title>No_955838599&#45;&gt;NUL_0</title>
<path fill="none" stroke="black" d="M64.63,-191.15C60.79,-177.67 56.48,-162.51 52.79,-149.53"/>
<polygon fill="black" stroke="black" points="56.09,-148.33 49.98,-139.67 49.35,-150.25 56.09,-148.33"/>
</g>
<!-- NUL_1 -->
<g id="node5" class="node">
<title>NUL_1</title>
<polygon fill="none" stroke="black" points="127.95,-139.48 83.95,-139.48 83.95,-95.48 127.95,-95.48 127.95,-139.48"/>
<text text-anchor="middle" x="105.95" y="-113.78" font-family="Times,serif" font-size="14.00">null</text>
</g>
<!-- No_955838599&#45;&gt;NUL_1 -->
<g id="edge4" class="edge">
<title>No_955838599&#45;&gt;NUL_1</title>
<path fill="none" stroke="black" d="M85.28,-191.15C89.11,-177.67 93.43,-162.51 97.12,-149.53"/>
<polygon fill="black" stroke="black" points="100.55,-150.25 99.92,-139.67 93.82,-148.33 100.55,-150.25"/>
</g>
<!-- NUL_2 -->
<g id="node7" class="node">
<title>NUL_2</title>
<polygon fill="none" stroke="black" points="209.95,-139.48 165.95,-139.48 165.95,-95.48 209.95,-95.48 209.95,-139.48"/>
<text text-anchor="middle" x="187.95" y="-113.78" font-family="Times,serif" font-size="14.00">null</text>
</g>
<!-- No_965115082&#45;&gt;NUL_2 -->
<g id="edge6" class="edge">
<title>No_965115082&#45;&gt;NUL_2</title>
<path fill="none" stroke="black" d="M225.62,-191.75C218.48,-177.87 210.39,-162.13 203.54,-148.81"/>
<polygon fill="black" stroke="black" points="206.49,-146.89 198.81,-139.59 200.27,-150.09 206.49,-146.89"/>
</g>
<!-- No_975960513 -->
<g id="node8" class="node">
<title>No_975960513</title>
<ellipse fill="none" stroke="black" cx="301.95" cy="-117.48" rx="73.58" ry="37.45"/>
<text text-anchor="middle" x="301.95" y="-128.78" font-family="Times,serif" font-size="14.00">Altair Souza</text>
<text text-anchor="middle" x="301.95" y="-113.78" font-family="Times,serif" font-size="14.00">975960513</text>
<text text-anchor="middle" x="301.95" y="-98.78" font-family="Times,serif" font-size="14.00">fb=0</text>
</g>
<!-- No_965115082&#45;&gt;No_975960513 -->
<g id="edge7" class="edge">
<title>No_965115082&#45;&gt;No_975960513</title>
<path fill="none" stroke="black" d="M262.78,-192.06C267.7,-182.83 273.06,-172.76 278.19,-163.12"/>
<polygon fill="black" stroke="black" points="281.41,-164.52 283.02,-154.05 275.23,-161.23 281.41,-164.52"/>
</g>
<!-- NUL_3 -->
<g id="node9" class="node">
<title>NUL_3</title>
<polygon fill="none" stroke="black" points="292.95,-44 248.95,-44 248.95,0 292.95,0 292.95,-44"/>
<text text-anchor="middle" x="270.95" y="-18.3" font-family="Times,serif" font-size="14.00">null</text>
</g>
<!-- No_975960513&#45;&gt;NUL_3 -->
<g id="edge8" class="edge">
<title>No_975960513&#45;&gt;NUL_3</title>
<path fill="none" stroke="black" d="M289.97,-80.34C287.05,-71.55 283.96,-62.23 281.14,-53.72"/>
<polygon fill="black" stroke="black" points="284.45,-52.57 277.98,-44.18 277.8,-54.77 284.45,-52.57"/>
</g>
<!-- NUL_4 -->
<g id="node10" class="node">
<title>NUL_4</title>
<polygon fill="none" stroke="black" points="354.95,-44 310.95,-44 310.95,0 354.95,0 354.95,-44"/>
<text text-anchor="middle" x="332.95" y="-18.3" font-family="Times,serif" font-size="14.00">null</text>
</g>
<!-- No_975960513&#45;&gt;NUL_4 -->
<g id="edge9" class="edge">
<title>No_975960513&#45;&gt;NUL_4</title>
<path fill="none" stroke="black" d="M313.94,-80.34C316.85,-71.55 319.94,-62.23 322.77,-53.72"/>
<polygon fill="black" stroke="black" points="326.1,-54.77 325.93,-44.18 319.46,-52.57 326.1,-54.77"/>
</g>
<!-- No_986979432 -->
<g id="node12" class="node">
<title>No_986979432</title>
<ellipse fill="none" stroke="black" cx="444.95" cy="-228.43" rx="107.46" ry="37.45"/>
<text text-anchor="middle" x="444.95" y="-239.73" font-family="Times,serif" font-size="14.00">Américo Rodrigues</text>
<text text-anchor="middle" x="444.95" y="-224.73" font-family="Times,serif" font-size="14.00">986979432</text>
<text text-anchor="middle" x="444.95" y="-209.73" font-family="Times,serif" font-size="14.00">fb=1</text>
</g>
<!-- No_987671978&#45;&gt;No_986979432 -->
<g id="edge11" class="edge">
<title>No_987671978&#45;&gt;No_986979432</title>
<path fill="none" stroke="black" d="M444.95,-301.8C444.95,-293.63 444.95,-284.85 444.95,-276.32"/>
<polygon fill="black" stroke="black" points="448.45,-276.1 444.95,-266.1 441.45,-276.1 448.45,-276.1"/>
</g>
<!-- No_1431789496 -->
<g id="node15" class="node">
<title>No_1431789496</title>
<ellipse fill="none" stroke="black" cx="668.95" cy="-228.43" rx="98.99" ry="37.45"/>
<text text-anchor="middle" x="668.95" y="-239.73" font-family="Times,serif" font-size="14.00">Alexandra Moura</text>
<text text-anchor="middle" x="668.95" y="-224.73" font-family="Times,serif" font-size="14.00">1431789496</text>
<text text-anchor="middle" x="668.95" y="-209.73" font-family="Times,serif" font-size="14.00">fb=0</text>
</g>
<!-- No_987671978&#45;&gt;No_1431789496 -->
<g id="edge14" class="edge">
<title>No_987671978&#45;&gt;No_1431789496</title>
<path fill="none" stroke="black" d="M502.64,-310.33C532.37,-295.86 568.84,-278.13 600.04,-262.95"/>
<polygon fill="black" stroke="black" points="601.66,-266.06 609.12,-258.53 598.59,-259.76 601.66,-266.06"/>
</g>
<!-- NUL_5 -->
<g id="node13" class="node">
<title>NUL_5</title>
<polygon fill="none" stroke="black" points="454.95,-139.48 410.95,-139.48 410.95,-95.48 454.95,-95.48 454.95,-139.48"/>
<text text-anchor="middle" x="432.95" y="-113.78" font-family="Times,serif" font-size="14.00">null</text>
</g>
<!-- No_986979432&#45;&gt;NUL_5 -->
<g id="edge12" class="edge">
<title>No_986979432&#45;&gt;NUL_5</title>
<path fill="none" stroke="black" d="M440.92,-190.85C439.46,-177.52 437.81,-162.58 436.4,-149.75"/>
<polygon fill="black" stroke="black" points="439.85,-149.11 435.27,-139.55 432.89,-149.88 439.85,-149.11"/>
</g>
<!-- NUL_6 -->
<g id="node14" class="node">
<title>NUL_6</title>
<polygon fill="none" stroke="black" points="516.95,-139.48 472.95,-139.48 472.95,-95.48 516.95,-95.48 516.95,-139.48"/>
<text text-anchor="middle" x="494.95" y="-113.78" font-family="Times,serif" font-size="14.00">null</text>
</g>
<!-- No_986979432&#45;&gt;NUL_6 -->
<g id="edge13" class="edge">
<title>No_986979432&#45;&gt;NUL_6</title>
<path fill="none" stroke="black" d="M461.6,-191.15C467.91,-177.4 475.02,-161.91 481.05,-148.77"/>
<polygon fill="black" stroke="black" points="484.24,-150.22 485.23,-139.67 477.87,-147.3 484.24,-150.22"/>
</g>
<!-- NUL_7 -->
<g id="node16" class="node">
<title>NUL_7</title>
<polygon fill="none" stroke="black" points="586.95,-139.48 542.95,-139.48 542.95,-95.48 586.95,-95.48 586.95,-139.48"/>
<text text-anchor="middle" x="564.95" y="-113.78" font-family="Times,serif" font-size="14.00">null</text>
</g>
<!-- No_1431789496&#45;&gt;NUL_7 -->
<g id="edge15" class="edge">
<title>No_1431789496&#45;&gt;NUL_7</title>
<path fill="none" stroke="black" d="M633.44,-193.36C621.32,-181.43 607.84,-167.8 595.95,-154.95 593.7,-152.51 591.39,-149.95 589.1,-147.35"/>
<polygon fill="black" stroke="black" points="591.55,-144.84 582.36,-139.57 586.26,-149.42 591.55,-144.84"/>
</g>
<!-- No_997285865 -->
<g id="node17" class="node">
<title>No_997285865</title>
<ellipse fill="none" stroke="black" cx="679.95" cy="-117.48" rx="74.91" ry="37.45"/>
<text text-anchor="middle" x="679.95" y="-128.78" font-family="Times,serif" font-size="14.00">Almir Torres</text>
<text text-anchor="middle" x="679.95" y="-113.78" font-family="Times,serif" font-size="14.00">997285865</text>
<text text-anchor="middle" x="679.95" y="-98.78" font-family="Times,serif" font-size="14.00">fb=0</text>
</g>
<!-- No_1431789496&#45;&gt;No_997285865 -->
<g id="edge16" class="edge">
<title>No_1431789496&#45;&gt;No_997285865</title>
<path fill="none" stroke="black" d="M672.65,-190.85C673.47,-182.67 674.36,-173.89 675.22,-165.37"/>
<polygon fill="black" stroke="black" points="678.73,-165.45 676.25,-155.15 671.76,-164.75 678.73,-165.45"/>
</g>
<!-- NUL_8 -->
<g id="node18" class="node">
<title>NUL_8</title>
<polygon fill="none" stroke="black" points="670.95,-44 626.95,-44 626.95,0 670.95,0 670.95,-44"/>
<text text-anchor="middle" x="648.95" y="-18.3" font-family="Times,serif" font-size="14.00">null</text>
</g>
<!-- No_997285865&#45;&gt;NUL_8 -->
<g id="edge17" class="edge">
<title>No_997285865&#45;&gt;NUL_8</title>
<path fill="none" stroke="black" d="M667.97,-80.34C665.05,-71.55 661.96,-62.23 659.14,-53.72"/>
<polygon fill="black" stroke="black" points="662.45,-52.57 655.98,-44.18 655.8,-54.77 662.45,-52.57"/>
</g>
<!-- NUL_9 -->
<g id="node19" class="node">
<title>NUL_9</title>
<polygon fill="none" stroke="black" points="732.95,-44 688.95,-44 688.95,0 732.95,0 732.95,-44"/>
<text text-anchor="middle" x="710.95" y="-18.3" font-family="Times,serif" font-size="14.00">null</text>
</g>
<!-- No_997285865&#45;&gt;NUL_9 -->
<g id="edge18" class="edge">
<title>No_997285865&#45;&gt;NUL_9</title>
<path fill="none" stroke="black" d="M691.94,-80.34C694.85,-71.55 697.94,-62.23 700.77,-53.72"/>
<polygon fill="black" stroke="black" points="704.1,-54.77 703.93,-44.18 697.46,-52.57 704.1,-54.77"/>
</g>
</g>
</svg>
