<?xml version="1.0" encoding="UTF-8" standalone="no"?>
<!DOCTYPE svg PUBLIC "-//W3C//DTD SVG 1.1//EN"
 "http://www.w3.org/Graphics/SVG/1.1/DTD/svg11.dtd">
<!-- Generated by graphviz version 2.43.0 (0)
 -->
<!-- Title: BST Pages: 1 -->
<svg width="1100pt" height="607pt"
 viewBox="0.00 0.00 1099.95 606.77" xmlns="http://www.w3.org/2000/svg" xmlns:xlink="http://www.w3.org/1999/xlink">
<g id="graph0" class="graph" transform="scale(1 1) rotate(0) translate(4 602.77)">
<title>BST</title>
<polygon fill="white" stroke="transparent" points="-4,4 -4,-602.77 1095.95,-602.77 1095.95,4 -4,4"/>
<!-- No_985278999 -->
<g id="node1" class="node">
<title>No_985278999</title>
<ellipse fill="none" stroke="black" cx="528" cy="-561.29" rx="75.82" ry="37.45"/>
<text text-anchor="middle" x="528" y="-572.59" font-family="Times,serif" font-size="14.00">Acir Campos</text>
<text text-anchor="middle" x="528" y="-557.59" font-family="Times,serif" font-size="14.00">985278999</text>
<text text-anchor="middle" x="528" y="-542.59" font-family="Times,serif" font-size="14.00">fb=0</text>
</g>
<!-- No_964642705 -->
<g id="node2" class="node">
<title>No_964642705</title>
<ellipse fill="none" stroke="black" cx="428" cy="-450.34" rx="78.48" ry="37.45"/>
<text text-anchor="middle" x="428" y="-461.64" font-family="Times,serif" font-size="14.00">Alícia Freitas</text>
<text text-anchor="middle" x="428" y="-446.64" font-family="Times,serif" font-size="14.00">964642705</text>
<text text-anchor="middle" x="428" y="-431.64" font-family="Times,serif" font-size="14.00">fb=0</text>
</g>
<!-- No_985278999&#45;&gt;No_964642705 -->
<g id="edge1" class="edge">
<title>No_985278999&#45;&gt;No_964642705</title>
<path fill="none" stroke="black" d="M497.18,-526.71C487.3,-515.94 476.23,-503.89 465.9,-492.63"/>
<polygon fill="black" stroke="black" points="468.23,-489.99 458.89,-484.99 463.07,-494.73 468.23,-489.99"/>
</g>
<!-- No_994116870 -->
<g id="node15" class="node">
<title>No_994116870</title>
<ellipse fill="none" stroke="black" cx="708" cy="-450.34" rx="98.99" ry="37.45"/>
<text text-anchor="middle" x="708" y="-461.64" font-family="Times,serif" font-size="14.00">Alexandra Moura</text>
<text text-anchor="middle" x="708" y="-446.64" font-family="Times,serif" font-size="14.00">994116870</text>
<text text-anchor="middle" x="708" y="-431.64" font-family="Times,serif" font-size="14.00">fb=0</text>
</g>
<!-- No_985278999&#45;&gt;No_994116870 -->
<g id="edge14" class="edge">
<title>No_985278999&#45;&gt;No_994116870</title>
<path fill="none" stroke="black" d="M575.29,-531.66C597.56,-518.19 624.36,-501.96 648.03,-487.63"/>
<polygon fill="black" stroke="black" points="649.86,-490.62 656.6,-482.45 646.23,-484.63 649.86,-490.62"/>
</g>
<!-- No_955838599 -->
<g id="node3" class="node">
<title>No_955838599</title>
<ellipse fill="none" stroke="black" cx="148" cy="-339.38" rx="74.91" ry="37.45"/>
<text text-anchor="middle" x="148" y="-350.68" font-family="Times,serif" font-size="14.00">Aline Santos</text>
<text text-anchor="middle" x="148" y="-335.68" font-family="Times,serif" font-size="14.00">955838599</text>
<text text-anchor="middle" x="148" y="-320.68" font-family="Times,serif" font-size="14.00">fb=0</text>
</g>
<!-- No_964642705&#45;&gt;No_955838599 -->
<g id="edge2" class="edge">
<title>No_964642705&#45;&gt;No_955838599</title>
<path fill="none" stroke="black" d="M367.93,-425.96C323.28,-408.59 262.32,-384.87 215.9,-366.81"/>
<polygon fill="black" stroke="black" points="217.12,-363.52 206.53,-363.16 214.58,-370.05 217.12,-363.52"/>
</g>
<!-- No_967387182 -->
<g id="node8" class="node">
<title>No_967387182</title>
<ellipse fill="none" stroke="black" cx="428" cy="-339.38" rx="91.43" ry="37.45"/>
<text text-anchor="middle" x="428" y="-350.68" font-family="Times,serif" font-size="14.00">Alfredo Martins</text>
<text text-anchor="middle" x="428" y="-335.68" font-family="Times,serif" font-size="14.00">967387182</text>
<text text-anchor="middle" x="428" y="-320.68" font-family="Times,serif" font-size="14.00">fb=0</text>
</g>
<!-- No_964642705&#45;&gt;No_967387182 -->
<g id="edge7" class="edge">
<title>No_964642705&#45;&gt;No_967387182</title>
<path fill="none" stroke="black" d="M428,-412.75C428,-404.58 428,-395.8 428,-387.27"/>
<polygon fill="black" stroke="black" points="431.5,-387.06 428,-377.06 424.5,-387.06 431.5,-387.06"/>
</g>
<!-- NUL_0 -->
<g id="node4" class="node">
<title>NUL_0</title>
<polygon fill="none" stroke="black" points="44,-250.43 0,-250.43 0,-206.43 44,-206.43 44,-250.43"/>
<text text-anchor="middle" x="22" y="-224.73" font-family="Times,serif" font-size="14.00">null</text>
</g>
<!-- No_955838599&#45;&gt;NUL_0 -->
<g id="edge3" class="edge">
<title>No_955838599&#45;&gt;NUL_0</title>
<path fill="none" stroke="black" d="M104.81,-308.48C87.98,-296.07 68.95,-281.04 53,-265.91 50.53,-263.56 48.05,-261.03 45.64,-258.44"/>
<polygon fill="black" stroke="black" points="47.91,-255.72 38.64,-250.58 42.68,-260.37 47.91,-255.72"/>
</g>
<!-- No_960933790 -->
<g id="node5" class="node">
<title>No_960933790</title>
<ellipse fill="none" stroke="black" cx="148" cy="-228.43" rx="85.62" ry="37.45"/>
<text text-anchor="middle" x="148" y="-239.73" font-family="Times,serif" font-size="14.00">Andrea Santos</text>
<text text-anchor="middle" x="148" y="-224.73" font-family="Times,serif" font-size="14.00">960933790</text>
<text text-anchor="middle" x="148" y="-209.73" font-family="Times,serif" font-size="14.00">fb=0</text>
</g>
<!-- No_955838599&#45;&gt;No_960933790 -->
<g id="edge4" class="edge">
<title>No_955838599&#45;&gt;No_960933790</title>
<path fill="none" stroke="black" d="M148,-301.8C148,-293.63 148,-284.85 148,-276.32"/>
<polygon fill="black" stroke="black" points="151.5,-276.1 148,-266.1 144.5,-276.1 151.5,-276.1"/>
</g>
<!-- NUL_1 -->
<g id="node6" class="node">
<title>NUL_1</title>
<polygon fill="none" stroke="black" points="139,-139.48 95,-139.48 95,-95.48 139,-95.48 139,-139.48"/>
<text text-anchor="middle" x="117" y="-113.78" font-family="Times,serif" font-size="14.00">null</text>
</g>
<!-- No_960933790&#45;&gt;NUL_1 -->
<g id="edge5" class="edge">
<title>No_960933790&#45;&gt;NUL_1</title>
<path fill="none" stroke="black" d="M137.68,-191.15C133.84,-177.67 129.53,-162.51 125.84,-149.53"/>
<polygon fill="black" stroke="black" points="129.13,-148.33 123.03,-139.67 122.4,-150.25 129.13,-148.33"/>
</g>
<!-- NUL_2 -->
<g id="node7" class="node">
<title>NUL_2</title>
<polygon fill="none" stroke="black" points="201,-139.48 157,-139.48 157,-95.48 201,-95.48 201,-139.48"/>
<text text-anchor="middle" x="179" y="-113.78" font-family="Times,serif" font-size="14.00">null</text>
</g>
<!-- No_960933790&#45;&gt;NUL_2 -->
<g id="edge6" class="edge">
<title>No_960933790&#45;&gt;NUL_2</title>
<path fill="none" stroke="black" d="M158.32,-191.15C162.16,-177.67 166.47,-162.51 170.16,-149.53"/>
<polygon fill="black" stroke="black" points="173.6,-150.25 172.97,-139.67 166.87,-148.33 173.6,-150.25"/>
</g>
<!-- No_965115082 -->
<g id="node9" class="node">
<title>No_965115082</title>
<ellipse fill="none" stroke="black" cx="327" cy="-228.43" rx="75.82" ry="37.45"/>
<text text-anchor="middle" x="327" y="-239.73" font-family="Times,serif" font-size="14.00">Ana Barbosa</text>
<text text-anchor="middle" x="327" y="-224.73" font-family="Times,serif" font-size="14.00">965115082</text>
<text text-anchor="middle" x="327" y="-209.73" font-family="Times,serif" font-size="14.00">fb=0</text>
</g>
<!-- No_967387182&#45;&gt;No_965115082 -->
<g id="edge8" class="edge">
<title>No_967387182&#45;&gt;No_965115082</title>
<path fill="none" stroke="black" d="M396.32,-304.21C386.36,-293.46 375.25,-281.48 364.9,-270.31"/>
<polygon fill="black" stroke="black" points="367.24,-267.69 357.88,-262.74 362.11,-272.45 367.24,-267.69"/>
</g>
<!-- No_975960513 -->
<g id="node12" class="node">
<title>No_975960513</title>
<ellipse fill="none" stroke="black" cx="494" cy="-228.43" rx="73.58" ry="37.45"/>
<text text-anchor="middle" x="494" y="-239.73" font-family="Times,serif" font-size="14.00">Altair Souza</text>
<text text-anchor="middle" x="494" y="-224.73" font-family="Times,serif" font-size="14.00">975960513</text>
<text text-anchor="middle" x="494" y="-209.73" font-family="Times,serif" font-size="14.00">fb=0</text>
</g>
<!-- No_967387182&#45;&gt;No_975960513 -->
<g id="edge11" class="edge">
<title>No_967387182&#45;&gt;No_975960513</title>
<path fill="none" stroke="black" d="M449.61,-302.71C455.31,-293.3 461.53,-283.04 467.45,-273.26"/>
<polygon fill="black" stroke="black" points="470.6,-274.81 472.79,-264.44 464.62,-271.18 470.6,-274.81"/>
</g>
<!-- NUL_3 -->
<g id="node10" class="node">
<title>NUL_3</title>
<polygon fill="none" stroke="black" points="330,-139.48 286,-139.48 286,-95.48 330,-95.48 330,-139.48"/>
<text text-anchor="middle" x="308" y="-113.78" font-family="Times,serif" font-size="14.00">null</text>
</g>
<!-- No_965115082&#45;&gt;NUL_3 -->
<g id="edge9" class="edge">
<title>No_965115082&#45;&gt;NUL_3</title>
<path fill="none" stroke="black" d="M320.62,-190.85C318.3,-177.52 315.69,-162.58 313.45,-149.75"/>
<polygon fill="black" stroke="black" points="316.84,-148.8 311.68,-139.55 309.95,-150.01 316.84,-148.8"/>
</g>
<!-- NUL_4 -->
<g id="node11" class="node">
<title>NUL_4</title>
<polygon fill="none" stroke="black" points="392,-139.48 348,-139.48 348,-95.48 392,-95.48 392,-139.48"/>
<text text-anchor="middle" x="370" y="-113.78" font-family="Times,serif" font-size="14.00">null</text>
</g>
<!-- No_965115082&#45;&gt;NUL_4 -->
<g id="edge10" class="edge">
<title>No_965115082&#45;&gt;NUL_4</title>
<path fill="none" stroke="black" d="M341.2,-191.45C346.58,-177.82 352.65,-162.43 357.83,-149.32"/>
<polygon fill="black" stroke="black" points="361.17,-150.38 361.59,-139.79 354.66,-147.81 361.17,-150.38"/>
</g>
<!-- NUL_5 -->
<g id="node13" class="node">
<title>NUL_5</title>
<polygon fill="none" stroke="black" points="472,-139.48 428,-139.48 428,-95.48 472,-95.48 472,-139.48"/>
<text text-anchor="middle" x="450" y="-113.78" font-family="Times,serif" font-size="14.00">null</text>
</g>
<!-- No_975960513&#45;&gt;NUL_5 -->
<g id="edge12" class="edge">
<title>No_975960513&#45;&gt;NUL_5</title>
<path fill="none" stroke="black" d="M479.47,-191.45C473.97,-177.82 467.75,-162.43 462.45,-149.32"/>
<polygon fill="black" stroke="black" points="465.6,-147.76 458.61,-139.79 459.11,-150.38 465.6,-147.76"/>
</g>
<!-- NUL_6 -->
<g id="node14" class="node">
<title>NUL_6</title>
<polygon fill="none" stroke="black" points="534,-139.48 490,-139.48 490,-95.48 534,-95.48 534,-139.48"/>
<text text-anchor="middle" x="512" y="-113.78" font-family="Times,serif" font-size="14.00">null</text>
</g>
<!-- No_975960513&#45;&gt;NUL_6 -->
<g id="edge13" class="edge">
<title>No_975960513&#45;&gt;NUL_6</title>
<path fill="none" stroke="black" d="M500.04,-190.85C502.25,-177.52 504.71,-162.58 506.83,-149.75"/>
<polygon fill="black" stroke="black" points="510.34,-149.99 508.52,-139.55 503.43,-148.85 510.34,-149.99"/>
</g>
<!-- No_987671978 -->
<g id="node16" class="node">
<title>No_987671978</title>
<ellipse fill="none" stroke="black" cx="708" cy="-339.38" rx="90.52" ry="37.45"/>
<text text-anchor="middle" x="708" y="-350.68" font-family="Times,serif" font-size="14.00">Adriana Pereira</text>
<text text-anchor="middle" x="708" y="-335.68" font-family="Times,serif" font-size="14.00">987671978</text>
<text text-anchor="middle" x="708" y="-320.68" font-family="Times,serif" font-size="14.00">fb=&#45;1</text>
</g>
<!-- No_994116870&#45;&gt;No_987671978 -->
<g id="edge15" class="edge">
<title>No_994116870&#45;&gt;No_987671978</title>
<path fill="none" stroke="black" d="M708,-412.75C708,-404.58 708,-395.8 708,-387.27"/>
<polygon fill="black" stroke="black" points="711.5,-387.06 708,-377.06 704.5,-387.06 711.5,-387.06"/>
</g>
<!-- No_996598918 -->
<g id="node23" class="node">
<title>No_996598918</title>
<ellipse fill="none" stroke="black" cx="902" cy="-339.38" rx="69.09" ry="37.45"/>
<text text-anchor="middle" x="902" y="-350.68" font-family="Times,serif" font-size="14.00">Ana Farias</text>
<text text-anchor="middle" x="902" y="-335.68" font-family="Times,serif" font-size="14.00">996598918</text>
<text text-anchor="middle" x="902" y="-320.68" font-family="Times,serif" font-size="14.00">fb=1</text>
</g>
<!-- No_994116870&#45;&gt;No_996598918 -->
<g id="edge22" class="edge">
<title>No_994116870&#45;&gt;No_996598918</title>
<path fill="none" stroke="black" d="M762.3,-418.84C788.38,-404.19 819.61,-386.65 845.92,-371.88"/>
<polygon fill="black" stroke="black" points="847.64,-374.93 854.64,-366.98 844.21,-368.82 847.64,-374.93"/>
</g>
<!-- No_986979432 -->
<g id="node17" class="node">
<title>No_986979432</title>
<ellipse fill="none" stroke="black" cx="693" cy="-228.43" rx="107.46" ry="37.45"/>
<text text-anchor="middle" x="693" y="-239.73" font-family="Times,serif" font-size="14.00">Américo Rodrigues</text>
<text text-anchor="middle" x="693" y="-224.73" font-family="Times,serif" font-size="14.00">986979432</text>
<text text-anchor="middle" x="693" y="-209.73" font-family="Times,serif" font-size="14.00">fb=&#45;1</text>
</g>
<!-- No_987671978&#45;&gt;No_986979432 -->
<g id="edge16" class="edge">
<title>No_987671978&#45;&gt;No_986979432</title>
<path fill="none" stroke="black" d="M702.96,-301.8C701.83,-293.54 700.6,-284.65 699.42,-276.04"/>
<polygon fill="black" stroke="black" points="702.88,-275.53 698.05,-266.1 695.95,-276.49 702.88,-275.53"/>
</g>
<!-- NUL_10 -->
<g id="node22" class="node">
<title>NUL_10</title>
<polygon fill="none" stroke="black" points="862,-250.43 818,-250.43 818,-206.43 862,-206.43 862,-250.43"/>
<text text-anchor="middle" x="840" y="-224.73" font-family="Times,serif" font-size="14.00">null</text>
</g>
<!-- No_987671978&#45;&gt;NUL_10 -->
<g id="edge21" class="edge">
<title>No_987671978&#45;&gt;NUL_10</title>
<path fill="none" stroke="black" d="M756.1,-307.45C773.49,-295.36 792.81,-280.82 809,-265.91 811.51,-263.6 814,-261.09 816.43,-258.51"/>
<polygon fill="black" stroke="black" points="819.39,-260.46 823.45,-250.68 814.17,-255.79 819.39,-260.46"/>
</g>
<!-- NUL_7 -->
<g id="node18" class="node">
<title>NUL_7</title>
<polygon fill="none" stroke="black" points="670,-139.48 626,-139.48 626,-95.48 670,-95.48 670,-139.48"/>
<text text-anchor="middle" x="648" y="-113.78" font-family="Times,serif" font-size="14.00">null</text>
</g>
<!-- No_986979432&#45;&gt;NUL_7 -->
<g id="edge17" class="edge">
<title>No_986979432&#45;&gt;NUL_7</title>
<path fill="none" stroke="black" d="M678.02,-191.15C672.39,-177.54 666.06,-162.21 660.67,-149.15"/>
<polygon fill="black" stroke="black" points="663.81,-147.58 656.75,-139.67 657.34,-150.25 663.81,-147.58"/>
</g>
<!-- No_987340734 -->
<g id="node19" class="node">
<title>No_987340734</title>
<ellipse fill="none" stroke="black" cx="787" cy="-117.48" rx="98.99" ry="37.45"/>
<text text-anchor="middle" x="787" y="-128.78" font-family="Times,serif" font-size="14.00">Antônia Machado</text>
<text text-anchor="middle" x="787" y="-113.78" font-family="Times,serif" font-size="14.00">987340734</text>
<text text-anchor="middle" x="787" y="-98.78" font-family="Times,serif" font-size="14.00">fb=0</text>
</g>
<!-- No_986979432&#45;&gt;No_987340734 -->
<g id="edge18" class="edge">
<title>No_986979432&#45;&gt;No_987340734</title>
<path fill="none" stroke="black" d="M723.26,-192.36C731.81,-182.44 741.22,-171.54 750.11,-161.23"/>
<polygon fill="black" stroke="black" points="752.91,-163.34 756.8,-153.48 747.61,-158.77 752.91,-163.34"/>
</g>
<!-- NUL_8 -->
<g id="node20" class="node">
<title>NUL_8</title>
<polygon fill="none" stroke="black" points="778,-44 734,-44 734,0 778,0 778,-44"/>
<text text-anchor="middle" x="756" y="-18.3" font-family="Times,serif" font-size="14.00">null</text>
</g>
<!-- No_987340734&#45;&gt;NUL_8 -->
<g id="edge19" class="edge">
<title>No_987340734&#45;&gt;NUL_8</title>
<path fill="none" stroke="black" d="M774.93,-80.07C772.02,-71.3 768.94,-62.02 766.13,-53.55"/>
<polygon fill="black" stroke="black" points="769.45,-52.45 762.98,-44.06 762.81,-54.65 769.45,-52.45"/>
</g>
<!-- NUL_9 -->
<g id="node21" class="node">
<title>NUL_9</title>
<polygon fill="none" stroke="black" points="840,-44 796,-44 796,0 840,0 840,-44"/>
<text text-anchor="middle" x="818" y="-18.3" font-family="Times,serif" font-size="14.00">null</text>
</g>
<!-- No_987340734&#45;&gt;NUL_9 -->
<g id="edge20" class="edge">
<title>No_987340734&#45;&gt;NUL_9</title>
<path fill="none" stroke="black" d="M799.07,-80.07C801.98,-71.3 805.06,-62.02 807.87,-53.55"/>
<polygon fill="black" stroke="black" points="811.19,-54.65 811.02,-44.06 804.55,-52.45 811.19,-54.65"/>
</g>
<!-- NUL_11 -->
<g id="node24" class="node">
<title>NUL_11</title>
<polygon fill="none" stroke="black" points="924,-250.43 880,-250.43 880,-206.43 924,-206.43 924,-250.43"/>
<text text-anchor="middle" x="902" y="-224.73" font-family="Times,serif" font-size="14.00">null</text>
</g>
<!-- No_996598918&#45;&gt;NUL_11 -->
<g id="edge23" class="edge">
<title>No_996598918&#45;&gt;NUL_11</title>
<path fill="none" stroke="black" d="M902,-301.8C902,-288.47 902,-273.53 902,-260.7"/>
<polygon fill="black" stroke="black" points="905.5,-260.51 902,-250.51 898.5,-260.51 905.5,-260.51"/>
</g>
<!-- No_997285865 -->
<g id="node25" class="node">
<title>No_997285865</title>
<ellipse fill="none" stroke="black" cx="1017" cy="-228.43" rx="74.91" ry="37.45"/>
<text text-anchor="middle" x="1017" y="-239.73" font-family="Times,serif" font-size="14.00">Almir Torres</text>
<text text-anchor="middle" x="1017" y="-224.73" font-family="Times,serif" font-size="14.00">997285865</text>
<text text-anchor="middle" x="1017" y="-209.73" font-family="Times,serif" font-size="14.00">fb=0</text>
</g>
<!-- No_996598918&#45;&gt;No_997285865 -->
<g id="edge24" class="edge">
<title>No_996598918&#45;&gt;No_997285865</title>
<path fill="none" stroke="black" d="M935.57,-306.58C947.99,-294.82 962.21,-281.34 975.26,-268.97"/>
<polygon fill="black" stroke="black" points="977.94,-271.26 982.79,-261.84 973.12,-266.18 977.94,-271.26"/>
</g>
<!-- NUL_12 -->
<g id="node26" class="node">
<title>NUL_12</title>
<polygon fill="none" stroke="black" points="1008,-139.48 964,-139.48 964,-95.48 1008,-95.48 1008,-139.48"/>
<text text-anchor="middle" x="986" y="-113.78" font-family="Times,serif" font-size="14.00">null</text>
</g>
<!-- No_997285865&#45;&gt;NUL_12 -->
<g id="edge25" class="edge">
<title>No_997285865&#45;&gt;NUL_12</title>
<path fill="none" stroke="black" d="M1006.68,-191.15C1002.84,-177.67 998.53,-162.51 994.84,-149.53"/>
<polygon fill="black" stroke="black" points="998.13,-148.33 992.03,-139.67 991.4,-150.25 998.13,-148.33"/>
</g>
<!-- NUL_13 -->
<g id="node27" class="node">
<title>NUL_13</title>
<polygon fill="none" stroke="black" points="1070,-139.48 1026,-139.48 1026,-95.48 1070,-95.48 1070,-139.48"/>
<text text-anchor="middle" x="1048" y="-113.78" font-family="Times,serif" font-size="14.00">null</text>
</g>
<!-- No_997285865&#45;&gt;NUL_13 -->
<g id="edge26" class="edge">
<title>No_997285865&#45;&gt;NUL_13</title>
<path fill="none" stroke="black" d="M1027.32,-191.15C1031.16,-177.67 1035.47,-162.51 1039.16,-149.53"/>
<polygon fill="black" stroke="black" points="1042.6,-150.25 1041.97,-139.67 1035.87,-148.33 1042.6,-150.25"/>
</g>
</g>
</svg>
