<?xml version="1.0" encoding="UTF-8" standalone="no"?>
<!DOCTYPE svg PUBLIC "-//W3C//DTD SVG 1.1//EN"
 "http://www.w3.org/Graphics/SVG/1.1/DTD/svg11.dtd">
<!-- Generated by graphviz version 2.43.0 (0)
 -->
<!-- Title: BST Pages: 1 -->
<svg width="348pt" height="274pt"
 viewBox="0.00 0.00 348.22 273.91" xmlns="http://www.w3.org/2000/svg" xmlns:xlink="http://www.w3.org/1999/xlink">
<g id="graph0" class="graph" transform="scale(1 1) rotate(0) translate(4 269.91)">
<title>BST</title>
<polygon fill="white" stroke="transparent" points="-4,4 -4,-269.91 344.22,-269.91 344.22,4 -4,4"/>
<!-- No_965115082 -->
<g id="node1" class="node">
<title>No_965115082</title>
<ellipse fill="none" stroke="black" cx="174.56" cy="-228.43" rx="75.82" ry="37.45"/>
<text text-anchor="middle" x="174.56" y="-239.73" font-family="Times,serif" font-size="14.00">Ana Barbosa</text>
<text text-anchor="middle" x="174.56" y="-224.73" font-family="Times,serif" font-size="14.00">965115082</text>
<text text-anchor="middle" x="174.56" y="-209.73" font-family="Times,serif" font-size="14.00">fb=0</text>
</g>
<!-- No_960933790 -->
<g id="node2" class="node">
<title>No_960933790</title>
<ellipse fill="none" stroke="black" cx="85.56" cy="-117.48" rx="85.62" ry="37.45"/>
<text text-anchor="middle" x="85.56" y="-128.78" font-family="Times,serif" font-size="14.00">Andrea Santos</text>
<text text-anchor="middle" x="85.56" y="-113.78" font-family="Times,serif" font-size="14.00">960933790</text>
<text text-anchor="middle" x="85.56" y="-98.78" font-family="Times,serif" font-size="14.00">fb=0</text>
</g>
<!-- No_965115082&#45;&gt;No_960933790 -->
<g id="edge1" class="edge">
<title>No_965115082&#45;&gt;No_960933790</title>
<path fill="none" stroke="black" d="M146.64,-193.26C138.28,-183.01 128.99,-171.65 120.25,-160.94"/>
<polygon fill="black" stroke="black" points="122.72,-158.43 113.68,-152.9 117.3,-162.86 122.72,-158.43"/>
</g>
<!-- No_985278999 -->
<g id="node5" class="node">
<title>No_985278999</title>
<ellipse fill="none" stroke="black" cx="264.56" cy="-117.48" rx="75.82" ry="37.45"/>
<text text-anchor="middle" x="264.56" y="-128.78" font-family="Times,serif" font-size="14.00">Acir Campos</text>
<text text-anchor="middle" x="264.56" y="-113.78" font-family="Times,serif" font-size="14.00">985278999</text>
<text text-anchor="middle" x="264.56" y="-98.78" font-family="Times,serif" font-size="14.00">fb=0</text>
</g>
<!-- No_965115082&#45;&gt;No_985278999 -->
<g id="edge4" class="edge">
<title>No_965115082&#45;&gt;No_985278999</title>
<path fill="none" stroke="black" d="M202.54,-193.55C211.26,-183 220.98,-171.23 230.09,-160.2"/>
<polygon fill="black" stroke="black" points="232.92,-162.27 236.59,-152.33 227.53,-157.81 232.92,-162.27"/>
</g>
<!-- NUL_0 -->
<g id="node3" class="node">
<title>NUL_0</title>
<polygon fill="none" stroke="black" points="104.56,-44 60.56,-44 60.56,0 104.56,0 104.56,-44"/>
<text text-anchor="middle" x="82.56" y="-18.3" font-family="Times,serif" font-size="14.00">null</text>
</g>
<!-- No_960933790&#45;&gt;NUL_0 -->
<g id="edge2" class="edge">
<title>No_960933790&#45;&gt;NUL_0</title>
<path fill="none" stroke="black" d="M84.38,-79.8C84.11,-71.41 83.83,-62.56 83.57,-54.41"/>
<polygon fill="black" stroke="black" points="87.06,-54.08 83.24,-44.2 80.06,-54.31 87.06,-54.08"/>
</g>
<!-- NUL_1 -->
<g id="node4" class="node">
<title>NUL_1</title>
<polygon fill="none" stroke="black" points="166.56,-44 122.56,-44 122.56,0 166.56,0 166.56,-44"/>
<text text-anchor="middle" x="144.56" y="-18.3" font-family="Times,serif" font-size="14.00">null</text>
</g>
<!-- No_960933790&#45;&gt;NUL_1 -->
<g id="edge3" class="edge">
<title>No_960933790&#45;&gt;NUL_1</title>
<path fill="none" stroke="black" d="M107.87,-81.14C113.79,-71.75 120.12,-61.72 125.83,-52.67"/>
<polygon fill="black" stroke="black" points="128.92,-54.34 131.3,-44.01 123,-50.6 128.92,-54.34"/>
</g>
<!-- NUL_2 -->
<g id="node6" class="node">
<title>NUL_2</title>
<polygon fill="none" stroke="black" points="257.56,-44 213.56,-44 213.56,0 257.56,0 257.56,-44"/>
<text text-anchor="middle" x="235.56" y="-18.3" font-family="Times,serif" font-size="14.00">null</text>
</g>
<!-- No_985278999&#45;&gt;NUL_2 -->
<g id="edge5" class="edge">
<title>No_985278999&#45;&gt;NUL_2</title>
<path fill="none" stroke="black" d="M253.35,-80.34C250.65,-71.64 247.79,-62.43 245.18,-54"/>
<polygon fill="black" stroke="black" points="248.44,-52.7 242.13,-44.18 241.75,-54.77 248.44,-52.7"/>
</g>
<!-- NUL_3 -->
<g id="node7" class="node">
<title>NUL_3</title>
<polygon fill="none" stroke="black" points="319.56,-44 275.56,-44 275.56,0 319.56,0 319.56,-44"/>
<text text-anchor="middle" x="297.56" y="-18.3" font-family="Times,serif" font-size="14.00">null</text>
</g>
<!-- No_985278999&#45;&gt;NUL_3 -->
<g id="edge6" class="edge">
<title>No_985278999&#45;&gt;NUL_3</title>
<path fill="none" stroke="black" d="M277.32,-80.34C280.42,-71.55 283.71,-62.23 286.71,-53.72"/>
<polygon fill="black" stroke="black" points="290.05,-54.78 290.08,-44.18 283.45,-52.45 290.05,-54.78"/>
</g>
</g>
</svg>
