<?xml version="1.0" encoding="UTF-8" standalone="no"?>
<!DOCTYPE svg PUBLIC "-//W3C//DTD SVG 1.1//EN"
 "http://www.w3.org/Graphics/SVG/1.1/DTD/svg11.dtd">
<!-- Generated by graphviz version 2.43.0 (0)
 -->
<!-- Title: BST Pages: 1 -->
<svg width="656pt" height="496pt"
 viewBox="0.00 0.00 655.91 495.81" xmlns="http://www.w3.org/2000/svg" xmlns:xlink="http://www.w3.org/1999/xlink">
<g id="graph0" class="graph" transform="scale(1 1) rotate(0) translate(4 491.81)">
<title>BST</title>
<polygon fill="white" stroke="transparent" points="-4,4 -4,-491.81 651.91,-491.81 651.91,4 -4,4"/>
<!-- No_985278999 -->
<g id="node1" class="node">
<title>No_985278999</title>
<ellipse fill="none" stroke="black" cx="382.95" cy="-450.34" rx="75.82" ry="37.45"/>
<text text-anchor="middle" x="382.95" y="-461.64" font-family="Times,serif" font-size="14.00">Acir Campos</text>
<text text-anchor="middle" x="382.95" y="-446.64" font-family="Times,serif" font-size="14.00">985278999</text>
<text text-anchor="middle" x="382.95" y="-431.64" font-family="Times,serif" font-size="14.00">fb=&#45;1</text>
</g>
<!-- No_965115082 -->
<g id="node2" class="node">
<title>No_965115082</title>
<ellipse fill="none" stroke="black" cx="290.95" cy="-339.38" rx="75.82" ry="37.45"/>
<text text-anchor="middle" x="290.95" y="-350.68" font-family="Times,serif" font-size="14.00">Ana Barbosa</text>
<text text-anchor="middle" x="290.95" y="-335.68" font-family="Times,serif" font-size="14.00">965115082</text>
<text text-anchor="middle" x="290.95" y="-320.68" font-family="Times,serif" font-size="14.00">fb=0</text>
</g>
<!-- No_985278999&#45;&gt;No_965115082 -->
<g id="edge1" class="edge">
<title>No_985278999&#45;&gt;No_965115082</title>
<path fill="none" stroke="black" d="M354.35,-415.46C345.43,-404.9 335.5,-393.14 326.19,-382.11"/>
<polygon fill="black" stroke="black" points="328.67,-379.62 319.54,-374.24 323.32,-384.14 328.67,-379.62"/>
</g>
<!-- No_987671978 -->
<g id="node11" class="node">
<title>No_987671978</title>
<ellipse fill="none" stroke="black" cx="474.95" cy="-339.38" rx="90.52" ry="37.45"/>
<text text-anchor="middle" x="474.95" y="-350.68" font-family="Times,serif" font-size="14.00">Adriana Pereira</text>
<text text-anchor="middle" x="474.95" y="-335.68" font-family="Times,serif" font-size="14.00">987671978</text>
<text text-anchor="middle" x="474.95" y="-320.68" font-family="Times,serif" font-size="14.00">fb=0</text>
</g>
<!-- No_985278999&#45;&gt;No_987671978 -->
<g id="edge10" class="edge">
<title>No_985278999&#45;&gt;No_987671978</title>
<path fill="none" stroke="black" d="M411.56,-415.46C420.3,-405.11 430.03,-393.59 439.19,-382.74"/>
<polygon fill="black" stroke="black" points="441.95,-384.89 445.73,-374.99 436.61,-380.37 441.95,-384.89"/>
</g>
<!-- No_960933790 -->
<g id="node3" class="node">
<title>No_960933790</title>
<ellipse fill="none" stroke="black" cx="131.95" cy="-228.43" rx="85.62" ry="37.45"/>
<text text-anchor="middle" x="131.95" y="-239.73" font-family="Times,serif" font-size="14.00">Andrea Santos</text>
<text text-anchor="middle" x="131.95" y="-224.73" font-family="Times,serif" font-size="14.00">960933790</text>
<text text-anchor="middle" x="131.95" y="-209.73" font-family="Times,serif" font-size="14.00">fb=1</text>
</g>
<!-- No_965115082&#45;&gt;No_960933790 -->
<g id="edge2" class="edge">
<title>No_965115082&#45;&gt;No_960933790</title>
<path fill="none" stroke="black" d="M247.51,-308.61C228.36,-295.49 205.67,-279.94 185.49,-266.11"/>
<polygon fill="black" stroke="black" points="187.24,-263.07 177.01,-260.31 183.28,-268.85 187.24,-263.07"/>
</g>
<!-- No_975960513 -->
<g id="node8" class="node">
<title>No_975960513</title>
<ellipse fill="none" stroke="black" cx="308.95" cy="-228.43" rx="73.58" ry="37.45"/>
<text text-anchor="middle" x="308.95" y="-239.73" font-family="Times,serif" font-size="14.00">Altair Souza</text>
<text text-anchor="middle" x="308.95" y="-224.73" font-family="Times,serif" font-size="14.00">975960513</text>
<text text-anchor="middle" x="308.95" y="-209.73" font-family="Times,serif" font-size="14.00">fb=0</text>
</g>
<!-- No_965115082&#45;&gt;No_975960513 -->
<g id="edge7" class="edge">
<title>No_965115082&#45;&gt;No_975960513</title>
<path fill="none" stroke="black" d="M297,-301.8C298.36,-293.54 299.83,-284.65 301.25,-276.04"/>
<polygon fill="black" stroke="black" points="304.72,-276.54 302.89,-266.1 297.81,-275.4 304.72,-276.54"/>
</g>
<!-- No_955838599 -->
<g id="node4" class="node">
<title>No_955838599</title>
<ellipse fill="none" stroke="black" cx="74.95" cy="-117.48" rx="74.91" ry="37.45"/>
<text text-anchor="middle" x="74.95" y="-128.78" font-family="Times,serif" font-size="14.00">Aline Santos</text>
<text text-anchor="middle" x="74.95" y="-113.78" font-family="Times,serif" font-size="14.00">955838599</text>
<text text-anchor="middle" x="74.95" y="-98.78" font-family="Times,serif" font-size="14.00">fb=0</text>
</g>
<!-- No_960933790&#45;&gt;No_955838599 -->
<g id="edge3" class="edge">
<title>No_960933790&#45;&gt;No_955838599</title>
<path fill="none" stroke="black" d="M113.29,-191.75C108.47,-182.54 103.22,-172.5 98.19,-162.9"/>
<polygon fill="black" stroke="black" points="101.2,-161.1 93.46,-153.86 95,-164.34 101.2,-161.1"/>
</g>
<!-- NUL_2 -->
<g id="node7" class="node">
<title>NUL_2</title>
<polygon fill="none" stroke="black" points="211.95,-139.48 167.95,-139.48 167.95,-95.48 211.95,-95.48 211.95,-139.48"/>
<text text-anchor="middle" x="189.95" y="-113.78" font-family="Times,serif" font-size="14.00">null</text>
</g>
<!-- No_960933790&#45;&gt;NUL_2 -->
<g id="edge6" class="edge">
<title>No_960933790&#45;&gt;NUL_2</title>
<path fill="none" stroke="black" d="M150.94,-191.75C158.34,-177.87 166.71,-162.13 173.81,-148.81"/>
<polygon fill="black" stroke="black" points="177.1,-150.06 178.71,-139.59 170.92,-146.78 177.1,-150.06"/>
</g>
<!-- NUL_0 -->
<g id="node5" class="node">
<title>NUL_0</title>
<polygon fill="none" stroke="black" points="65.95,-44 21.95,-44 21.95,0 65.95,0 65.95,-44"/>
<text text-anchor="middle" x="43.95" y="-18.3" font-family="Times,serif" font-size="14.00">null</text>
</g>
<!-- No_955838599&#45;&gt;NUL_0 -->
<g id="edge4" class="edge">
<title>No_955838599&#45;&gt;NUL_0</title>
<path fill="none" stroke="black" d="M62.97,-80.34C60.05,-71.55 56.96,-62.23 54.14,-53.72"/>
<polygon fill="black" stroke="black" points="57.45,-52.57 50.98,-44.18 50.8,-54.77 57.45,-52.57"/>
</g>
<!-- NUL_1 -->
<g id="node6" class="node">
<title>NUL_1</title>
<polygon fill="none" stroke="black" points="127.95,-44 83.95,-44 83.95,0 127.95,0 127.95,-44"/>
<text text-anchor="middle" x="105.95" y="-18.3" font-family="Times,serif" font-size="14.00">null</text>
</g>
<!-- No_955838599&#45;&gt;NUL_1 -->
<g id="edge5" class="edge">
<title>No_955838599&#45;&gt;NUL_1</title>
<path fill="none" stroke="black" d="M86.94,-80.34C89.85,-71.55 92.94,-62.23 95.77,-53.72"/>
<polygon fill="black" stroke="black" points="99.1,-54.77 98.93,-44.18 92.46,-52.57 99.1,-54.77"/>
</g>
<!-- NUL_3 -->
<g id="node9" class="node">
<title>NUL_3</title>
<polygon fill="none" stroke="black" points="302.95,-139.48 258.95,-139.48 258.95,-95.48 302.95,-95.48 302.95,-139.48"/>
<text text-anchor="middle" x="280.95" y="-113.78" font-family="Times,serif" font-size="14.00">null</text>
</g>
<!-- No_975960513&#45;&gt;NUL_3 -->
<g id="edge8" class="edge">
<title>No_975960513&#45;&gt;NUL_3</title>
<path fill="none" stroke="black" d="M299.63,-191.15C296.17,-177.67 292.27,-162.51 288.93,-149.53"/>
<polygon fill="black" stroke="black" points="292.28,-148.49 286.4,-139.67 285.5,-150.23 292.28,-148.49"/>
</g>
<!-- NUL_4 -->
<g id="node10" class="node">
<title>NUL_4</title>
<polygon fill="none" stroke="black" points="364.95,-139.48 320.95,-139.48 320.95,-95.48 364.95,-95.48 364.95,-139.48"/>
<text text-anchor="middle" x="342.95" y="-113.78" font-family="Times,serif" font-size="14.00">null</text>
</g>
<!-- No_975960513&#45;&gt;NUL_4 -->
<g id="edge9" class="edge">
<title>No_975960513&#45;&gt;NUL_4</title>
<path fill="none" stroke="black" d="M320.27,-191.15C324.48,-177.67 329.21,-162.51 333.26,-149.53"/>
<polygon fill="black" stroke="black" points="336.7,-150.26 336.34,-139.67 330.02,-148.18 336.7,-150.26"/>
</g>
<!-- NUL_5 -->
<g id="node12" class="node">
<title>NUL_5</title>
<polygon fill="none" stroke="black" points="479.95,-250.43 435.95,-250.43 435.95,-206.43 479.95,-206.43 479.95,-250.43"/>
<text text-anchor="middle" x="457.95" y="-224.73" font-family="Times,serif" font-size="14.00">null</text>
</g>
<!-- No_987671978&#45;&gt;NUL_5 -->
<g id="edge11" class="edge">
<title>No_987671978&#45;&gt;NUL_5</title>
<path fill="none" stroke="black" d="M469.25,-301.8C467.17,-288.47 464.83,-273.53 462.83,-260.7"/>
<polygon fill="black" stroke="black" points="466.24,-259.85 461.24,-250.51 459.33,-260.93 466.24,-259.85"/>
</g>
<!-- No_997285865 -->
<g id="node13" class="node">
<title>No_997285865</title>
<ellipse fill="none" stroke="black" cx="572.95" cy="-228.43" rx="74.91" ry="37.45"/>
<text text-anchor="middle" x="572.95" y="-239.73" font-family="Times,serif" font-size="14.00">Almir Torres</text>
<text text-anchor="middle" x="572.95" y="-224.73" font-family="Times,serif" font-size="14.00">997285865</text>
<text text-anchor="middle" x="572.95" y="-209.73" font-family="Times,serif" font-size="14.00">fb=0</text>
</g>
<!-- No_987671978&#45;&gt;No_997285865 -->
<g id="edge12" class="edge">
<title>No_987671978&#45;&gt;No_997285865</title>
<path fill="none" stroke="black" d="M505.96,-303.91C515.53,-293.27 526.16,-281.45 536.08,-270.42"/>
<polygon fill="black" stroke="black" points="538.73,-272.71 542.82,-262.93 533.53,-268.03 538.73,-272.71"/>
</g>
<!-- NUL_6 -->
<g id="node14" class="node">
<title>NUL_6</title>
<polygon fill="none" stroke="black" points="563.95,-139.48 519.95,-139.48 519.95,-95.48 563.95,-95.48 563.95,-139.48"/>
<text text-anchor="middle" x="541.95" y="-113.78" font-family="Times,serif" font-size="14.00">null</text>
</g>
<!-- No_997285865&#45;&gt;NUL_6 -->
<g id="edge13" class="edge">
<title>No_997285865&#45;&gt;NUL_6</title>
<path fill="none" stroke="black" d="M562.63,-191.15C558.79,-177.67 554.48,-162.51 550.79,-149.53"/>
<polygon fill="black" stroke="black" points="554.09,-148.33 547.98,-139.67 547.35,-150.25 554.09,-148.33"/>
</g>
<!-- NUL_7 -->
<g id="node15" class="node">
<title>NUL_7</title>
<polygon fill="none" stroke="black" points="625.95,-139.48 581.95,-139.48 581.95,-95.48 625.95,-95.48 625.95,-139.48"/>
<text text-anchor="middle" x="603.95" y="-113.78" font-family="Times,serif" font-size="14.00">null</text>
</g>
<!-- No_997285865&#45;&gt;NUL_7 -->
<g id="edge14" class="edge">
<title>No_997285865&#45;&gt;NUL_7</title>
<path fill="none" stroke="black" d="M583.28,-191.15C587.11,-177.67 591.43,-162.51 595.12,-149.53"/>
<polygon fill="black" stroke="black" points="598.55,-150.25 597.92,-139.67 591.82,-148.33 598.55,-150.25"/>
</g>
</g>
</svg>
