<?xml version="1.0" encoding="UTF-8" standalone="no"?>
<!DOCTYPE svg PUBLIC "-//W3C//DTD SVG 1.1//EN"
 "http://www.w3.org/Graphics/SVG/1.1/DTD/svg11.dtd">
<!-- Generated by graphviz version 2.43.0 (0)
 -->
<!-- Title: BST Pages: 1 -->
<svg width="589pt" height="496pt"
 viewBox="0.00 0.00 589.27 495.81" xmlns="http://www.w3.org/2000/svg" xmlns:xlink="http://www.w3.org/1999/xlink">
<g id="graph0" class="graph" transform="scale(1 1) rotate(0) translate(4 491.81)">
<title>BST</title>
<polygon fill="white" stroke="transparent" points="-4,4 -4,-491.81 585.27,-491.81 585.27,4 -4,4"/>
<!-- No_938821119 -->
<g id="node1" class="node">
<title>No_938821119</title>
<ellipse fill="none" stroke="black" cx="418.9" cy="-450.34" rx="74.49" ry="37.45"/>
<text text-anchor="middle" x="418.9" y="-461.64" font-family="Times,serif" font-size="14.00">Lucas Souza</text>
<text text-anchor="middle" x="418.9" y="-446.64" font-family="Times,serif" font-size="14.00">938821119</text>
<text text-anchor="middle" x="418.9" y="-431.64" font-family="Times,serif" font-size="14.00">fb=&#45;2</text>
</g>
<!-- No_923935650 -->
<g id="node2" class="node">
<title>No_923935650</title>
<ellipse fill="none" stroke="black" cx="332.9" cy="-339.38" rx="77.56" ry="37.45"/>
<text text-anchor="middle" x="332.9" y="-350.68" font-family="Times,serif" font-size="14.00">Lucas Barros</text>
<text text-anchor="middle" x="332.9" y="-335.68" font-family="Times,serif" font-size="14.00">923935650</text>
<text text-anchor="middle" x="332.9" y="-320.68" font-family="Times,serif" font-size="14.00">fb=0</text>
</g>
<!-- No_938821119&#45;&gt;No_923935650 -->
<g id="edge1" class="edge">
<title>No_938821119&#45;&gt;No_923935650</title>
<path fill="none" stroke="black" d="M391.93,-415.16C383.84,-404.92 374.87,-393.56 366.42,-382.84"/>
<polygon fill="black" stroke="black" points="369.02,-380.49 360.08,-374.81 363.53,-384.83 369.02,-380.49"/>
</g>
<!-- No_943838997 -->
<g id="node13" class="node">
<title>No_943838997</title>
<ellipse fill="none" stroke="black" cx="504.9" cy="-339.38" rx="76.24" ry="37.45"/>
<text text-anchor="middle" x="504.9" y="-350.68" font-family="Times,serif" font-size="14.00">Lucas Torres</text>
<text text-anchor="middle" x="504.9" y="-335.68" font-family="Times,serif" font-size="14.00">943838997</text>
<text text-anchor="middle" x="504.9" y="-320.68" font-family="Times,serif" font-size="14.00">fb=0</text>
</g>
<!-- No_938821119&#45;&gt;No_943838997 -->
<g id="edge12" class="edge">
<title>No_938821119&#45;&gt;No_943838997</title>
<path fill="none" stroke="black" d="M445.88,-415.16C453.96,-404.92 462.93,-393.56 471.39,-382.84"/>
<polygon fill="black" stroke="black" points="474.28,-384.83 477.73,-374.81 468.79,-380.49 474.28,-384.83"/>
</g>
<!-- No_1737839768 -->
<g id="node3" class="node">
<title>No_1737839768</title>
<ellipse fill="none" stroke="black" cx="170.9" cy="-228.43" rx="79.81" ry="37.45"/>
<text text-anchor="middle" x="170.9" y="-239.73" font-family="Times,serif" font-size="14.00">Luana Coelho</text>
<text text-anchor="middle" x="170.9" y="-224.73" font-family="Times,serif" font-size="14.00">1737839768</text>
<text text-anchor="middle" x="170.9" y="-209.73" font-family="Times,serif" font-size="14.00">fb=&#45;1</text>
</g>
<!-- No_923935650&#45;&gt;No_1737839768 -->
<g id="edge2" class="edge">
<title>No_923935650&#45;&gt;No_1737839768</title>
<path fill="none" stroke="black" d="M288.21,-308.32C268.37,-294.98 244.87,-279.18 224.13,-265.23"/>
<polygon fill="black" stroke="black" points="225.99,-262.26 215.73,-259.58 222.08,-268.07 225.99,-262.26"/>
</g>
<!-- No_925876652 -->
<g id="node8" class="node">
<title>No_925876652</title>
<ellipse fill="none" stroke="black" cx="346.9" cy="-228.43" rx="78.48" ry="37.45"/>
<text text-anchor="middle" x="346.9" y="-239.73" font-family="Times,serif" font-size="14.00">Lucas Santos</text>
<text text-anchor="middle" x="346.9" y="-224.73" font-family="Times,serif" font-size="14.00">925876652</text>
<text text-anchor="middle" x="346.9" y="-209.73" font-family="Times,serif" font-size="14.00">fb=1</text>
</g>
<!-- No_923935650&#45;&gt;No_925876652 -->
<g id="edge7" class="edge">
<title>No_923935650&#45;&gt;No_925876652</title>
<path fill="none" stroke="black" d="M337.6,-301.8C338.67,-293.54 339.81,-284.65 340.91,-276.04"/>
<polygon fill="black" stroke="black" points="344.39,-276.47 342.19,-266.1 337.44,-275.57 344.39,-276.47"/>
</g>
<!-- No_915512455 -->
<g id="node4" class="node">
<title>No_915512455</title>
<ellipse fill="none" stroke="black" cx="79.9" cy="-117.48" rx="79.81" ry="37.45"/>
<text text-anchor="middle" x="79.9" y="-128.78" font-family="Times,serif" font-size="14.00">Luana Barros</text>
<text text-anchor="middle" x="79.9" y="-113.78" font-family="Times,serif" font-size="14.00">915512455</text>
<text text-anchor="middle" x="79.9" y="-98.78" font-family="Times,serif" font-size="14.00">fb=0</text>
</g>
<!-- No_1737839768&#45;&gt;No_915512455 -->
<g id="edge3" class="edge">
<title>No_1737839768&#45;&gt;No_915512455</title>
<path fill="none" stroke="black" d="M142.36,-193.26C133.64,-182.81 123.94,-171.2 114.84,-160.31"/>
<polygon fill="black" stroke="black" points="117.44,-157.96 108.35,-152.53 112.07,-162.45 117.44,-157.96"/>
</g>
<!-- NUL_2 -->
<g id="node7" class="node">
<title>NUL_2</title>
<polygon fill="none" stroke="black" points="221.9,-139.48 177.9,-139.48 177.9,-95.48 221.9,-95.48 221.9,-139.48"/>
<text text-anchor="middle" x="199.9" y="-113.78" font-family="Times,serif" font-size="14.00">null</text>
</g>
<!-- No_1737839768&#45;&gt;NUL_2 -->
<g id="edge6" class="edge">
<title>No_1737839768&#45;&gt;NUL_2</title>
<path fill="none" stroke="black" d="M180.56,-191.15C184.15,-177.67 188.18,-162.51 191.64,-149.53"/>
<polygon fill="black" stroke="black" points="195.07,-150.24 194.26,-139.67 188.31,-148.44 195.07,-150.24"/>
</g>
<!-- NUL_0 -->
<g id="node5" class="node">
<title>NUL_0</title>
<polygon fill="none" stroke="black" points="70.9,-44 26.9,-44 26.9,0 70.9,0 70.9,-44"/>
<text text-anchor="middle" x="48.9" y="-18.3" font-family="Times,serif" font-size="14.00">null</text>
</g>
<!-- No_915512455&#45;&gt;NUL_0 -->
<g id="edge4" class="edge">
<title>No_915512455&#45;&gt;NUL_0</title>
<path fill="none" stroke="black" d="M67.92,-80.34C65,-71.55 61.91,-62.23 59.09,-53.72"/>
<polygon fill="black" stroke="black" points="62.4,-52.57 55.93,-44.18 55.75,-54.77 62.4,-52.57"/>
</g>
<!-- NUL_1 -->
<g id="node6" class="node">
<title>NUL_1</title>
<polygon fill="none" stroke="black" points="132.9,-44 88.9,-44 88.9,0 132.9,0 132.9,-44"/>
<text text-anchor="middle" x="110.9" y="-18.3" font-family="Times,serif" font-size="14.00">null</text>
</g>
<!-- No_915512455&#45;&gt;NUL_1 -->
<g id="edge5" class="edge">
<title>No_915512455&#45;&gt;NUL_1</title>
<path fill="none" stroke="black" d="M91.89,-80.34C94.8,-71.55 97.89,-62.23 100.71,-53.72"/>
<polygon fill="black" stroke="black" points="104.05,-54.77 103.88,-44.18 97.41,-52.57 104.05,-54.77"/>
</g>
<!-- NUL_3 -->
<g id="node9" class="node">
<title>NUL_3</title>
<polygon fill="none" stroke="black" points="340.9,-139.48 296.9,-139.48 296.9,-95.48 340.9,-95.48 340.9,-139.48"/>
<text text-anchor="middle" x="318.9" y="-113.78" font-family="Times,serif" font-size="14.00">null</text>
</g>
<!-- No_925876652&#45;&gt;NUL_3 -->
<g id="edge8" class="edge">
<title>No_925876652&#45;&gt;NUL_3</title>
<path fill="none" stroke="black" d="M337.58,-191.15C334.11,-177.67 330.22,-162.51 326.88,-149.53"/>
<polygon fill="black" stroke="black" points="330.23,-148.49 324.35,-139.67 323.45,-150.23 330.23,-148.49"/>
</g>
<!-- No_931458282 -->
<g id="node10" class="node">
<title>No_931458282</title>
<ellipse fill="none" stroke="black" cx="440.9" cy="-117.48" rx="82.05" ry="37.45"/>
<text text-anchor="middle" x="440.9" y="-128.78" font-family="Times,serif" font-size="14.00">Luana Freitas</text>
<text text-anchor="middle" x="440.9" y="-113.78" font-family="Times,serif" font-size="14.00">931458282</text>
<text text-anchor="middle" x="440.9" y="-98.78" font-family="Times,serif" font-size="14.00">fb=0</text>
</g>
<!-- No_925876652&#45;&gt;No_931458282 -->
<g id="edge9" class="edge">
<title>No_925876652&#45;&gt;No_931458282</title>
<path fill="none" stroke="black" d="M376.13,-193.55C385.15,-183.1 395.2,-171.46 404.63,-160.52"/>
<polygon fill="black" stroke="black" points="407.49,-162.57 411.37,-152.71 402.19,-157.99 407.49,-162.57"/>
</g>
<!-- NUL_4 -->
<g id="node11" class="node">
<title>NUL_4</title>
<polygon fill="none" stroke="black" points="431.9,-44 387.9,-44 387.9,0 431.9,0 431.9,-44"/>
<text text-anchor="middle" x="409.9" y="-18.3" font-family="Times,serif" font-size="14.00">null</text>
</g>
<!-- No_931458282&#45;&gt;NUL_4 -->
<g id="edge10" class="edge">
<title>No_931458282&#45;&gt;NUL_4</title>
<path fill="none" stroke="black" d="M428.92,-80.34C426,-71.55 422.91,-62.23 420.09,-53.72"/>
<polygon fill="black" stroke="black" points="423.4,-52.57 416.93,-44.18 416.75,-54.77 423.4,-52.57"/>
</g>
<!-- NUL_5 -->
<g id="node12" class="node">
<title>NUL_5</title>
<polygon fill="none" stroke="black" points="493.9,-44 449.9,-44 449.9,0 493.9,0 493.9,-44"/>
<text text-anchor="middle" x="471.9" y="-18.3" font-family="Times,serif" font-size="14.00">null</text>
</g>
<!-- No_931458282&#45;&gt;NUL_5 -->
<g id="edge11" class="edge">
<title>No_931458282&#45;&gt;NUL_5</title>
<path fill="none" stroke="black" d="M452.89,-80.34C455.8,-71.55 458.89,-62.23 461.71,-53.72"/>
<polygon fill="black" stroke="black" points="465.05,-54.77 464.88,-44.18 458.41,-52.57 465.05,-54.77"/>
</g>
<!-- NUL_6 -->
<g id="node14" class="node">
<title>NUL_6</title>
<polygon fill="none" stroke="black" points="513.9,-250.43 469.9,-250.43 469.9,-206.43 513.9,-206.43 513.9,-250.43"/>
<text text-anchor="middle" x="491.9" y="-224.73" font-family="Times,serif" font-size="14.00">null</text>
</g>
<!-- No_943838997&#45;&gt;NUL_6 -->
<g id="edge13" class="edge">
<title>No_943838997&#45;&gt;NUL_6</title>
<path fill="none" stroke="black" d="M500.54,-301.8C498.95,-288.47 497.17,-273.53 495.63,-260.7"/>
<polygon fill="black" stroke="black" points="499.08,-260.02 494.42,-250.51 492.13,-260.85 499.08,-260.02"/>
</g>
<!-- NUL_7 -->
<g id="node15" class="node">
<title>NUL_7</title>
<polygon fill="none" stroke="black" points="575.9,-250.43 531.9,-250.43 531.9,-206.43 575.9,-206.43 575.9,-250.43"/>
<text text-anchor="middle" x="553.9" y="-224.73" font-family="Times,serif" font-size="14.00">null</text>
</g>
<!-- No_943838997&#45;&gt;NUL_7 -->
<g id="edge14" class="edge">
<title>No_943838997&#45;&gt;NUL_7</title>
<path fill="none" stroke="black" d="M520.95,-302.71C527.19,-288.82 534.27,-273.08 540.26,-259.76"/>
<polygon fill="black" stroke="black" points="543.5,-261.1 544.41,-250.55 537.11,-258.23 543.5,-261.1"/>
</g>
</g>
</svg>
