<?xml version="1.0" encoding="UTF-8" standalone="no"?>
<!DOCTYPE svg PUBLIC "-//W3C//DTD SVG 1.1//EN"
 "http://www.w3.org/Graphics/SVG/1.1/DTD/svg11.dtd">
<!-- Generated by graphviz version 2.43.0 (0)
 -->
<!-- Title: BST Pages: 1 -->
<svg width="420pt" height="274pt"
 viewBox="0.00 0.00 419.58 273.91" xmlns="http://www.w3.org/2000/svg" xmlns:xlink="http://www.w3.org/1999/xlink">
<g id="graph0" class="graph" transform="scale(1 1) rotate(0) translate(4 269.91)">
<title>BST</title>
<polygon fill="white" stroke="transparent" points="-4,4 -4,-269.91 415.58,-269.91 415.58,4 -4,4"/>
<!-- No_950807568 -->
<g id="node1" class="node">
<title>No_950807568</title>
<ellipse fill="none" stroke="black" cx="196.8" cy="-228.43" rx="101.23" ry="37.45"/>
<text text-anchor="middle" x="196.8" y="-239.73" font-family="Times,serif" font-size="14.00">Roberto Machado</text>
<text text-anchor="middle" x="196.8" y="-224.73" font-family="Times,serif" font-size="14.00">950807568</text>
<text text-anchor="middle" x="196.8" y="-209.73" font-family="Times,serif" font-size="14.00">fb=0</text>
</g>
<!-- No_950232276 -->
<g id="node2" class="node">
<title>No_950232276</title>
<ellipse fill="none" stroke="black" cx="89.8" cy="-117.48" rx="89.61" ry="37.45"/>
<text text-anchor="middle" x="89.8" y="-128.78" font-family="Times,serif" font-size="14.00">Roberto Santos</text>
<text text-anchor="middle" x="89.8" y="-113.78" font-family="Times,serif" font-size="14.00">950232276</text>
<text text-anchor="middle" x="89.8" y="-98.78" font-family="Times,serif" font-size="14.00">fb=0</text>
</g>
<!-- No_950807568&#45;&gt;No_950232276 -->
<g id="edge1" class="edge">
<title>No_950807568&#45;&gt;No_950232276</title>
<path fill="none" stroke="black" d="M162.95,-192.96C152.6,-182.42 141.11,-170.73 130.37,-159.78"/>
<polygon fill="black" stroke="black" points="132.58,-157.04 123.07,-152.35 127.58,-161.94 132.58,-157.04"/>
</g>
<!-- No_996323512 -->
<g id="node5" class="node">
<title>No_996323512</title>
<ellipse fill="none" stroke="black" cx="304.8" cy="-117.48" rx="106.55" ry="37.45"/>
<text text-anchor="middle" x="304.8" y="-128.78" font-family="Times,serif" font-size="14.00">Roberto Rodrigues</text>
<text text-anchor="middle" x="304.8" y="-113.78" font-family="Times,serif" font-size="14.00">996323512</text>
<text text-anchor="middle" x="304.8" y="-98.78" font-family="Times,serif" font-size="14.00">fb=0</text>
</g>
<!-- No_950807568&#45;&gt;No_996323512 -->
<g id="edge4" class="edge">
<title>No_950807568&#45;&gt;No_996323512</title>
<path fill="none" stroke="black" d="M230.97,-192.96C241.22,-182.62 252.57,-171.17 263.23,-160.42"/>
<polygon fill="black" stroke="black" points="265.93,-162.67 270.48,-153.1 260.96,-157.74 265.93,-162.67"/>
</g>
<!-- NUL_0 -->
<g id="node3" class="node">
<title>NUL_0</title>
<polygon fill="none" stroke="black" points="80.8,-44 36.8,-44 36.8,0 80.8,0 80.8,-44"/>
<text text-anchor="middle" x="58.8" y="-18.3" font-family="Times,serif" font-size="14.00">null</text>
</g>
<!-- No_950232276&#45;&gt;NUL_0 -->
<g id="edge2" class="edge">
<title>No_950232276&#45;&gt;NUL_0</title>
<path fill="none" stroke="black" d="M77.73,-80.07C74.82,-71.3 71.74,-62.02 68.93,-53.55"/>
<polygon fill="black" stroke="black" points="72.26,-52.45 65.79,-44.06 65.61,-54.65 72.26,-52.45"/>
</g>
<!-- NUL_1 -->
<g id="node4" class="node">
<title>NUL_1</title>
<polygon fill="none" stroke="black" points="142.8,-44 98.8,-44 98.8,0 142.8,0 142.8,-44"/>
<text text-anchor="middle" x="120.8" y="-18.3" font-family="Times,serif" font-size="14.00">null</text>
</g>
<!-- No_950232276&#45;&gt;NUL_1 -->
<g id="edge3" class="edge">
<title>No_950232276&#45;&gt;NUL_1</title>
<path fill="none" stroke="black" d="M101.88,-80.07C104.78,-71.3 107.86,-62.02 110.67,-53.55"/>
<polygon fill="black" stroke="black" points="113.99,-54.65 113.82,-44.06 107.35,-52.45 113.99,-54.65"/>
</g>
<!-- NUL_2 -->
<g id="node6" class="node">
<title>NUL_2</title>
<polygon fill="none" stroke="black" points="295.8,-44 251.8,-44 251.8,0 295.8,0 295.8,-44"/>
<text text-anchor="middle" x="273.8" y="-18.3" font-family="Times,serif" font-size="14.00">null</text>
</g>
<!-- No_996323512&#45;&gt;NUL_2 -->
<g id="edge5" class="edge">
<title>No_996323512&#45;&gt;NUL_2</title>
<path fill="none" stroke="black" d="M292.73,-80.07C289.82,-71.3 286.74,-62.02 283.93,-53.55"/>
<polygon fill="black" stroke="black" points="287.26,-52.45 280.79,-44.06 280.61,-54.65 287.26,-52.45"/>
</g>
<!-- NUL_3 -->
<g id="node7" class="node">
<title>NUL_3</title>
<polygon fill="none" stroke="black" points="357.8,-44 313.8,-44 313.8,0 357.8,0 357.8,-44"/>
<text text-anchor="middle" x="335.8" y="-18.3" font-family="Times,serif" font-size="14.00">null</text>
</g>
<!-- No_996323512&#45;&gt;NUL_3 -->
<g id="edge6" class="edge">
<title>No_996323512&#45;&gt;NUL_3</title>
<path fill="none" stroke="black" d="M316.88,-80.07C319.78,-71.3 322.86,-62.02 325.67,-53.55"/>
<polygon fill="black" stroke="black" points="328.99,-54.65 328.82,-44.06 322.35,-52.45 328.99,-54.65"/>
</g>
</g>
</svg>
