<?xml version="1.0" encoding="UTF-8" standalone="no"?>
<!DOCTYPE svg PUBLIC "-//W3C//DTD SVG 1.1//EN"
 "http://www.w3.org/Graphics/SVG/1.1/DTD/svg11.dtd">
<!-- Generated by graphviz version 2.43.0 (0)
 -->
<!-- Title: BST Pages: 1 -->
<svg width="2764pt" height="468pt"
 viewBox="0.00 0.00 2763.63 467.58" xmlns="http://www.w3.org/2000/svg" xmlns:xlink="http://www.w3.org/1999/xlink">
<g id="graph0" class="graph" transform="scale(1 1) rotate(0) translate(4 463.58)">
<title>BST</title>
<polygon fill="white" stroke="transparent" points="-4,4 -4,-463.58 2759.63,-463.58 2759.63,4 -4,4"/>
<!-- Márcio Moura,967440374 [fb:0] -->
<g id="node1" class="node">
<title>Márcio Moura,967440374 [fb:0]</title>
<ellipse fill="none" stroke="black" cx="1058.6" cy="-441.58" rx="159.47" ry="18"/>
<text text-anchor="middle" x="1058.6" y="-437.88" font-family="Times,serif" font-size="14.00">Márcio Moura,967440374 [fb:0]</text>
</g>
<!-- Márcio Machado,952329784 [fb:1] -->
<g id="node2" class="node">
<title>Márcio Machado,952329784 [fb:1]</title>
<ellipse fill="none" stroke="black" cx="729.6" cy="-369.58" rx="170.87" ry="18"/>
<text text-anchor="middle" x="729.6" y="-365.88" font-family="Times,serif" font-size="14.00">Márcio Machado,952329784 [fb:1]</text>
</g>
<!-- Márcio Moura,967440374 [fb:0]&#45;&gt;Márcio Machado,952329784 [fb:1] -->
<g id="edge1" class="edge">
<title>Márcio Moura,967440374 [fb:0]&#45;&gt;Márcio Machado,952329784 [fb:1]</title>
<path fill="none" stroke="black" d="M987.21,-425.4C935.53,-414.4 865.56,-399.51 811.58,-388.03"/>
<polygon fill="black" stroke="black" points="812.21,-384.58 801.7,-385.93 810.75,-391.43 812.21,-384.58"/>
</g>
<!-- Márcio Porto,979688182 [fb:0] -->
<g id="node17" class="node">
<title>Márcio Porto,979688182 [fb:0]</title>
<ellipse fill="none" stroke="black" cx="1402.6" cy="-369.58" rx="154.07" ry="18"/>
<text text-anchor="middle" x="1402.6" y="-365.88" font-family="Times,serif" font-size="14.00">Márcio Porto,979688182 [fb:0]</text>
</g>
<!-- Márcio Moura,967440374 [fb:0]&#45;&gt;Márcio Porto,979688182 [fb:0] -->
<g id="edge16" class="edge">
<title>Márcio Moura,967440374 [fb:0]&#45;&gt;Márcio Porto,979688182 [fb:0]</title>
<path fill="none" stroke="black" d="M1132.39,-425.57C1187.33,-414.39 1262.38,-399.12 1319.44,-387.51"/>
<polygon fill="black" stroke="black" points="1320.41,-390.88 1329.51,-385.46 1319.02,-384.02 1320.41,-390.88"/>
</g>
<!-- Marcel Freitas,950313546 [fb:1] -->
<g id="node3" class="node">
<title>Marcel Freitas,950313546 [fb:1]</title>
<ellipse fill="none" stroke="black" cx="232.6" cy="-297.58" rx="162.47" ry="18"/>
<text text-anchor="middle" x="232.6" y="-293.88" font-family="Times,serif" font-size="14.00">Marcel Freitas,950313546 [fb:1]</text>
</g>
<!-- Márcio Machado,952329784 [fb:1]&#45;&gt;Marcel Freitas,950313546 [fb:1] -->
<g id="edge2" class="edge">
<title>Márcio Machado,952329784 [fb:1]&#45;&gt;Marcel Freitas,950313546 [fb:1]</title>
<path fill="none" stroke="black" d="M631.7,-354.8C547.38,-342.92 425.9,-325.81 339.15,-313.59"/>
<polygon fill="black" stroke="black" points="339.4,-310.09 329.01,-312.16 338.42,-317.02 339.4,-310.09"/>
</g>
<!-- Marcel Torres,961020719 [fb:1] -->
<g id="node8" class="node">
<title>Marcel Torres,961020719 [fb:1]</title>
<ellipse fill="none" stroke="black" cx="729.6" cy="-297.58" rx="159.47" ry="18"/>
<text text-anchor="middle" x="729.6" y="-293.88" font-family="Times,serif" font-size="14.00">Marcel Torres,961020719 [fb:1]</text>
</g>
<!-- Márcio Machado,952329784 [fb:1]&#45;&gt;Marcel Torres,961020719 [fb:1] -->
<g id="edge7" class="edge">
<title>Márcio Machado,952329784 [fb:1]&#45;&gt;Marcel Torres,961020719 [fb:1]</title>
<path fill="none" stroke="black" d="M729.6,-351.28C729.6,-343.57 729.6,-334.3 729.6,-325.7"/>
<polygon fill="black" stroke="black" points="733.1,-325.69 729.6,-315.69 726.1,-325.69 733.1,-325.69"/>
</g>
<!-- N0 -->
<g id="node4" class="node">
<title>N0</title>
<ellipse fill="none" stroke="black" cx="28.6" cy="-214.99" rx="28.7" ry="28.7"/>
<text text-anchor="middle" x="28.6" y="-211.29" font-family="Times,serif" font-size="14.00">null</text>
</g>
<!-- Marcel Freitas,950313546 [fb:1]&#45;&gt;N0 -->
<g id="edge3" class="edge">
<title>Marcel Freitas,950313546 [fb:1]&#45;&gt;N0</title>
<path fill="none" stroke="black" d="M167.66,-281.04C136.2,-272.23 98.45,-259.71 66.6,-243.58 64.01,-242.27 61.4,-240.79 58.83,-239.21"/>
<polygon fill="black" stroke="black" points="60.61,-236.19 50.34,-233.58 56.74,-242.02 60.61,-236.19"/>
</g>
<!-- Marcel Souza,951425568 [fb:0] -->
<g id="node5" class="node">
<title>Marcel Souza,951425568 [fb:0]</title>
<ellipse fill="none" stroke="black" cx="232.6" cy="-214.99" rx="157.07" ry="18"/>
<text text-anchor="middle" x="232.6" y="-211.29" font-family="Times,serif" font-size="14.00">Marcel Souza,951425568 [fb:0]</text>
</g>
<!-- Marcel Freitas,950313546 [fb:1]&#45;&gt;Marcel Souza,951425568 [fb:0] -->
<g id="edge4" class="edge">
<title>Marcel Freitas,950313546 [fb:1]&#45;&gt;Marcel Souza,951425568 [fb:0]</title>
<path fill="none" stroke="black" d="M232.6,-279.49C232.6,-268.91 232.6,-255.1 232.6,-243.06"/>
<polygon fill="black" stroke="black" points="236.1,-243.06 232.6,-233.06 229.1,-243.06 236.1,-243.06"/>
</g>
<!-- N1 -->
<g id="node6" class="node">
<title>N1</title>
<ellipse fill="none" stroke="black" cx="195.6" cy="-121.79" rx="28.7" ry="28.7"/>
<text text-anchor="middle" x="195.6" y="-118.09" font-family="Times,serif" font-size="14.00">null</text>
</g>
<!-- Marcel Souza,951425568 [fb:0]&#45;&gt;N1 -->
<g id="edge5" class="edge">
<title>Marcel Souza,951425568 [fb:0]&#45;&gt;N1</title>
<path fill="none" stroke="black" d="M225.64,-196.83C221.19,-185.87 215.26,-171.26 209.85,-157.92"/>
<polygon fill="black" stroke="black" points="213.03,-156.44 206.02,-148.49 206.54,-159.07 213.03,-156.44"/>
</g>
<!-- N2 -->
<g id="node7" class="node">
<title>N2</title>
<ellipse fill="none" stroke="black" cx="270.6" cy="-121.79" rx="28.7" ry="28.7"/>
<text text-anchor="middle" x="270.6" y="-118.09" font-family="Times,serif" font-size="14.00">null</text>
</g>
<!-- Marcel Souza,951425568 [fb:0]&#45;&gt;N2 -->
<g id="edge6" class="edge">
<title>Marcel Souza,951425568 [fb:0]&#45;&gt;N2</title>
<path fill="none" stroke="black" d="M239.74,-196.83C244.31,-185.87 250.4,-171.26 255.96,-157.92"/>
<polygon fill="black" stroke="black" points="259.27,-159.07 259.89,-148.49 252.81,-156.38 259.27,-159.07"/>
</g>
<!-- Márcio Coelho,958939859 [fb:0] -->
<g id="node9" class="node">
<title>Márcio Coelho,958939859 [fb:0]</title>
<ellipse fill="none" stroke="black" cx="568.6" cy="-214.99" rx="161.37" ry="18"/>
<text text-anchor="middle" x="568.6" y="-211.29" font-family="Times,serif" font-size="14.00">Márcio Coelho,958939859 [fb:0]</text>
</g>
<!-- Marcel Torres,961020719 [fb:1]&#45;&gt;Márcio Coelho,958939859 [fb:0] -->
<g id="edge8" class="edge">
<title>Marcel Torres,961020719 [fb:1]&#45;&gt;Márcio Coelho,958939859 [fb:0]</title>
<path fill="none" stroke="black" d="M696.24,-279.88C671.52,-267.51 637.65,-250.55 611.01,-237.22"/>
<polygon fill="black" stroke="black" points="612.42,-234.01 601.91,-232.67 609.29,-240.27 612.42,-234.01"/>
</g>
<!-- Marcel Silva,962499508 [fb:1] -->
<g id="node12" class="node">
<title>Marcel Silva,962499508 [fb:1]</title>
<ellipse fill="none" stroke="black" cx="899.6" cy="-214.99" rx="152.17" ry="18"/>
<text text-anchor="middle" x="899.6" y="-211.29" font-family="Times,serif" font-size="14.00">Marcel Silva,962499508 [fb:1]</text>
</g>
<!-- Marcel Torres,961020719 [fb:1]&#45;&gt;Marcel Silva,962499508 [fb:1] -->
<g id="edge11" class="edge">
<title>Marcel Torres,961020719 [fb:1]&#45;&gt;Marcel Silva,962499508 [fb:1]</title>
<path fill="none" stroke="black" d="M764.82,-279.88C791.12,-267.42 827.24,-250.29 855.47,-236.91"/>
<polygon fill="black" stroke="black" points="857.17,-239.97 864.71,-232.53 854.17,-233.65 857.17,-239.97"/>
</g>
<!-- N3 -->
<g id="node10" class="node">
<title>N3</title>
<ellipse fill="none" stroke="black" cx="517.6" cy="-121.79" rx="28.7" ry="28.7"/>
<text text-anchor="middle" x="517.6" y="-118.09" font-family="Times,serif" font-size="14.00">null</text>
</g>
<!-- Márcio Coelho,958939859 [fb:0]&#45;&gt;N3 -->
<g id="edge9" class="edge">
<title>Márcio Coelho,958939859 [fb:0]&#45;&gt;N3</title>
<path fill="none" stroke="black" d="M559,-196.83C552.57,-185.32 543.88,-169.78 536.12,-155.91"/>
<polygon fill="black" stroke="black" points="539.12,-154.12 531.19,-147.1 533.02,-157.53 539.12,-154.12"/>
</g>
<!-- N4 -->
<g id="node11" class="node">
<title>N4</title>
<ellipse fill="none" stroke="black" cx="592.6" cy="-121.79" rx="28.7" ry="28.7"/>
<text text-anchor="middle" x="592.6" y="-118.09" font-family="Times,serif" font-size="14.00">null</text>
</g>
<!-- Márcio Coelho,958939859 [fb:0]&#45;&gt;N4 -->
<g id="edge10" class="edge">
<title>Márcio Coelho,958939859 [fb:0]&#45;&gt;N4</title>
<path fill="none" stroke="black" d="M573.11,-196.83C575.88,-186.33 579.52,-172.47 582.91,-159.59"/>
<polygon fill="black" stroke="black" points="586.39,-160.11 585.56,-149.55 579.63,-158.33 586.39,-160.11"/>
</g>
<!-- N5 -->
<g id="node13" class="node">
<title>N5</title>
<ellipse fill="none" stroke="black" cx="694.6" cy="-121.79" rx="28.7" ry="28.7"/>
<text text-anchor="middle" x="694.6" y="-118.09" font-family="Times,serif" font-size="14.00">null</text>
</g>
<!-- Marcel Silva,962499508 [fb:1]&#45;&gt;N5 -->
<g id="edge12" class="edge">
<title>Marcel Silva,962499508 [fb:1]&#45;&gt;N5</title>
<path fill="none" stroke="black" d="M847.25,-198.03C813.53,-186.8 769.3,-170.25 732.6,-150.39 730.28,-149.13 727.93,-147.75 725.61,-146.3"/>
<polygon fill="black" stroke="black" points="727.12,-143.1 716.86,-140.45 723.23,-148.92 727.12,-143.1"/>
</g>
<!-- Márcio Santos,964181224 [fb:0] -->
<g id="node14" class="node">
<title>Márcio Santos,964181224 [fb:0]</title>
<ellipse fill="none" stroke="black" cx="902.6" cy="-121.79" rx="161.37" ry="18"/>
<text text-anchor="middle" x="902.6" y="-118.09" font-family="Times,serif" font-size="14.00">Márcio Santos,964181224 [fb:0]</text>
</g>
<!-- Marcel Silva,962499508 [fb:1]&#45;&gt;Márcio Santos,964181224 [fb:0] -->
<g id="edge13" class="edge">
<title>Marcel Silva,962499508 [fb:1]&#45;&gt;Márcio Santos,964181224 [fb:0]</title>
<path fill="none" stroke="black" d="M900.16,-196.83C900.59,-183.71 901.2,-165.36 901.7,-150.21"/>
<polygon fill="black" stroke="black" points="905.2,-149.98 902.04,-139.87 898.21,-149.75 905.2,-149.98"/>
</g>
<!-- N6 -->
<g id="node15" class="node">
<title>N6</title>
<ellipse fill="none" stroke="black" cx="864.6" cy="-28.6" rx="28.7" ry="28.7"/>
<text text-anchor="middle" x="864.6" y="-24.9" font-family="Times,serif" font-size="14.00">null</text>
</g>
<!-- Márcio Santos,964181224 [fb:0]&#45;&gt;N6 -->
<g id="edge14" class="edge">
<title>Márcio Santos,964181224 [fb:0]&#45;&gt;N6</title>
<path fill="none" stroke="black" d="M895.45,-103.64C890.88,-92.68 884.79,-78.07 879.23,-64.72"/>
<polygon fill="black" stroke="black" points="882.38,-63.18 875.31,-55.3 875.92,-65.87 882.38,-63.18"/>
</g>
<!-- N7 -->
<g id="node16" class="node">
<title>N7</title>
<ellipse fill="none" stroke="black" cx="939.6" cy="-28.6" rx="28.7" ry="28.7"/>
<text text-anchor="middle" x="939.6" y="-24.9" font-family="Times,serif" font-size="14.00">null</text>
</g>
<!-- Márcio Santos,964181224 [fb:0]&#45;&gt;N7 -->
<g id="edge15" class="edge">
<title>Márcio Santos,964181224 [fb:0]&#45;&gt;N7</title>
<path fill="none" stroke="black" d="M909.56,-103.64C914,-92.68 919.93,-78.07 925.35,-64.72"/>
<polygon fill="black" stroke="black" points="928.65,-65.88 929.17,-55.3 922.17,-63.25 928.65,-65.88"/>
</g>
<!-- Márcio Moura,975279080 [fb:&#45;1] -->
<g id="node18" class="node">
<title>Márcio Moura,975279080 [fb:&#45;1]</title>
<ellipse fill="none" stroke="black" cx="1402.6" cy="-297.58" rx="162.47" ry="18"/>
<text text-anchor="middle" x="1402.6" y="-293.88" font-family="Times,serif" font-size="14.00">Márcio Moura,975279080 [fb:&#45;1]</text>
</g>
<!-- Márcio Porto,979688182 [fb:0]&#45;&gt;Márcio Moura,975279080 [fb:&#45;1] -->
<g id="edge17" class="edge">
<title>Márcio Porto,979688182 [fb:0]&#45;&gt;Márcio Moura,975279080 [fb:&#45;1]</title>
<path fill="none" stroke="black" d="M1402.6,-351.28C1402.6,-343.57 1402.6,-334.3 1402.6,-325.7"/>
<polygon fill="black" stroke="black" points="1406.1,-325.69 1402.6,-315.69 1399.1,-325.69 1406.1,-325.69"/>
</g>
<!-- Márcio Porto,989927453 [fb:0] -->
<g id="node27" class="node">
<title>Márcio Porto,989927453 [fb:0]</title>
<ellipse fill="none" stroke="black" cx="1923.6" cy="-297.58" rx="154.07" ry="18"/>
<text text-anchor="middle" x="1923.6" y="-293.88" font-family="Times,serif" font-size="14.00">Márcio Porto,989927453 [fb:0]</text>
</g>
<!-- Márcio Porto,979688182 [fb:0]&#45;&gt;Márcio Porto,989927453 [fb:0] -->
<g id="edge26" class="edge">
<title>Márcio Porto,979688182 [fb:0]&#45;&gt;Márcio Porto,989927453 [fb:0]</title>
<path fill="none" stroke="black" d="M1499.68,-355.54C1589.72,-343.44 1723.46,-325.47 1816.56,-312.97"/>
<polygon fill="black" stroke="black" points="1817.13,-316.42 1826.57,-311.62 1816.2,-309.48 1817.13,-316.42"/>
</g>
<!-- Márcio Barros,969853543 [fb:1] -->
<g id="node19" class="node">
<title>Márcio Barros,969853543 [fb:1]</title>
<ellipse fill="none" stroke="black" cx="1230.6" cy="-214.99" rx="160.57" ry="18"/>
<text text-anchor="middle" x="1230.6" y="-211.29" font-family="Times,serif" font-size="14.00">Márcio Barros,969853543 [fb:1]</text>
</g>
<!-- Márcio Moura,975279080 [fb:&#45;1]&#45;&gt;Márcio Barros,969853543 [fb:1] -->
<g id="edge18" class="edge">
<title>Márcio Moura,975279080 [fb:&#45;1]&#45;&gt;Márcio Barros,969853543 [fb:1]</title>
<path fill="none" stroke="black" d="M1366.96,-279.88C1340.44,-267.46 1304.05,-250.41 1275.53,-237.04"/>
<polygon fill="black" stroke="black" points="1276.73,-233.74 1266.19,-232.67 1273.76,-240.08 1276.73,-233.74"/>
</g>
<!-- Marcel Campos,979142794 [fb:0] -->
<g id="node24" class="node">
<title>Marcel Campos,979142794 [fb:0]</title>
<ellipse fill="none" stroke="black" cx="1575.6" cy="-214.99" rx="166.27" ry="18"/>
<text text-anchor="middle" x="1575.6" y="-211.29" font-family="Times,serif" font-size="14.00">Marcel Campos,979142794 [fb:0]</text>
</g>
<!-- Márcio Moura,975279080 [fb:&#45;1]&#45;&gt;Marcel Campos,979142794 [fb:0] -->
<g id="edge23" class="edge">
<title>Márcio Moura,975279080 [fb:&#45;1]&#45;&gt;Marcel Campos,979142794 [fb:0]</title>
<path fill="none" stroke="black" d="M1438.44,-279.88C1465.12,-267.46 1501.72,-250.41 1530.4,-237.04"/>
<polygon fill="black" stroke="black" points="1532.21,-240.06 1539.8,-232.67 1529.26,-233.72 1532.21,-240.06"/>
</g>
<!-- N8 -->
<g id="node20" class="node">
<title>N8</title>
<ellipse fill="none" stroke="black" cx="1114.6" cy="-121.79" rx="28.7" ry="28.7"/>
<text text-anchor="middle" x="1114.6" y="-118.09" font-family="Times,serif" font-size="14.00">null</text>
</g>
<!-- Márcio Barros,969853543 [fb:1]&#45;&gt;N8 -->
<g id="edge19" class="edge">
<title>Márcio Barros,969853543 [fb:1]&#45;&gt;N8</title>
<path fill="none" stroke="black" d="M1209.05,-197.05C1190.97,-182.83 1164.94,-162.37 1144.78,-146.52"/>
<polygon fill="black" stroke="black" points="1146.84,-143.69 1136.82,-140.26 1142.52,-149.19 1146.84,-143.69"/>
</g>
<!-- Márcio Barbosa,972426994 [fb:0] -->
<g id="node21" class="node">
<title>Márcio Barbosa,972426994 [fb:0]</title>
<ellipse fill="none" stroke="black" cx="1328.6" cy="-121.79" rx="167.07" ry="18"/>
<text text-anchor="middle" x="1328.6" y="-118.09" font-family="Times,serif" font-size="14.00">Márcio Barbosa,972426994 [fb:0]</text>
</g>
<!-- Márcio Barros,969853543 [fb:1]&#45;&gt;Márcio Barbosa,972426994 [fb:0] -->
<g id="edge20" class="edge">
<title>Márcio Barros,969853543 [fb:1]&#45;&gt;Márcio Barbosa,972426994 [fb:0]</title>
<path fill="none" stroke="black" d="M1249.03,-196.83C1264.22,-182.7 1285.95,-162.48 1302.86,-146.75"/>
<polygon fill="black" stroke="black" points="1305.31,-149.24 1310.25,-139.87 1300.54,-144.12 1305.31,-149.24"/>
</g>
<!-- N9 -->
<g id="node22" class="node">
<title>N9</title>
<ellipse fill="none" stroke="black" cx="1290.6" cy="-28.6" rx="28.7" ry="28.7"/>
<text text-anchor="middle" x="1290.6" y="-24.9" font-family="Times,serif" font-size="14.00">null</text>
</g>
<!-- Márcio Barbosa,972426994 [fb:0]&#45;&gt;N9 -->
<g id="edge21" class="edge">
<title>Márcio Barbosa,972426994 [fb:0]&#45;&gt;N9</title>
<path fill="none" stroke="black" d="M1321.45,-103.64C1316.88,-92.68 1310.79,-78.07 1305.23,-64.72"/>
<polygon fill="black" stroke="black" points="1308.38,-63.18 1301.31,-55.3 1301.92,-65.87 1308.38,-63.18"/>
</g>
<!-- N10 -->
<g id="node23" class="node">
<title>N10</title>
<ellipse fill="none" stroke="black" cx="1365.6" cy="-28.6" rx="28.7" ry="28.7"/>
<text text-anchor="middle" x="1365.6" y="-24.9" font-family="Times,serif" font-size="14.00">null</text>
</g>
<!-- Márcio Barbosa,972426994 [fb:0]&#45;&gt;N10 -->
<g id="edge22" class="edge">
<title>Márcio Barbosa,972426994 [fb:0]&#45;&gt;N10</title>
<path fill="none" stroke="black" d="M1335.56,-103.64C1340,-92.68 1345.93,-78.07 1351.35,-64.72"/>
<polygon fill="black" stroke="black" points="1354.65,-65.88 1355.17,-55.3 1348.17,-63.25 1354.65,-65.88"/>
</g>
<!-- N11 -->
<g id="node25" class="node">
<title>N11</title>
<ellipse fill="none" stroke="black" cx="1555.6" cy="-121.79" rx="28.7" ry="28.7"/>
<text text-anchor="middle" x="1555.6" y="-118.09" font-family="Times,serif" font-size="14.00">null</text>
</g>
<!-- Marcel Campos,979142794 [fb:0]&#45;&gt;N11 -->
<g id="edge24" class="edge">
<title>Marcel Campos,979142794 [fb:0]&#45;&gt;N11</title>
<path fill="none" stroke="black" d="M1571.84,-196.83C1569.55,-186.41 1566.54,-172.69 1563.73,-159.89"/>
<polygon fill="black" stroke="black" points="1567.1,-158.93 1561.54,-149.91 1560.27,-160.42 1567.1,-158.93"/>
</g>
<!-- N12 -->
<g id="node26" class="node">
<title>N12</title>
<ellipse fill="none" stroke="black" cx="1630.6" cy="-121.79" rx="28.7" ry="28.7"/>
<text text-anchor="middle" x="1630.6" y="-118.09" font-family="Times,serif" font-size="14.00">null</text>
</g>
<!-- Marcel Campos,979142794 [fb:0]&#45;&gt;N12 -->
<g id="edge25" class="edge">
<title>Marcel Campos,979142794 [fb:0]&#45;&gt;N12</title>
<path fill="none" stroke="black" d="M1585.94,-196.83C1592.94,-185.24 1602.4,-169.55 1610.81,-155.61"/>
<polygon fill="black" stroke="black" points="1613.98,-157.12 1616.15,-146.75 1607.99,-153.51 1613.98,-157.12"/>
</g>
<!-- Marcel Pereira,981304370 [fb:1] -->
<g id="node28" class="node">
<title>Marcel Pereira,981304370 [fb:1]</title>
<ellipse fill="none" stroke="black" cx="1923.6" cy="-214.99" rx="163.27" ry="18"/>
<text text-anchor="middle" x="1923.6" y="-211.29" font-family="Times,serif" font-size="14.00">Marcel Pereira,981304370 [fb:1]</text>
</g>
<!-- Márcio Porto,989927453 [fb:0]&#45;&gt;Marcel Pereira,981304370 [fb:1] -->
<g id="edge27" class="edge">
<title>Márcio Porto,989927453 [fb:0]&#45;&gt;Marcel Pereira,981304370 [fb:1]</title>
<path fill="none" stroke="black" d="M1923.6,-279.49C1923.6,-268.91 1923.6,-255.1 1923.6,-243.06"/>
<polygon fill="black" stroke="black" points="1927.1,-243.06 1923.6,-233.06 1920.1,-243.06 1927.1,-243.06"/>
</g>
<!-- Marcel Santos,996988455 [fb:0] -->
<g id="node33" class="node">
<title>Marcel Santos,996988455 [fb:0]</title>
<ellipse fill="none" stroke="black" cx="2268.6" cy="-214.99" rx="161.37" ry="18"/>
<text text-anchor="middle" x="2268.6" y="-211.29" font-family="Times,serif" font-size="14.00">Marcel Santos,996988455 [fb:0]</text>
</g>
<!-- Márcio Porto,989927453 [fb:0]&#45;&gt;Marcel Santos,996988455 [fb:0] -->
<g id="edge32" class="edge">
<title>Márcio Porto,989927453 [fb:0]&#45;&gt;Marcel Santos,996988455 [fb:0]</title>
<path fill="none" stroke="black" d="M1989.3,-281.24C2047.27,-267.69 2131.76,-247.95 2192.62,-233.74"/>
<polygon fill="black" stroke="black" points="2193.61,-237.1 2202.55,-231.42 2192.02,-230.28 2193.61,-237.1"/>
</g>
<!-- N13 -->
<g id="node29" class="node">
<title>N13</title>
<ellipse fill="none" stroke="black" cx="1711.6" cy="-121.79" rx="28.7" ry="28.7"/>
<text text-anchor="middle" x="1711.6" y="-118.09" font-family="Times,serif" font-size="14.00">null</text>
</g>
<!-- Marcel Pereira,981304370 [fb:1]&#45;&gt;N13 -->
<g id="edge28" class="edge">
<title>Marcel Pereira,981304370 [fb:1]&#45;&gt;N13</title>
<path fill="none" stroke="black" d="M1867.03,-198.06C1831.85,-187.05 1786.29,-170.73 1748.6,-150.39 1746.31,-149.16 1744.02,-147.8 1741.74,-146.36"/>
<polygon fill="black" stroke="black" points="1743.43,-143.27 1733.2,-140.54 1739.49,-149.06 1743.43,-143.27"/>
</g>
<!-- Marcel Martins,987782308 [fb:0] -->
<g id="node30" class="node">
<title>Marcel Martins,987782308 [fb:0]</title>
<ellipse fill="none" stroke="black" cx="1923.6" cy="-121.79" rx="165.97" ry="18"/>
<text text-anchor="middle" x="1923.6" y="-118.09" font-family="Times,serif" font-size="14.00">Marcel Martins,987782308 [fb:0]</text>
</g>
<!-- Marcel Pereira,981304370 [fb:1]&#45;&gt;Marcel Martins,987782308 [fb:0] -->
<g id="edge29" class="edge">
<title>Marcel Pereira,981304370 [fb:1]&#45;&gt;Marcel Martins,987782308 [fb:0]</title>
<path fill="none" stroke="black" d="M1923.6,-196.83C1923.6,-183.71 1923.6,-165.36 1923.6,-150.21"/>
<polygon fill="black" stroke="black" points="1927.1,-149.87 1923.6,-139.87 1920.1,-149.87 1927.1,-149.87"/>
</g>
<!-- N14 -->
<g id="node31" class="node">
<title>N14</title>
<ellipse fill="none" stroke="black" cx="1885.6" cy="-28.6" rx="28.7" ry="28.7"/>
<text text-anchor="middle" x="1885.6" y="-24.9" font-family="Times,serif" font-size="14.00">null</text>
</g>
<!-- Marcel Martins,987782308 [fb:0]&#45;&gt;N14 -->
<g id="edge30" class="edge">
<title>Marcel Martins,987782308 [fb:0]&#45;&gt;N14</title>
<path fill="none" stroke="black" d="M1916.45,-103.64C1911.88,-92.68 1905.79,-78.07 1900.23,-64.72"/>
<polygon fill="black" stroke="black" points="1903.38,-63.18 1896.31,-55.3 1896.92,-65.87 1903.38,-63.18"/>
</g>
<!-- N15 -->
<g id="node32" class="node">
<title>N15</title>
<ellipse fill="none" stroke="black" cx="1960.6" cy="-28.6" rx="28.7" ry="28.7"/>
<text text-anchor="middle" x="1960.6" y="-24.9" font-family="Times,serif" font-size="14.00">null</text>
</g>
<!-- Marcel Martins,987782308 [fb:0]&#45;&gt;N15 -->
<g id="edge31" class="edge">
<title>Marcel Martins,987782308 [fb:0]&#45;&gt;N15</title>
<path fill="none" stroke="black" d="M1930.56,-103.64C1935,-92.68 1940.93,-78.07 1946.35,-64.72"/>
<polygon fill="black" stroke="black" points="1949.65,-65.88 1950.17,-55.3 1943.17,-63.25 1949.65,-65.88"/>
</g>
<!-- Marcel Coelho,992167539 [fb:0] -->
<g id="node34" class="node">
<title>Marcel Coelho,992167539 [fb:0]</title>
<ellipse fill="none" stroke="black" cx="2268.6" cy="-121.79" rx="161.37" ry="18"/>
<text text-anchor="middle" x="2268.6" y="-118.09" font-family="Times,serif" font-size="14.00">Marcel Coelho,992167539 [fb:0]</text>
</g>
<!-- Marcel Santos,996988455 [fb:0]&#45;&gt;Marcel Coelho,992167539 [fb:0] -->
<g id="edge33" class="edge">
<title>Marcel Santos,996988455 [fb:0]&#45;&gt;Marcel Coelho,992167539 [fb:0]</title>
<path fill="none" stroke="black" d="M2268.6,-196.83C2268.6,-183.71 2268.6,-165.36 2268.6,-150.21"/>
<polygon fill="black" stroke="black" points="2272.1,-149.87 2268.6,-139.87 2265.1,-149.87 2272.1,-149.87"/>
</g>
<!-- Márcio Alves,999529510 [fb:0] -->
<g id="node37" class="node">
<title>Márcio Alves,999529510 [fb:0]</title>
<ellipse fill="none" stroke="black" cx="2601.6" cy="-121.79" rx="154.07" ry="18"/>
<text text-anchor="middle" x="2601.6" y="-118.09" font-family="Times,serif" font-size="14.00">Márcio Alves,999529510 [fb:0]</text>
</g>
<!-- Marcel Santos,996988455 [fb:0]&#45;&gt;Márcio Alves,999529510 [fb:0] -->
<g id="edge36" class="edge">
<title>Marcel Santos,996988455 [fb:0]&#45;&gt;Márcio Alves,999529510 [fb:0]</title>
<path fill="none" stroke="black" d="M2326.6,-198.1C2384.41,-182.27 2473.13,-157.98 2534.07,-141.29"/>
<polygon fill="black" stroke="black" points="2535.26,-144.59 2543.98,-138.57 2533.41,-137.84 2535.26,-144.59"/>
</g>
<!-- N16 -->
<g id="node35" class="node">
<title>N16</title>
<ellipse fill="none" stroke="black" cx="2230.6" cy="-28.6" rx="28.7" ry="28.7"/>
<text text-anchor="middle" x="2230.6" y="-24.9" font-family="Times,serif" font-size="14.00">null</text>
</g>
<!-- Marcel Coelho,992167539 [fb:0]&#45;&gt;N16 -->
<g id="edge34" class="edge">
<title>Marcel Coelho,992167539 [fb:0]&#45;&gt;N16</title>
<path fill="none" stroke="black" d="M2261.45,-103.64C2256.88,-92.68 2250.79,-78.07 2245.23,-64.72"/>
<polygon fill="black" stroke="black" points="2248.38,-63.18 2241.31,-55.3 2241.92,-65.87 2248.38,-63.18"/>
</g>
<!-- N17 -->
<g id="node36" class="node">
<title>N17</title>
<ellipse fill="none" stroke="black" cx="2305.6" cy="-28.6" rx="28.7" ry="28.7"/>
<text text-anchor="middle" x="2305.6" y="-24.9" font-family="Times,serif" font-size="14.00">null</text>
</g>
<!-- Marcel Coelho,992167539 [fb:0]&#45;&gt;N17 -->
<g id="edge35" class="edge">
<title>Marcel Coelho,992167539 [fb:0]&#45;&gt;N17</title>
<path fill="none" stroke="black" d="M2275.56,-103.64C2280,-92.68 2285.93,-78.07 2291.35,-64.72"/>
<polygon fill="black" stroke="black" points="2294.65,-65.88 2295.17,-55.3 2288.17,-63.25 2294.65,-65.88"/>
</g>
<!-- N18 -->
<g id="node38" class="node">
<title>N18</title>
<ellipse fill="none" stroke="black" cx="2563.6" cy="-28.6" rx="28.7" ry="28.7"/>
<text text-anchor="middle" x="2563.6" y="-24.9" font-family="Times,serif" font-size="14.00">null</text>
</g>
<!-- Márcio Alves,999529510 [fb:0]&#45;&gt;N18 -->
<g id="edge37" class="edge">
<title>Márcio Alves,999529510 [fb:0]&#45;&gt;N18</title>
<path fill="none" stroke="black" d="M2594.45,-103.64C2589.88,-92.68 2583.79,-78.07 2578.23,-64.72"/>
<polygon fill="black" stroke="black" points="2581.38,-63.18 2574.31,-55.3 2574.92,-65.87 2581.38,-63.18"/>
</g>
<!-- N19 -->
<g id="node39" class="node">
<title>N19</title>
<ellipse fill="none" stroke="black" cx="2638.6" cy="-28.6" rx="28.7" ry="28.7"/>
<text text-anchor="middle" x="2638.6" y="-24.9" font-family="Times,serif" font-size="14.00">null</text>
</g>
<!-- Márcio Alves,999529510 [fb:0]&#45;&gt;N19 -->
<g id="edge38" class="edge">
<title>Márcio Alves,999529510 [fb:0]&#45;&gt;N19</title>
<path fill="none" stroke="black" d="M2608.56,-103.64C2613,-92.68 2618.93,-78.07 2624.35,-64.72"/>
<polygon fill="black" stroke="black" points="2627.65,-65.88 2628.17,-55.3 2621.17,-63.25 2627.65,-65.88"/>
</g>
</g>
</svg>
