<?xml version="1.0" encoding="UTF-8" standalone="no"?>
<!DOCTYPE svg PUBLIC "-//W3C//DTD SVG 1.1//EN"
 "http://www.w3.org/Graphics/SVG/1.1/DTD/svg11.dtd">
<!-- Generated by graphviz version 2.43.0 (0)
 -->
<!-- Title: BST Pages: 1 -->
<svg width="1264pt" height="116pt"
 viewBox="0.00 0.00 1264.12 116.00" xmlns="http://www.w3.org/2000/svg" xmlns:xlink="http://www.w3.org/1999/xlink">
<g id="graph0" class="graph" transform="scale(1 1) rotate(0) translate(4 112)">
<title>BST</title>
<polygon fill="white" stroke="transparent" points="-4,4 -4,-112 1260.12,-112 1260.12,4 -4,4"/>
<!-- Yago Coelho,970946418 -->
<g id="node1" class="node">
<title>Yago Coelho,970946418</title>
<ellipse fill="none" stroke="black" cx="309.54" cy="-90" rx="122.68" ry="18"/>
<text text-anchor="middle" x="309.54" y="-86.3" font-family="Times,serif" font-size="14.00">Yago Coelho,970946418</text>
</g>
<!-- Yago Farias,953720569 [fb:1] -->
<g id="node2" class="node">
<title>Yago Farias,953720569 [fb:1]</title>
<ellipse fill="none" stroke="black" cx="147.54" cy="-18" rx="147.57" ry="18"/>
<text text-anchor="middle" x="147.54" y="-14.3" font-family="Times,serif" font-size="14.00">Yago Farias,953720569 [fb:1]</text>
</g>
<!-- Yago Coelho,970946418&#45;&gt;Yago Farias,953720569 [fb:1] -->
<g id="edge1" class="edge">
<title>Yago Coelho,970946418&#45;&gt;Yago Farias,953720569 [fb:1]</title>
<path fill="none" stroke="black" d="M271.96,-72.76C249.11,-62.89 219.7,-50.18 195.21,-39.6"/>
<polygon fill="black" stroke="black" points="196.32,-36.27 185.75,-35.51 193.54,-42.69 196.32,-36.27"/>
</g>
<!-- Yago Barbosa,976786212 [fb:1] -->
<g id="node3" class="node">
<title>Yago Barbosa,976786212 [fb:1]</title>
<ellipse fill="none" stroke="black" cx="470.54" cy="-18" rx="157.07" ry="18"/>
<text text-anchor="middle" x="470.54" y="-14.3" font-family="Times,serif" font-size="14.00">Yago Barbosa,976786212 [fb:1]</text>
</g>
<!-- Yago Coelho,970946418&#45;&gt;Yago Barbosa,976786212 [fb:1] -->
<g id="edge2" class="edge">
<title>Yago Coelho,970946418&#45;&gt;Yago Barbosa,976786212 [fb:1]</title>
<path fill="none" stroke="black" d="M346.88,-72.76C369.59,-62.89 398.82,-50.18 423.15,-39.6"/>
<polygon fill="black" stroke="black" points="424.79,-42.71 432.56,-35.51 421.99,-36.29 424.79,-42.71"/>
</g>
<!-- Yago Barbosa,976786212 -->
<g id="node4" class="node">
<title>Yago Barbosa,976786212</title>
<ellipse fill="none" stroke="black" cx="796.54" cy="-90" rx="129.18" ry="18"/>
<text text-anchor="middle" x="796.54" y="-86.3" font-family="Times,serif" font-size="14.00">Yago Barbosa,976786212</text>
</g>
<!-- Yago Santos,980740362 [fb:1] -->
<g id="node5" class="node">
<title>Yago Santos,980740362 [fb:1]</title>
<ellipse fill="none" stroke="black" cx="796.54" cy="-18" rx="150.57" ry="18"/>
<text text-anchor="middle" x="796.54" y="-14.3" font-family="Times,serif" font-size="14.00">Yago Santos,980740362 [fb:1]</text>
</g>
<!-- Yago Barbosa,976786212&#45;&gt;Yago Santos,980740362 [fb:1] -->
<g id="edge3" class="edge">
<title>Yago Barbosa,976786212&#45;&gt;Yago Santos,980740362 [fb:1]</title>
<path fill="none" stroke="black" d="M796.54,-71.7C796.54,-63.98 796.54,-54.71 796.54,-46.11"/>
<polygon fill="black" stroke="black" points="800.04,-46.1 796.54,-36.1 793.04,-46.1 800.04,-46.1"/>
</g>
<!-- Yago Santos,980740362 -->
<g id="node6" class="node">
<title>Yago Santos,980740362</title>
<ellipse fill="none" stroke="black" cx="1110.54" cy="-90" rx="122.68" ry="18"/>
<text text-anchor="middle" x="1110.54" y="-86.3" font-family="Times,serif" font-size="14.00">Yago Santos,980740362</text>
</g>
<!-- Yago Costa,994390255 [fb:1] -->
<g id="node7" class="node">
<title>Yago Costa,994390255 [fb:1]</title>
<ellipse fill="none" stroke="black" cx="1110.54" cy="-18" rx="145.67" ry="18"/>
<text text-anchor="middle" x="1110.54" y="-14.3" font-family="Times,serif" font-size="14.00">Yago Costa,994390255 [fb:1]</text>
</g>
<!-- Yago Santos,980740362&#45;&gt;Yago Costa,994390255 [fb:1] -->
<g id="edge4" class="edge">
<title>Yago Santos,980740362&#45;&gt;Yago Costa,994390255 [fb:1]</title>
<path fill="none" stroke="black" d="M1110.54,-71.7C1110.54,-63.98 1110.54,-54.71 1110.54,-46.11"/>
<polygon fill="black" stroke="black" points="1114.04,-46.1 1110.54,-36.1 1107.04,-46.1 1114.04,-46.1"/>
</g>
</g>
</svg>
