<?xml version="1.0" encoding="UTF-8" standalone="no"?>
<!DOCTYPE svg PUBLIC "-//W3C//DTD SVG 1.1//EN"
 "http://www.w3.org/Graphics/SVG/1.1/DTD/svg11.dtd">
<!-- Generated by graphviz version 2.43.0 (0)
 -->
<!-- Title: BST Pages: 1 -->
<svg width="1451pt" height="496pt"
 viewBox="0.00 0.00 1450.91 495.81" xmlns="http://www.w3.org/2000/svg" xmlns:xlink="http://www.w3.org/1999/xlink">
<g id="graph0" class="graph" transform="scale(1 1) rotate(0) translate(4 491.81)">
<title>BST</title>
<polygon fill="white" stroke="transparent" points="-4,4 -4,-491.81 1446.91,-491.81 1446.91,4 -4,4"/>
<!-- No_982632579 -->
<g id="node1" class="node">
<title>No_982632579</title>
<ellipse fill="none" stroke="black" cx="658.95" cy="-450.34" rx="69.09" ry="37.45"/>
<text text-anchor="middle" x="658.95" y="-461.64" font-family="Times,serif" font-size="14.00">Abel Costa</text>
<text text-anchor="middle" x="658.95" y="-446.64" font-family="Times,serif" font-size="14.00">982632579</text>
<text text-anchor="middle" x="658.95" y="-431.64" font-family="Times,serif" font-size="14.00">fb=1</text>
</g>
<!-- No_964642705 -->
<g id="node2" class="node">
<title>No_964642705</title>
<ellipse fill="none" stroke="black" cx="550.95" cy="-339.38" rx="78.48" ry="37.45"/>
<text text-anchor="middle" x="550.95" y="-350.68" font-family="Times,serif" font-size="14.00">Alícia Freitas</text>
<text text-anchor="middle" x="550.95" y="-335.68" font-family="Times,serif" font-size="14.00">964642705</text>
<text text-anchor="middle" x="550.95" y="-320.68" font-family="Times,serif" font-size="14.00">fb=0</text>
</g>
<!-- No_982632579&#45;&gt;No_964642705 -->
<g id="edge1" class="edge">
<title>No_982632579&#45;&gt;No_964642705</title>
<path fill="none" stroke="black" d="M626.84,-416.94C615.62,-405.62 602.87,-392.76 591.08,-380.86"/>
<polygon fill="black" stroke="black" points="593.4,-378.23 583.88,-373.6 588.43,-383.16 593.4,-378.23"/>
</g>
<!-- No_987671978 -->
<g id="node17" class="node">
<title>No_987671978</title>
<ellipse fill="none" stroke="black" cx="814.95" cy="-339.38" rx="90.52" ry="37.45"/>
<text text-anchor="middle" x="814.95" y="-350.68" font-family="Times,serif" font-size="14.00">Adriana Pereira</text>
<text text-anchor="middle" x="814.95" y="-335.68" font-family="Times,serif" font-size="14.00">987671978</text>
<text text-anchor="middle" x="814.95" y="-320.68" font-family="Times,serif" font-size="14.00">fb=0</text>
</g>
<!-- No_982632579&#45;&gt;No_987671978 -->
<g id="edge16" class="edge">
<title>No_982632579&#45;&gt;No_987671978</title>
<path fill="none" stroke="black" d="M700.76,-420.14C719.4,-407.12 741.57,-391.63 761.41,-377.78"/>
<polygon fill="black" stroke="black" points="763.55,-380.55 769.75,-371.96 759.54,-374.81 763.55,-380.55"/>
</g>
<!-- No_960933788 -->
<g id="node3" class="node">
<title>No_960933788</title>
<ellipse fill="none" stroke="black" cx="253.95" cy="-228.43" rx="92.76" ry="37.45"/>
<text text-anchor="middle" x="253.95" y="-239.73" font-family="Times,serif" font-size="14.00">Alberto Campos</text>
<text text-anchor="middle" x="253.95" y="-224.73" font-family="Times,serif" font-size="14.00">960933788</text>
<text text-anchor="middle" x="253.95" y="-209.73" font-family="Times,serif" font-size="14.00">fb=0</text>
</g>
<!-- No_964642705&#45;&gt;No_960933788 -->
<g id="edge2" class="edge">
<title>No_964642705&#45;&gt;No_960933788</title>
<path fill="none" stroke="black" d="M489.41,-315.81C443.46,-298.95 380.35,-275.8 331.03,-257.71"/>
<polygon fill="black" stroke="black" points="331.96,-254.32 321.36,-254.16 329.55,-260.89 331.96,-254.32"/>
</g>
<!-- No_967387182 -->
<g id="node10" class="node">
<title>No_967387182</title>
<ellipse fill="none" stroke="black" cx="550.95" cy="-228.43" rx="91.43" ry="37.45"/>
<text text-anchor="middle" x="550.95" y="-239.73" font-family="Times,serif" font-size="14.00">Alfredo Martins</text>
<text text-anchor="middle" x="550.95" y="-224.73" font-family="Times,serif" font-size="14.00">967387182</text>
<text text-anchor="middle" x="550.95" y="-209.73" font-family="Times,serif" font-size="14.00">fb=0</text>
</g>
<!-- No_964642705&#45;&gt;No_967387182 -->
<g id="edge9" class="edge">
<title>No_964642705&#45;&gt;No_967387182</title>
<path fill="none" stroke="black" d="M550.95,-301.8C550.95,-293.63 550.95,-284.85 550.95,-276.32"/>
<polygon fill="black" stroke="black" points="554.45,-276.1 550.95,-266.1 547.45,-276.1 554.45,-276.1"/>
</g>
<!-- No_955838599 -->
<g id="node4" class="node">
<title>No_955838599</title>
<ellipse fill="none" stroke="black" cx="74.95" cy="-117.48" rx="74.91" ry="37.45"/>
<text text-anchor="middle" x="74.95" y="-128.78" font-family="Times,serif" font-size="14.00">Aline Santos</text>
<text text-anchor="middle" x="74.95" y="-113.78" font-family="Times,serif" font-size="14.00">955838599</text>
<text text-anchor="middle" x="74.95" y="-98.78" font-family="Times,serif" font-size="14.00">fb=0</text>
</g>
<!-- No_960933788&#45;&gt;No_955838599 -->
<g id="edge3" class="edge">
<title>No_960933788&#45;&gt;No_955838599</title>
<path fill="none" stroke="black" d="M203.62,-196.79C180.88,-182.95 153.94,-166.55 130.6,-152.35"/>
<polygon fill="black" stroke="black" points="132.21,-149.23 121.84,-147.02 128.57,-155.21 132.21,-149.23"/>
</g>
<!-- No_960933790 -->
<g id="node7" class="node">
<title>No_960933790</title>
<ellipse fill="none" stroke="black" cx="253.95" cy="-117.48" rx="85.62" ry="37.45"/>
<text text-anchor="middle" x="253.95" y="-128.78" font-family="Times,serif" font-size="14.00">Andrea Santos</text>
<text text-anchor="middle" x="253.95" y="-113.78" font-family="Times,serif" font-size="14.00">960933790</text>
<text text-anchor="middle" x="253.95" y="-98.78" font-family="Times,serif" font-size="14.00">fb=0</text>
</g>
<!-- No_960933788&#45;&gt;No_960933790 -->
<g id="edge6" class="edge">
<title>No_960933788&#45;&gt;No_960933790</title>
<path fill="none" stroke="black" d="M253.95,-190.85C253.95,-182.67 253.95,-173.89 253.95,-165.37"/>
<polygon fill="black" stroke="black" points="257.45,-165.15 253.95,-155.15 250.45,-165.15 257.45,-165.15"/>
</g>
<!-- NUL_0 -->
<g id="node5" class="node">
<title>NUL_0</title>
<polygon fill="none" stroke="black" points="65.95,-44 21.95,-44 21.95,0 65.95,0 65.95,-44"/>
<text text-anchor="middle" x="43.95" y="-18.3" font-family="Times,serif" font-size="14.00">null</text>
</g>
<!-- No_955838599&#45;&gt;NUL_0 -->
<g id="edge4" class="edge">
<title>No_955838599&#45;&gt;NUL_0</title>
<path fill="none" stroke="black" d="M62.97,-80.34C60.05,-71.55 56.96,-62.23 54.14,-53.72"/>
<polygon fill="black" stroke="black" points="57.45,-52.57 50.98,-44.18 50.8,-54.77 57.45,-52.57"/>
</g>
<!-- NUL_1 -->
<g id="node6" class="node">
<title>NUL_1</title>
<polygon fill="none" stroke="black" points="127.95,-44 83.95,-44 83.95,0 127.95,0 127.95,-44"/>
<text text-anchor="middle" x="105.95" y="-18.3" font-family="Times,serif" font-size="14.00">null</text>
</g>
<!-- No_955838599&#45;&gt;NUL_1 -->
<g id="edge5" class="edge">
<title>No_955838599&#45;&gt;NUL_1</title>
<path fill="none" stroke="black" d="M86.94,-80.34C89.85,-71.55 92.94,-62.23 95.77,-53.72"/>
<polygon fill="black" stroke="black" points="99.1,-54.77 98.93,-44.18 92.46,-52.57 99.1,-54.77"/>
</g>
<!-- NUL_2 -->
<g id="node8" class="node">
<title>NUL_2</title>
<polygon fill="none" stroke="black" points="258.95,-44 214.95,-44 214.95,0 258.95,0 258.95,-44"/>
<text text-anchor="middle" x="236.95" y="-18.3" font-family="Times,serif" font-size="14.00">null</text>
</g>
<!-- No_960933790&#45;&gt;NUL_2 -->
<g id="edge7" class="edge">
<title>No_960933790&#45;&gt;NUL_2</title>
<path fill="none" stroke="black" d="M247.33,-80.07C245.77,-71.49 244.12,-62.42 242.61,-54.1"/>
<polygon fill="black" stroke="black" points="246.02,-53.27 240.78,-44.06 239.13,-54.52 246.02,-53.27"/>
</g>
<!-- NUL_3 -->
<g id="node9" class="node">
<title>NUL_3</title>
<polygon fill="none" stroke="black" points="320.95,-44 276.95,-44 276.95,0 320.95,0 320.95,-44"/>
<text text-anchor="middle" x="298.95" y="-18.3" font-family="Times,serif" font-size="14.00">null</text>
</g>
<!-- No_960933790&#45;&gt;NUL_3 -->
<g id="edge8" class="edge">
<title>No_960933790&#45;&gt;NUL_3</title>
<path fill="none" stroke="black" d="M271.22,-80.6C275.59,-71.53 280.24,-61.88 284.45,-53.12"/>
<polygon fill="black" stroke="black" points="287.64,-54.56 288.83,-44.04 281.34,-51.53 287.64,-54.56"/>
</g>
<!-- No_965115082 -->
<g id="node11" class="node">
<title>No_965115082</title>
<ellipse fill="none" stroke="black" cx="432.95" cy="-117.48" rx="75.82" ry="37.45"/>
<text text-anchor="middle" x="432.95" y="-128.78" font-family="Times,serif" font-size="14.00">Ana Barbosa</text>
<text text-anchor="middle" x="432.95" y="-113.78" font-family="Times,serif" font-size="14.00">965115082</text>
<text text-anchor="middle" x="432.95" y="-98.78" font-family="Times,serif" font-size="14.00">fb=0</text>
</g>
<!-- No_967387182&#45;&gt;No_965115082 -->
<g id="edge10" class="edge">
<title>No_967387182&#45;&gt;No_965115082</title>
<path fill="none" stroke="black" d="M514.59,-193.85C502.25,-182.46 488.35,-169.63 475.57,-157.82"/>
<polygon fill="black" stroke="black" points="477.91,-155.22 468.19,-151.01 473.16,-160.37 477.91,-155.22"/>
</g>
<!-- No_975960513 -->
<g id="node14" class="node">
<title>No_975960513</title>
<ellipse fill="none" stroke="black" cx="599.95" cy="-117.48" rx="73.58" ry="37.45"/>
<text text-anchor="middle" x="599.95" y="-128.78" font-family="Times,serif" font-size="14.00">Altair Souza</text>
<text text-anchor="middle" x="599.95" y="-113.78" font-family="Times,serif" font-size="14.00">975960513</text>
<text text-anchor="middle" x="599.95" y="-98.78" font-family="Times,serif" font-size="14.00">fb=0</text>
</g>
<!-- No_967387182&#45;&gt;No_975960513 -->
<g id="edge13" class="edge">
<title>No_967387182&#45;&gt;No_975960513</title>
<path fill="none" stroke="black" d="M567.13,-191.45C571.15,-182.53 575.5,-172.85 579.68,-163.55"/>
<polygon fill="black" stroke="black" points="582.88,-164.97 583.79,-154.42 576.5,-162.1 582.88,-164.97"/>
</g>
<!-- NUL_4 -->
<g id="node12" class="node">
<title>NUL_4</title>
<polygon fill="none" stroke="black" points="409.95,-44 365.95,-44 365.95,0 409.95,0 409.95,-44"/>
<text text-anchor="middle" x="387.95" y="-18.3" font-family="Times,serif" font-size="14.00">null</text>
</g>
<!-- No_965115082&#45;&gt;NUL_4 -->
<g id="edge11" class="edge">
<title>No_965115082&#45;&gt;NUL_4</title>
<path fill="none" stroke="black" d="M415.81,-80.87C411.43,-71.78 406.77,-62.09 402.53,-53.29"/>
<polygon fill="black" stroke="black" points="405.63,-51.65 398.14,-44.16 399.32,-54.69 405.63,-51.65"/>
</g>
<!-- NUL_5 -->
<g id="node13" class="node">
<title>NUL_5</title>
<polygon fill="none" stroke="black" points="471.95,-44 427.95,-44 427.95,0 471.95,0 471.95,-44"/>
<text text-anchor="middle" x="449.95" y="-18.3" font-family="Times,serif" font-size="14.00">null</text>
</g>
<!-- No_965115082&#45;&gt;NUL_5 -->
<g id="edge12" class="edge">
<title>No_965115082&#45;&gt;NUL_5</title>
<path fill="none" stroke="black" d="M439.57,-80.07C441.13,-71.49 442.78,-62.42 444.3,-54.1"/>
<polygon fill="black" stroke="black" points="447.78,-54.52 446.12,-44.06 440.89,-53.27 447.78,-54.52"/>
</g>
<!-- NUL_6 -->
<g id="node15" class="node">
<title>NUL_6</title>
<polygon fill="none" stroke="black" points="580.95,-44 536.95,-44 536.95,0 580.95,0 580.95,-44"/>
<text text-anchor="middle" x="558.95" y="-18.3" font-family="Times,serif" font-size="14.00">null</text>
</g>
<!-- No_975960513&#45;&gt;NUL_6 -->
<g id="edge14" class="edge">
<title>No_975960513&#45;&gt;NUL_6</title>
<path fill="none" stroke="black" d="M584.22,-80.6C580.28,-71.63 576.09,-62.08 572.29,-53.4"/>
<polygon fill="black" stroke="black" points="575.4,-51.79 568.18,-44.04 568.99,-54.6 575.4,-51.79"/>
</g>
<!-- NUL_7 -->
<g id="node16" class="node">
<title>NUL_7</title>
<polygon fill="none" stroke="black" points="642.95,-44 598.95,-44 598.95,0 642.95,0 642.95,-44"/>
<text text-anchor="middle" x="620.95" y="-18.3" font-family="Times,serif" font-size="14.00">null</text>
</g>
<!-- No_975960513&#45;&gt;NUL_7 -->
<g id="edge15" class="edge">
<title>No_975960513&#45;&gt;NUL_7</title>
<path fill="none" stroke="black" d="M608.13,-80.07C610.08,-71.39 612.14,-62.22 614.03,-53.83"/>
<polygon fill="black" stroke="black" points="617.45,-54.58 616.22,-44.06 610.62,-53.05 617.45,-54.58"/>
</g>
<!-- No_986979432 -->
<g id="node18" class="node">
<title>No_986979432</title>
<ellipse fill="none" stroke="black" cx="814.95" cy="-228.43" rx="107.46" ry="37.45"/>
<text text-anchor="middle" x="814.95" y="-239.73" font-family="Times,serif" font-size="14.00">Américo Rodrigues</text>
<text text-anchor="middle" x="814.95" y="-224.73" font-family="Times,serif" font-size="14.00">986979432</text>
<text text-anchor="middle" x="814.95" y="-209.73" font-family="Times,serif" font-size="14.00">fb=&#45;1</text>
</g>
<!-- No_987671978&#45;&gt;No_986979432 -->
<g id="edge17" class="edge">
<title>No_987671978&#45;&gt;No_986979432</title>
<path fill="none" stroke="black" d="M814.95,-301.8C814.95,-293.63 814.95,-284.85 814.95,-276.32"/>
<polygon fill="black" stroke="black" points="818.45,-276.1 814.95,-266.1 811.45,-276.1 818.45,-276.1"/>
</g>
<!-- No_996598918 -->
<g id="node25" class="node">
<title>No_996598918</title>
<ellipse fill="none" stroke="black" cx="1175.95" cy="-228.43" rx="69.09" ry="37.45"/>
<text text-anchor="middle" x="1175.95" y="-239.73" font-family="Times,serif" font-size="14.00">Ana Farias</text>
<text text-anchor="middle" x="1175.95" y="-224.73" font-family="Times,serif" font-size="14.00">996598918</text>
<text text-anchor="middle" x="1175.95" y="-209.73" font-family="Times,serif" font-size="14.00">fb=0</text>
</g>
<!-- No_987671978&#45;&gt;No_996598918 -->
<g id="edge24" class="edge">
<title>No_987671978&#45;&gt;No_996598918</title>
<path fill="none" stroke="black" d="M887.14,-316.6C950.91,-297.35 1043.3,-269.47 1106.3,-250.45"/>
<polygon fill="black" stroke="black" points="1107.58,-253.72 1116.15,-247.48 1105.56,-247.02 1107.58,-253.72"/>
</g>
<!-- No_985278999 -->
<g id="node19" class="node">
<title>No_985278999</title>
<ellipse fill="none" stroke="black" cx="766.95" cy="-117.48" rx="75.82" ry="37.45"/>
<text text-anchor="middle" x="766.95" y="-128.78" font-family="Times,serif" font-size="14.00">Acir Campos</text>
<text text-anchor="middle" x="766.95" y="-113.78" font-family="Times,serif" font-size="14.00">985278999</text>
<text text-anchor="middle" x="766.95" y="-98.78" font-family="Times,serif" font-size="14.00">fb=0</text>
</g>
<!-- No_986979432&#45;&gt;No_985278999 -->
<g id="edge18" class="edge">
<title>No_986979432&#45;&gt;No_985278999</title>
<path fill="none" stroke="black" d="M798.97,-191.15C795.08,-182.33 790.88,-172.79 786.84,-163.61"/>
<polygon fill="black" stroke="black" points="789.94,-161.97 782.7,-154.23 783.53,-164.79 789.94,-161.97"/>
</g>
<!-- No_987340734 -->
<g id="node22" class="node">
<title>No_987340734</title>
<ellipse fill="none" stroke="black" cx="959.95" cy="-117.48" rx="98.99" ry="37.45"/>
<text text-anchor="middle" x="959.95" y="-128.78" font-family="Times,serif" font-size="14.00">Antônia Machado</text>
<text text-anchor="middle" x="959.95" y="-113.78" font-family="Times,serif" font-size="14.00">987340734</text>
<text text-anchor="middle" x="959.95" y="-98.78" font-family="Times,serif" font-size="14.00">fb=0</text>
</g>
<!-- No_986979432&#45;&gt;No_987340734 -->
<g id="edge21" class="edge">
<title>No_986979432&#45;&gt;No_987340734</title>
<path fill="none" stroke="black" d="M859.25,-194.15C874.71,-182.53 892.2,-169.39 908.21,-157.36"/>
<polygon fill="black" stroke="black" points="910.54,-159.99 916.43,-151.18 906.33,-154.39 910.54,-159.99"/>
</g>
<!-- NUL_8 -->
<g id="node20" class="node">
<title>NUL_8</title>
<polygon fill="none" stroke="black" points="757.95,-44 713.95,-44 713.95,0 757.95,0 757.95,-44"/>
<text text-anchor="middle" x="735.95" y="-18.3" font-family="Times,serif" font-size="14.00">null</text>
</g>
<!-- No_985278999&#45;&gt;NUL_8 -->
<g id="edge19" class="edge">
<title>No_985278999&#45;&gt;NUL_8</title>
<path fill="none" stroke="black" d="M754.97,-80.34C752.05,-71.55 748.96,-62.23 746.14,-53.72"/>
<polygon fill="black" stroke="black" points="749.45,-52.57 742.98,-44.18 742.8,-54.77 749.45,-52.57"/>
</g>
<!-- NUL_9 -->
<g id="node21" class="node">
<title>NUL_9</title>
<polygon fill="none" stroke="black" points="819.95,-44 775.95,-44 775.95,0 819.95,0 819.95,-44"/>
<text text-anchor="middle" x="797.95" y="-18.3" font-family="Times,serif" font-size="14.00">null</text>
</g>
<!-- No_985278999&#45;&gt;NUL_9 -->
<g id="edge20" class="edge">
<title>No_985278999&#45;&gt;NUL_9</title>
<path fill="none" stroke="black" d="M778.94,-80.34C781.85,-71.55 784.94,-62.23 787.77,-53.72"/>
<polygon fill="black" stroke="black" points="791.1,-54.77 790.93,-44.18 784.46,-52.57 791.1,-54.77"/>
</g>
<!-- NUL_10 -->
<g id="node23" class="node">
<title>NUL_10</title>
<polygon fill="none" stroke="black" points="950.95,-44 906.95,-44 906.95,0 950.95,0 950.95,-44"/>
<text text-anchor="middle" x="928.95" y="-18.3" font-family="Times,serif" font-size="14.00">null</text>
</g>
<!-- No_987340734&#45;&gt;NUL_10 -->
<g id="edge22" class="edge">
<title>No_987340734&#45;&gt;NUL_10</title>
<path fill="none" stroke="black" d="M947.88,-80.07C944.97,-71.3 941.89,-62.02 939.08,-53.55"/>
<polygon fill="black" stroke="black" points="942.41,-52.45 935.94,-44.06 935.76,-54.65 942.41,-52.45"/>
</g>
<!-- NUL_11 -->
<g id="node24" class="node">
<title>NUL_11</title>
<polygon fill="none" stroke="black" points="1012.95,-44 968.95,-44 968.95,0 1012.95,0 1012.95,-44"/>
<text text-anchor="middle" x="990.95" y="-18.3" font-family="Times,serif" font-size="14.00">null</text>
</g>
<!-- No_987340734&#45;&gt;NUL_11 -->
<g id="edge23" class="edge">
<title>No_987340734&#45;&gt;NUL_11</title>
<path fill="none" stroke="black" d="M972.03,-80.07C974.94,-71.3 978.01,-62.02 980.82,-53.55"/>
<polygon fill="black" stroke="black" points="984.14,-54.65 983.97,-44.06 977.5,-52.45 984.14,-54.65"/>
</g>
<!-- No_994116870 -->
<g id="node26" class="node">
<title>No_994116870</title>
<ellipse fill="none" stroke="black" cx="1175.95" cy="-117.48" rx="98.99" ry="37.45"/>
<text text-anchor="middle" x="1175.95" y="-128.78" font-family="Times,serif" font-size="14.00">Alexandra Moura</text>
<text text-anchor="middle" x="1175.95" y="-113.78" font-family="Times,serif" font-size="14.00">994116870</text>
<text text-anchor="middle" x="1175.95" y="-98.78" font-family="Times,serif" font-size="14.00">fb=0</text>
</g>
<!-- No_996598918&#45;&gt;No_994116870 -->
<g id="edge25" class="edge">
<title>No_996598918&#45;&gt;No_994116870</title>
<path fill="none" stroke="black" d="M1175.95,-190.85C1175.95,-182.67 1175.95,-173.89 1175.95,-165.37"/>
<polygon fill="black" stroke="black" points="1179.45,-165.15 1175.95,-155.15 1172.45,-165.15 1179.45,-165.15"/>
</g>
<!-- No_997285865 -->
<g id="node29" class="node">
<title>No_997285865</title>
<ellipse fill="none" stroke="black" cx="1367.95" cy="-117.48" rx="74.91" ry="37.45"/>
<text text-anchor="middle" x="1367.95" y="-128.78" font-family="Times,serif" font-size="14.00">Almir Torres</text>
<text text-anchor="middle" x="1367.95" y="-113.78" font-family="Times,serif" font-size="14.00">997285865</text>
<text text-anchor="middle" x="1367.95" y="-98.78" font-family="Times,serif" font-size="14.00">fb=0</text>
</g>
<!-- No_996598918&#45;&gt;No_997285865 -->
<g id="edge28" class="edge">
<title>No_996598918&#45;&gt;No_997285865</title>
<path fill="none" stroke="black" d="M1222.92,-200.78C1249.27,-185.83 1282.35,-167.05 1310.26,-151.21"/>
<polygon fill="black" stroke="black" points="1312.16,-154.16 1319.13,-146.18 1308.7,-148.07 1312.16,-154.16"/>
</g>
<!-- NUL_12 -->
<g id="node27" class="node">
<title>NUL_12</title>
<polygon fill="none" stroke="black" points="1166.95,-44 1122.95,-44 1122.95,0 1166.95,0 1166.95,-44"/>
<text text-anchor="middle" x="1144.95" y="-18.3" font-family="Times,serif" font-size="14.00">null</text>
</g>
<!-- No_994116870&#45;&gt;NUL_12 -->
<g id="edge26" class="edge">
<title>No_994116870&#45;&gt;NUL_12</title>
<path fill="none" stroke="black" d="M1163.88,-80.07C1160.97,-71.3 1157.89,-62.02 1155.08,-53.55"/>
<polygon fill="black" stroke="black" points="1158.41,-52.45 1151.94,-44.06 1151.76,-54.65 1158.41,-52.45"/>
</g>
<!-- NUL_13 -->
<g id="node28" class="node">
<title>NUL_13</title>
<polygon fill="none" stroke="black" points="1228.95,-44 1184.95,-44 1184.95,0 1228.95,0 1228.95,-44"/>
<text text-anchor="middle" x="1206.95" y="-18.3" font-family="Times,serif" font-size="14.00">null</text>
</g>
<!-- No_994116870&#45;&gt;NUL_13 -->
<g id="edge27" class="edge">
<title>No_994116870&#45;&gt;NUL_13</title>
<path fill="none" stroke="black" d="M1188.03,-80.07C1190.94,-71.3 1194.01,-62.02 1196.82,-53.55"/>
<polygon fill="black" stroke="black" points="1200.14,-54.65 1199.97,-44.06 1193.5,-52.45 1200.14,-54.65"/>
</g>
<!-- NUL_14 -->
<g id="node30" class="node">
<title>NUL_14</title>
<polygon fill="none" stroke="black" points="1358.95,-44 1314.95,-44 1314.95,0 1358.95,0 1358.95,-44"/>
<text text-anchor="middle" x="1336.95" y="-18.3" font-family="Times,serif" font-size="14.00">null</text>
</g>
<!-- No_997285865&#45;&gt;NUL_14 -->
<g id="edge29" class="edge">
<title>No_997285865&#45;&gt;NUL_14</title>
<path fill="none" stroke="black" d="M1355.97,-80.34C1353.05,-71.55 1349.96,-62.23 1347.14,-53.72"/>
<polygon fill="black" stroke="black" points="1350.45,-52.57 1343.98,-44.18 1343.8,-54.77 1350.45,-52.57"/>
</g>
<!-- NUL_15 -->
<g id="node31" class="node">
<title>NUL_15</title>
<polygon fill="none" stroke="black" points="1420.95,-44 1376.95,-44 1376.95,0 1420.95,0 1420.95,-44"/>
<text text-anchor="middle" x="1398.95" y="-18.3" font-family="Times,serif" font-size="14.00">null</text>
</g>
<!-- No_997285865&#45;&gt;NUL_15 -->
<g id="edge30" class="edge">
<title>No_997285865&#45;&gt;NUL_15</title>
<path fill="none" stroke="black" d="M1379.94,-80.34C1382.85,-71.55 1385.94,-62.23 1388.77,-53.72"/>
<polygon fill="black" stroke="black" points="1392.1,-54.77 1391.93,-44.18 1385.46,-52.57 1392.1,-54.77"/>
</g>
</g>
</svg>
